%FSTAX23Y23*%
%MOIN*%
%SFA1B1*%

%IPPOS*%
%AMD75*
4,1,8,0.005900,0.034500,-0.005900,0.034500,-0.015800,0.024600,-0.015800,-0.024600,-0.005900,-0.034500,0.005900,-0.034500,0.015800,-0.024600,0.015800,0.024600,0.005900,0.034500,0.0*
1,1,0.019820,0.005900,0.024600*
1,1,0.019820,-0.005900,0.024600*
1,1,0.019820,-0.005900,-0.024600*
1,1,0.019820,0.005900,-0.024600*
%
%AMD80*
4,1,8,0.034500,-0.005900,0.034500,0.005900,0.024600,0.015800,-0.024600,0.015800,-0.034500,0.005900,-0.034500,-0.005900,-0.024600,-0.015800,0.024600,-0.015800,0.034500,-0.005900,0.0*
1,1,0.019820,0.024600,-0.005900*
1,1,0.019820,0.024600,0.005900*
1,1,0.019820,-0.024600,0.005900*
1,1,0.019820,-0.024600,-0.005900*
%
%AMD97*
4,1,8,-0.031600,-0.013100,-0.013100,-0.031600,0.013100,-0.031600,0.031600,-0.013100,0.031600,0.013100,0.013100,0.031600,-0.013100,0.031600,-0.031600,0.013100,-0.031600,-0.013100,0.0*
%
%AMD102*
4,1,8,0.076800,-0.010600,0.076800,0.010600,0.062200,0.025300,-0.062200,0.025300,-0.076800,0.010600,-0.076800,-0.010600,-0.062200,-0.025300,0.062200,-0.025300,0.076800,-0.010600,0.0*
1,1,0.029260,0.062200,-0.010600*
1,1,0.029260,0.062200,0.010600*
1,1,0.029260,-0.062200,0.010600*
1,1,0.029260,-0.062200,-0.010600*
%
%ADD35C,0.001000*%
G04~CAMADD=75~8~0.0~0.0~316.2~690.2~99.1~0.0~15~0.0~0.0~0.0~0.0~0~0.0~0.0~0.0~0.0~0~0.0~0.0~0.0~0.0~316.2~690.2*
%ADD75D75*%
%ADD76R,0.067060X0.106420*%
%ADD77O,0.082800X0.031620*%
%ADD78O,0.021780X0.078870*%
%ADD79R,0.106420X0.067060*%
G04~CAMADD=80~8~0.0~0.0~316.2~690.2~99.1~0.0~15~0.0~0.0~0.0~0.0~0~0.0~0.0~0.0~0.0~0~0.0~0.0~0.0~270.0~690.0~316.0*
%ADD80D80*%
%ADD81R,0.055240X0.061150*%
%ADD82R,0.061150X0.055240*%
%ADD83R,0.065090X0.053280*%
%ADD84R,0.053280X0.065090*%
%ADD85R,0.049340X0.051310*%
%ADD86R,0.061150X0.047370*%
%ADD87R,0.047370X0.061150*%
%ADD88R,0.039500X0.027690*%
%ADD89R,0.027690X0.039500*%
%ADD90C,0.067060*%
%ADD91R,0.067060X0.067060*%
%ADD92C,0.118240*%
%ADD93C,0.161540*%
%ADD94C,0.068000*%
%ADD95C,0.122170*%
%ADD96R,0.067060X0.067060*%
G04~CAMADD=97~4~0.0~0.0~631.2~631.2~0.0~184.9~0~0.0~0.0~0.0~0.0~0~0.0~0.0~0.0~0.0~0~0.0~0.0~0.0~135.0~631.2~631.2*
%ADD97D97*%
%ADD98C,0.063120*%
%ADD99C,0.126110*%
%ADD100C,0.086740*%
%ADD101C,0.060130*%
G04~CAMADD=102~8~0.0~0.0~505.2~1536.7~146.3~0.0~15~0.0~0.0~0.0~0.0~0~0.0~0.0~0.0~0.0~0~0.0~0.0~0.0~270.0~1537.0~505.0*
%ADD102D102*%
%ADD103C,0.058000*%
%ADD104C,0.048000*%
%ADD105C,0.028000*%
%ADD106C,0.070000*%
%ADD107C,0.030840*%
%ADD108C,0.110360*%
%ADD109C,0.165000*%
%LNcareboard_smd_ordered_kritikare-1*%
%LPD*%
G54D35*
X06963Y0D02*
Y026D01*
X0D02*
X06963D01*
X0Y0D02*
X06963D01*
X0D02*
Y026D01*
G54D75*
X0336Y00575D03*
X03125D03*
X03164D03*
X03203D03*
X03243D03*
X03282D03*
X03321D03*
X04128Y0133D03*
X04089D03*
X04049D03*
X0401D03*
X02302Y02176D03*
X02341D03*
X02381D03*
X0242D03*
G54D76*
X03419Y00678D03*
X03066D03*
X04186Y01215D03*
X03949D03*
X02244Y02291D03*
X02481D03*
G54D77*
X02283Y01989D03*
Y01939D03*
Y01889D03*
Y01839D03*
X02468Y01989D03*
Y01939D03*
Y01889D03*
Y01839D03*
X01261Y021D03*
Y0205D03*
Y02D03*
Y0195D03*
Y019D03*
Y0185D03*
Y018D03*
X01446Y021D03*
Y0205D03*
Y02D03*
Y0195D03*
Y019D03*
Y0185D03*
Y018D03*
X03261Y02017D03*
Y01967D03*
Y01917D03*
Y01867D03*
Y01817D03*
Y01767D03*
Y01717D03*
X03446Y02017D03*
Y01967D03*
Y01917D03*
Y01867D03*
Y01817D03*
Y01767D03*
Y01717D03*
X02281Y01667D03*
Y01617D03*
Y01567D03*
Y01517D03*
X02467Y01667D03*
Y01617D03*
Y01567D03*
Y01517D03*
G54D78*
X04048Y01019D03*
X04023D03*
X03997D03*
X03972D03*
X03946D03*
X0392D03*
X03895D03*
X03869D03*
X03844D03*
X03818D03*
X03792D03*
X03767D03*
X03741D03*
X03716D03*
X04048Y00752D03*
X04023D03*
X03997D03*
X03972D03*
X03946D03*
X0392D03*
X03895D03*
X03869D03*
X03844D03*
X03818D03*
X03792D03*
X03767D03*
X03741D03*
X03716D03*
G54D79*
X01587Y00524D03*
Y00797D03*
G54D80*
X01705Y00741D03*
Y00585D03*
Y00624D03*
Y00663D03*
Y00702D03*
G54D81*
X05849Y0087D03*
X05921D03*
X01292Y02254D03*
X01365D03*
X01292Y02352D03*
X01365D03*
X03374Y01538D03*
X03446D03*
X03888Y0193D03*
X03961D03*
X01183Y00353D03*
X0111D03*
G54D82*
X06499Y00584D03*
Y00512D03*
X00984Y02097D03*
Y02169D03*
X02862Y02236D03*
Y02309D03*
X04115Y01929D03*
Y02002D03*
X03888Y02194D03*
Y02267D03*
X03663Y0204D03*
Y01967D03*
Y02194D03*
Y02267D03*
X02498Y00365D03*
Y00438D03*
X00127Y02205D03*
Y02278D03*
X00129Y01282D03*
Y01209D03*
X00347Y00938D03*
Y01011D03*
G54D83*
X01081Y02172D03*
Y02099D03*
X01052Y01777D03*
Y0185D03*
X03224Y02236D03*
Y02309D03*
X03059Y02236D03*
Y02309D03*
X03074Y01819D03*
Y01746D03*
X04115Y02192D03*
Y02265D03*
X0423Y00926D03*
Y00853D03*
G54D84*
X03072Y01649D03*
X03145D03*
X03888Y02039D03*
X03961D03*
G54D85*
X0434Y00928D03*
Y00849D03*
G54D86*
X0095Y00415D03*
Y00354D03*
G54D87*
X04754Y02312D03*
X04693D03*
G54D88*
X03463Y02208D03*
X03523D03*
Y02347D03*
X03463D03*
G54D89*
X02613Y00372D03*
Y00432D03*
G54D90*
X00955Y02357D03*
X023Y00365D03*
X022Y00465D03*
Y00365D03*
X021Y00465D03*
Y00365D03*
X06492Y00078D03*
X06392D03*
X06292D03*
X06192D03*
X05992D03*
X06092D03*
X00418Y01961D03*
Y01861D03*
Y01761D03*
Y01661D03*
X03191Y01255D03*
X03091D03*
X02991D03*
X02891D03*
X02791D03*
X02691D03*
X02591D03*
X02491D03*
X02391D03*
X02291D03*
X02191D03*
X02091D03*
X01991D03*
X03291Y00955D03*
X03191D03*
X03091D03*
X02991D03*
X02891D03*
X02791D03*
X02691D03*
X02591D03*
X02491D03*
X02391D03*
X02291D03*
X02191D03*
X02091D03*
X01991D03*
X02897Y02015D03*
X02008Y01702D03*
X01791Y02249D03*
X00756Y02056D03*
X04742Y00163D03*
X0618Y00956D03*
X02856Y00577D03*
X0199Y02249D03*
X0103Y0063D03*
X01184Y00631D03*
X06668Y02077D03*
Y02178D03*
Y02279D03*
X06307Y02379D03*
Y02262D03*
X06306Y02145D03*
X06521Y01726D03*
X06471Y01776D03*
X06887Y01775D03*
X06841Y01725D03*
Y02537D03*
X06887Y0249D03*
X06514Y02537D03*
X06464Y0249D03*
G54D91*
X01055Y02357D03*
X023Y00465D03*
X05892Y00078D03*
X02797Y02015D03*
X02108Y01702D03*
X04842Y00163D03*
X0628Y00956D03*
G54D92*
X00347Y00787D03*
X00197D03*
G54D93*
X00272Y00577D03*
Y00307D03*
G54D94*
X06742Y01118D03*
X06642Y01116D03*
X06745Y00272D03*
X06645Y0027D03*
X0575Y00272D03*
X0565Y0027D03*
G54D95*
X00127Y01467D03*
Y01652D03*
Y01837D03*
Y02022D03*
G54D96*
X00418Y01561D03*
X03291Y01255D03*
X01791Y02349D03*
X00756Y01956D03*
X02856Y00677D03*
X0199Y02349D03*
X0103Y0073D03*
X01184Y00731D03*
X06668Y01977D03*
X06311Y02495D03*
G54D97*
X01506Y01019D03*
G54D98*
X01506Y01211D03*
G54D99*
X05548Y01118D03*
X05847Y01117D03*
G54D100*
X06782Y0226D03*
X06875D03*
X06684Y02518D03*
Y0242D03*
X06875Y02016D03*
X06782Y02016D03*
X06681Y01736D03*
Y01834D03*
G54D101*
X06066Y02391D03*
X06007Y02359D03*
X06066Y02326D03*
X06007Y02296D03*
X06066Y02262D03*
G54D102*
X06038Y02491D03*
Y02158D03*
G54D103*
X03042Y00567D03*
Y00391D03*
X008Y0124D03*
X01401Y00626D03*
X05112Y00307D03*
X0517Y00873D03*
X01521Y01593D03*
X00938Y01956D03*
X01148D03*
X01752Y01867D03*
X02743Y01633D03*
X02708Y02204D03*
Y02427D03*
X01369Y00741D03*
X0341Y00862D03*
X06525Y02036D03*
Y02221D03*
X0646Y02036D03*
Y02221D03*
G54D104*
X0152Y02D03*
X03187Y01767D03*
X03519Y01917D03*
X04249Y01981D03*
X01335Y02D03*
X01188Y0185D03*
X04754Y02168D03*
X02952Y01635D03*
X03519Y01817D03*
X03568Y02117D03*
X01335Y018D03*
X04692Y02168D03*
X03187Y01967D03*
X03068Y02113D03*
X03345Y0182D03*
X01188Y0205D03*
X02109Y01939D03*
X02847Y01793D03*
X03869Y00634D03*
X01541Y01894D03*
X0257Y01994D03*
X03895Y01132D03*
X02595Y01693D03*
X03671Y01847D03*
X04928Y00638D03*
X05001Y01008D03*
X04964Y02037D03*
X05092D03*
X04964Y02127D03*
X05028Y02084D03*
X05092Y02125D03*
X02356Y01839D03*
X0254Y01617D03*
X02541Y01839D03*
X0182Y01961D03*
X02181Y02171D03*
X01335Y019D03*
X02209Y01989D03*
X0152Y021D03*
X02553Y02173D03*
X03535Y02017D03*
X04129Y01474D03*
G54D105*
X04823Y00545D03*
X04927D03*
G54D106*
X03945Y01395D03*
G54D107*
X04785Y00687D03*
X04815Y00668D03*
X04785Y00648D03*
X04844Y00687D03*
Y00648D03*
G54D108*
X00272Y02252D03*
Y01252D03*
G54D109*
X04312Y00231D03*
Y02381D03*
X01587D03*
Y00231D03*
M02*