%FSTAX23Y23*%
%MOIN*%
%SFA1B1*%

%IPPOS*%
%ADD35C,0.001000*%
%ADD125C,0.005000*%
%LNcareboard_smd_ordered_kritikare-1*%
%LPD*%
G54D35*
X06963Y0D02*
Y026D01*
X0D02*
X06963D01*
X0Y0D02*
X06963D01*
X0D02*
Y026D01*
G54D125*
X00937Y02357D02*
X00972D01*
X00955Y02339D02*
Y02374D01*
X01037Y02357D02*
X01072D01*
X01055Y02339D02*
Y02374D01*
X00304Y00787D02*
X0039D01*
X00347Y00743D02*
Y0083D01*
X00209Y00577D02*
X00335D01*
X00272Y00514D02*
Y00639D01*
X00154Y00787D02*
X0024D01*
X00197Y00743D02*
Y0083D01*
X00209Y00307D02*
X00335D01*
X00272Y00244D02*
Y00369D01*
X06727Y01118D02*
X06757D01*
X06742Y01103D02*
Y01133D01*
X06627Y01116D02*
X06657D01*
X06642Y01101D02*
Y01131D01*
X0673Y00272D02*
X0676D01*
X06745Y00257D02*
Y00287D01*
X0663Y0027D02*
X0666D01*
X06645Y00255D02*
Y00285D01*
X05735Y00272D02*
X05765D01*
X0575Y00257D02*
Y00287D01*
X05635Y0027D02*
X05665D01*
X0565Y00255D02*
Y00285D01*
X00082Y01467D02*
X00172D01*
X00127Y01421D02*
Y01512D01*
X00082Y01652D02*
X00172D01*
X00127Y01606D02*
Y01697D01*
X00082Y01837D02*
X00172D01*
X00127Y01791D02*
Y01882D01*
X00082Y02022D02*
X00172D01*
X00127Y01976D02*
Y02067D01*
X02282Y00465D02*
X02317D01*
X023Y00447D02*
Y00483D01*
X02282Y00365D02*
X02317D01*
X023Y00347D02*
Y00383D01*
X02182Y00465D02*
X02217D01*
X022Y00447D02*
Y00483D01*
X02182Y00365D02*
X02217D01*
X022Y00347D02*
Y00383D01*
X02082Y00465D02*
X02117D01*
X021Y00447D02*
Y00483D01*
X02082Y00365D02*
X02117D01*
X021Y00347D02*
Y00383D01*
X06474Y00078D02*
X0651D01*
X06492Y0006D02*
Y00096D01*
X06374Y00078D02*
X0641D01*
X06392Y0006D02*
Y00096D01*
X06274Y00078D02*
X0631D01*
X06292Y0006D02*
Y00096D01*
X06174Y00078D02*
X0621D01*
X06192Y0006D02*
Y00096D01*
X05974Y00078D02*
X0601D01*
X05992Y0006D02*
Y00096D01*
X05874Y00078D02*
X0591D01*
X05892Y0006D02*
Y00096D01*
X06074Y00078D02*
X0611D01*
X06092Y0006D02*
Y00096D01*
X004Y01961D02*
X00436D01*
X00418Y01943D02*
Y01978D01*
X004Y01861D02*
X00436D01*
X00418Y01843D02*
Y01878D01*
X004Y01761D02*
X00436D01*
X00418Y01743D02*
Y01778D01*
X004Y01661D02*
X00436D01*
X00418Y01643D02*
Y01678D01*
X004Y01561D02*
X00436D01*
X00418Y01543D02*
Y01578D01*
X0149Y01019D02*
X01522D01*
X01506Y01003D02*
Y01034D01*
X0149Y01211D02*
X01522D01*
X01506Y01195D02*
Y01227D01*
X05498Y01118D02*
X05597D01*
X05548Y01068D02*
Y01167D01*
X05797Y01117D02*
X05896D01*
X05847Y01067D02*
Y01166D01*
X03273Y01255D02*
X03308D01*
X03291Y01238D02*
Y01273D01*
X03173Y01255D02*
X03208D01*
X03191Y01238D02*
Y01273D01*
X03073Y01255D02*
X03108D01*
X03091Y01238D02*
Y01273D01*
X02973Y01255D02*
X03008D01*
X02991Y01238D02*
Y01273D01*
X02873Y01255D02*
X02908D01*
X02891Y01238D02*
Y01273D01*
X02773Y01255D02*
X02808D01*
X02791Y01238D02*
Y01273D01*
X02673Y01255D02*
X02708D01*
X02691Y01238D02*
Y01273D01*
X02573Y01255D02*
X02608D01*
X02591Y01238D02*
Y01273D01*
X02473Y01255D02*
X02508D01*
X02491Y01238D02*
Y01273D01*
X02373Y01255D02*
X02408D01*
X02391Y01238D02*
Y01273D01*
X02273Y01255D02*
X02308D01*
X02291Y01238D02*
Y01273D01*
X02173Y01255D02*
X02208D01*
X02191Y01238D02*
Y01273D01*
X02073Y01255D02*
X02108D01*
X02091Y01238D02*
Y01273D01*
X01973Y01255D02*
X02008D01*
X01991Y01238D02*
Y01273D01*
X03273Y00955D02*
X03308D01*
X03291Y00938D02*
Y00973D01*
X03173Y00955D02*
X03208D01*
X03191Y00938D02*
Y00973D01*
X03073Y00955D02*
X03108D01*
X03091Y00938D02*
Y00973D01*
X02973Y00955D02*
X03008D01*
X02991Y00938D02*
Y00973D01*
X02873Y00955D02*
X02908D01*
X02891Y00938D02*
Y00973D01*
X02773Y00955D02*
X02808D01*
X02791Y00938D02*
Y00973D01*
X02673Y00955D02*
X02708D01*
X02691Y00938D02*
Y00973D01*
X02573Y00955D02*
X02608D01*
X02591Y00938D02*
Y00973D01*
X02473Y00955D02*
X02508D01*
X02491Y00938D02*
Y00973D01*
X02373Y00955D02*
X02408D01*
X02391Y00938D02*
Y00973D01*
X02273Y00955D02*
X02308D01*
X02291Y00938D02*
Y00973D01*
X02173Y00955D02*
X02208D01*
X02191Y00938D02*
Y00973D01*
X02073Y00955D02*
X02108D01*
X02091Y00938D02*
Y00973D01*
X01973Y00955D02*
X02008D01*
X01991Y00938D02*
Y00973D01*
X02879Y02015D02*
X02914D01*
X02897Y01997D02*
Y02032D01*
X02779Y02015D02*
X02814D01*
X02797Y01997D02*
Y02032D01*
X0199Y01702D02*
X02025D01*
X02008Y01684D02*
Y01719D01*
X0209Y01702D02*
X02125D01*
X02108Y01684D02*
Y01719D01*
X01773Y02249D02*
X01808D01*
X01791Y02231D02*
Y02267D01*
X01773Y02349D02*
X01808D01*
X01791Y02331D02*
Y02367D01*
X00738Y02056D02*
X00773D01*
X00756Y02038D02*
Y02073D01*
X00738Y01956D02*
X00773D01*
X00756Y01938D02*
Y01973D01*
X04724Y00163D02*
X04759D01*
X04742Y00145D02*
Y0018D01*
X04824Y00163D02*
X04859D01*
X04842Y00145D02*
Y0018D01*
X06162Y00956D02*
X06198D01*
X0618Y00938D02*
Y00974D01*
X06262Y00956D02*
X06298D01*
X0628Y00938D02*
Y00974D01*
X02838Y00577D02*
X02873D01*
X02856Y00559D02*
Y00594D01*
X02838Y00677D02*
X02873D01*
X02856Y00659D02*
Y00694D01*
X01972Y02249D02*
X02007D01*
X0199Y02231D02*
Y02267D01*
X01972Y02349D02*
X02007D01*
X0199Y02331D02*
Y02367D01*
X01012Y0063D02*
X01047D01*
X0103Y00612D02*
Y00647D01*
X01012Y0073D02*
X01047D01*
X0103Y00712D02*
Y00747D01*
X01166Y00631D02*
X01201D01*
X01184Y00613D02*
Y00648D01*
X01166Y00731D02*
X01201D01*
X01184Y00713D02*
Y00748D01*
X06752Y0226D02*
X06811D01*
X06782Y0223D02*
Y02289D01*
X06845Y0226D02*
X06904D01*
X06875Y0223D02*
Y02289D01*
X06654Y02518D02*
X06713D01*
X06684Y02488D02*
Y02547D01*
X06654Y0242D02*
X06713D01*
X06684Y0239D02*
Y02449D01*
X06845Y02016D02*
X06904D01*
X06875Y01986D02*
Y02045D01*
X06752Y02016D02*
X06811D01*
X06782Y01987D02*
Y02046D01*
X0665Y01977D02*
X06685D01*
X06668Y01959D02*
Y01994D01*
X0665Y02077D02*
X06685D01*
X06668Y0206D02*
Y02095D01*
X0665Y02178D02*
X06685D01*
X06668Y0216D02*
Y02196D01*
X0665Y02279D02*
X06685D01*
X06668Y02261D02*
Y02296D01*
X06651Y01736D02*
X0671D01*
X06681Y01706D02*
Y01765D01*
X06651Y01834D02*
X0671D01*
X06681Y01804D02*
Y01863D01*
X06293Y02495D02*
X06328D01*
X06311Y02477D02*
Y02513D01*
X06289Y02379D02*
X06324D01*
X06307Y02361D02*
Y02396D01*
X06289Y02262D02*
X06324D01*
X06307Y02244D02*
Y0228D01*
X06288Y02145D02*
X06323D01*
X06306Y02128D02*
Y02163D01*
X06051Y02391D02*
X06081D01*
X06066Y02376D02*
Y02406D01*
X05992Y02359D02*
X06022D01*
X06007Y02344D02*
Y02374D01*
X06051Y02326D02*
X06081D01*
X06066Y02311D02*
Y02341D01*
X05992Y02296D02*
X06022D01*
X06007Y02281D02*
Y02311D01*
X06051Y02262D02*
X06081D01*
X06066Y02247D02*
Y02277D01*
X06016Y02491D02*
X06059D01*
X06038Y02469D02*
Y02512D01*
X06016Y02158D02*
X06059D01*
X06038Y02136D02*
Y02179D01*
X03028Y00567D02*
X03056D01*
X03042Y00553D02*
Y00581D01*
X03028Y00391D02*
X03056D01*
X03042Y00377D02*
Y00405D01*
X00786Y0124D02*
X00814D01*
X008Y01226D02*
Y01254D01*
X0151Y02D02*
X0153D01*
X0152Y0199D02*
Y0201D01*
X03177Y01767D02*
X03197D01*
X03187Y01757D02*
Y01777D01*
X03509Y01917D02*
X03529D01*
X03519Y01907D02*
Y01927D01*
X04239Y01981D02*
X04259D01*
X04249Y01971D02*
Y01991D01*
X01325Y02D02*
X01345D01*
X01335Y0199D02*
Y0201D01*
X01178Y0185D02*
X01198D01*
X01188Y0184D02*
Y0186D01*
X01387Y00626D02*
X01415D01*
X01401Y00612D02*
Y0064D01*
X04816Y00545D02*
X04831D01*
X04823Y00538D02*
Y00553D01*
X0492Y00545D02*
X04935D01*
X04927Y00538D02*
Y00553D01*
X05098Y00307D02*
X05126D01*
X05112Y00293D02*
Y00321D01*
X05156Y00873D02*
X05184D01*
X0517Y00859D02*
Y00887D01*
X04744Y02168D02*
X04764D01*
X04754Y02158D02*
Y02178D01*
X01507Y01593D02*
X01535D01*
X01521Y01579D02*
Y01607D01*
X00924Y01956D02*
X00952D01*
X00938Y01942D02*
Y0197D01*
X01134Y01956D02*
X01162D01*
X01148Y01942D02*
Y0197D01*
X01738Y01867D02*
X01766D01*
X01752Y01853D02*
Y01881D01*
X02729Y01633D02*
X02757D01*
X02743Y01619D02*
Y01647D01*
X02942Y01635D02*
X02962D01*
X02952Y01625D02*
Y01645D01*
X02694Y02204D02*
X02722D01*
X02708Y0219D02*
Y02218D01*
X02694Y02427D02*
X02722D01*
X02708Y02413D02*
Y02441D01*
X03509Y01817D02*
X03529D01*
X03519Y01807D02*
Y01827D01*
X03558Y02117D02*
X03578D01*
X03568Y02107D02*
Y02127D01*
X01325Y018D02*
X01345D01*
X01335Y0179D02*
Y0181D01*
X04682Y02168D02*
X04702D01*
X04692Y02158D02*
Y02178D01*
X03177Y01967D02*
X03197D01*
X03187Y01957D02*
Y01977D01*
X03058Y02113D02*
X03078D01*
X03068Y02103D02*
Y02123D01*
X03335Y0182D02*
X03355D01*
X03345Y0181D02*
Y0183D01*
X01178Y0205D02*
X01198D01*
X01188Y0204D02*
Y0206D01*
X02099Y01939D02*
X02119D01*
X02109Y01929D02*
Y01949D01*
X02837Y01793D02*
X02857D01*
X02847Y01783D02*
Y01803D01*
X01355Y00741D02*
X01383D01*
X01369Y00727D02*
Y00755D01*
X03396Y00862D02*
X03424D01*
X0341Y00848D02*
Y00876D01*
X03859Y00634D02*
X03879D01*
X03869Y00624D02*
Y00644D01*
X01531Y01894D02*
X01551D01*
X01541Y01884D02*
Y01904D01*
X0256Y01994D02*
X0258D01*
X0257Y01984D02*
Y02004D01*
X03885Y01132D02*
X03905D01*
X03895Y01122D02*
Y01142D01*
X03929Y01395D02*
X03961D01*
X03945Y01379D02*
Y01411D01*
X02585Y01693D02*
X02605D01*
X02595Y01683D02*
Y01703D01*
X03661Y01847D02*
X03681D01*
X03671Y01837D02*
Y01857D01*
X04914Y00638D02*
X04942D01*
X04928Y00624D02*
Y00652D01*
X04987Y01008D02*
X05015D01*
X05001Y00994D02*
Y01022D01*
X04954Y02037D02*
X04974D01*
X04964Y02027D02*
Y02047D01*
X05082Y02037D02*
X05102D01*
X05092Y02027D02*
Y02047D01*
X04954Y02127D02*
X04974D01*
X04964Y02117D02*
Y02137D01*
X05018Y02084D02*
X05038D01*
X05028Y02074D02*
Y02094D01*
X05082Y02125D02*
X05102D01*
X05092Y02115D02*
Y02135D01*
X02346Y01839D02*
X02366D01*
X02356Y01829D02*
Y01849D01*
X0253Y01617D02*
X0255D01*
X0254Y01607D02*
Y01627D01*
X02531Y01839D02*
X02551D01*
X02541Y01829D02*
Y01849D01*
X0181Y01961D02*
X0183D01*
X0182Y01951D02*
Y01971D01*
X02171Y02171D02*
X02191D01*
X02181Y02161D02*
Y02181D01*
X01325Y019D02*
X01345D01*
X01335Y0189D02*
Y0191D01*
X02199Y01989D02*
X02219D01*
X02209Y01979D02*
Y01999D01*
X0151Y021D02*
X0153D01*
X0152Y0209D02*
Y0211D01*
X02543Y02173D02*
X02563D01*
X02553Y02163D02*
Y02183D01*
X03525Y02017D02*
X03545D01*
X03535Y02007D02*
Y02027D01*
X04119Y01474D02*
X04139D01*
X04129Y01464D02*
Y01484D01*
X04778Y00687D02*
X04793D01*
X04785Y0068D02*
Y00695D01*
X04807Y00668D02*
X04822D01*
X04815Y0066D02*
Y00675D01*
X04778Y00648D02*
X04793D01*
X04785Y0064D02*
Y00655D01*
X04837Y00687D02*
X04852D01*
X04844Y0068D02*
Y00695D01*
X04837Y00648D02*
X04852D01*
X04844Y0064D02*
Y00655D01*
X00225Y02252D02*
X00319D01*
X00272Y02204D02*
Y02299D01*
X00225Y01252D02*
X00319D01*
X00272Y01204D02*
Y01299D01*
X04234Y00231D02*
X04391D01*
X04312Y00152D02*
Y00309D01*
X04234Y02381D02*
X04391D01*
X04312Y02302D02*
Y02459D01*
X01509Y02381D02*
X01666D01*
X01587Y02302D02*
Y02459D01*
X01509Y00231D02*
X01666D01*
X01587Y00152D02*
Y00309D01*
X06495Y01726D02*
X06546D01*
X06521Y017D02*
Y01751D01*
X06445Y01776D02*
X06496D01*
X06471Y0175D02*
Y01801D01*
X06862Y01775D02*
X06913D01*
X06887Y0175D02*
Y01801D01*
X06815Y01725D02*
X06866D01*
X06841Y017D02*
Y01751D01*
X06815Y02537D02*
X06866D01*
X06841Y02511D02*
Y02562D01*
X06862Y0249D02*
X06913D01*
X06887Y02465D02*
Y02516D01*
X06488Y02537D02*
X06539D01*
X06514Y02511D02*
Y02562D01*
X06438Y0249D02*
X06489D01*
X06464Y02465D02*
Y02516D01*
X06511Y02036D02*
X06539D01*
X06525Y02022D02*
Y0205D01*
X06511Y02221D02*
X06539D01*
X06525Y02207D02*
Y02235D01*
X06446Y02036D02*
X06474D01*
X0646Y02022D02*
Y0205D01*
X06446Y02221D02*
X06474D01*
X0646Y02207D02*
Y02235D01*
M02*