%FSTAX23Y23*%
%MOIN*%
%SFA1B1*%

%IPPOS*%
%AMD15*
4,1,8,0.030500,-0.005900,0.030500,0.005900,0.024600,0.011800,-0.024600,0.011800,-0.030500,0.005900,-0.030500,-0.005900,-0.024600,-0.011800,0.024600,-0.011800,0.030500,-0.005900,0.0*
1,1,0.011820,0.024600,-0.005900*
1,1,0.011820,0.024600,0.005900*
1,1,0.011820,-0.024600,0.005900*
1,1,0.011820,-0.024600,-0.005900*
%
%AMD43*
4,1,8,-0.027600,-0.011500,-0.011500,-0.027600,0.011500,-0.027600,0.027600,-0.011500,0.027600,0.011500,0.011500,0.027600,-0.011500,0.027600,-0.027600,0.011500,-0.027600,-0.011500,0.0*
%
%AMD48*
4,1,8,0.072800,-0.010600,0.072800,0.010600,0.062200,0.021300,-0.062200,0.021300,-0.072800,0.010600,-0.072800,-0.010600,-0.062200,-0.021300,0.062200,-0.021300,0.072800,-0.010600,0.0*
1,1,0.021260,0.062200,-0.010600*
1,1,0.021260,0.062200,0.010600*
1,1,0.021260,-0.062200,0.010600*
1,1,0.021260,-0.062200,-0.010600*
%
%ADD14R,0.098430X0.059060*%
G04~CAMADD=15~8~0.0~0.0~236.2~610.2~59.1~0.0~15~0.0~0.0~0.0~0.0~0~0.0~0.0~0.0~0.0~0~0.0~0.0~0.0~270.0~610.0~236.0*
%ADD15D15*%
%ADD16R,0.047240X0.053150*%
%ADD17R,0.053150X0.047240*%
%ADD18R,0.057090X0.045280*%
%ADD19R,0.045280X0.057090*%
%ADD20R,0.041340X0.043310*%
%ADD25C,0.020000*%
%ADD26C,0.015000*%
%ADD27C,0.030000*%
%ADD28C,0.013000*%
%ADD29C,0.050000*%
%ADD30C,0.040000*%
%ADD31C,0.065000*%
%ADD34C,0.010000*%
%ADD35C,0.001000*%
%ADD36C,0.059060*%
%ADD37R,0.059060X0.059060*%
%ADD38C,0.110240*%
%ADD39C,0.153540*%
%ADD40C,0.060000*%
%ADD41C,0.114170*%
%ADD42R,0.059060X0.059060*%
G04~CAMADD=43~4~0.0~0.0~551.2~551.2~0.0~161.4~0~0.0~0.0~0.0~0.0~0~0.0~0.0~0.0~0.0~0~0.0~0.0~0.0~135.0~551.2~551.2*
%ADD43D43*%
%ADD44C,0.055120*%
%ADD45C,0.118110*%
%ADD46C,0.078740*%
%ADD47C,0.052130*%
G04~CAMADD=48~8~0.0~0.0~425.2~1456.7~106.3~0.0~15~0.0~0.0~0.0~0.0~0~0.0~0.0~0.0~0.0~0~0.0~0.0~0.0~270.0~1457.0~425.0*
%ADD48D48*%
%ADD49C,0.050000*%
%ADD50C,0.040000*%
%ADD51C,0.020000*%
%ADD52C,0.062000*%
%ADD53C,0.022840*%
%ADD54C,0.102360*%
%ADD55C,0.157000*%
%ADD56R,0.066930X0.125980*%
%ADD57R,0.094490X0.064960*%
%ADD58O,0.011020X0.033470*%
%ADD59R,0.035430X0.025590*%
%ADD60R,0.061020X0.055120*%
%ADD61R,0.039370X0.023620*%
%ADD62R,0.043310X0.041340*%
%ADD63C,0.045000*%
%ADD64C,0.025000*%
%ADD65C,0.070000*%
%ADD66C,0.035000*%
%ADD67C,0.055000*%
%ADD68R,0.027560X0.011020*%
%ADD69R,0.027560X0.011020*%
%ADD70R,0.027560X0.011020*%
%LNcareboard_smd_ordered_kritikare-1*%
%LPD*%
G36*
X04633Y01917D02*
X04691D01*
X04697Y01911*
X04704Y01905*
X04713Y01901*
X04722Y019*
X0478*
Y01783*
X0478Y01782*
X04547*
Y01915*
X04629Y01918*
X04607Y01917*
X04629Y01918*
X04633Y01917*
G37*
G36*
X00503Y02367D02*
Y00216D01*
X00328*
X00327Y0022*
X00329Y00221*
X00344Y00234*
X00357Y0025*
X00366Y00267*
X00372Y00287*
X00374Y00307*
X00372Y00326*
X00366Y00346*
X00357Y00363*
X00344Y00379*
X00329Y00392*
X00311Y00401*
X00292Y00407*
X00272Y00409*
X00252Y00407*
X00242Y00404*
X00145Y00501*
Y01235*
X00201Y01291*
X00205Y01288*
X00201Y01281*
X00197Y01266*
X00195Y01252*
X00197Y01237*
X00201Y01222*
X00208Y01209*
X00218Y01197*
X00229Y01188*
X00243Y01181*
X00257Y01176*
X00272Y01175*
X00287Y01176*
X00301Y01181*
X00315Y01188*
X00326Y01197*
X00336Y01209*
X00343Y01222*
X00347Y01237*
X00349Y01252*
X00347Y01266*
X00343Y01281*
X00336Y01294*
X00326Y01306*
X00315Y01315*
X00301Y01322*
X00287Y01327*
X00272Y01328*
X00257Y01327*
X00243Y01322*
X00236Y01319*
X00233Y01323*
X00302Y01392*
X00309Y01402*
X00314Y01413*
X00316Y01426*
Y01539*
X0039Y01613*
X00391*
X00404Y01607*
X00418Y01606*
X00432Y01607*
X00446Y01613*
X00457Y01622*
X00466Y01633*
X00471Y01646*
X00473Y01661*
X00471Y01675*
X00466Y01688*
X00457Y01699*
X00446Y01708*
Y01713*
X00457Y01722*
X00466Y01733*
X00471Y01746*
X00473Y01761*
X00471Y01775*
X00466Y01788*
X00457Y01799*
X00446Y01808*
Y01813*
X00457Y01822*
X00466Y01833*
X00471Y01846*
X00473Y01861*
X00471Y01875*
X00466Y01888*
X00457Y01899*
X00446Y01908*
Y01913*
X00457Y01922*
X00466Y01933*
X00471Y01946*
X00473Y01961*
X00471Y01975*
X00466Y01988*
X00457Y01999*
X00446Y02008*
X00432Y02014*
X00418Y02016*
X00404Y02014*
X00391Y02008*
X00379Y01999*
X0037Y01988*
X00365Y01975*
X00363Y01961*
X00365Y01946*
X0037Y01933*
X00379Y01922*
X0039Y01913*
Y01908*
X00379Y01899*
X0037Y01888*
X00365Y01875*
X00363Y01861*
X00365Y01846*
X0037Y01833*
X00379Y01822*
X0039Y01813*
Y01808*
X00379Y01799*
X0037Y01788*
X00365Y01775*
X00363Y01761*
X00365Y01746*
X0037Y01733*
X00379Y01722*
X0039Y01713*
X00389Y01708*
X0037*
X00358Y01707*
X00349Y01703*
X00346Y01702*
X00336Y01694*
X00234Y01592*
X00227Y01582*
X00225Y01579*
X00222Y01571*
X0022Y01559*
Y01445*
X00208Y01433*
X00203Y01435*
X00208Y0145*
X00209Y01467*
X00208Y01483*
X00203Y01498*
X00196Y01512*
X00185Y01525*
X00173Y01535*
X00159Y01543*
X00143Y01547*
X00127Y01549*
X00111Y01547*
X00095Y01543*
X00081Y01535*
X00069Y01525*
X00058Y01512*
X00051Y01498*
X00046Y01483*
X00045Y01467*
X00046Y0145*
X00051Y01435*
X00058Y01421*
X00069Y01408*
X00081Y01398*
X00095Y0139*
X00111Y01386*
X00127Y01384*
X00143Y01386*
X00158Y0139*
X00161Y01386*
X00063Y01288*
X00056Y01278*
X00054Y01275*
X00051Y01267*
X00049Y01255*
Y00482*
X00051Y00469*
X00054Y00461*
X00056Y00458*
X00063Y00448*
X00175Y00336*
X00172Y00326*
X0017Y00307*
X00172Y00287*
X00178Y00267*
X00187Y0025*
X002Y00234*
X00215Y00221*
X00217Y0022*
X00216Y00216*
X0004*
X00039Y02365*
X00043Y02369*
X00502*
X00503Y02367*
G37*
G36*
X04681Y02124D02*
X04692Y02123D01*
X04694Y02123*
X04697Y02123*
X04698Y02122*
Y02025*
X04722*
Y02007*
X04712*
Y01942*
X04633*
Y01943*
Y02126*
X04635Y02128*
X04672*
X04681Y02124*
G37*
G36*
X05134Y01909D02*
D01*
X05138Y01908*
Y01784*
X04822*
X04821Y01785*
Y01894*
X04892*
Y01897*
X04928*
X04937Y01898*
X04946Y01901*
X04953Y01907*
X04955Y01909*
X05134*
G37*
G36*
X04746Y00801D02*
X04773Y00778D01*
X04773Y00773*
X04766Y00766*
X04762Y00764*
X0474*
Y0078*
X04633*
Y00709*
X04561*
X04561Y0071*
X04553Y00715*
X04543Y00717*
X04531*
X04521Y00715*
X04513Y0071*
X04508Y00703*
X04467*
X04467Y00703*
Y00889*
X04658*
X04746Y00801*
G37*
G36*
X05219Y00918D02*
Y0071D01*
X05076Y00709*
X05063Y00709*
X04972*
X04895Y00713*
X04887Y00714*
Y00725*
X04865*
Y00737*
X04864Y00745*
X04861Y00752*
X04857Y00757*
X0491Y00809*
Y00915*
X04914Y00919*
X05219Y00918*
G37*
G36*
Y01188D02*
X05217Y01187D01*
X05211Y01196*
X05183Y01224*
X05171Y01233*
X05157Y01239*
X05142Y01241*
X05117*
Y01246*
X05117Y0125*
X05116Y01255*
X05113Y01259*
X0511Y01264*
X05109Y01265*
X05105Y01267*
X05101Y0127*
X05096Y01271*
X05091Y01272*
X05091*
X05063*
Y01758*
X05138*
X05148Y0176*
X05156Y01765*
X05162Y01774*
X05163Y01784*
Y01908*
X05162Y01913*
X05162Y01917*
X05159Y01922*
X05156Y01926*
X05152Y01928*
X05148Y01931*
X05143Y01933*
X05139Y01934*
X05134Y01935*
X04955*
X04953Y01935*
X04952Y01935*
X04948Y01934*
X04948Y01934*
X04945Y01933*
X04945Y01933*
X049*
Y01927*
X04892*
Y01931*
Y02007*
X04883*
Y0202*
Y02047*
X04902*
Y0212*
Y02217*
X04798*
Y02201*
X04785*
X04776Y02207*
X04765Y02212*
X04754Y02214*
X04742Y02212*
X04731Y02207*
X04723Y02201*
X04715Y02207*
X04704Y02212*
X04692Y02214*
X04681Y02212*
X04672Y02208*
X04632*
X04623Y02212*
X04612Y02214*
X046Y02212*
X04589Y02207*
X0458Y022*
X04566Y02187*
X04558Y02183*
X04547Y02175*
X04539Y02165*
X04534Y02153*
X04533Y0214*
Y01935*
X04529Y01933*
X04529Y01932*
X04528Y01932*
X04526Y01928*
X04523Y01924*
X04523Y01924*
X04523Y01923*
X04522Y01919*
X04522Y01915*
Y01865*
X04436Y01779*
X04427Y01767*
X04421Y01753*
X04419Y01738*
Y01559*
X0441*
Y01384*
X04434*
Y01375*
X0443*
Y01284*
X04523*
Y01375*
X0452*
Y01384*
X04527*
Y01436*
X04533Y01449*
X04535Y01465*
Y01714*
X04577Y01756*
X0478*
X04785Y01757*
X04789Y01758*
X04794Y01761*
X04798Y01763*
X048Y01767*
X04802*
X04803Y01766*
Y01766*
X04804Y01765*
X04808Y01763*
X04812Y0176*
X04817Y01759*
X04822Y01758*
X04943*
Y01272*
X04915*
X0491Y01271*
X04767*
Y01162*
X04885*
Y01149*
X04886Y01143*
X04887Y0114*
X0489Y01135*
X04892Y01131*
X04896Y01129*
X04901Y01126*
X04905Y01124*
X04907Y01123*
X04915Y01122*
X04915Y01122*
X04958*
X04961Y01123*
X04964Y01123*
X04966Y01124*
X04967Y01124*
X04969Y01125*
X0497Y01124*
X04978Y01123*
X05028*
X05036Y01124*
X05036Y01125*
X05038*
X05039Y01124*
X0504Y01124*
X05041Y01123*
X05042Y01123*
X05045Y01123*
X05048Y01122*
X05092*
X05102Y01124*
X05103Y01125*
X05112*
Y00945*
X05111Y00944*
X04914Y00944*
X04914*
X04909Y00943*
X04904Y00942*
X049Y00939*
X04896Y00937*
Y00937*
X04892Y00933*
X0489Y00929*
X04887Y00925*
X04886Y0092*
X04885Y00915*
Y00819*
X04872Y00807*
X0487Y00808*
Y00903*
X04759*
Y00825*
X04758Y00825*
X04676Y00907*
X04667Y00912*
X04658Y00914*
X04467*
X04457Y00912*
X04449Y00907*
X04443Y00898*
X04441Y00889*
Y00748*
X04403Y00709*
X04394Y00699*
X04389Y00687*
X04388Y00674*
Y00585*
X04232*
X04219Y00583*
X04207Y00578*
X04197Y0057*
X0395Y00323*
X02337*
X02337Y00325*
X02338Y00326*
X02347Y00338*
X02353Y00351*
X02355Y00365*
X02353Y00379*
X02347Y00392*
X02348Y00394*
X02351Y00395*
X02357Y004*
X02414Y00456*
X02416Y00459*
X02419Y00463*
X02422Y00471*
X02423Y0048*
Y00912*
X0243Y00916*
X02438Y00928*
X0244Y00931*
X02442*
X02443Y00928*
X02452Y00916*
X02463Y00908*
X02476Y00902*
X02491Y009*
X02505Y00902*
X02518Y00908*
X0253Y00916*
X02538Y00928*
X0254Y00931*
X02542*
X02543Y00928*
X02552Y00916*
X02563Y00908*
X02576Y00902*
X02591Y009*
X02605Y00902*
X02618Y00908*
X0263Y00916*
X02638Y00928*
X02644Y00941*
X02646Y00955*
X02644Y00969*
X02638Y00983*
X0263Y00994*
X02618Y01003*
X02605Y01008*
X02591Y0101*
X02582Y01009*
X02574Y01017*
Y01094*
X02675*
Y01109*
X02688*
Y01103*
X02779*
Y01196*
X02766*
Y01205*
X02768Y01206*
X02776Y01202*
X02791Y012*
X02805Y01202*
X02818Y01208*
X0283Y01216*
X02838Y01228*
X0284Y01231*
X02842*
X02843Y01228*
X02852Y01216*
X02863Y01208*
X02876Y01202*
X02891Y012*
X02902Y01202*
X02904Y012*
Y01178*
X02765Y0104*
X02759Y01032*
X02756Y01024*
X02755Y01015*
Y00996*
X02752Y00994*
X02743Y00983*
X02738Y00969*
X02736Y00955*
X02738Y00941*
X02743Y00928*
X02752Y00916*
X02763Y00908*
X02776Y00902*
X02791Y009*
X02805Y00902*
X02818Y00908*
X0283Y00916*
X02838Y00928*
X0284Y00931*
X02842*
X02843Y00928*
X02852Y00916*
X02863Y00908*
X02876Y00902*
X02891Y009*
X02905Y00902*
X02918Y00908*
X0293Y00916*
X02938Y00928*
X0294Y00931*
X02942*
X02943Y00928*
X02952Y00916*
X02963Y00908*
X02976Y00902*
X02991Y009*
X03005Y00902*
X03018Y00908*
X0303Y00916*
X03038Y00928*
X0304Y00931*
X03042*
X03043Y00928*
X03052Y00916*
X03063Y00908*
X03076Y00902*
X03091Y009*
X03105Y00902*
X03118Y00908*
X0313Y00916*
X03138Y00928*
X0314Y00931*
X03142*
X03143Y00928*
X03152Y00916*
X03163Y00908*
X03176Y00902*
X03191Y009*
X03205Y00902*
X03218Y00908*
X0323Y00916*
X03238Y00928*
X0324Y00931*
X03242*
X03243Y00928*
X03252Y00916*
X03263Y00908*
X03276Y00902*
X03291Y009*
X03305Y00902*
X03318Y00908*
X0333Y00916*
X03338Y00928*
X03344Y00941*
X03346Y00955*
X03344Y00969*
X03338Y00983*
X0333Y00994*
X03318Y01003*
X03305Y01008*
X03291Y0101*
X03276Y01008*
X03263Y01003*
X03252Y00994*
X03243Y00983*
X03242Y00979*
X0324*
X03238Y00983*
X0323Y00994*
X03218Y01003*
X03205Y01008*
X03191Y0101*
X03176Y01008*
X03163Y01003*
X03152Y00994*
X03143Y00983*
X03142Y00979*
X0314*
X03138Y00983*
X0313Y00994*
X03118Y01003*
X03105Y01008*
X03091Y0101*
X03076Y01008*
X03063Y01003*
X03052Y00994*
X03043Y00983*
X03042Y00979*
X0304*
X03038Y00983*
X0303Y00994*
X03018Y01003*
X03005Y01008*
X02991Y0101*
X02976Y01008*
X02963Y01003*
X02952Y00994*
X02943Y00983*
X02942Y00979*
X0294*
X02938Y00983*
X0293Y00994*
X02918Y01003*
X02905Y01008*
X02891Y0101*
X02876Y01008*
X02863Y01003*
X02852Y00994*
X02843Y00983*
X02842Y00979*
X0284*
X02838Y00983*
X0283Y00994*
X02825Y00997*
Y01*
X02964Y01139*
X0297Y01146*
X02973Y01154*
X02974Y01164*
Y01201*
X02976Y01202*
X02976Y01202*
X02991Y012*
X03005Y01202*
X03018Y01208*
X0303Y01216*
X03038Y01228*
X0304Y01231*
X03042*
X03043Y01228*
X03052Y01216*
X03063Y01208*
X03076Y01202*
X03091Y012*
X03105Y01202*
X03118Y01208*
X0313Y01216*
X03138Y01228*
X0314Y01231*
X03142*
X03143Y01228*
X03152Y01216*
X03163Y01208*
X03176Y01202*
X03191Y012*
X03205Y01202*
X03218Y01208*
X0323Y01216*
X03234Y01222*
X03236Y01222*
Y01201*
X03345*
Y0131*
X03236*
Y01289*
X03234Y01288*
X0323Y01294*
X03218Y01303*
X03205Y01308*
X03191Y0131*
X03176Y01308*
X03163Y01303*
X03152Y01294*
X03143Y01283*
X03142Y01279*
X0314*
X03138Y01283*
X0313Y01294*
X03118Y01303*
X03105Y01308*
X03091Y0131*
X03076Y01308*
X03063Y01303*
X03052Y01294*
X03043Y01283*
X03042Y01279*
X0304*
X03038Y01283*
X0303Y01294*
X03018Y01303*
X03015Y01304*
X03015Y01306*
X03448Y0174*
X03454Y01747*
X03457Y01755*
X03458Y01765*
Y01829*
X0346Y0183*
X03474Y01816*
X03475Y01806*
X0348Y01795*
X03487Y01785*
X03497Y01778*
X03507Y01774*
X03519Y01772*
X03531Y01774*
X03542Y01778*
X03551Y01785*
X03559Y01795*
X03563Y01806*
X03565Y01817*
X03563Y01829*
X03559Y0184*
X03551Y01849*
X03542Y01857*
X03531Y01861*
X0352Y01863*
X03512Y01871*
X03513Y01873*
X03519Y01872*
X03531Y01874*
X03542Y01878*
X0355Y01885*
X04185*
X04189Y01885*
X04194Y01886*
X04198Y01887*
X04202Y01889*
X04208Y01894*
X0425Y01936*
X04261Y01937*
X04272Y01942*
X04281Y01949*
X04288Y01959*
X04293Y0197*
X04294Y01981*
X04293Y01993*
X04288Y02004*
X04281Y02013*
X04272Y02021*
X04261Y02025*
X04249Y02027*
X04237Y02025*
X04226Y02021*
X04217Y02013*
X0421Y02004*
X04205Y01993*
X04204Y01982*
X04172Y0195*
X03593*
X03592Y01952*
X03622Y01982*
X03627Y01989*
X03631Y01997*
X03632Y02006*
Y02086*
X03631Y02094*
X03627Y02102*
X03624Y02106*
X03622Y02109*
X03613Y02118*
X03612Y02128*
X03607Y02139*
X036Y02149*
X03591Y02156*
X0358Y0216*
X03568Y02162*
X03556Y0216*
X03545Y02156*
X03536Y02149*
X03529Y02139*
X03524Y02128*
X03523Y02117*
X03524Y02105*
X03529Y02094*
X03536Y02084*
X03545Y02077*
X03556Y02073*
X03566Y02071*
Y02053*
X03564Y02052*
X03558Y02057*
X03547Y02061*
X03535Y02063*
X03523Y02061*
X03512Y02057*
X03507Y02053*
X0346*
X03451Y02052*
X03442Y02048*
X03435Y02042*
X03398Y02005*
X03392Y01998*
X03389Y0199*
X03388Y01981*
Y01839*
X03386Y01839*
X03384Y01842*
X03378Y01851*
Y01966*
X03377Y01971*
X03377Y01975*
X03375Y01979*
X03373Y01983*
X0337Y01987*
X03368Y0199*
X03242Y02116*
X03235Y02121*
X03231Y02123*
X03227Y02124*
X03223Y02125*
X03219Y02125*
X03112*
X03107Y02136*
X031Y02145*
X03091Y02153*
X0308Y02157*
X03068Y02159*
X03056Y02157*
X03045Y02153*
X03036Y02145*
X03029Y02136*
X03024Y02125*
X03023Y02113*
X03024Y02102*
X03029Y02091*
X03036Y02081*
X03045Y02074*
X03056Y02069*
X03067Y02068*
X03069Y02066*
X03072Y02064*
X03075Y02063*
X0308Y02061*
X03089Y0206*
X03205*
X03312Y01953*
Y01851*
X03306Y01842*
X03301Y01831*
X033Y0182*
X03301Y01808*
X03306Y01797*
X03313Y01787*
X03322Y0178*
X03333Y01776*
X03345Y01774*
X03357Y01776*
X03368Y0178*
X03377Y01787*
X03384Y01797*
X03386Y018*
X03388Y018*
Y01779*
X02914Y01305*
X02914Y01305*
X02905Y01308*
X02891Y0131*
X02876Y01308*
X02863Y01303*
X02852Y01294*
X02843Y01283*
X02842Y01279*
X0284*
X02838Y01283*
X0283Y01294*
X02818Y01303*
X02805Y01308*
X02791Y0131*
X02776Y01308*
X02763Y01303*
X02752Y01294*
X02743Y01283*
X02742Y01279*
X0274*
X02738Y01283*
X0273Y01294*
X02718Y01303*
X02705Y01308*
X02691Y0131*
X02676Y01308*
X02663Y01303*
X02652Y01294*
X02643Y01283*
X02638Y01269*
X02636Y01255*
X02638Y01241*
X02643Y01228*
X02652Y01216*
X02663Y01208*
X02676Y01202*
X02691Y012*
X02697Y01201*
X027Y01198*
X02699Y01196*
X02688*
Y01174*
X02675*
Y01189*
X02567*
Y01174*
X02564*
X02556Y01173*
X0255Y01171*
X02548Y0117*
X02545Y01168*
X02541Y01165*
X02518Y01142*
X02513Y01135*
X02511Y01131*
X0251Y01127*
X02509Y01123*
X02508Y01119*
Y01009*
X02507Y01008*
X02505Y01008*
X02491Y0101*
X02476Y01008*
X02463Y01003*
X02452Y00994*
X02443Y00983*
X02442Y00979*
X0244*
X02438Y00983*
X0243Y00994*
X02418Y01003*
X02405Y01008*
X02391Y0101*
X02376Y01008*
X02363Y01003*
X02352Y00994*
X02343Y00983*
X02342Y00979*
X0234*
X02338Y00983*
X0233Y00994*
X02318Y01003*
X02305Y01008*
X02291Y0101*
X02276Y01008*
X02263Y01003*
X02252Y00994*
X02243Y00983*
X02242Y00979*
X0224*
X02238Y00983*
X0223Y00994*
X02218Y01003*
X02205Y01008*
X02191Y0101*
X02176Y01008*
X02163Y01003*
X02152Y00994*
X02143Y00983*
X02142Y00979*
X0214*
X02138Y00983*
X0213Y00994*
X02118Y01003*
X02105Y01008*
X02091Y0101*
X02076Y01008*
X02063Y01003*
X02052Y00994*
X02043Y00983*
X02042Y00979*
X0204*
X02038Y00983*
X0203Y00994*
X02018Y01003*
X02005Y01008*
X01991Y0101*
X01976Y01008*
X01963Y01003*
X01952Y00994*
X01943Y00983*
X01938Y00969*
X01936Y00955*
X01938Y00941*
X01943Y00928*
X01952Y00916*
X01963Y00908*
X01976Y00902*
X01987Y00901*
X01988Y00899*
X01971Y00881*
X01314*
X0106Y01134*
Y0155*
X01072*
Y01588*
X0108*
X01084Y01585*
X01095Y01581*
X01106Y01579*
X0115*
Y01579*
X01257*
Y01588*
X01281*
Y01586*
X01373*
Y01588*
X01462*
X01474Y01576*
X01477Y01568*
X01485Y01557*
X01496Y01549*
X01508Y01544*
X01521Y01543*
X01534Y01544*
X01546Y01549*
X01557Y01557*
X01565Y01568*
X0157Y0158*
X01572Y01593*
X0157Y01606*
X01565Y01618*
X01557Y01629*
X01546Y01637*
X01538Y0164*
X01515Y01663*
X01516Y01665*
X01631*
Y01649*
X01735*
Y01722*
Y01738*
X01799*
Y01723*
X01907*
Y01819*
X01799*
Y01804*
X01735*
Y01818*
X01736Y01819*
X01739Y01818*
X01752Y01816*
X01765Y01818*
X01777Y01823*
X01788Y01831*
X01796Y01842*
X01801Y01854*
X01802Y01867*
X01801Y0188*
X01796Y01892*
X01788Y01903*
X01777Y01911*
X01765Y01916*
X01752Y01917*
X01739Y01916*
X01731Y01912*
X01715Y01928*
Y01969*
Y01985*
X01722*
Y01981*
X01778*
X01779Y0198*
X01776Y01972*
X01775Y01961*
X01776Y01949*
X01781Y01938*
X01788Y01928*
X01797Y01921*
X01808Y01917*
X0182Y01915*
X01832Y01917*
X01843Y01921*
X01851Y01928*
X01854*
X01858Y01928*
X01862Y01929*
X01866Y0193*
X0187Y01932*
X01877Y01937*
X02078Y02138*
X0215*
X02158Y02131*
X02169Y02127*
X02181Y02125*
X02193Y02127*
X02204Y02131*
X02213Y02139*
X0222Y02148*
X02225Y02159*
X02226Y02171*
X02225Y02182*
X0222Y02193*
X02213Y02203*
X02204Y0221*
X02193Y02215*
X02181Y02216*
X02169Y02215*
X02158Y0221*
X0215Y02203*
X01982*
X01845Y02341*
Y02403*
X01736*
Y02294*
X01799*
X01946Y02147*
X01949Y02145*
X01952Y02142*
X0196Y02139*
X01969Y02138*
X01982*
X01983Y02136*
X01892Y02044*
X0189Y02045*
Y02092*
X018*
Y02055*
X01722*
Y02051*
X01715*
Y02067*
X01612*
Y02051*
X0155*
X01547Y02052*
X01538Y02053*
X01529Y02052*
X0152Y02048*
X01515Y02044*
X01508Y02043*
X01497Y02039*
X01488Y02032*
X0148Y02022*
X01476Y02011*
X01474Y02*
X01476Y01988*
X0148Y01977*
X01488Y01967*
X01497Y0196*
X01508Y01956*
X0152Y01954*
X01531Y01956*
X01542Y0196*
X01552Y01967*
X01559Y01977*
X01562Y01985*
X01612*
Y01969*
Y01896*
X01623*
X01624Y01893*
X01632Y01884*
X01681Y01835*
Y01835*
X0169Y01828*
X01694Y01826*
X01701Y01823*
X01712Y01822*
X01712Y0182*
X01631*
Y01804*
X01577*
X0138Y02001*
X01378Y02011*
X01374Y02022*
X01367Y02032*
X01357Y02039*
X01346Y02043*
X01335Y02045*
X01323Y02043*
X01312Y02039*
X01302Y02032*
X01295Y02022*
X01291Y02011*
X01289Y02*
X01291Y01988*
X01295Y01977*
X01302Y01967*
X01312Y0196*
X01323Y01956*
X01333Y01954*
X01342Y01946*
X01341Y01944*
X01335Y01945*
X01323Y01943*
X01312Y01939*
X01302Y01932*
X01295Y01922*
X01291Y01911*
X01289Y019*
X01291Y01888*
X01295Y01877*
X01302Y01867*
X01312Y0186*
X01323Y01856*
X01335Y01854*
X01346Y01856*
X01357Y0186*
X01367Y01867*
X01374Y01877*
X01378Y01888*
X0138Y019*
X01379Y01906*
X01381Y01907*
X0154Y01748*
X01544Y01745*
X01547Y01743*
X01549Y01742*
X01555Y01739*
X01563Y01738*
X01631*
Y01731*
X0145*
X0138Y01801*
X01378Y01811*
X01374Y01822*
X01367Y01832*
X01357Y01839*
X01346Y01843*
X01335Y01845*
X01323Y01843*
X01312Y01839*
X01302Y01832*
X01295Y01822*
X01291Y01811*
X01289Y018*
X01291Y01788*
X01295Y01777*
X01302Y01767*
X01312Y0176*
X01323Y01756*
X01333Y01754*
X01407Y0168*
X01407Y01678*
X01373*
Y0168*
X01281*
Y01678*
X0121*
X01198Y01677*
X01192Y01674*
X0115*
Y0167*
X01106*
X01095Y01668*
X01084Y01664*
X0108Y01661*
X01073*
X01073Y01662*
X01072Y01665*
Y01699*
X01054*
X0105Y01702*
X01039Y01706*
X01027Y01708*
X0092*
Y01711*
X00816*
Y01707*
X00808Y01706*
X00797Y01702*
X00788Y01695*
X00768Y01675*
X00761Y01665*
X00759Y01661*
X00756Y01654*
X00755Y01643*
Y01261*
X00751Y01253*
X0075Y0124*
X00751Y01226*
X00756Y01214*
X00764Y01204*
X00775Y01196*
X00787Y01191*
X008Y01189*
X00813Y01191*
X00825Y01196*
X00836Y01204*
X00844Y01214*
X00849Y01226*
X0085Y0124*
X00849Y01253*
X00845Y01261*
Y01541*
X0092*
Y01554*
X00983*
Y0155*
X00995*
Y01121*
X00995Y01117*
X00996Y01112*
X00998Y01108*
X00999Y01104*
X01004Y01098*
X01277Y00825*
X0128Y00823*
X01284Y0082*
X01288Y00818*
X01292Y00817*
X01296Y00816*
X013Y00816*
X01984*
X01988Y00816*
X01993Y00817*
X01997Y00818*
X02Y0082*
X02007Y00825*
X02083Y00901*
X02091Y009*
X02105Y00902*
X02118Y00908*
X0213Y00916*
X02138Y00928*
X0214Y00931*
X02142*
X02143Y00928*
X02152Y00916*
X02158Y00912*
Y00554*
X02134Y0053*
X02129Y00524*
X02127Y0052*
X02126Y00516*
X02126Y00515*
X02124Y00514*
X02114Y00518*
X021Y0052*
X02085Y00518*
X02072Y00513*
X02061Y00504*
X02052Y00493*
X02046Y00479*
X02045Y00465*
X02046Y00451*
X02052Y00438*
X02061Y00426*
X02072Y00417*
X02085Y00412*
X021Y0041*
X02114Y00412*
X02127Y00417*
X02135Y00424*
X02158Y00401*
X02152Y00393*
X02146Y00379*
X02145Y00365*
X02146Y00351*
X02152Y00338*
X02161Y00326*
X02162Y00325*
X02162Y00323*
X01912*
X01573Y00662*
X01563Y0067*
X0155Y00675*
X01537Y00677*
X01401*
X01388Y00675*
X01376Y0067*
X01366Y00662*
X01358Y00651*
X01353Y00639*
X01351Y00626*
X01353Y00613*
X01358Y00601*
X01366Y00591*
X01376Y00583*
X01388Y00577*
X01401Y00576*
X01516*
X01855Y00237*
X01866Y00229*
X01878Y00224*
X01891Y00222*
X0397*
X03983Y00224*
X03996Y00229*
X04006Y00237*
X04253Y00484*
X0439*
Y00483*
X0456*
Y00489*
X04677*
X04679Y00489*
X04732*
Y0054*
X04763Y0057*
X04767Y00568*
X04775Y00567*
X04783Y00568*
X04784Y00567*
Y00554*
X04785Y00546*
X04787Y00541*
X04788Y00539*
X04789Y00538*
X04789Y00536*
X04793Y00528*
X04798Y0052*
X04806Y00515*
X04806Y00515*
Y00417*
X04912*
Y0036*
X04899*
Y00253*
X04974*
Y00214*
X04968Y00208*
X04896*
Y00217*
X04787*
Y00108*
X04896*
Y00117*
X04987*
X04998Y00119*
X05005Y00121*
X05009Y00123*
X05019Y0013*
X05051Y00163*
X05058Y00172*
X05063Y00183*
X05064Y00195*
Y00253*
X05067*
Y00261*
X05091*
X05099Y00258*
X05112Y00256*
X05125Y00258*
X05137Y00263*
X05148Y00271*
X05156Y00281*
X05161Y00293*
X05162Y00307*
X05161Y0032*
X05156Y00332*
X05148Y00342*
X05137Y0035*
X05125Y00355*
X05112Y00357*
X05099Y00355*
X05091Y00352*
X05067*
Y0036*
X05051*
Y00417*
X05067*
Y0052*
X04954*
X04954Y00522*
X04958Y00528*
X04962Y00536*
X04963Y00545*
X04962Y00555*
X04958Y00563*
X04952Y0057*
X04945Y00576*
X04937Y00579*
X04927Y00581*
X04926Y0058*
X04885Y00622*
X04884Y00629*
X04881Y00636*
X04876Y00642*
X04869Y00647*
X04862Y0065*
X04854Y00651*
X04846Y0065*
X04844Y0065*
X04842Y0065*
X04834Y00651*
X04826Y0065*
X04824Y0065*
X04823Y0065*
X04815Y00651*
X04807Y0065*
X04799Y00647*
X04795Y00644*
X04791Y00647*
X04783Y0065*
X04775Y00651*
X04767Y0065*
X0476Y00647*
X04756Y00644*
X04752Y00645*
X04743Y00644*
X04734Y0064*
X04727Y00634*
X04679Y00587*
X04629*
Y0058*
X0456*
Y00586*
X04489*
Y00653*
X04513Y00678*
X04515Y00678*
X04518Y00679*
X0452Y0068*
X04522Y00681*
X04524Y00683*
X04526Y00684*
X04528Y00687*
X04529Y00688*
X04531Y00691*
Y00692*
X04543*
Y00684*
X0465*
Y00684*
X0474*
Y00692*
Y00695*
X04751*
X04753Y00693*
X0476Y00688*
X04767Y00685*
X04775Y00684*
X04783Y00685*
X04785Y00685*
X04787Y00685*
X04795Y00684*
X04803Y00685*
X04805Y00685*
X04807Y00685*
X04815Y00684*
X04823Y00685*
X0483Y00688*
X04834Y00691*
X04839Y00688*
X04846Y00685*
X04854Y00684*
X04862Y00685*
X04869Y00688*
X04871Y00689*
X04872Y0069*
X04875Y00691*
X04875Y00691*
X04876Y00691*
X04877Y0069*
X04881Y00689*
X04885Y00688*
X04886Y00688*
X04893Y00688*
X04893Y00688*
X04893Y00687*
X04967Y00683*
X04971Y00683*
X04971Y00683*
X04972Y00683*
X05063*
X05064Y00683*
X05065Y00683*
X05077Y00684*
X05218Y00684*
X05219Y00683*
Y00093*
X0068*
Y02508*
X05219*
Y01188*
G37*
G36*
X05092Y01246D02*
Y01148D01*
X05048*
X05043Y01151*
X05036Y01155*
X05028Y01156*
X04978*
X0497Y01155*
X04963Y01151*
X04958Y01148*
X04915*
X04915Y01147*
X0491Y01149*
Y01162*
X04915*
Y01247*
X05091*
X05092Y01246*
G37*
%LNcareboard_smd_ordered_kritikare-2*%
%LPC*%
G36*
X04915Y01115D02*
X04767D01*
Y01006*
X04915*
Y01115*
G37*
G36*
X02044Y02403D02*
X01935D01*
Y02294*
X02044*
Y02403*
G37*
G36*
X01109Y02411D02*
X01D01*
Y02302*
X01109*
Y02411*
G37*
G36*
X02491Y0131D02*
X02476Y01308D01*
X02463Y01303*
X02452Y01294*
X02443Y01283*
X02442Y01279*
X0244*
X02438Y01283*
X0243Y01294*
X02418Y01303*
X02405Y01308*
X02391Y0131*
X02376Y01308*
X02363Y01303*
X02352Y01294*
X02343Y01283*
X02342Y01279*
X0234*
X02338Y01283*
X0233Y01294*
X02318Y01303*
X02305Y01308*
X02291Y0131*
X02276Y01308*
X02263Y01303*
X02252Y01294*
X02243Y01283*
X02242Y01279*
X0224*
X02238Y01283*
X0223Y01294*
X02218Y01303*
X02205Y01308*
X02191Y0131*
X02176Y01308*
X02163Y01303*
X02152Y01294*
X02143Y01283*
X02142Y01279*
X0214*
X02138Y01283*
X0213Y01294*
X02118Y01303*
X02105Y01308*
X02091Y0131*
X02076Y01308*
X02063Y01303*
X02052Y01294*
X02043Y01283*
X02042Y01279*
X0204*
X02038Y01283*
X0203Y01294*
X02018Y01303*
X02005Y01308*
X01991Y0131*
X01976Y01308*
X01963Y01303*
X01952Y01294*
X01943Y01283*
X01938Y01269*
X01936Y01255*
X01938Y01241*
X01943Y01228*
X01944Y01227*
X01943Y01225*
X01679*
X0167Y01234*
X01663Y01239*
X01659Y01241*
X01655Y01242*
X01651Y01243*
X01647Y01244*
X01547*
X01543Y01248*
X01533Y01257*
X0152Y01262*
X01506Y01264*
X01492Y01262*
X0148Y01257*
X01469Y01248*
X0146Y01237*
X01458Y01232*
X01371*
Y01253*
X01276*
Y01146*
X01371*
Y01166*
X01478*
X0148Y01165*
X01492Y0116*
X01506Y01158*
X0152Y0116*
X01533Y01165*
X01543Y01173*
X01547Y01178*
X01621*
X01622Y01176*
X0162Y01176*
X01616Y01174*
X01613Y01171*
X0161Y01169*
X01512Y01071*
X0148*
X01454Y01046*
X01371*
Y01066*
X01276*
Y00959*
X01371*
Y0098*
X01466*
X0148Y00966*
X01532*
X01559Y00992*
Y01025*
X01646Y01113*
X02381*
X02385Y01113*
X0239Y01114*
X02394Y01115*
X02397Y01117*
X02404Y01122*
X02483Y01201*
X02491Y012*
X02505Y01202*
X02518Y01208*
X0253Y01216*
X02538Y01228*
X02544Y01241*
X02546Y01255*
X02544Y01269*
X02538Y01283*
X0253Y01294*
X02518Y01303*
X02505Y01308*
X02491Y0131*
G37*
G36*
X01587Y02484D02*
X01571Y02483D01*
X01555Y02479*
X0154Y02473*
X01526Y02464*
X01514Y02454*
X01503Y02442*
X01495Y02428*
X01488Y02413*
X01484Y02397*
X01483Y02381*
X01484Y02364*
X01488Y02348*
X01495Y02333*
X01503Y02319*
X01514Y02307*
X01526Y02297*
X0154Y02288*
X01555Y02282*
X01571Y02278*
X01587Y02277*
X01603Y02278*
X01619Y02282*
X01634Y02288*
X01648Y02297*
X0166Y02307*
X01671Y02319*
X0168Y02333*
X01686Y02348*
X0169Y02364*
X01691Y02381*
X0169Y02397*
X01686Y02413*
X0168Y02428*
X01671Y02442*
X0166Y02454*
X01648Y02464*
X01634Y02473*
X01619Y02479*
X01603Y02483*
X01587Y02484*
G37*
G36*
X04312D02*
X04296Y02483D01*
X0428Y02479*
X04265Y02473*
X04251Y02464*
X04239Y02454*
X04228Y02442*
X0422Y02428*
X04213Y02413*
X04209Y02397*
X04208Y02381*
X04209Y02364*
X04213Y02348*
X0422Y02333*
X04228Y02319*
X04239Y02307*
X04251Y02297*
X04265Y02288*
X0428Y02282*
X04296Y02278*
X04312Y02277*
X04328Y02278*
X04344Y02282*
X04359Y02288*
X04373Y02297*
X04385Y02307*
X04396Y02319*
X04405Y02333*
X04411Y02348*
X04415Y02364*
X04416Y02381*
X04415Y02397*
X04411Y02413*
X04405Y02428*
X04396Y02442*
X04385Y02454*
X04373Y02464*
X04359Y02473*
X04344Y02479*
X04328Y02483*
X04312Y02484*
G37*
G36*
X00347Y00867D02*
X00331Y00865D01*
X00316Y00861*
X00302Y00853*
X0029Y00843*
X0028Y00831*
X00273Y00817*
X00268Y00802*
X00267Y00787*
X00268Y00771*
X00273Y00756*
X0028Y00742*
X0029Y0073*
X00302Y0072*
X00316Y00712*
X00331Y00708*
X00347Y00706*
X00363Y00708*
X00378Y00712*
X00392Y0072*
X00404Y0073*
X00414Y00742*
X00421Y00756*
X00426Y00771*
X00428Y00787*
X00426Y00802*
X00421Y00817*
X00414Y00831*
X00404Y00843*
X00392Y00853*
X00378Y00861*
X00363Y00865*
X00347Y00867*
G37*
G36*
X03042Y00618D02*
X03029Y00616D01*
X03017Y00611*
X03006Y00603*
X02998Y00592*
X02993Y0058*
X02992Y00567*
X02993Y00554*
X02998Y00542*
X03006Y00531*
X03009Y00529*
Y00429*
X03006Y00426*
X02998Y00416*
X02993Y00404*
X02992Y00391*
X02993Y00378*
X02998Y00366*
X03006Y00355*
X03017Y00347*
X03029Y00342*
X03042Y0034*
X03055Y00342*
X03067Y00347*
X03078Y00355*
X03086Y00366*
X03091Y00378*
X03092Y00391*
X03091Y00404*
X03086Y00416*
X03078Y00426*
X03075Y00429*
Y00529*
X03078Y00531*
X03086Y00542*
X03091Y00554*
X03092Y00567*
X03091Y0058*
X03086Y00592*
X03078Y00603*
X03067Y00611*
X03055Y00616*
X03042Y00618*
G37*
G36*
X04312Y00334D02*
X04296Y00333D01*
X0428Y00329*
X04265Y00323*
X04251Y00314*
X04239Y00304*
X04228Y00292*
X0422Y00278*
X04213Y00263*
X04209Y00247*
X04208Y00231*
X04209Y00214*
X04213Y00198*
X0422Y00183*
X04228Y00169*
X04239Y00157*
X04251Y00147*
X04265Y00138*
X0428Y00132*
X04296Y00128*
X04312Y00127*
X04328Y00128*
X04344Y00132*
X04359Y00138*
X04373Y00147*
X04385Y00157*
X04396Y00169*
X04405Y00183*
X04411Y00198*
X04415Y00214*
X04416Y00231*
X04415Y00247*
X04411Y00263*
X04405Y00278*
X04396Y00292*
X04385Y00304*
X04373Y00314*
X04359Y00323*
X04344Y00329*
X04328Y00333*
X04312Y00334*
G37*
G36*
X01587D02*
X01571Y00333D01*
X01555Y00329*
X0154Y00323*
X01526Y00314*
X01514Y00304*
X01503Y00292*
X01495Y00278*
X01488Y00263*
X01484Y00247*
X01483Y00231*
X01484Y00214*
X01488Y00198*
X01495Y00183*
X01503Y00169*
X01514Y00157*
X01526Y00147*
X0154Y00138*
X01555Y00132*
X01571Y00128*
X01587Y00127*
X01603Y00128*
X01619Y00132*
X01634Y00138*
X01648Y00147*
X0166Y00157*
X01671Y00169*
X0168Y00183*
X01686Y00198*
X0169Y00214*
X01691Y00231*
X0169Y00247*
X01686Y00263*
X0168Y00278*
X01671Y00292*
X0166Y00304*
X01648Y00314*
X01634Y00323*
X01619Y00329*
X01603Y00333*
X01587Y00334*
G37*
G36*
X01238Y00785D02*
X01129D01*
Y00676*
X01238*
Y00785*
G37*
G36*
X01084Y00784D02*
X00975D01*
Y00675*
X01084*
Y00784*
G37*
G36*
X0291Y00731D02*
X02801D01*
Y00622*
X0291*
Y00731*
G37*
G36*
X04352Y01678D02*
X04257D01*
Y01628*
X04256Y0162*
Y01559*
X04253*
Y01527*
X04129*
X04115Y01525*
X04103Y0152*
X04092Y01511*
X04083Y015*
X04078Y01488*
X04076Y01474*
X04078Y0146*
X04083Y01448*
X04092Y01437*
X04103Y01428*
X04115Y01423*
X04129Y01421*
X04253*
Y01384*
X0437*
Y01559*
X04362*
Y0162*
X0436Y01634*
X04355Y01647*
X04352Y0165*
Y01678*
G37*
G36*
X00127Y02104D02*
X00111Y02102D01*
X00095Y02098*
X00081Y0209*
X00069Y0208*
X00058Y02067*
X00051Y02053*
X00046Y02038*
X00045Y02022*
X00046Y02005*
X00051Y0199*
X00058Y01976*
X00069Y01963*
X00081Y01953*
X00095Y01945*
X00111Y01941*
X00127Y01939*
X00143Y01941*
X00159Y01945*
X00173Y01953*
X00185Y01963*
X00196Y01976*
X00203Y0199*
X00208Y02005*
X00209Y02022*
X00208Y02038*
X00203Y02053*
X00196Y02067*
X00185Y0208*
X00173Y0209*
X00159Y02098*
X00143Y02102*
X00127Y02104*
G37*
G36*
X03126Y02013D02*
X03023D01*
Y01916*
Y01843*
X03042*
Y01802*
X03042Y01798*
X03043Y01793*
X03044Y01789*
X03046Y01785*
X03051Y01779*
X03086Y01744*
X03089Y01742*
X03092Y01739*
X031Y01736*
X03109Y01735*
X03156*
X03165Y01728*
X03176Y01724*
X03187Y01722*
X03199Y01724*
X0321Y01728*
X03219Y01735*
X03227Y01745*
X03231Y01756*
X03233Y01767*
X03231Y01779*
X03227Y0179*
X03219Y01799*
X0321Y01807*
X03199Y01811*
X03187Y01813*
X03176Y01811*
X03165Y01807*
X03156Y018*
X03122*
X03107Y01815*
Y01843*
X03126*
Y01916*
Y01935*
X03156*
X03165Y01928*
X03176Y01924*
X03187Y01922*
X03199Y01924*
X0321Y01928*
X03219Y01935*
X03227Y01945*
X03231Y01956*
X03233Y01967*
X03231Y01979*
X03227Y0199*
X03219Y01999*
X0321Y02007*
X03199Y02011*
X03187Y02013*
X03176Y02011*
X03165Y02007*
X03156Y02*
X03126*
Y02013*
G37*
G36*
X0081Y0201D02*
X00701D01*
Y01901*
X0081*
Y0191*
X00917*
X00925Y01907*
X00938Y01905*
X00951Y01907*
X00959Y0191*
X01127*
X01135Y01907*
X01148Y01905*
X01161Y01907*
X01173Y01912*
X01184Y0192*
X01192Y0193*
X01197Y01943*
X01198Y01956*
X01197Y01969*
X01192Y01981*
X01184Y01991*
X01173Y01999*
X01161Y02004*
X01148Y02006*
X01135Y02004*
X01127Y02001*
X00959*
X00951Y02004*
X00938Y02006*
X00925Y02004*
X00917Y02001*
X0081*
Y0201*
G37*
G36*
X01188Y02095D02*
X01176Y02093D01*
X01165Y02089*
X01156Y02082*
X01148Y02072*
X01144Y02061*
X01142Y0205*
X01144Y02038*
X01148Y02027*
X01156Y02017*
X01165Y0201*
X01176Y02006*
X01188Y02004*
X012Y02006*
X0121Y0201*
X0122Y02017*
X01227Y02027*
X01232Y02038*
X01233Y0205*
X01232Y02061*
X01227Y02072*
X0122Y02082*
X0121Y02089*
X012Y02093*
X01188Y02095*
G37*
G36*
X02851Y02069D02*
X02742D01*
Y0196*
X02851*
Y02069*
G37*
G36*
X0152Y02145D02*
X01508Y02143D01*
X01497Y02139*
X01488Y02132*
X0148Y02122*
X01476Y02111*
X01474Y021*
X01476Y02088*
X0148Y02077*
X01488Y02067*
X01497Y0206*
X01508Y02056*
X0152Y02054*
X01531Y02056*
X01542Y0206*
X01552Y02067*
X01559Y02077*
X01563Y02088*
X01565Y021*
X01563Y02111*
X01559Y02122*
X01552Y02132*
X01542Y02139*
X01531Y02143*
X0152Y02145*
G37*
G36*
X01188Y01895D02*
X01176Y01893D01*
X01165Y01889*
X01156Y01882*
X01148Y01872*
X01144Y01861*
X01142Y0185*
X01144Y01838*
X01148Y01827*
X01156Y01817*
X01165Y0181*
X01176Y01806*
X01188Y01804*
X012Y01806*
X0121Y0181*
X0122Y01817*
X01227Y01827*
X01232Y01838*
X01233Y0185*
X01232Y01861*
X01227Y01872*
X0122Y01882*
X0121Y01889*
X012Y01893*
X01188Y01895*
G37*
G36*
X00272Y02328D02*
X00257Y02327D01*
X00243Y02322*
X00229Y02315*
X00218Y02306*
X00208Y02294*
X00201Y02281*
X00197Y02266*
X00195Y02252*
X00197Y02237*
X00201Y02222*
X00208Y02209*
X00218Y02197*
X00229Y02188*
X00243Y02181*
X00257Y02176*
X00272Y02175*
X00287Y02176*
X00301Y02181*
X00315Y02188*
X00326Y02197*
X00336Y02209*
X00343Y02222*
X00347Y02237*
X00349Y02252*
X00347Y02266*
X00343Y02281*
X00336Y02294*
X00326Y02306*
X00315Y02315*
X00301Y02322*
X00287Y02327*
X00272Y02328*
G37*
G36*
X02743Y01683D02*
X0273Y01682D01*
X02718Y01677*
X02707Y01669*
X02699Y01658*
X02694Y01646*
X02693Y01633*
X02694Y0162*
X02699Y01608*
X02707Y01597*
X02718Y01589*
X0273Y01584*
X02743Y01583*
X02756Y01584*
X02768Y01589*
X02779Y01597*
X02781Y016*
X02924*
X02929Y01596*
X0294Y01592*
X02952Y0159*
X02964Y01592*
X02975Y01596*
X02984Y01603*
X02991Y01613*
X02996Y01624*
X02997Y01635*
X02996Y01647*
X02991Y01658*
X02984Y01667*
X02975Y01675*
X02964Y01679*
X02952Y01681*
X0294Y01679*
X02929Y01675*
X0292Y01667*
X02919Y01666*
X02781*
X02779Y01669*
X02768Y01677*
X02756Y01682*
X02743Y01683*
G37*
G36*
X02356Y01884D02*
X02344Y01882D01*
X02334Y01878*
X02324Y01871*
X02317Y01861*
X02312Y0185*
X02311Y01839*
X02312Y01827*
X02317Y01816*
X02323Y01807*
Y018*
X02324Y01796*
X02325Y01792*
X02326Y01788*
X02328Y01784*
X02333Y01777*
X02495Y01615*
X02496Y01605*
X02501Y01594*
X02508Y01584*
X02517Y01577*
X02528Y01573*
X0254Y01571*
X02552Y01573*
X02563Y01577*
X02572Y01584*
X02579Y01594*
X02584Y01605*
X02585Y01617*
X02584Y01628*
X02579Y01639*
X02572Y01649*
X02563Y01656*
X02552Y0166*
X02541Y01662*
X02392Y01811*
X02396Y01816*
X024Y01827*
X02402Y01839*
X024Y0185*
X02396Y01861*
X02388Y01871*
X02379Y01878*
X02368Y01882*
X02356Y01884*
G37*
G36*
X02541D02*
X02529Y01882D01*
X02519Y01878*
X02509Y01871*
X02502Y01861*
X02497Y0185*
X02496Y01839*
X02497Y01827*
X02502Y01816*
X02509Y01806*
X02519Y01799*
X02529Y01795*
X02541Y01793*
X02553Y01795*
X02564Y01799*
X02573Y01806*
X02581Y01816*
X02585Y01827*
X02587Y01839*
X02585Y0185*
X02581Y01861*
X02573Y01871*
X02564Y01878*
X02553Y01882*
X02541Y01884*
G37*
G36*
X02553Y02218D02*
X02541Y02216D01*
X0253Y02212*
X02522Y02205*
X02485*
X02481Y02205*
X02477Y02204*
X02473Y02203*
X02469Y02201*
X02462Y02196*
X02287Y02021*
X02241*
X02232Y02028*
X02221Y02032*
X02209Y02034*
X02198Y02032*
X02187Y02028*
X02177Y02021*
X0217Y02011*
X02166Y02*
X02164Y01989*
X02166Y01977*
X02167Y01974*
X02166Y01972*
X0214*
X02132Y01978*
X02121Y01983*
X02109Y01985*
X02097Y01983*
X02086Y01978*
X02077Y01971*
X0207Y01962*
X02065Y01951*
X02064Y01939*
X02065Y01927*
X0207Y01916*
X02076Y01908*
Y01756*
X02053*
Y01647*
X02162*
Y01756*
X02142*
Y01906*
X02687*
X02802Y01791*
X02803Y01781*
X02808Y0177*
X02815Y0176*
X02824Y01753*
X02835Y01749*
X02847Y01747*
X02859Y01749*
X0287Y01753*
X02879Y0176*
X02886Y0177*
X02891Y01781*
X02892Y01793*
X02891Y01804*
X02886Y01815*
X02879Y01825*
X0287Y01832*
X02859Y01836*
X02848Y01838*
X02724Y01962*
X02717Y01968*
X02713Y01969*
X02709Y01971*
X02705Y01971*
X027Y01972*
X02333*
X02333Y01974*
X02499Y0214*
X02522*
X0253Y02133*
X02541Y02129*
X02553Y02127*
X02565Y02129*
X02576Y02133*
X02585Y0214*
X02592Y0215*
X02597Y02161*
X02598Y02173*
X02597Y02184*
X02592Y02195*
X02585Y02205*
X02576Y02212*
X02565Y02216*
X02553Y02218*
G37*
G36*
X02708Y02477D02*
X02695Y02475D01*
X02683Y0247*
X02672Y02462*
X02664Y02452*
X02659Y0244*
X02658Y02427*
X02659Y02413*
X02664Y02401*
X02672Y02391*
X02675Y02389*
Y02242*
X02672Y0224*
X02664Y0223*
X02659Y02217*
X02658Y02204*
X02659Y02191*
X02664Y02179*
X02672Y02169*
X02683Y02161*
X02695Y02156*
X02708Y02154*
X02721Y02156*
X02733Y02161*
X02744Y02169*
X02752Y02179*
X02757Y02191*
X02758Y02204*
X02757Y02217*
X02752Y0223*
X02744Y0224*
X02741Y02242*
Y02389*
X02744Y02391*
X02752Y02401*
X02757Y02413*
X02758Y02427*
X02757Y0244*
X02752Y02452*
X02744Y02462*
X02733Y0247*
X02721Y02475*
X02708Y02477*
G37*
%LNcareboard_smd_ordered_kritikare-3*%
%LPD*%
G54D14*
X04841Y01061D03*
Y01217D03*
G54D15*
X05003Y01161D03*
Y01119D03*
G54D16*
X04747Y02077D03*
X04674D03*
X05018Y00469D03*
X04945D03*
X04438Y00535D03*
X04511D03*
X04855Y00469D03*
X04782D03*
G54D17*
X01683Y01698D03*
Y01771D03*
X03074Y01892D03*
Y01965D03*
X01664Y01945D03*
Y02018D03*
X00868Y01662D03*
Y0159D03*
X0485Y02095D03*
Y02168D03*
X04681Y00538D03*
Y00465D03*
G54D18*
X01853Y01771D03*
Y01698D03*
X01203Y01627D03*
Y01554D03*
X02621Y01069D03*
Y01142D03*
X0467Y01895D03*
Y01967D03*
X04954Y01885D03*
Y01958D03*
X04597Y00659D03*
Y00732D03*
X04687Y00732D03*
Y00659D03*
G54D19*
X01323Y01013D03*
X01251D03*
X04304Y01625D03*
X04232D03*
X01323Y01199D03*
X01251D03*
X05019Y00307D03*
X04946D03*
G54D20*
X01327Y01633D03*
Y01554D03*
X02733Y01071D03*
Y0115D03*
X0498Y00733D03*
Y00654D03*
G54D25*
X0279Y00954D02*
Y01015D01*
X04681Y00538D02*
X04752Y00609D01*
X0152Y02D02*
X01538Y02018D01*
X04583Y01888D02*
Y01895D01*
X04687Y00659D02*
X04774D01*
X0467Y01967D02*
X0469D01*
X04722Y01936*
X04846*
X04849Y01932D02*
X04928D01*
X0279Y01015D02*
X02939Y01164D01*
Y01281*
X03423Y01765*
Y01981*
X0346Y02017D02*
X03535D01*
X03423Y01981D02*
X0346Y02017D01*
X0565Y0027D02*
X05774Y00145D01*
X0602*
X06087Y00078*
X06192D02*
X06384Y0027D01*
X06645*
X06292Y00078D02*
X06365Y00151D01*
X068*
X06858Y00209D02*
Y00373D01*
X068Y00151D02*
X06858Y00209D01*
X06642Y0059D02*
Y01116D01*
Y0059D02*
X06858Y00373D01*
X0575Y00272D02*
X05827Y00349D01*
X06668*
X06726Y00291*
G54D26*
X0269Y01254D02*
X02733Y01211D01*
Y0115D02*
Y01211D01*
X02564Y01142D02*
X02726D01*
X03042Y00391D02*
Y00567D01*
X02541Y01119D02*
X02564Y01142D01*
X02541Y01003D02*
Y01119D01*
X01027Y01662D02*
X01028Y01662D01*
X02541Y01003D02*
X0259Y00954D01*
X02108Y01702D02*
X02109Y01703D01*
Y01939*
X04849Y01969D02*
X0485Y0197D01*
Y02095*
X04755Y01969D02*
Y02069D01*
X04747Y02077D02*
X04755Y02069D01*
X01538Y02018D02*
X01664D01*
X01766*
X01766Y02018*
X03074Y01802D02*
X03109Y01767D01*
X03187*
X03074Y01802D02*
Y01892D01*
X03519Y01917D02*
X04185D01*
X04249Y01981*
X01335Y02D02*
X01563Y01771D01*
X01683*
X01853D02*
D01*
X01683D02*
X01853D01*
X04849Y01894D02*
X04945D01*
X05112Y00307D02*
X05117Y00302D01*
X05018Y00308D02*
Y00469D01*
X04945Y01894D02*
X05003Y01836D01*
X04945Y00308D02*
Y00469D01*
X04855D02*
X04945D01*
X04815Y00756D02*
Y00851D01*
X04754Y02168D02*
X0485D01*
X02743Y01633D02*
X0295D01*
X02952Y01635*
X02708Y02204D02*
Y02427D01*
X0347Y01867D02*
Y01947D01*
X03494Y01971*
X0347Y01867D02*
X03519Y01817D01*
X03494Y01971D02*
X03564D01*
X03599Y02006*
Y02086*
X03568Y02117D02*
X03599Y02086D01*
X01335Y018D02*
X01436Y01698D01*
X01683*
X04583Y01895D02*
X0467D01*
X04583Y01888D02*
X04608D01*
X04755Y01895D02*
X04755Y01894D01*
X0467Y01895D02*
X04755D01*
X00868Y0159D02*
X0087Y01587D01*
X01028*
Y01121D02*
X013Y00849D01*
X01984*
X01028Y01121D02*
Y01587D01*
X01984Y00849D02*
X0209Y00954D01*
X03074Y01965D02*
X03077Y01967D01*
X03187*
X03068Y02113D02*
X03089Y02093D01*
X03219D02*
X03345Y01966D01*
Y0182D02*
Y01966D01*
X03089Y02093D02*
X03219D01*
X027Y01939D02*
X02847Y01793D01*
X02109Y01939D02*
X027D01*
X01251Y01013D02*
Y01199D01*
X02733Y00998D02*
Y01071D01*
X0269Y00954D02*
X02733Y00998D01*
X02732Y01069D02*
X02733Y01071D01*
X01203Y01554D02*
X01327D01*
X02621Y01069D02*
X02732D01*
X04774Y00659D02*
X04785Y00648D01*
X04795Y00658D02*
X04834Y00697D01*
X04674Y01971D02*
Y02077D01*
X0467Y01967D02*
X04674Y01971D01*
X04846Y01936D02*
X04849Y01932D01*
X04928D02*
X04954Y01958D01*
X02356Y018D02*
Y01839D01*
Y018D02*
X0254Y01617D01*
X0182Y01961D02*
X01854D01*
X02064Y02171*
X02209Y01989D02*
X02301D01*
X02485Y02173*
X02553*
X04304Y01625D02*
X04309Y0162D01*
X01323Y01013D02*
X015D01*
X01506Y01019*
X01633Y01146*
X02381*
X0249Y01254*
X01323Y01199D02*
X01494D01*
X01506Y01211*
X01647D02*
X01665Y01193D01*
X02328*
X01506Y01211D02*
X01647D01*
X02328Y01193D02*
X0239Y01254D01*
X023Y00465D02*
Y00946D01*
X022Y00365D02*
Y00406D01*
X02157Y00448D02*
X022Y00406D01*
X02157Y00448D02*
Y00507D01*
X02191Y0054*
Y00955*
X022Y00465D02*
X02223D01*
X02265Y00423*
X02334*
X02391Y0048*
Y00955*
X01791Y02349D02*
X01969Y02171D01*
X02064*
X02181*
G54D27*
X04612Y02168D02*
X04692D01*
G54D28*
X04677Y00535D02*
X04681Y00538D01*
X04496Y00732D02*
X04597D01*
Y00768*
X04633Y00804*
X04733*
G54D29*
X01537Y00626D02*
X01891Y00273D01*
X0397*
X04232Y00535*
X04438*
X01401Y00626D02*
X01537D01*
X04438Y00535D02*
Y00674D01*
X04496Y00732*
X05003Y01208D02*
X05028Y01183D01*
X04583Y01895D02*
Y0214D01*
X03945Y01395D02*
X04175Y01625D01*
X04232*
G54D30*
X0082Y01662D02*
X01027D01*
X008Y01643D02*
X0082Y01662D01*
X008Y0124D02*
Y01643D01*
X00756Y01956D02*
X00938D01*
X04842Y00163D02*
X04987D01*
X05019Y00195*
Y00307*
X04511Y00535D02*
X04677D01*
X05019Y00307D02*
X05112D01*
X01106Y01625D02*
X01201D01*
X0121Y01633*
X01481D02*
X01521Y01593D01*
X00938Y01956D02*
X01148D01*
X0121Y01633D02*
X01327D01*
X01481*
X01713Y01867D02*
X01752D01*
X01664Y01916D02*
X01713Y01867D01*
X04583Y0214D02*
X04612Y02168D01*
X03945Y01395D02*
X0401Y0133D01*
X04681Y00465D02*
X04779D01*
X0401Y0133D02*
X04398D01*
G54D31*
X04974Y00851D02*
X05148D01*
X0517Y00873*
X05028Y01183D02*
X05142D01*
X0517Y00873D02*
Y01155D01*
X05142Y01183D02*
X0517Y01155D01*
X04477Y01465D02*
Y01738D01*
X04608Y0187*
G54D34*
X04752Y00609D02*
X04775D01*
X04693Y00726D02*
X04775D01*
X04733Y00804D02*
X04795Y00741D01*
X04815Y00554D02*
X04823Y00545D01*
X04815Y00554D02*
Y00609D01*
X04854D02*
X04918Y00545D01*
X04834Y00579D02*
X04855Y00559D01*
X04834Y00579D02*
Y00609D01*
X04855Y00469D02*
Y00559D01*
X04815Y00726D02*
Y00755D01*
X01327Y01554D02*
X01327Y01554D01*
X04795Y00481D02*
Y00638D01*
X04785Y00648D02*
X04795Y00638D01*
X04834Y00697D02*
Y00726D01*
X06244Y02442D02*
X06307Y02379D01*
X06041Y02442D02*
X06244D01*
X06007Y02408D02*
X06041Y02442D01*
X06007Y02359D02*
Y02408D01*
G54D35*
X06963Y0D02*
Y026D01*
X0D02*
X06963D01*
X0Y0D02*
X06963D01*
X0D02*
Y026D01*
G54D36*
X00955Y02357D03*
X023Y00365D03*
X022Y00465D03*
Y00365D03*
X021Y00465D03*
Y00365D03*
X06492Y00078D03*
X06392D03*
X06292D03*
X06192D03*
X05992D03*
X06092D03*
X00418Y01961D03*
Y01861D03*
Y01761D03*
Y01661D03*
X03191Y01255D03*
X03091D03*
X02991D03*
X02891D03*
X02791D03*
X02691D03*
X02591D03*
X02491D03*
X02391D03*
X02291D03*
X02191D03*
X02091D03*
X01991D03*
X03291Y00955D03*
X03191D03*
X03091D03*
X02991D03*
X02891D03*
X02791D03*
X02691D03*
X02591D03*
X02491D03*
X02391D03*
X02291D03*
X02191D03*
X02091D03*
X01991D03*
X02897Y02015D03*
X02008Y01702D03*
X01791Y02249D03*
X00756Y02056D03*
X04742Y00163D03*
X0618Y00956D03*
X02856Y00577D03*
X0199Y02249D03*
X0103Y0063D03*
X01184Y00631D03*
X06668Y02077D03*
Y02178D03*
Y02279D03*
X06307Y02379D03*
Y02262D03*
X06306Y02145D03*
X06521Y01726D03*
X06471Y01776D03*
X06887Y01775D03*
X06841Y01725D03*
Y02537D03*
X06887Y0249D03*
X06514Y02537D03*
X06464Y0249D03*
G54D37*
X01055Y02357D03*
X023Y00465D03*
X05892Y00078D03*
X02797Y02015D03*
X02108Y01702D03*
X04842Y00163D03*
X0628Y00956D03*
G54D38*
X00347Y00787D03*
X00197D03*
G54D39*
X00272Y00577D03*
Y00307D03*
G54D40*
X06742Y01118D03*
X06642Y01116D03*
X06745Y00272D03*
X06645Y0027D03*
X0575Y00272D03*
X0565Y0027D03*
G54D41*
X00127Y01467D03*
Y01652D03*
Y01837D03*
Y02022D03*
G54D42*
X00418Y01561D03*
X03291Y01255D03*
X01791Y02349D03*
X00756Y01956D03*
X02856Y00677D03*
X0199Y02349D03*
X0103Y0073D03*
X01184Y00731D03*
X06668Y01977D03*
X06311Y02495D03*
G54D43*
X01506Y01019D03*
G54D44*
X01506Y01211D03*
G54D45*
X05548Y01118D03*
X05847Y01117D03*
G54D46*
X06782Y0226D03*
X06875D03*
X06684Y02518D03*
Y0242D03*
X06875Y02016D03*
X06782Y02016D03*
X06681Y01736D03*
Y01834D03*
G54D47*
X06066Y02391D03*
X06007Y02359D03*
X06066Y02326D03*
X06007Y02296D03*
X06066Y02262D03*
G54D48*
X06038Y02491D03*
Y02158D03*
G54D49*
X03042Y00567D03*
Y00391D03*
X008Y0124D03*
X01401Y00626D03*
X05112Y00307D03*
X0517Y00873D03*
X01521Y01593D03*
X00938Y01956D03*
X01148D03*
X01752Y01867D03*
X02743Y01633D03*
X02708Y02204D03*
Y02427D03*
X01369Y00741D03*
X0341Y00862D03*
X06525Y02036D03*
Y02221D03*
X0646Y02036D03*
Y02221D03*
G54D50*
X0152Y02D03*
X03187Y01767D03*
X03519Y01917D03*
X04249Y01981D03*
X01335Y02D03*
X01188Y0185D03*
X04754Y02168D03*
X02952Y01635D03*
X03519Y01817D03*
X03568Y02117D03*
X01335Y018D03*
X04692Y02168D03*
X03187Y01967D03*
X03068Y02113D03*
X03345Y0182D03*
X01188Y0205D03*
X02109Y01939D03*
X02847Y01793D03*
X03869Y00634D03*
X01541Y01894D03*
X0257Y01994D03*
X03895Y01132D03*
X02595Y01693D03*
X03671Y01847D03*
X04928Y00638D03*
X05001Y01008D03*
X04964Y02037D03*
X05092D03*
X04964Y02127D03*
X05028Y02084D03*
X05092Y02125D03*
X02356Y01839D03*
X0254Y01617D03*
X02541Y01839D03*
X0182Y01961D03*
X02181Y02171D03*
X01335Y019D03*
X02209Y01989D03*
X0152Y021D03*
X02553Y02173D03*
X03535Y02017D03*
X04129Y01474D03*
G54D51*
X04823Y00545D03*
X04927D03*
G54D52*
X03945Y01395D03*
G54D53*
X04785Y00687D03*
X04815Y00668D03*
X04785Y00648D03*
X04844Y00687D03*
Y00648D03*
G54D54*
X00272Y02252D03*
Y01252D03*
G54D55*
X04312Y00231D03*
Y02381D03*
X01587D03*
Y00231D03*
G54D56*
X04469Y01472D03*
X04311D03*
G54D57*
X04815Y00668D03*
G54D58*
X04775Y00726D03*
X04795D03*
X04815D03*
X04834D03*
X04854D03*
Y00609D03*
X04834D03*
X04815D03*
X04795D03*
X04775D03*
G54D59*
X04849Y01969D03*
Y01932D03*
Y01894D03*
X04755D03*
Y01969D03*
G54D60*
X04974Y00851D03*
X04815D03*
G54D61*
X01028Y01587D03*
Y01662D03*
X01106Y01625D03*
X01766Y02018D03*
Y02093D03*
X01845Y02056D03*
G54D62*
X04476Y0133D03*
X04398D03*
G54D63*
X00097Y00482D02*
X00272Y00307D01*
X00097Y00482D02*
Y01255D01*
X00268Y01426*
Y01559*
X0037Y01661*
X00418*
X00272Y00577D02*
X00407D01*
X00466Y00636*
X00418Y01361D02*
Y01561D01*
X00466Y00636D02*
Y01313D01*
X00418Y01361D02*
X00466Y01313D01*
G54D64*
X04861Y00726D02*
X04868Y00733D01*
X0498*
X04597Y00659D02*
X04686D01*
G54D65*
X05003Y01208D02*
Y01836D01*
G54D66*
X04477Y0133D02*
Y01465D01*
G54D67*
X04129Y01474D02*
X04309D01*
Y0162*
G54D68*
X04754Y00677D03*
X04876Y00658D03*
G54D69*
X04754Y00658D03*
G54D70*
X04876Y00677D03*
M02*