%FSTAX23Y23*%
%MOIN*%
%SFA1B1*%

%IPPOS*%
%ADD34C,0.010000*%
%ADD35C,0.001000*%
%ADD71C,0.015750*%
%ADD73C,0.007870*%
%LNcareboard_smd_ordered_kritikare-1*%
%LPD*%
G36*
X0629Y00246D02*
X0629D01*
X06291Y00245*
X06292Y00245*
X06294Y00245*
X06295Y00245*
X06296Y00245*
X06296*
X06297Y00244*
X06297Y00244*
X06297Y00244*
X06298Y00244*
X06298Y00244*
X06299Y00243*
X063Y00243*
X06301Y00242*
X06302Y00242*
X06302Y00242*
X06302Y00242*
X06303Y00241*
X06303Y00241*
X06304Y0024*
X06304Y0024*
X06305Y00239*
X06305Y00238*
X06306Y00238*
X06306Y00238*
X06306Y00238*
X06306Y00237*
X06306Y00236*
X06307Y00236*
X06307Y00235*
X06307Y00234*
Y00234*
X06307Y00233*
X06308Y00233*
X06308Y00232*
X06308Y00231*
X06308Y0023*
X06308Y00229*
X06308Y00228*
Y00214*
X0627*
Y00227*
Y00227*
Y00227*
Y00227*
Y00228*
Y00228*
Y00229*
X0627Y0023*
X0627Y00231*
X0627Y00232*
X0627Y00233*
X0627Y00234*
Y00234*
X0627Y00234*
Y00234*
X0627Y00234*
X06271Y00235*
X06271Y00236*
X06271Y00237*
X06272Y00238*
X06272Y00239*
X06273Y00239*
Y0024*
X06273Y0024*
X06273Y0024*
X06274Y00241*
X06275Y00241*
X06276Y00242*
X06277Y00243*
X06278Y00243*
X0628Y00244*
X0628*
X0628Y00244*
X0628Y00244*
X0628Y00244*
X06281Y00244*
X06281Y00245*
X06282Y00245*
X06282Y00245*
X06283Y00245*
X06283Y00245*
X06285Y00245*
X06287Y00246*
X06289Y00246*
X06289*
X0629Y00246*
G37*
G36*
X06297Y00276D02*
X06298Y00276D01*
X06298Y00276*
X06299Y00276*
X063Y00275*
X06301Y00275*
X06302Y00275*
X06302Y00274*
X06303Y00274*
X06304Y00273*
X06304Y00273*
X06305Y00272*
X06305Y00272*
X06305Y00272*
X06305Y00272*
X06306Y00271*
X06306Y00271*
X06306Y00271*
X06307Y0027*
X06307Y0027*
X06307Y00269*
X06308Y00268*
X06308Y00268*
X06308Y00267*
X06308Y00266*
X06308Y00265*
X06309Y00264*
X06309Y00263*
Y00263*
Y00263*
Y00262*
X06309Y00262*
X06309Y00262*
X06308Y00261*
X06308Y00261*
X06308Y0026*
X06308Y00259*
X06307Y00257*
X06307Y00257*
X06307Y00256*
X06306Y00255*
X06306Y00255*
X06306Y00254*
X06306Y00254*
X06305Y00254*
X06305Y00254*
X06305Y00254*
X06304Y00253*
X06304Y00253*
X06304Y00253*
X06302Y00252*
X06301Y00252*
X063Y00251*
X06299Y00251*
X06298Y00251*
X06297Y00255*
X06297*
X06297Y00256*
X06298*
X06298Y00256*
X06299Y00256*
X06299Y00256*
X063Y00256*
X06301Y00257*
X06302Y00258*
X06303Y00258*
X06303Y00258*
X06303Y00259*
X06304Y00259*
X06304Y0026*
X06304Y0026*
X06304Y00261*
X06305Y00262*
X06305Y00263*
Y00263*
Y00263*
Y00263*
X06305Y00263*
X06305Y00264*
X06304Y00265*
X06304Y00266*
X06304Y00267*
X06303Y00268*
X06302Y00269*
X06302Y00269*
X06302Y00269*
X06302Y00269*
X06301Y0027*
X063Y0027*
X06299Y0027*
X06298Y00271*
X06297Y00271*
X06296*
X06296Y00271*
X06296Y00271*
X06295Y00271*
X06294Y0027*
X06293Y0027*
X06292Y00269*
X06291Y00269*
X06291Y00269*
X06291Y00268*
X06291Y00268*
X0629Y00267*
X0629Y00266*
X0629Y00265*
X06289Y00264*
X06289Y00263*
Y00263*
Y00263*
Y00263*
X06289Y00262*
X06289Y00262*
X06289Y00261*
X0629Y00261*
X0629Y0026*
X06286Y00261*
Y00261*
Y00261*
X06286Y00261*
Y00261*
Y00261*
Y00261*
Y00262*
Y00262*
X06286Y00262*
X06285Y00263*
X06285Y00264*
X06285Y00265*
X06285Y00266*
X06284Y00267*
X06284Y00267*
X06284Y00267*
X06283Y00267*
X06283Y00268*
X06282Y00268*
X06281Y00269*
X0628Y00269*
X06279Y00269*
X06279*
X06278Y00269*
X06278Y00269*
X06277Y00269*
X06276Y00268*
X06276Y00268*
X06275Y00267*
X06275Y00267*
X06275Y00267*
X06274Y00267*
X06274Y00266*
X06274Y00265*
X06274Y00265*
X06273Y00264*
X06273Y00263*
Y00263*
Y00263*
Y00262*
X06273Y00262*
X06273Y00261*
X06274Y00261*
X06274Y0026*
X06274Y00259*
X06275Y00258*
X06275Y00258*
X06275Y00258*
X06276Y00258*
X06276Y00257*
X06277Y00257*
X06278Y00257*
X06279Y00256*
X0628Y00256*
X06279Y00251*
X06279*
X06279Y00251*
X06279Y00251*
X06279Y00251*
X06278Y00251*
X06278Y00252*
X06277Y00252*
X06275Y00252*
X06274Y00253*
X06273Y00254*
X06272Y00255*
X06272Y00255*
X06272Y00255*
X06272Y00255*
X06272Y00256*
X06271Y00256*
X06271Y00256*
X06271Y00257*
X0627Y00258*
X0627Y0026*
X0627Y00261*
X06269Y00262*
Y00263*
Y00263*
Y00263*
Y00263*
Y00263*
X06269Y00264*
X0627Y00265*
X0627Y00265*
X0627Y00266*
X0627Y00267*
X06271Y00268*
Y00269*
X06271Y00269*
X06271Y00269*
X06271Y00269*
X06272Y0027*
X06272Y00271*
X06273Y00271*
X06274Y00272*
X06274Y00273*
X06275Y00273*
X06275Y00273*
X06275Y00273*
X06276Y00273*
X06277Y00273*
X06278Y00274*
X06278Y00274*
X06279Y00274*
X0628*
X0628Y00274*
X06281Y00274*
X06282Y00274*
X06282Y00273*
X06283Y00273*
X06284Y00273*
X06284Y00273*
X06284Y00272*
X06285Y00272*
X06285Y00272*
X06286Y00271*
X06286Y0027*
X06287Y0027*
X06287Y00269*
Y00269*
X06287Y00269*
Y00269*
X06287Y00269*
X06288Y0027*
X06288Y00271*
X06288Y00271*
X06289Y00272*
X0629Y00273*
X0629Y00274*
X06291Y00274*
X06291Y00274*
X06291Y00274*
X06292Y00275*
X06293Y00275*
X06294Y00276*
X06295Y00276*
X06297Y00276*
X06297*
X06297Y00276*
G37*
G36*
X06308Y00148D02*
X0627D01*
Y00153*
X06304*
Y00172*
X06308*
Y00148*
G37*
G36*
Y00178D02*
X0627D01*
Y00206*
X06274*
Y00183*
X06286*
Y00205*
X0629*
Y00183*
X06304*
Y00207*
X06308*
Y00178*
G37*
G36*
X0621Y00148D02*
X06172D01*
Y00153*
X06206*
Y00172*
X0621*
Y00148*
G37*
G36*
Y0025D02*
X06209D01*
X06209Y0025*
X06208Y0025*
X06208Y0025*
X06207Y0025*
X06207Y00251*
X06207*
X06207Y00251*
X06206Y00251*
X06206Y00251*
X06205Y00251*
X06204Y00252*
X06204Y00252*
X06203Y00253*
X06202Y00254*
X06202*
X06202Y00254*
X06201Y00254*
X06201Y00255*
X062Y00255*
X06199Y00256*
X06198Y00257*
X06197Y00258*
X06196Y0026*
X06196Y0026*
X06196Y0026*
X06195Y0026*
X06195Y00261*
X06195Y00261*
X06194Y00262*
X06193Y00263*
X06192Y00265*
X0619Y00266*
X0619Y00267*
X06189Y00267*
X06188Y00268*
X06188Y00268*
X06188*
X06188Y00268*
X06187Y00269*
X06187Y00269*
X06187Y00269*
X06186Y00269*
X06185Y0027*
X06184Y0027*
X06183Y0027*
X06182Y00271*
X06182*
X06182Y00271*
X06181Y0027*
X0618Y0027*
X0618Y0027*
X06179Y0027*
X06178Y00269*
X06177Y00269*
X06177Y00268*
X06177Y00268*
X06177Y00268*
X06176Y00267*
X06176Y00266*
X06176Y00265*
X06175Y00264*
X06175Y00263*
Y00263*
Y00263*
Y00263*
X06175Y00263*
X06175Y00262*
X06176Y00261*
X06176Y0026*
X06176Y0026*
X06177Y00259*
X06177Y00258*
X06178Y00258*
X06178Y00258*
X06178Y00257*
X06179Y00257*
X0618Y00256*
X06181Y00256*
X06182Y00256*
X06183Y00256*
X06183Y00251*
X06182*
X06182Y00251*
X06182Y00251*
X06181Y00251*
X06181Y00251*
X06179Y00252*
X06178Y00252*
X06177Y00253*
X06175Y00254*
X06175Y00254*
X06174Y00255*
X06174Y00255*
X06174Y00255*
X06174Y00255*
X06174Y00255*
X06174Y00256*
X06173Y00256*
X06173Y00256*
X06173Y00257*
X06173Y00258*
X06172Y00258*
X06172Y00259*
X06172Y0026*
X06172Y00261*
X06171Y00262*
X06171Y00263*
Y00263*
Y00264*
Y00264*
X06171Y00264*
X06172Y00265*
X06172Y00265*
X06172Y00266*
X06172Y00267*
X06172Y00268*
X06173Y00269*
X06173Y0027*
X06173Y00271*
X06174Y00271*
X06174Y00272*
X06175Y00272*
X06175Y00272*
X06175Y00272*
X06175Y00273*
X06175Y00273*
X06176Y00273*
X06177Y00274*
X06178Y00274*
X06179Y00275*
X0618Y00275*
X06181Y00275*
X06182Y00275*
X06183*
X06183Y00275*
X06184Y00275*
X06184Y00275*
X06185Y00275*
X06186Y00275*
X06187Y00274*
X06187Y00274*
X06187Y00274*
X06187Y00274*
X06188Y00274*
X06189Y00273*
X0619Y00273*
X0619Y00272*
X06191Y00271*
X06191Y00271*
X06192Y00271*
X06192Y0027*
X06193Y0027*
X06193Y0027*
X06194Y00269*
X06194Y00269*
X06195Y00268*
X06195Y00267*
X06196Y00267*
X06197Y00266*
X06197Y00265*
X06198Y00264*
X06198Y00264*
X06198Y00264*
X06198Y00264*
X06199Y00263*
X06199Y00263*
X062Y00262*
X06201Y00261*
X06202Y0026*
X06202Y00259*
X06203Y00259*
X06203Y00259*
X06203Y00259*
X06203Y00258*
X06203Y00258*
X06204Y00258*
X06205Y00257*
X06206Y00257*
Y00275*
X0621*
Y0025*
G37*
G36*
X06112Y00148D02*
X06074D01*
Y00153*
X06108*
Y00172*
X06112*
Y00148*
G37*
G36*
X0621Y00178D02*
X06172D01*
Y00206*
X06176*
Y00183*
X06188*
Y00205*
X06192*
Y00183*
X06206*
Y00207*
X0621*
Y00178*
G37*
G36*
X06192Y00246D02*
X06192D01*
X06193Y00245*
X06194Y00245*
X06196Y00245*
X06197Y00245*
X06198Y00245*
X06198*
X06199Y00244*
X06199Y00244*
X06199Y00244*
X062Y00244*
X062Y00244*
X06201Y00243*
X06202Y00243*
X06203Y00242*
X06204Y00242*
X06204Y00242*
X06204Y00242*
X06205Y00241*
X06205Y00241*
X06206Y0024*
X06206Y0024*
X06207Y00239*
X06207Y00238*
X06208Y00238*
X06208Y00238*
X06208Y00238*
X06208Y00237*
X06208Y00236*
X06209Y00236*
X06209Y00235*
X06209Y00234*
Y00234*
X06209Y00233*
X0621Y00233*
X0621Y00232*
X0621Y00231*
X0621Y0023*
X0621Y00229*
X0621Y00228*
Y00214*
X06172*
Y00227*
Y00227*
Y00227*
Y00227*
Y00228*
Y00228*
Y00229*
X06172Y0023*
X06172Y00231*
X06172Y00232*
X06172Y00233*
X06172Y00234*
Y00234*
X06172Y00234*
Y00234*
X06172Y00234*
X06173Y00235*
X06173Y00236*
X06173Y00237*
X06174Y00238*
X06174Y00239*
X06175Y00239*
Y0024*
X06175Y0024*
X06175Y0024*
X06176Y00241*
X06177Y00241*
X06178Y00242*
X06179Y00243*
X0618Y00243*
X06182Y00244*
X06182*
X06182Y00244*
X06182Y00244*
X06182Y00244*
X06183Y00244*
X06183Y00245*
X06184Y00245*
X06184Y00245*
X06185Y00245*
X06185Y00245*
X06187Y00245*
X06189Y00246*
X06191Y00246*
X06191*
X06192Y00246*
G37*
G36*
X06495Y00261D02*
X06495D01*
X06496Y00261*
X06497Y00261*
X06499Y00261*
X065Y00261*
X06501Y0026*
X06501*
X06502Y0026*
X06502Y0026*
X06502Y0026*
X06503Y0026*
X06503Y0026*
X06504Y00259*
X06505Y00259*
X06506Y00258*
X06507Y00258*
X06507Y00258*
X06507Y00257*
X06508Y00257*
X06508Y00257*
X06509Y00256*
X06509Y00256*
X0651Y00255*
X0651Y00254*
X06511Y00254*
X06511Y00254*
X06511Y00253*
X06511Y00253*
X06511Y00252*
X06512Y00252*
X06512Y00251*
X06512Y0025*
Y0025*
X06512Y00249*
X06513Y00249*
X06513Y00248*
X06513Y00247*
X06513Y00246*
X06513Y00245*
X06513Y00244*
Y0023*
X06475*
Y00243*
Y00243*
Y00243*
Y00243*
Y00244*
Y00244*
Y00244*
X06475Y00245*
X06475Y00247*
X06475Y00248*
X06475Y00249*
X06475Y0025*
Y0025*
X06475Y0025*
Y0025*
X06475Y0025*
X06476Y00251*
X06476Y00252*
X06476Y00253*
X06477Y00253*
X06477Y00254*
X06478Y00255*
Y00255*
X06478Y00255*
X06478Y00256*
X06479Y00256*
X0648Y00257*
X06481Y00258*
X06482Y00259*
X06483Y00259*
X06485Y0026*
X06485*
X06485Y0026*
X06485Y0026*
X06485Y0026*
X06486Y0026*
X06486Y0026*
X06487Y00261*
X06487Y00261*
X06488Y00261*
X06488Y00261*
X0649Y00261*
X06492Y00261*
X06494Y00261*
X06494*
X06495Y00261*
G37*
G36*
X06413Y00178D02*
X06401Y00174D01*
Y00158*
X06413Y00153*
Y00148*
X06375Y00163*
Y00168*
X06413Y00184*
Y00178*
G37*
G36*
X06508Y00183D02*
X06508Y00183D01*
X06508Y00183*
X06508Y00183*
X06508Y00183*
X06509Y00182*
X06509Y00181*
X0651Y0018*
X06511Y00179*
X06512Y00177*
X06512Y00176*
Y00176*
X06512Y00176*
X06512Y00175*
X06512Y00175*
X06513Y00175*
X06513Y00174*
X06513Y00174*
X06513Y00173*
X06513Y00172*
X06513Y00171*
X06514Y00169*
X06514Y00168*
Y00168*
Y00167*
Y00167*
X06514Y00167*
Y00166*
X06514Y00166*
X06513Y00165*
X06513Y00164*
X06513Y00163*
X06513Y00161*
X06512Y00159*
X06511Y00157*
X06511Y00157*
X06511Y00157*
X06511Y00157*
X06511Y00157*
X06511Y00156*
X0651Y00156*
X06509Y00155*
X06509Y00154*
X06507Y00152*
X06506Y00151*
X06504Y0015*
X06504*
X06504Y0015*
X06504Y0015*
X06503Y0015*
X06503Y0015*
X06503Y0015*
X06502Y00149*
X06501Y00149*
X06501Y00149*
X065Y00149*
X06498Y00148*
X06496Y00148*
X06494Y00148*
X06493*
X06493Y00148*
X06493*
X06492Y00148*
X06491Y00148*
X06491Y00148*
X06489Y00149*
X06487Y00149*
X06485Y0015*
X06484Y0015*
X06483*
X06483Y0015*
X06483Y00151*
X06483Y00151*
X06482Y00151*
X06482Y00151*
X06481Y00152*
X0648Y00153*
X06478Y00154*
X06477Y00156*
X06477Y00156*
X06476Y00157*
Y00157*
X06476Y00157*
X06476Y00158*
X06476Y00158*
X06476Y00158*
X06476Y00159*
X06475Y00159*
X06475Y0016*
X06475Y00161*
X06475Y00161*
X06474Y00163*
X06474Y00165*
X06474Y00167*
Y00167*
Y00167*
Y00168*
Y00168*
X06474Y00168*
Y00169*
X06474Y0017*
X06474Y00171*
X06475Y00172*
X06475Y00173*
X06475Y00175*
Y00175*
X06475Y00175*
X06475Y00175*
X06476Y00175*
X06476Y00176*
X06476Y00177*
X06477Y00177*
X06477Y00178*
X06478Y00179*
X06479Y0018*
X06479Y0018*
X06479Y0018*
X0648Y00181*
X06481Y00181*
X06482Y00182*
X06483Y00182*
X06484Y00183*
X06485Y00183*
X06487Y00178*
X06487*
X06487Y00178*
X06486Y00178*
X06486Y00178*
X06485Y00178*
X06484Y00177*
X06483Y00177*
X06483Y00177*
X06482Y00176*
X06482Y00176*
X06482Y00176*
X06481Y00176*
X06481Y00175*
X06481Y00175*
X0648Y00174*
X0648Y00173*
X06479Y00173*
X06479Y00172*
X06479Y00172*
X06479Y00172*
X06479Y00171*
X06479Y0017*
X06478Y00169*
X06478Y00168*
X06478Y00167*
Y00167*
Y00167*
Y00167*
Y00167*
X06478Y00166*
X06478Y00165*
X06479Y00164*
X06479Y00163*
X06479Y00162*
X06479Y00161*
X06479Y00161*
X0648Y00161*
X0648Y0016*
X0648Y0016*
X06481Y00159*
X06481Y00158*
X06482Y00158*
X06482Y00157*
X06482Y00157*
X06482Y00157*
X06483Y00157*
X06483Y00156*
X06484Y00156*
X06485Y00155*
X06485Y00155*
X06486Y00155*
X06486*
X06486Y00155*
X06486Y00155*
X06487Y00154*
X06487Y00154*
X06487Y00154*
X06488Y00154*
X06489Y00154*
X06491Y00154*
X06492Y00153*
X06494Y00153*
X06494*
X06495Y00153*
X06495*
X06496Y00153*
X06496Y00153*
X06497Y00154*
X06498Y00154*
X065Y00154*
X06501Y00154*
X06502Y00155*
X06502*
X06503Y00155*
X06503Y00155*
X06503Y00155*
X06504Y00156*
X06504Y00156*
X06505Y00157*
X06506Y00158*
X06507Y00159*
X06508Y0016*
Y0016*
X06508Y0016*
X06508Y0016*
X06508Y00161*
X06508Y00161*
X06508Y00161*
X06508Y00162*
X06509Y00163*
X06509Y00165*
X06509Y00166*
X06509Y00167*
Y00167*
Y00167*
Y00168*
Y00168*
X06509Y00169*
X06509Y00169*
X06509Y0017*
X06509Y00171*
X06508Y00173*
X06508Y00174*
Y00174*
X06508Y00174*
X06508Y00174*
X06508Y00174*
X06507Y00175*
X06507Y00176*
X06507Y00176*
X06506Y00177*
X06506Y00178*
X06505Y00179*
X06498*
Y00167*
X06493*
Y00184*
X06508*
X06508Y00183*
G37*
G36*
X06513Y00216D02*
X06483Y00196D01*
X06513*
Y00191*
X06475*
Y00196*
X06505Y00216*
X06475*
Y00221*
X06513*
Y00216*
G37*
G36*
X06413Y00188D02*
X06375D01*
Y00193*
X06409*
Y00212*
X06413*
Y00188*
G37*
G36*
X06398Y00334D02*
X06399D01*
X06399Y00334*
X064Y00334*
X06402Y00334*
X06403Y00334*
X06405Y00334*
X06406Y00333*
X06406*
X06406Y00333*
X06406Y00333*
X06407Y00333*
X06407Y00333*
X06408Y00332*
X06409Y00331*
X0641Y00331*
X06411Y0033*
X06412Y00328*
Y00328*
X06412Y00328*
X06412Y00328*
X06412Y00328*
X06412Y00327*
X06412Y00327*
X06412Y00327*
X06413Y00326*
X06413Y00325*
X06413Y00325*
X06413Y00324*
X06413Y00323*
X06414Y00321*
X06414Y00319*
Y00319*
Y00319*
Y00319*
X06414Y00319*
Y00318*
X06414Y00318*
X06413Y00317*
X06413Y00316*
X06413Y00315*
X06413Y00314*
X06412Y00312*
X06412Y00311*
Y00311*
X06412Y0031*
X06412Y0031*
X06411Y0031*
X06411Y00309*
X0641Y00309*
X0641Y00308*
X06409Y00307*
X06408Y00306*
X06406Y00306*
X06406*
X06406Y00306*
X06406Y00306*
X06406Y00306*
X06405Y00305*
X06405Y00305*
X06404Y00305*
X06404Y00305*
X06403Y00305*
X06403Y00305*
X06402Y00305*
X06401Y00305*
X064Y00304*
X06399Y00304*
X06398Y00304*
X06375*
Y00309*
X06398*
X06398Y00309*
X064Y0031*
X06401Y0031*
X06402Y0031*
X06403Y0031*
X06404Y0031*
X06404Y0031*
X06404Y0031*
X06405Y0031*
X06405Y00311*
X06406Y00311*
X06406Y00311*
X06407Y00312*
X06407Y00313*
X06408Y00314*
X06408Y00314*
X06408Y00314*
X06408Y00314*
X06408Y00315*
X06409Y00316*
X06409Y00317*
X06409Y00318*
X06409Y00319*
Y00319*
Y00319*
Y0032*
X06409Y0032*
Y0032*
X06409Y00321*
X06409Y00322*
X06408Y00323*
X06408Y00325*
X06407Y00326*
X06407Y00327*
X06407Y00327*
X06407*
X06406Y00327*
X06406Y00327*
X06406Y00327*
X06406Y00328*
X06405Y00328*
X06405Y00328*
X06404Y00328*
X06404Y00328*
X06403Y00329*
X06402Y00329*
X06401Y00329*
X064Y00329*
X06399Y00329*
X06398Y00329*
X06375*
Y00335*
X06398*
X06398Y00334*
G37*
G36*
X06379Y00358D02*
X06413D01*
Y00353*
X06379*
Y0034*
X06375*
Y0037*
X06379*
Y00358*
G37*
G36*
X06413Y00249D02*
X06381D01*
X06413Y00238*
Y00234*
X0638Y00223*
X06413*
Y00218*
X06375*
Y00225*
X06402Y00234*
X06402*
X06402Y00234*
X06402Y00235*
X06402Y00235*
X06403Y00235*
X06404Y00235*
X06405Y00235*
X06406Y00236*
X06407Y00236*
X06407Y00236*
X06407Y00236*
X06407Y00236*
X06407Y00237*
X06406Y00237*
X06405Y00237*
X06404Y00237*
X06403Y00238*
X06401Y00238*
X06375Y00247*
Y00254*
X06413*
Y00249*
G37*
G36*
X06395Y00298D02*
X06395D01*
X06396Y00298*
X06397Y00298*
X06397Y00297*
X06399Y00297*
X06401Y00297*
X06403Y00296*
X06404Y00295*
X06404*
X06405Y00295*
X06405Y00295*
X06405Y00295*
X06405Y00295*
X06406Y00294*
X06407Y00294*
X06408Y00293*
X06409Y00292*
X0641Y0029*
X06411Y00289*
Y00289*
X06411Y00288*
X06412Y00288*
X06412Y00288*
X06412Y00287*
X06412Y00287*
X06412Y00286*
X06412Y00286*
X06413Y00284*
X06413Y00283*
X06414Y00281*
X06414Y00279*
Y00279*
Y00279*
Y00279*
X06414Y00278*
Y00278*
X06414Y00277*
X06413Y00277*
X06413Y00276*
X06413Y00275*
X06413Y00273*
X06412Y00271*
X06412Y0027*
X06411Y0027*
X06411Y0027*
X06411Y00269*
X06411Y00269*
X06411Y00269*
X0641Y00269*
X0641Y00268*
X06409Y00267*
X06408Y00266*
X06407Y00265*
X06406Y00264*
X06404Y00263*
X06404*
X06404Y00263*
X06403Y00263*
X06403Y00263*
X06403Y00263*
X06402Y00262*
X06402Y00262*
X06401Y00262*
X064Y00262*
X064Y00262*
X06398Y00261*
X06396Y00261*
X06394Y00261*
X06394*
X06393Y00261*
X06393*
X06392Y00261*
X06391Y00261*
X0639Y00261*
X06389Y00262*
X06388Y00262*
X06386Y00262*
X06385Y00263*
X06384Y00263*
X06383Y00264*
X06382Y00264*
X0638Y00265*
X06379Y00266*
X06379Y00266*
X06379Y00266*
X06379Y00267*
X06378Y00267*
X06378Y00268*
X06378Y00268*
X06377Y00269*
X06377Y0027*
X06376Y00271*
X06376Y00272*
X06375Y00273*
X06375Y00274*
X06374Y00275*
X06374Y00276*
X06374Y00278*
X06374Y00279*
Y00279*
Y0028*
Y0028*
X06374Y0028*
Y00281*
X06374Y00281*
X06374Y00282*
X06374Y00283*
X06375Y00284*
X06375Y00286*
X06376Y00287*
X06376Y00288*
X06377Y00289*
Y00289*
X06377Y00289*
X06377Y00289*
X06377Y0029*
X06377Y0029*
X06378Y0029*
X06378Y00291*
X06379Y00292*
X06381Y00293*
X06382Y00294*
X06384Y00295*
X06384*
X06384Y00296*
X06384Y00296*
X06384Y00296*
X06385Y00296*
X06385Y00296*
X06386Y00296*
X06387Y00297*
X06387Y00297*
X06388Y00297*
X0639Y00297*
X06392Y00298*
X06394Y00298*
X06394*
X06395Y00298*
G37*
G36*
X06112Y00178D02*
X06074D01*
Y00206*
X06078*
Y00183*
X0609*
Y00205*
X06094*
Y00183*
X06108*
Y00207*
X06112*
Y00178*
G37*
G36*
X05996Y00356D02*
X05996D01*
X05997Y00356*
X05998Y00356*
X05998Y00356*
X06Y00356*
X06002Y00355*
X06004Y00355*
X06005Y00354*
X06005*
X06006Y00354*
X06006Y00354*
X06006Y00353*
X06006Y00353*
X06007Y00353*
X06008Y00352*
X06009Y00351*
X0601Y0035*
X06011Y00349*
X06012Y00347*
Y00347*
X06012Y00347*
X06013Y00347*
X06013Y00346*
X06013Y00346*
X06013Y00345*
X06013Y00345*
X06013Y00344*
X06014Y00343*
X06014Y00341*
X06015Y0034*
X06015Y00338*
Y00338*
Y00338*
Y00337*
X06015Y00337*
Y00336*
X06015Y00336*
X06014Y00335*
X06014Y00335*
X06014Y00333*
X06014Y00331*
X06013Y0033*
X06013Y00329*
X06012Y00328*
X06012Y00328*
X06012Y00328*
X06012Y00328*
X06012Y00327*
X06011Y00327*
X06011Y00327*
X0601Y00326*
X06009Y00325*
X06008Y00324*
X06007Y00323*
X06005Y00322*
X06005*
X06005Y00321*
X06004Y00321*
X06004Y00321*
X06004Y00321*
X06003Y00321*
X06003Y00321*
X06002Y00321*
X06001Y0032*
X06001Y0032*
X05999Y0032*
X05997Y0032*
X05995Y00319*
X05995*
X05994Y00319*
X05994*
X05993Y0032*
X05992Y0032*
X05991Y0032*
X0599Y0032*
X05989Y0032*
X05987Y00321*
X05986Y00321*
X05985Y00322*
X05984Y00322*
X05983Y00323*
X05981Y00324*
X0598Y00325*
X0598Y00325*
X0598Y00325*
X0598Y00325*
X05979Y00325*
X05979Y00326*
X05979Y00327*
X05978Y00327*
X05978Y00328*
X05977Y00329*
X05977Y0033*
X05976Y00331*
X05976Y00332*
X05975Y00334*
X05975Y00335*
X05975Y00336*
X05975Y00338*
Y00338*
Y00338*
Y00338*
X05975Y00339*
Y00339*
X05975Y0034*
X05975Y0034*
X05975Y00341*
X05976Y00342*
X05976Y00344*
X05977Y00346*
X05977Y00347*
X05978Y00347*
Y00347*
X05978Y00348*
X05978Y00348*
X05978Y00348*
X05978Y00348*
X05979Y00349*
X05979Y0035*
X0598Y00351*
X05982Y00352*
X05983Y00353*
X05985Y00354*
X05985*
X05985Y00354*
X05985Y00354*
X05985Y00354*
X05986Y00354*
X05986Y00355*
X05987Y00355*
X05988Y00355*
X05988Y00355*
X05989Y00355*
X05991Y00356*
X05993Y00356*
X05995Y00356*
X05995*
X05996Y00356*
G37*
G36*
X06014Y0039D02*
X06006Y00385D01*
X06006*
X06006Y00385*
X06006Y00385*
X06005Y00385*
X06005Y00384*
X06004Y00384*
X06003Y00383*
X06002Y00383*
X06002Y00382*
X06001Y00381*
X06001Y00381*
X06Y00381*
X06Y00381*
X06Y00381*
X05999Y0038*
X05999Y00379*
X05998Y00379*
X05998Y00379*
X05998Y00379*
X05998Y00378*
X05998Y00378*
X05997Y00377*
X05997Y00377*
Y00377*
X05997Y00376*
Y00376*
X05997Y00376*
X05997Y00375*
Y00375*
X05997Y00374*
Y00374*
Y00368*
X06014*
Y00363*
X05976*
Y0038*
Y0038*
Y0038*
Y0038*
Y00381*
X05976Y00381*
Y00382*
X05976Y00383*
X05976Y00384*
X05976Y00385*
X05976Y00386*
X05976Y00387*
X05977Y00388*
Y00388*
X05977Y00388*
X05977Y00388*
X05977Y00388*
X05978Y00389*
X05978Y0039*
X05979Y0039*
X05979Y00391*
X0598Y00392*
X0598Y00392*
X05981Y00392*
X05981Y00392*
X05982Y00393*
X05983Y00393*
X05984Y00393*
X05985Y00393*
X05986Y00393*
X05987*
X05987Y00393*
X05987*
X05988Y00393*
X05989Y00393*
X0599Y00393*
X05991Y00392*
X05992Y00392*
X05992Y00391*
X05993Y00391*
X05993Y00391*
X05993Y0039*
X05993Y0039*
X05994Y0039*
X05994Y0039*
X05994Y00389*
X05994Y00389*
X05995Y00388*
X05995Y00388*
X05995Y00387*
X05996Y00386*
X05996Y00385*
X05996Y00385*
X05996Y00384*
X05997Y00383*
X05997Y00383*
X05997Y00383*
X05997Y00383*
X05997Y00384*
X05998Y00385*
X05998Y00385*
X05998Y00386*
X05999Y00386*
X05999Y00386*
X05999Y00387*
X06Y00387*
X06001Y00388*
X06001Y00388*
X06002Y00389*
X06004Y0039*
X06014Y00397*
Y0039*
G37*
G36*
Y00274D02*
X05976D01*
Y00279*
X06014*
Y00274*
G37*
G36*
X0598Y00303D02*
X06014D01*
Y00298*
X0598*
Y00285*
X05976*
Y00316*
X0598*
Y00303*
G37*
G36*
X06014Y00402D02*
X05976D01*
Y00429*
X0598*
Y00407*
X05992*
Y00428*
X05996*
Y00407*
X0601*
Y0043*
X06014*
Y00402*
G37*
G36*
X05891Y00204D02*
X05891Y00204D01*
X05892Y00204*
X05892Y00204*
X05893Y00204*
X05895Y00203*
X05896Y00203*
X05897Y00202*
X05898Y00202*
X05898Y00202*
X05899Y00201*
X05899Y00201*
X05899Y00201*
X05899Y00201*
X059Y002*
X059Y002*
X059Y002*
X05901Y00199*
X05901Y00198*
X05902Y00198*
X05902Y00197*
X05903Y00196*
X05903Y00195*
X05903Y00194*
X05903Y00193*
X05904Y00192*
X05904Y00191*
Y00191*
Y00191*
Y0019*
X05904Y0019*
X05904Y0019*
X05903Y00189*
X05903Y00189*
X05903Y00188*
X05903Y00187*
X05902Y00185*
X05902Y00184*
X05902Y00184*
X05901Y00183*
X05901Y00182*
X05901Y00182*
X05901Y00182*
X059Y00182*
X059Y00182*
X059Y00182*
X059Y00181*
X05899Y00181*
X05899Y00181*
X05898Y0018*
X05896Y00179*
X05895Y00179*
X05894Y00179*
X05893Y00179*
X05893Y00184*
X05893*
X05893Y00184*
X05893Y00184*
X05894Y00184*
X05895Y00184*
X05896Y00184*
X05896Y00185*
X05897Y00185*
X05898Y00186*
X05898Y00186*
X05898Y00186*
X05899Y00187*
X05899Y00187*
X05899Y00188*
X05899Y00189*
X059Y0019*
X059Y00191*
Y00191*
Y00191*
Y00191*
X059Y00192*
X059Y00192*
X05899Y00193*
X05899Y00194*
X05899Y00195*
X05898Y00196*
X05898Y00196*
X05897Y00197*
X05897*
X05897Y00197*
X05897Y00197*
X05896Y00197*
X05895Y00198*
X05894Y00198*
X05893Y00199*
X05892Y00199*
X0589Y00199*
X0589*
X0589Y00199*
X05889*
X05889Y00199*
X05888Y00199*
X05887Y00199*
X05886Y00198*
X05885Y00198*
X05884Y00197*
X05884Y00197*
X05884Y00196*
X05883Y00196*
X05883Y00195*
X05882Y00194*
X05882Y00193*
X05882Y00192*
X05882Y00191*
Y00191*
Y0019*
X05882Y0019*
X05882Y00189*
X05882Y00189*
X05882Y00188*
X05882Y00187*
X05883Y00187*
X05883Y00187*
X05883Y00186*
X05883Y00186*
X05884Y00186*
X05884Y00185*
X05884Y00185*
X05885Y00184*
X05886Y00184*
X05885Y00179*
X05865Y00183*
Y00202*
X0587*
Y00187*
X0588Y00185*
X0588Y00185*
X0588Y00185*
X0588Y00185*
X0588Y00185*
X05879Y00186*
X05879Y00186*
X05879Y00187*
X05878Y00188*
X05878Y00189*
X05878Y00191*
X05878Y00192*
Y00192*
Y00192*
Y00193*
X05878Y00193*
X05878Y00193*
X05878Y00194*
X05878Y00194*
X05878Y00195*
X05878Y00196*
X05879Y00197*
X05879Y00198*
X05879Y00199*
X0588Y00199*
X0588Y002*
X05881Y00201*
X05881Y00201*
X05881Y00201*
X05881Y00201*
X05882Y00201*
X05882Y00201*
X05882Y00202*
X05883Y00202*
X05883Y00202*
X05884Y00203*
X05885Y00203*
X05886Y00203*
X05886Y00204*
X05887Y00204*
X05888Y00204*
X05889Y00204*
X0589Y00204*
X05891*
X05891Y00204*
G37*
G36*
X05903Y00227D02*
Y00221D01*
X05865Y00206*
Y00212*
X05892Y00222*
X05893*
X05893Y00222*
X05893Y00222*
X05893Y00222*
X05894Y00222*
X05895Y00223*
X05896Y00223*
X05897Y00223*
X05899Y00224*
X05899*
X05899Y00224*
X05899Y00224*
X05898Y00224*
X05898Y00224*
X05897Y00225*
X05896Y00225*
X05895Y00225*
X05894Y00226*
X05892Y00226*
X05865Y00236*
Y00242*
X05903Y00227*
G37*
G36*
X06014Y00462D02*
X05984Y00442D01*
X06014*
Y00437*
X05976*
Y00442*
X06006Y00463*
X05976*
Y00467*
X06014*
Y00462*
G37*
G36*
X05886Y00163D02*
X05897D01*
Y00158*
X05886*
Y00148*
X05882*
Y00158*
X05871*
Y00163*
X05882*
Y00173*
X05886*
Y00163*
G37*
G36*
X06014Y0018D02*
X05982D01*
X06014Y00169*
Y00164*
X05981Y00153*
X06014*
Y00148*
X05976*
Y00156*
X06003Y00165*
X06003*
X06003Y00165*
X06003Y00165*
X06003Y00165*
X06004Y00165*
X06005Y00165*
X06006Y00166*
X06007Y00166*
X06008Y00166*
X06008Y00167*
X06008Y00167*
X06008Y00167*
X06008Y00167*
X06007Y00167*
X06006Y00167*
X06005Y00168*
X06004Y00168*
X06002Y00169*
X05976Y00178*
Y00185*
X06014*
Y0018*
G37*
G36*
X05996Y00228D02*
X05996D01*
X05997Y00228*
X05998Y00228*
X05998Y00228*
X06Y00227*
X06002Y00227*
X06004Y00226*
X06005Y00226*
X06005*
X06006Y00226*
X06006Y00225*
X06006Y00225*
X06006Y00225*
X06007Y00225*
X06008Y00224*
X06009Y00223*
X0601Y00222*
X06011Y0022*
X06012Y00219*
Y00219*
X06012Y00219*
X06013Y00219*
X06013Y00218*
X06013Y00218*
X06013Y00217*
X06013Y00217*
X06013Y00216*
X06014Y00215*
X06014Y00213*
X06015Y00211*
X06015Y0021*
Y0021*
Y00209*
Y00209*
X06015Y00209*
Y00208*
X06015Y00208*
X06014Y00207*
X06014Y00206*
X06014Y00205*
X06014Y00203*
X06013Y00202*
X06013Y00201*
X06012Y002*
X06012Y002*
X06012Y002*
X06012Y002*
X06012Y00199*
X06011Y00199*
X06011Y00198*
X0601Y00198*
X06009Y00197*
X06008Y00195*
X06007Y00194*
X06005Y00193*
X06005*
X06005Y00193*
X06004Y00193*
X06004Y00193*
X06004Y00193*
X06003Y00193*
X06003Y00193*
X06002Y00192*
X06001Y00192*
X06001Y00192*
X05999Y00192*
X05997Y00191*
X05995Y00191*
X05995*
X05994Y00191*
X05994*
X05993Y00191*
X05992Y00192*
X05991Y00192*
X0599Y00192*
X05989Y00192*
X05987Y00193*
X05986Y00193*
X05985Y00193*
X05984Y00194*
X05983Y00195*
X05981Y00196*
X0598Y00196*
X0598Y00196*
X0598Y00197*
X0598Y00197*
X05979Y00197*
X05979Y00198*
X05979Y00198*
X05978Y00199*
X05978Y002*
X05977Y00201*
X05977Y00202*
X05976Y00203*
X05976Y00204*
X05975Y00205*
X05975Y00207*
X05975Y00208*
X05975Y0021*
Y0021*
Y0021*
Y0021*
X05975Y00211*
Y00211*
X05975Y00212*
X05975Y00212*
X05975Y00213*
X05976Y00214*
X05976Y00216*
X05977Y00218*
X05977Y00218*
X05978Y00219*
Y00219*
X05978Y00219*
X05978Y0022*
X05978Y0022*
X05978Y0022*
X05979Y00221*
X05979Y00222*
X0598Y00223*
X05982Y00224*
X05983Y00225*
X05985Y00226*
X05985*
X05985Y00226*
X05985Y00226*
X05985Y00226*
X05986Y00226*
X05986Y00226*
X05987Y00227*
X05988Y00227*
X05988Y00227*
X05989Y00227*
X05991Y00228*
X05993Y00228*
X05995Y00228*
X05995*
X05996Y00228*
G37*
G36*
X06094Y00246D02*
X06094D01*
X06095Y00245*
X06096Y00245*
X06098Y00245*
X06099Y00245*
X061Y00245*
X061*
X06101Y00244*
X06101Y00244*
X06101Y00244*
X06102Y00244*
X06102Y00244*
X06103Y00243*
X06104Y00243*
X06105Y00242*
X06106Y00242*
X06106Y00242*
X06106Y00242*
X06107Y00241*
X06107Y00241*
X06108Y0024*
X06108Y0024*
X06109Y00239*
X06109Y00238*
X0611Y00238*
X0611Y00238*
X0611Y00238*
X0611Y00237*
X0611Y00236*
X06111Y00236*
X06111Y00235*
X06111Y00234*
Y00234*
X06111Y00233*
X06112Y00233*
X06112Y00232*
X06112Y00231*
X06112Y0023*
X06112Y00229*
X06112Y00228*
Y00214*
X06074*
Y00227*
Y00227*
Y00227*
Y00227*
Y00228*
Y00228*
Y00229*
X06074Y0023*
X06074Y00231*
X06074Y00232*
X06074Y00233*
X06074Y00234*
Y00234*
X06074Y00234*
Y00234*
X06074Y00234*
X06075Y00235*
X06075Y00236*
X06075Y00237*
X06076Y00238*
X06076Y00239*
X06077Y00239*
Y0024*
X06077Y0024*
X06077Y0024*
X06078Y00241*
X06079Y00241*
X0608Y00242*
X06081Y00243*
X06082Y00243*
X06084Y00244*
X06084*
X06084Y00244*
X06084Y00244*
X06084Y00244*
X06085Y00244*
X06085Y00245*
X06086Y00245*
X06086Y00245*
X06087Y00245*
X06087Y00245*
X06089Y00245*
X06091Y00246*
X06093Y00246*
X06093*
X06094Y00246*
G37*
G36*
X06112Y00264D02*
X06082D01*
X06082Y00264*
X06082Y00263*
X06083Y00263*
X06083Y00262*
X06083Y00262*
X06084Y00261*
X06085Y0026*
X06085Y00259*
Y00259*
X06085Y00259*
X06086Y00259*
X06086Y00258*
X06086Y00258*
X06087Y00257*
X06087Y00256*
X06087Y00255*
X06088Y00254*
X06083*
Y00254*
X06083Y00254*
X06083Y00255*
X06083Y00255*
X06083Y00255*
X06082Y00256*
X06082Y00257*
X06081Y00258*
X0608Y00259*
X0608Y0026*
X06079Y00261*
X06079Y00261*
X06078Y00261*
X06078Y00262*
X06078Y00262*
X06077Y00263*
X06076Y00263*
X06075Y00264*
X06074Y00265*
X06073Y00265*
Y00268*
X06112*
Y00264*
G37*
G36*
X06014Y0026D02*
X05984Y00239D01*
X06014*
Y00235*
X05976*
Y0024*
X06006Y0026*
X05976*
Y00265*
X06014*
Y0026*
G37*
%LNcareboard_smd_ordered_kritikare-2*%
%LPC*%
G36*
X06494Y00256D02*
X06493D01*
X06492Y00256*
X06491Y00256*
X06491Y00256*
X0649Y00256*
X06489Y00256*
X06487Y00255*
X06486Y00255*
X06485Y00255*
X06484Y00254*
X06484*
X06484Y00254*
X06484Y00254*
X06484Y00254*
X06483Y00253*
X06483Y00253*
X06482Y00252*
X06481Y00251*
X0648Y0025*
X0648Y00249*
X0648Y00249*
X0648Y00249*
X0648Y00249*
X06479Y00248*
X06479Y00247*
X06479Y00246*
X06479Y00244*
X06479Y00243*
Y00235*
X06509*
Y00243*
Y00243*
Y00243*
Y00243*
Y00244*
X06508Y00244*
X06508Y00245*
X06508Y00246*
X06508Y00247*
X06508Y00248*
X06508Y00249*
X06508Y00249*
X06508Y00249*
X06508Y0025*
X06507Y0025*
X06507Y00251*
X06507Y00251*
X06506Y00252*
X06506Y00252*
X06506Y00252*
X06505Y00253*
X06505Y00253*
X06505Y00253*
X06504Y00254*
X06503Y00254*
X06502Y00255*
X06501Y00255*
X06501*
X06501Y00255*
X06501Y00255*
X065Y00255*
X065Y00255*
X065Y00255*
X06499Y00256*
X06498Y00256*
X06497Y00256*
X06495Y00256*
X06494Y00256*
G37*
G36*
X06289Y0024D02*
X06288D01*
X06287Y0024*
X06286Y0024*
X06286Y0024*
X06285Y0024*
X06284Y0024*
X06282Y00239*
X06281Y00239*
X0628Y00239*
X06279Y00238*
X06279*
X06279Y00238*
X06279Y00238*
X06279Y00238*
X06278Y00238*
X06278Y00237*
X06277Y00236*
X06276Y00235*
X06275Y00235*
X06275Y00234*
X06275Y00233*
X06275Y00233*
X06275Y00233*
X06274Y00232*
X06274Y00231*
X06274Y0023*
X06274Y00229*
X06274Y00227*
Y00219*
X06304*
Y00227*
Y00227*
Y00227*
Y00227*
Y00228*
X06303Y00228*
X06303Y00229*
X06303Y0023*
X06303Y00231*
X06303Y00232*
X06303Y00233*
X06303Y00233*
X06303Y00233*
X06303Y00234*
X06302Y00234*
X06302Y00235*
X06302Y00235*
X06301Y00236*
X06301Y00236*
X06301Y00237*
X063Y00237*
X063Y00237*
X063Y00238*
X06299Y00238*
X06298Y00238*
X06297Y00239*
X06296Y00239*
X06296*
X06296Y00239*
X06296Y00239*
X06295Y00239*
X06295Y00239*
X06295Y0024*
X06294Y0024*
X06293Y0024*
X06292Y0024*
X0629Y0024*
X06289Y0024*
G37*
G36*
X06093D02*
X06092D01*
X06091Y0024*
X0609Y0024*
X0609Y0024*
X06089Y0024*
X06088Y0024*
X06086Y00239*
X06085Y00239*
X06084Y00239*
X06083Y00238*
X06083*
X06083Y00238*
X06083Y00238*
X06083Y00238*
X06082Y00238*
X06082Y00237*
X06081Y00236*
X0608Y00235*
X06079Y00235*
X06079Y00234*
X06079Y00233*
X06079Y00233*
X06079Y00233*
X06078Y00232*
X06078Y00231*
X06078Y0023*
X06078Y00229*
X06078Y00227*
Y00219*
X06108*
Y00227*
Y00227*
Y00227*
Y00227*
Y00228*
X06107Y00228*
X06107Y00229*
X06107Y0023*
X06107Y00231*
X06107Y00232*
X06107Y00233*
X06107Y00233*
X06107Y00233*
X06107Y00234*
X06106Y00234*
X06106Y00235*
X06106Y00235*
X06105Y00236*
X06105Y00236*
X06105Y00237*
X06104Y00237*
X06104Y00237*
X06104Y00238*
X06103Y00238*
X06102Y00238*
X06101Y00239*
X061Y00239*
X061*
X061Y00239*
X061Y00239*
X06099Y00239*
X06099Y00239*
X06099Y0024*
X06098Y0024*
X06097Y0024*
X06096Y0024*
X06094Y0024*
X06093Y0024*
G37*
G36*
X06191D02*
X0619D01*
X06189Y0024*
X06188Y0024*
X06188Y0024*
X06187Y0024*
X06186Y0024*
X06184Y00239*
X06183Y00239*
X06182Y00239*
X06181Y00238*
X06181*
X06181Y00238*
X06181Y00238*
X06181Y00238*
X0618Y00238*
X0618Y00237*
X06179Y00236*
X06178Y00235*
X06177Y00235*
X06177Y00234*
X06177Y00233*
X06177Y00233*
X06177Y00233*
X06176Y00232*
X06176Y00231*
X06176Y0023*
X06176Y00229*
X06176Y00227*
Y00219*
X06206*
Y00227*
Y00227*
Y00227*
Y00227*
Y00228*
X06205Y00228*
X06205Y00229*
X06205Y0023*
X06205Y00231*
X06205Y00232*
X06205Y00233*
X06205Y00233*
X06205Y00233*
X06205Y00234*
X06204Y00234*
X06204Y00235*
X06204Y00235*
X06203Y00236*
X06203Y00236*
X06203Y00237*
X06202Y00237*
X06202Y00237*
X06202Y00238*
X06201Y00238*
X062Y00238*
X06199Y00239*
X06198Y00239*
X06198*
X06198Y00239*
X06198Y00239*
X06197Y00239*
X06197Y00239*
X06197Y0024*
X06196Y0024*
X06195Y0024*
X06194Y0024*
X06192Y0024*
X06191Y0024*
G37*
G36*
X05986Y00388D02*
X05986D01*
X05985Y00388*
X05985Y00388*
X05984Y00388*
X05983Y00387*
X05982Y00387*
X05982Y00386*
X05982Y00386*
X05981Y00386*
X05981Y00385*
X05981Y00385*
X0598Y00384*
X0598Y00383*
X0598Y00381*
X0598Y0038*
Y00368*
X05993*
Y00379*
Y00379*
Y00379*
Y00379*
Y00379*
X05992Y0038*
X05992Y00381*
X05992Y00382*
X05992Y00383*
X05992Y00383*
X05992Y00384*
X05992Y00384*
X05992Y00385*
X05992Y00385*
X05991Y00385*
X05991Y00386*
X05991Y00386*
X0599Y00387*
X0599Y00387*
X05989Y00387*
X05989Y00387*
X05989Y00388*
X05989Y00388*
X05988Y00388*
X05987Y00388*
X05987Y00388*
X05986Y00388*
G37*
G36*
X06394Y00292D02*
X06393D01*
X06393Y00292*
X06392*
X06391Y00292*
X0639Y00292*
X06388Y00292*
X06387Y00291*
X06386Y00291*
X06386*
X06386Y00291*
X06385Y00291*
X06385Y00291*
X06384Y0029*
X06384Y0029*
X06383Y00289*
X06382Y00288*
X06381Y00287*
X0638Y00286*
Y00286*
X0638Y00286*
X0638Y00286*
X0638Y00286*
X0638Y00285*
X06379Y00284*
X06379Y00283*
X06379Y00282*
X06378Y00281*
X06378Y00279*
Y00279*
Y00279*
Y00279*
X06378Y00278*
X06378Y00278*
X06378Y00277*
X06379Y00277*
X06379Y00276*
X06379Y00275*
X0638Y00274*
X0638Y00273*
X0638Y00272*
X06381Y00272*
X06381Y00271*
X06382Y0027*
X06382Y0027*
X06382Y0027*
X06382Y0027*
X06383Y0027*
X06383Y00269*
X06384Y00269*
X06384Y00269*
X06385Y00268*
X06386Y00268*
X06387Y00267*
X06388Y00267*
X06389Y00267*
X0639Y00267*
X06391Y00266*
X06393Y00266*
X06394Y00266*
X06395*
X06396Y00266*
X06396Y00266*
X06397Y00266*
X06398Y00267*
X06398Y00267*
X064Y00267*
X06401Y00267*
X06402Y00268*
X06403Y00268*
X06404Y00269*
X06405Y00269*
X06405Y0027*
X06405Y0027*
X06406Y0027*
X06406Y0027*
X06406Y00271*
X06406Y00271*
X06407Y00271*
X06407Y00272*
X06407Y00272*
X06408Y00273*
X06408Y00274*
X06408Y00275*
X06409Y00275*
X06409Y00276*
X06409Y00277*
X06409Y00278*
X06409Y00279*
Y00279*
Y0028*
Y0028*
X06409Y0028*
X06409Y00281*
X06409Y00281*
X06409Y00282*
X06409Y00283*
X06408Y00284*
X06408Y00285*
X06408Y00286*
X06407Y00286*
X06407Y00287*
X06406Y00288*
X06405Y00289*
X06405Y00289*
X06405Y00289*
X06405Y00289*
X06405Y00289*
X06404Y0029*
X06404Y0029*
X06403Y0029*
X06402Y00291*
X06402Y00291*
X06401Y00291*
X064Y00292*
X06399Y00292*
X06398Y00292*
X06397Y00292*
X06395Y00292*
X06394Y00292*
G37*
G36*
X05995Y00351D02*
X05994D01*
X05994Y00351*
X05993*
X05992Y00351*
X05991Y0035*
X05989Y0035*
X05988Y0035*
X05987Y00349*
X05987*
X05987Y00349*
X05986Y00349*
X05986Y00349*
X05985Y00349*
X05985Y00348*
X05984Y00347*
X05983Y00347*
X05982Y00346*
X05981Y00345*
Y00345*
X05981Y00345*
X05981Y00344*
X05981Y00344*
X05981Y00343*
X0598Y00343*
X0598Y00342*
X0598Y0034*
X05979Y00339*
X05979Y00338*
Y00338*
Y00338*
Y00337*
X05979Y00337*
X05979Y00336*
X05979Y00336*
X0598Y00335*
X0598Y00335*
X0598Y00333*
X05981Y00332*
X05981Y00332*
X05981Y00331*
X05982Y0033*
X05982Y00329*
X05983Y00329*
X05983Y00328*
X05983Y00328*
X05983Y00328*
X05984Y00328*
X05984Y00328*
X05985Y00327*
X05985Y00327*
X05986Y00327*
X05987Y00326*
X05988Y00326*
X05989Y00326*
X0599Y00325*
X05991Y00325*
X05992Y00325*
X05994Y00325*
X05995Y00325*
X05996*
X05997Y00325*
X05997Y00325*
X05998Y00325*
X05999Y00325*
X05999Y00325*
X06001Y00326*
X06002Y00326*
X06003Y00326*
X06004Y00327*
X06005Y00327*
X06006Y00328*
X06006Y00328*
X06006Y00328*
X06007Y00329*
X06007Y00329*
X06007Y00329*
X06007Y00329*
X06008Y0033*
X06008Y0033*
X06008Y00331*
X06009Y00332*
X06009Y00332*
X06009Y00333*
X0601Y00334*
X0601Y00335*
X0601Y00336*
X0601Y00337*
X0601Y00338*
Y00338*
Y00338*
Y00338*
X0601Y00339*
X0601Y00339*
X0601Y0034*
X0601Y0034*
X0601Y00341*
X06009Y00343*
X06009Y00343*
X06009Y00344*
X06008Y00345*
X06008Y00346*
X06007Y00346*
X06006Y00347*
X06006Y00347*
X06006Y00347*
X06006Y00347*
X06006Y00348*
X06005Y00348*
X06005Y00348*
X06004Y00349*
X06003Y00349*
X06003Y00349*
X06002Y0035*
X06001Y0035*
X06Y0035*
X05999Y00351*
X05998Y00351*
X05996Y00351*
X05995Y00351*
G37*
G36*
X06397Y00172D02*
X06387Y00168D01*
X06387*
X06386Y00168*
X06386Y00168*
X06386Y00168*
X06385Y00168*
X06385Y00167*
X06384Y00167*
X06383Y00167*
X06381Y00166*
X0638Y00166*
X06379Y00165*
X06379*
X06379Y00165*
X06379*
X06379Y00165*
X0638Y00165*
X0638Y00165*
X06381Y00165*
X06382Y00164*
X06383Y00164*
X06385Y00164*
X06386Y00163*
X06397Y00159*
Y00172*
G37*
G36*
X05995Y00223D02*
X05994D01*
X05994Y00223*
X05993*
X05992Y00223*
X05991Y00222*
X05989Y00222*
X05988Y00222*
X05987Y00221*
X05987*
X05987Y00221*
X05986Y00221*
X05986Y00221*
X05985Y0022*
X05985Y0022*
X05984Y00219*
X05983Y00218*
X05982Y00218*
X05981Y00217*
Y00216*
X05981Y00216*
X05981Y00216*
X05981Y00216*
X05981Y00215*
X0598Y00215*
X0598Y00214*
X0598Y00212*
X05979Y00211*
X05979Y0021*
Y0021*
Y00209*
Y00209*
X05979Y00209*
X05979Y00208*
X05979Y00208*
X0598Y00207*
X0598Y00207*
X0598Y00205*
X05981Y00204*
X05981Y00204*
X05981Y00203*
X05982Y00202*
X05982Y00201*
X05983Y002*
X05983Y002*
X05983Y002*
X05983Y002*
X05984Y002*
X05984Y002*
X05985Y00199*
X05985Y00199*
X05986Y00198*
X05987Y00198*
X05988Y00198*
X05989Y00197*
X0599Y00197*
X05991Y00197*
X05992Y00197*
X05994Y00197*
X05995Y00197*
X05996*
X05997Y00197*
X05997Y00197*
X05998Y00197*
X05999Y00197*
X05999Y00197*
X06001Y00197*
X06002Y00198*
X06003Y00198*
X06004Y00199*
X06005Y00199*
X06006Y002*
X06006Y002*
X06006Y002*
X06007Y002*
X06007Y00201*
X06007Y00201*
X06007Y00201*
X06008Y00202*
X06008Y00202*
X06008Y00203*
X06009Y00203*
X06009Y00204*
X06009Y00205*
X0601Y00206*
X0601Y00207*
X0601Y00208*
X0601Y00209*
X0601Y0021*
Y0021*
Y0021*
Y0021*
X0601Y00211*
X0601Y00211*
X0601Y00212*
X0601Y00212*
X0601Y00213*
X06009Y00214*
X06009Y00215*
X06009Y00216*
X06008Y00217*
X06008Y00218*
X06007Y00218*
X06006Y00219*
X06006Y00219*
X06006Y00219*
X06006Y00219*
X06006Y0022*
X06005Y0022*
X06005Y0022*
X06004Y00221*
X06003Y00221*
X06003Y00221*
X06002Y00222*
X06001Y00222*
X06Y00222*
X05999Y00222*
X05998Y00223*
X05996Y00223*
X05995Y00223*
G37*
%LNcareboard_smd_ordered_kritikare-3*%
%LPD*%
G54D34*
X01293Y01681D02*
X01363D01*
X02699Y01197D02*
X02769D01*
X04524Y01294D02*
Y01364D01*
X04946Y00781D02*
X05016D01*
X04906Y01336D02*
Y01277D01*
X04876*
X04866Y01287*
Y01296*
X04876Y01306*
X04906*
X04876*
X04866Y01316*
Y01326*
X04876Y01336*
X04906*
X04846Y01277D02*
Y01316D01*
X04826Y01336*
X04806Y01316*
Y01277*
Y01306*
X04846*
X04786Y01336D02*
X04746D01*
X04766*
Y01277*
X0507Y01273D02*
Y01332D01*
X0504*
X0503Y01322*
Y01302*
X0504Y01292*
X0507*
X0498Y01273D02*
Y01332D01*
X0501Y01302*
X0497*
X04978Y00578D02*
Y00529D01*
X04968Y00519*
X04948*
X04938Y00529*
Y00578*
X04918Y00568D02*
X04908Y00578D01*
X04888*
X04878Y00568*
Y00558*
X04888Y00548*
X04878Y00538*
Y00529*
X04888Y00519*
X04908*
X04918Y00529*
Y00538*
X04908Y00548*
X04918Y00558*
Y00568*
X04908Y00548D02*
X04888D01*
X04843Y01846D02*
Y01797D01*
X04833Y01787*
X04813*
X04803Y01797*
Y01846*
X04783D02*
X04743D01*
Y01836*
X04783Y01797*
Y01787*
X04573Y00437D02*
X04633D01*
Y00466*
X04623Y00476*
X04603*
X04593Y00466*
Y00437*
Y00456D02*
X04573Y00476D01*
Y00536D02*
Y00496D01*
X04613Y00536*
X04623*
X04633Y00526*
Y00506*
X04623Y00496*
X04573Y00556D02*
Y00576D01*
Y00566*
X04633*
X04623Y00556*
X04889Y00362D02*
Y00421D01*
X04859*
X04849Y00411*
Y00391*
X04859Y00381*
X04889*
X04869D02*
X04849Y00362D01*
X04789D02*
X04829D01*
X04789Y00401*
Y00411*
X04799Y00421*
X04819*
X04829Y00411*
X04769D02*
X04759Y00421D01*
X04739*
X04729Y00411*
Y00372*
X04739Y00362*
X04759*
X04769Y00372*
Y00411*
X0454Y00421D02*
Y0048D01*
X0451*
X045Y0047*
Y00451*
X0451Y00441*
X0454*
X0452D02*
X045Y00421D01*
X0448D02*
X0446D01*
X0447*
Y0048*
X0448Y0047*
X0443Y00431D02*
X0442Y00421D01*
X044*
X0439Y00431*
Y0047*
X044Y0048*
X0442*
X0443Y0047*
Y0046*
X0442Y00451*
X0439*
X05055Y00363D02*
Y00422D01*
X05025*
X05015Y00412*
Y00392*
X05025Y00382*
X05055*
X05035D02*
X05015Y00363D01*
X04995D02*
X04975D01*
X04985*
Y00422*
X04995Y00412*
X04945D02*
X04935Y00422D01*
X04915*
X04905Y00412*
Y00402*
X04915Y00392*
X04905Y00382*
Y00373*
X04915Y00363*
X04935*
X04945Y00373*
Y00382*
X04935Y00392*
X04945Y00402*
Y00412*
X04935Y00392D02*
X04915D01*
X04615Y02046D02*
Y02105D01*
X04585*
X04575Y02095*
Y02075*
X04585Y02065*
X04615*
X04595D02*
X04575Y02046D01*
X04555D02*
X04535D01*
X04545*
Y02105*
X04555Y02095*
X04505Y02105D02*
X04465D01*
Y02095*
X04505Y02056*
Y02046*
X04972Y02216D02*
Y02275D01*
X04942*
X04932Y02265*
Y02245*
X04942Y02235*
X04972*
X04952D02*
X04932Y02216D01*
X04912D02*
X04892D01*
X04902*
Y02275*
X04912Y02265*
X04822Y02275D02*
X04842Y02265D01*
X04862Y02245*
Y02226*
X04852Y02216*
X04832*
X04822Y02226*
Y02235*
X04832Y02245*
X04862*
X04854Y00999D02*
Y0094D01*
X04814*
X04794D02*
X04774D01*
X04784*
Y00999*
X04794Y00989*
X0447Y0161D02*
X0451D01*
Y0158*
X0449*
X0451*
Y0155*
X0445D02*
X0443D01*
X0444*
Y0161*
X0445Y016*
X04713Y0082D02*
X04723Y0081D01*
Y00791*
X04713Y00781*
X04673*
X04663Y00791*
Y0081*
X04673Y0082*
X04663Y0088D02*
Y0084D01*
X04703Y0088*
X04713*
X04723Y0087*
Y0085*
X04713Y0084*
X04723Y0094D02*
Y009D01*
X04693*
X04703Y0092*
Y0093*
X04693Y0094*
X04673*
X04663Y0093*
Y0091*
X04673Y009*
X04476Y00715D02*
X04466Y00725D01*
Y00745*
X04476Y00755*
X04516*
X04526Y00745*
Y00725*
X04516Y00715*
X04526Y00655D02*
Y00695D01*
X04486Y00655*
X04476*
X04466Y00665*
Y00685*
X04476Y00695*
X04526Y00605D02*
X04466D01*
X04496Y00635*
Y00595*
X0504Y00739D02*
X0503Y00749D01*
Y00769*
X0504Y00779*
X0508*
X0509Y00769*
Y00749*
X0508Y00739*
X0509Y00679D02*
Y00719D01*
X0505Y00679*
X0504*
X0503Y00689*
Y00709*
X0504Y00719*
Y00659D02*
X0503Y00649D01*
Y00629*
X0504Y00619*
X0505*
X0506Y00629*
Y00639*
Y00629*
X0507Y00619*
X0508*
X0509Y00629*
Y00649*
X0508Y00659*
X05011Y00234D02*
X0502Y00244D01*
X0504*
X0505Y00234*
Y00195*
X0504Y00185*
X0502*
X05011Y00195*
X04951Y00185D02*
X04991D01*
X04951Y00224*
Y00234*
X04961Y00244*
X04981*
X04991Y00234*
X04931Y00185D02*
X04911D01*
X04921*
Y00244*
X04931Y00234*
X01316Y01288D02*
X01326Y01298D01*
X01346*
X01356Y01288*
Y01248*
X01346Y01238*
X01326*
X01316Y01248*
X01296Y01238D02*
X01276D01*
X01286*
Y01298*
X01296Y01288*
X01246Y01248D02*
X01236Y01238D01*
X01216*
X01206Y01248*
Y01288*
X01216Y01298*
X01236*
X01246Y01288*
Y01278*
X01236Y01268*
X01206*
X04297Y01714D02*
X04307Y01724D01*
X04327*
X04337Y01714*
Y01674*
X04327Y01664*
X04307*
X04297Y01674*
X04277Y01664D02*
X04257D01*
X04267*
Y01724*
X04277Y01714*
X04227D02*
X04217Y01724D01*
X04197*
X04187Y01714*
Y01704*
X04197Y01694*
X04187Y01684*
Y01674*
X04197Y01664*
X04217*
X04227Y01674*
Y01684*
X04217Y01694*
X04227Y01704*
Y01714*
X04217Y01694D02*
X04197D01*
X05115Y01943D02*
X05125Y01953D01*
X05145*
X05155Y01943*
Y01904*
X05145Y01894*
X05125*
X05115Y01904*
X05095Y01894D02*
X05075D01*
X05085*
Y01953*
X05095Y01943*
X05045Y01953D02*
X05005D01*
Y01943*
X05045Y01904*
Y01894*
X04628Y01351D02*
X04638Y01361D01*
X04658*
X04668Y01351*
Y01312*
X04658Y01302*
X04638*
X04628Y01312*
X04608Y01302D02*
X04588D01*
X04598*
Y01361*
X04608Y01351*
X04518Y01361D02*
X04538Y01351D01*
X04558Y01331*
Y01312*
X04548Y01302*
X04528*
X04518Y01312*
Y01321*
X04528Y01331*
X04558*
X01316Y01102D02*
X01326Y01112D01*
X01346*
X01356Y01102*
Y01062*
X01346Y01052*
X01326*
X01316Y01062*
X01296Y01052D02*
X01276D01*
X01286*
Y01112*
X01296Y01102*
X01206Y01112D02*
X01246D01*
Y01082*
X01226Y01092*
X01216*
X01206Y01082*
Y01062*
X01216Y01052*
X01236*
X01246Y01062*
X04571Y01983D02*
X04581Y01993D01*
X04601*
X04611Y01983*
Y01943*
X04601Y01933*
X04581*
X04571Y01943*
X04551Y01933D02*
X04531D01*
X04541*
Y01993*
X04551Y01983*
X04471Y01933D02*
Y01993D01*
X04501Y01963*
X04461*
X02797Y01135D02*
X02787Y01145D01*
Y01165*
X02797Y01175*
X02837*
X02847Y01165*
Y01145*
X02837Y01135*
X02847Y01115D02*
Y01095D01*
Y01105*
X02787*
X02797Y01115*
Y01065D02*
X02787Y01055D01*
Y01035*
X02797Y01025*
X02807*
X02817Y01035*
Y01045*
Y01035*
X02827Y01025*
X02837*
X02847Y01035*
Y01055*
X02837Y01065*
X02501Y01125D02*
X02491Y01135D01*
Y01155*
X02501Y01165*
X02541*
X02551Y01155*
Y01135*
X02541Y01125*
X02551Y01105D02*
Y01085D01*
Y01095*
X02491*
X02501Y01105*
X02551Y01015D02*
Y01055D01*
X02511Y01015*
X02501*
X02491Y01025*
Y01045*
X02501Y01055*
X0186Y0221D02*
Y02161D01*
X0185Y02151*
X0183*
X0182Y02161*
Y0221*
X0177Y02151D02*
Y0221D01*
X018Y0218*
X0176*
X01194Y0174D02*
X01204Y0175D01*
X01224*
X01234Y0174*
Y017*
X01224Y0169*
X01204*
X01194Y017*
X01174Y0174D02*
X01164Y0175D01*
X01144*
X01134Y0174*
Y0173*
X01144Y0172*
X01134Y0171*
Y017*
X01144Y0169*
X01164*
X01174Y017*
Y0171*
X01164Y0172*
X01174Y0173*
Y0174*
X01164Y0172D02*
X01144D01*
X00812Y01609D02*
Y01669D01*
X00782*
X00772Y01659*
Y01639*
X00782Y01629*
X00812*
X00792D02*
X00772Y01609D01*
X00712D02*
X00752D01*
X00712Y01649*
Y01659*
X00722Y01669*
X00742*
X00752Y01659*
X00973Y01621D02*
X00933D01*
X00923Y01631*
Y01651*
X00933Y01661*
X00973*
X00983Y01651*
Y01631*
X00963Y01641D02*
X00983Y01621D01*
Y01631D02*
X00973Y01621D01*
X00983Y01601D02*
Y01581D01*
Y01591*
X00923*
X00933Y01601*
X01343Y01741D02*
X01353Y01751D01*
X01373*
X01383Y01741*
Y01701*
X01373Y01691*
X01353*
X01343Y01701*
X01323D02*
X01313Y01691D01*
X01293*
X01283Y01701*
Y01741*
X01293Y01751*
X01313*
X01323Y01741*
Y01731*
X01313Y01721*
X01283*
X01691Y0218D02*
X01631D01*
Y0215*
X01641Y0214*
X01661*
X01671Y0215*
Y0218*
Y0216D02*
X01691Y0214D01*
X01641Y0212D02*
X01631Y0211D01*
Y0209*
X01641Y0208*
X01651*
X01661Y0209*
Y021*
Y0209*
X01671Y0208*
X01681*
X01691Y0209*
Y0211*
X01681Y0212*
X03112Y01997D02*
Y02057D01*
X03082*
X03072Y02047*
Y02027*
X03082Y02017*
X03112*
X03092D02*
X03072Y01997D01*
X03052D02*
X03032D01*
X03042*
Y02057*
X03052Y02047*
X01791Y01809D02*
X01731D01*
Y01779*
X01741Y01769*
X01761*
X01771Y01779*
Y01809*
Y01789D02*
X01791Y01769D01*
Y01749D02*
Y01729D01*
Y01739*
X01731*
X01741Y01749*
X01791Y01659D02*
Y01699D01*
X01751Y01659*
X01741*
X01731Y01669*
Y01689*
X01741Y01699*
X01959Y01729D02*
X01969Y01719D01*
Y017*
X01959Y0169*
X01919*
X01909Y017*
Y01719*
X01919Y01729*
X01969Y01789D02*
Y01749D01*
X01939*
X01949Y01769*
Y01779*
X01939Y01789*
X01919*
X01909Y01779*
Y01759*
X01919Y01749*
X06572Y00051D02*
X06632D01*
Y00081*
X06622Y00091*
X06602*
X06592Y00081*
Y00051*
X06622Y00111D02*
X06632Y00121D01*
Y00141*
X06622Y00151*
X06612*
X06602Y00141*
Y00131*
Y00141*
X06592Y00151*
X06582*
X06572Y00141*
Y00121*
X06582Y00111*
G54D35*
X06963Y0D02*
Y026D01*
X0D02*
X06963D01*
X0Y0D02*
X06963D01*
X0D02*
Y026D01*
G54D71*
X0475Y00757D02*
D01*
X0475Y00758*
X0475Y00758*
X0475Y00758*
X04749Y00758*
X04749Y00758*
X04749Y00758*
X04749Y00758*
X04749Y00759*
X04749Y00759*
X04749Y00759*
X04749Y00759*
X04749Y00759*
X04749Y00759*
X04749Y00759*
X04749Y00759*
X04748Y00759*
X04748Y00759*
X04748Y00759*
X04748Y00759*
X04748Y00759*
X04748Y00759*
X04748Y00759*
X04748*
X04747Y00759*
X04747Y00759*
X04747Y00759*
X04747Y00759*
X04747Y00759*
X04747Y00759*
X04747Y00759*
X04746Y00759*
X04746Y00759*
X04746Y00759*
X04746Y00759*
X04746Y00759*
X04746Y00759*
X04746Y00759*
X04746Y00758*
X04746Y00758*
X04746Y00758*
X04746Y00758*
X04746Y00758*
X04746Y00758*
X04746Y00758*
X04746Y00757*
X04746Y00757*
X04746Y00757*
X04746Y00757*
X04746Y00757*
X04746Y00757*
X04746Y00757*
X04746Y00757*
X04746Y00756*
X04746Y00756*
X04746Y00756*
X04746Y00756*
X04746Y00756*
X04746Y00756*
X04746Y00756*
X04747Y00756*
X04747Y00756*
X04747Y00756*
X04747Y00756*
X04747Y00756*
X04747Y00756*
X04747Y00756*
X04748Y00756*
X04748*
X04748Y00756*
X04748Y00756*
X04748Y00756*
X04748Y00756*
X04748Y00756*
X04748Y00756*
X04749Y00756*
X04749Y00756*
X04749Y00756*
X04749Y00756*
X04749Y00756*
X04749Y00756*
X04749Y00756*
X04749Y00756*
X04749Y00757*
X04749Y00757*
X04749Y00757*
X04749Y00757*
X0475Y00757*
X0475Y00757*
X0475Y00757*
X0475Y00757*
X04836Y02015D02*
D01*
X04836Y02015*
X04836Y02016*
X04836Y02016*
X04836Y02016*
X04836Y02017*
X04835Y02017*
X04835Y02017*
X04835Y02017*
X04835Y02018*
X04835Y02018*
X04834Y02018*
X04834Y02018*
X04834Y02019*
X04834Y02019*
X04833Y02019*
X04833Y02019*
X04833Y02019*
X04832Y02019*
X04832Y0202*
X04832Y0202*
X04831Y0202*
X04831Y0202*
X04831*
X0483Y0202*
X0483Y0202*
X0483Y0202*
X04829Y02019*
X04829Y02019*
X04829Y02019*
X04828Y02019*
X04828Y02019*
X04828Y02019*
X04828Y02018*
X04827Y02018*
X04827Y02018*
X04827Y02018*
X04827Y02017*
X04827Y02017*
X04826Y02017*
X04826Y02017*
X04826Y02016*
X04826Y02016*
X04826Y02016*
X04826Y02015*
X04826Y02015*
X04826Y02014*
X04826Y02014*
X04826Y02014*
X04826Y02013*
X04826Y02013*
X04826Y02013*
X04827Y02013*
X04827Y02012*
X04827Y02012*
X04827Y02012*
X04827Y02011*
X04828Y02011*
X04828Y02011*
X04828Y02011*
X04828Y02011*
X04829Y0201*
X04829Y0201*
X04829Y0201*
X0483Y0201*
X0483Y0201*
X0483Y0201*
X04831Y0201*
X04831*
X04831Y0201*
X04832Y0201*
X04832Y0201*
X04832Y0201*
X04833Y0201*
X04833Y0201*
X04833Y02011*
X04834Y02011*
X04834Y02011*
X04834Y02011*
X04834Y02011*
X04835Y02012*
X04835Y02012*
X04835Y02012*
X04835Y02013*
X04835Y02013*
X04836Y02013*
X04836Y02013*
X04836Y02014*
X04836Y02014*
X04836Y02014*
X04836Y02015*
X01047Y01539D02*
D01*
X01047Y01539*
X01047Y01539*
X01047Y0154*
X01047Y0154*
X01047Y0154*
X01047Y01541*
X01046Y01541*
X01046Y01541*
X01046Y01542*
X01046Y01542*
X01046Y01542*
X01045Y01542*
X01045Y01543*
X01045Y01543*
X01045Y01543*
X01044Y01543*
X01044Y01543*
X01044Y01543*
X01043Y01543*
X01043Y01543*
X01043Y01544*
X01042Y01544*
X01042*
X01042Y01544*
X01041Y01543*
X01041Y01543*
X01041Y01543*
X0104Y01543*
X0104Y01543*
X0104Y01543*
X01039Y01543*
X01039Y01543*
X01039Y01542*
X01039Y01542*
X01038Y01542*
X01038Y01542*
X01038Y01541*
X01038Y01541*
X01038Y01541*
X01037Y0154*
X01037Y0154*
X01037Y0154*
X01037Y01539*
X01037Y01539*
X01037Y01539*
X01037Y01538*
X01037Y01538*
X01037Y01538*
X01037Y01537*
X01037Y01537*
X01038Y01537*
X01038Y01536*
X01038Y01536*
X01038Y01536*
X01038Y01535*
X01039Y01535*
X01039Y01535*
X01039Y01535*
X01039Y01535*
X0104Y01534*
X0104Y01534*
X0104Y01534*
X01041Y01534*
X01041Y01534*
X01041Y01534*
X01042Y01534*
X01042Y01534*
X01042*
X01043Y01534*
X01043Y01534*
X01043Y01534*
X01044Y01534*
X01044Y01534*
X01044Y01534*
X01045Y01534*
X01045Y01535*
X01045Y01535*
X01045Y01535*
X01046Y01535*
X01046Y01535*
X01046Y01536*
X01046Y01536*
X01046Y01536*
X01047Y01537*
X01047Y01537*
X01047Y01537*
X01047Y01538*
X01047Y01538*
X01047Y01538*
X01047Y01539*
X01786Y0197D02*
D01*
X01786Y0197*
X01786Y0197*
X01786Y01971*
X01785Y01971*
X01785Y01971*
X01785Y01972*
X01785Y01972*
X01785Y01972*
X01785Y01972*
X01785Y01973*
X01784Y01973*
X01784Y01973*
X01784Y01973*
X01784Y01974*
X01783Y01974*
X01783Y01974*
X01783Y01974*
X01782Y01974*
X01782Y01974*
X01782Y01974*
X01781Y01974*
X01781Y01974*
X01781*
X0178Y01974*
X0178Y01974*
X0178Y01974*
X01779Y01974*
X01779Y01974*
X01779Y01974*
X01778Y01974*
X01778Y01974*
X01778Y01973*
X01777Y01973*
X01777Y01973*
X01777Y01973*
X01777Y01972*
X01777Y01972*
X01776Y01972*
X01776Y01972*
X01776Y01971*
X01776Y01971*
X01776Y01971*
X01776Y0197*
X01776Y0197*
X01776Y0197*
X01776Y01969*
X01776Y01969*
X01776Y01968*
X01776Y01968*
X01776Y01968*
X01776Y01967*
X01776Y01967*
X01777Y01967*
X01777Y01967*
X01777Y01966*
X01777Y01966*
X01777Y01966*
X01778Y01966*
X01778Y01965*
X01778Y01965*
X01779Y01965*
X01779Y01965*
X01779Y01965*
X0178Y01965*
X0178Y01965*
X0178Y01965*
X01781Y01965*
X01781*
X01781Y01965*
X01782Y01965*
X01782Y01965*
X01782Y01965*
X01783Y01965*
X01783Y01965*
X01783Y01965*
X01784Y01965*
X01784Y01966*
X01784Y01966*
X01784Y01966*
X01785Y01966*
X01785Y01967*
X01785Y01967*
X01785Y01967*
X01785Y01967*
X01785Y01968*
X01785Y01968*
X01786Y01968*
X01786Y01969*
X01786Y01969*
X01786Y0197*
G54D73*
X04359Y01531D02*
X04422D01*
X04359Y01412D02*
X04422D01*
X04882Y00713D02*
Y00734D01*
Y00601D02*
Y00622D01*
X04748Y00601D02*
Y00622D01*
Y00713D02*
Y00734D01*
X04754*
X04875D02*
X04882D01*
X04875Y00601D02*
X04882D01*
X04748D02*
X04754D01*
X04788Y01993D02*
X04816D01*
X04788Y01871D02*
X04816D01*
Y01993*
X04788Y01871D02*
Y01993D01*
X0481Y00911D02*
X04979D01*
X0481Y00791D02*
X04979D01*
Y00894D02*
Y00911D01*
X0481Y00894D02*
Y00911D01*
X04979Y00791D02*
Y00807D01*
X0481Y00791D02*
Y00807D01*
X01063Y01566D02*
X01095D01*
Y01597*
X01063Y01684D02*
X01095D01*
Y01652D02*
Y01684D01*
X01802Y01996D02*
X01833D01*
Y02028*
X01802Y02115D02*
X01833D01*
Y02083D02*
Y02115D01*
X05842Y00028D02*
X06542D01*
X05842D02*
Y00128D01*
X06542*
Y00028D02*
Y00128D01*
M02*