%FSTAX23Y23*%
%MOIN*%
%SFA1B1*%

%IPPOS*%
%ADD33C,0.001000*%
%ADD113C,0.005000*%
%ADD114C,0.006670*%
%ADD115C,0.004000*%
%LNcareboard_smd_ordered_6.29-1*%
%LPD*%
G54D33*
X06963Y0D02*
Y026D01*
X0D02*
X06963D01*
X0Y0D02*
X06963D01*
X0D02*
Y026D01*
G54D113*
X06767Y02238D02*
Y02278D01*
X06807*
Y02238*
X06767*
X0686D02*
Y02278D01*
X069*
Y02238*
X0686*
X06669Y02496D02*
Y02536D01*
X06709*
Y02496*
X06669*
Y02398D02*
Y02438D01*
X06709*
Y02398*
X06669*
X0686Y01994D02*
Y02034D01*
X069*
Y01994*
X0686*
X06767Y01994D02*
Y02034D01*
X06807*
Y01994*
X06767*
X06666Y01714D02*
Y01754D01*
X06706*
Y01714*
X06666*
Y01812D02*
Y01852D01*
X06706*
Y01812*
X06666*
X05995Y01811D02*
Y01851D01*
X06035*
Y01811*
X05995*
Y01713D02*
Y01753D01*
X06035*
Y01713*
X05995*
X06096Y01993D02*
Y02033D01*
X06136*
Y01993*
X06096*
X06189Y01993D02*
Y02033D01*
X06229*
Y01993*
X06189*
X05998Y02397D02*
Y02437D01*
X06038*
Y02397*
X05998*
Y02495D02*
Y02535D01*
X06038*
Y02495*
X05998*
X06189Y02237D02*
Y02277D01*
X06229*
Y02237*
X06189*
X06096D02*
Y02277D01*
X06136*
Y02237*
X06096*
X00347Y00767D02*
X00327Y00807D01*
X00367*
X00347Y00767*
X00272Y00557D02*
X00282Y00567D01*
X00292*
X00282Y00577*
X00292Y00587*
X00282*
X00272Y00597*
X00262Y00587*
X00252*
X00262Y00577*
X00252Y00567*
X00262*
X00272Y00557*
X00197Y00767D02*
X00177Y00807D01*
X00217*
X00197Y00767*
X00272Y00287D02*
X00282Y00297D01*
X00292*
X00282Y00307*
X00292Y00317*
X00282*
X00272Y00327*
X00262Y00317*
X00252*
X00262Y00307*
X00252Y00297*
X00262*
X00272Y00287*
X06722Y01098D02*
X06732Y01118D01*
X06722Y01138*
X06742Y01128*
X06762Y01138*
X06752Y01118*
X06762Y01098*
X06742Y01108*
X06722Y01098*
X06622Y01096D02*
X06632Y01116D01*
X06622Y01136*
X06642Y01126*
X06662Y01136*
X06652Y01116*
X06662Y01096*
X06642Y01106*
X06622Y01096*
X06725Y00252D02*
X06735Y00272D01*
X06725Y00292*
X06745Y00282*
X06765Y00292*
X06755Y00272*
X06765Y00252*
X06745Y00262*
X06725Y00252*
X06625Y0025D02*
X06635Y0027D01*
X06625Y0029*
X06645Y0028*
X06665Y0029*
X06655Y0027*
X06665Y0025*
X06645Y0026*
X06625Y0025*
X0573Y00252D02*
X0574Y00272D01*
X0573Y00292*
X0575Y00282*
X0577Y00292*
X0576Y00272*
X0577Y00252*
X0575Y00262*
X0573Y00252*
X0563Y0025D02*
X0564Y0027D01*
X0563Y0029*
X0565Y0028*
X0567Y0029*
X0566Y0027*
X0567Y0025*
X0565Y0026*
X0563Y0025*
X00117Y01457D02*
Y01447D01*
X00137*
Y01457*
X00147*
Y01477*
X00137*
Y01487*
X00117*
Y01477*
X00107*
Y01457*
X00117*
Y01642D02*
Y01632D01*
X00137*
Y01642*
X00147*
Y01662*
X00137*
Y01672*
X00117*
Y01662*
X00107*
Y01642*
X00117*
Y01827D02*
Y01817D01*
X00137*
Y01827*
X00147*
Y01847*
X00137*
Y01857*
X00117*
Y01847*
X00107*
Y01827*
X00117*
Y02012D02*
Y02002D01*
X00137*
Y02012*
X00147*
Y02032*
X00137*
Y02042*
X00117*
Y02032*
X00107*
Y02012*
X00117*
X01486Y00999D02*
X01496D01*
X01506Y01009*
X01516Y00999*
X01526*
Y01009*
X01516Y01019*
X01526Y01029*
Y01039*
X01516*
X01506Y01029*
X01496Y01039*
X01486*
Y01029*
X01496Y01019*
X01486Y01009*
Y00999*
Y01191D02*
X01496D01*
X01506Y01201*
X01516Y01191*
X01526*
Y01201*
X01516Y01211*
X01526Y01221*
Y01231*
X01516*
X01506Y01221*
X01496Y01231*
X01486*
Y01221*
X01496Y01211*
X01486Y01201*
Y01191*
X05528Y01118D02*
X05548Y01138D01*
X05568Y01118*
X05548Y01098*
X05528Y01118*
X05827Y01117D02*
X05847Y01137D01*
X05867Y01117*
X05847Y01097*
X05827Y01117*
X06506Y01704D02*
Y01744D01*
X06546*
Y01704*
X06506*
X06514Y01712D02*
Y01736D01*
X06538*
Y01712*
X06514*
X06456Y01754D02*
Y01794D01*
X06496*
Y01754*
X06456*
X06464Y01762D02*
Y01786D01*
X06488*
Y01762*
X06464*
X06873Y01753D02*
Y01793D01*
X06913*
Y01753*
X06873*
X06881Y01761D02*
Y01785D01*
X06905*
Y01761*
X06881*
X06826Y01703D02*
Y01743D01*
X06866*
Y01703*
X06826*
X06834Y01711D02*
Y01735D01*
X06858*
Y01711*
X06834*
X06826Y02515D02*
Y02555D01*
X06866*
Y02515*
X06826*
X06834Y02523D02*
Y02547D01*
X06858*
Y02523*
X06834*
X06873Y02468D02*
Y02508D01*
X06913*
Y02468*
X06873*
X06881Y02476D02*
Y025D01*
X06905*
Y02476*
X06881*
X06499Y02515D02*
Y02555D01*
X06539*
Y02515*
X06499*
X06507Y02523D02*
Y02547D01*
X06531*
Y02523*
X06507*
X06449Y02468D02*
Y02508D01*
X06489*
Y02468*
X06449*
X06457Y02476D02*
Y025D01*
X06481*
Y02476*
X06457*
X05778Y02467D02*
Y02507D01*
X05818*
Y02467*
X05778*
X05786Y02475D02*
Y02499D01*
X0581*
Y02475*
X05786*
X05828Y02514D02*
Y02554D01*
X05868*
Y02514*
X05828*
X05836Y02522D02*
Y02546D01*
X0586*
Y02522*
X05836*
X06202Y02467D02*
Y02507D01*
X06242*
Y02467*
X06202*
X0621Y02475D02*
Y02499D01*
X06234*
Y02475*
X0621*
X06155Y02514D02*
Y02554D01*
X06195*
Y02514*
X06155*
X06163Y02522D02*
Y02546D01*
X06187*
Y02522*
X06163*
X06155Y01702D02*
Y01742D01*
X06195*
Y01702*
X06155*
X06163Y0171D02*
Y01734D01*
X06187*
Y0171*
X06163*
X06202Y01752D02*
Y01792D01*
X06242*
Y01752*
X06202*
X0621Y0176D02*
Y01784D01*
X06234*
Y0176*
X0621*
X05785Y01753D02*
Y01793D01*
X05825*
Y01753*
X05785*
X05793Y01761D02*
Y01785D01*
X05817*
Y01761*
X05793*
X05835Y01703D02*
Y01743D01*
X05875*
Y01703*
X05835*
X05843Y01711D02*
Y01735D01*
X05867*
Y01711*
X05843*
X04785Y00667D02*
X04765Y00707D01*
X04805*
X04785Y00667*
Y00675D02*
X04773Y00699D01*
X04797*
X04785Y00675*
X04815Y00648D02*
X04795Y00688D01*
X04835*
X04815Y00648*
Y00656D02*
X04803Y0068D01*
X04827*
X04815Y00656*
X04785Y00628D02*
X04765Y00668D01*
X04805*
X04785Y00628*
Y00636D02*
X04773Y0066D01*
X04797*
X04785Y00636*
X04844Y00667D02*
X04824Y00707D01*
X04864*
X04844Y00667*
Y00675D02*
X04832Y00699D01*
X04856*
X04844Y00675*
Y00628D02*
X04824Y00668D01*
X04864*
X04844Y00628*
Y00636D02*
X04832Y0066D01*
X04856*
X04844Y00636*
X00272Y02232D02*
X00282Y02242D01*
X00292*
X00282Y02252*
X00292Y02262*
X00282*
X00272Y02272*
X00262Y02262*
X00252*
X00262Y02252*
X00252Y02242*
X00262*
X00272Y02232*
Y0224D02*
X00278Y02246D01*
X00284*
X00278Y02252*
X00284Y02258*
X00278*
X00272Y02264*
X00266Y02258*
X0026*
X00266Y02252*
X0026Y02246*
X00266*
X00272Y0224*
Y01232D02*
X00282Y01242D01*
X00292*
X00282Y01252*
X00292Y01262*
X00282*
X00272Y01272*
X00262Y01262*
X00252*
X00262Y01252*
X00252Y01242*
X00262*
X00272Y01232*
Y0124D02*
X00278Y01246D01*
X00284*
X00278Y01252*
X00284Y01258*
X00278*
X00272Y01264*
X00266Y01258*
X0026*
X00266Y01252*
X0026Y01246*
X00266*
X00272Y0124*
X04292Y00211D02*
X04302Y00231D01*
X04292Y00251*
X04312Y00241*
X04332Y00251*
X04322Y00231*
X04332Y00211*
X04312Y00221*
X04292Y00211*
X043Y00219D02*
X04306Y00231D01*
X043Y00243*
X04312Y00237*
X04324Y00243*
X04318Y00231*
X04324Y00219*
X04312Y00225*
X043Y00219*
X04292Y02361D02*
X04302Y02381D01*
X04292Y02401*
X04312Y02391*
X04332Y02401*
X04322Y02381*
X04332Y02361*
X04312Y02371*
X04292Y02361*
X043Y02369D02*
X04306Y02381D01*
X043Y02393*
X04312Y02387*
X04324Y02393*
X04318Y02381*
X04324Y02369*
X04312Y02375*
X043Y02369*
X01567Y02361D02*
X01577Y02381D01*
X01567Y02401*
X01587Y02391*
X01607Y02401*
X01597Y02381*
X01607Y02361*
X01587Y02371*
X01567Y02361*
X01575Y02369D02*
X01581Y02381D01*
X01575Y02393*
X01587Y02387*
X01599Y02393*
X01593Y02381*
X01599Y02369*
X01587Y02375*
X01575Y02369*
X01567Y00211D02*
X01577Y00231D01*
X01567Y00251*
X01587Y00241*
X01607Y00251*
X01597Y00231*
X01607Y00211*
X01587Y00221*
X01567Y00211*
X01575Y00219D02*
X01581Y00231D01*
X01575Y00243*
X01587Y00237*
X01599Y00243*
X01593Y00231*
X01599Y00219*
X01587Y00225*
X01575Y00219*
X0151Y0199D02*
Y0198D01*
X0153*
Y0199*
X0154*
Y0201*
X0153*
Y0202*
X0151*
Y0201*
X015*
Y0199*
X0151*
X01514Y01994D02*
Y01988D01*
X01526*
Y01994*
X01532*
Y02006*
X01526*
Y02012*
X01514*
Y02006*
X01508*
Y01994*
X01514*
X03177Y01757D02*
Y01747D01*
X03197*
Y01757*
X03207*
Y01777*
X03197*
Y01787*
X03177*
Y01777*
X03167*
Y01757*
X03177*
X03181Y01761D02*
Y01755D01*
X03193*
Y01761*
X03199*
Y01773*
X03193*
Y01779*
X03181*
Y01773*
X03175*
Y01761*
X03181*
X03509Y01907D02*
Y01897D01*
X03529*
Y01907*
X03539*
Y01927*
X03529*
Y01937*
X03509*
Y01927*
X03499*
Y01907*
X03509*
X03513Y01911D02*
Y01905D01*
X03525*
Y01911*
X03531*
Y01923*
X03525*
Y01929*
X03513*
Y01923*
X03507*
Y01911*
X03513*
X04239Y01971D02*
Y01961D01*
X04259*
Y01971*
X04269*
Y01991*
X04259*
Y02001*
X04239*
Y01991*
X04229*
Y01971*
X04239*
X04243Y01975D02*
Y01969D01*
X04255*
Y01975*
X04261*
Y01987*
X04255*
Y01993*
X04243*
Y01987*
X04237*
Y01975*
X04243*
X01325Y0199D02*
Y0198D01*
X01345*
Y0199*
X01355*
Y0201*
X01345*
Y0202*
X01325*
Y0201*
X01315*
Y0199*
X01325*
X01329Y01994D02*
Y01988D01*
X01341*
Y01994*
X01347*
Y02006*
X01341*
Y02012*
X01329*
Y02006*
X01323*
Y01994*
X01329*
X01178Y0184D02*
Y0183D01*
X01198*
Y0184*
X01208*
Y0186*
X01198*
Y0187*
X01178*
Y0186*
X01168*
Y0184*
X01178*
X01182Y01844D02*
Y01838D01*
X01194*
Y01844*
X012*
Y01856*
X01194*
Y01862*
X01182*
Y01856*
X01176*
Y01844*
X01182*
X04907Y00525D02*
X04917D01*
X04927Y00535*
X04937Y00525*
X04947*
Y00535*
X04937Y00545*
X04947Y00555*
Y00565*
X04937*
X04927Y00555*
X04917Y00565*
X04907*
Y00555*
X04917Y00545*
X04907Y00535*
Y00525*
X04915Y00533D02*
X04921D01*
X04927Y00539*
X04933Y00533*
X04939*
Y00539*
X04933Y00545*
X04939Y00551*
Y00557*
X04933*
X04927Y00551*
X04921Y00557*
X04915*
Y00551*
X04921Y00545*
X04915Y00539*
Y00533*
X04803Y00525D02*
X04813D01*
X04823Y00535*
X04833Y00525*
X04843*
Y00535*
X04833Y00545*
X04843Y00555*
Y00565*
X04833*
X04823Y00555*
X04813Y00565*
X04803*
Y00555*
X04813Y00545*
X04803Y00535*
Y00525*
X04811Y00533D02*
X04817D01*
X04823Y00539*
X04829Y00533*
X04835*
Y00539*
X04829Y00545*
X04835Y00551*
Y00557*
X04829*
X04823Y00551*
X04817Y00557*
X04811*
Y00551*
X04817Y00545*
X04811Y00539*
Y00533*
X04744Y02158D02*
Y02148D01*
X04764*
Y02158*
X04774*
Y02178*
X04764*
Y02188*
X04744*
Y02178*
X04734*
Y02158*
X04744*
X04748Y02162D02*
Y02156D01*
X0476*
Y02162*
X04766*
Y02174*
X0476*
Y0218*
X04748*
Y02174*
X04742*
Y02162*
X04748*
X02942Y01625D02*
Y01615D01*
X02962*
Y01625*
X02972*
Y01645*
X02962*
Y01655*
X02942*
Y01645*
X02932*
Y01625*
X02942*
X02946Y01629D02*
Y01623D01*
X02958*
Y01629*
X02964*
Y01641*
X02958*
Y01647*
X02946*
Y01641*
X0294*
Y01629*
X02946*
X03509Y01807D02*
Y01797D01*
X03529*
Y01807*
X03539*
Y01827*
X03529*
Y01837*
X03509*
Y01827*
X03499*
Y01807*
X03509*
X03513Y01811D02*
Y01805D01*
X03525*
Y01811*
X03531*
Y01823*
X03525*
Y01829*
X03513*
Y01823*
X03507*
Y01811*
X03513*
X03558Y02107D02*
Y02097D01*
X03578*
Y02107*
X03588*
Y02127*
X03578*
Y02137*
X03558*
Y02127*
X03548*
Y02107*
X03558*
X03562Y02111D02*
Y02105D01*
X03574*
Y02111*
X0358*
Y02123*
X03574*
Y02129*
X03562*
Y02123*
X03556*
Y02111*
X03562*
X01325Y0179D02*
Y0178D01*
X01345*
Y0179*
X01355*
Y0181*
X01345*
Y0182*
X01325*
Y0181*
X01315*
Y0179*
X01325*
X01329Y01794D02*
Y01788D01*
X01341*
Y01794*
X01347*
Y01806*
X01341*
Y01812*
X01329*
Y01806*
X01323*
Y01794*
X01329*
X04682Y02158D02*
Y02148D01*
X04702*
Y02158*
X04712*
Y02178*
X04702*
Y02188*
X04682*
Y02178*
X04672*
Y02158*
X04682*
X04686Y02162D02*
Y02156D01*
X04698*
Y02162*
X04704*
Y02174*
X04698*
Y0218*
X04686*
Y02174*
X0468*
Y02162*
X04686*
X03177Y01957D02*
Y01947D01*
X03197*
Y01957*
X03207*
Y01977*
X03197*
Y01987*
X03177*
Y01977*
X03167*
Y01957*
X03177*
X03181Y01961D02*
Y01955D01*
X03193*
Y01961*
X03199*
Y01973*
X03193*
Y01979*
X03181*
Y01973*
X03175*
Y01961*
X03181*
X03058Y02103D02*
Y02093D01*
X03078*
Y02103*
X03088*
Y02123*
X03078*
Y02133*
X03058*
Y02123*
X03048*
Y02103*
X03058*
X03062Y02107D02*
Y02101D01*
X03074*
Y02107*
X0308*
Y02119*
X03074*
Y02125*
X03062*
Y02119*
X03056*
Y02107*
X03062*
X03335Y0181D02*
Y018D01*
X03355*
Y0181*
X03365*
Y0183*
X03355*
Y0184*
X03335*
Y0183*
X03325*
Y0181*
X03335*
X03339Y01814D02*
Y01808D01*
X03351*
Y01814*
X03357*
Y01826*
X03351*
Y01832*
X03339*
Y01826*
X03333*
Y01814*
X03339*
X01178Y0204D02*
Y0203D01*
X01198*
Y0204*
X01208*
Y0206*
X01198*
Y0207*
X01178*
Y0206*
X01168*
Y0204*
X01178*
X01182Y02044D02*
Y02038D01*
X01194*
Y02044*
X012*
Y02056*
X01194*
Y02062*
X01182*
Y02056*
X01176*
Y02044*
X01182*
X02837Y01783D02*
Y01773D01*
X02857*
Y01783*
X02867*
Y01803*
X02857*
Y01813*
X02837*
Y01803*
X02827*
Y01783*
X02837*
X02841Y01787D02*
Y01781D01*
X02853*
Y01787*
X02859*
Y01799*
X02853*
Y01805*
X02841*
Y01799*
X02835*
Y01787*
X02841*
X02099Y01929D02*
Y01919D01*
X02119*
Y01929*
X02129*
Y01949*
X02119*
Y01959*
X02099*
Y01949*
X02089*
Y01929*
X02099*
X02103Y01933D02*
Y01927D01*
X02115*
Y01933*
X02121*
Y01945*
X02115*
Y01951*
X02103*
Y01945*
X02097*
Y01933*
X02103*
X01531Y01884D02*
Y01874D01*
X01551*
Y01884*
X01561*
Y01904*
X01551*
Y01914*
X01531*
Y01904*
X01521*
Y01884*
X01531*
X01535Y01888D02*
Y01882D01*
X01547*
Y01888*
X01553*
Y019*
X01547*
Y01906*
X01535*
Y019*
X01529*
Y01888*
X01535*
X02585Y01683D02*
Y01673D01*
X02605*
Y01683*
X02615*
Y01703*
X02605*
Y01713*
X02585*
Y01703*
X02575*
Y01683*
X02585*
X02589Y01687D02*
Y01681D01*
X02601*
Y01687*
X02607*
Y01699*
X02601*
Y01705*
X02589*
Y01699*
X02583*
Y01687*
X02589*
X0256Y01984D02*
Y01974D01*
X0258*
Y01984*
X0259*
Y02004*
X0258*
Y02014*
X0256*
Y02004*
X0255*
Y01984*
X0256*
X02564Y01988D02*
Y01982D01*
X02576*
Y01988*
X02582*
Y02*
X02576*
Y02006*
X02564*
Y02*
X02558*
Y01988*
X02564*
X03661Y01837D02*
Y01827D01*
X03681*
Y01837*
X03691*
Y01857*
X03681*
Y01867*
X03661*
Y01857*
X03651*
Y01837*
X03661*
X03665Y01841D02*
Y01835D01*
X03677*
Y01841*
X03683*
Y01853*
X03677*
Y01859*
X03665*
Y01853*
X03659*
Y01841*
X03665*
X03945Y01395D02*
Y01428D01*
X03962Y01445*
X03978Y01428*
Y01395*
Y0142*
X03945*
X05082Y02027D02*
Y02017D01*
X05102*
Y02027*
X05112*
Y02047*
X05102*
Y02057*
X05082*
Y02047*
X05072*
Y02027*
X05082*
X05086Y02031D02*
Y02025D01*
X05098*
Y02031*
X05104*
Y02043*
X05098*
Y02049*
X05086*
Y02043*
X0508*
Y02031*
X05086*
X04954Y02027D02*
Y02017D01*
X04974*
Y02027*
X04984*
Y02047*
X04974*
Y02057*
X04954*
Y02047*
X04944*
Y02027*
X04954*
X04958Y02031D02*
Y02025D01*
X0497*
Y02031*
X04976*
Y02043*
X0497*
Y02049*
X04958*
Y02043*
X04952*
Y02031*
X04958*
X04954Y02117D02*
Y02107D01*
X04974*
Y02117*
X04984*
Y02137*
X04974*
Y02147*
X04954*
Y02137*
X04944*
Y02117*
X04954*
X04958Y02121D02*
Y02115D01*
X0497*
Y02121*
X04976*
Y02133*
X0497*
Y02139*
X04958*
Y02133*
X04952*
Y02121*
X04958*
X05082Y02115D02*
Y02105D01*
X05102*
Y02115*
X05112*
Y02135*
X05102*
Y02145*
X05082*
Y02135*
X05072*
Y02115*
X05082*
X05086Y02119D02*
Y02113D01*
X05098*
Y02119*
X05104*
Y02131*
X05098*
Y02137*
X05086*
Y02131*
X0508*
Y02119*
X05086*
X05018Y02074D02*
Y02064D01*
X05038*
Y02074*
X05048*
Y02094*
X05038*
Y02104*
X05018*
Y02094*
X05008*
Y02074*
X05018*
X05022Y02078D02*
Y02072D01*
X05034*
Y02078*
X0504*
Y0209*
X05034*
Y02096*
X05022*
Y0209*
X05016*
Y02078*
X05022*
X03859Y00624D02*
Y00614D01*
X03879*
Y00624*
X03889*
Y00644*
X03879*
Y00654*
X03859*
Y00644*
X03849*
Y00624*
X03859*
X03863Y00628D02*
Y00622D01*
X03875*
Y00628*
X03881*
Y0064*
X03875*
Y00646*
X03863*
Y0064*
X03857*
Y00628*
X03863*
X03885Y01122D02*
Y01112D01*
X03905*
Y01122*
X03915*
Y01142*
X03905*
Y01152*
X03885*
Y01142*
X03875*
Y01122*
X03885*
X03889Y01126D02*
Y0112D01*
X03901*
Y01126*
X03907*
Y01138*
X03901*
Y01144*
X03889*
Y01138*
X03883*
Y01126*
X03889*
X0253Y01607D02*
Y01597D01*
X0255*
Y01607*
X0256*
Y01627*
X0255*
Y01637*
X0253*
Y01627*
X0252*
Y01607*
X0253*
X02534Y01611D02*
Y01605D01*
X02546*
Y01611*
X02552*
Y01623*
X02546*
Y01629*
X02534*
Y01623*
X02528*
Y01611*
X02534*
X02346Y01829D02*
Y01819D01*
X02366*
Y01829*
X02376*
Y01849*
X02366*
Y01859*
X02346*
Y01849*
X02336*
Y01829*
X02346*
X0235Y01833D02*
Y01827D01*
X02362*
Y01833*
X02368*
Y01845*
X02362*
Y01851*
X0235*
Y01845*
X02344*
Y01833*
X0235*
X02531Y01829D02*
Y01819D01*
X02551*
Y01829*
X02561*
Y01849*
X02551*
Y01859*
X02531*
Y01849*
X02521*
Y01829*
X02531*
X02535Y01833D02*
Y01827D01*
X02547*
Y01833*
X02553*
Y01845*
X02547*
Y01851*
X02535*
Y01845*
X02529*
Y01833*
X02535*
X02171Y02161D02*
Y02151D01*
X02191*
Y02161*
X02201*
Y02181*
X02191*
Y02191*
X02171*
Y02181*
X02161*
Y02161*
X02171*
X02175Y02165D02*
Y02159D01*
X02187*
Y02165*
X02193*
Y02177*
X02187*
Y02183*
X02175*
Y02177*
X02169*
Y02165*
X02175*
X0181Y01951D02*
Y01941D01*
X0183*
Y01951*
X0184*
Y01971*
X0183*
Y01981*
X0181*
Y01971*
X018*
Y01951*
X0181*
X01814Y01955D02*
Y01949D01*
X01826*
Y01955*
X01832*
Y01967*
X01826*
Y01973*
X01814*
Y01967*
X01808*
Y01955*
X01814*
X01325Y0189D02*
Y0188D01*
X01345*
Y0189*
X01355*
Y0191*
X01345*
Y0192*
X01325*
Y0191*
X01315*
Y0189*
X01325*
X01329Y01894D02*
Y01888D01*
X01341*
Y01894*
X01347*
Y01906*
X01341*
Y01912*
X01329*
Y01906*
X01323*
Y01894*
X01329*
X0151Y0209D02*
Y0208D01*
X0153*
Y0209*
X0154*
Y0211*
X0153*
Y0212*
X0151*
Y0211*
X015*
Y0209*
X0151*
X01514Y02094D02*
Y02088D01*
X01526*
Y02094*
X01532*
Y02106*
X01526*
Y02112*
X01514*
Y02106*
X01508*
Y02094*
X01514*
X02199Y01979D02*
Y01969D01*
X02219*
Y01979*
X02229*
Y01999*
X02219*
Y02009*
X02199*
Y01999*
X02189*
Y01979*
X02199*
X02203Y01983D02*
Y01977D01*
X02215*
Y01983*
X02221*
Y01995*
X02215*
Y02001*
X02203*
Y01995*
X02197*
Y01983*
X02203*
X02543Y02163D02*
Y02153D01*
X02563*
Y02163*
X02573*
Y02183*
X02563*
Y02193*
X02543*
Y02183*
X02533*
Y02163*
X02543*
X02547Y02167D02*
Y02161D01*
X02559*
Y02167*
X02565*
Y02179*
X02559*
Y02185*
X02547*
Y02179*
X02541*
Y02167*
X02547*
X03525Y02007D02*
Y01997D01*
X03545*
Y02007*
X03555*
Y02027*
X03545*
Y02037*
X03525*
Y02027*
X03515*
Y02007*
X03525*
X03529Y02011D02*
Y02005D01*
X03541*
Y02011*
X03547*
Y02023*
X03541*
Y02029*
X03529*
Y02023*
X03523*
Y02011*
X03529*
X04119Y01464D02*
Y01454D01*
X04139*
Y01464*
X04149*
Y01484*
X04139*
Y01494*
X04119*
Y01484*
X04109*
Y01464*
X04119*
X04123Y01468D02*
Y01462D01*
X04135*
Y01468*
X04141*
Y0148*
X04135*
Y01486*
X04123*
Y0148*
X04117*
Y01468*
X04123*
G54D114*
X06693Y01975D02*
D01*
X06693Y01976*
X06693Y01977*
X06693Y01979*
X06692Y0198*
X06692Y01981*
X06691Y01983*
X06691Y01984*
X0669Y01985*
X06689Y01986*
X06688Y01987*
X06687Y01988*
X06686Y01989*
X06685Y0199*
X06684Y01991*
X06683Y01992*
X06682Y01992*
X0668Y01993*
X06679Y01994*
X06678Y01994*
X06676Y01994*
X06675Y01994*
X06674Y01994*
X06672*
X06671Y01994*
X0667Y01994*
X06668Y01994*
X06667Y01994*
X06666Y01993*
X06664Y01992*
X06663Y01992*
X06662Y01991*
X06661Y0199*
X0666Y01989*
X06659Y01988*
X06658Y01987*
X06657Y01986*
X06656Y01985*
X06655Y01984*
X06655Y01983*
X06654Y01981*
X06654Y0198*
X06653Y01979*
X06653Y01977*
X06653Y01976*
X06653Y01975*
X06653Y01973*
X06653Y01972*
X06653Y0197*
X06654Y01969*
X06654Y01968*
X06655Y01966*
X06655Y01965*
X06656Y01964*
X06657Y01963*
X06658Y01962*
X06659Y01961*
X0666Y0196*
X06661Y01959*
X06662Y01958*
X06663Y01957*
X06664Y01957*
X06666Y01956*
X06667Y01955*
X06668Y01955*
X0667Y01955*
X06671Y01955*
X06672Y01955*
X06674*
X06675Y01955*
X06676Y01955*
X06678Y01955*
X06679Y01955*
X0668Y01956*
X06682Y01957*
X06683Y01957*
X06684Y01958*
X06685Y01959*
X06686Y0196*
X06687Y01961*
X06688Y01962*
X06689Y01963*
X0669Y01964*
X06691Y01965*
X06691Y01966*
X06692Y01968*
X06692Y01969*
X06693Y0197*
X06693Y01972*
X06693Y01973*
X06693Y01975*
Y02075D02*
D01*
X06693Y02077*
X06693Y02078*
X06693Y02079*
X06692Y02081*
X06692Y02082*
X06691Y02083*
X06691Y02085*
X0669Y02086*
X06689Y02087*
X06688Y02088*
X06687Y02089*
X06686Y0209*
X06685Y02091*
X06684Y02092*
X06683Y02093*
X06682Y02093*
X0668Y02094*
X06679Y02094*
X06678Y02095*
X06676Y02095*
X06675Y02095*
X06674Y02095*
X06672*
X06671Y02095*
X0667Y02095*
X06668Y02095*
X06667Y02094*
X06666Y02094*
X06664Y02093*
X06663Y02093*
X06662Y02092*
X06661Y02091*
X0666Y0209*
X06659Y02089*
X06658Y02088*
X06657Y02087*
X06656Y02086*
X06655Y02085*
X06655Y02083*
X06654Y02082*
X06654Y02081*
X06653Y02079*
X06653Y02078*
X06653Y02077*
X06653Y02075*
X06653Y02074*
X06653Y02072*
X06653Y02071*
X06654Y0207*
X06654Y02068*
X06655Y02067*
X06655Y02066*
X06656Y02065*
X06657Y02064*
X06658Y02062*
X06659Y02061*
X0666Y0206*
X06661Y02059*
X06662Y02059*
X06663Y02058*
X06664Y02057*
X06666Y02057*
X06667Y02056*
X06668Y02056*
X0667Y02056*
X06671Y02055*
X06672Y02055*
X06674*
X06675Y02055*
X06676Y02056*
X06678Y02056*
X06679Y02056*
X0668Y02057*
X06682Y02057*
X06683Y02058*
X06684Y02059*
X06685Y02059*
X06686Y0206*
X06687Y02061*
X06688Y02062*
X06689Y02064*
X0669Y02065*
X06691Y02066*
X06691Y02067*
X06692Y02068*
X06692Y0207*
X06693Y02071*
X06693Y02072*
X06693Y02074*
X06693Y02075*
Y02176D02*
D01*
X06693Y02177*
X06693Y02179*
X06693Y0218*
X06692Y02182*
X06692Y02183*
X06691Y02184*
X06691Y02185*
X0669Y02187*
X06689Y02188*
X06688Y02189*
X06687Y0219*
X06686Y02191*
X06685Y02192*
X06684Y02193*
X06683Y02193*
X06682Y02194*
X0668Y02195*
X06679Y02195*
X06678Y02195*
X06676Y02196*
X06675Y02196*
X06674Y02196*
X06672*
X06671Y02196*
X0667Y02196*
X06668Y02195*
X06667Y02195*
X06666Y02195*
X06664Y02194*
X06663Y02193*
X06662Y02193*
X06661Y02192*
X0666Y02191*
X06659Y0219*
X06658Y02189*
X06657Y02188*
X06656Y02187*
X06655Y02185*
X06655Y02184*
X06654Y02183*
X06654Y02182*
X06653Y0218*
X06653Y02179*
X06653Y02177*
X06653Y02176*
X06653Y02175*
X06653Y02173*
X06653Y02172*
X06654Y02171*
X06654Y02169*
X06655Y02168*
X06655Y02167*
X06656Y02165*
X06657Y02164*
X06658Y02163*
X06659Y02162*
X0666Y02161*
X06661Y0216*
X06662Y02159*
X06663Y02159*
X06664Y02158*
X06666Y02157*
X06667Y02157*
X06668Y02157*
X0667Y02156*
X06671Y02156*
X06672Y02156*
X06674*
X06675Y02156*
X06676Y02156*
X06678Y02157*
X06679Y02157*
X0668Y02157*
X06682Y02158*
X06683Y02159*
X06684Y02159*
X06685Y0216*
X06686Y02161*
X06687Y02162*
X06688Y02163*
X06689Y02164*
X0669Y02165*
X06691Y02167*
X06691Y02168*
X06692Y02169*
X06692Y02171*
X06693Y02172*
X06693Y02173*
X06693Y02175*
X06693Y02176*
Y02277D02*
D01*
X06693Y02278*
X06693Y0228*
X06693Y02281*
X06692Y02282*
X06692Y02284*
X06691Y02285*
X06691Y02286*
X0669Y02287*
X06689Y02289*
X06688Y0229*
X06687Y02291*
X06686Y02292*
X06685Y02293*
X06684Y02293*
X06683Y02294*
X06682Y02295*
X0668Y02295*
X06679Y02296*
X06678Y02296*
X06676Y02296*
X06675Y02297*
X06674Y02297*
X06672*
X06671Y02297*
X0667Y02296*
X06668Y02296*
X06667Y02296*
X06666Y02295*
X06664Y02295*
X06663Y02294*
X06662Y02293*
X06661Y02293*
X0666Y02292*
X06659Y02291*
X06658Y0229*
X06657Y02289*
X06656Y02287*
X06655Y02286*
X06655Y02285*
X06654Y02284*
X06654Y02282*
X06653Y02281*
X06653Y0228*
X06653Y02278*
X06653Y02277*
X06653Y02275*
X06653Y02274*
X06653Y02273*
X06654Y02271*
X06654Y0227*
X06655Y02269*
X06655Y02267*
X06656Y02266*
X06657Y02265*
X06658Y02264*
X06659Y02263*
X0666Y02262*
X06661Y02261*
X06662Y0226*
X06663Y02259*
X06664Y02259*
X06666Y02258*
X06667Y02258*
X06668Y02257*
X0667Y02257*
X06671Y02257*
X06672Y02257*
X06674*
X06675Y02257*
X06676Y02257*
X06678Y02257*
X06679Y02258*
X0668Y02258*
X06682Y02259*
X06683Y02259*
X06684Y0226*
X06685Y02261*
X06686Y02262*
X06687Y02263*
X06688Y02264*
X06689Y02265*
X0669Y02266*
X06691Y02267*
X06691Y02269*
X06692Y0227*
X06692Y02271*
X06693Y02273*
X06693Y02274*
X06693Y02275*
X06693Y02277*
X06022Y02276D02*
D01*
X06022Y02277*
X06022Y02279*
X06022Y0228*
X06021Y02281*
X06021Y02283*
X0602Y02284*
X0602Y02285*
X06019Y02286*
X06018Y02288*
X06017Y02289*
X06016Y0229*
X06015Y02291*
X06014Y02292*
X06013Y02292*
X06012Y02293*
X06011Y02294*
X06009Y02294*
X06008Y02295*
X06007Y02295*
X06005Y02295*
X06004Y02296*
X06003Y02296*
X06001*
X06Y02296*
X05999Y02295*
X05997Y02295*
X05996Y02295*
X05995Y02294*
X05993Y02294*
X05992Y02293*
X05991Y02292*
X0599Y02292*
X05989Y02291*
X05988Y0229*
X05987Y02289*
X05986Y02288*
X05985Y02286*
X05984Y02285*
X05984Y02284*
X05983Y02283*
X05983Y02281*
X05982Y0228*
X05982Y02279*
X05982Y02277*
X05982Y02276*
X05982Y02274*
X05982Y02273*
X05982Y02272*
X05983Y0227*
X05983Y02269*
X05984Y02268*
X05984Y02266*
X05985Y02265*
X05986Y02264*
X05987Y02263*
X05988Y02262*
X05989Y02261*
X0599Y0226*
X05991Y02259*
X05992Y02258*
X05993Y02258*
X05995Y02257*
X05996Y02257*
X05997Y02256*
X05999Y02256*
X06Y02256*
X06001Y02256*
X06003*
X06004Y02256*
X06005Y02256*
X06007Y02256*
X06008Y02257*
X06009Y02257*
X06011Y02258*
X06012Y02258*
X06013Y02259*
X06014Y0226*
X06015Y02261*
X06016Y02262*
X06017Y02263*
X06018Y02264*
X06019Y02265*
X0602Y02266*
X0602Y02268*
X06021Y02269*
X06021Y0227*
X06022Y02272*
X06022Y02273*
X06022Y02274*
X06022Y02276*
Y02175D02*
D01*
X06022Y02176*
X06022Y02178*
X06022Y02179*
X06021Y02181*
X06021Y02182*
X0602Y02183*
X0602Y02184*
X06019Y02186*
X06018Y02187*
X06017Y02188*
X06016Y02189*
X06015Y0219*
X06014Y02191*
X06013Y02192*
X06012Y02192*
X06011Y02193*
X06009Y02194*
X06008Y02194*
X06007Y02194*
X06005Y02195*
X06004Y02195*
X06003Y02195*
X06001*
X06Y02195*
X05999Y02195*
X05997Y02194*
X05996Y02194*
X05995Y02194*
X05993Y02193*
X05992Y02192*
X05991Y02192*
X0599Y02191*
X05989Y0219*
X05988Y02189*
X05987Y02188*
X05986Y02187*
X05985Y02186*
X05984Y02184*
X05984Y02183*
X05983Y02182*
X05983Y02181*
X05982Y02179*
X05982Y02178*
X05982Y02176*
X05982Y02175*
X05982Y02174*
X05982Y02172*
X05982Y02171*
X05983Y02169*
X05983Y02168*
X05984Y02167*
X05984Y02166*
X05985Y02164*
X05986Y02163*
X05987Y02162*
X05988Y02161*
X05989Y0216*
X0599Y02159*
X05991Y02158*
X05992Y02158*
X05993Y02157*
X05995Y02156*
X05996Y02156*
X05997Y02156*
X05999Y02155*
X06Y02155*
X06001Y02155*
X06003*
X06004Y02155*
X06005Y02155*
X06007Y02156*
X06008Y02156*
X06009Y02156*
X06011Y02157*
X06012Y02158*
X06013Y02158*
X06014Y02159*
X06015Y0216*
X06016Y02161*
X06017Y02162*
X06018Y02163*
X06019Y02164*
X0602Y02166*
X0602Y02167*
X06021Y02168*
X06021Y02169*
X06022Y02171*
X06022Y02172*
X06022Y02174*
X06022Y02175*
Y02074D02*
D01*
X06022Y02076*
X06022Y02077*
X06022Y02078*
X06021Y0208*
X06021Y02081*
X0602Y02082*
X0602Y02084*
X06019Y02085*
X06018Y02086*
X06017Y02087*
X06016Y02088*
X06015Y02089*
X06014Y0209*
X06013Y02091*
X06012Y02092*
X06011Y02092*
X06009Y02093*
X06008Y02093*
X06007Y02094*
X06005Y02094*
X06004Y02094*
X06003Y02094*
X06001*
X06Y02094*
X05999Y02094*
X05997Y02094*
X05996Y02093*
X05995Y02093*
X05993Y02092*
X05992Y02092*
X05991Y02091*
X0599Y0209*
X05989Y02089*
X05988Y02088*
X05987Y02087*
X05986Y02086*
X05985Y02085*
X05984Y02084*
X05984Y02082*
X05983Y02081*
X05983Y0208*
X05982Y02078*
X05982Y02077*
X05982Y02076*
X05982Y02074*
X05982Y02073*
X05982Y02071*
X05982Y0207*
X05983Y02069*
X05983Y02067*
X05984Y02066*
X05984Y02065*
X05985Y02064*
X05986Y02063*
X05987Y02061*
X05988Y0206*
X05989Y02059*
X0599Y02058*
X05991Y02058*
X05992Y02057*
X05993Y02056*
X05995Y02056*
X05996Y02055*
X05997Y02055*
X05999Y02055*
X06Y02054*
X06001Y02054*
X06003*
X06004Y02054*
X06005Y02055*
X06007Y02055*
X06008Y02055*
X06009Y02056*
X06011Y02056*
X06012Y02057*
X06013Y02058*
X06014Y02058*
X06015Y02059*
X06016Y0206*
X06017Y02061*
X06018Y02063*
X06019Y02064*
X0602Y02065*
X0602Y02066*
X06021Y02067*
X06021Y02069*
X06022Y0207*
X06022Y02071*
X06022Y02073*
X06022Y02074*
Y01974D02*
D01*
X06022Y01975*
X06022Y01976*
X06022Y01978*
X06021Y01979*
X06021Y0198*
X0602Y01982*
X0602Y01983*
X06019Y01984*
X06018Y01985*
X06017Y01986*
X06016Y01987*
X06015Y01988*
X06014Y01989*
X06013Y0199*
X06012Y01991*
X06011Y01991*
X06009Y01992*
X06008Y01993*
X06007Y01993*
X06005Y01993*
X06004Y01993*
X06003Y01993*
X06001*
X06Y01993*
X05999Y01993*
X05997Y01993*
X05996Y01993*
X05995Y01992*
X05993Y01991*
X05992Y01991*
X05991Y0199*
X0599Y01989*
X05989Y01988*
X05988Y01987*
X05987Y01986*
X05986Y01985*
X05985Y01984*
X05984Y01983*
X05984Y01982*
X05983Y0198*
X05983Y01979*
X05982Y01978*
X05982Y01976*
X05982Y01975*
X05982Y01974*
X05982Y01972*
X05982Y01971*
X05982Y01969*
X05983Y01968*
X05983Y01967*
X05984Y01965*
X05984Y01964*
X05985Y01963*
X05986Y01962*
X05987Y01961*
X05988Y0196*
X05989Y01959*
X0599Y01958*
X05991Y01957*
X05992Y01956*
X05993Y01956*
X05995Y01955*
X05996Y01954*
X05997Y01954*
X05999Y01954*
X06Y01954*
X06001Y01954*
X06003*
X06004Y01954*
X06005Y01954*
X06007Y01954*
X06008Y01954*
X06009Y01955*
X06011Y01956*
X06012Y01956*
X06013Y01957*
X06014Y01958*
X06015Y01959*
X06016Y0196*
X06017Y01961*
X06018Y01962*
X06019Y01963*
X0602Y01964*
X0602Y01965*
X06021Y01967*
X06021Y01968*
X06022Y01969*
X06022Y01971*
X06022Y01972*
X06022Y01974*
X02638Y00741D02*
D01*
X02638Y00742*
X02638Y00743*
X02637Y00745*
X02637Y00746*
X02637Y00747*
X02636Y00749*
X02635Y0075*
X02635Y00751*
X02634Y00752*
X02633Y00753*
X02632Y00754*
X02631Y00755*
X0263Y00756*
X02629Y00757*
X02628Y00758*
X02626Y00758*
X02625Y00759*
X02624Y0076*
X02623Y0076*
X02621Y0076*
X0262Y0076*
X02618Y0076*
X02617*
X02616Y0076*
X02614Y0076*
X02613Y0076*
X02612Y0076*
X0261Y00759*
X02609Y00758*
X02608Y00758*
X02607Y00757*
X02605Y00756*
X02604Y00755*
X02603Y00754*
X02602Y00753*
X02602Y00752*
X02601Y00751*
X026Y0075*
X02599Y00749*
X02599Y00747*
X02598Y00746*
X02598Y00745*
X02598Y00743*
X02598Y00742*
X02598Y00741*
X02598Y00739*
X02598Y00738*
X02598Y00736*
X02598Y00735*
X02599Y00734*
X02599Y00732*
X026Y00731*
X02601Y0073*
X02602Y00729*
X02602Y00728*
X02603Y00727*
X02604Y00726*
X02605Y00725*
X02607Y00724*
X02608Y00723*
X02609Y00723*
X0261Y00722*
X02612Y00721*
X02613Y00721*
X02614Y00721*
X02616Y00721*
X02617Y00721*
X02618*
X0262Y00721*
X02621Y00721*
X02623Y00721*
X02624Y00721*
X02625Y00722*
X02626Y00723*
X02628Y00723*
X02629Y00724*
X0263Y00725*
X02631Y00726*
X02632Y00727*
X02633Y00728*
X02634Y00729*
X02635Y0073*
X02635Y00731*
X02636Y00732*
X02637Y00734*
X02637Y00735*
X02637Y00736*
X02638Y00738*
X02638Y00739*
X02638Y00741*
Y00641D02*
D01*
X02638Y00642*
X02638Y00643*
X02637Y00645*
X02637Y00646*
X02637Y00647*
X02636Y00649*
X02635Y0065*
X02635Y00651*
X02634Y00652*
X02633Y00653*
X02632Y00654*
X02631Y00655*
X0263Y00656*
X02629Y00657*
X02628Y00658*
X02626Y00658*
X02625Y00659*
X02624Y0066*
X02623Y0066*
X02621Y0066*
X0262Y0066*
X02618Y0066*
X02617*
X02616Y0066*
X02614Y0066*
X02613Y0066*
X02612Y0066*
X0261Y00659*
X02609Y00658*
X02608Y00658*
X02607Y00657*
X02605Y00656*
X02604Y00655*
X02603Y00654*
X02602Y00653*
X02602Y00652*
X02601Y00651*
X026Y0065*
X02599Y00649*
X02599Y00647*
X02598Y00646*
X02598Y00645*
X02598Y00643*
X02598Y00642*
X02598Y00641*
X02598Y00639*
X02598Y00638*
X02598Y00636*
X02598Y00635*
X02599Y00634*
X02599Y00632*
X026Y00631*
X02601Y0063*
X02602Y00629*
X02602Y00628*
X02603Y00627*
X02604Y00626*
X02605Y00625*
X02607Y00624*
X02608Y00623*
X02609Y00623*
X0261Y00622*
X02612Y00621*
X02613Y00621*
X02614Y00621*
X02616Y00621*
X02617Y00621*
X02618*
X0262Y00621*
X02621Y00621*
X02623Y00621*
X02624Y00621*
X02625Y00622*
X02626Y00623*
X02628Y00623*
X02629Y00624*
X0263Y00625*
X02631Y00626*
X02632Y00627*
X02633Y00628*
X02634Y00629*
X02635Y0063*
X02635Y00631*
X02636Y00632*
X02637Y00634*
X02637Y00635*
X02637Y00636*
X02638Y00638*
X02638Y00639*
X02638Y00641*
X02538Y00741D02*
D01*
X02538Y00742*
X02538Y00743*
X02537Y00745*
X02537Y00746*
X02536Y00747*
X02536Y00749*
X02535Y0075*
X02535Y00751*
X02534Y00752*
X02533Y00753*
X02532Y00754*
X02531Y00755*
X0253Y00756*
X02529Y00757*
X02528Y00758*
X02526Y00758*
X02525Y00759*
X02524Y0076*
X02523Y0076*
X02521Y0076*
X0252Y0076*
X02518Y0076*
X02517*
X02516Y0076*
X02514Y0076*
X02513Y0076*
X02512Y0076*
X0251Y00759*
X02509Y00758*
X02508Y00758*
X02507Y00757*
X02505Y00756*
X02504Y00755*
X02503Y00754*
X02502Y00753*
X02502Y00752*
X02501Y00751*
X025Y0075*
X02499Y00749*
X02499Y00747*
X02498Y00746*
X02498Y00745*
X02498Y00743*
X02498Y00742*
X02498Y00741*
X02498Y00739*
X02498Y00738*
X02498Y00736*
X02498Y00735*
X02499Y00734*
X02499Y00732*
X025Y00731*
X02501Y0073*
X02502Y00729*
X02502Y00728*
X02503Y00727*
X02504Y00726*
X02505Y00725*
X02507Y00724*
X02508Y00723*
X02509Y00723*
X0251Y00722*
X02512Y00721*
X02513Y00721*
X02514Y00721*
X02516Y00721*
X02517Y00721*
X02518*
X0252Y00721*
X02521Y00721*
X02523Y00721*
X02524Y00721*
X02525Y00722*
X02526Y00723*
X02528Y00723*
X02529Y00724*
X0253Y00725*
X02531Y00726*
X02532Y00727*
X02533Y00728*
X02534Y00729*
X02535Y0073*
X02535Y00731*
X02536Y00732*
X02536Y00734*
X02537Y00735*
X02537Y00736*
X02538Y00738*
X02538Y00739*
X02538Y00741*
Y00641D02*
D01*
X02538Y00642*
X02538Y00643*
X02537Y00645*
X02537Y00646*
X02536Y00647*
X02536Y00649*
X02535Y0065*
X02535Y00651*
X02534Y00652*
X02533Y00653*
X02532Y00654*
X02531Y00655*
X0253Y00656*
X02529Y00657*
X02528Y00658*
X02526Y00658*
X02525Y00659*
X02524Y0066*
X02523Y0066*
X02521Y0066*
X0252Y0066*
X02518Y0066*
X02517*
X02516Y0066*
X02514Y0066*
X02513Y0066*
X02512Y0066*
X0251Y00659*
X02509Y00658*
X02508Y00658*
X02507Y00657*
X02505Y00656*
X02504Y00655*
X02503Y00654*
X02502Y00653*
X02502Y00652*
X02501Y00651*
X025Y0065*
X02499Y00649*
X02499Y00647*
X02498Y00646*
X02498Y00645*
X02498Y00643*
X02498Y00642*
X02498Y00641*
X02498Y00639*
X02498Y00638*
X02498Y00636*
X02498Y00635*
X02499Y00634*
X02499Y00632*
X025Y00631*
X02501Y0063*
X02502Y00629*
X02502Y00628*
X02503Y00627*
X02504Y00626*
X02505Y00625*
X02507Y00624*
X02508Y00623*
X02509Y00623*
X0251Y00622*
X02512Y00621*
X02513Y00621*
X02514Y00621*
X02516Y00621*
X02517Y00621*
X02518*
X0252Y00621*
X02521Y00621*
X02523Y00621*
X02524Y00621*
X02525Y00622*
X02526Y00623*
X02528Y00623*
X02529Y00624*
X0253Y00625*
X02531Y00626*
X02532Y00627*
X02533Y00628*
X02534Y00629*
X02535Y0063*
X02535Y00631*
X02536Y00632*
X02536Y00634*
X02537Y00635*
X02537Y00636*
X02538Y00638*
X02538Y00639*
X02538Y00641*
X02438Y00741D02*
D01*
X02438Y00742*
X02438Y00743*
X02437Y00745*
X02437Y00746*
X02437Y00747*
X02436Y00749*
X02435Y0075*
X02435Y00751*
X02434Y00752*
X02433Y00753*
X02432Y00754*
X02431Y00755*
X0243Y00756*
X02429Y00757*
X02428Y00758*
X02426Y00758*
X02425Y00759*
X02424Y0076*
X02423Y0076*
X02421Y0076*
X0242Y0076*
X02418Y0076*
X02417*
X02416Y0076*
X02414Y0076*
X02413Y0076*
X02412Y0076*
X0241Y00759*
X02409Y00758*
X02408Y00758*
X02407Y00757*
X02405Y00756*
X02404Y00755*
X02403Y00754*
X02402Y00753*
X02402Y00752*
X02401Y00751*
X024Y0075*
X02399Y00749*
X02399Y00747*
X02398Y00746*
X02398Y00745*
X02398Y00743*
X02398Y00742*
X02398Y00741*
X02398Y00739*
X02398Y00738*
X02398Y00736*
X02398Y00735*
X02399Y00734*
X02399Y00732*
X024Y00731*
X02401Y0073*
X02402Y00729*
X02402Y00728*
X02403Y00727*
X02404Y00726*
X02405Y00725*
X02407Y00724*
X02408Y00723*
X02409Y00723*
X0241Y00722*
X02412Y00721*
X02413Y00721*
X02414Y00721*
X02416Y00721*
X02417Y00721*
X02418*
X0242Y00721*
X02421Y00721*
X02423Y00721*
X02424Y00721*
X02425Y00722*
X02426Y00723*
X02428Y00723*
X02429Y00724*
X0243Y00725*
X02431Y00726*
X02432Y00727*
X02433Y00728*
X02434Y00729*
X02435Y0073*
X02435Y00731*
X02436Y00732*
X02437Y00734*
X02437Y00735*
X02437Y00736*
X02438Y00738*
X02438Y00739*
X02438Y00741*
Y00641D02*
D01*
X02438Y00642*
X02438Y00643*
X02437Y00645*
X02437Y00646*
X02437Y00647*
X02436Y00649*
X02435Y0065*
X02435Y00651*
X02434Y00652*
X02433Y00653*
X02432Y00654*
X02431Y00655*
X0243Y00656*
X02429Y00657*
X02428Y00658*
X02426Y00658*
X02425Y00659*
X02424Y0066*
X02423Y0066*
X02421Y0066*
X0242Y0066*
X02418Y0066*
X02417*
X02416Y0066*
X02414Y0066*
X02413Y0066*
X02412Y0066*
X0241Y00659*
X02409Y00658*
X02408Y00658*
X02407Y00657*
X02405Y00656*
X02404Y00655*
X02403Y00654*
X02402Y00653*
X02402Y00652*
X02401Y00651*
X024Y0065*
X02399Y00649*
X02399Y00647*
X02398Y00646*
X02398Y00645*
X02398Y00643*
X02398Y00642*
X02398Y00641*
X02398Y00639*
X02398Y00638*
X02398Y00636*
X02398Y00635*
X02399Y00634*
X02399Y00632*
X024Y00631*
X02401Y0063*
X02402Y00629*
X02402Y00628*
X02403Y00627*
X02404Y00626*
X02405Y00625*
X02407Y00624*
X02408Y00623*
X02409Y00623*
X0241Y00622*
X02412Y00621*
X02413Y00621*
X02414Y00621*
X02416Y00621*
X02417Y00621*
X02418*
X0242Y00621*
X02421Y00621*
X02423Y00621*
X02424Y00621*
X02425Y00622*
X02426Y00623*
X02428Y00623*
X02429Y00624*
X0243Y00625*
X02431Y00626*
X02432Y00627*
X02433Y00628*
X02434Y00629*
X02435Y0063*
X02435Y00631*
X02436Y00632*
X02437Y00634*
X02437Y00635*
X02437Y00636*
X02438Y00638*
X02438Y00639*
X02438Y00641*
X06512Y00078D02*
D01*
X06512Y00079*
X06512Y00081*
X06512Y00082*
X06511Y00084*
X06511Y00085*
X0651Y00086*
X0651Y00087*
X06509Y00089*
X06508Y0009*
X06507Y00091*
X06506Y00092*
X06505Y00093*
X06504Y00094*
X06503Y00095*
X06502Y00095*
X06501Y00096*
X06499Y00097*
X06498Y00097*
X06497Y00097*
X06495Y00098*
X06494Y00098*
X06493Y00098*
X06491*
X0649Y00098*
X06489Y00098*
X06487Y00097*
X06486Y00097*
X06485Y00097*
X06483Y00096*
X06482Y00095*
X06481Y00095*
X0648Y00094*
X06479Y00093*
X06478Y00092*
X06477Y00091*
X06476Y0009*
X06475Y00089*
X06474Y00087*
X06474Y00086*
X06473Y00085*
X06473Y00084*
X06472Y00082*
X06472Y00081*
X06472Y00079*
X06472Y00078*
X06472Y00077*
X06472Y00075*
X06472Y00074*
X06473Y00072*
X06473Y00071*
X06474Y0007*
X06474Y00069*
X06475Y00067*
X06476Y00066*
X06477Y00065*
X06478Y00064*
X06479Y00063*
X0648Y00062*
X06481Y00061*
X06482Y00061*
X06483Y0006*
X06485Y00059*
X06486Y00059*
X06487Y00059*
X06489Y00058*
X0649Y00058*
X06491Y00058*
X06493*
X06494Y00058*
X06495Y00058*
X06497Y00059*
X06498Y00059*
X06499Y00059*
X06501Y0006*
X06502Y00061*
X06503Y00061*
X06504Y00062*
X06505Y00063*
X06506Y00064*
X06507Y00065*
X06508Y00066*
X06509Y00067*
X0651Y00069*
X0651Y0007*
X06511Y00071*
X06511Y00072*
X06512Y00074*
X06512Y00075*
X06512Y00077*
X06512Y00078*
X06412D02*
D01*
X06412Y00079*
X06412Y00081*
X06412Y00082*
X06411Y00084*
X06411Y00085*
X0641Y00086*
X0641Y00087*
X06409Y00089*
X06408Y0009*
X06407Y00091*
X06406Y00092*
X06405Y00093*
X06404Y00094*
X06403Y00095*
X06402Y00095*
X06401Y00096*
X06399Y00097*
X06398Y00097*
X06397Y00097*
X06395Y00098*
X06394Y00098*
X06393Y00098*
X06391*
X0639Y00098*
X06389Y00098*
X06387Y00097*
X06386Y00097*
X06385Y00097*
X06383Y00096*
X06382Y00095*
X06381Y00095*
X0638Y00094*
X06379Y00093*
X06378Y00092*
X06377Y00091*
X06376Y0009*
X06375Y00089*
X06374Y00087*
X06374Y00086*
X06373Y00085*
X06373Y00084*
X06372Y00082*
X06372Y00081*
X06372Y00079*
X06372Y00078*
X06372Y00077*
X06372Y00075*
X06372Y00074*
X06373Y00072*
X06373Y00071*
X06374Y0007*
X06374Y00069*
X06375Y00067*
X06376Y00066*
X06377Y00065*
X06378Y00064*
X06379Y00063*
X0638Y00062*
X06381Y00061*
X06382Y00061*
X06383Y0006*
X06385Y00059*
X06386Y00059*
X06387Y00059*
X06389Y00058*
X0639Y00058*
X06391Y00058*
X06393*
X06394Y00058*
X06395Y00058*
X06397Y00059*
X06398Y00059*
X06399Y00059*
X06401Y0006*
X06402Y00061*
X06403Y00061*
X06404Y00062*
X06405Y00063*
X06406Y00064*
X06407Y00065*
X06408Y00066*
X06409Y00067*
X0641Y00069*
X0641Y0007*
X06411Y00071*
X06411Y00072*
X06412Y00074*
X06412Y00075*
X06412Y00077*
X06412Y00078*
X06312D02*
D01*
X06312Y00079*
X06312Y00081*
X06312Y00082*
X06311Y00084*
X06311Y00085*
X0631Y00086*
X0631Y00087*
X06309Y00089*
X06308Y0009*
X06307Y00091*
X06306Y00092*
X06305Y00093*
X06304Y00094*
X06303Y00095*
X06302Y00095*
X06301Y00096*
X06299Y00097*
X06298Y00097*
X06297Y00097*
X06295Y00098*
X06294Y00098*
X06293Y00098*
X06291*
X0629Y00098*
X06289Y00098*
X06287Y00097*
X06286Y00097*
X06285Y00097*
X06283Y00096*
X06282Y00095*
X06281Y00095*
X0628Y00094*
X06279Y00093*
X06278Y00092*
X06277Y00091*
X06276Y0009*
X06275Y00089*
X06274Y00087*
X06274Y00086*
X06273Y00085*
X06273Y00084*
X06272Y00082*
X06272Y00081*
X06272Y00079*
X06272Y00078*
X06272Y00077*
X06272Y00075*
X06272Y00074*
X06273Y00072*
X06273Y00071*
X06274Y0007*
X06274Y00069*
X06275Y00067*
X06276Y00066*
X06277Y00065*
X06278Y00064*
X06279Y00063*
X0628Y00062*
X06281Y00061*
X06282Y00061*
X06283Y0006*
X06285Y00059*
X06286Y00059*
X06287Y00059*
X06289Y00058*
X0629Y00058*
X06291Y00058*
X06293*
X06294Y00058*
X06295Y00058*
X06297Y00059*
X06298Y00059*
X06299Y00059*
X06301Y0006*
X06302Y00061*
X06303Y00061*
X06304Y00062*
X06305Y00063*
X06306Y00064*
X06307Y00065*
X06308Y00066*
X06309Y00067*
X0631Y00069*
X0631Y0007*
X06311Y00071*
X06311Y00072*
X06312Y00074*
X06312Y00075*
X06312Y00077*
X06312Y00078*
X06212D02*
D01*
X06212Y00079*
X06212Y00081*
X06212Y00082*
X06211Y00084*
X06211Y00085*
X0621Y00086*
X0621Y00087*
X06209Y00089*
X06208Y0009*
X06207Y00091*
X06206Y00092*
X06205Y00093*
X06204Y00094*
X06203Y00095*
X06202Y00095*
X06201Y00096*
X06199Y00097*
X06198Y00097*
X06197Y00097*
X06195Y00098*
X06194Y00098*
X06193Y00098*
X06191*
X0619Y00098*
X06189Y00098*
X06187Y00097*
X06186Y00097*
X06185Y00097*
X06183Y00096*
X06182Y00095*
X06181Y00095*
X0618Y00094*
X06179Y00093*
X06178Y00092*
X06177Y00091*
X06176Y0009*
X06175Y00089*
X06174Y00087*
X06174Y00086*
X06173Y00085*
X06173Y00084*
X06172Y00082*
X06172Y00081*
X06172Y00079*
X06172Y00078*
X06172Y00077*
X06172Y00075*
X06172Y00074*
X06173Y00072*
X06173Y00071*
X06174Y0007*
X06174Y00069*
X06175Y00067*
X06176Y00066*
X06177Y00065*
X06178Y00064*
X06179Y00063*
X0618Y00062*
X06181Y00061*
X06182Y00061*
X06183Y0006*
X06185Y00059*
X06186Y00059*
X06187Y00059*
X06189Y00058*
X0619Y00058*
X06191Y00058*
X06193*
X06194Y00058*
X06195Y00058*
X06197Y00059*
X06198Y00059*
X06199Y00059*
X06201Y0006*
X06202Y00061*
X06203Y00061*
X06204Y00062*
X06205Y00063*
X06206Y00064*
X06207Y00065*
X06208Y00066*
X06209Y00067*
X0621Y00069*
X0621Y0007*
X06211Y00071*
X06211Y00072*
X06212Y00074*
X06212Y00075*
X06212Y00077*
X06212Y00078*
X06012D02*
D01*
X06012Y00079*
X06012Y00081*
X06012Y00082*
X06011Y00084*
X06011Y00085*
X0601Y00086*
X0601Y00087*
X06009Y00089*
X06008Y0009*
X06007Y00091*
X06006Y00092*
X06005Y00093*
X06004Y00094*
X06003Y00095*
X06002Y00095*
X06001Y00096*
X05999Y00097*
X05998Y00097*
X05997Y00097*
X05995Y00098*
X05994Y00098*
X05993Y00098*
X05991*
X0599Y00098*
X05989Y00098*
X05987Y00097*
X05986Y00097*
X05985Y00097*
X05983Y00096*
X05982Y00095*
X05981Y00095*
X0598Y00094*
X05979Y00093*
X05978Y00092*
X05977Y00091*
X05976Y0009*
X05975Y00089*
X05974Y00087*
X05974Y00086*
X05973Y00085*
X05973Y00084*
X05972Y00082*
X05972Y00081*
X05972Y00079*
X05972Y00078*
X05972Y00077*
X05972Y00075*
X05972Y00074*
X05973Y00072*
X05973Y00071*
X05974Y0007*
X05974Y00069*
X05975Y00067*
X05976Y00066*
X05977Y00065*
X05978Y00064*
X05979Y00063*
X0598Y00062*
X05981Y00061*
X05982Y00061*
X05983Y0006*
X05985Y00059*
X05986Y00059*
X05987Y00059*
X05989Y00058*
X0599Y00058*
X05991Y00058*
X05993*
X05994Y00058*
X05995Y00058*
X05997Y00059*
X05998Y00059*
X05999Y00059*
X06001Y0006*
X06002Y00061*
X06003Y00061*
X06004Y00062*
X06005Y00063*
X06006Y00064*
X06007Y00065*
X06008Y00066*
X06009Y00067*
X0601Y00069*
X0601Y0007*
X06011Y00071*
X06011Y00072*
X06012Y00074*
X06012Y00075*
X06012Y00077*
X06012Y00078*
X05912D02*
D01*
X05912Y00079*
X05912Y00081*
X05912Y00082*
X05911Y00084*
X05911Y00085*
X0591Y00086*
X0591Y00087*
X05909Y00089*
X05908Y0009*
X05907Y00091*
X05906Y00092*
X05905Y00093*
X05904Y00094*
X05903Y00095*
X05902Y00095*
X05901Y00096*
X05899Y00097*
X05898Y00097*
X05897Y00097*
X05895Y00098*
X05894Y00098*
X05893Y00098*
X05891*
X0589Y00098*
X05889Y00098*
X05887Y00097*
X05886Y00097*
X05885Y00097*
X05883Y00096*
X05882Y00095*
X05881Y00095*
X0588Y00094*
X05879Y00093*
X05878Y00092*
X05877Y00091*
X05876Y0009*
X05875Y00089*
X05874Y00087*
X05874Y00086*
X05873Y00085*
X05873Y00084*
X05872Y00082*
X05872Y00081*
X05872Y00079*
X05872Y00078*
X05872Y00077*
X05872Y00075*
X05872Y00074*
X05873Y00072*
X05873Y00071*
X05874Y0007*
X05874Y00069*
X05875Y00067*
X05876Y00066*
X05877Y00065*
X05878Y00064*
X05879Y00063*
X0588Y00062*
X05881Y00061*
X05882Y00061*
X05883Y0006*
X05885Y00059*
X05886Y00059*
X05887Y00059*
X05889Y00058*
X0589Y00058*
X05891Y00058*
X05893*
X05894Y00058*
X05895Y00058*
X05897Y00059*
X05898Y00059*
X05899Y00059*
X05901Y0006*
X05902Y00061*
X05903Y00061*
X05904Y00062*
X05905Y00063*
X05906Y00064*
X05907Y00065*
X05908Y00066*
X05909Y00067*
X0591Y00069*
X0591Y0007*
X05911Y00071*
X05911Y00072*
X05912Y00074*
X05912Y00075*
X05912Y00077*
X05912Y00078*
X06112D02*
D01*
X06112Y00079*
X06112Y00081*
X06112Y00082*
X06111Y00084*
X06111Y00085*
X0611Y00086*
X0611Y00087*
X06109Y00089*
X06108Y0009*
X06107Y00091*
X06106Y00092*
X06105Y00093*
X06104Y00094*
X06103Y00095*
X06102Y00095*
X06101Y00096*
X06099Y00097*
X06098Y00097*
X06097Y00097*
X06095Y00098*
X06094Y00098*
X06093Y00098*
X06091*
X0609Y00098*
X06089Y00098*
X06087Y00097*
X06086Y00097*
X06085Y00097*
X06083Y00096*
X06082Y00095*
X06081Y00095*
X0608Y00094*
X06079Y00093*
X06078Y00092*
X06077Y00091*
X06076Y0009*
X06075Y00089*
X06074Y00087*
X06074Y00086*
X06073Y00085*
X06073Y00084*
X06072Y00082*
X06072Y00081*
X06072Y00079*
X06072Y00078*
X06072Y00077*
X06072Y00075*
X06072Y00074*
X06073Y00072*
X06073Y00071*
X06074Y0007*
X06074Y00069*
X06075Y00067*
X06076Y00066*
X06077Y00065*
X06078Y00064*
X06079Y00063*
X0608Y00062*
X06081Y00061*
X06082Y00061*
X06083Y0006*
X06085Y00059*
X06086Y00059*
X06087Y00059*
X06089Y00058*
X0609Y00058*
X06091Y00058*
X06093*
X06094Y00058*
X06095Y00058*
X06097Y00059*
X06098Y00059*
X06099Y00059*
X06101Y0006*
X06102Y00061*
X06103Y00061*
X06104Y00062*
X06105Y00063*
X06106Y00064*
X06107Y00065*
X06108Y00066*
X06109Y00067*
X0611Y00069*
X0611Y0007*
X06111Y00071*
X06111Y00072*
X06112Y00074*
X06112Y00075*
X06112Y00077*
X06112Y00078*
X00438Y01961D02*
D01*
X00438Y01962*
X00438Y01963*
X00438Y01965*
X00437Y01966*
X00437Y01967*
X00436Y01969*
X00436Y0197*
X00435Y01971*
X00434Y01972*
X00433Y01973*
X00432Y01974*
X00431Y01975*
X0043Y01976*
X00429Y01977*
X00428Y01978*
X00427Y01978*
X00425Y01979*
X00424Y0198*
X00423Y0198*
X00421Y0198*
X0042Y0198*
X00419Y0198*
X00417*
X00416Y0198*
X00415Y0198*
X00413Y0198*
X00412Y0198*
X00411Y01979*
X00409Y01978*
X00408Y01978*
X00407Y01977*
X00406Y01976*
X00405Y01975*
X00404Y01974*
X00403Y01973*
X00402Y01972*
X00401Y01971*
X004Y0197*
X004Y01969*
X00399Y01967*
X00399Y01966*
X00398Y01965*
X00398Y01963*
X00398Y01962*
X00398Y01961*
X00398Y01959*
X00398Y01958*
X00398Y01956*
X00399Y01955*
X00399Y01954*
X004Y01952*
X004Y01951*
X00401Y0195*
X00402Y01949*
X00403Y01948*
X00404Y01947*
X00405Y01946*
X00406Y01945*
X00407Y01944*
X00408Y01943*
X00409Y01943*
X00411Y01942*
X00412Y01941*
X00413Y01941*
X00415Y01941*
X00416Y01941*
X00417Y01941*
X00419*
X0042Y01941*
X00421Y01941*
X00423Y01941*
X00424Y01941*
X00425Y01942*
X00427Y01943*
X00428Y01943*
X00429Y01944*
X0043Y01945*
X00431Y01946*
X00432Y01947*
X00433Y01948*
X00434Y01949*
X00435Y0195*
X00436Y01951*
X00436Y01952*
X00437Y01954*
X00437Y01955*
X00438Y01956*
X00438Y01958*
X00438Y01959*
X00438Y01961*
Y01861D02*
D01*
X00438Y01862*
X00438Y01863*
X00438Y01865*
X00437Y01866*
X00437Y01867*
X00436Y01869*
X00436Y0187*
X00435Y01871*
X00434Y01872*
X00433Y01873*
X00432Y01874*
X00431Y01875*
X0043Y01876*
X00429Y01877*
X00428Y01878*
X00427Y01878*
X00425Y01879*
X00424Y0188*
X00423Y0188*
X00421Y0188*
X0042Y0188*
X00419Y0188*
X00417*
X00416Y0188*
X00415Y0188*
X00413Y0188*
X00412Y0188*
X00411Y01879*
X00409Y01878*
X00408Y01878*
X00407Y01877*
X00406Y01876*
X00405Y01875*
X00404Y01874*
X00403Y01873*
X00402Y01872*
X00401Y01871*
X004Y0187*
X004Y01869*
X00399Y01867*
X00399Y01866*
X00398Y01865*
X00398Y01863*
X00398Y01862*
X00398Y01861*
X00398Y01859*
X00398Y01858*
X00398Y01856*
X00399Y01855*
X00399Y01854*
X004Y01852*
X004Y01851*
X00401Y0185*
X00402Y01849*
X00403Y01848*
X00404Y01847*
X00405Y01846*
X00406Y01845*
X00407Y01844*
X00408Y01843*
X00409Y01843*
X00411Y01842*
X00412Y01841*
X00413Y01841*
X00415Y01841*
X00416Y01841*
X00417Y01841*
X00419*
X0042Y01841*
X00421Y01841*
X00423Y01841*
X00424Y01841*
X00425Y01842*
X00427Y01843*
X00428Y01843*
X00429Y01844*
X0043Y01845*
X00431Y01846*
X00432Y01847*
X00433Y01848*
X00434Y01849*
X00435Y0185*
X00436Y01851*
X00436Y01852*
X00437Y01854*
X00437Y01855*
X00438Y01856*
X00438Y01858*
X00438Y01859*
X00438Y01861*
Y01761D02*
D01*
X00438Y01762*
X00438Y01763*
X00438Y01765*
X00437Y01766*
X00437Y01767*
X00436Y01769*
X00436Y0177*
X00435Y01771*
X00434Y01772*
X00433Y01773*
X00432Y01774*
X00431Y01775*
X0043Y01776*
X00429Y01777*
X00428Y01778*
X00427Y01778*
X00425Y01779*
X00424Y0178*
X00423Y0178*
X00421Y0178*
X0042Y0178*
X00419Y0178*
X00417*
X00416Y0178*
X00415Y0178*
X00413Y0178*
X00412Y0178*
X00411Y01779*
X00409Y01778*
X00408Y01778*
X00407Y01777*
X00406Y01776*
X00405Y01775*
X00404Y01774*
X00403Y01773*
X00402Y01772*
X00401Y01771*
X004Y0177*
X004Y01769*
X00399Y01767*
X00399Y01766*
X00398Y01765*
X00398Y01763*
X00398Y01762*
X00398Y01761*
X00398Y01759*
X00398Y01758*
X00398Y01756*
X00399Y01755*
X00399Y01754*
X004Y01752*
X004Y01751*
X00401Y0175*
X00402Y01749*
X00403Y01748*
X00404Y01747*
X00405Y01746*
X00406Y01745*
X00407Y01744*
X00408Y01743*
X00409Y01743*
X00411Y01742*
X00412Y01741*
X00413Y01741*
X00415Y01741*
X00416Y01741*
X00417Y01741*
X00419*
X0042Y01741*
X00421Y01741*
X00423Y01741*
X00424Y01741*
X00425Y01742*
X00427Y01743*
X00428Y01743*
X00429Y01744*
X0043Y01745*
X00431Y01746*
X00432Y01747*
X00433Y01748*
X00434Y01749*
X00435Y0175*
X00436Y01751*
X00436Y01752*
X00437Y01754*
X00437Y01755*
X00438Y01756*
X00438Y01758*
X00438Y01759*
X00438Y01761*
Y01661D02*
D01*
X00438Y01662*
X00438Y01663*
X00438Y01665*
X00437Y01666*
X00437Y01667*
X00436Y01669*
X00436Y0167*
X00435Y01671*
X00434Y01672*
X00433Y01673*
X00432Y01674*
X00431Y01675*
X0043Y01676*
X00429Y01677*
X00428Y01678*
X00427Y01678*
X00425Y01679*
X00424Y0168*
X00423Y0168*
X00421Y0168*
X0042Y0168*
X00419Y0168*
X00417*
X00416Y0168*
X00415Y0168*
X00413Y0168*
X00412Y0168*
X00411Y01679*
X00409Y01678*
X00408Y01678*
X00407Y01677*
X00406Y01676*
X00405Y01675*
X00404Y01674*
X00403Y01673*
X00402Y01672*
X00401Y01671*
X004Y0167*
X004Y01669*
X00399Y01667*
X00399Y01666*
X00398Y01665*
X00398Y01663*
X00398Y01662*
X00398Y01661*
X00398Y01659*
X00398Y01658*
X00398Y01656*
X00399Y01655*
X00399Y01654*
X004Y01652*
X004Y01651*
X00401Y0165*
X00402Y01649*
X00403Y01648*
X00404Y01647*
X00405Y01646*
X00406Y01645*
X00407Y01644*
X00408Y01643*
X00409Y01643*
X00411Y01642*
X00412Y01641*
X00413Y01641*
X00415Y01641*
X00416Y01641*
X00417Y01641*
X00419*
X0042Y01641*
X00421Y01641*
X00423Y01641*
X00424Y01641*
X00425Y01642*
X00427Y01643*
X00428Y01643*
X00429Y01644*
X0043Y01645*
X00431Y01646*
X00432Y01647*
X00433Y01648*
X00434Y01649*
X00435Y0165*
X00436Y01651*
X00436Y01652*
X00437Y01654*
X00437Y01655*
X00438Y01656*
X00438Y01658*
X00438Y01659*
X00438Y01661*
Y01561D02*
D01*
X00438Y01562*
X00438Y01563*
X00438Y01565*
X00437Y01566*
X00437Y01567*
X00436Y01569*
X00436Y0157*
X00435Y01571*
X00434Y01572*
X00433Y01573*
X00432Y01574*
X00431Y01575*
X0043Y01576*
X00429Y01577*
X00428Y01578*
X00427Y01578*
X00425Y01579*
X00424Y0158*
X00423Y0158*
X00421Y0158*
X0042Y0158*
X00419Y0158*
X00417*
X00416Y0158*
X00415Y0158*
X00413Y0158*
X00412Y0158*
X00411Y01579*
X00409Y01578*
X00408Y01578*
X00407Y01577*
X00406Y01576*
X00405Y01575*
X00404Y01574*
X00403Y01573*
X00402Y01572*
X00401Y01571*
X004Y0157*
X004Y01569*
X00399Y01567*
X00399Y01566*
X00398Y01565*
X00398Y01563*
X00398Y01562*
X00398Y01561*
X00398Y01559*
X00398Y01558*
X00398Y01556*
X00399Y01555*
X00399Y01554*
X004Y01552*
X004Y01551*
X00401Y0155*
X00402Y01549*
X00403Y01548*
X00404Y01547*
X00405Y01546*
X00406Y01545*
X00407Y01544*
X00408Y01543*
X00409Y01543*
X00411Y01542*
X00412Y01541*
X00413Y01541*
X00415Y01541*
X00416Y01541*
X00417Y01541*
X00419*
X0042Y01541*
X00421Y01541*
X00423Y01541*
X00424Y01541*
X00425Y01542*
X00427Y01543*
X00428Y01543*
X00429Y01544*
X0043Y01545*
X00431Y01546*
X00432Y01547*
X00433Y01548*
X00434Y01549*
X00435Y0155*
X00436Y01551*
X00436Y01552*
X00437Y01554*
X00437Y01555*
X00438Y01556*
X00438Y01558*
X00438Y01559*
X00438Y01561*
X063Y00956D02*
D01*
X063Y00957*
X063Y00959*
X063Y0096*
X06299Y00962*
X06299Y00963*
X06298Y00964*
X06298Y00965*
X06297Y00967*
X06296Y00968*
X06295Y00969*
X06294Y0097*
X06293Y00971*
X06292Y00972*
X06291Y00973*
X0629Y00973*
X06289Y00974*
X06287Y00975*
X06286Y00975*
X06285Y00975*
X06283Y00976*
X06282Y00976*
X06281Y00976*
X06279*
X06278Y00976*
X06277Y00976*
X06275Y00975*
X06274Y00975*
X06273Y00975*
X06271Y00974*
X0627Y00973*
X06269Y00973*
X06268Y00972*
X06267Y00971*
X06266Y0097*
X06265Y00969*
X06264Y00968*
X06263Y00967*
X06262Y00965*
X06262Y00964*
X06261Y00963*
X06261Y00962*
X0626Y0096*
X0626Y00959*
X0626Y00957*
X0626Y00956*
X0626Y00955*
X0626Y00953*
X0626Y00952*
X06261Y0095*
X06261Y00949*
X06262Y00948*
X06262Y00947*
X06263Y00945*
X06264Y00944*
X06265Y00943*
X06266Y00942*
X06267Y00941*
X06268Y0094*
X06269Y00939*
X0627Y00939*
X06271Y00938*
X06273Y00937*
X06274Y00937*
X06275Y00937*
X06277Y00936*
X06278Y00936*
X06279Y00936*
X06281*
X06282Y00936*
X06283Y00936*
X06285Y00937*
X06286Y00937*
X06287Y00937*
X06289Y00938*
X0629Y00939*
X06291Y00939*
X06292Y0094*
X06293Y00941*
X06294Y00942*
X06295Y00943*
X06296Y00944*
X06297Y00945*
X06298Y00947*
X06298Y00948*
X06299Y00949*
X06299Y0095*
X063Y00952*
X063Y00953*
X063Y00955*
X063Y00956*
X062D02*
D01*
X062Y00957*
X062Y00959*
X062Y0096*
X06199Y00962*
X06199Y00963*
X06198Y00964*
X06198Y00965*
X06197Y00967*
X06196Y00968*
X06195Y00969*
X06194Y0097*
X06193Y00971*
X06192Y00972*
X06191Y00973*
X0619Y00973*
X06189Y00974*
X06187Y00975*
X06186Y00975*
X06185Y00975*
X06183Y00976*
X06182Y00976*
X06181Y00976*
X06179*
X06178Y00976*
X06177Y00976*
X06175Y00975*
X06174Y00975*
X06173Y00975*
X06171Y00974*
X0617Y00973*
X06169Y00973*
X06168Y00972*
X06167Y00971*
X06166Y0097*
X06165Y00969*
X06164Y00968*
X06163Y00967*
X06162Y00965*
X06162Y00964*
X06161Y00963*
X06161Y00962*
X0616Y0096*
X0616Y00959*
X0616Y00957*
X0616Y00956*
X0616Y00955*
X0616Y00953*
X0616Y00952*
X06161Y0095*
X06161Y00949*
X06162Y00948*
X06162Y00947*
X06163Y00945*
X06164Y00944*
X06165Y00943*
X06166Y00942*
X06167Y00941*
X06168Y0094*
X06169Y00939*
X0617Y00939*
X06171Y00938*
X06173Y00937*
X06174Y00937*
X06175Y00937*
X06177Y00936*
X06178Y00936*
X06179Y00936*
X06181*
X06182Y00936*
X06183Y00936*
X06185Y00937*
X06186Y00937*
X06187Y00937*
X06189Y00938*
X0619Y00939*
X06191Y00939*
X06192Y0094*
X06193Y00941*
X06194Y00942*
X06195Y00943*
X06196Y00944*
X06197Y00945*
X06198Y00947*
X06198Y00948*
X06199Y00949*
X06199Y0095*
X062Y00952*
X062Y00953*
X062Y00955*
X062Y00956*
X03311Y01255D02*
D01*
X03311Y01257*
X0331Y01258*
X0331Y01259*
X0331Y01261*
X03309Y01262*
X03309Y01263*
X03308Y01265*
X03308Y01266*
X03307Y01267*
X03306Y01268*
X03305Y01269*
X03304Y0127*
X03303Y01271*
X03302Y01272*
X03301Y01273*
X03299Y01273*
X03298Y01274*
X03297Y01274*
X03296Y01275*
X03294Y01275*
X03293Y01275*
X03291Y01275*
X0329*
X03289Y01275*
X03287Y01275*
X03286Y01275*
X03285Y01274*
X03283Y01274*
X03282Y01273*
X03281Y01273*
X0328Y01272*
X03278Y01271*
X03277Y0127*
X03276Y01269*
X03275Y01268*
X03275Y01267*
X03274Y01266*
X03273Y01265*
X03272Y01263*
X03272Y01262*
X03271Y01261*
X03271Y01259*
X03271Y01258*
X03271Y01257*
X03271Y01255*
X03271Y01254*
X03271Y01252*
X03271Y01251*
X03271Y0125*
X03272Y01248*
X03272Y01247*
X03273Y01246*
X03274Y01245*
X03275Y01244*
X03275Y01242*
X03276Y01241*
X03277Y0124*
X03278Y01239*
X0328Y01239*
X03281Y01238*
X03282Y01237*
X03283Y01237*
X03285Y01236*
X03286Y01236*
X03287Y01236*
X03289Y01235*
X0329Y01235*
X03291*
X03293Y01235*
X03294Y01236*
X03296Y01236*
X03297Y01236*
X03298Y01237*
X03299Y01237*
X03301Y01238*
X03302Y01239*
X03303Y01239*
X03304Y0124*
X03305Y01241*
X03306Y01242*
X03307Y01244*
X03308Y01245*
X03308Y01246*
X03309Y01247*
X03309Y01248*
X0331Y0125*
X0331Y01251*
X0331Y01252*
X03311Y01254*
X03311Y01255*
X03211D02*
D01*
X03211Y01257*
X0321Y01258*
X0321Y01259*
X0321Y01261*
X03209Y01262*
X03209Y01263*
X03208Y01265*
X03208Y01266*
X03207Y01267*
X03206Y01268*
X03205Y01269*
X03204Y0127*
X03203Y01271*
X03202Y01272*
X03201Y01273*
X03199Y01273*
X03198Y01274*
X03197Y01274*
X03196Y01275*
X03194Y01275*
X03193Y01275*
X03191Y01275*
X0319*
X03189Y01275*
X03187Y01275*
X03186Y01275*
X03185Y01274*
X03183Y01274*
X03182Y01273*
X03181Y01273*
X0318Y01272*
X03178Y01271*
X03177Y0127*
X03176Y01269*
X03175Y01268*
X03175Y01267*
X03174Y01266*
X03173Y01265*
X03172Y01263*
X03172Y01262*
X03171Y01261*
X03171Y01259*
X03171Y01258*
X03171Y01257*
X03171Y01255*
X03171Y01254*
X03171Y01252*
X03171Y01251*
X03171Y0125*
X03172Y01248*
X03172Y01247*
X03173Y01246*
X03174Y01245*
X03175Y01244*
X03175Y01242*
X03176Y01241*
X03177Y0124*
X03178Y01239*
X0318Y01239*
X03181Y01238*
X03182Y01237*
X03183Y01237*
X03185Y01236*
X03186Y01236*
X03187Y01236*
X03189Y01235*
X0319Y01235*
X03191*
X03193Y01235*
X03194Y01236*
X03196Y01236*
X03197Y01236*
X03198Y01237*
X03199Y01237*
X03201Y01238*
X03202Y01239*
X03203Y01239*
X03204Y0124*
X03205Y01241*
X03206Y01242*
X03207Y01244*
X03208Y01245*
X03208Y01246*
X03209Y01247*
X03209Y01248*
X0321Y0125*
X0321Y01251*
X0321Y01252*
X03211Y01254*
X03211Y01255*
X03111D02*
D01*
X03111Y01257*
X0311Y01258*
X0311Y01259*
X0311Y01261*
X03109Y01262*
X03109Y01263*
X03108Y01265*
X03108Y01266*
X03107Y01267*
X03106Y01268*
X03105Y01269*
X03104Y0127*
X03103Y01271*
X03102Y01272*
X03101Y01273*
X03099Y01273*
X03098Y01274*
X03097Y01274*
X03096Y01275*
X03094Y01275*
X03093Y01275*
X03091Y01275*
X0309*
X03089Y01275*
X03087Y01275*
X03086Y01275*
X03085Y01274*
X03083Y01274*
X03082Y01273*
X03081Y01273*
X0308Y01272*
X03078Y01271*
X03077Y0127*
X03076Y01269*
X03075Y01268*
X03075Y01267*
X03074Y01266*
X03073Y01265*
X03072Y01263*
X03072Y01262*
X03071Y01261*
X03071Y01259*
X03071Y01258*
X03071Y01257*
X03071Y01255*
X03071Y01254*
X03071Y01252*
X03071Y01251*
X03071Y0125*
X03072Y01248*
X03072Y01247*
X03073Y01246*
X03074Y01245*
X03075Y01244*
X03075Y01242*
X03076Y01241*
X03077Y0124*
X03078Y01239*
X0308Y01239*
X03081Y01238*
X03082Y01237*
X03083Y01237*
X03085Y01236*
X03086Y01236*
X03087Y01236*
X03089Y01235*
X0309Y01235*
X03091*
X03093Y01235*
X03094Y01236*
X03096Y01236*
X03097Y01236*
X03098Y01237*
X03099Y01237*
X03101Y01238*
X03102Y01239*
X03103Y01239*
X03104Y0124*
X03105Y01241*
X03106Y01242*
X03107Y01244*
X03108Y01245*
X03108Y01246*
X03109Y01247*
X03109Y01248*
X0311Y0125*
X0311Y01251*
X0311Y01252*
X03111Y01254*
X03111Y01255*
X03011D02*
D01*
X03011Y01257*
X0301Y01258*
X0301Y01259*
X0301Y01261*
X03009Y01262*
X03009Y01263*
X03008Y01265*
X03008Y01266*
X03007Y01267*
X03006Y01268*
X03005Y01269*
X03004Y0127*
X03003Y01271*
X03002Y01272*
X03001Y01273*
X02999Y01273*
X02998Y01274*
X02997Y01274*
X02996Y01275*
X02994Y01275*
X02993Y01275*
X02991Y01275*
X0299*
X02989Y01275*
X02987Y01275*
X02986Y01275*
X02985Y01274*
X02983Y01274*
X02982Y01273*
X02981Y01273*
X0298Y01272*
X02978Y01271*
X02977Y0127*
X02976Y01269*
X02975Y01268*
X02975Y01267*
X02974Y01266*
X02973Y01265*
X02972Y01263*
X02972Y01262*
X02971Y01261*
X02971Y01259*
X02971Y01258*
X02971Y01257*
X02971Y01255*
X02971Y01254*
X02971Y01252*
X02971Y01251*
X02971Y0125*
X02972Y01248*
X02972Y01247*
X02973Y01246*
X02974Y01245*
X02975Y01244*
X02975Y01242*
X02976Y01241*
X02977Y0124*
X02978Y01239*
X0298Y01239*
X02981Y01238*
X02982Y01237*
X02983Y01237*
X02985Y01236*
X02986Y01236*
X02987Y01236*
X02989Y01235*
X0299Y01235*
X02991*
X02993Y01235*
X02994Y01236*
X02996Y01236*
X02997Y01236*
X02998Y01237*
X02999Y01237*
X03001Y01238*
X03002Y01239*
X03003Y01239*
X03004Y0124*
X03005Y01241*
X03006Y01242*
X03007Y01244*
X03008Y01245*
X03008Y01246*
X03009Y01247*
X03009Y01248*
X0301Y0125*
X0301Y01251*
X0301Y01252*
X03011Y01254*
X03011Y01255*
X02911D02*
D01*
X02911Y01257*
X0291Y01258*
X0291Y01259*
X0291Y01261*
X02909Y01262*
X02909Y01263*
X02908Y01265*
X02908Y01266*
X02907Y01267*
X02906Y01268*
X02905Y01269*
X02904Y0127*
X02903Y01271*
X02902Y01272*
X02901Y01273*
X02899Y01273*
X02898Y01274*
X02897Y01274*
X02896Y01275*
X02894Y01275*
X02893Y01275*
X02891Y01275*
X0289*
X02889Y01275*
X02887Y01275*
X02886Y01275*
X02885Y01274*
X02883Y01274*
X02882Y01273*
X02881Y01273*
X0288Y01272*
X02878Y01271*
X02877Y0127*
X02876Y01269*
X02875Y01268*
X02875Y01267*
X02874Y01266*
X02873Y01265*
X02872Y01263*
X02872Y01262*
X02871Y01261*
X02871Y01259*
X02871Y01258*
X02871Y01257*
X02871Y01255*
X02871Y01254*
X02871Y01252*
X02871Y01251*
X02871Y0125*
X02872Y01248*
X02872Y01247*
X02873Y01246*
X02874Y01245*
X02875Y01244*
X02875Y01242*
X02876Y01241*
X02877Y0124*
X02878Y01239*
X0288Y01239*
X02881Y01238*
X02882Y01237*
X02883Y01237*
X02885Y01236*
X02886Y01236*
X02887Y01236*
X02889Y01235*
X0289Y01235*
X02891*
X02893Y01235*
X02894Y01236*
X02896Y01236*
X02897Y01236*
X02898Y01237*
X02899Y01237*
X02901Y01238*
X02902Y01239*
X02903Y01239*
X02904Y0124*
X02905Y01241*
X02906Y01242*
X02907Y01244*
X02908Y01245*
X02908Y01246*
X02909Y01247*
X02909Y01248*
X0291Y0125*
X0291Y01251*
X0291Y01252*
X02911Y01254*
X02911Y01255*
X02811D02*
D01*
X02811Y01257*
X0281Y01258*
X0281Y01259*
X0281Y01261*
X02809Y01262*
X02809Y01263*
X02808Y01265*
X02808Y01266*
X02807Y01267*
X02806Y01268*
X02805Y01269*
X02804Y0127*
X02803Y01271*
X02802Y01272*
X02801Y01273*
X02799Y01273*
X02798Y01274*
X02797Y01274*
X02796Y01275*
X02794Y01275*
X02793Y01275*
X02791Y01275*
X0279*
X02789Y01275*
X02787Y01275*
X02786Y01275*
X02785Y01274*
X02783Y01274*
X02782Y01273*
X02781Y01273*
X0278Y01272*
X02778Y01271*
X02777Y0127*
X02776Y01269*
X02775Y01268*
X02775Y01267*
X02774Y01266*
X02773Y01265*
X02772Y01263*
X02772Y01262*
X02771Y01261*
X02771Y01259*
X02771Y01258*
X02771Y01257*
X02771Y01255*
X02771Y01254*
X02771Y01252*
X02771Y01251*
X02771Y0125*
X02772Y01248*
X02772Y01247*
X02773Y01246*
X02774Y01245*
X02775Y01244*
X02775Y01242*
X02776Y01241*
X02777Y0124*
X02778Y01239*
X0278Y01239*
X02781Y01238*
X02782Y01237*
X02783Y01237*
X02785Y01236*
X02786Y01236*
X02787Y01236*
X02789Y01235*
X0279Y01235*
X02791*
X02793Y01235*
X02794Y01236*
X02796Y01236*
X02797Y01236*
X02798Y01237*
X02799Y01237*
X02801Y01238*
X02802Y01239*
X02803Y01239*
X02804Y0124*
X02805Y01241*
X02806Y01242*
X02807Y01244*
X02808Y01245*
X02808Y01246*
X02809Y01247*
X02809Y01248*
X0281Y0125*
X0281Y01251*
X0281Y01252*
X02811Y01254*
X02811Y01255*
X02711D02*
D01*
X02711Y01257*
X0271Y01258*
X0271Y01259*
X0271Y01261*
X02709Y01262*
X02709Y01263*
X02708Y01265*
X02708Y01266*
X02707Y01267*
X02706Y01268*
X02705Y01269*
X02704Y0127*
X02703Y01271*
X02702Y01272*
X02701Y01273*
X02699Y01273*
X02698Y01274*
X02697Y01274*
X02696Y01275*
X02694Y01275*
X02693Y01275*
X02691Y01275*
X0269*
X02689Y01275*
X02687Y01275*
X02686Y01275*
X02685Y01274*
X02683Y01274*
X02682Y01273*
X02681Y01273*
X0268Y01272*
X02678Y01271*
X02677Y0127*
X02676Y01269*
X02675Y01268*
X02675Y01267*
X02674Y01266*
X02673Y01265*
X02672Y01263*
X02672Y01262*
X02671Y01261*
X02671Y01259*
X02671Y01258*
X02671Y01257*
X02671Y01255*
X02671Y01254*
X02671Y01252*
X02671Y01251*
X02671Y0125*
X02672Y01248*
X02672Y01247*
X02673Y01246*
X02674Y01245*
X02675Y01244*
X02675Y01242*
X02676Y01241*
X02677Y0124*
X02678Y01239*
X0268Y01239*
X02681Y01238*
X02682Y01237*
X02683Y01237*
X02685Y01236*
X02686Y01236*
X02687Y01236*
X02689Y01235*
X0269Y01235*
X02691*
X02693Y01235*
X02694Y01236*
X02696Y01236*
X02697Y01236*
X02698Y01237*
X02699Y01237*
X02701Y01238*
X02702Y01239*
X02703Y01239*
X02704Y0124*
X02705Y01241*
X02706Y01242*
X02707Y01244*
X02708Y01245*
X02708Y01246*
X02709Y01247*
X02709Y01248*
X0271Y0125*
X0271Y01251*
X0271Y01252*
X02711Y01254*
X02711Y01255*
X02611D02*
D01*
X02611Y01257*
X0261Y01258*
X0261Y01259*
X0261Y01261*
X02609Y01262*
X02609Y01263*
X02608Y01265*
X02608Y01266*
X02607Y01267*
X02606Y01268*
X02605Y01269*
X02604Y0127*
X02603Y01271*
X02602Y01272*
X02601Y01273*
X02599Y01273*
X02598Y01274*
X02597Y01274*
X02596Y01275*
X02594Y01275*
X02593Y01275*
X02591Y01275*
X0259*
X02589Y01275*
X02587Y01275*
X02586Y01275*
X02585Y01274*
X02583Y01274*
X02582Y01273*
X02581Y01273*
X0258Y01272*
X02578Y01271*
X02577Y0127*
X02576Y01269*
X02575Y01268*
X02575Y01267*
X02574Y01266*
X02573Y01265*
X02572Y01263*
X02572Y01262*
X02571Y01261*
X02571Y01259*
X02571Y01258*
X02571Y01257*
X02571Y01255*
X02571Y01254*
X02571Y01252*
X02571Y01251*
X02571Y0125*
X02572Y01248*
X02572Y01247*
X02573Y01246*
X02574Y01245*
X02575Y01244*
X02575Y01242*
X02576Y01241*
X02577Y0124*
X02578Y01239*
X0258Y01239*
X02581Y01238*
X02582Y01237*
X02583Y01237*
X02585Y01236*
X02586Y01236*
X02587Y01236*
X02589Y01235*
X0259Y01235*
X02591*
X02593Y01235*
X02594Y01236*
X02596Y01236*
X02597Y01236*
X02598Y01237*
X02599Y01237*
X02601Y01238*
X02602Y01239*
X02603Y01239*
X02604Y0124*
X02605Y01241*
X02606Y01242*
X02607Y01244*
X02608Y01245*
X02608Y01246*
X02609Y01247*
X02609Y01248*
X0261Y0125*
X0261Y01251*
X0261Y01252*
X02611Y01254*
X02611Y01255*
X02511D02*
D01*
X02511Y01257*
X0251Y01258*
X0251Y01259*
X0251Y01261*
X02509Y01262*
X02509Y01263*
X02508Y01265*
X02508Y01266*
X02507Y01267*
X02506Y01268*
X02505Y01269*
X02504Y0127*
X02503Y01271*
X02502Y01272*
X02501Y01273*
X02499Y01273*
X02498Y01274*
X02497Y01274*
X02496Y01275*
X02494Y01275*
X02493Y01275*
X02491Y01275*
X0249*
X02489Y01275*
X02487Y01275*
X02486Y01275*
X02485Y01274*
X02483Y01274*
X02482Y01273*
X02481Y01273*
X0248Y01272*
X02478Y01271*
X02477Y0127*
X02476Y01269*
X02475Y01268*
X02475Y01267*
X02474Y01266*
X02473Y01265*
X02472Y01263*
X02472Y01262*
X02471Y01261*
X02471Y01259*
X02471Y01258*
X02471Y01257*
X02471Y01255*
X02471Y01254*
X02471Y01252*
X02471Y01251*
X02471Y0125*
X02472Y01248*
X02472Y01247*
X02473Y01246*
X02474Y01245*
X02475Y01244*
X02475Y01242*
X02476Y01241*
X02477Y0124*
X02478Y01239*
X0248Y01239*
X02481Y01238*
X02482Y01237*
X02483Y01237*
X02485Y01236*
X02486Y01236*
X02487Y01236*
X02489Y01235*
X0249Y01235*
X02491*
X02493Y01235*
X02494Y01236*
X02496Y01236*
X02497Y01236*
X02498Y01237*
X02499Y01237*
X02501Y01238*
X02502Y01239*
X02503Y01239*
X02504Y0124*
X02505Y01241*
X02506Y01242*
X02507Y01244*
X02508Y01245*
X02508Y01246*
X02509Y01247*
X02509Y01248*
X0251Y0125*
X0251Y01251*
X0251Y01252*
X02511Y01254*
X02511Y01255*
X02411D02*
D01*
X02411Y01257*
X0241Y01258*
X0241Y01259*
X0241Y01261*
X02409Y01262*
X02409Y01263*
X02408Y01265*
X02408Y01266*
X02407Y01267*
X02406Y01268*
X02405Y01269*
X02404Y0127*
X02403Y01271*
X02402Y01272*
X02401Y01273*
X02399Y01273*
X02398Y01274*
X02397Y01274*
X02396Y01275*
X02394Y01275*
X02393Y01275*
X02391Y01275*
X0239*
X02389Y01275*
X02387Y01275*
X02386Y01275*
X02385Y01274*
X02383Y01274*
X02382Y01273*
X02381Y01273*
X0238Y01272*
X02378Y01271*
X02377Y0127*
X02376Y01269*
X02375Y01268*
X02375Y01267*
X02374Y01266*
X02373Y01265*
X02372Y01263*
X02372Y01262*
X02371Y01261*
X02371Y01259*
X02371Y01258*
X02371Y01257*
X02371Y01255*
X02371Y01254*
X02371Y01252*
X02371Y01251*
X02371Y0125*
X02372Y01248*
X02372Y01247*
X02373Y01246*
X02374Y01245*
X02375Y01244*
X02375Y01242*
X02376Y01241*
X02377Y0124*
X02378Y01239*
X0238Y01239*
X02381Y01238*
X02382Y01237*
X02383Y01237*
X02385Y01236*
X02386Y01236*
X02387Y01236*
X02389Y01235*
X0239Y01235*
X02391*
X02393Y01235*
X02394Y01236*
X02396Y01236*
X02397Y01236*
X02398Y01237*
X02399Y01237*
X02401Y01238*
X02402Y01239*
X02403Y01239*
X02404Y0124*
X02405Y01241*
X02406Y01242*
X02407Y01244*
X02408Y01245*
X02408Y01246*
X02409Y01247*
X02409Y01248*
X0241Y0125*
X0241Y01251*
X0241Y01252*
X02411Y01254*
X02411Y01255*
X02311D02*
D01*
X02311Y01257*
X0231Y01258*
X0231Y01259*
X0231Y01261*
X02309Y01262*
X02309Y01263*
X02308Y01265*
X02308Y01266*
X02307Y01267*
X02306Y01268*
X02305Y01269*
X02304Y0127*
X02303Y01271*
X02302Y01272*
X02301Y01273*
X02299Y01273*
X02298Y01274*
X02297Y01274*
X02296Y01275*
X02294Y01275*
X02293Y01275*
X02291Y01275*
X0229*
X02289Y01275*
X02287Y01275*
X02286Y01275*
X02285Y01274*
X02283Y01274*
X02282Y01273*
X02281Y01273*
X0228Y01272*
X02278Y01271*
X02277Y0127*
X02276Y01269*
X02275Y01268*
X02275Y01267*
X02274Y01266*
X02273Y01265*
X02272Y01263*
X02272Y01262*
X02271Y01261*
X02271Y01259*
X02271Y01258*
X02271Y01257*
X02271Y01255*
X02271Y01254*
X02271Y01252*
X02271Y01251*
X02271Y0125*
X02272Y01248*
X02272Y01247*
X02273Y01246*
X02274Y01245*
X02275Y01244*
X02275Y01242*
X02276Y01241*
X02277Y0124*
X02278Y01239*
X0228Y01239*
X02281Y01238*
X02282Y01237*
X02283Y01237*
X02285Y01236*
X02286Y01236*
X02287Y01236*
X02289Y01235*
X0229Y01235*
X02291*
X02293Y01235*
X02294Y01236*
X02296Y01236*
X02297Y01236*
X02298Y01237*
X02299Y01237*
X02301Y01238*
X02302Y01239*
X02303Y01239*
X02304Y0124*
X02305Y01241*
X02306Y01242*
X02307Y01244*
X02308Y01245*
X02308Y01246*
X02309Y01247*
X02309Y01248*
X0231Y0125*
X0231Y01251*
X0231Y01252*
X02311Y01254*
X02311Y01255*
X02211D02*
D01*
X02211Y01257*
X0221Y01258*
X0221Y01259*
X0221Y01261*
X02209Y01262*
X02209Y01263*
X02208Y01265*
X02208Y01266*
X02207Y01267*
X02206Y01268*
X02205Y01269*
X02204Y0127*
X02203Y01271*
X02202Y01272*
X02201Y01273*
X02199Y01273*
X02198Y01274*
X02197Y01274*
X02196Y01275*
X02194Y01275*
X02193Y01275*
X02191Y01275*
X0219*
X02189Y01275*
X02187Y01275*
X02186Y01275*
X02185Y01274*
X02183Y01274*
X02182Y01273*
X02181Y01273*
X0218Y01272*
X02178Y01271*
X02177Y0127*
X02176Y01269*
X02175Y01268*
X02175Y01267*
X02174Y01266*
X02173Y01265*
X02172Y01263*
X02172Y01262*
X02171Y01261*
X02171Y01259*
X02171Y01258*
X02171Y01257*
X02171Y01255*
X02171Y01254*
X02171Y01252*
X02171Y01251*
X02171Y0125*
X02172Y01248*
X02172Y01247*
X02173Y01246*
X02174Y01245*
X02175Y01244*
X02175Y01242*
X02176Y01241*
X02177Y0124*
X02178Y01239*
X0218Y01239*
X02181Y01238*
X02182Y01237*
X02183Y01237*
X02185Y01236*
X02186Y01236*
X02187Y01236*
X02189Y01235*
X0219Y01235*
X02191*
X02193Y01235*
X02194Y01236*
X02196Y01236*
X02197Y01236*
X02198Y01237*
X02199Y01237*
X02201Y01238*
X02202Y01239*
X02203Y01239*
X02204Y0124*
X02205Y01241*
X02206Y01242*
X02207Y01244*
X02208Y01245*
X02208Y01246*
X02209Y01247*
X02209Y01248*
X0221Y0125*
X0221Y01251*
X0221Y01252*
X02211Y01254*
X02211Y01255*
X02111D02*
D01*
X02111Y01257*
X0211Y01258*
X0211Y01259*
X0211Y01261*
X02109Y01262*
X02109Y01263*
X02108Y01265*
X02108Y01266*
X02107Y01267*
X02106Y01268*
X02105Y01269*
X02104Y0127*
X02103Y01271*
X02102Y01272*
X02101Y01273*
X02099Y01273*
X02098Y01274*
X02097Y01274*
X02096Y01275*
X02094Y01275*
X02093Y01275*
X02091Y01275*
X0209*
X02089Y01275*
X02087Y01275*
X02086Y01275*
X02085Y01274*
X02083Y01274*
X02082Y01273*
X02081Y01273*
X0208Y01272*
X02078Y01271*
X02077Y0127*
X02076Y01269*
X02075Y01268*
X02075Y01267*
X02074Y01266*
X02073Y01265*
X02072Y01263*
X02072Y01262*
X02071Y01261*
X02071Y01259*
X02071Y01258*
X02071Y01257*
X02071Y01255*
X02071Y01254*
X02071Y01252*
X02071Y01251*
X02071Y0125*
X02072Y01248*
X02072Y01247*
X02073Y01246*
X02074Y01245*
X02075Y01244*
X02075Y01242*
X02076Y01241*
X02077Y0124*
X02078Y01239*
X0208Y01239*
X02081Y01238*
X02082Y01237*
X02083Y01237*
X02085Y01236*
X02086Y01236*
X02087Y01236*
X02089Y01235*
X0209Y01235*
X02091*
X02093Y01235*
X02094Y01236*
X02096Y01236*
X02097Y01236*
X02098Y01237*
X02099Y01237*
X02101Y01238*
X02102Y01239*
X02103Y01239*
X02104Y0124*
X02105Y01241*
X02106Y01242*
X02107Y01244*
X02108Y01245*
X02108Y01246*
X02109Y01247*
X02109Y01248*
X0211Y0125*
X0211Y01251*
X0211Y01252*
X02111Y01254*
X02111Y01255*
X02011D02*
D01*
X02011Y01257*
X0201Y01258*
X0201Y01259*
X0201Y01261*
X02009Y01262*
X02009Y01263*
X02008Y01265*
X02008Y01266*
X02007Y01267*
X02006Y01268*
X02005Y01269*
X02004Y0127*
X02003Y01271*
X02002Y01272*
X02001Y01273*
X01999Y01273*
X01998Y01274*
X01997Y01274*
X01996Y01275*
X01994Y01275*
X01993Y01275*
X01991Y01275*
X0199*
X01989Y01275*
X01987Y01275*
X01986Y01275*
X01985Y01274*
X01983Y01274*
X01982Y01273*
X01981Y01273*
X0198Y01272*
X01978Y01271*
X01977Y0127*
X01976Y01269*
X01975Y01268*
X01975Y01267*
X01974Y01266*
X01973Y01265*
X01972Y01263*
X01972Y01262*
X01971Y01261*
X01971Y01259*
X01971Y01258*
X01971Y01257*
X01971Y01255*
X01971Y01254*
X01971Y01252*
X01971Y01251*
X01971Y0125*
X01972Y01248*
X01972Y01247*
X01973Y01246*
X01974Y01245*
X01975Y01244*
X01975Y01242*
X01976Y01241*
X01977Y0124*
X01978Y01239*
X0198Y01239*
X01981Y01238*
X01982Y01237*
X01983Y01237*
X01985Y01236*
X01986Y01236*
X01987Y01236*
X01989Y01235*
X0199Y01235*
X01991*
X01993Y01235*
X01994Y01236*
X01996Y01236*
X01997Y01236*
X01998Y01237*
X01999Y01237*
X02001Y01238*
X02002Y01239*
X02003Y01239*
X02004Y0124*
X02005Y01241*
X02006Y01242*
X02007Y01244*
X02008Y01245*
X02008Y01246*
X02009Y01247*
X02009Y01248*
X0201Y0125*
X0201Y01251*
X0201Y01252*
X02011Y01254*
X02011Y01255*
X03311Y00955D02*
D01*
X03311Y00957*
X0331Y00958*
X0331Y00959*
X0331Y00961*
X03309Y00962*
X03309Y00963*
X03308Y00965*
X03308Y00966*
X03307Y00967*
X03306Y00968*
X03305Y00969*
X03304Y0097*
X03303Y00971*
X03302Y00972*
X03301Y00973*
X03299Y00973*
X03298Y00974*
X03297Y00974*
X03296Y00975*
X03294Y00975*
X03293Y00975*
X03291Y00975*
X0329*
X03289Y00975*
X03287Y00975*
X03286Y00975*
X03285Y00974*
X03283Y00974*
X03282Y00973*
X03281Y00973*
X0328Y00972*
X03278Y00971*
X03277Y0097*
X03276Y00969*
X03275Y00968*
X03275Y00967*
X03274Y00966*
X03273Y00965*
X03272Y00963*
X03272Y00962*
X03271Y00961*
X03271Y00959*
X03271Y00958*
X03271Y00957*
X03271Y00955*
X03271Y00954*
X03271Y00952*
X03271Y00951*
X03271Y0095*
X03272Y00948*
X03272Y00947*
X03273Y00946*
X03274Y00945*
X03275Y00944*
X03275Y00942*
X03276Y00941*
X03277Y0094*
X03278Y00939*
X0328Y00939*
X03281Y00938*
X03282Y00937*
X03283Y00937*
X03285Y00936*
X03286Y00936*
X03287Y00936*
X03289Y00935*
X0329Y00935*
X03291*
X03293Y00935*
X03294Y00936*
X03296Y00936*
X03297Y00936*
X03298Y00937*
X03299Y00937*
X03301Y00938*
X03302Y00939*
X03303Y00939*
X03304Y0094*
X03305Y00941*
X03306Y00942*
X03307Y00944*
X03308Y00945*
X03308Y00946*
X03309Y00947*
X03309Y00948*
X0331Y0095*
X0331Y00951*
X0331Y00952*
X03311Y00954*
X03311Y00955*
X03211D02*
D01*
X03211Y00957*
X0321Y00958*
X0321Y00959*
X0321Y00961*
X03209Y00962*
X03209Y00963*
X03208Y00965*
X03208Y00966*
X03207Y00967*
X03206Y00968*
X03205Y00969*
X03204Y0097*
X03203Y00971*
X03202Y00972*
X03201Y00973*
X03199Y00973*
X03198Y00974*
X03197Y00974*
X03196Y00975*
X03194Y00975*
X03193Y00975*
X03191Y00975*
X0319*
X03189Y00975*
X03187Y00975*
X03186Y00975*
X03185Y00974*
X03183Y00974*
X03182Y00973*
X03181Y00973*
X0318Y00972*
X03178Y00971*
X03177Y0097*
X03176Y00969*
X03175Y00968*
X03175Y00967*
X03174Y00966*
X03173Y00965*
X03172Y00963*
X03172Y00962*
X03171Y00961*
X03171Y00959*
X03171Y00958*
X03171Y00957*
X03171Y00955*
X03171Y00954*
X03171Y00952*
X03171Y00951*
X03171Y0095*
X03172Y00948*
X03172Y00947*
X03173Y00946*
X03174Y00945*
X03175Y00944*
X03175Y00942*
X03176Y00941*
X03177Y0094*
X03178Y00939*
X0318Y00939*
X03181Y00938*
X03182Y00937*
X03183Y00937*
X03185Y00936*
X03186Y00936*
X03187Y00936*
X03189Y00935*
X0319Y00935*
X03191*
X03193Y00935*
X03194Y00936*
X03196Y00936*
X03197Y00936*
X03198Y00937*
X03199Y00937*
X03201Y00938*
X03202Y00939*
X03203Y00939*
X03204Y0094*
X03205Y00941*
X03206Y00942*
X03207Y00944*
X03208Y00945*
X03208Y00946*
X03209Y00947*
X03209Y00948*
X0321Y0095*
X0321Y00951*
X0321Y00952*
X03211Y00954*
X03211Y00955*
X03111D02*
D01*
X03111Y00957*
X0311Y00958*
X0311Y00959*
X0311Y00961*
X03109Y00962*
X03109Y00963*
X03108Y00965*
X03108Y00966*
X03107Y00967*
X03106Y00968*
X03105Y00969*
X03104Y0097*
X03103Y00971*
X03102Y00972*
X03101Y00973*
X03099Y00973*
X03098Y00974*
X03097Y00974*
X03096Y00975*
X03094Y00975*
X03093Y00975*
X03091Y00975*
X0309*
X03089Y00975*
X03087Y00975*
X03086Y00975*
X03085Y00974*
X03083Y00974*
X03082Y00973*
X03081Y00973*
X0308Y00972*
X03078Y00971*
X03077Y0097*
X03076Y00969*
X03075Y00968*
X03075Y00967*
X03074Y00966*
X03073Y00965*
X03072Y00963*
X03072Y00962*
X03071Y00961*
X03071Y00959*
X03071Y00958*
X03071Y00957*
X03071Y00955*
X03071Y00954*
X03071Y00952*
X03071Y00951*
X03071Y0095*
X03072Y00948*
X03072Y00947*
X03073Y00946*
X03074Y00945*
X03075Y00944*
X03075Y00942*
X03076Y00941*
X03077Y0094*
X03078Y00939*
X0308Y00939*
X03081Y00938*
X03082Y00937*
X03083Y00937*
X03085Y00936*
X03086Y00936*
X03087Y00936*
X03089Y00935*
X0309Y00935*
X03091*
X03093Y00935*
X03094Y00936*
X03096Y00936*
X03097Y00936*
X03098Y00937*
X03099Y00937*
X03101Y00938*
X03102Y00939*
X03103Y00939*
X03104Y0094*
X03105Y00941*
X03106Y00942*
X03107Y00944*
X03108Y00945*
X03108Y00946*
X03109Y00947*
X03109Y00948*
X0311Y0095*
X0311Y00951*
X0311Y00952*
X03111Y00954*
X03111Y00955*
X03011D02*
D01*
X03011Y00957*
X0301Y00958*
X0301Y00959*
X0301Y00961*
X03009Y00962*
X03009Y00963*
X03008Y00965*
X03008Y00966*
X03007Y00967*
X03006Y00968*
X03005Y00969*
X03004Y0097*
X03003Y00971*
X03002Y00972*
X03001Y00973*
X02999Y00973*
X02998Y00974*
X02997Y00974*
X02996Y00975*
X02994Y00975*
X02993Y00975*
X02991Y00975*
X0299*
X02989Y00975*
X02987Y00975*
X02986Y00975*
X02985Y00974*
X02983Y00974*
X02982Y00973*
X02981Y00973*
X0298Y00972*
X02978Y00971*
X02977Y0097*
X02976Y00969*
X02975Y00968*
X02975Y00967*
X02974Y00966*
X02973Y00965*
X02972Y00963*
X02972Y00962*
X02971Y00961*
X02971Y00959*
X02971Y00958*
X02971Y00957*
X02971Y00955*
X02971Y00954*
X02971Y00952*
X02971Y00951*
X02971Y0095*
X02972Y00948*
X02972Y00947*
X02973Y00946*
X02974Y00945*
X02975Y00944*
X02975Y00942*
X02976Y00941*
X02977Y0094*
X02978Y00939*
X0298Y00939*
X02981Y00938*
X02982Y00937*
X02983Y00937*
X02985Y00936*
X02986Y00936*
X02987Y00936*
X02989Y00935*
X0299Y00935*
X02991*
X02993Y00935*
X02994Y00936*
X02996Y00936*
X02997Y00936*
X02998Y00937*
X02999Y00937*
X03001Y00938*
X03002Y00939*
X03003Y00939*
X03004Y0094*
X03005Y00941*
X03006Y00942*
X03007Y00944*
X03008Y00945*
X03008Y00946*
X03009Y00947*
X03009Y00948*
X0301Y0095*
X0301Y00951*
X0301Y00952*
X03011Y00954*
X03011Y00955*
X02911D02*
D01*
X02911Y00957*
X0291Y00958*
X0291Y00959*
X0291Y00961*
X02909Y00962*
X02909Y00963*
X02908Y00965*
X02908Y00966*
X02907Y00967*
X02906Y00968*
X02905Y00969*
X02904Y0097*
X02903Y00971*
X02902Y00972*
X02901Y00973*
X02899Y00973*
X02898Y00974*
X02897Y00974*
X02896Y00975*
X02894Y00975*
X02893Y00975*
X02891Y00975*
X0289*
X02889Y00975*
X02887Y00975*
X02886Y00975*
X02885Y00974*
X02883Y00974*
X02882Y00973*
X02881Y00973*
X0288Y00972*
X02878Y00971*
X02877Y0097*
X02876Y00969*
X02875Y00968*
X02875Y00967*
X02874Y00966*
X02873Y00965*
X02872Y00963*
X02872Y00962*
X02871Y00961*
X02871Y00959*
X02871Y00958*
X02871Y00957*
X02871Y00955*
X02871Y00954*
X02871Y00952*
X02871Y00951*
X02871Y0095*
X02872Y00948*
X02872Y00947*
X02873Y00946*
X02874Y00945*
X02875Y00944*
X02875Y00942*
X02876Y00941*
X02877Y0094*
X02878Y00939*
X0288Y00939*
X02881Y00938*
X02882Y00937*
X02883Y00937*
X02885Y00936*
X02886Y00936*
X02887Y00936*
X02889Y00935*
X0289Y00935*
X02891*
X02893Y00935*
X02894Y00936*
X02896Y00936*
X02897Y00936*
X02898Y00937*
X02899Y00937*
X02901Y00938*
X02902Y00939*
X02903Y00939*
X02904Y0094*
X02905Y00941*
X02906Y00942*
X02907Y00944*
X02908Y00945*
X02908Y00946*
X02909Y00947*
X02909Y00948*
X0291Y0095*
X0291Y00951*
X0291Y00952*
X02911Y00954*
X02911Y00955*
X02811D02*
D01*
X02811Y00957*
X0281Y00958*
X0281Y00959*
X0281Y00961*
X02809Y00962*
X02809Y00963*
X02808Y00965*
X02808Y00966*
X02807Y00967*
X02806Y00968*
X02805Y00969*
X02804Y0097*
X02803Y00971*
X02802Y00972*
X02801Y00973*
X02799Y00973*
X02798Y00974*
X02797Y00974*
X02796Y00975*
X02794Y00975*
X02793Y00975*
X02791Y00975*
X0279*
X02789Y00975*
X02787Y00975*
X02786Y00975*
X02785Y00974*
X02783Y00974*
X02782Y00973*
X02781Y00973*
X0278Y00972*
X02778Y00971*
X02777Y0097*
X02776Y00969*
X02775Y00968*
X02775Y00967*
X02774Y00966*
X02773Y00965*
X02772Y00963*
X02772Y00962*
X02771Y00961*
X02771Y00959*
X02771Y00958*
X02771Y00957*
X02771Y00955*
X02771Y00954*
X02771Y00952*
X02771Y00951*
X02771Y0095*
X02772Y00948*
X02772Y00947*
X02773Y00946*
X02774Y00945*
X02775Y00944*
X02775Y00942*
X02776Y00941*
X02777Y0094*
X02778Y00939*
X0278Y00939*
X02781Y00938*
X02782Y00937*
X02783Y00937*
X02785Y00936*
X02786Y00936*
X02787Y00936*
X02789Y00935*
X0279Y00935*
X02791*
X02793Y00935*
X02794Y00936*
X02796Y00936*
X02797Y00936*
X02798Y00937*
X02799Y00937*
X02801Y00938*
X02802Y00939*
X02803Y00939*
X02804Y0094*
X02805Y00941*
X02806Y00942*
X02807Y00944*
X02808Y00945*
X02808Y00946*
X02809Y00947*
X02809Y00948*
X0281Y0095*
X0281Y00951*
X0281Y00952*
X02811Y00954*
X02811Y00955*
X02711D02*
D01*
X02711Y00957*
X0271Y00958*
X0271Y00959*
X0271Y00961*
X02709Y00962*
X02709Y00963*
X02708Y00965*
X02708Y00966*
X02707Y00967*
X02706Y00968*
X02705Y00969*
X02704Y0097*
X02703Y00971*
X02702Y00972*
X02701Y00973*
X02699Y00973*
X02698Y00974*
X02697Y00974*
X02696Y00975*
X02694Y00975*
X02693Y00975*
X02691Y00975*
X0269*
X02689Y00975*
X02687Y00975*
X02686Y00975*
X02685Y00974*
X02683Y00974*
X02682Y00973*
X02681Y00973*
X0268Y00972*
X02678Y00971*
X02677Y0097*
X02676Y00969*
X02675Y00968*
X02675Y00967*
X02674Y00966*
X02673Y00965*
X02672Y00963*
X02672Y00962*
X02671Y00961*
X02671Y00959*
X02671Y00958*
X02671Y00957*
X02671Y00955*
X02671Y00954*
X02671Y00952*
X02671Y00951*
X02671Y0095*
X02672Y00948*
X02672Y00947*
X02673Y00946*
X02674Y00945*
X02675Y00944*
X02675Y00942*
X02676Y00941*
X02677Y0094*
X02678Y00939*
X0268Y00939*
X02681Y00938*
X02682Y00937*
X02683Y00937*
X02685Y00936*
X02686Y00936*
X02687Y00936*
X02689Y00935*
X0269Y00935*
X02691*
X02693Y00935*
X02694Y00936*
X02696Y00936*
X02697Y00936*
X02698Y00937*
X02699Y00937*
X02701Y00938*
X02702Y00939*
X02703Y00939*
X02704Y0094*
X02705Y00941*
X02706Y00942*
X02707Y00944*
X02708Y00945*
X02708Y00946*
X02709Y00947*
X02709Y00948*
X0271Y0095*
X0271Y00951*
X0271Y00952*
X02711Y00954*
X02711Y00955*
X02611D02*
D01*
X02611Y00957*
X0261Y00958*
X0261Y00959*
X0261Y00961*
X02609Y00962*
X02609Y00963*
X02608Y00965*
X02608Y00966*
X02607Y00967*
X02606Y00968*
X02605Y00969*
X02604Y0097*
X02603Y00971*
X02602Y00972*
X02601Y00973*
X02599Y00973*
X02598Y00974*
X02597Y00974*
X02596Y00975*
X02594Y00975*
X02593Y00975*
X02591Y00975*
X0259*
X02589Y00975*
X02587Y00975*
X02586Y00975*
X02585Y00974*
X02583Y00974*
X02582Y00973*
X02581Y00973*
X0258Y00972*
X02578Y00971*
X02577Y0097*
X02576Y00969*
X02575Y00968*
X02575Y00967*
X02574Y00966*
X02573Y00965*
X02572Y00963*
X02572Y00962*
X02571Y00961*
X02571Y00959*
X02571Y00958*
X02571Y00957*
X02571Y00955*
X02571Y00954*
X02571Y00952*
X02571Y00951*
X02571Y0095*
X02572Y00948*
X02572Y00947*
X02573Y00946*
X02574Y00945*
X02575Y00944*
X02575Y00942*
X02576Y00941*
X02577Y0094*
X02578Y00939*
X0258Y00939*
X02581Y00938*
X02582Y00937*
X02583Y00937*
X02585Y00936*
X02586Y00936*
X02587Y00936*
X02589Y00935*
X0259Y00935*
X02591*
X02593Y00935*
X02594Y00936*
X02596Y00936*
X02597Y00936*
X02598Y00937*
X02599Y00937*
X02601Y00938*
X02602Y00939*
X02603Y00939*
X02604Y0094*
X02605Y00941*
X02606Y00942*
X02607Y00944*
X02608Y00945*
X02608Y00946*
X02609Y00947*
X02609Y00948*
X0261Y0095*
X0261Y00951*
X0261Y00952*
X02611Y00954*
X02611Y00955*
X02511D02*
D01*
X02511Y00957*
X0251Y00958*
X0251Y00959*
X0251Y00961*
X02509Y00962*
X02509Y00963*
X02508Y00965*
X02508Y00966*
X02507Y00967*
X02506Y00968*
X02505Y00969*
X02504Y0097*
X02503Y00971*
X02502Y00972*
X02501Y00973*
X02499Y00973*
X02498Y00974*
X02497Y00974*
X02496Y00975*
X02494Y00975*
X02493Y00975*
X02491Y00975*
X0249*
X02489Y00975*
X02487Y00975*
X02486Y00975*
X02485Y00974*
X02483Y00974*
X02482Y00973*
X02481Y00973*
X0248Y00972*
X02478Y00971*
X02477Y0097*
X02476Y00969*
X02475Y00968*
X02475Y00967*
X02474Y00966*
X02473Y00965*
X02472Y00963*
X02472Y00962*
X02471Y00961*
X02471Y00959*
X02471Y00958*
X02471Y00957*
X02471Y00955*
X02471Y00954*
X02471Y00952*
X02471Y00951*
X02471Y0095*
X02472Y00948*
X02472Y00947*
X02473Y00946*
X02474Y00945*
X02475Y00944*
X02475Y00942*
X02476Y00941*
X02477Y0094*
X02478Y00939*
X0248Y00939*
X02481Y00938*
X02482Y00937*
X02483Y00937*
X02485Y00936*
X02486Y00936*
X02487Y00936*
X02489Y00935*
X0249Y00935*
X02491*
X02493Y00935*
X02494Y00936*
X02496Y00936*
X02497Y00936*
X02498Y00937*
X02499Y00937*
X02501Y00938*
X02502Y00939*
X02503Y00939*
X02504Y0094*
X02505Y00941*
X02506Y00942*
X02507Y00944*
X02508Y00945*
X02508Y00946*
X02509Y00947*
X02509Y00948*
X0251Y0095*
X0251Y00951*
X0251Y00952*
X02511Y00954*
X02511Y00955*
X02411D02*
D01*
X02411Y00957*
X0241Y00958*
X0241Y00959*
X0241Y00961*
X02409Y00962*
X02409Y00963*
X02408Y00965*
X02408Y00966*
X02407Y00967*
X02406Y00968*
X02405Y00969*
X02404Y0097*
X02403Y00971*
X02402Y00972*
X02401Y00973*
X02399Y00973*
X02398Y00974*
X02397Y00974*
X02396Y00975*
X02394Y00975*
X02393Y00975*
X02391Y00975*
X0239*
X02389Y00975*
X02387Y00975*
X02386Y00975*
X02385Y00974*
X02383Y00974*
X02382Y00973*
X02381Y00973*
X0238Y00972*
X02378Y00971*
X02377Y0097*
X02376Y00969*
X02375Y00968*
X02375Y00967*
X02374Y00966*
X02373Y00965*
X02372Y00963*
X02372Y00962*
X02371Y00961*
X02371Y00959*
X02371Y00958*
X02371Y00957*
X02371Y00955*
X02371Y00954*
X02371Y00952*
X02371Y00951*
X02371Y0095*
X02372Y00948*
X02372Y00947*
X02373Y00946*
X02374Y00945*
X02375Y00944*
X02375Y00942*
X02376Y00941*
X02377Y0094*
X02378Y00939*
X0238Y00939*
X02381Y00938*
X02382Y00937*
X02383Y00937*
X02385Y00936*
X02386Y00936*
X02387Y00936*
X02389Y00935*
X0239Y00935*
X02391*
X02393Y00935*
X02394Y00936*
X02396Y00936*
X02397Y00936*
X02398Y00937*
X02399Y00937*
X02401Y00938*
X02402Y00939*
X02403Y00939*
X02404Y0094*
X02405Y00941*
X02406Y00942*
X02407Y00944*
X02408Y00945*
X02408Y00946*
X02409Y00947*
X02409Y00948*
X0241Y0095*
X0241Y00951*
X0241Y00952*
X02411Y00954*
X02411Y00955*
X02311D02*
D01*
X02311Y00957*
X0231Y00958*
X0231Y00959*
X0231Y00961*
X02309Y00962*
X02309Y00963*
X02308Y00965*
X02308Y00966*
X02307Y00967*
X02306Y00968*
X02305Y00969*
X02304Y0097*
X02303Y00971*
X02302Y00972*
X02301Y00973*
X02299Y00973*
X02298Y00974*
X02297Y00974*
X02296Y00975*
X02294Y00975*
X02293Y00975*
X02291Y00975*
X0229*
X02289Y00975*
X02287Y00975*
X02286Y00975*
X02285Y00974*
X02283Y00974*
X02282Y00973*
X02281Y00973*
X0228Y00972*
X02278Y00971*
X02277Y0097*
X02276Y00969*
X02275Y00968*
X02275Y00967*
X02274Y00966*
X02273Y00965*
X02272Y00963*
X02272Y00962*
X02271Y00961*
X02271Y00959*
X02271Y00958*
X02271Y00957*
X02271Y00955*
X02271Y00954*
X02271Y00952*
X02271Y00951*
X02271Y0095*
X02272Y00948*
X02272Y00947*
X02273Y00946*
X02274Y00945*
X02275Y00944*
X02275Y00942*
X02276Y00941*
X02277Y0094*
X02278Y00939*
X0228Y00939*
X02281Y00938*
X02282Y00937*
X02283Y00937*
X02285Y00936*
X02286Y00936*
X02287Y00936*
X02289Y00935*
X0229Y00935*
X02291*
X02293Y00935*
X02294Y00936*
X02296Y00936*
X02297Y00936*
X02298Y00937*
X02299Y00937*
X02301Y00938*
X02302Y00939*
X02303Y00939*
X02304Y0094*
X02305Y00941*
X02306Y00942*
X02307Y00944*
X02308Y00945*
X02308Y00946*
X02309Y00947*
X02309Y00948*
X0231Y0095*
X0231Y00951*
X0231Y00952*
X02311Y00954*
X02311Y00955*
X02211D02*
D01*
X02211Y00957*
X0221Y00958*
X0221Y00959*
X0221Y00961*
X02209Y00962*
X02209Y00963*
X02208Y00965*
X02208Y00966*
X02207Y00967*
X02206Y00968*
X02205Y00969*
X02204Y0097*
X02203Y00971*
X02202Y00972*
X02201Y00973*
X02199Y00973*
X02198Y00974*
X02197Y00974*
X02196Y00975*
X02194Y00975*
X02193Y00975*
X02191Y00975*
X0219*
X02189Y00975*
X02187Y00975*
X02186Y00975*
X02185Y00974*
X02183Y00974*
X02182Y00973*
X02181Y00973*
X0218Y00972*
X02178Y00971*
X02177Y0097*
X02176Y00969*
X02175Y00968*
X02175Y00967*
X02174Y00966*
X02173Y00965*
X02172Y00963*
X02172Y00962*
X02171Y00961*
X02171Y00959*
X02171Y00958*
X02171Y00957*
X02171Y00955*
X02171Y00954*
X02171Y00952*
X02171Y00951*
X02171Y0095*
X02172Y00948*
X02172Y00947*
X02173Y00946*
X02174Y00945*
X02175Y00944*
X02175Y00942*
X02176Y00941*
X02177Y0094*
X02178Y00939*
X0218Y00939*
X02181Y00938*
X02182Y00937*
X02183Y00937*
X02185Y00936*
X02186Y00936*
X02187Y00936*
X02189Y00935*
X0219Y00935*
X02191*
X02193Y00935*
X02194Y00936*
X02196Y00936*
X02197Y00936*
X02198Y00937*
X02199Y00937*
X02201Y00938*
X02202Y00939*
X02203Y00939*
X02204Y0094*
X02205Y00941*
X02206Y00942*
X02207Y00944*
X02208Y00945*
X02208Y00946*
X02209Y00947*
X02209Y00948*
X0221Y0095*
X0221Y00951*
X0221Y00952*
X02211Y00954*
X02211Y00955*
X02111D02*
D01*
X02111Y00957*
X0211Y00958*
X0211Y00959*
X0211Y00961*
X02109Y00962*
X02109Y00963*
X02108Y00965*
X02108Y00966*
X02107Y00967*
X02106Y00968*
X02105Y00969*
X02104Y0097*
X02103Y00971*
X02102Y00972*
X02101Y00973*
X02099Y00973*
X02098Y00974*
X02097Y00974*
X02096Y00975*
X02094Y00975*
X02093Y00975*
X02091Y00975*
X0209*
X02089Y00975*
X02087Y00975*
X02086Y00975*
X02085Y00974*
X02083Y00974*
X02082Y00973*
X02081Y00973*
X0208Y00972*
X02078Y00971*
X02077Y0097*
X02076Y00969*
X02075Y00968*
X02075Y00967*
X02074Y00966*
X02073Y00965*
X02072Y00963*
X02072Y00962*
X02071Y00961*
X02071Y00959*
X02071Y00958*
X02071Y00957*
X02071Y00955*
X02071Y00954*
X02071Y00952*
X02071Y00951*
X02071Y0095*
X02072Y00948*
X02072Y00947*
X02073Y00946*
X02074Y00945*
X02075Y00944*
X02075Y00942*
X02076Y00941*
X02077Y0094*
X02078Y00939*
X0208Y00939*
X02081Y00938*
X02082Y00937*
X02083Y00937*
X02085Y00936*
X02086Y00936*
X02087Y00936*
X02089Y00935*
X0209Y00935*
X02091*
X02093Y00935*
X02094Y00936*
X02096Y00936*
X02097Y00936*
X02098Y00937*
X02099Y00937*
X02101Y00938*
X02102Y00939*
X02103Y00939*
X02104Y0094*
X02105Y00941*
X02106Y00942*
X02107Y00944*
X02108Y00945*
X02108Y00946*
X02109Y00947*
X02109Y00948*
X0211Y0095*
X0211Y00951*
X0211Y00952*
X02111Y00954*
X02111Y00955*
X02011D02*
D01*
X02011Y00957*
X0201Y00958*
X0201Y00959*
X0201Y00961*
X02009Y00962*
X02009Y00963*
X02008Y00965*
X02008Y00966*
X02007Y00967*
X02006Y00968*
X02005Y00969*
X02004Y0097*
X02003Y00971*
X02002Y00972*
X02001Y00973*
X01999Y00973*
X01998Y00974*
X01997Y00974*
X01996Y00975*
X01994Y00975*
X01993Y00975*
X01991Y00975*
X0199*
X01989Y00975*
X01987Y00975*
X01986Y00975*
X01985Y00974*
X01983Y00974*
X01982Y00973*
X01981Y00973*
X0198Y00972*
X01978Y00971*
X01977Y0097*
X01976Y00969*
X01975Y00968*
X01975Y00967*
X01974Y00966*
X01973Y00965*
X01972Y00963*
X01972Y00962*
X01971Y00961*
X01971Y00959*
X01971Y00958*
X01971Y00957*
X01971Y00955*
X01971Y00954*
X01971Y00952*
X01971Y00951*
X01971Y0095*
X01972Y00948*
X01972Y00947*
X01973Y00946*
X01974Y00945*
X01975Y00944*
X01975Y00942*
X01976Y00941*
X01977Y0094*
X01978Y00939*
X0198Y00939*
X01981Y00938*
X01982Y00937*
X01983Y00937*
X01985Y00936*
X01986Y00936*
X01987Y00936*
X01989Y00935*
X0199Y00935*
X01991*
X01993Y00935*
X01994Y00936*
X01996Y00936*
X01997Y00936*
X01998Y00937*
X01999Y00937*
X02001Y00938*
X02002Y00939*
X02003Y00939*
X02004Y0094*
X02005Y00941*
X02006Y00942*
X02007Y00944*
X02008Y00945*
X02008Y00946*
X02009Y00947*
X02009Y00948*
X0201Y0095*
X0201Y00951*
X0201Y00952*
X02011Y00954*
X02011Y00955*
X0655Y02034D02*
D01*
X0655Y02035*
X0655Y02036*
X0655Y02038*
X06549Y02039*
X06549Y0204*
X06548Y02042*
X06548Y02043*
X06547Y02044*
X06546Y02045*
X06545Y02046*
X06544Y02047*
X06543Y02048*
X06542Y02049*
X06541Y0205*
X0654Y02051*
X06539Y02051*
X06537Y02052*
X06536Y02053*
X06535Y02053*
X06533Y02053*
X06532Y02053*
X06531Y02053*
X06529*
X06528Y02053*
X06527Y02053*
X06525Y02053*
X06524Y02053*
X06523Y02052*
X06521Y02051*
X0652Y02051*
X06519Y0205*
X06518Y02049*
X06517Y02048*
X06516Y02047*
X06515Y02046*
X06514Y02045*
X06513Y02044*
X06512Y02043*
X06512Y02042*
X06511Y0204*
X06511Y02039*
X0651Y02038*
X0651Y02036*
X0651Y02035*
X0651Y02034*
X0651Y02032*
X0651Y02031*
X0651Y02029*
X06511Y02028*
X06511Y02027*
X06512Y02025*
X06512Y02024*
X06513Y02023*
X06514Y02022*
X06515Y02021*
X06516Y0202*
X06517Y02019*
X06518Y02018*
X06519Y02017*
X0652Y02016*
X06521Y02016*
X06523Y02015*
X06524Y02014*
X06525Y02014*
X06527Y02014*
X06528Y02014*
X06529Y02014*
X06531*
X06532Y02014*
X06533Y02014*
X06535Y02014*
X06536Y02014*
X06537Y02015*
X06539Y02016*
X0654Y02016*
X06541Y02017*
X06542Y02018*
X06543Y02019*
X06544Y0202*
X06545Y02021*
X06546Y02022*
X06547Y02023*
X06548Y02024*
X06548Y02025*
X06549Y02027*
X06549Y02028*
X0655Y02029*
X0655Y02031*
X0655Y02032*
X0655Y02034*
Y02219D02*
D01*
X0655Y0222*
X0655Y02221*
X0655Y02223*
X06549Y02224*
X06549Y02225*
X06548Y02227*
X06548Y02228*
X06547Y02229*
X06546Y0223*
X06545Y02231*
X06544Y02232*
X06543Y02233*
X06542Y02234*
X06541Y02235*
X0654Y02236*
X06539Y02236*
X06537Y02237*
X06536Y02238*
X06535Y02238*
X06533Y02238*
X06532Y02238*
X06531Y02238*
X06529*
X06528Y02238*
X06527Y02238*
X06525Y02238*
X06524Y02238*
X06523Y02237*
X06521Y02236*
X0652Y02236*
X06519Y02235*
X06518Y02234*
X06517Y02233*
X06516Y02232*
X06515Y02231*
X06514Y0223*
X06513Y02229*
X06512Y02228*
X06512Y02227*
X06511Y02225*
X06511Y02224*
X0651Y02223*
X0651Y02221*
X0651Y0222*
X0651Y02219*
X0651Y02217*
X0651Y02216*
X0651Y02214*
X06511Y02213*
X06511Y02212*
X06512Y0221*
X06512Y02209*
X06513Y02208*
X06514Y02207*
X06515Y02206*
X06516Y02205*
X06517Y02204*
X06518Y02203*
X06519Y02202*
X0652Y02201*
X06521Y02201*
X06523Y022*
X06524Y02199*
X06525Y02199*
X06527Y02199*
X06528Y02199*
X06529Y02199*
X06531*
X06532Y02199*
X06533Y02199*
X06535Y02199*
X06536Y02199*
X06537Y022*
X06539Y02201*
X0654Y02201*
X06541Y02202*
X06542Y02203*
X06543Y02204*
X06544Y02205*
X06545Y02206*
X06546Y02207*
X06547Y02208*
X06548Y02209*
X06548Y0221*
X06549Y02212*
X06549Y02213*
X0655Y02214*
X0655Y02216*
X0655Y02217*
X0655Y02219*
X06485Y02034D02*
D01*
X06485Y02035*
X06485Y02036*
X06485Y02038*
X06484Y02039*
X06484Y0204*
X06483Y02042*
X06483Y02043*
X06482Y02044*
X06481Y02045*
X0648Y02046*
X06479Y02047*
X06478Y02048*
X06477Y02049*
X06476Y0205*
X06475Y02051*
X06474Y02051*
X06472Y02052*
X06471Y02053*
X0647Y02053*
X06468Y02053*
X06467Y02053*
X06466Y02053*
X06464*
X06463Y02053*
X06462Y02053*
X0646Y02053*
X06459Y02053*
X06458Y02052*
X06456Y02051*
X06455Y02051*
X06454Y0205*
X06453Y02049*
X06452Y02048*
X06451Y02047*
X0645Y02046*
X06449Y02045*
X06448Y02044*
X06447Y02043*
X06447Y02042*
X06446Y0204*
X06446Y02039*
X06445Y02038*
X06445Y02036*
X06445Y02035*
X06445Y02034*
X06445Y02032*
X06445Y02031*
X06445Y02029*
X06446Y02028*
X06446Y02027*
X06447Y02025*
X06447Y02024*
X06448Y02023*
X06449Y02022*
X0645Y02021*
X06451Y0202*
X06452Y02019*
X06453Y02018*
X06454Y02017*
X06455Y02016*
X06456Y02016*
X06458Y02015*
X06459Y02014*
X0646Y02014*
X06462Y02014*
X06463Y02014*
X06464Y02014*
X06466*
X06467Y02014*
X06468Y02014*
X0647Y02014*
X06471Y02014*
X06472Y02015*
X06474Y02016*
X06475Y02016*
X06476Y02017*
X06477Y02018*
X06478Y02019*
X06479Y0202*
X0648Y02021*
X06481Y02022*
X06482Y02023*
X06483Y02024*
X06483Y02025*
X06484Y02027*
X06484Y02028*
X06485Y02029*
X06485Y02031*
X06485Y02032*
X06485Y02034*
Y02219D02*
D01*
X06485Y0222*
X06485Y02221*
X06485Y02223*
X06484Y02224*
X06484Y02225*
X06483Y02227*
X06483Y02228*
X06482Y02229*
X06481Y0223*
X0648Y02231*
X06479Y02232*
X06478Y02233*
X06477Y02234*
X06476Y02235*
X06475Y02236*
X06474Y02236*
X06472Y02237*
X06471Y02238*
X0647Y02238*
X06468Y02238*
X06467Y02238*
X06466Y02238*
X06464*
X06463Y02238*
X06462Y02238*
X0646Y02238*
X06459Y02238*
X06458Y02237*
X06456Y02236*
X06455Y02236*
X06454Y02235*
X06453Y02234*
X06452Y02233*
X06451Y02232*
X0645Y02231*
X06449Y0223*
X06448Y02229*
X06447Y02228*
X06447Y02227*
X06446Y02225*
X06446Y02224*
X06445Y02223*
X06445Y02221*
X06445Y0222*
X06445Y02219*
X06445Y02217*
X06445Y02216*
X06445Y02214*
X06446Y02213*
X06446Y02212*
X06447Y0221*
X06447Y02209*
X06448Y02208*
X06449Y02207*
X0645Y02206*
X06451Y02205*
X06452Y02204*
X06453Y02203*
X06454Y02202*
X06455Y02201*
X06456Y02201*
X06458Y022*
X06459Y02199*
X0646Y02199*
X06462Y02199*
X06463Y02199*
X06464Y02199*
X06466*
X06467Y02199*
X06468Y02199*
X0647Y02199*
X06471Y02199*
X06472Y022*
X06474Y02201*
X06475Y02201*
X06476Y02202*
X06477Y02203*
X06478Y02204*
X06479Y02205*
X0648Y02206*
X06481Y02207*
X06482Y02208*
X06483Y02209*
X06483Y0221*
X06484Y02212*
X06484Y02213*
X06485Y02214*
X06485Y02216*
X06485Y02217*
X06485Y02219*
X05814Y02218D02*
D01*
X05814Y02219*
X05814Y0222*
X05814Y02222*
X05813Y02223*
X05813Y02224*
X05812Y02226*
X05812Y02227*
X05811Y02228*
X0581Y02229*
X05809Y0223*
X05808Y02231*
X05807Y02232*
X05806Y02233*
X05805Y02234*
X05804Y02235*
X05803Y02235*
X05801Y02236*
X058Y02237*
X05799Y02237*
X05797Y02237*
X05796Y02237*
X05795Y02237*
X05793*
X05792Y02237*
X05791Y02237*
X05789Y02237*
X05788Y02237*
X05787Y02236*
X05785Y02235*
X05784Y02235*
X05783Y02234*
X05782Y02233*
X05781Y02232*
X0578Y02231*
X05779Y0223*
X05778Y02229*
X05777Y02228*
X05776Y02227*
X05776Y02226*
X05775Y02224*
X05775Y02223*
X05774Y02222*
X05774Y0222*
X05774Y02219*
X05774Y02218*
X05774Y02216*
X05774Y02215*
X05774Y02213*
X05775Y02212*
X05775Y02211*
X05776Y02209*
X05776Y02208*
X05777Y02207*
X05778Y02206*
X05779Y02205*
X0578Y02204*
X05781Y02203*
X05782Y02202*
X05783Y02201*
X05784Y022*
X05785Y022*
X05787Y02199*
X05788Y02198*
X05789Y02198*
X05791Y02198*
X05792Y02198*
X05793Y02198*
X05795*
X05796Y02198*
X05797Y02198*
X05799Y02198*
X058Y02198*
X05801Y02199*
X05803Y022*
X05804Y022*
X05805Y02201*
X05806Y02202*
X05807Y02203*
X05808Y02204*
X05809Y02205*
X0581Y02206*
X05811Y02207*
X05812Y02208*
X05812Y02209*
X05813Y02211*
X05813Y02212*
X05814Y02213*
X05814Y02215*
X05814Y02216*
X05814Y02218*
Y02033D02*
D01*
X05814Y02034*
X05814Y02035*
X05814Y02037*
X05813Y02038*
X05813Y02039*
X05812Y02041*
X05812Y02042*
X05811Y02043*
X0581Y02044*
X05809Y02045*
X05808Y02046*
X05807Y02047*
X05806Y02048*
X05805Y02049*
X05804Y0205*
X05803Y0205*
X05801Y02051*
X058Y02052*
X05799Y02052*
X05797Y02052*
X05796Y02052*
X05795Y02052*
X05793*
X05792Y02052*
X05791Y02052*
X05789Y02052*
X05788Y02052*
X05787Y02051*
X05785Y0205*
X05784Y0205*
X05783Y02049*
X05782Y02048*
X05781Y02047*
X0578Y02046*
X05779Y02045*
X05778Y02044*
X05777Y02043*
X05776Y02042*
X05776Y02041*
X05775Y02039*
X05775Y02038*
X05774Y02037*
X05774Y02035*
X05774Y02034*
X05774Y02033*
X05774Y02031*
X05774Y0203*
X05774Y02028*
X05775Y02027*
X05775Y02026*
X05776Y02024*
X05776Y02023*
X05777Y02022*
X05778Y02021*
X05779Y0202*
X0578Y02019*
X05781Y02018*
X05782Y02017*
X05783Y02016*
X05784Y02015*
X05785Y02015*
X05787Y02014*
X05788Y02013*
X05789Y02013*
X05791Y02013*
X05792Y02013*
X05793Y02013*
X05795*
X05796Y02013*
X05797Y02013*
X05799Y02013*
X058Y02013*
X05801Y02014*
X05803Y02015*
X05804Y02015*
X05805Y02016*
X05806Y02017*
X05807Y02018*
X05808Y02019*
X05809Y0202*
X0581Y02021*
X05811Y02022*
X05812Y02023*
X05812Y02024*
X05813Y02026*
X05813Y02027*
X05814Y02028*
X05814Y0203*
X05814Y02031*
X05814Y02033*
X05879Y02218D02*
D01*
X05879Y02219*
X05879Y0222*
X05879Y02222*
X05878Y02223*
X05878Y02224*
X05877Y02226*
X05877Y02227*
X05876Y02228*
X05875Y02229*
X05874Y0223*
X05873Y02231*
X05872Y02232*
X05871Y02233*
X0587Y02234*
X05869Y02235*
X05868Y02235*
X05866Y02236*
X05865Y02237*
X05864Y02237*
X05862Y02237*
X05861Y02237*
X0586Y02237*
X05858*
X05857Y02237*
X05856Y02237*
X05854Y02237*
X05853Y02237*
X05852Y02236*
X0585Y02235*
X05849Y02235*
X05848Y02234*
X05847Y02233*
X05846Y02232*
X05845Y02231*
X05844Y0223*
X05843Y02229*
X05842Y02228*
X05841Y02227*
X05841Y02226*
X0584Y02224*
X0584Y02223*
X05839Y02222*
X05839Y0222*
X05839Y02219*
X05839Y02218*
X05839Y02216*
X05839Y02215*
X05839Y02213*
X0584Y02212*
X0584Y02211*
X05841Y02209*
X05841Y02208*
X05842Y02207*
X05843Y02206*
X05844Y02205*
X05845Y02204*
X05846Y02203*
X05847Y02202*
X05848Y02201*
X05849Y022*
X0585Y022*
X05852Y02199*
X05853Y02198*
X05854Y02198*
X05856Y02198*
X05857Y02198*
X05858Y02198*
X0586*
X05861Y02198*
X05862Y02198*
X05864Y02198*
X05865Y02198*
X05866Y02199*
X05868Y022*
X05869Y022*
X0587Y02201*
X05871Y02202*
X05872Y02203*
X05873Y02204*
X05874Y02205*
X05875Y02206*
X05876Y02207*
X05877Y02208*
X05877Y02209*
X05878Y02211*
X05878Y02212*
X05879Y02213*
X05879Y02215*
X05879Y02216*
X05879Y02218*
Y02033D02*
D01*
X05879Y02034*
X05879Y02035*
X05879Y02037*
X05878Y02038*
X05878Y02039*
X05877Y02041*
X05877Y02042*
X05876Y02043*
X05875Y02044*
X05874Y02045*
X05873Y02046*
X05872Y02047*
X05871Y02048*
X0587Y02049*
X05869Y0205*
X05868Y0205*
X05866Y02051*
X05865Y02052*
X05864Y02052*
X05862Y02052*
X05861Y02052*
X0586Y02052*
X05858*
X05857Y02052*
X05856Y02052*
X05854Y02052*
X05853Y02052*
X05852Y02051*
X0585Y0205*
X05849Y0205*
X05848Y02049*
X05847Y02048*
X05846Y02047*
X05845Y02046*
X05844Y02045*
X05843Y02044*
X05842Y02043*
X05841Y02042*
X05841Y02041*
X0584Y02039*
X0584Y02038*
X05839Y02037*
X05839Y02035*
X05839Y02034*
X05839Y02033*
X05839Y02031*
X05839Y0203*
X05839Y02028*
X0584Y02027*
X0584Y02026*
X05841Y02024*
X05841Y02023*
X05842Y02022*
X05843Y02021*
X05844Y0202*
X05845Y02019*
X05846Y02018*
X05847Y02017*
X05848Y02016*
X05849Y02015*
X0585Y02015*
X05852Y02014*
X05853Y02013*
X05854Y02013*
X05856Y02013*
X05857Y02013*
X05858Y02013*
X0586*
X05861Y02013*
X05862Y02013*
X05864Y02013*
X05865Y02013*
X05866Y02014*
X05868Y02015*
X05869Y02015*
X0587Y02016*
X05871Y02017*
X05872Y02018*
X05873Y02019*
X05874Y0202*
X05875Y02021*
X05876Y02022*
X05877Y02023*
X05877Y02024*
X05878Y02026*
X05878Y02027*
X05879Y02028*
X05879Y0203*
X05879Y02031*
X05879Y02033*
X01421Y00626D02*
D01*
X01421Y00628*
X01421Y00629*
X01421Y0063*
X01421Y00632*
X0142Y00633*
X0142Y00634*
X01419Y00636*
X01418Y00637*
X01418Y00638*
X01417Y00639*
X01416Y0064*
X01415Y00641*
X01414Y00642*
X01413Y00643*
X01411Y00644*
X0141Y00644*
X01409Y00645*
X01408Y00645*
X01406Y00646*
X01405Y00646*
X01403Y00646*
X01402Y00646*
X01401*
X01399Y00646*
X01398Y00646*
X01396Y00646*
X01395Y00645*
X01394Y00645*
X01393Y00644*
X01391Y00644*
X0139Y00643*
X01389Y00642*
X01388Y00641*
X01387Y0064*
X01386Y00639*
X01385Y00638*
X01384Y00637*
X01384Y00636*
X01383Y00634*
X01383Y00633*
X01382Y00632*
X01382Y0063*
X01382Y00629*
X01381Y00628*
X01381Y00626*
X01381Y00625*
X01382Y00623*
X01382Y00622*
X01382Y00621*
X01383Y00619*
X01383Y00618*
X01384Y00617*
X01384Y00616*
X01385Y00614*
X01386Y00613*
X01387Y00612*
X01388Y00611*
X01389Y0061*
X0139Y0061*
X01391Y00609*
X01393Y00608*
X01394Y00608*
X01395Y00607*
X01396Y00607*
X01398Y00606*
X01399Y00606*
X01401Y00606*
X01402*
X01403Y00606*
X01405Y00606*
X01406Y00607*
X01408Y00607*
X01409Y00608*
X0141Y00608*
X01411Y00609*
X01413Y0061*
X01414Y0061*
X01415Y00611*
X01416Y00612*
X01417Y00613*
X01418Y00614*
X01418Y00616*
X01419Y00617*
X0142Y00618*
X0142Y00619*
X01421Y00621*
X01421Y00622*
X01421Y00623*
X01421Y00625*
X01421Y00626*
X05132Y00307D02*
D01*
X05132Y00308*
X05132Y00309*
X05132Y00311*
X05131Y00312*
X05131Y00313*
X0513Y00315*
X0513Y00316*
X05129Y00317*
X05128Y00318*
X05127Y00319*
X05126Y0032*
X05125Y00321*
X05124Y00322*
X05123Y00323*
X05122Y00324*
X05121Y00324*
X05119Y00325*
X05118Y00326*
X05117Y00326*
X05115Y00326*
X05114Y00326*
X05113Y00326*
X05111*
X0511Y00326*
X05109Y00326*
X05107Y00326*
X05106Y00326*
X05105Y00325*
X05103Y00324*
X05102Y00324*
X05101Y00323*
X051Y00322*
X05099Y00321*
X05098Y0032*
X05097Y00319*
X05096Y00318*
X05095Y00317*
X05094Y00316*
X05094Y00315*
X05093Y00313*
X05093Y00312*
X05092Y00311*
X05092Y00309*
X05092Y00308*
X05092Y00307*
X05092Y00305*
X05092Y00304*
X05092Y00302*
X05093Y00301*
X05093Y003*
X05094Y00298*
X05094Y00297*
X05095Y00296*
X05096Y00295*
X05097Y00294*
X05098Y00293*
X05099Y00292*
X051Y00291*
X05101Y0029*
X05102Y00289*
X05103Y00289*
X05105Y00288*
X05106Y00287*
X05107Y00287*
X05109Y00287*
X0511Y00287*
X05111Y00287*
X05113*
X05114Y00287*
X05115Y00287*
X05117Y00287*
X05118Y00287*
X05119Y00288*
X05121Y00289*
X05122Y00289*
X05123Y0029*
X05124Y00291*
X05125Y00292*
X05126Y00293*
X05127Y00294*
X05128Y00295*
X05129Y00296*
X0513Y00297*
X0513Y00298*
X05131Y003*
X05131Y00301*
X05132Y00302*
X05132Y00304*
X05132Y00305*
X05132Y00307*
X0519Y00873D02*
D01*
X0519Y00874*
X0519Y00875*
X0519Y00877*
X05189Y00878*
X05189Y00879*
X05188Y00881*
X05188Y00882*
X05187Y00883*
X05186Y00884*
X05185Y00885*
X05184Y00886*
X05183Y00887*
X05182Y00888*
X05181Y00889*
X0518Y0089*
X05179Y0089*
X05177Y00891*
X05176Y00892*
X05175Y00892*
X05173Y00892*
X05172Y00892*
X05171Y00892*
X05169*
X05168Y00892*
X05167Y00892*
X05165Y00892*
X05164Y00892*
X05163Y00891*
X05161Y0089*
X0516Y0089*
X05159Y00889*
X05158Y00888*
X05157Y00887*
X05156Y00886*
X05155Y00885*
X05154Y00884*
X05153Y00883*
X05152Y00882*
X05152Y00881*
X05151Y00879*
X05151Y00878*
X0515Y00877*
X0515Y00875*
X0515Y00874*
X0515Y00873*
X0515Y00871*
X0515Y0087*
X0515Y00868*
X05151Y00867*
X05151Y00866*
X05152Y00864*
X05152Y00863*
X05153Y00862*
X05154Y00861*
X05155Y0086*
X05156Y00859*
X05157Y00858*
X05158Y00857*
X05159Y00856*
X0516Y00855*
X05161Y00855*
X05163Y00854*
X05164Y00853*
X05165Y00853*
X05167Y00853*
X05168Y00853*
X05169Y00853*
X05171*
X05172Y00853*
X05173Y00853*
X05175Y00853*
X05176Y00853*
X05177Y00854*
X05179Y00855*
X0518Y00855*
X05181Y00856*
X05182Y00857*
X05183Y00858*
X05184Y00859*
X05185Y0086*
X05186Y00861*
X05187Y00862*
X05188Y00863*
X05188Y00864*
X05189Y00866*
X05189Y00867*
X0519Y00868*
X0519Y0087*
X0519Y00871*
X0519Y00873*
X02753Y0042D02*
D01*
X02753Y00421*
X02753Y00422*
X02753Y00424*
X02752Y00425*
X02752Y00426*
X02751Y00428*
X02751Y00429*
X0275Y0043*
X02749Y00431*
X02748Y00432*
X02747Y00433*
X02746Y00434*
X02745Y00435*
X02744Y00436*
X02743Y00437*
X02742Y00437*
X0274Y00438*
X02739Y00439*
X02738Y00439*
X02736Y00439*
X02735Y00439*
X02734Y00439*
X02732*
X02731Y00439*
X0273Y00439*
X02728Y00439*
X02727Y00439*
X02726Y00438*
X02724Y00437*
X02723Y00437*
X02722Y00436*
X02721Y00435*
X0272Y00434*
X02719Y00433*
X02718Y00432*
X02717Y00431*
X02716Y0043*
X02715Y00429*
X02715Y00428*
X02714Y00426*
X02714Y00425*
X02713Y00424*
X02713Y00422*
X02713Y00421*
X02713Y0042*
X02713Y00418*
X02713Y00417*
X02713Y00415*
X02714Y00414*
X02714Y00413*
X02715Y00411*
X02715Y0041*
X02716Y00409*
X02717Y00408*
X02718Y00407*
X02719Y00406*
X0272Y00405*
X02721Y00404*
X02722Y00403*
X02723Y00402*
X02724Y00402*
X02726Y00401*
X02727Y004*
X02728Y004*
X0273Y004*
X02731Y004*
X02732Y004*
X02734*
X02735Y004*
X02736Y004*
X02738Y004*
X02739Y004*
X0274Y00401*
X02742Y00402*
X02743Y00402*
X02744Y00403*
X02745Y00404*
X02746Y00405*
X02747Y00406*
X02748Y00407*
X02749Y00408*
X0275Y00409*
X02751Y0041*
X02751Y00411*
X02752Y00413*
X02752Y00414*
X02753Y00415*
X02753Y00417*
X02753Y00418*
X02753Y0042*
X03062Y00391D02*
D01*
X03062Y00392*
X03062Y00394*
X03062Y00395*
X03061Y00396*
X03061Y00398*
X0306Y00399*
X0306Y004*
X03059Y00401*
X03058Y00403*
X03057Y00404*
X03056Y00405*
X03055Y00406*
X03054Y00407*
X03053Y00407*
X03052Y00408*
X03051Y00409*
X03049Y00409*
X03048Y0041*
X03047Y0041*
X03045Y0041*
X03044Y00411*
X03043Y00411*
X03041*
X0304Y00411*
X03039Y0041*
X03037Y0041*
X03036Y0041*
X03035Y00409*
X03033Y00409*
X03032Y00408*
X03031Y00407*
X0303Y00407*
X03029Y00406*
X03028Y00405*
X03027Y00404*
X03026Y00403*
X03025Y00401*
X03024Y004*
X03024Y00399*
X03023Y00398*
X03023Y00396*
X03022Y00395*
X03022Y00394*
X03022Y00392*
X03022Y00391*
X03022Y00389*
X03022Y00388*
X03022Y00387*
X03023Y00385*
X03023Y00384*
X03024Y00383*
X03024Y00381*
X03025Y0038*
X03026Y00379*
X03027Y00378*
X03028Y00377*
X03029Y00376*
X0303Y00375*
X03031Y00374*
X03032Y00373*
X03033Y00373*
X03035Y00372*
X03036Y00372*
X03037Y00371*
X03039Y00371*
X0304Y00371*
X03041Y00371*
X03043*
X03044Y00371*
X03045Y00371*
X03047Y00371*
X03048Y00372*
X03049Y00372*
X03051Y00373*
X03052Y00373*
X03053Y00374*
X03054Y00375*
X03055Y00376*
X03056Y00377*
X03057Y00378*
X03058Y00379*
X03059Y0038*
X0306Y00381*
X0306Y00383*
X03061Y00384*
X03061Y00385*
X03062Y00387*
X03062Y00388*
X03062Y00389*
X03062Y00391*
Y00567D02*
D01*
X03062Y00569*
X03062Y0057*
X03062Y00571*
X03061Y00573*
X03061Y00574*
X0306Y00575*
X0306Y00577*
X03059Y00578*
X03058Y00579*
X03057Y0058*
X03056Y00581*
X03055Y00582*
X03054Y00583*
X03053Y00584*
X03052Y00584*
X03051Y00585*
X03049Y00586*
X03048Y00586*
X03047Y00587*
X03045Y00587*
X03044Y00587*
X03043Y00587*
X03041*
X0304Y00587*
X03039Y00587*
X03037Y00587*
X03036Y00586*
X03035Y00586*
X03033Y00585*
X03032Y00584*
X03031Y00584*
X0303Y00583*
X03029Y00582*
X03028Y00581*
X03027Y0058*
X03026Y00579*
X03025Y00578*
X03024Y00577*
X03024Y00575*
X03023Y00574*
X03023Y00573*
X03022Y00571*
X03022Y0057*
X03022Y00569*
X03022Y00567*
X03022Y00566*
X03022Y00564*
X03022Y00563*
X03023Y00562*
X03023Y0056*
X03024Y00559*
X03024Y00558*
X03025Y00557*
X03026Y00555*
X03027Y00554*
X03028Y00553*
X03029Y00552*
X0303Y00551*
X03031Y00551*
X03032Y0055*
X03033Y00549*
X03035Y00549*
X03036Y00548*
X03037Y00548*
X03039Y00547*
X0304Y00547*
X03041Y00547*
X03043*
X03044Y00547*
X03045Y00547*
X03047Y00548*
X03048Y00548*
X03049Y00549*
X03051Y00549*
X03052Y0055*
X03053Y00551*
X03054Y00551*
X03055Y00552*
X03056Y00553*
X03057Y00554*
X03058Y00555*
X03059Y00557*
X0306Y00558*
X0306Y00559*
X03061Y0056*
X03061Y00562*
X03062Y00563*
X03062Y00564*
X03062Y00566*
X03062Y00567*
X0082Y0124D02*
D01*
X0082Y01241*
X0082Y01242*
X0082Y01244*
X00819Y01245*
X00819Y01246*
X00818Y01248*
X00818Y01249*
X00817Y0125*
X00816Y01251*
X00815Y01252*
X00814Y01253*
X00813Y01254*
X00812Y01255*
X00811Y01256*
X0081Y01257*
X00809Y01257*
X00807Y01258*
X00806Y01259*
X00805Y01259*
X00803Y01259*
X00802Y01259*
X00801Y01259*
X00799*
X00798Y01259*
X00797Y01259*
X00795Y01259*
X00794Y01259*
X00793Y01258*
X00791Y01257*
X0079Y01257*
X00789Y01256*
X00788Y01255*
X00787Y01254*
X00786Y01253*
X00785Y01252*
X00784Y01251*
X00783Y0125*
X00782Y01249*
X00782Y01248*
X00781Y01246*
X00781Y01245*
X0078Y01244*
X0078Y01242*
X0078Y01241*
X0078Y0124*
X0078Y01238*
X0078Y01237*
X0078Y01235*
X00781Y01234*
X00781Y01233*
X00782Y01231*
X00782Y0123*
X00783Y01229*
X00784Y01228*
X00785Y01227*
X00786Y01226*
X00787Y01225*
X00788Y01224*
X00789Y01223*
X0079Y01222*
X00791Y01222*
X00793Y01221*
X00794Y0122*
X00795Y0122*
X00797Y0122*
X00798Y0122*
X00799Y0122*
X00801*
X00802Y0122*
X00803Y0122*
X00805Y0122*
X00806Y0122*
X00807Y01221*
X00809Y01222*
X0081Y01222*
X00811Y01223*
X00812Y01224*
X00813Y01225*
X00814Y01226*
X00815Y01227*
X00816Y01228*
X00817Y01229*
X00818Y0123*
X00818Y01231*
X00819Y01233*
X00819Y01234*
X0082Y01235*
X0082Y01237*
X0082Y01238*
X0082Y0124*
X02763Y01633D02*
D01*
X02763Y01634*
X02763Y01636*
X02763Y01637*
X02762Y01639*
X02762Y0164*
X02761Y01641*
X02761Y01642*
X0276Y01644*
X02759Y01645*
X02758Y01646*
X02757Y01647*
X02756Y01648*
X02755Y01649*
X02754Y0165*
X02753Y0165*
X02752Y01651*
X0275Y01652*
X02749Y01652*
X02748Y01652*
X02746Y01653*
X02745Y01653*
X02744Y01653*
X02742*
X02741Y01653*
X0274Y01653*
X02738Y01652*
X02737Y01652*
X02736Y01652*
X02734Y01651*
X02733Y0165*
X02732Y0165*
X02731Y01649*
X0273Y01648*
X02729Y01647*
X02728Y01646*
X02727Y01645*
X02726Y01644*
X02725Y01642*
X02725Y01641*
X02724Y0164*
X02724Y01639*
X02723Y01637*
X02723Y01636*
X02723Y01634*
X02723Y01633*
X02723Y01632*
X02723Y0163*
X02723Y01629*
X02724Y01627*
X02724Y01626*
X02725Y01625*
X02725Y01624*
X02726Y01622*
X02727Y01621*
X02728Y0162*
X02729Y01619*
X0273Y01618*
X02731Y01617*
X02732Y01616*
X02733Y01616*
X02734Y01615*
X02736Y01614*
X02737Y01614*
X02738Y01614*
X0274Y01613*
X02741Y01613*
X02742Y01613*
X02744*
X02745Y01613*
X02746Y01613*
X02748Y01614*
X02749Y01614*
X0275Y01614*
X02752Y01615*
X02753Y01616*
X02754Y01616*
X02755Y01617*
X02756Y01618*
X02757Y01619*
X02758Y0162*
X02759Y01621*
X0276Y01622*
X02761Y01624*
X02761Y01625*
X02762Y01626*
X02762Y01627*
X02763Y01629*
X02763Y0163*
X02763Y01632*
X02763Y01633*
X02728Y02204D02*
D01*
X02728Y02206*
X02728Y02207*
X02728Y02209*
X02727Y0221*
X02727Y02211*
X02726Y02213*
X02726Y02214*
X02725Y02215*
X02724Y02216*
X02723Y02217*
X02722Y02218*
X02721Y02219*
X0272Y0222*
X02719Y02221*
X02718Y02222*
X02717Y02222*
X02715Y02223*
X02714Y02223*
X02713Y02224*
X02711Y02224*
X0271Y02224*
X02709Y02224*
X02707*
X02706Y02224*
X02705Y02224*
X02703Y02224*
X02702Y02223*
X02701Y02223*
X02699Y02222*
X02698Y02222*
X02697Y02221*
X02696Y0222*
X02695Y02219*
X02694Y02218*
X02693Y02217*
X02692Y02216*
X02691Y02215*
X0269Y02214*
X0269Y02213*
X02689Y02211*
X02689Y0221*
X02688Y02209*
X02688Y02207*
X02688Y02206*
X02688Y02204*
X02688Y02203*
X02688Y02202*
X02688Y022*
X02689Y02199*
X02689Y02198*
X0269Y02196*
X0269Y02195*
X02691Y02194*
X02692Y02193*
X02693Y02192*
X02694Y02191*
X02695Y0219*
X02696Y02189*
X02697Y02188*
X02698Y02187*
X02699Y02186*
X02701Y02186*
X02702Y02185*
X02703Y02185*
X02705Y02185*
X02706Y02185*
X02707Y02184*
X02709*
X0271Y02185*
X02711Y02185*
X02713Y02185*
X02714Y02185*
X02715Y02186*
X02717Y02186*
X02718Y02187*
X02719Y02188*
X0272Y02189*
X02721Y0219*
X02722Y02191*
X02723Y02192*
X02724Y02193*
X02725Y02194*
X02726Y02195*
X02726Y02196*
X02727Y02198*
X02727Y02199*
X02728Y022*
X02728Y02202*
X02728Y02203*
X02728Y02204*
Y02427D02*
D01*
X02728Y02428*
X02728Y02429*
X02728Y02431*
X02727Y02432*
X02727Y02433*
X02726Y02435*
X02726Y02436*
X02725Y02437*
X02724Y02438*
X02723Y02439*
X02722Y0244*
X02721Y02441*
X0272Y02442*
X02719Y02443*
X02718Y02444*
X02717Y02444*
X02715Y02445*
X02714Y02446*
X02713Y02446*
X02711Y02446*
X0271Y02446*
X02709Y02446*
X02707*
X02706Y02446*
X02705Y02446*
X02703Y02446*
X02702Y02446*
X02701Y02445*
X02699Y02444*
X02698Y02444*
X02697Y02443*
X02696Y02442*
X02695Y02441*
X02694Y0244*
X02693Y02439*
X02692Y02438*
X02691Y02437*
X0269Y02436*
X0269Y02435*
X02689Y02433*
X02689Y02432*
X02688Y02431*
X02688Y02429*
X02688Y02428*
X02688Y02427*
X02688Y02425*
X02688Y02424*
X02688Y02422*
X02689Y02421*
X02689Y0242*
X0269Y02418*
X0269Y02417*
X02691Y02416*
X02692Y02415*
X02693Y02414*
X02694Y02413*
X02695Y02412*
X02696Y02411*
X02697Y0241*
X02698Y02409*
X02699Y02409*
X02701Y02408*
X02702Y02407*
X02703Y02407*
X02705Y02407*
X02706Y02407*
X02707Y02407*
X02709*
X0271Y02407*
X02711Y02407*
X02713Y02407*
X02714Y02407*
X02715Y02408*
X02717Y02409*
X02718Y02409*
X02719Y0241*
X0272Y02411*
X02721Y02412*
X02722Y02413*
X02723Y02414*
X02724Y02415*
X02725Y02416*
X02726Y02417*
X02726Y02418*
X02727Y0242*
X02727Y02421*
X02728Y02422*
X02728Y02424*
X02728Y02425*
X02728Y02427*
X01772Y01867D02*
D01*
X01772Y01868*
X01772Y0187*
X01772Y01871*
X01771Y01872*
X01771Y01874*
X0177Y01875*
X0177Y01876*
X01769Y01877*
X01768Y01879*
X01767Y0188*
X01766Y01881*
X01765Y01882*
X01764Y01883*
X01763Y01883*
X01762Y01884*
X01761Y01885*
X01759Y01885*
X01758Y01886*
X01757Y01886*
X01755Y01887*
X01754Y01887*
X01753Y01887*
X01751*
X0175Y01887*
X01749Y01887*
X01747Y01886*
X01746Y01886*
X01745Y01885*
X01743Y01885*
X01742Y01884*
X01741Y01883*
X0174Y01883*
X01739Y01882*
X01738Y01881*
X01737Y0188*
X01736Y01879*
X01735Y01877*
X01734Y01876*
X01734Y01875*
X01733Y01874*
X01733Y01872*
X01732Y01871*
X01732Y0187*
X01732Y01868*
X01732Y01867*
X01732Y01865*
X01732Y01864*
X01732Y01863*
X01733Y01861*
X01733Y0186*
X01734Y01859*
X01734Y01857*
X01735Y01856*
X01736Y01855*
X01737Y01854*
X01738Y01853*
X01739Y01852*
X0174Y01851*
X01741Y0185*
X01742Y0185*
X01743Y01849*
X01745Y01848*
X01746Y01848*
X01747Y01847*
X01749Y01847*
X0175Y01847*
X01751Y01847*
X01753*
X01754Y01847*
X01755Y01847*
X01757Y01847*
X01758Y01848*
X01759Y01848*
X01761Y01849*
X01762Y0185*
X01763Y0185*
X01764Y01851*
X01765Y01852*
X01766Y01853*
X01767Y01854*
X01768Y01855*
X01769Y01856*
X0177Y01857*
X0177Y01859*
X01771Y0186*
X01771Y01861*
X01772Y01863*
X01772Y01864*
X01772Y01865*
X01772Y01867*
X00958Y01956D02*
D01*
X00958Y01957*
X00958Y01958*
X00958Y0196*
X00957Y01961*
X00957Y01963*
X00956Y01964*
X00956Y01965*
X00955Y01966*
X00954Y01967*
X00953Y01969*
X00952Y0197*
X00951Y01971*
X0095Y01971*
X00949Y01972*
X00948Y01973*
X00947Y01974*
X00945Y01974*
X00944Y01975*
X00943Y01975*
X00941Y01975*
X0094Y01976*
X00939Y01976*
X00937*
X00936Y01976*
X00935Y01975*
X00933Y01975*
X00932Y01975*
X00931Y01974*
X00929Y01974*
X00928Y01973*
X00927Y01972*
X00926Y01971*
X00925Y01971*
X00924Y0197*
X00923Y01969*
X00922Y01967*
X00921Y01966*
X0092Y01965*
X0092Y01964*
X00919Y01963*
X00919Y01961*
X00918Y0196*
X00918Y01958*
X00918Y01957*
X00918Y01956*
X00918Y01954*
X00918Y01953*
X00918Y01952*
X00919Y0195*
X00919Y01949*
X0092Y01948*
X0092Y01946*
X00921Y01945*
X00922Y01944*
X00923Y01943*
X00924Y01942*
X00925Y01941*
X00926Y0194*
X00927Y01939*
X00928Y01938*
X00929Y01938*
X00931Y01937*
X00932Y01937*
X00933Y01936*
X00935Y01936*
X00936Y01936*
X00937Y01936*
X00939*
X0094Y01936*
X00941Y01936*
X00943Y01936*
X00944Y01937*
X00945Y01937*
X00947Y01938*
X00948Y01938*
X00949Y01939*
X0095Y0194*
X00951Y01941*
X00952Y01942*
X00953Y01943*
X00954Y01944*
X00955Y01945*
X00956Y01946*
X00956Y01948*
X00957Y01949*
X00957Y0195*
X00958Y01952*
X00958Y01953*
X00958Y01954*
X00958Y01956*
X01168D02*
D01*
X01168Y01957*
X01168Y01958*
X01168Y0196*
X01167Y01961*
X01167Y01963*
X01166Y01964*
X01166Y01965*
X01165Y01966*
X01164Y01967*
X01163Y01969*
X01162Y0197*
X01161Y01971*
X0116Y01971*
X01159Y01972*
X01158Y01973*
X01157Y01974*
X01155Y01974*
X01154Y01975*
X01153Y01975*
X01151Y01975*
X0115Y01976*
X01149Y01976*
X01147*
X01146Y01976*
X01145Y01975*
X01143Y01975*
X01142Y01975*
X01141Y01974*
X01139Y01974*
X01138Y01973*
X01137Y01972*
X01136Y01971*
X01135Y01971*
X01134Y0197*
X01133Y01969*
X01132Y01967*
X01131Y01966*
X0113Y01965*
X0113Y01964*
X01129Y01963*
X01129Y01961*
X01128Y0196*
X01128Y01958*
X01128Y01957*
X01128Y01956*
X01128Y01954*
X01128Y01953*
X01128Y01952*
X01129Y0195*
X01129Y01949*
X0113Y01948*
X0113Y01946*
X01131Y01945*
X01132Y01944*
X01133Y01943*
X01134Y01942*
X01135Y01941*
X01136Y0194*
X01137Y01939*
X01138Y01938*
X01139Y01938*
X01141Y01937*
X01142Y01937*
X01143Y01936*
X01145Y01936*
X01146Y01936*
X01147Y01936*
X01149*
X0115Y01936*
X01151Y01936*
X01153Y01936*
X01154Y01937*
X01155Y01937*
X01157Y01938*
X01158Y01938*
X01159Y01939*
X0116Y0194*
X01161Y01941*
X01162Y01942*
X01163Y01943*
X01164Y01944*
X01165Y01945*
X01166Y01946*
X01166Y01948*
X01167Y01949*
X01167Y0195*
X01168Y01952*
X01168Y01953*
X01168Y01954*
X01168Y01956*
X01541Y01593D02*
D01*
X01541Y01595*
X01541Y01596*
X01541Y01597*
X0154Y01599*
X0154Y016*
X01539Y01601*
X01539Y01603*
X01538Y01604*
X01537Y01605*
X01536Y01606*
X01536Y01607*
X01535Y01608*
X01533Y01609*
X01532Y0161*
X01531Y0161*
X0153Y01611*
X01529Y01612*
X01527Y01612*
X01526Y01613*
X01525Y01613*
X01523Y01613*
X01522Y01613*
X0152*
X01519Y01613*
X01518Y01613*
X01516Y01613*
X01515Y01612*
X01514Y01612*
X01512Y01611*
X01511Y0161*
X0151Y0161*
X01509Y01609*
X01508Y01608*
X01507Y01607*
X01506Y01606*
X01505Y01605*
X01504Y01604*
X01503Y01603*
X01503Y01601*
X01502Y016*
X01502Y01599*
X01502Y01597*
X01501Y01596*
X01501Y01595*
X01501Y01593*
X01501Y01592*
X01501Y0159*
X01502Y01589*
X01502Y01588*
X01502Y01586*
X01503Y01585*
X01503Y01584*
X01504Y01583*
X01505Y01581*
X01506Y0158*
X01507Y01579*
X01508Y01578*
X01509Y01577*
X0151Y01577*
X01511Y01576*
X01512Y01575*
X01514Y01575*
X01515Y01574*
X01516Y01574*
X01518Y01573*
X01519Y01573*
X0152Y01573*
X01522*
X01523Y01573*
X01525Y01573*
X01526Y01574*
X01527Y01574*
X01529Y01575*
X0153Y01575*
X01531Y01576*
X01532Y01577*
X01533Y01577*
X01535Y01578*
X01536Y01579*
X01536Y0158*
X01537Y01581*
X01538Y01583*
X01539Y01584*
X01539Y01585*
X0154Y01586*
X0154Y01588*
X01541Y01589*
X01541Y0159*
X01541Y01592*
X01541Y01593*
X05021Y01008D02*
D01*
X05021Y01009*
X05021Y0101*
X05021Y01012*
X0502Y01013*
X0502Y01014*
X0502Y01016*
X05019Y01017*
X05018Y01018*
X05017Y01019*
X05017Y0102*
X05016Y01021*
X05015Y01022*
X05014Y01023*
X05012Y01024*
X05011Y01025*
X0501Y01025*
X05009Y01026*
X05007Y01027*
X05006Y01027*
X05005Y01027*
X05003Y01027*
X05002Y01027*
X05001*
X04999Y01027*
X04998Y01027*
X04996Y01027*
X04995Y01027*
X04994Y01026*
X04993Y01025*
X04991Y01025*
X0499Y01024*
X04989Y01023*
X04988Y01022*
X04987Y01021*
X04986Y0102*
X04985Y01019*
X04984Y01018*
X04984Y01017*
X04983Y01016*
X04982Y01014*
X04982Y01013*
X04982Y01012*
X04981Y0101*
X04981Y01009*
X04981Y01008*
X04981Y01006*
X04981Y01005*
X04982Y01003*
X04982Y01002*
X04982Y01001*
X04983Y00999*
X04984Y00998*
X04984Y00997*
X04985Y00996*
X04986Y00995*
X04987Y00994*
X04988Y00993*
X04989Y00992*
X0499Y00991*
X04991Y0099*
X04993Y0099*
X04994Y00989*
X04995Y00988*
X04996Y00988*
X04998Y00988*
X04999Y00988*
X05001Y00988*
X05002*
X05003Y00988*
X05005Y00988*
X05006Y00988*
X05007Y00988*
X05009Y00989*
X0501Y0099*
X05011Y0099*
X05012Y00991*
X05014Y00992*
X05015Y00993*
X05016Y00994*
X05017Y00995*
X05017Y00996*
X05018Y00997*
X05019Y00998*
X0502Y00999*
X0502Y01001*
X0502Y01002*
X05021Y01003*
X05021Y01005*
X05021Y01006*
X05021Y01008*
X04948Y00638D02*
D01*
X04948Y00639*
X04948Y00641*
X04948Y00642*
X04947Y00643*
X04947Y00645*
X04946Y00646*
X04946Y00647*
X04945Y00649*
X04944Y0065*
X04943Y00651*
X04942Y00652*
X04941Y00653*
X0494Y00654*
X04939Y00655*
X04938Y00655*
X04937Y00656*
X04935Y00657*
X04934Y00657*
X04933Y00657*
X04931Y00658*
X0493Y00658*
X04929Y00658*
X04927*
X04926Y00658*
X04925Y00658*
X04923Y00657*
X04922Y00657*
X04921Y00657*
X04919Y00656*
X04918Y00655*
X04917Y00655*
X04916Y00654*
X04915Y00653*
X04914Y00652*
X04913Y00651*
X04912Y0065*
X04911Y00649*
X0491Y00647*
X0491Y00646*
X04909Y00645*
X04909Y00643*
X04908Y00642*
X04908Y00641*
X04908Y00639*
X04908Y00638*
X04908Y00637*
X04908Y00635*
X04908Y00634*
X04909Y00632*
X04909Y00631*
X0491Y0063*
X0491Y00629*
X04911Y00627*
X04912Y00626*
X04913Y00625*
X04914Y00624*
X04915Y00623*
X04916Y00622*
X04917Y00621*
X04918Y00621*
X04919Y0062*
X04921Y00619*
X04922Y00619*
X04923Y00619*
X04925Y00618*
X04926Y00618*
X04927Y00618*
X04929*
X0493Y00618*
X04931Y00618*
X04933Y00619*
X04934Y00619*
X04935Y00619*
X04937Y0062*
X04938Y00621*
X04939Y00621*
X0494Y00622*
X04941Y00623*
X04942Y00624*
X04943Y00625*
X04944Y00626*
X04945Y00627*
X04946Y00629*
X04946Y0063*
X04947Y00631*
X04947Y00632*
X04948Y00634*
X04948Y00635*
X04948Y00637*
X04948Y00638*
X01389Y00741D02*
D01*
X01389Y00742*
X01389Y00743*
X01389Y00745*
X01388Y00746*
X01388Y00747*
X01387Y00749*
X01387Y0075*
X01386Y00751*
X01385Y00752*
X01384Y00753*
X01383Y00754*
X01382Y00755*
X01381Y00756*
X0138Y00757*
X01379Y00758*
X01378Y00758*
X01376Y00759*
X01375Y0076*
X01374Y0076*
X01372Y0076*
X01371Y0076*
X0137Y0076*
X01368*
X01367Y0076*
X01366Y0076*
X01364Y0076*
X01363Y0076*
X01362Y00759*
X0136Y00758*
X01359Y00758*
X01358Y00757*
X01357Y00756*
X01356Y00755*
X01355Y00754*
X01354Y00753*
X01353Y00752*
X01352Y00751*
X01351Y0075*
X01351Y00749*
X0135Y00747*
X0135Y00746*
X01349Y00745*
X01349Y00743*
X01349Y00742*
X01349Y00741*
X01349Y00739*
X01349Y00738*
X01349Y00736*
X0135Y00735*
X0135Y00734*
X01351Y00732*
X01351Y00731*
X01352Y0073*
X01353Y00729*
X01354Y00728*
X01355Y00727*
X01356Y00726*
X01357Y00725*
X01358Y00724*
X01359Y00723*
X0136Y00723*
X01362Y00722*
X01363Y00721*
X01364Y00721*
X01366Y00721*
X01367Y00721*
X01368Y00721*
X0137*
X01371Y00721*
X01372Y00721*
X01374Y00721*
X01375Y00721*
X01376Y00722*
X01378Y00723*
X01379Y00723*
X0138Y00724*
X01381Y00725*
X01382Y00726*
X01383Y00727*
X01384Y00728*
X01385Y00729*
X01386Y0073*
X01387Y00731*
X01387Y00732*
X01388Y00734*
X01388Y00735*
X01389Y00736*
X01389Y00738*
X01389Y00739*
X01389Y00741*
X0343Y00862D02*
D01*
X0343Y00863*
X0343Y00864*
X0343Y00866*
X03429Y00867*
X03429Y00868*
X03428Y0087*
X03428Y00871*
X03427Y00872*
X03426Y00873*
X03425Y00874*
X03424Y00875*
X03423Y00876*
X03422Y00877*
X03421Y00878*
X0342Y00879*
X03419Y00879*
X03417Y0088*
X03416Y00881*
X03415Y00881*
X03413Y00881*
X03412Y00881*
X03411Y00881*
X03409*
X03408Y00881*
X03407Y00881*
X03405Y00881*
X03404Y00881*
X03403Y0088*
X03401Y00879*
X034Y00879*
X03399Y00878*
X03398Y00877*
X03397Y00876*
X03396Y00875*
X03395Y00874*
X03394Y00873*
X03393Y00872*
X03392Y00871*
X03392Y0087*
X03391Y00868*
X03391Y00867*
X0339Y00866*
X0339Y00864*
X0339Y00863*
X0339Y00862*
X0339Y0086*
X0339Y00859*
X0339Y00857*
X03391Y00856*
X03391Y00855*
X03392Y00853*
X03392Y00852*
X03393Y00851*
X03394Y0085*
X03395Y00849*
X03396Y00848*
X03397Y00847*
X03398Y00846*
X03399Y00845*
X034Y00844*
X03401Y00844*
X03403Y00843*
X03404Y00842*
X03405Y00842*
X03407Y00842*
X03408Y00842*
X03409Y00842*
X03411*
X03412Y00842*
X03413Y00842*
X03415Y00842*
X03416Y00842*
X03417Y00843*
X03419Y00844*
X0342Y00844*
X03421Y00845*
X03422Y00846*
X03423Y00847*
X03424Y00848*
X03425Y00849*
X03426Y0085*
X03427Y00851*
X03428Y00852*
X03428Y00853*
X03429Y00855*
X03429Y00856*
X0343Y00857*
X0343Y00859*
X0343Y0086*
X0343Y00862*
G54D115*
X06542Y02034D02*
D01*
X06542Y02034*
X06542Y02035*
X06542Y02036*
X06542Y02037*
X06541Y02038*
X06541Y02038*
X06541Y02039*
X0654Y0204*
X0654Y02041*
X06539Y02041*
X06539Y02042*
X06538Y02042*
X06537Y02043*
X06537Y02043*
X06536Y02044*
X06535Y02044*
X06534Y02045*
X06534Y02045*
X06533Y02045*
X06532Y02045*
X06531Y02045*
X0653Y02045*
X0653*
X06529Y02045*
X06528Y02045*
X06527Y02045*
X06526Y02045*
X06526Y02045*
X06525Y02044*
X06524Y02044*
X06523Y02043*
X06523Y02043*
X06522Y02042*
X06521Y02042*
X06521Y02041*
X0652Y02041*
X0652Y0204*
X06519Y02039*
X06519Y02038*
X06519Y02038*
X06518Y02037*
X06518Y02036*
X06518Y02035*
X06518Y02034*
X06518Y02034*
X06518Y02033*
X06518Y02032*
X06518Y02031*
X06518Y0203*
X06519Y02029*
X06519Y02029*
X06519Y02028*
X0652Y02027*
X0652Y02026*
X06521Y02026*
X06521Y02025*
X06522Y02025*
X06523Y02024*
X06523Y02024*
X06524Y02023*
X06525Y02023*
X06526Y02022*
X06526Y02022*
X06527Y02022*
X06528Y02022*
X06529Y02022*
X0653Y02022*
X0653*
X06531Y02022*
X06532Y02022*
X06533Y02022*
X06534Y02022*
X06534Y02022*
X06535Y02023*
X06536Y02023*
X06537Y02024*
X06537Y02024*
X06538Y02025*
X06539Y02025*
X06539Y02026*
X0654Y02026*
X0654Y02027*
X06541Y02028*
X06541Y02029*
X06541Y02029*
X06542Y0203*
X06542Y02031*
X06542Y02032*
X06542Y02033*
X06542Y02034*
Y02219D02*
D01*
X06542Y02219*
X06542Y0222*
X06542Y02221*
X06542Y02222*
X06541Y02223*
X06541Y02223*
X06541Y02224*
X0654Y02225*
X0654Y02226*
X06539Y02226*
X06539Y02227*
X06538Y02227*
X06537Y02228*
X06537Y02228*
X06536Y02229*
X06535Y02229*
X06534Y0223*
X06534Y0223*
X06533Y0223*
X06532Y0223*
X06531Y0223*
X0653Y0223*
X0653*
X06529Y0223*
X06528Y0223*
X06527Y0223*
X06526Y0223*
X06526Y0223*
X06525Y02229*
X06524Y02229*
X06523Y02228*
X06523Y02228*
X06522Y02227*
X06521Y02227*
X06521Y02226*
X0652Y02226*
X0652Y02225*
X06519Y02224*
X06519Y02223*
X06519Y02223*
X06518Y02222*
X06518Y02221*
X06518Y0222*
X06518Y02219*
X06518Y02219*
X06518Y02218*
X06518Y02217*
X06518Y02216*
X06518Y02215*
X06519Y02214*
X06519Y02214*
X06519Y02213*
X0652Y02212*
X0652Y02211*
X06521Y02211*
X06521Y0221*
X06522Y0221*
X06523Y02209*
X06523Y02209*
X06524Y02208*
X06525Y02208*
X06526Y02207*
X06526Y02207*
X06527Y02207*
X06528Y02207*
X06529Y02207*
X0653Y02207*
X0653*
X06531Y02207*
X06532Y02207*
X06533Y02207*
X06534Y02207*
X06534Y02207*
X06535Y02208*
X06536Y02208*
X06537Y02209*
X06537Y02209*
X06538Y0221*
X06539Y0221*
X06539Y02211*
X0654Y02211*
X0654Y02212*
X06541Y02213*
X06541Y02214*
X06541Y02214*
X06542Y02215*
X06542Y02216*
X06542Y02217*
X06542Y02218*
X06542Y02219*
X06477Y02034D02*
D01*
X06477Y02034*
X06477Y02035*
X06477Y02036*
X06477Y02037*
X06476Y02038*
X06476Y02038*
X06476Y02039*
X06475Y0204*
X06475Y02041*
X06474Y02041*
X06474Y02042*
X06473Y02042*
X06472Y02043*
X06472Y02043*
X06471Y02044*
X0647Y02044*
X06469Y02045*
X06469Y02045*
X06468Y02045*
X06467Y02045*
X06466Y02045*
X06465Y02045*
X06465*
X06464Y02045*
X06463Y02045*
X06462Y02045*
X06461Y02045*
X06461Y02045*
X0646Y02044*
X06459Y02044*
X06458Y02043*
X06458Y02043*
X06457Y02042*
X06456Y02042*
X06456Y02041*
X06455Y02041*
X06455Y0204*
X06454Y02039*
X06454Y02038*
X06454Y02038*
X06453Y02037*
X06453Y02036*
X06453Y02035*
X06453Y02034*
X06453Y02034*
X06453Y02033*
X06453Y02032*
X06453Y02031*
X06453Y0203*
X06454Y02029*
X06454Y02029*
X06454Y02028*
X06455Y02027*
X06455Y02026*
X06456Y02026*
X06456Y02025*
X06457Y02025*
X06458Y02024*
X06458Y02024*
X06459Y02023*
X0646Y02023*
X06461Y02022*
X06461Y02022*
X06462Y02022*
X06463Y02022*
X06464Y02022*
X06465Y02022*
X06465*
X06466Y02022*
X06467Y02022*
X06468Y02022*
X06469Y02022*
X06469Y02022*
X0647Y02023*
X06471Y02023*
X06472Y02024*
X06472Y02024*
X06473Y02025*
X06474Y02025*
X06474Y02026*
X06475Y02026*
X06475Y02027*
X06476Y02028*
X06476Y02029*
X06476Y02029*
X06477Y0203*
X06477Y02031*
X06477Y02032*
X06477Y02033*
X06477Y02034*
Y02219D02*
D01*
X06477Y02219*
X06477Y0222*
X06477Y02221*
X06477Y02222*
X06476Y02223*
X06476Y02223*
X06476Y02224*
X06475Y02225*
X06475Y02226*
X06474Y02226*
X06474Y02227*
X06473Y02227*
X06472Y02228*
X06472Y02228*
X06471Y02229*
X0647Y02229*
X06469Y0223*
X06469Y0223*
X06468Y0223*
X06467Y0223*
X06466Y0223*
X06465Y0223*
X06465*
X06464Y0223*
X06463Y0223*
X06462Y0223*
X06461Y0223*
X06461Y0223*
X0646Y02229*
X06459Y02229*
X06458Y02228*
X06458Y02228*
X06457Y02227*
X06456Y02227*
X06456Y02226*
X06455Y02226*
X06455Y02225*
X06454Y02224*
X06454Y02223*
X06454Y02223*
X06453Y02222*
X06453Y02221*
X06453Y0222*
X06453Y02219*
X06453Y02219*
X06453Y02218*
X06453Y02217*
X06453Y02216*
X06453Y02215*
X06454Y02214*
X06454Y02214*
X06454Y02213*
X06455Y02212*
X06455Y02211*
X06456Y02211*
X06456Y0221*
X06457Y0221*
X06458Y02209*
X06458Y02209*
X06459Y02208*
X0646Y02208*
X06461Y02207*
X06461Y02207*
X06462Y02207*
X06463Y02207*
X06464Y02207*
X06465Y02207*
X06465*
X06466Y02207*
X06467Y02207*
X06468Y02207*
X06469Y02207*
X06469Y02207*
X0647Y02208*
X06471Y02208*
X06472Y02209*
X06472Y02209*
X06473Y0221*
X06474Y0221*
X06474Y02211*
X06475Y02211*
X06475Y02212*
X06476Y02213*
X06476Y02214*
X06476Y02214*
X06477Y02215*
X06477Y02216*
X06477Y02217*
X06477Y02218*
X06477Y02219*
X05806Y02218D02*
D01*
X05806Y02218*
X05806Y02219*
X05806Y0222*
X05806Y02221*
X05805Y02222*
X05805Y02222*
X05805Y02223*
X05804Y02224*
X05804Y02225*
X05803Y02225*
X05803Y02226*
X05802Y02226*
X05801Y02227*
X05801Y02227*
X058Y02228*
X05799Y02228*
X05798Y02229*
X05798Y02229*
X05797Y02229*
X05796Y02229*
X05795Y02229*
X05794Y02229*
X05794*
X05793Y02229*
X05792Y02229*
X05791Y02229*
X0579Y02229*
X0579Y02229*
X05789Y02228*
X05788Y02228*
X05787Y02227*
X05787Y02227*
X05786Y02226*
X05785Y02226*
X05785Y02225*
X05784Y02225*
X05784Y02224*
X05783Y02223*
X05783Y02222*
X05783Y02222*
X05782Y02221*
X05782Y0222*
X05782Y02219*
X05782Y02218*
X05782Y02218*
X05782Y02217*
X05782Y02216*
X05782Y02215*
X05782Y02214*
X05783Y02213*
X05783Y02213*
X05783Y02212*
X05784Y02211*
X05784Y0221*
X05785Y0221*
X05785Y02209*
X05786Y02209*
X05787Y02208*
X05787Y02208*
X05788Y02207*
X05789Y02207*
X0579Y02206*
X0579Y02206*
X05791Y02206*
X05792Y02206*
X05793Y02206*
X05794Y02206*
X05794*
X05795Y02206*
X05796Y02206*
X05797Y02206*
X05798Y02206*
X05798Y02206*
X05799Y02207*
X058Y02207*
X05801Y02208*
X05801Y02208*
X05802Y02209*
X05803Y02209*
X05803Y0221*
X05804Y0221*
X05804Y02211*
X05805Y02212*
X05805Y02213*
X05805Y02213*
X05806Y02214*
X05806Y02215*
X05806Y02216*
X05806Y02217*
X05806Y02218*
Y02033D02*
D01*
X05806Y02033*
X05806Y02034*
X05806Y02035*
X05806Y02036*
X05805Y02037*
X05805Y02037*
X05805Y02038*
X05804Y02039*
X05804Y0204*
X05803Y0204*
X05803Y02041*
X05802Y02041*
X05801Y02042*
X05801Y02042*
X058Y02043*
X05799Y02043*
X05798Y02044*
X05798Y02044*
X05797Y02044*
X05796Y02044*
X05795Y02044*
X05794Y02044*
X05794*
X05793Y02044*
X05792Y02044*
X05791Y02044*
X0579Y02044*
X0579Y02044*
X05789Y02043*
X05788Y02043*
X05787Y02042*
X05787Y02042*
X05786Y02041*
X05785Y02041*
X05785Y0204*
X05784Y0204*
X05784Y02039*
X05783Y02038*
X05783Y02037*
X05783Y02037*
X05782Y02036*
X05782Y02035*
X05782Y02034*
X05782Y02033*
X05782Y02033*
X05782Y02032*
X05782Y02031*
X05782Y0203*
X05782Y02029*
X05783Y02028*
X05783Y02028*
X05783Y02027*
X05784Y02026*
X05784Y02025*
X05785Y02025*
X05785Y02024*
X05786Y02024*
X05787Y02023*
X05787Y02023*
X05788Y02022*
X05789Y02022*
X0579Y02021*
X0579Y02021*
X05791Y02021*
X05792Y02021*
X05793Y02021*
X05794Y02021*
X05794*
X05795Y02021*
X05796Y02021*
X05797Y02021*
X05798Y02021*
X05798Y02021*
X05799Y02022*
X058Y02022*
X05801Y02023*
X05801Y02023*
X05802Y02024*
X05803Y02024*
X05803Y02025*
X05804Y02025*
X05804Y02026*
X05805Y02027*
X05805Y02028*
X05805Y02028*
X05806Y02029*
X05806Y0203*
X05806Y02031*
X05806Y02032*
X05806Y02033*
X05871Y02218D02*
D01*
X05871Y02218*
X05871Y02219*
X05871Y0222*
X05871Y02221*
X0587Y02222*
X0587Y02222*
X0587Y02223*
X05869Y02224*
X05869Y02225*
X05868Y02225*
X05868Y02226*
X05867Y02226*
X05866Y02227*
X05866Y02227*
X05865Y02228*
X05864Y02228*
X05863Y02229*
X05863Y02229*
X05862Y02229*
X05861Y02229*
X0586Y02229*
X05859Y02229*
X05859*
X05858Y02229*
X05857Y02229*
X05856Y02229*
X05855Y02229*
X05855Y02229*
X05854Y02228*
X05853Y02228*
X05852Y02227*
X05852Y02227*
X05851Y02226*
X0585Y02226*
X0585Y02225*
X05849Y02225*
X05849Y02224*
X05848Y02223*
X05848Y02222*
X05848Y02222*
X05847Y02221*
X05847Y0222*
X05847Y02219*
X05847Y02218*
X05847Y02218*
X05847Y02217*
X05847Y02216*
X05847Y02215*
X05847Y02214*
X05848Y02213*
X05848Y02213*
X05848Y02212*
X05849Y02211*
X05849Y0221*
X0585Y0221*
X0585Y02209*
X05851Y02209*
X05852Y02208*
X05852Y02208*
X05853Y02207*
X05854Y02207*
X05855Y02206*
X05855Y02206*
X05856Y02206*
X05857Y02206*
X05858Y02206*
X05859Y02206*
X05859*
X0586Y02206*
X05861Y02206*
X05862Y02206*
X05863Y02206*
X05863Y02206*
X05864Y02207*
X05865Y02207*
X05866Y02208*
X05866Y02208*
X05867Y02209*
X05868Y02209*
X05868Y0221*
X05869Y0221*
X05869Y02211*
X0587Y02212*
X0587Y02213*
X0587Y02213*
X05871Y02214*
X05871Y02215*
X05871Y02216*
X05871Y02217*
X05871Y02218*
Y02033D02*
D01*
X05871Y02033*
X05871Y02034*
X05871Y02035*
X05871Y02036*
X0587Y02037*
X0587Y02037*
X0587Y02038*
X05869Y02039*
X05869Y0204*
X05868Y0204*
X05868Y02041*
X05867Y02041*
X05866Y02042*
X05866Y02042*
X05865Y02043*
X05864Y02043*
X05863Y02044*
X05863Y02044*
X05862Y02044*
X05861Y02044*
X0586Y02044*
X05859Y02044*
X05859*
X05858Y02044*
X05857Y02044*
X05856Y02044*
X05855Y02044*
X05855Y02044*
X05854Y02043*
X05853Y02043*
X05852Y02042*
X05852Y02042*
X05851Y02041*
X0585Y02041*
X0585Y0204*
X05849Y0204*
X05849Y02039*
X05848Y02038*
X05848Y02037*
X05848Y02037*
X05847Y02036*
X05847Y02035*
X05847Y02034*
X05847Y02033*
X05847Y02033*
X05847Y02032*
X05847Y02031*
X05847Y0203*
X05847Y02029*
X05848Y02028*
X05848Y02028*
X05848Y02027*
X05849Y02026*
X05849Y02025*
X0585Y02025*
X0585Y02024*
X05851Y02024*
X05852Y02023*
X05852Y02023*
X05853Y02022*
X05854Y02022*
X05855Y02021*
X05855Y02021*
X05856Y02021*
X05857Y02021*
X05858Y02021*
X05859Y02021*
X05859*
X0586Y02021*
X05861Y02021*
X05862Y02021*
X05863Y02021*
X05863Y02021*
X05864Y02022*
X05865Y02022*
X05866Y02023*
X05866Y02023*
X05867Y02024*
X05868Y02024*
X05868Y02025*
X05869Y02025*
X05869Y02026*
X0587Y02027*
X0587Y02028*
X0587Y02028*
X05871Y02029*
X05871Y0203*
X05871Y02031*
X05871Y02032*
X05871Y02033*
X01413Y00626D02*
D01*
X01413Y00627*
X01413Y00628*
X01413Y00629*
X01413Y00629*
X01413Y0063*
X01412Y00631*
X01412Y00632*
X01411Y00633*
X01411Y00633*
X01411Y00634*
X0141Y00635*
X01409Y00635*
X01409Y00636*
X01408Y00636*
X01407Y00637*
X01407Y00637*
X01406Y00637*
X01405Y00638*
X01404Y00638*
X01403Y00638*
X01403Y00638*
X01402Y00638*
X01401*
X014Y00638*
X01399Y00638*
X01398Y00638*
X01398Y00638*
X01397Y00637*
X01396Y00637*
X01395Y00637*
X01395Y00636*
X01394Y00636*
X01393Y00635*
X01393Y00635*
X01392Y00634*
X01392Y00633*
X01391Y00633*
X01391Y00632*
X0139Y00631*
X0139Y0063*
X0139Y00629*
X0139Y00629*
X01389Y00628*
X01389Y00627*
X01389Y00626*
X01389Y00625*
X01389Y00625*
X0139Y00624*
X0139Y00623*
X0139Y00622*
X0139Y00621*
X01391Y00621*
X01391Y0062*
X01392Y00619*
X01392Y00618*
X01393Y00618*
X01393Y00617*
X01394Y00617*
X01395Y00616*
X01395Y00616*
X01396Y00615*
X01397Y00615*
X01398Y00615*
X01398Y00615*
X01399Y00614*
X014Y00614*
X01401Y00614*
X01402*
X01403Y00614*
X01403Y00614*
X01404Y00615*
X01405Y00615*
X01406Y00615*
X01407Y00615*
X01407Y00616*
X01408Y00616*
X01409Y00617*
X01409Y00617*
X0141Y00618*
X01411Y00618*
X01411Y00619*
X01411Y0062*
X01412Y00621*
X01412Y00621*
X01413Y00622*
X01413Y00623*
X01413Y00624*
X01413Y00625*
X01413Y00625*
X01413Y00626*
X05124Y00307D02*
D01*
X05124Y00307*
X05124Y00308*
X05124Y00309*
X05124Y0031*
X05123Y00311*
X05123Y00311*
X05123Y00312*
X05122Y00313*
X05122Y00314*
X05121Y00314*
X05121Y00315*
X0512Y00315*
X05119Y00316*
X05119Y00316*
X05118Y00317*
X05117Y00317*
X05116Y00318*
X05116Y00318*
X05115Y00318*
X05114Y00318*
X05113Y00318*
X05112Y00318*
X05112*
X05111Y00318*
X0511Y00318*
X05109Y00318*
X05108Y00318*
X05108Y00318*
X05107Y00317*
X05106Y00317*
X05105Y00316*
X05105Y00316*
X05104Y00315*
X05103Y00315*
X05103Y00314*
X05102Y00314*
X05102Y00313*
X05101Y00312*
X05101Y00311*
X05101Y00311*
X051Y0031*
X051Y00309*
X051Y00308*
X051Y00307*
X051Y00307*
X051Y00306*
X051Y00305*
X051Y00304*
X051Y00303*
X05101Y00302*
X05101Y00302*
X05101Y00301*
X05102Y003*
X05102Y00299*
X05103Y00299*
X05103Y00298*
X05104Y00298*
X05105Y00297*
X05105Y00297*
X05106Y00296*
X05107Y00296*
X05108Y00295*
X05108Y00295*
X05109Y00295*
X0511Y00295*
X05111Y00295*
X05112Y00295*
X05112*
X05113Y00295*
X05114Y00295*
X05115Y00295*
X05116Y00295*
X05116Y00295*
X05117Y00296*
X05118Y00296*
X05119Y00297*
X05119Y00297*
X0512Y00298*
X05121Y00298*
X05121Y00299*
X05122Y00299*
X05122Y003*
X05123Y00301*
X05123Y00302*
X05123Y00302*
X05124Y00303*
X05124Y00304*
X05124Y00305*
X05124Y00306*
X05124Y00307*
X05182Y00873D02*
D01*
X05182Y00873*
X05182Y00874*
X05182Y00875*
X05182Y00876*
X05181Y00877*
X05181Y00877*
X05181Y00878*
X0518Y00879*
X0518Y0088*
X05179Y0088*
X05179Y00881*
X05178Y00881*
X05177Y00882*
X05177Y00882*
X05176Y00883*
X05175Y00883*
X05174Y00884*
X05174Y00884*
X05173Y00884*
X05172Y00884*
X05171Y00884*
X0517Y00884*
X0517*
X05169Y00884*
X05168Y00884*
X05167Y00884*
X05166Y00884*
X05166Y00884*
X05165Y00883*
X05164Y00883*
X05163Y00882*
X05163Y00882*
X05162Y00881*
X05161Y00881*
X05161Y0088*
X0516Y0088*
X0516Y00879*
X05159Y00878*
X05159Y00877*
X05159Y00877*
X05158Y00876*
X05158Y00875*
X05158Y00874*
X05158Y00873*
X05158Y00873*
X05158Y00872*
X05158Y00871*
X05158Y0087*
X05158Y00869*
X05159Y00868*
X05159Y00868*
X05159Y00867*
X0516Y00866*
X0516Y00865*
X05161Y00865*
X05161Y00864*
X05162Y00864*
X05163Y00863*
X05163Y00863*
X05164Y00862*
X05165Y00862*
X05166Y00861*
X05166Y00861*
X05167Y00861*
X05168Y00861*
X05169Y00861*
X0517Y00861*
X0517*
X05171Y00861*
X05172Y00861*
X05173Y00861*
X05174Y00861*
X05174Y00861*
X05175Y00862*
X05176Y00862*
X05177Y00863*
X05177Y00863*
X05178Y00864*
X05179Y00864*
X05179Y00865*
X0518Y00865*
X0518Y00866*
X05181Y00867*
X05181Y00868*
X05181Y00868*
X05182Y00869*
X05182Y0087*
X05182Y00871*
X05182Y00872*
X05182Y00873*
X02745Y0042D02*
D01*
X02745Y0042*
X02745Y00421*
X02745Y00422*
X02745Y00423*
X02744Y00424*
X02744Y00424*
X02744Y00425*
X02743Y00426*
X02743Y00427*
X02742Y00427*
X02742Y00428*
X02741Y00428*
X0274Y00429*
X0274Y00429*
X02739Y0043*
X02738Y0043*
X02737Y00431*
X02737Y00431*
X02736Y00431*
X02735Y00431*
X02734Y00431*
X02733Y00431*
X02733*
X02732Y00431*
X02731Y00431*
X0273Y00431*
X02729Y00431*
X02729Y00431*
X02728Y0043*
X02727Y0043*
X02726Y00429*
X02726Y00429*
X02725Y00428*
X02724Y00428*
X02724Y00427*
X02723Y00427*
X02723Y00426*
X02722Y00425*
X02722Y00424*
X02722Y00424*
X02721Y00423*
X02721Y00422*
X02721Y00421*
X02721Y0042*
X02721Y0042*
X02721Y00419*
X02721Y00418*
X02721Y00417*
X02721Y00416*
X02722Y00415*
X02722Y00415*
X02722Y00414*
X02723Y00413*
X02723Y00412*
X02724Y00412*
X02724Y00411*
X02725Y00411*
X02726Y0041*
X02726Y0041*
X02727Y00409*
X02728Y00409*
X02729Y00408*
X02729Y00408*
X0273Y00408*
X02731Y00408*
X02732Y00408*
X02733Y00408*
X02733*
X02734Y00408*
X02735Y00408*
X02736Y00408*
X02737Y00408*
X02737Y00408*
X02738Y00409*
X02739Y00409*
X0274Y0041*
X0274Y0041*
X02741Y00411*
X02742Y00411*
X02742Y00412*
X02743Y00412*
X02743Y00413*
X02744Y00414*
X02744Y00415*
X02744Y00415*
X02745Y00416*
X02745Y00417*
X02745Y00418*
X02745Y00419*
X02745Y0042*
X03054Y00391D02*
D01*
X03054Y00392*
X03054Y00392*
X03054Y00393*
X03054Y00394*
X03053Y00395*
X03053Y00396*
X03053Y00396*
X03052Y00397*
X03052Y00398*
X03051Y00398*
X03051Y00399*
X0305Y004*
X03049Y004*
X03049Y00401*
X03048Y00401*
X03047Y00402*
X03046Y00402*
X03046Y00402*
X03045Y00402*
X03044Y00403*
X03043Y00403*
X03042Y00403*
X03042*
X03041Y00403*
X0304Y00403*
X03039Y00402*
X03038Y00402*
X03038Y00402*
X03037Y00402*
X03036Y00401*
X03035Y00401*
X03035Y004*
X03034Y004*
X03033Y00399*
X03033Y00398*
X03032Y00398*
X03032Y00397*
X03031Y00396*
X03031Y00396*
X03031Y00395*
X0303Y00394*
X0303Y00393*
X0303Y00392*
X0303Y00392*
X0303Y00391*
X0303Y0039*
X0303Y00389*
X0303Y00388*
X0303Y00387*
X03031Y00387*
X03031Y00386*
X03031Y00385*
X03032Y00384*
X03032Y00384*
X03033Y00383*
X03033Y00382*
X03034Y00382*
X03035Y00381*
X03035Y00381*
X03036Y0038*
X03037Y0038*
X03038Y0038*
X03038Y00379*
X03039Y00379*
X0304Y00379*
X03041Y00379*
X03042Y00379*
X03042*
X03043Y00379*
X03044Y00379*
X03045Y00379*
X03046Y00379*
X03046Y0038*
X03047Y0038*
X03048Y0038*
X03049Y00381*
X03049Y00381*
X0305Y00382*
X03051Y00382*
X03051Y00383*
X03052Y00384*
X03052Y00384*
X03053Y00385*
X03053Y00386*
X03053Y00387*
X03054Y00387*
X03054Y00388*
X03054Y00389*
X03054Y0039*
X03054Y00391*
Y00567D02*
D01*
X03054Y00568*
X03054Y00569*
X03054Y0057*
X03054Y0057*
X03053Y00571*
X03053Y00572*
X03053Y00573*
X03052Y00573*
X03052Y00574*
X03051Y00575*
X03051Y00575*
X0305Y00576*
X03049Y00577*
X03049Y00577*
X03048Y00578*
X03047Y00578*
X03046Y00578*
X03046Y00579*
X03045Y00579*
X03044Y00579*
X03043Y00579*
X03042Y00579*
X03042*
X03041Y00579*
X0304Y00579*
X03039Y00579*
X03038Y00579*
X03038Y00578*
X03037Y00578*
X03036Y00578*
X03035Y00577*
X03035Y00577*
X03034Y00576*
X03033Y00575*
X03033Y00575*
X03032Y00574*
X03032Y00573*
X03031Y00573*
X03031Y00572*
X03031Y00571*
X0303Y0057*
X0303Y0057*
X0303Y00569*
X0303Y00568*
X0303Y00567*
X0303Y00566*
X0303Y00565*
X0303Y00565*
X0303Y00564*
X03031Y00563*
X03031Y00562*
X03031Y00561*
X03032Y00561*
X03032Y0056*
X03033Y00559*
X03033Y00559*
X03034Y00558*
X03035Y00558*
X03035Y00557*
X03036Y00557*
X03037Y00556*
X03038Y00556*
X03038Y00556*
X03039Y00555*
X0304Y00555*
X03041Y00555*
X03042Y00555*
X03042*
X03043Y00555*
X03044Y00555*
X03045Y00555*
X03046Y00556*
X03046Y00556*
X03047Y00556*
X03048Y00557*
X03049Y00557*
X03049Y00558*
X0305Y00558*
X03051Y00559*
X03051Y00559*
X03052Y0056*
X03052Y00561*
X03053Y00561*
X03053Y00562*
X03053Y00563*
X03054Y00564*
X03054Y00565*
X03054Y00565*
X03054Y00566*
X03054Y00567*
X00812Y0124D02*
D01*
X00812Y0124*
X00812Y01241*
X00812Y01242*
X00812Y01243*
X00811Y01244*
X00811Y01244*
X00811Y01245*
X0081Y01246*
X0081Y01247*
X00809Y01247*
X00809Y01248*
X00808Y01248*
X00807Y01249*
X00807Y01249*
X00806Y0125*
X00805Y0125*
X00804Y01251*
X00804Y01251*
X00803Y01251*
X00802Y01251*
X00801Y01251*
X008Y01251*
X008*
X00799Y01251*
X00798Y01251*
X00797Y01251*
X00796Y01251*
X00796Y01251*
X00795Y0125*
X00794Y0125*
X00793Y01249*
X00793Y01249*
X00792Y01248*
X00791Y01248*
X00791Y01247*
X0079Y01247*
X0079Y01246*
X00789Y01245*
X00789Y01244*
X00789Y01244*
X00788Y01243*
X00788Y01242*
X00788Y01241*
X00788Y0124*
X00788Y0124*
X00788Y01239*
X00788Y01238*
X00788Y01237*
X00788Y01236*
X00789Y01235*
X00789Y01235*
X00789Y01234*
X0079Y01233*
X0079Y01232*
X00791Y01232*
X00791Y01231*
X00792Y01231*
X00793Y0123*
X00793Y0123*
X00794Y01229*
X00795Y01229*
X00796Y01228*
X00796Y01228*
X00797Y01228*
X00798Y01228*
X00799Y01228*
X008Y01228*
X008*
X00801Y01228*
X00802Y01228*
X00803Y01228*
X00804Y01228*
X00804Y01228*
X00805Y01229*
X00806Y01229*
X00807Y0123*
X00807Y0123*
X00808Y01231*
X00809Y01231*
X00809Y01232*
X0081Y01232*
X0081Y01233*
X00811Y01234*
X00811Y01235*
X00811Y01235*
X00812Y01236*
X00812Y01237*
X00812Y01238*
X00812Y01239*
X00812Y0124*
X02755Y01633D02*
D01*
X02755Y01634*
X02755Y01635*
X02755Y01635*
X02755Y01636*
X02754Y01637*
X02754Y01638*
X02754Y01639*
X02753Y01639*
X02753Y0164*
X02752Y01641*
X02752Y01641*
X02751Y01642*
X0275Y01642*
X0275Y01643*
X02749Y01643*
X02748Y01644*
X02747Y01644*
X02747Y01644*
X02746Y01645*
X02745Y01645*
X02744Y01645*
X02743Y01645*
X02743*
X02742Y01645*
X02741Y01645*
X0274Y01645*
X02739Y01644*
X02739Y01644*
X02738Y01644*
X02737Y01643*
X02736Y01643*
X02736Y01642*
X02735Y01642*
X02734Y01641*
X02734Y01641*
X02733Y0164*
X02733Y01639*
X02732Y01639*
X02732Y01638*
X02732Y01637*
X02731Y01636*
X02731Y01635*
X02731Y01635*
X02731Y01634*
X02731Y01633*
X02731Y01632*
X02731Y01631*
X02731Y01631*
X02731Y0163*
X02732Y01629*
X02732Y01628*
X02732Y01627*
X02733Y01627*
X02733Y01626*
X02734Y01625*
X02734Y01625*
X02735Y01624*
X02736Y01624*
X02736Y01623*
X02737Y01623*
X02738Y01622*
X02739Y01622*
X02739Y01622*
X0274Y01621*
X02741Y01621*
X02742Y01621*
X02743Y01621*
X02743*
X02744Y01621*
X02745Y01621*
X02746Y01621*
X02747Y01622*
X02747Y01622*
X02748Y01622*
X02749Y01623*
X0275Y01623*
X0275Y01624*
X02751Y01624*
X02752Y01625*
X02752Y01625*
X02753Y01626*
X02753Y01627*
X02754Y01627*
X02754Y01628*
X02754Y01629*
X02755Y0163*
X02755Y01631*
X02755Y01631*
X02755Y01632*
X02755Y01633*
X0272Y02204D02*
D01*
X0272Y02205*
X0272Y02206*
X0272Y02207*
X0272Y02208*
X02719Y02209*
X02719Y02209*
X02719Y0221*
X02718Y02211*
X02718Y02211*
X02717Y02212*
X02717Y02213*
X02716Y02213*
X02715Y02214*
X02715Y02214*
X02714Y02215*
X02713Y02215*
X02712Y02216*
X02712Y02216*
X02711Y02216*
X0271Y02216*
X02709Y02216*
X02708Y02216*
X02708*
X02707Y02216*
X02706Y02216*
X02705Y02216*
X02704Y02216*
X02704Y02216*
X02703Y02215*
X02702Y02215*
X02701Y02214*
X02701Y02214*
X027Y02213*
X02699Y02213*
X02699Y02212*
X02698Y02211*
X02698Y02211*
X02697Y0221*
X02697Y02209*
X02697Y02209*
X02696Y02208*
X02696Y02207*
X02696Y02206*
X02696Y02205*
X02696Y02204*
X02696Y02204*
X02696Y02203*
X02696Y02202*
X02696Y02201*
X02697Y022*
X02697Y022*
X02697Y02199*
X02698Y02198*
X02698Y02197*
X02699Y02197*
X02699Y02196*
X027Y02196*
X02701Y02195*
X02701Y02194*
X02702Y02194*
X02703Y02194*
X02704Y02193*
X02704Y02193*
X02705Y02193*
X02706Y02193*
X02707Y02193*
X02708Y02192*
X02708*
X02709Y02193*
X0271Y02193*
X02711Y02193*
X02712Y02193*
X02712Y02193*
X02713Y02194*
X02714Y02194*
X02715Y02194*
X02715Y02195*
X02716Y02196*
X02717Y02196*
X02717Y02197*
X02718Y02197*
X02718Y02198*
X02719Y02199*
X02719Y022*
X02719Y022*
X0272Y02201*
X0272Y02202*
X0272Y02203*
X0272Y02204*
X0272Y02204*
Y02427D02*
D01*
X0272Y02427*
X0272Y02428*
X0272Y02429*
X0272Y0243*
X02719Y02431*
X02719Y02431*
X02719Y02432*
X02718Y02433*
X02718Y02434*
X02717Y02434*
X02717Y02435*
X02716Y02435*
X02715Y02436*
X02715Y02436*
X02714Y02437*
X02713Y02437*
X02712Y02438*
X02712Y02438*
X02711Y02438*
X0271Y02438*
X02709Y02438*
X02708Y02438*
X02708*
X02707Y02438*
X02706Y02438*
X02705Y02438*
X02704Y02438*
X02704Y02438*
X02703Y02437*
X02702Y02437*
X02701Y02436*
X02701Y02436*
X027Y02435*
X02699Y02435*
X02699Y02434*
X02698Y02434*
X02698Y02433*
X02697Y02432*
X02697Y02431*
X02697Y02431*
X02696Y0243*
X02696Y02429*
X02696Y02428*
X02696Y02427*
X02696Y02427*
X02696Y02426*
X02696Y02425*
X02696Y02424*
X02696Y02423*
X02697Y02422*
X02697Y02422*
X02697Y02421*
X02698Y0242*
X02698Y02419*
X02699Y02419*
X02699Y02418*
X027Y02418*
X02701Y02417*
X02701Y02417*
X02702Y02416*
X02703Y02416*
X02704Y02415*
X02704Y02415*
X02705Y02415*
X02706Y02415*
X02707Y02415*
X02708Y02415*
X02708*
X02709Y02415*
X0271Y02415*
X02711Y02415*
X02712Y02415*
X02712Y02415*
X02713Y02416*
X02714Y02416*
X02715Y02417*
X02715Y02417*
X02716Y02418*
X02717Y02418*
X02717Y02419*
X02718Y02419*
X02718Y0242*
X02719Y02421*
X02719Y02422*
X02719Y02422*
X0272Y02423*
X0272Y02424*
X0272Y02425*
X0272Y02426*
X0272Y02427*
X01764Y01867D02*
D01*
X01764Y01868*
X01764Y01869*
X01764Y01869*
X01764Y0187*
X01763Y01871*
X01763Y01872*
X01763Y01872*
X01762Y01873*
X01762Y01874*
X01761Y01875*
X01761Y01875*
X0176Y01876*
X01759Y01876*
X01759Y01877*
X01758Y01877*
X01757Y01878*
X01756Y01878*
X01756Y01878*
X01755Y01879*
X01754Y01879*
X01753Y01879*
X01752Y01879*
X01752*
X01751Y01879*
X0175Y01879*
X01749Y01879*
X01748Y01878*
X01748Y01878*
X01747Y01878*
X01746Y01877*
X01745Y01877*
X01745Y01876*
X01744Y01876*
X01743Y01875*
X01743Y01875*
X01742Y01874*
X01742Y01873*
X01741Y01872*
X01741Y01872*
X01741Y01871*
X0174Y0187*
X0174Y01869*
X0174Y01869*
X0174Y01868*
X0174Y01867*
X0174Y01866*
X0174Y01865*
X0174Y01864*
X0174Y01864*
X01741Y01863*
X01741Y01862*
X01741Y01861*
X01742Y01861*
X01742Y0186*
X01743Y01859*
X01743Y01859*
X01744Y01858*
X01745Y01857*
X01745Y01857*
X01746Y01856*
X01747Y01856*
X01748Y01856*
X01748Y01855*
X01749Y01855*
X0175Y01855*
X01751Y01855*
X01752Y01855*
X01752*
X01753Y01855*
X01754Y01855*
X01755Y01855*
X01756Y01855*
X01756Y01856*
X01757Y01856*
X01758Y01856*
X01759Y01857*
X01759Y01857*
X0176Y01858*
X01761Y01859*
X01761Y01859*
X01762Y0186*
X01762Y01861*
X01763Y01861*
X01763Y01862*
X01763Y01863*
X01764Y01864*
X01764Y01864*
X01764Y01865*
X01764Y01866*
X01764Y01867*
X0095Y01956D02*
D01*
X0095Y01957*
X0095Y01957*
X0095Y01958*
X0095Y01959*
X00949Y0196*
X00949Y01961*
X00949Y01961*
X00948Y01962*
X00948Y01963*
X00947Y01963*
X00947Y01964*
X00946Y01965*
X00945Y01965*
X00945Y01966*
X00944Y01966*
X00943Y01966*
X00942Y01967*
X00942Y01967*
X00941Y01967*
X0094Y01968*
X00939Y01968*
X00938Y01968*
X00938*
X00937Y01968*
X00936Y01968*
X00935Y01967*
X00934Y01967*
X00934Y01967*
X00933Y01966*
X00932Y01966*
X00931Y01966*
X00931Y01965*
X0093Y01965*
X00929Y01964*
X00929Y01963*
X00928Y01963*
X00928Y01962*
X00927Y01961*
X00927Y01961*
X00927Y0196*
X00926Y01959*
X00926Y01958*
X00926Y01957*
X00926Y01957*
X00926Y01956*
X00926Y01955*
X00926Y01954*
X00926Y01953*
X00926Y01952*
X00927Y01952*
X00927Y01951*
X00927Y0195*
X00928Y01949*
X00928Y01949*
X00929Y01948*
X00929Y01947*
X0093Y01947*
X00931Y01946*
X00931Y01946*
X00932Y01945*
X00933Y01945*
X00934Y01945*
X00934Y01944*
X00935Y01944*
X00936Y01944*
X00937Y01944*
X00938Y01944*
X00938*
X00939Y01944*
X0094Y01944*
X00941Y01944*
X00942Y01944*
X00942Y01945*
X00943Y01945*
X00944Y01945*
X00945Y01946*
X00945Y01946*
X00946Y01947*
X00947Y01947*
X00947Y01948*
X00948Y01949*
X00948Y01949*
X00949Y0195*
X00949Y01951*
X00949Y01952*
X0095Y01952*
X0095Y01953*
X0095Y01954*
X0095Y01955*
X0095Y01956*
X0116D02*
D01*
X0116Y01957*
X0116Y01957*
X0116Y01958*
X0116Y01959*
X01159Y0196*
X01159Y01961*
X01159Y01961*
X01158Y01962*
X01158Y01963*
X01157Y01963*
X01157Y01964*
X01156Y01965*
X01155Y01965*
X01155Y01966*
X01154Y01966*
X01153Y01966*
X01152Y01967*
X01152Y01967*
X01151Y01967*
X0115Y01968*
X01149Y01968*
X01148Y01968*
X01148*
X01147Y01968*
X01146Y01968*
X01145Y01967*
X01144Y01967*
X01144Y01967*
X01143Y01966*
X01142Y01966*
X01141Y01966*
X01141Y01965*
X0114Y01965*
X01139Y01964*
X01139Y01963*
X01138Y01963*
X01138Y01962*
X01137Y01961*
X01137Y01961*
X01137Y0196*
X01136Y01959*
X01136Y01958*
X01136Y01957*
X01136Y01957*
X01136Y01956*
X01136Y01955*
X01136Y01954*
X01136Y01953*
X01136Y01952*
X01137Y01952*
X01137Y01951*
X01137Y0195*
X01138Y01949*
X01138Y01949*
X01139Y01948*
X01139Y01947*
X0114Y01947*
X01141Y01946*
X01141Y01946*
X01142Y01945*
X01143Y01945*
X01144Y01945*
X01144Y01944*
X01145Y01944*
X01146Y01944*
X01147Y01944*
X01148Y01944*
X01148*
X01149Y01944*
X0115Y01944*
X01151Y01944*
X01152Y01944*
X01152Y01945*
X01153Y01945*
X01154Y01945*
X01155Y01946*
X01155Y01946*
X01156Y01947*
X01157Y01947*
X01157Y01948*
X01158Y01949*
X01158Y01949*
X01159Y0195*
X01159Y01951*
X01159Y01952*
X0116Y01952*
X0116Y01953*
X0116Y01954*
X0116Y01955*
X0116Y01956*
X01533Y01593D02*
D01*
X01533Y01594*
X01533Y01595*
X01533Y01596*
X01533Y01596*
X01532Y01597*
X01532Y01598*
X01532Y01599*
X01531Y01599*
X01531Y016*
X0153Y01601*
X0153Y01601*
X01529Y01602*
X01529Y01603*
X01528Y01603*
X01527Y01604*
X01526Y01604*
X01526Y01604*
X01525Y01605*
X01524Y01605*
X01523Y01605*
X01522Y01605*
X01522Y01605*
X01521*
X0152Y01605*
X01519Y01605*
X01518Y01605*
X01517Y01605*
X01517Y01604*
X01516Y01604*
X01515Y01604*
X01514Y01603*
X01514Y01603*
X01513Y01602*
X01513Y01601*
X01512Y01601*
X01511Y016*
X01511Y01599*
X01511Y01599*
X0151Y01598*
X0151Y01597*
X0151Y01596*
X01509Y01596*
X01509Y01595*
X01509Y01594*
X01509Y01593*
X01509Y01592*
X01509Y01591*
X01509Y01591*
X0151Y0159*
X0151Y01589*
X0151Y01588*
X01511Y01587*
X01511Y01587*
X01511Y01586*
X01512Y01585*
X01513Y01585*
X01513Y01584*
X01514Y01584*
X01514Y01583*
X01515Y01583*
X01516Y01582*
X01517Y01582*
X01517Y01582*
X01518Y01581*
X01519Y01581*
X0152Y01581*
X01521Y01581*
X01522*
X01522Y01581*
X01523Y01581*
X01524Y01581*
X01525Y01582*
X01526Y01582*
X01526Y01582*
X01527Y01583*
X01528Y01583*
X01529Y01584*
X01529Y01584*
X0153Y01585*
X0153Y01585*
X01531Y01586*
X01531Y01587*
X01532Y01587*
X01532Y01588*
X01532Y01589*
X01533Y0159*
X01533Y01591*
X01533Y01591*
X01533Y01592*
X01533Y01593*
X05013Y01008D02*
D01*
X05013Y01008*
X05013Y01009*
X05013Y0101*
X05013Y01011*
X05013Y01012*
X05012Y01012*
X05012Y01013*
X05011Y01014*
X05011Y01015*
X0501Y01015*
X0501Y01016*
X05009Y01016*
X05009Y01017*
X05008Y01017*
X05007Y01018*
X05007Y01018*
X05006Y01019*
X05005Y01019*
X05004Y01019*
X05003Y01019*
X05003Y01019*
X05002Y01019*
X05001*
X05Y01019*
X04999Y01019*
X04998Y01019*
X04998Y01019*
X04997Y01019*
X04996Y01018*
X04995Y01018*
X04995Y01017*
X04994Y01017*
X04993Y01016*
X04993Y01016*
X04992Y01015*
X04992Y01015*
X04991Y01014*
X04991Y01013*
X0499Y01012*
X0499Y01012*
X0499Y01011*
X0499Y0101*
X04989Y01009*
X04989Y01008*
X04989Y01008*
X04989Y01007*
X04989Y01006*
X0499Y01005*
X0499Y01004*
X0499Y01003*
X0499Y01003*
X04991Y01002*
X04991Y01001*
X04992Y01*
X04992Y01*
X04993Y00999*
X04993Y00999*
X04994Y00998*
X04995Y00998*
X04995Y00997*
X04996Y00997*
X04997Y00996*
X04998Y00996*
X04998Y00996*
X04999Y00996*
X05Y00996*
X05001Y00996*
X05002*
X05003Y00996*
X05003Y00996*
X05004Y00996*
X05005Y00996*
X05006Y00996*
X05007Y00997*
X05007Y00997*
X05008Y00998*
X05009Y00998*
X05009Y00999*
X0501Y00999*
X0501Y01*
X05011Y01*
X05011Y01001*
X05012Y01002*
X05012Y01003*
X05013Y01003*
X05013Y01004*
X05013Y01005*
X05013Y01006*
X05013Y01007*
X05013Y01008*
X0494Y00638D02*
D01*
X0494Y00639*
X0494Y0064*
X0494Y0064*
X0494Y00641*
X04939Y00642*
X04939Y00643*
X04939Y00644*
X04938Y00644*
X04938Y00645*
X04937Y00646*
X04937Y00646*
X04936Y00647*
X04935Y00647*
X04935Y00648*
X04934Y00648*
X04933Y00649*
X04932Y00649*
X04932Y00649*
X04931Y0065*
X0493Y0065*
X04929Y0065*
X04928Y0065*
X04928*
X04927Y0065*
X04926Y0065*
X04925Y0065*
X04924Y00649*
X04924Y00649*
X04923Y00649*
X04922Y00648*
X04921Y00648*
X04921Y00647*
X0492Y00647*
X04919Y00646*
X04919Y00646*
X04918Y00645*
X04918Y00644*
X04917Y00644*
X04917Y00643*
X04917Y00642*
X04916Y00641*
X04916Y0064*
X04916Y0064*
X04916Y00639*
X04916Y00638*
X04916Y00637*
X04916Y00636*
X04916Y00635*
X04916Y00635*
X04917Y00634*
X04917Y00633*
X04917Y00632*
X04918Y00632*
X04918Y00631*
X04919Y0063*
X04919Y0063*
X0492Y00629*
X04921Y00629*
X04921Y00628*
X04922Y00628*
X04923Y00627*
X04924Y00627*
X04924Y00627*
X04925Y00626*
X04926Y00626*
X04927Y00626*
X04928Y00626*
X04928*
X04929Y00626*
X0493Y00626*
X04931Y00626*
X04932Y00627*
X04932Y00627*
X04933Y00627*
X04934Y00628*
X04935Y00628*
X04935Y00629*
X04936Y00629*
X04937Y0063*
X04937Y0063*
X04938Y00631*
X04938Y00632*
X04939Y00632*
X04939Y00633*
X04939Y00634*
X0494Y00635*
X0494Y00635*
X0494Y00636*
X0494Y00637*
X0494Y00638*
X01381Y00741D02*
D01*
X01381Y00741*
X01381Y00742*
X01381Y00743*
X01381Y00744*
X0138Y00745*
X0138Y00745*
X0138Y00746*
X01379Y00747*
X01379Y00748*
X01378Y00748*
X01378Y00749*
X01377Y00749*
X01376Y0075*
X01376Y0075*
X01375Y00751*
X01374Y00751*
X01373Y00752*
X01373Y00752*
X01372Y00752*
X01371Y00752*
X0137Y00752*
X01369Y00752*
X01369*
X01368Y00752*
X01367Y00752*
X01366Y00752*
X01365Y00752*
X01365Y00752*
X01364Y00751*
X01363Y00751*
X01362Y0075*
X01362Y0075*
X01361Y00749*
X0136Y00749*
X0136Y00748*
X01359Y00748*
X01359Y00747*
X01358Y00746*
X01358Y00745*
X01358Y00745*
X01357Y00744*
X01357Y00743*
X01357Y00742*
X01357Y00741*
X01357Y00741*
X01357Y0074*
X01357Y00739*
X01357Y00738*
X01357Y00737*
X01358Y00736*
X01358Y00736*
X01358Y00735*
X01359Y00734*
X01359Y00733*
X0136Y00733*
X0136Y00732*
X01361Y00732*
X01362Y00731*
X01362Y00731*
X01363Y0073*
X01364Y0073*
X01365Y00729*
X01365Y00729*
X01366Y00729*
X01367Y00729*
X01368Y00729*
X01369Y00729*
X01369*
X0137Y00729*
X01371Y00729*
X01372Y00729*
X01373Y00729*
X01373Y00729*
X01374Y0073*
X01375Y0073*
X01376Y00731*
X01376Y00731*
X01377Y00732*
X01378Y00732*
X01378Y00733*
X01379Y00733*
X01379Y00734*
X0138Y00735*
X0138Y00736*
X0138Y00736*
X01381Y00737*
X01381Y00738*
X01381Y00739*
X01381Y0074*
X01381Y00741*
X03422Y00862D02*
D01*
X03422Y00862*
X03422Y00863*
X03422Y00864*
X03422Y00865*
X03421Y00866*
X03421Y00866*
X03421Y00867*
X0342Y00868*
X0342Y00869*
X03419Y00869*
X03419Y0087*
X03418Y0087*
X03417Y00871*
X03417Y00871*
X03416Y00872*
X03415Y00872*
X03414Y00873*
X03414Y00873*
X03413Y00873*
X03412Y00873*
X03411Y00873*
X0341Y00873*
X0341*
X03409Y00873*
X03408Y00873*
X03407Y00873*
X03406Y00873*
X03406Y00873*
X03405Y00872*
X03404Y00872*
X03403Y00871*
X03403Y00871*
X03402Y0087*
X03401Y0087*
X03401Y00869*
X034Y00869*
X034Y00868*
X03399Y00867*
X03399Y00866*
X03399Y00866*
X03398Y00865*
X03398Y00864*
X03398Y00863*
X03398Y00862*
X03398Y00862*
X03398Y00861*
X03398Y0086*
X03398Y00859*
X03398Y00858*
X03399Y00857*
X03399Y00857*
X03399Y00856*
X034Y00855*
X034Y00854*
X03401Y00854*
X03401Y00853*
X03402Y00853*
X03403Y00852*
X03403Y00852*
X03404Y00851*
X03405Y00851*
X03406Y0085*
X03406Y0085*
X03407Y0085*
X03408Y0085*
X03409Y0085*
X0341Y0085*
X0341*
X03411Y0085*
X03412Y0085*
X03413Y0085*
X03414Y0085*
X03414Y0085*
X03415Y00851*
X03416Y00851*
X03417Y00852*
X03417Y00852*
X03418Y00853*
X03419Y00853*
X03419Y00854*
X0342Y00854*
X0342Y00855*
X03421Y00856*
X03421Y00857*
X03421Y00857*
X03422Y00858*
X03422Y00859*
X03422Y0086*
X03422Y00861*
X03422Y00862*
M02*