%FSTAX23Y23*%
%MOIN*%
%SFA1B1*%

%IPPOS*%
%AMD70*
4,1,8,0.005900,0.034500,-0.005900,0.034500,-0.015800,0.024600,-0.015800,-0.024600,-0.005900,-0.034500,0.005900,-0.034500,0.015800,-0.024600,0.015800,0.024600,0.005900,0.034500,0.0*
1,1,0.019820,0.005900,0.024600*
1,1,0.019820,-0.005900,0.024600*
1,1,0.019820,-0.005900,-0.024600*
1,1,0.019820,0.005900,-0.024600*
%
%AMD75*
4,1,8,0.034500,-0.005900,0.034500,0.005900,0.024600,0.015800,-0.024600,0.015800,-0.034500,0.005900,-0.034500,-0.005900,-0.024600,-0.015800,0.024600,-0.015800,0.034500,-0.005900,0.0*
1,1,0.019820,0.024600,-0.005900*
1,1,0.019820,0.024600,0.005900*
1,1,0.019820,-0.024600,0.005900*
1,1,0.019820,-0.024600,-0.005900*
%
%AMD92*
4,1,8,-0.031600,-0.013100,-0.013100,-0.031600,0.013100,-0.031600,0.031600,-0.013100,0.031600,0.013100,0.013100,0.031600,-0.013100,0.031600,-0.031600,0.013100,-0.031600,-0.013100,0.0*
%
%ADD33C,0.001000*%
G04~CAMADD=70~8~0.0~0.0~316.2~690.2~99.1~0.0~15~0.0~0.0~0.0~0.0~0~0.0~0.0~0.0~0.0~0~0.0~0.0~0.0~0.0~316.2~690.2*
%ADD70D70*%
%ADD71R,0.067060X0.106420*%
%ADD72O,0.082800X0.031620*%
%ADD73O,0.021780X0.078870*%
%ADD74R,0.106420X0.067060*%
G04~CAMADD=75~8~0.0~0.0~316.2~690.2~99.1~0.0~15~0.0~0.0~0.0~0.0~0~0.0~0.0~0.0~0.0~0~0.0~0.0~0.0~270.0~690.0~316.0*
%ADD75D75*%
%ADD76R,0.047370X0.061150*%
%ADD77R,0.049340X0.051310*%
%ADD78R,0.039500X0.027690*%
%ADD79R,0.027690X0.039500*%
%ADD80R,0.055240X0.061150*%
%ADD81R,0.061150X0.055240*%
%ADD82R,0.065090X0.053280*%
%ADD83R,0.053280X0.065090*%
%ADD84C,0.086740*%
%ADD85R,0.067060X0.067060*%
%ADD86C,0.067060*%
%ADD87C,0.118240*%
%ADD88C,0.161540*%
%ADD89C,0.068000*%
%ADD90C,0.122170*%
%ADD91R,0.067060X0.067060*%
G04~CAMADD=92~4~0.0~0.0~631.2~631.2~0.0~184.9~0~0.0~0.0~0.0~0.0~0~0.0~0.0~0.0~0.0~0~0.0~0.0~0.0~135.0~631.2~631.2*
%ADD92D92*%
%ADD93C,0.063120*%
%ADD94C,0.126110*%
%ADD95C,0.058000*%
%ADD96C,0.030840*%
%ADD97C,0.110360*%
%ADD98C,0.165000*%
%ADD99C,0.048000*%
%ADD100C,0.028000*%
%ADD101C,0.070000*%
%LNcareboard_smd_ordered_6.29-1*%
%LPD*%
G54D33*
X06963Y0D02*
Y026D01*
X0D02*
X06963D01*
X0Y0D02*
X06963D01*
X0D02*
Y026D01*
G54D70*
X0336Y00575D03*
X03125D03*
X03164D03*
X03203D03*
X03243D03*
X03282D03*
X03321D03*
X04128Y0133D03*
X04089D03*
X04049D03*
X0401D03*
X02302Y02176D03*
X02341D03*
X02381D03*
X0242D03*
G54D71*
X03419Y00678D03*
X03066D03*
X04186Y01215D03*
X03949D03*
X02244Y02291D03*
X02481D03*
G54D72*
X02283Y01989D03*
Y01939D03*
Y01889D03*
Y01839D03*
X02468Y01989D03*
Y01939D03*
Y01889D03*
Y01839D03*
X01261Y021D03*
Y0205D03*
Y02D03*
Y0195D03*
Y019D03*
Y0185D03*
Y018D03*
X01446Y021D03*
Y0205D03*
Y02D03*
Y0195D03*
Y019D03*
Y0185D03*
Y018D03*
X03261Y02017D03*
Y01967D03*
Y01917D03*
Y01867D03*
Y01817D03*
Y01767D03*
Y01717D03*
X03446Y02017D03*
Y01967D03*
Y01917D03*
Y01867D03*
Y01817D03*
Y01767D03*
Y01717D03*
X02281Y01667D03*
Y01617D03*
Y01567D03*
Y01517D03*
X02467Y01667D03*
Y01617D03*
Y01567D03*
Y01517D03*
G54D73*
X04048Y01019D03*
X04023D03*
X03997D03*
X03972D03*
X03946D03*
X0392D03*
X03895D03*
X03869D03*
X03844D03*
X03818D03*
X03792D03*
X03767D03*
X03741D03*
X03716D03*
X04048Y00752D03*
X04023D03*
X03997D03*
X03972D03*
X03946D03*
X0392D03*
X03895D03*
X03869D03*
X03844D03*
X03818D03*
X03792D03*
X03767D03*
X03741D03*
X03716D03*
G54D74*
X01587Y00524D03*
Y00797D03*
G54D75*
X01705Y00741D03*
Y00585D03*
Y00624D03*
Y00663D03*
Y00702D03*
G54D76*
X04754Y02307D03*
X04692D03*
G54D77*
X0434Y00849D03*
Y00928D03*
G54D78*
X03523Y02208D03*
X03463D03*
X03523Y02347D03*
X03463D03*
G54D79*
X02571Y0042D03*
Y0048D03*
G54D80*
X05849Y0087D03*
X05921D03*
X01292Y02254D03*
X01365D03*
X01292Y02352D03*
X01365D03*
X03374Y01538D03*
X03446D03*
X03888Y0193D03*
X03961D03*
G54D81*
X06499Y00584D03*
Y00512D03*
X00984Y02097D03*
Y02169D03*
X02862Y02236D03*
Y02309D03*
X04115Y01929D03*
Y02002D03*
X03888Y02194D03*
Y02267D03*
X03663Y0204D03*
Y01967D03*
Y02194D03*
Y02267D03*
X02457Y00482D03*
Y00409D03*
X00127Y02205D03*
Y02278D03*
X00129Y01282D03*
Y01209D03*
X00347Y00938D03*
Y01011D03*
G54D82*
X01081Y02172D03*
Y02099D03*
X01052Y01777D03*
Y0185D03*
X03224Y02236D03*
Y02309D03*
X03059Y02236D03*
Y02309D03*
X03074Y01819D03*
Y01746D03*
X04115Y02192D03*
Y02265D03*
X0423Y00926D03*
Y00853D03*
G54D83*
X03072Y01649D03*
X03145D03*
X03888Y02039D03*
X03961D03*
G54D84*
X06787Y02258D03*
X0688D03*
X06689Y02516D03*
Y02418D03*
X0688Y02014D03*
X06787Y02014D03*
X06686Y01734D03*
Y01832D03*
X06015Y01831D03*
Y01733D03*
X06116Y02013D03*
X06209Y02013D03*
X06018Y02417D03*
Y02515D03*
X06209Y02257D03*
X06116D03*
G54D85*
X06673Y01975D03*
X06002Y01974D03*
X00418Y01561D03*
X03291Y01255D03*
G54D86*
X06673Y02075D03*
Y02176D03*
Y02277D03*
X06002Y02276D03*
Y02175D03*
Y02074D03*
X02618Y00641D03*
X02518Y00741D03*
Y00641D03*
X02418Y00741D03*
Y00641D03*
X06492Y00078D03*
X06392D03*
X06292D03*
X06192D03*
X05992D03*
X06092D03*
X00418Y01961D03*
Y01861D03*
Y01761D03*
Y01661D03*
X0618Y00956D03*
X03191Y01255D03*
X03091D03*
X02991D03*
X02891D03*
X02791D03*
X02691D03*
X02591D03*
X02491D03*
X02391D03*
X02291D03*
X02191D03*
X02091D03*
X01991D03*
X03291Y00955D03*
X03191D03*
X03091D03*
X02991D03*
X02891D03*
X02791D03*
X02691D03*
X02591D03*
X02491D03*
X02391D03*
X02291D03*
X02191D03*
X02091D03*
X01991D03*
X06526Y01724D03*
X06476Y01774D03*
X06893Y01773D03*
X06846Y01723D03*
Y02535D03*
X06893Y02488D03*
X06519Y02535D03*
X06469Y02488D03*
X05798Y02487D03*
X05848Y02534D03*
X06222Y02487D03*
X06175Y02534D03*
Y01722D03*
X06222Y01772D03*
X05805Y01773D03*
X05855Y01723D03*
G54D87*
X00347Y00787D03*
X00197D03*
G54D88*
X00272Y00577D03*
Y00307D03*
G54D89*
X06742Y01118D03*
X06642Y01116D03*
X06745Y00272D03*
X06645Y0027D03*
X0575Y00272D03*
X0565Y0027D03*
G54D90*
X00127Y01467D03*
Y01652D03*
Y01837D03*
Y02022D03*
G54D91*
X02618Y00741D03*
X05892Y00078D03*
X0628Y00956D03*
G54D92*
X01506Y01019D03*
G54D93*
X01506Y01211D03*
G54D94*
X05548Y01118D03*
X05847Y01117D03*
G54D95*
X0653Y02034D03*
Y02219D03*
X06465Y02034D03*
Y02219D03*
X05794Y02218D03*
Y02033D03*
X05859Y02218D03*
Y02033D03*
X01401Y00626D03*
X05112Y00307D03*
X0517Y00873D03*
X02733Y0042D03*
X03042Y00391D03*
Y00567D03*
X008Y0124D03*
X02743Y01633D03*
X02708Y02204D03*
Y02427D03*
X01752Y01867D03*
X00938Y01956D03*
X01148D03*
X01521Y01593D03*
X01369Y00741D03*
X0341Y00862D03*
G54D96*
X04785Y00687D03*
X04815Y00668D03*
X04785Y00648D03*
X04844Y00687D03*
Y00648D03*
G54D97*
X00272Y02252D03*
Y01252D03*
G54D98*
X04312Y00231D03*
Y02381D03*
X01587D03*
Y00231D03*
G54D99*
X0152Y02D03*
X03187Y01767D03*
X03519Y01917D03*
X04249Y01981D03*
X01335Y02D03*
X01188Y0185D03*
X04754Y02168D03*
X02952Y01635D03*
X03519Y01817D03*
X03568Y02117D03*
X01335Y018D03*
X04692Y02168D03*
X03187Y01967D03*
X03068Y02113D03*
X03345Y0182D03*
X01188Y0205D03*
X02847Y01793D03*
X02109Y01939D03*
X01541Y01894D03*
X02595Y01693D03*
X0257Y01994D03*
X03671Y01847D03*
X05092Y02037D03*
X04964D03*
Y02127D03*
X05092Y02125D03*
X05001Y01008D03*
X04928Y00638D03*
X05028Y02084D03*
X03869Y00634D03*
X03895Y01132D03*
X0254Y01617D03*
X02356Y01839D03*
X02541D03*
X02181Y02171D03*
X0182Y01961D03*
X01335Y019D03*
X0152Y021D03*
X02209Y01989D03*
X02553Y02173D03*
X03535Y02017D03*
X04129Y01474D03*
G54D100*
X04927Y00545D03*
X04823D03*
G54D101*
X03945Y01395D03*
M02*