%FSTAX23Y23*%
%MOIN*%
%SFA1B1*%

%IPPOS*%
%ADD33C,0.001000*%
%ADD113C,0.005000*%
%LNcareboard_smd_ordered_6.29-1*%
%LPD*%
G54D33*
X06963Y0D02*
Y026D01*
X0D02*
X06963D01*
X0Y0D02*
X06963D01*
X0D02*
Y026D01*
G54D113*
X06757Y02258D02*
X06817D01*
X06787Y02228D02*
Y02287D01*
X0685Y02258D02*
X0691D01*
X0688Y02228D02*
Y02287D01*
X06659Y02516D02*
X06719D01*
X06689Y02486D02*
Y02545D01*
X06659Y02418D02*
X06719D01*
X06689Y02388D02*
Y02447D01*
X0685Y02014D02*
X0691D01*
X0688Y01984D02*
Y02043D01*
X06757Y02014D02*
X06817D01*
X06787Y01985D02*
Y02044D01*
X06655Y01975D02*
X06691D01*
X06673Y01957D02*
Y01992D01*
X06655Y02075D02*
X06691D01*
X06673Y02058D02*
Y02093D01*
X06655Y02176D02*
X06691D01*
X06673Y02158D02*
Y02194D01*
X06655Y02277D02*
X06691D01*
X06673Y02259D02*
Y02294D01*
X06656Y01734D02*
X06716D01*
X06686Y01704D02*
Y01763D01*
X06656Y01832D02*
X06716D01*
X06686Y01802D02*
Y01861D01*
X05985Y01831D02*
X06045D01*
X06015Y01801D02*
Y0186D01*
X05985Y01733D02*
X06045D01*
X06015Y01703D02*
Y01762D01*
X05984Y02276D02*
X0602D01*
X06002Y02258D02*
Y02293D01*
X05984Y02175D02*
X0602D01*
X06002Y02157D02*
Y02193D01*
X05984Y02074D02*
X0602D01*
X06002Y02057D02*
Y02092D01*
X05984Y01974D02*
X0602D01*
X06002Y01956D02*
Y01991D01*
X06086Y02013D02*
X06146D01*
X06116Y01984D02*
Y02043D01*
X06179Y02013D02*
X06239D01*
X06209Y01983D02*
Y02042D01*
X05988Y02417D02*
X06048D01*
X06018Y02387D02*
Y02446D01*
X05988Y02515D02*
X06048D01*
X06018Y02485D02*
Y02544D01*
X06179Y02257D02*
X06239D01*
X06209Y02227D02*
Y02286D01*
X06086Y02257D02*
X06146D01*
X06116Y02227D02*
Y02286D01*
X00304Y00787D02*
X0039D01*
X00347Y00743D02*
Y0083D01*
X00209Y00577D02*
X00335D01*
X00272Y00514D02*
Y00639D01*
X00154Y00787D02*
X0024D01*
X00197Y00743D02*
Y0083D01*
X00209Y00307D02*
X00335D01*
X00272Y00244D02*
Y00369D01*
X06727Y01118D02*
X06757D01*
X06742Y01103D02*
Y01133D01*
X06627Y01116D02*
X06657D01*
X06642Y01101D02*
Y01131D01*
X0673Y00272D02*
X0676D01*
X06745Y00257D02*
Y00287D01*
X0663Y0027D02*
X0666D01*
X06645Y00255D02*
Y00285D01*
X05735Y00272D02*
X05765D01*
X0575Y00257D02*
Y00287D01*
X05635Y0027D02*
X05665D01*
X0565Y00255D02*
Y00285D01*
X00082Y01467D02*
X00172D01*
X00127Y01421D02*
Y01512D01*
X00082Y01652D02*
X00172D01*
X00127Y01606D02*
Y01697D01*
X00082Y01837D02*
X00172D01*
X00127Y01791D02*
Y01882D01*
X00082Y02022D02*
X00172D01*
X00127Y01976D02*
Y02067D01*
X026Y00741D02*
X02635D01*
X02618Y00723D02*
Y00758D01*
X026Y00641D02*
X02635D01*
X02618Y00623D02*
Y00658D01*
X025Y00741D02*
X02535D01*
X02518Y00723D02*
Y00758D01*
X025Y00641D02*
X02535D01*
X02518Y00623D02*
Y00658D01*
X024Y00741D02*
X02435D01*
X02418Y00723D02*
Y00758D01*
X024Y00641D02*
X02435D01*
X02418Y00623D02*
Y00658D01*
X06474Y00078D02*
X0651D01*
X06492Y0006D02*
Y00096D01*
X06374Y00078D02*
X0641D01*
X06392Y0006D02*
Y00096D01*
X06274Y00078D02*
X0631D01*
X06292Y0006D02*
Y00096D01*
X06174Y00078D02*
X0621D01*
X06192Y0006D02*
Y00096D01*
X05974Y00078D02*
X0601D01*
X05992Y0006D02*
Y00096D01*
X05874Y00078D02*
X0591D01*
X05892Y0006D02*
Y00096D01*
X06074Y00078D02*
X0611D01*
X06092Y0006D02*
Y00096D01*
X004Y01961D02*
X00436D01*
X00418Y01943D02*
Y01978D01*
X004Y01861D02*
X00436D01*
X00418Y01843D02*
Y01878D01*
X004Y01761D02*
X00436D01*
X00418Y01743D02*
Y01778D01*
X004Y01661D02*
X00436D01*
X00418Y01643D02*
Y01678D01*
X004Y01561D02*
X00436D01*
X00418Y01543D02*
Y01578D01*
X06262Y00956D02*
X06298D01*
X0628Y00938D02*
Y00974D01*
X06162Y00956D02*
X06198D01*
X0618Y00938D02*
Y00974D01*
X0149Y01019D02*
X01522D01*
X01506Y01003D02*
Y01034D01*
X0149Y01211D02*
X01522D01*
X01506Y01195D02*
Y01227D01*
X05498Y01118D02*
X05597D01*
X05548Y01068D02*
Y01167D01*
X05797Y01117D02*
X05896D01*
X05847Y01067D02*
Y01166D01*
X03273Y01255D02*
X03308D01*
X03291Y01238D02*
Y01273D01*
X03173Y01255D02*
X03208D01*
X03191Y01238D02*
Y01273D01*
X03073Y01255D02*
X03108D01*
X03091Y01238D02*
Y01273D01*
X02973Y01255D02*
X03008D01*
X02991Y01238D02*
Y01273D01*
X02873Y01255D02*
X02908D01*
X02891Y01238D02*
Y01273D01*
X02773Y01255D02*
X02808D01*
X02791Y01238D02*
Y01273D01*
X02673Y01255D02*
X02708D01*
X02691Y01238D02*
Y01273D01*
X02573Y01255D02*
X02608D01*
X02591Y01238D02*
Y01273D01*
X02473Y01255D02*
X02508D01*
X02491Y01238D02*
Y01273D01*
X02373Y01255D02*
X02408D01*
X02391Y01238D02*
Y01273D01*
X02273Y01255D02*
X02308D01*
X02291Y01238D02*
Y01273D01*
X02173Y01255D02*
X02208D01*
X02191Y01238D02*
Y01273D01*
X02073Y01255D02*
X02108D01*
X02091Y01238D02*
Y01273D01*
X01973Y01255D02*
X02008D01*
X01991Y01238D02*
Y01273D01*
X03273Y00955D02*
X03308D01*
X03291Y00938D02*
Y00973D01*
X03173Y00955D02*
X03208D01*
X03191Y00938D02*
Y00973D01*
X03073Y00955D02*
X03108D01*
X03091Y00938D02*
Y00973D01*
X02973Y00955D02*
X03008D01*
X02991Y00938D02*
Y00973D01*
X02873Y00955D02*
X02908D01*
X02891Y00938D02*
Y00973D01*
X02773Y00955D02*
X02808D01*
X02791Y00938D02*
Y00973D01*
X02673Y00955D02*
X02708D01*
X02691Y00938D02*
Y00973D01*
X02573Y00955D02*
X02608D01*
X02591Y00938D02*
Y00973D01*
X02473Y00955D02*
X02508D01*
X02491Y00938D02*
Y00973D01*
X02373Y00955D02*
X02408D01*
X02391Y00938D02*
Y00973D01*
X02273Y00955D02*
X02308D01*
X02291Y00938D02*
Y00973D01*
X02173Y00955D02*
X02208D01*
X02191Y00938D02*
Y00973D01*
X02073Y00955D02*
X02108D01*
X02091Y00938D02*
Y00973D01*
X01973Y00955D02*
X02008D01*
X01991Y00938D02*
Y00973D01*
X065Y01724D02*
X06552D01*
X06526Y01698D02*
Y01749D01*
X0645Y01774D02*
X06502D01*
X06476Y01748D02*
Y01799D01*
X06867Y01773D02*
X06918D01*
X06893Y01748D02*
Y01799D01*
X06821Y01723D02*
X06872D01*
X06846Y01698D02*
Y01749D01*
X06821Y02535D02*
X06872D01*
X06846Y02509D02*
Y0256D01*
X06867Y02488D02*
X06918D01*
X06893Y02463D02*
Y02514D01*
X06493Y02535D02*
X06545D01*
X06519Y02509D02*
Y0256D01*
X06443Y02488D02*
X06495D01*
X06469Y02463D02*
Y02514D01*
X06516Y02034D02*
X06544D01*
X0653Y0202D02*
Y02048D01*
X06516Y02219D02*
X06544D01*
X0653Y02205D02*
Y02233D01*
X06451Y02034D02*
X06479D01*
X06465Y0202D02*
Y02048D01*
X06451Y02219D02*
X06479D01*
X06465Y02205D02*
Y02233D01*
X0578Y02218D02*
X05808D01*
X05794Y02204D02*
Y02232D01*
X0578Y02033D02*
X05808D01*
X05794Y02019D02*
Y02047D01*
X05845Y02218D02*
X05873D01*
X05859Y02204D02*
Y02232D01*
X05845Y02033D02*
X05873D01*
X05859Y02019D02*
Y02047D01*
X05772Y02487D02*
X05824D01*
X05798Y02462D02*
Y02513D01*
X05822Y02534D02*
X05874D01*
X05848Y02508D02*
Y02559D01*
X06196Y02487D02*
X06247D01*
X06222Y02462D02*
Y02513D01*
X0615Y02534D02*
X06201D01*
X06175Y02508D02*
Y02559D01*
X0615Y01722D02*
X06201D01*
X06175Y01697D02*
Y01748D01*
X06196Y01772D02*
X06247D01*
X06222Y01747D02*
Y01798D01*
X05779Y01773D02*
X05831D01*
X05805Y01747D02*
Y01798D01*
X05829Y01723D02*
X05881D01*
X05855Y01697D02*
Y01748D01*
X04778Y00687D02*
X04793D01*
X04785Y0068D02*
Y00695D01*
X04807Y00668D02*
X04822D01*
X04815Y0066D02*
Y00675D01*
X04778Y00648D02*
X04793D01*
X04785Y0064D02*
Y00655D01*
X04837Y00687D02*
X04852D01*
X04844Y0068D02*
Y00695D01*
X04837Y00648D02*
X04852D01*
X04844Y0064D02*
Y00655D01*
X00225Y02252D02*
X00319D01*
X00272Y02204D02*
Y02299D01*
X00225Y01252D02*
X00319D01*
X00272Y01204D02*
Y01299D01*
X04234Y00231D02*
X04391D01*
X04312Y00152D02*
Y00309D01*
X04234Y02381D02*
X04391D01*
X04312Y02302D02*
Y02459D01*
X01509Y02381D02*
X01666D01*
X01587Y02302D02*
Y02459D01*
X01509Y00231D02*
X01666D01*
X01587Y00152D02*
Y00309D01*
X0151Y02D02*
X0153D01*
X0152Y0199D02*
Y0201D01*
X03177Y01767D02*
X03197D01*
X03187Y01757D02*
Y01777D01*
X03509Y01917D02*
X03529D01*
X03519Y01907D02*
Y01927D01*
X04239Y01981D02*
X04259D01*
X04249Y01971D02*
Y01991D01*
X01325Y02D02*
X01345D01*
X01335Y0199D02*
Y0201D01*
X01178Y0185D02*
X01198D01*
X01188Y0184D02*
Y0186D01*
X01387Y00626D02*
X01415D01*
X01401Y00612D02*
Y0064D01*
X0492Y00545D02*
X04935D01*
X04927Y00538D02*
Y00553D01*
X04816Y00545D02*
X04831D01*
X04823Y00538D02*
Y00553D01*
X05098Y00307D02*
X05126D01*
X05112Y00293D02*
Y00321D01*
X05156Y00873D02*
X05184D01*
X0517Y00859D02*
Y00887D01*
X02719Y0042D02*
X02747D01*
X02733Y00406D02*
Y00434D01*
X04744Y02168D02*
X04764D01*
X04754Y02158D02*
Y02178D01*
X03028Y00391D02*
X03056D01*
X03042Y00377D02*
Y00405D01*
X03028Y00567D02*
X03056D01*
X03042Y00553D02*
Y00581D01*
X00786Y0124D02*
X00814D01*
X008Y01226D02*
Y01254D01*
X02942Y01635D02*
X02962D01*
X02952Y01625D02*
Y01645D01*
X02729Y01633D02*
X02757D01*
X02743Y01619D02*
Y01647D01*
X02694Y02204D02*
X02722D01*
X02708Y0219D02*
Y02218D01*
X02694Y02427D02*
X02722D01*
X02708Y02413D02*
Y02441D01*
X01738Y01867D02*
X01766D01*
X01752Y01853D02*
Y01881D01*
X00924Y01956D02*
X00952D01*
X00938Y01942D02*
Y0197D01*
X01134Y01956D02*
X01162D01*
X01148Y01942D02*
Y0197D01*
X01507Y01593D02*
X01535D01*
X01521Y01579D02*
Y01607D01*
X03509Y01817D02*
X03529D01*
X03519Y01807D02*
Y01827D01*
X03558Y02117D02*
X03578D01*
X03568Y02107D02*
Y02127D01*
X01325Y018D02*
X01345D01*
X01335Y0179D02*
Y0181D01*
X04682Y02168D02*
X04702D01*
X04692Y02158D02*
Y02178D01*
X03177Y01967D02*
X03197D01*
X03187Y01957D02*
Y01977D01*
X03058Y02113D02*
X03078D01*
X03068Y02103D02*
Y02123D01*
X03335Y0182D02*
X03355D01*
X03345Y0181D02*
Y0183D01*
X01178Y0205D02*
X01198D01*
X01188Y0204D02*
Y0206D01*
X02837Y01793D02*
X02857D01*
X02847Y01783D02*
Y01803D01*
X02099Y01939D02*
X02119D01*
X02109Y01929D02*
Y01949D01*
X01531Y01894D02*
X01551D01*
X01541Y01884D02*
Y01904D01*
X02585Y01693D02*
X02605D01*
X02595Y01683D02*
Y01703D01*
X0256Y01994D02*
X0258D01*
X0257Y01984D02*
Y02004D01*
X03661Y01847D02*
X03681D01*
X03671Y01837D02*
Y01857D01*
X03929Y01395D02*
X03961D01*
X03945Y01379D02*
Y01411D01*
X05082Y02037D02*
X05102D01*
X05092Y02027D02*
Y02047D01*
X04954Y02037D02*
X04974D01*
X04964Y02027D02*
Y02047D01*
X04954Y02127D02*
X04974D01*
X04964Y02117D02*
Y02137D01*
X05082Y02125D02*
X05102D01*
X05092Y02115D02*
Y02135D01*
X04987Y01008D02*
X05015D01*
X05001Y00994D02*
Y01022D01*
X04914Y00638D02*
X04942D01*
X04928Y00624D02*
Y00652D01*
X05018Y02084D02*
X05038D01*
X05028Y02074D02*
Y02094D01*
X03859Y00634D02*
X03879D01*
X03869Y00624D02*
Y00644D01*
X03885Y01132D02*
X03905D01*
X03895Y01122D02*
Y01142D01*
X01355Y00741D02*
X01383D01*
X01369Y00727D02*
Y00755D01*
X03396Y00862D02*
X03424D01*
X0341Y00848D02*
Y00876D01*
X0253Y01617D02*
X0255D01*
X0254Y01607D02*
Y01627D01*
X02346Y01839D02*
X02366D01*
X02356Y01829D02*
Y01849D01*
X02531Y01839D02*
X02551D01*
X02541Y01829D02*
Y01849D01*
X02171Y02171D02*
X02191D01*
X02181Y02161D02*
Y02181D01*
X0181Y01961D02*
X0183D01*
X0182Y01951D02*
Y01971D01*
X01325Y019D02*
X01345D01*
X01335Y0189D02*
Y0191D01*
X0151Y021D02*
X0153D01*
X0152Y0209D02*
Y0211D01*
X02199Y01989D02*
X02219D01*
X02209Y01979D02*
Y01999D01*
X02543Y02173D02*
X02563D01*
X02553Y02163D02*
Y02183D01*
X03525Y02017D02*
X03545D01*
X03535Y02007D02*
Y02027D01*
X04119Y01474D02*
X04139D01*
X04129Y01464D02*
Y01484D01*
M02*