%FSTAX23Y23*%
%MOIN*%
%SFA1B1*%

%IPPOS*%
%AMD10*
4,1,8,0.005900,0.030500,-0.005900,0.030500,-0.011800,0.024600,-0.011800,-0.024600,-0.005900,-0.030500,0.005900,-0.030500,0.011800,-0.024600,0.011800,0.024600,0.005900,0.030500,0.0*
1,1,0.011820,0.005900,0.024600*
1,1,0.011820,-0.005900,0.024600*
1,1,0.011820,-0.005900,-0.024600*
1,1,0.011820,0.005900,-0.024600*
%
%AMD15*
4,1,8,0.030500,-0.005900,0.030500,0.005900,0.024600,0.011800,-0.024600,0.011800,-0.030500,0.005900,-0.030500,-0.005900,-0.024600,-0.011800,0.024600,-0.011800,0.030500,-0.005900,0.0*
1,1,0.011820,0.024600,-0.005900*
1,1,0.011820,0.024600,0.005900*
1,1,0.011820,-0.024600,0.005900*
1,1,0.011820,-0.024600,-0.005900*
%
%AMD42*
4,1,8,-0.027600,-0.011500,-0.011500,-0.027600,0.011500,-0.027600,0.027600,-0.011500,0.027600,0.011500,0.011500,0.027600,-0.011500,0.027600,-0.027600,0.011500,-0.027600,-0.011500,0.0*
%
G04~CAMADD=10~8~0.0~0.0~236.2~610.2~59.1~0.0~15~0.0~0.0~0.0~0.0~0~0.0~0.0~0.0~0.0~0~0.0~0.0~0.0~0.0~236.2~610.2*
%ADD10D10*%
%ADD11R,0.059060X0.098430*%
%ADD12O,0.074800X0.023620*%
%ADD13O,0.013780X0.070870*%
%ADD14R,0.098430X0.059060*%
G04~CAMADD=15~8~0.0~0.0~236.2~610.2~59.1~0.0~15~0.0~0.0~0.0~0.0~0~0.0~0.0~0.0~0.0~0~0.0~0.0~0.0~270.0~610.0~236.0*
%ADD15D15*%
%ADD16R,0.039370X0.053150*%
%ADD17R,0.041340X0.043310*%
%ADD18R,0.031500X0.019690*%
%ADD19R,0.019690X0.031500*%
%ADD20R,0.047240X0.053150*%
%ADD21R,0.053150X0.047240*%
%ADD22R,0.057090X0.045280*%
%ADD23R,0.045280X0.057090*%
%ADD24C,0.039370*%
%ADD25C,0.015000*%
%ADD26C,0.020000*%
%ADD27C,0.013000*%
%ADD28C,0.040000*%
%ADD29C,0.050000*%
%ADD30C,0.030000*%
%ADD31C,0.065000*%
%ADD32C,0.060000*%
%ADD33C,0.001000*%
%ADD34C,0.078740*%
%ADD35R,0.059060X0.059060*%
%ADD36C,0.059060*%
%ADD37C,0.110240*%
%ADD38C,0.153540*%
%ADD39C,0.060000*%
%ADD40C,0.114170*%
%ADD41R,0.059060X0.059060*%
G04~CAMADD=42~4~0.0~0.0~551.2~551.2~0.0~161.4~0~0.0~0.0~0.0~0.0~0~0.0~0.0~0.0~0.0~0~0.0~0.0~0.0~135.0~551.2~551.2*
%ADD42D42*%
%ADD43C,0.055120*%
%ADD44C,0.118110*%
%ADD45C,0.050000*%
%ADD46C,0.022840*%
%ADD47C,0.102360*%
%ADD48C,0.157000*%
%ADD49C,0.040000*%
%ADD50C,0.020000*%
%ADD51C,0.062000*%
%LNcareboard_smd_ordered_6.29-1*%
%LPD*%
G36*
X00504Y00216D02*
X00328D01*
X00327Y0022*
X00329Y00221*
X00344Y00234*
X00357Y0025*
X00366Y00267*
X00372Y00287*
X00374Y00307*
X00372Y00326*
X00366Y00346*
X00357Y00363*
X00344Y00379*
X00329Y00392*
X00311Y00401*
X00292Y00407*
X00272Y00409*
X00252Y00407*
X00233Y00401*
X00215Y00392*
X002Y00379*
X00187Y00363*
X00178Y00346*
X00172Y00326*
X0017Y00307*
X00172Y00287*
X00178Y00267*
X00187Y0025*
X002Y00234*
X00215Y00221*
X00217Y0022*
X00216Y00216*
X0004*
Y01461*
X00045Y01462*
X00046Y0145*
X00051Y01435*
X00058Y01421*
X00069Y01408*
X00081Y01398*
X00095Y0139*
X00096Y0139*
Y01331*
X00077*
Y01233*
X00181*
Y01331*
X00162*
Y01392*
X00173Y01398*
X00185Y01408*
X00196Y01421*
X00203Y01435*
X00208Y0145*
X00209Y01467*
X00208Y01483*
X00204Y01497*
X00341Y01634*
X00346Y01641*
X00348Y01645*
X0035Y01649*
X0035Y01653*
X00351Y01658*
Y01707*
X00371Y01727*
X00376Y01726*
X00379Y01722*
X0039Y01713*
Y01708*
X00379Y01699*
X0037Y01688*
X00365Y01675*
X00363Y01661*
X00365Y01646*
X0037Y01633*
X00379Y01622*
X00382Y0162*
X0038Y01615*
X00363*
Y01506*
X00473*
Y01615*
X00456*
X00454Y0162*
X00457Y01622*
X00466Y01633*
X00471Y01646*
X00473Y01661*
X00471Y01675*
X00466Y01688*
X00457Y01699*
X00446Y01708*
Y01713*
X00457Y01722*
X00466Y01733*
X00471Y01746*
X00473Y01761*
X00471Y01775*
X00466Y01788*
X00457Y01799*
X00446Y01808*
Y01813*
X00457Y01822*
X00466Y01833*
X00471Y01846*
X00473Y01861*
X00471Y01875*
X00466Y01888*
X00457Y01899*
X00446Y01908*
X00432Y01914*
X00418Y01916*
X00404Y01914*
X00391Y01908*
X00379Y01899*
X00378Y01899*
X00351Y01926*
Y01978*
X0035Y01986*
X00346Y01994*
X00343Y01998*
X00341Y02001*
X00297Y02045*
X0029Y0205*
X00286Y02052*
X00282Y02053*
X00278Y02054*
X00274Y02054*
X00203*
X00196Y02067*
X00185Y0208*
X00173Y0209*
X0016Y02097*
Y02156*
X00179*
Y02254*
X00075*
Y02156*
X00094*
Y02097*
X00081Y0209*
X00069Y0208*
X00058Y02067*
X00051Y02053*
X00046Y02038*
X00045Y02026*
X0004Y02027*
Y02368*
X00504*
Y00216*
G37*
G36*
X03345Y01986D02*
X03344Y01865D01*
X03333Y01863*
X03322Y01859*
X03314Y01852*
X03298*
X03296Y01853*
X03286Y01855*
X03235*
X03226Y01853*
X03218Y0185*
X03128*
Y01867*
X0302*
Y01771*
Y01698*
X03025*
Y01595*
X0304*
Y01593*
X0304Y01589*
X03041Y01585*
X03042Y01581*
X03044Y01577*
X03049Y0157*
X03106Y01513*
X03113Y01508*
X03121Y01505*
X03129Y01504*
X03137Y01505*
X03325*
Y01486*
X0334*
X03343Y01482*
X03343Y01435*
X02883Y01434*
X0288Y01438*
Y01761*
X02886Y0177*
X02891Y01781*
X02892Y01791*
X03001Y019*
X03113*
X03119Y01894*
X03122Y01892*
X03126Y01889*
X0313Y01887*
X03134Y01886*
X03138Y01885*
X03142Y01885*
X03218*
X03226Y01882*
X03235Y0188*
X03286*
X03296Y01882*
X03305Y01885*
X03313Y01891*
X03319Y01899*
X03322Y01908*
X03324Y01917*
X03322Y01927*
X03319Y01936*
X03314Y01942*
X03319Y01949*
X03322Y01958*
X03324Y01967*
X03322Y01977*
X03319Y01984*
X03322Y01988*
X03335*
X0334Y01989*
X03341Y01989*
X03345Y01986*
G37*
G36*
X02007Y01379D02*
Y01312D01*
X02003Y01309*
X01991Y0131*
X01976Y01308*
X01963Y01303*
X01952Y01294*
X01943Y01283*
X01938Y01269*
X01936Y01255*
X01938Y01241*
X01943Y01228*
X01952Y01216*
X01957Y01212*
Y01206*
X01958Y01201*
X01958Y01197*
X0196Y01193*
X01962Y01189*
X01967Y01182*
X02008Y01141*
Y01012*
X02004Y01008*
X01991Y0101*
X01976Y01008*
X01963Y01003*
X01952Y00994*
X01943Y00983*
X01938Y00969*
X01936Y00955*
X01938Y00941*
X01943Y00928*
X01952Y00916*
X01957Y00912*
Y00886*
X01805Y00734*
X01761*
X01761Y00735*
Y00746*
X0176Y00754*
X01757Y00762*
X01752Y00768*
X01745Y00773*
X01738Y00777*
X0173Y00778*
X0168*
X01672Y00777*
X01665Y00774*
X01664Y00775*
X01661Y00778*
Y00851*
X01513*
Y00773*
X01407*
X01405Y00776*
X01394Y00784*
X01382Y00789*
X01369Y00791*
X01356Y00789*
X01344Y00784*
X01333Y00776*
X01325Y00766*
X0132Y00754*
X01319Y00741*
X0132Y00727*
X01325Y00715*
X01333Y00705*
X01344Y00697*
X01356Y00692*
X01369Y0069*
X01382Y00692*
X01394Y00697*
X01405Y00705*
X01407Y00708*
X01649*
X01649Y00707*
Y00696*
X0165Y00688*
X01653Y00682*
X0165Y00676*
X01649Y00668*
X01645Y00666*
X01642Y00667*
X0163Y00669*
X015*
X01492Y00672*
X01479Y00674*
X01417*
X01414Y00675*
X01401Y00677*
X01388Y00675*
X01376Y0067*
X01366Y00662*
X01358Y00651*
X01353Y00639*
X01351Y00626*
X01353Y00613*
X01358Y00601*
X01366Y00591*
X01367Y00589*
X01368Y00588*
X01379Y0058*
X01391Y00575*
X01404Y00573*
X01479*
X01492Y00575*
X015Y00578*
X01513*
Y00578*
Y00575*
Y00469*
X01661*
Y0057*
X01666Y00572*
X01669Y00567*
X01674Y00564*
X0168Y00562*
X0173*
X01736Y00564*
X01741Y00567*
X01745Y00572*
X01746Y00579*
Y0059*
X01746Y00591*
X01752Y00596*
X01757Y00602*
X0176Y0061*
X01761Y00618*
Y00629*
X01761Y0063*
X01833*
X01837Y0063*
X01841Y00631*
X01845Y00632*
X01849Y00634*
X01856Y00639*
X02064Y00847*
X02066Y0085*
X02069Y00854*
X02073Y00862*
X02074Y00871*
Y00899*
X02078Y00902*
X02091Y009*
X02105Y00902*
X02118Y00908*
X0213Y00916*
X02138Y00928*
X02143*
X02152Y00916*
X02163Y00908*
X02176Y00902*
X02191Y009*
X02197Y00901*
X02218Y0088*
X02221Y00878*
X02225Y00875*
X02232Y00872*
X02241Y00871*
X02337*
X02409Y00799*
X02408Y00794*
X02403Y00794*
X0239Y00788*
X02379Y00779*
X0237Y00768*
X02365Y00755*
X02363Y00741*
X02364Y00733*
X02333Y00702*
X02328Y00695*
X02326Y00691*
X02325Y00687*
X02324Y00683*
X02323Y00679*
Y00482*
X02324Y00478*
X02325Y00473*
X02326Y00469*
X02328Y00466*
X02333Y00459*
X02395Y00396*
X02398Y00394*
X02402Y00391*
X02405Y0039*
Y0036*
X02509*
Y00387*
X02536*
Y00379*
X02606*
Y00387*
X02695*
X02697Y00384*
X02708Y00376*
X0272Y00371*
X02733Y00369*
X02746Y00371*
X02758Y00376*
X02769Y00384*
X02777Y00394*
X02782Y00406*
X02783Y0042*
X02782Y00433*
X02777Y00445*
X02769Y00455*
X02758Y00463*
X02746Y00468*
X02733Y0047*
X0272Y00468*
X02708Y00463*
X02697Y00455*
X02695Y00452*
X02606*
Y0046*
X02591*
Y00475*
X02551*
Y0046*
X02536*
Y00452*
X02509*
Y00458*
X02494*
Y00477*
X0242*
Y00471*
X02416Y00469*
X02389Y00495*
Y00589*
X02393Y00592*
X02403Y00587*
X02418Y00586*
X02432Y00587*
X02445Y00593*
X02457Y00602*
X02465Y00613*
X0247*
X02479Y00602*
X0249Y00593*
X02503Y00587*
X02518Y00586*
X02532Y00587*
X02545Y00593*
X02557Y00602*
X02565Y00613*
X02571Y00626*
X02573Y00641*
X02571Y00655*
X02565Y00668*
X02557Y00679*
X02545Y00688*
Y00693*
X02557Y00702*
X02558Y00704*
X02563Y00702*
Y00686*
X02672*
Y00795*
X02563*
Y00779*
X02558Y00777*
X02557Y00779*
X0255Y00784*
Y00827*
X02549Y00835*
X02546Y00843*
X02541Y0085*
X02479Y00912*
X02481Y00917*
X02486Y00916*
Y0095*
X02451*
X02452Y00945*
X02449Y00944*
X02445Y00947*
X02446Y00955*
X02444Y00969*
X02438Y00983*
X0243Y00994*
X02418Y01003*
X02405Y01008*
X02391Y0101*
X02376Y01008*
X02363Y01003*
X02352Y00994*
X02343Y00983*
X02338*
X0233Y00994*
X02318Y01003*
X02305Y01008*
X02291Y0101*
X02276Y01008*
X02263Y01003*
X02252Y00994*
X02243Y00983*
X02238*
X0223Y00994*
X02218Y01003*
X02205Y01008*
X02191Y0101*
X02176Y01008*
X02163Y01003*
X02152Y00994*
X02143Y00983*
X02138*
X0213Y00994*
X02118Y01003*
X02105Y01008*
X02091Y0101*
X02078Y01009*
X02074Y01012*
Y01132*
X02078Y01136*
X0208Y01135*
X02084Y01135*
X02203*
X02207Y01135*
X02212Y01136*
X02216Y01137*
X02219Y01139*
X02226Y01144*
X02283Y01201*
X02291Y012*
X02305Y01202*
X02318Y01208*
X0233Y01216*
X02338Y01228*
X02343*
X02352Y01216*
X02363Y01208*
X02376Y01202*
X02391Y012*
X02405Y01202*
X02418Y01208*
X0243Y01216*
X02438Y01228*
X02443*
X02452Y01216*
X02463Y01208*
X02476Y01202*
X02491Y012*
X02505Y01202*
X02518Y01208*
X0253Y01216*
X02538Y01228*
X02543*
X02552Y01216*
X02563Y01208*
X02576Y01202*
X02591Y012*
X02605Y01202*
X02618Y01208*
X0263Y01216*
X02638Y01228*
X02644Y01241*
X02646Y01255*
X02644Y01269*
X02638Y01283*
X0263Y01294*
X02618Y01303*
X02605Y01308*
X02591Y0131*
X02576Y01308*
X02563Y01303*
X02552Y01294*
X02543Y01283*
X02538*
X0253Y01294*
X02518Y01303*
X02505Y01308*
X02491Y0131*
X02476Y01308*
X02463Y01303*
X02452Y01294*
X02443Y01283*
X02438*
X0243Y01294*
X02418Y01303*
X02405Y01308*
X02391Y0131*
X02376Y01308*
X02363Y01303*
X02352Y01294*
X02343Y01283*
X02338*
X0233Y01294*
X02318Y01303*
X02309Y01307*
X02308Y01312*
X02374Y01378*
X02814Y01377*
Y01309*
X0281Y01306*
X02805Y01308*
X02791Y0131*
X02776Y01308*
X02763Y01303*
X02752Y01294*
X02743Y01283*
X02738Y01269*
X02736Y01255*
X02738Y01241*
X02743Y01228*
X02752Y01216*
X02763Y01208*
X02776Y01202*
X02791Y012*
X02805Y01202*
X0281Y01204*
X02814Y01201*
Y01097*
X02815Y01093*
X02815Y01089*
X02817Y01085*
X02819Y01081*
X02824Y01074*
X02884Y01014*
X02883Y01009*
X02876Y01008*
X02863Y01003*
X02852Y00994*
X02843Y00983*
X02838*
X0283Y00994*
X02818Y01003*
X02805Y01008*
X02791Y0101*
X02776Y01008*
X02763Y01003*
X02752Y00994*
X02743Y00983*
X02738*
X0273Y00994*
X02718Y01003*
X02705Y01008*
X02691Y0101*
X02676Y01008*
X02663Y01003*
X02652Y00994*
X02643Y00983*
X02638Y00969*
X02636Y00955*
X02638Y00941*
X02643Y00928*
X02652Y00916*
X02663Y00908*
X02676Y00902*
X02691Y009*
X02705Y00902*
X02718Y00908*
X0273Y00916*
X02738Y00928*
X02743*
X02752Y00916*
X02763Y00908*
X02776Y00902*
X02791Y009*
X02805Y00902*
X02818Y00908*
X0283Y00916*
X02838Y00928*
X02843*
X02852Y00916*
X02857Y00912*
Y00583*
X02858Y00579*
X02858Y00575*
X0286Y00571*
X02862Y00567*
X02867Y0056*
X02977Y00449*
X0298Y00447*
X02984Y00444*
X02988Y00442*
X02992Y00441*
X02996Y0044*
X03001Y0044*
X03811*
X03812Y00435*
X03452Y00289*
X01672Y00291*
X01671Y00292*
X0166Y00304*
X01648Y00314*
X01634Y00323*
X01619Y00329*
X01603Y00333*
X01587Y00334*
X01571Y00333*
X01555Y00329*
X0154Y00323*
X01539Y00323*
X0068Y01064*
Y01378*
X00683Y01381*
X02007Y01379*
G37*
G36*
X05041Y00764D02*
X0504Y006D01*
X05039Y00581*
X04928*
X04926Y00581*
X04823*
X04814Y00579*
X04806Y00576*
X04799Y0057*
X04643*
Y0076*
X04647Y00764*
X05037Y00767*
X05041Y00764*
G37*
G36*
X03584Y01101D02*
Y00973D01*
X03585Y00968*
X03585Y00964*
X03587Y0096*
X03589Y00956*
X03594Y00949*
X03683Y0086*
Y00752*
X03684Y00747*
Y00723*
X03685Y00715*
X03688Y00707*
X03693Y007*
X037Y00695*
X03707Y00692*
X03716Y00691*
X03724Y00692*
X03728Y00694*
X03733Y00692*
X03741Y00691*
X0375Y00692*
X03754Y00694*
X03759Y00692*
X03767Y00691*
X03775Y00692*
X03783Y00695*
X0379Y007*
X0379Y00701*
X03795*
X03795Y007*
X03802Y00695*
X0381Y00692*
X03818Y00691*
X03826Y00692*
X03831Y00694*
X03835Y00692*
X03836Y00692*
Y00665*
X0383Y00656*
X03825Y00645*
X03824Y00634*
X03825Y00622*
X0383Y00611*
X03837Y00602*
X03847Y00594*
X03857Y0059*
X03869Y00588*
X03881Y0059*
X03892Y00594*
X03901Y00602*
X03909Y00611*
X03913Y00622*
X03915Y00634*
X03913Y00645*
X03909Y00656*
X03902Y00665*
Y00692*
X03903Y00692*
X03908Y00694*
X03912Y00692*
X0392Y00691*
X03929Y00692*
X03933Y00694*
X03938Y00692*
X03946Y00691*
X03954Y00692*
X03959Y00694*
X03963Y00692*
X03972Y00691*
X0398Y00692*
X03984Y00694*
X03989Y00692*
X03997Y00691*
X04005Y00692*
X0401Y00694*
X04014Y00692*
X04023Y00691*
X04031Y00692*
X04036Y00694*
X0404Y00692*
X04048Y00691*
X04057Y00692*
X04064Y00695*
X04071Y007*
X04076Y00707*
X04079Y00715*
X04081Y00723*
Y0078*
X04079Y00789*
X04076Y00796*
X04071Y00803*
X04064Y00808*
X04057Y00811*
X04048Y00812*
X0404Y00811*
X04036Y00809*
X04031Y00811*
X04023Y00812*
X04014Y00811*
X0401Y00809*
X04005Y00811*
X03997Y00812*
X03989Y00811*
X03984Y00809*
X0398Y00811*
X03972Y00812*
X03963Y00811*
X03959Y00809*
X03954Y00811*
X03946Y00812*
X03938Y00811*
X03933Y00809*
X03929Y00811*
X0392Y00812*
X03912Y00811*
X03908Y00809*
X03903Y00811*
X03895Y00812*
X03886Y00811*
X03882Y00809*
X03878Y00811*
X03869Y00812*
X03861Y00811*
X03856Y00809*
X03852Y00811*
X03851Y00811*
Y00835*
X0385Y0084*
X0385Y00844*
X03848Y00848*
X03846Y00852*
X03841Y00859*
X03745Y00955*
X03747Y00959*
X0375Y0096*
X03754Y00962*
X03759Y0096*
X03767Y00959*
X03775Y0096*
X0378Y00962*
X03784Y0096*
X03792Y00959*
X03801Y0096*
X03805Y00962*
X0381Y0096*
X03818Y00959*
X03826Y0096*
X03831Y00962*
X03835Y0096*
X03844Y00959*
X03852Y0096*
X03856Y00962*
X03861Y0096*
X03869Y00959*
X03878Y0096*
X03882Y00962*
X03886Y0096*
X03895Y00959*
X03903Y0096*
X03911Y00963*
X03918Y00968*
X03922Y00974*
X03927Y00975*
X03933Y00979*
X03934*
X03939Y00975*
Y0097*
X03939Y00966*
X0394Y00961*
X03942Y00958*
X03943Y00954*
X03948Y00947*
X03992Y00903*
X03995Y00901*
X03999Y00898*
X04004Y00896*
X04007Y00895*
X04008Y00894*
X04015Y00893*
X04177*
Y00879*
X04192*
Y00858*
X04269*
Y00879*
X04284*
Y00895*
X04295*
Y00881*
X0431*
Y00881*
Y00878*
Y00854*
X04371*
Y00878*
Y00881*
X04371Y00881*
X04386*
Y00935*
X0439Y00938*
X0441Y00932*
X04411Y0074*
X04097Y00551*
X03985Y00505*
X03014*
X02923Y00597*
Y00911*
X0293Y00916*
X02938Y00928*
X02943*
X02952Y00916*
X02963Y00908*
X02976Y00902*
X02991Y009*
X03005Y00902*
X03008Y00903*
X0301Y00899*
X03012Y00895*
X03017Y00888*
X03131Y00774*
Y00616*
X03131Y00615*
X03121*
Y00752*
X03011*
Y00603*
X03025*
X03026Y00598*
X03024Y00598*
X03017Y00592*
X03011Y00585*
X03008Y00576*
X03007Y00572*
X03077*
X03076Y00576*
X03073Y00585*
X03067Y00592*
X0306Y00598*
X03058Y00598*
X03059Y00603*
X031*
X03103Y00599*
X03103Y00599*
Y0058*
X03125*
Y00575*
X03127*
Y0055*
X03128Y00542*
X0313Y00537*
Y00534*
X03131*
X03132Y00534*
X03136Y00528*
X03143Y00523*
X0315Y0052*
X03158Y00519*
X0317*
X03178Y0052*
X03184Y00522*
X03189Y0052*
X03197Y00519*
X03209*
X03217Y0052*
X03223Y00522*
X03229Y0052*
X03237Y00519*
X03248*
X03256Y0052*
X03262Y00522*
X03268Y0052*
X03276Y00519*
X03288*
X03296Y0052*
X03301Y00522*
X03307Y0052*
X03315Y00519*
X03327*
X03335Y0052*
X0334Y00522*
X03346Y0052*
X03354Y00519*
X03366*
X03374Y0052*
X03381Y00523*
X03388Y00528*
X03393Y00534*
X03396Y00542*
X03397Y0055*
Y00599*
X03397Y006*
X034Y00603*
X03474*
Y00752*
X03393*
Y00798*
X03406Y00812*
X0341Y00811*
X03423Y00813*
X03435Y00818*
X03446Y00826*
X03454Y00836*
X03459Y00848*
X0346Y00862*
X03459Y00875*
X03454Y00887*
X03446Y00897*
X03435Y00905*
X03423Y0091*
X0341Y00912*
X03407Y00912*
X03403Y00915*
Y00968*
X03402Y00977*
X03399Y00984*
X03394Y00991*
X03362Y01023*
X03355Y01028*
X03351Y0103*
X03347Y01032*
X03343Y01032*
X03338Y01033*
X03127*
X03073Y01087*
Y01199*
X03077Y01202*
X03091Y012*
X03105Y01202*
X03118Y01208*
X0313Y01216*
X03138Y01228*
X03143*
X03152Y01216*
X03163Y01208*
X03176Y01202*
X03191Y012*
X03205Y01202*
X03218Y01208*
X0323Y01216*
X03231Y01219*
X03236Y01217*
Y01201*
X03345*
Y01293*
X03392*
X03584Y01101*
G37*
G36*
X05138Y02165D02*
Y01953D01*
X04898*
X04897Y01958*
X04904Y01965*
Y02163*
X04908Y02167*
X05138Y02165*
G37*
G36*
X06914Y01344D02*
Y00056D01*
X06913Y00056*
X06446*
X06444Y0006*
X06445Y00064*
X06447Y00078*
X06445Y00092*
X0644Y00106*
X06431Y00117*
X06427Y0012*
Y00886*
X06426Y00895*
X06423Y00904*
X06417Y00911*
X06363Y00965*
X06356Y00971*
X06347Y00974*
X06338Y00975*
X06335*
Y01011*
X06225*
Y00975*
X06222*
X06213Y00974*
X06204Y00971*
X06197Y00965*
X06191Y00958*
X06188Y00949*
X06187Y0094*
X06188Y00931*
X06191Y00922*
X06197Y00915*
X06204Y00909*
X06213Y00906*
X06222Y00905*
X06225*
Y00901*
X06327*
X06357Y00871*
Y0012*
X06353Y00117*
X06345Y00106*
X0634*
X06331Y00117*
X0632Y00126*
X06306Y00131*
X06292Y00133*
X06278Y00131*
X06265Y00126*
X06253Y00117*
X06245Y00106*
X0624*
X06231Y00117*
X0622Y00126*
X06206Y00131*
X06192Y00133*
X06178Y00131*
X06165Y00126*
X06153Y00117*
X06145Y00106*
X0614*
X06131Y00117*
X0612Y00126*
X06106Y00131*
X06092Y00133*
X06078Y00131*
X06065Y00126*
X06053Y00117*
X06045Y00106*
X0604*
X06031Y00117*
X06027Y0012*
Y00575*
X06026Y00584*
X06023Y00593*
X06017Y006*
X05882Y00735*
Y00818*
X05897*
Y00922*
X05882*
Y0104*
X05893Y01046*
X05906Y01057*
X05917Y0107*
X05925Y01084*
X05929Y011*
X05931Y01117*
X05929Y01133*
X05925Y01149*
X05917Y01163*
X05906Y01176*
X05893Y01187*
X05879Y01195*
X05863Y01199*
X05847Y01201*
X0583Y01199*
X05814Y01195*
X058Y01187*
X05787Y01176*
X05776Y01163*
X05768Y01149*
X05764Y01133*
X05762Y01117*
X05764Y011*
X05768Y01084*
X05776Y0107*
X05787Y01057*
X058Y01046*
X05811Y0104*
Y00922*
X058*
Y00818*
X05811*
Y00721*
X05812Y00711*
X05816Y00703*
X05822Y00696*
X05957Y0056*
Y0012*
X05953Y00117*
X05951Y00114*
X05947Y00116*
Y00133*
X05927*
Y00357*
X05926Y00366*
X05923Y00375*
X05917Y00382*
X05583Y00716*
Y01041*
X05594Y01047*
X05607Y01058*
X05618Y01071*
X05626Y01085*
X0563Y01101*
X05632Y01118*
X0563Y01134*
X05626Y0115*
X05618Y01164*
X05607Y01177*
X05594Y01188*
X0558Y01196*
X05564Y012*
X05548Y01202*
X05531Y012*
X05515Y01196*
X05501Y01188*
X05488Y01177*
X05477Y01164*
X0547Y01151*
X05466Y01153*
Y01341*
X05469Y01345*
X06914Y01344*
G37*
G36*
X03342Y02508D02*
X03346Y02504D01*
X03346Y02433*
X03151*
X03142Y02432*
X03137Y0243*
X03134Y02429*
X03131Y02427*
X03128Y02424*
X0306Y02356*
X03005*
Y02342*
X02914*
Y02357*
X0281*
Y02342*
X02689*
X02681Y0234*
X02673Y02337*
X02669Y02334*
X02666Y02332*
X02552Y02218*
X02541Y02216*
X0254Y02216*
X02536Y02218*
Y02365*
X02426*
Y02232*
X02426Y02231*
X02414*
X02406Y0223*
X024Y02228*
X02395Y0223*
X02387Y02231*
X02375*
X02367Y0223*
X02361Y02228*
X02355Y0223*
X02347Y02231*
X02335*
X02327Y0223*
X02322Y02228*
X02316Y0223*
X02308Y02231*
X02299*
Y02365*
X02189*
Y02219*
X02186Y02215*
X02181Y02216*
X02169Y02215*
X02158Y0221*
X02149Y02203*
X02142Y02193*
X02137Y02182*
X02136Y02171*
X02137Y02159*
X02142Y02148*
X02149Y02139*
X02158Y02131*
X02169Y02127*
X02181Y02125*
X02193Y02127*
X02204Y02131*
X02213Y02139*
X02216Y02143*
X02266*
X02269Y02135*
X02274Y02129*
X02281Y02124*
X02288Y02121*
X02296Y0212*
X02308*
X02309Y02119*
Y02026*
X02308Y02026*
X02257*
X02248Y02024*
X0224Y02021*
X02232Y02028*
X02221Y02032*
X02211Y02034*
X02179Y02066*
X02172Y02071*
X02168Y02073*
X02164Y02074*
X0216Y02075*
X02155Y02075*
X0159*
X01565Y02101*
X01563Y02111*
X01559Y02122*
X01552Y02132*
X01542Y02139*
X01531Y02143*
X0152Y02145*
X01508Y02143*
X01497Y02139*
X01489Y02132*
X01481Y02135*
X01472Y02137*
X01459*
X01398Y02198*
Y02203*
X01414*
Y02301*
Y02404*
X01244*
Y02301*
Y02203*
X01261*
Y02174*
X01262Y02166*
X01265Y02158*
X0127Y02152*
X0128Y02141*
X01278Y02137*
X0127*
X01212Y02195*
X01205Y022*
X01201Y02202*
X01197Y02204*
X01193Y02204*
X01189Y02205*
X01134*
Y0222*
X01027*
Y02218*
X00932*
Y02121*
Y02048*
X00986*
X01021Y02013*
Y01898*
X00998*
Y01802*
Y01729*
X01106*
Y01744*
X01239*
X01243Y01745*
X01247Y01745*
X01251Y01747*
X01255Y01749*
X01262Y01754*
X0127Y01762*
X01287*
X01296Y01764*
X01304Y01767*
X01312Y0176*
X01323Y01756*
X01335Y01754*
X01346Y01756*
X01357Y0176*
X01367Y01767*
X01374Y01777*
X01378Y01788*
X01379Y01794*
X01384*
X01385Y0179*
X01388Y01781*
X01394Y01773*
X01402Y01767*
X01411Y01764*
X01421Y01762*
X01472*
X01481Y01764*
X01489Y01767*
X01547*
X01551Y01767*
X01555Y01768*
X01559Y01769*
X01563Y01771*
X0157Y01776*
X01722Y01928*
X01789*
X01797Y01921*
X01808Y01917*
X0182Y01915*
X01832Y01917*
X01843Y01921*
X01852Y01928*
X01859Y01938*
X01864Y01949*
X01865Y01961*
X01864Y01972*
X01859Y01983*
X01852Y01993*
X01843Y02*
X01832Y02004*
X01829Y02005*
X01829Y0201*
X02142*
X02164Y01987*
X02166Y01977*
X02166Y01975*
X02163Y01971*
X02141*
X02132Y01978*
X02121Y01983*
X02109Y01985*
X02097Y01983*
X02086Y01978*
X02077Y01971*
X0207Y01962*
X02065Y01951*
X02064Y01939*
X02065Y01927*
X0207Y01916*
X02077Y01907*
X02086Y019*
X02097Y01895*
X02109Y01894*
X02121Y01895*
X02132Y019*
X02139Y01906*
X0224*
X02248Y01903*
X02257Y01901*
X02308*
X02318Y01903*
X02327Y01906*
X02335Y01912*
X02339Y01918*
X02342Y01918*
X02344Y01918*
X02379Y01883*
X02376Y01879*
X02368Y01882*
X02356Y01884*
X02344Y01882*
X02334Y01878*
X02325Y01871*
X02318Y01874*
X02308Y01876*
X02257*
X02248Y01874*
X02239Y01871*
X02231Y01865*
X02225Y01857*
X02221Y01848*
X0222Y01839*
X02221Y01829*
X02225Y0182*
X02231Y01812*
X02239Y01806*
X02248Y01803*
X02257Y01801*
X02308*
X02318Y01803*
X02325Y01806*
X02334Y01799*
X02344Y01795*
X02355Y01793*
X02357Y01788*
X02272Y01704*
X02256*
X02246Y01702*
X02237Y01699*
X0223Y01693*
X02224Y01685*
X0222Y01676*
X02219Y01667*
X0222Y01657*
X02224Y01648*
X02229Y01642*
X02224Y01635*
X0222Y01626*
X02219Y01617*
X0222Y01607*
X02221Y01604*
X02219Y01599*
X02211Y01598*
X02203Y01595*
X02199Y01592*
X02196Y0159*
X0204Y01434*
X00827Y01434*
X0082Y01443*
X00823Y01447*
Y02508*
X02723*
X03342Y02508*
G37*
G36*
X01143Y02048D02*
X01144Y02038D01*
X01148Y02027*
X01156Y02017*
X01165Y0201*
X01176Y02006*
X01188Y02004*
X01195Y02005*
X01199Y02002*
X01198Y02*
X012Y0199*
X01203Y01981*
X01209Y01973*
X01217Y01967*
X01226Y01964*
X01236Y01962*
X01287*
X01296Y01964*
X01304Y01967*
X01312Y0196*
X01323Y01956*
X01335Y01954*
X01336Y01954*
X01339Y0195*
X01333Y01945*
X01323Y01943*
X01312Y01939*
X01304Y01932*
X01296Y01935*
X01287Y01937*
X01236*
X01226Y01935*
X01217Y01932*
X01209Y01926*
X01203Y01918*
X012Y01909*
X01198Y019*
X01199Y01897*
X01195Y01894*
X01188Y01895*
X01176Y01893*
X01165Y01889*
X01157Y01883*
X01106*
Y01898*
X01087*
Y02027*
X01086Y02034*
X01086Y02035*
X01085Y02037*
X01082Y02043*
X01079Y02047*
X01079Y02047*
X01082Y02051*
X01134*
X01138Y02053*
X01143Y02048*
G37*
G36*
X0281Y0226D02*
Y02187D01*
X02914*
Y02203*
X03005*
Y02188*
X03035*
Y02144*
X03029Y02136*
X03024Y02125*
X03023Y02113*
X03024Y02102*
X03029Y02091*
X03036Y02081*
X03045Y02074*
X03056Y02069*
X03068Y02068*
X0308Y02069*
X03091Y02074*
X031Y02081*
X03107Y02091*
X03112Y02102*
X03113Y02113*
X03112Y02125*
X03107Y02136*
X03101Y02144*
Y02188*
X03113*
Y02203*
X03125*
X0313Y02204*
X03134Y02204*
X03138Y02206*
X03142Y02208*
X03149Y02213*
X03156Y0222*
X0316Y02217*
X03159Y02216*
X03157Y02212*
X03156Y02208*
X03155Y02204*
X03155Y02199*
Y01999*
X03148Y0199*
X03144Y01979*
X03142Y01967*
X03142Y01966*
X03138Y01963*
X03135Y01964*
X03131Y01965*
X03127Y01965*
X02987*
X02983Y01965*
X02979Y01964*
X02975Y01963*
X02971Y01961*
X02964Y01956*
X02846Y01838*
X02835Y01836*
X02824Y01832*
X02815Y01825*
X02808Y01815*
X02803Y01804*
X02802Y01793*
X02803Y01781*
X02808Y0177*
X02814Y01761*
Y01434*
X02437Y01434*
X02435Y01439*
X02476Y01479*
X02492*
X02502Y01481*
X02511Y01484*
X02518Y0149*
X02524Y01498*
X02528Y01507*
X02529Y01517*
X02528Y01526*
X02524Y01535*
X02519Y01542*
X02524Y01548*
X02528Y01557*
X02529Y01567*
X02529Y01569*
X02533Y01572*
X0254Y01571*
X02552Y01573*
X02563Y01577*
X02572Y01584*
X02579Y01594*
X02584Y01605*
X02585Y01617*
X02584Y01628*
X02581Y01636*
X02581Y01636*
X02585Y01638*
X02592Y01643*
X02596Y01647*
X02607Y01649*
X02618Y01653*
X02627Y0166*
X02634Y0167*
X02639Y01681*
X0264Y01693*
X02639Y01704*
X02634Y01715*
X02627Y01725*
X02618Y01732*
X02607Y01736*
X02595Y01738*
X02583Y01736*
X02572Y01732*
X02563Y01725*
X02556Y01715*
X02551Y01704*
X02551Y01699*
X02509*
X02502Y01702*
X02492Y01704*
X02441*
X02431Y01702*
X02422Y01699*
X02415Y01693*
X02409Y01685*
X02405Y01676*
X02404Y01667*
X02405Y01657*
X02409Y01648*
X02414Y01642*
X02409Y01635*
X02405Y01626*
X02404Y01617*
X02405Y01607*
X02409Y01598*
X02414Y01592*
X02413Y01591*
X02412Y0159*
X02256Y01434*
X02139Y01434*
X02138Y01439*
X02233Y01534*
X02239*
X02246Y01531*
X02256Y01529*
X02307*
X02317Y01531*
X02326Y01534*
X02333Y0154*
X02339Y01548*
X02343Y01557*
X02344Y01567*
X02343Y01576*
X02339Y01585*
X02334Y01592*
X02339Y01598*
X02343Y01607*
X02344Y01617*
X02343Y01626*
X02339Y01635*
X02334Y01642*
X02339Y01648*
X02343Y01657*
X02344Y01667*
X02343Y01676*
X02341Y0168*
X02463Y01801*
X02493*
X02503Y01803*
X0251Y01806*
X02519Y01799*
X02529Y01795*
X02541Y01793*
X02553Y01795*
X02564Y01799*
X02573Y01806*
X02581Y01816*
X02585Y01827*
X02587Y01839*
X02585Y0185*
X02581Y01861*
X02573Y01871*
X02564Y01878*
X02553Y01882*
X02541Y01884*
X02534Y01883*
X0253Y01886*
X02531Y01889*
X02529Y01898*
X02526Y01907*
X02521Y01914*
X02526Y0192*
X02529Y01929*
X02531Y01939*
X02529Y01948*
X02528Y01952*
X02531Y01956*
X02545*
X02547Y01954*
X02558Y0195*
X0257Y01948*
X02582Y0195*
X02593Y01954*
X02602Y01961*
X02609Y01971*
X02614Y01982*
X02615Y01994*
X02614Y02005*
X02609Y02016*
X02602Y02026*
X02593Y02033*
X02582Y02037*
X0257Y02039*
X02558Y02037*
X02547Y02033*
X02538Y02026*
X02535Y02021*
X0251*
X02503Y02024*
X02493Y02026*
X02442*
X02433Y02024*
X02424Y02021*
X02418Y02016*
X02413Y02018*
Y02119*
X02414Y0212*
X02426*
X02434Y02121*
X02441Y02124*
X02448Y02129*
X02453Y02135*
X02455Y0214*
X02522*
X0253Y02133*
X02541Y02129*
X02553Y02127*
X02565Y02129*
X02576Y02133*
X02585Y0214*
X02592Y0215*
X02597Y02161*
X02598Y02171*
X02703Y02276*
X0281*
Y0226*
G37*
%LNcareboard_smd_ordered_6.29-2*%
%LPC*%
G36*
X02657Y00636D02*
X02623D01*
Y00601*
X02628Y00602*
X02638Y00606*
X02646Y00612*
X02652Y00621*
X02656Y0063*
X02657Y00636*
G37*
G36*
X02613D02*
X02578D01*
X02579Y0063*
X02583Y00621*
X0259Y00612*
X02598Y00606*
X02607Y00602*
X02613Y00601*
Y00636*
G37*
G36*
X0312Y0057D02*
X03103D01*
Y0055*
X03104Y00544*
X03108Y00538*
X03113Y00535*
X03119Y00534*
X0312*
Y0057*
G37*
G36*
X02613Y0068D02*
X02607Y00679D01*
X02598Y00675*
X0259Y00669*
X02583Y0066*
X02579Y00651*
X02578Y00646*
X02613*
Y0068*
G37*
G36*
X04225Y00848D02*
X04192D01*
Y00821*
X04225*
Y00848*
G37*
G36*
X04269D02*
X04235D01*
Y00821*
X04269*
Y00848*
G37*
G36*
X04371Y00844D02*
X04345D01*
Y00817*
X04371*
Y00844*
G37*
G36*
X02623Y0068D02*
Y00646D01*
X02657*
X02656Y00651*
X02652Y0066*
X02646Y00669*
X02638Y00675*
X02628Y00679*
X02623Y0068*
G37*
G36*
X04335Y00844D02*
X0431D01*
Y00817*
X04335*
Y00844*
G37*
G36*
X03047Y00425D02*
Y00396D01*
X03077*
X03076Y004*
X03073Y00408*
X03067Y00416*
X0306Y00421*
X03051Y00425*
X03047Y00425*
G37*
G36*
X02566Y00505D02*
X02551D01*
Y00485*
X02566*
Y00505*
G37*
G36*
X03037Y00425D02*
X03033Y00425D01*
X03024Y00421*
X03017Y00416*
X03011Y00408*
X03008Y004*
X03007Y00396*
X03037*
Y00425*
G37*
G36*
Y00386D02*
X03007D01*
X03008Y00382*
X03011Y00373*
X03017Y00366*
X03024Y0036*
X03033Y00357*
X03037Y00356*
Y00386*
G37*
G36*
X03077D02*
X03047D01*
Y00356*
X03051Y00357*
X0306Y0036*
X03067Y00366*
X03073Y00373*
X03076Y00382*
X03077Y00386*
G37*
G36*
X03037Y00562D02*
X03007D01*
X03008Y00558*
X03011Y00549*
X03017Y00542*
X03024Y00537*
X03033Y00533*
X03037Y00532*
Y00562*
G37*
G36*
X03077D02*
X03047D01*
Y00532*
X03051Y00533*
X0306Y00537*
X03067Y00542*
X03073Y00549*
X03076Y00558*
X03077Y00562*
G37*
G36*
X02494Y00516D02*
X02462D01*
Y00487*
X02494*
Y00516*
G37*
G36*
X02591Y00505D02*
X02576D01*
Y00485*
X02591*
Y00505*
G37*
G36*
X02452Y00516D02*
X0242D01*
Y00487*
X02452*
Y00516*
G37*
G36*
X00399Y00987D02*
X00295D01*
Y00889*
X00314*
Y0086*
X00302Y00853*
X0029Y00843*
X0028Y00831*
X00275Y00821*
X0027*
X00264Y00831*
X00254Y00843*
X00242Y00853*
X00228Y00861*
X00213Y00865*
X00197Y00867*
X00181Y00865*
X00166Y00861*
X00152Y00853*
X0014Y00843*
X0013Y00831*
X00123Y00817*
X00118Y00802*
X00117Y00787*
X00118Y00771*
X00123Y00756*
X0013Y00742*
X0014Y0073*
X00148Y00723*
Y00668*
X00149Y00663*
X00149Y00659*
X00151Y00655*
X00153Y00651*
X00158Y00644*
X00181Y00621*
X00178Y00616*
X00172Y00596*
X0017Y00577*
X00172Y00557*
X00178Y00537*
X00187Y0052*
X002Y00504*
X00215Y00491*
X00233Y00482*
X00252Y00476*
X00272Y00474*
X00292Y00476*
X00311Y00482*
X00329Y00491*
X00344Y00504*
X00357Y0052*
X00366Y00537*
X00372Y00557*
X00374Y00577*
X00372Y00596*
X00366Y00616*
X00357Y00633*
X00344Y00649*
X00329Y00662*
X00311Y00671*
X00292Y00677*
X00272Y00679*
X00252Y00677*
X00233Y00671*
X00227Y00668*
X00214Y00681*
Y00708*
X00228Y00712*
X00242Y0072*
X00254Y0073*
X00264Y00742*
X0027Y00752*
X00275*
X0028Y00742*
X0029Y0073*
X00302Y0072*
X00316Y00712*
X00331Y00708*
X00347Y00706*
X00363Y00708*
X00378Y00712*
X00392Y0072*
X00404Y0073*
X00414Y00742*
X00421Y00756*
X00426Y00771*
X00428Y00787*
X00426Y00802*
X00421Y00817*
X00414Y00831*
X00404Y00843*
X00392Y00853*
X0038Y0086*
Y00889*
X00399*
Y00987*
G37*
G36*
X0273Y0125D02*
X02696D01*
Y01216*
X02701Y01217*
X02711Y01221*
X02719Y01227*
X02725Y01235*
X02729Y01245*
X0273Y0125*
G37*
G36*
X00795Y01274D02*
X00791Y01274D01*
X00782Y0127*
X00775Y01264*
X00769Y01257*
X00766Y01249*
X00765Y01245*
X00795*
Y01274*
G37*
G36*
X02686Y0125D02*
X02651D01*
X02652Y01245*
X02656Y01235*
X02663Y01227*
X02671Y01221*
X0268Y01217*
X02686Y01216*
Y0125*
G37*
G36*
X00795Y01235D02*
X00765D01*
X00766Y0123*
X00769Y01222*
X00775Y01215*
X00782Y01209*
X00791Y01205*
X00795Y01205*
Y01235*
G37*
G36*
X00835D02*
X00805D01*
Y01205*
X00809Y01205*
X00818Y01209*
X00825Y01215*
X00831Y01222*
X00834Y0123*
X00835Y01235*
G37*
G36*
X00272Y02328D02*
X00257Y02327D01*
X00243Y02322*
X00229Y02315*
X00218Y02306*
X00208Y02294*
X00201Y02281*
X00197Y02266*
X00195Y02252*
X00197Y02237*
X00201Y02222*
X00208Y02209*
X00218Y02197*
X00229Y02188*
X00243Y02181*
X00257Y02176*
X00272Y02175*
X00287Y02176*
X00301Y02181*
X00315Y02188*
X00326Y02197*
X00336Y02209*
X00343Y02222*
X00347Y02237*
X00349Y02252*
X00347Y02266*
X00343Y02281*
X00336Y02294*
X00326Y02306*
X00315Y02315*
X00301Y02322*
X00287Y02327*
X00272Y02328*
G37*
G36*
X01587Y02484D02*
X01571Y02483D01*
X01555Y02479*
X0154Y02473*
X01526Y02464*
X01514Y02454*
X01503Y02442*
X01495Y02428*
X01488Y02413*
X01484Y02397*
X01483Y02381*
X01484Y02364*
X01488Y02348*
X01495Y02333*
X01503Y02319*
X01514Y02307*
X01526Y02297*
X0154Y02288*
X01555Y02282*
X01571Y02278*
X01587Y02277*
X01603Y02278*
X01619Y02282*
X01634Y02288*
X01648Y02297*
X0166Y02307*
X01671Y02319*
X0168Y02333*
X01686Y02348*
X0169Y02364*
X01691Y02381*
X0169Y02397*
X01686Y02413*
X0168Y02428*
X01671Y02442*
X0166Y02454*
X01648Y02464*
X01634Y02473*
X01619Y02479*
X01603Y02483*
X01587Y02484*
G37*
G36*
X02696Y01294D02*
Y0126D01*
X0273*
X02729Y01266*
X02725Y01275*
X02719Y01283*
X02711Y0129*
X02701Y01294*
X02696Y01294*
G37*
G36*
X00805Y01274D02*
Y01245D01*
X00835*
X00834Y01249*
X00831Y01257*
X00825Y01264*
X00818Y0127*
X00809Y01274*
X00805Y01274*
G37*
G36*
X02686Y01294D02*
X0268Y01294D01*
X02671Y0129*
X02663Y01283*
X02656Y01275*
X02652Y01266*
X02651Y0126*
X02686*
Y01294*
G37*
G36*
X00272Y01328D02*
X00257Y01327D01*
X00243Y01322*
X00229Y01315*
X00218Y01306*
X00208Y01294*
X00201Y01281*
X00197Y01266*
X00195Y01252*
X00197Y01237*
X00201Y01222*
X00208Y01209*
X00218Y01197*
X00229Y01188*
X00243Y01181*
X00257Y01176*
X00272Y01175*
X00287Y01176*
X00301Y01181*
X00315Y01188*
X00326Y01197*
X00336Y01209*
X00343Y01222*
X00347Y01237*
X00349Y01252*
X00347Y01266*
X00343Y01281*
X00336Y01294*
X00326Y01306*
X00315Y01315*
X00301Y01322*
X00287Y01327*
X00272Y01328*
G37*
G36*
X02486Y00994D02*
X0248Y00994D01*
X02471Y0099*
X02463Y00983*
X02456Y00975*
X02452Y00966*
X02451Y0096*
X02486*
Y00994*
G37*
G36*
X02496D02*
Y0096D01*
X0253*
X02529Y00966*
X02525Y00975*
X02519Y00983*
X02511Y0099*
X02501Y00994*
X02496Y00994*
G37*
G36*
X0263Y0095D02*
X02596D01*
Y00916*
X02601Y00917*
X02611Y00921*
X02619Y00927*
X02625Y00935*
X02629Y00945*
X0263Y0095*
G37*
G36*
X0253D02*
X02496D01*
Y00916*
X02501Y00917*
X02511Y00921*
X02519Y00927*
X02525Y00935*
X02529Y00945*
X0253Y0095*
G37*
G36*
X02586D02*
X02551D01*
X02552Y00945*
X02556Y00935*
X02563Y00927*
X02571Y00921*
X0258Y00917*
X02586Y00916*
Y0095*
G37*
G36*
X06742Y01173D02*
X06727Y01171D01*
X06714Y01166*
X06702Y01157*
X06693Y01145*
X06685Y01149*
X06681Y01155*
X06669Y01164*
X06656Y01169*
X06642Y01171*
X06627Y01169*
X06614Y01164*
X06602Y01155*
X06593Y01143*
X06588Y0113*
X06586Y01116*
X06588Y01101*
X06593Y01088*
X06602Y01076*
X06614Y01067*
X06627Y01062*
X06642Y0106*
X06656Y01062*
X06669Y01067*
X06681Y01076*
X0669Y01088*
X06698Y01084*
X06702Y01078*
X06706Y01075*
Y00366*
X06702Y00364*
X06551Y00515*
Y0056*
X06447*
Y00463*
X06503*
X06638Y00329*
X06636Y00324*
X0663Y00323*
X06617Y00318*
X06605Y00309*
X06596Y00297*
X06591Y00284*
X06589Y0027*
X06591Y00255*
X06596Y00242*
X06605Y0023*
X06617Y00221*
X0663Y00216*
X06645Y00214*
X06659Y00216*
X06672Y00221*
X06684Y0023*
X06693Y00242*
X06701Y00238*
X06705Y00232*
X06717Y00223*
X0673Y00218*
X06745Y00216*
X06759Y00218*
X06772Y00223*
X06784Y00232*
X06793Y00244*
X06798Y00257*
X068Y00272*
X06798Y00286*
X06793Y00299*
X06784Y00311*
X06777Y00316*
Y01075*
X06781Y01078*
X0679Y0109*
X06795Y01103*
X06797Y01118*
X06795Y01132*
X0679Y01145*
X06781Y01157*
X06769Y01166*
X06756Y01171*
X06742Y01173*
G37*
G36*
X01506Y01264D02*
X01492Y01262D01*
X0148Y01257*
X01469Y01248*
X0146Y01237*
X01455Y01225*
X01453Y01211*
X01455Y01197*
X0146Y01184*
X01469Y01173*
X0148Y01165*
X01492Y0116*
X01506Y01158*
X0152Y0116*
X01533Y01165*
X01543Y01173*
X01552Y01184*
X01557Y01197*
X01559Y01211*
X01557Y01225*
X01552Y01237*
X01543Y01248*
X01533Y01257*
X0152Y01262*
X01506Y01264*
G37*
G36*
X01532Y01071D02*
X0148D01*
X01453Y01045*
Y00992*
X0148Y00966*
X01532*
X01559Y00992*
Y01045*
X01532Y01071*
G37*
G36*
X02586Y00994D02*
X0258Y00994D01*
X02571Y0099*
X02563Y00983*
X02556Y00975*
X02552Y00966*
X02551Y0096*
X02586*
Y00994*
G37*
G36*
X02596D02*
Y0096D01*
X0263*
X02629Y00966*
X02625Y00975*
X02619Y00983*
X02611Y0099*
X02601Y00994*
X02596Y00994*
G37*
%LNcareboard_smd_ordered_6.29-3*%
%LPD*%
G54D10*
X0336Y00575D03*
X03125D03*
X03164D03*
X03203D03*
X03243D03*
X03282D03*
X03321D03*
X04128Y0133D03*
X04089D03*
X04049D03*
X0401D03*
X02302Y02176D03*
X02341D03*
X02381D03*
X0242D03*
G54D11*
X03419Y00678D03*
X03066D03*
X04186Y01215D03*
X03949D03*
X02244Y02291D03*
X02481D03*
G54D12*
X02283Y01989D03*
Y01939D03*
Y01889D03*
Y01839D03*
X02468Y01989D03*
Y01939D03*
Y01889D03*
Y01839D03*
X01261Y021D03*
Y0205D03*
Y02D03*
Y0195D03*
Y019D03*
Y0185D03*
Y018D03*
X01446Y021D03*
Y0205D03*
Y02D03*
Y0195D03*
Y019D03*
Y0185D03*
Y018D03*
X03261Y02017D03*
Y01967D03*
Y01917D03*
Y01867D03*
Y01817D03*
Y01767D03*
Y01717D03*
X03446Y02017D03*
Y01967D03*
Y01917D03*
Y01867D03*
Y01817D03*
Y01767D03*
Y01717D03*
X02281Y01667D03*
Y01617D03*
Y01567D03*
Y01517D03*
X02467Y01667D03*
Y01617D03*
Y01567D03*
Y01517D03*
G54D13*
X04048Y01019D03*
X04023D03*
X03997D03*
X03972D03*
X03946D03*
X0392D03*
X03895D03*
X03869D03*
X03844D03*
X03818D03*
X03792D03*
X03767D03*
X03741D03*
X03716D03*
X04048Y00752D03*
X04023D03*
X03997D03*
X03972D03*
X03946D03*
X0392D03*
X03895D03*
X03869D03*
X03844D03*
X03818D03*
X03792D03*
X03767D03*
X03741D03*
X03716D03*
G54D14*
X01587Y00524D03*
Y00797D03*
G54D15*
X01705Y00741D03*
Y00585D03*
Y00624D03*
Y00663D03*
Y00702D03*
G54D16*
X04754Y02307D03*
X04692D03*
G54D17*
X0434Y00849D03*
Y00928D03*
G54D18*
X03523Y02208D03*
X03463D03*
X03523Y02347D03*
X03463D03*
G54D19*
X02571Y0042D03*
Y0048D03*
G54D20*
X05849Y0087D03*
X05921D03*
X01292Y02254D03*
X01365D03*
X01292Y02352D03*
X01365D03*
X03374Y01538D03*
X03446D03*
X03888Y0193D03*
X03961D03*
G54D21*
X06499Y00584D03*
Y00512D03*
X00984Y02097D03*
Y02169D03*
X02862Y02236D03*
Y02309D03*
X04115Y01929D03*
Y02002D03*
X03888Y02194D03*
Y02267D03*
X03663Y0204D03*
Y01967D03*
Y02194D03*
Y02267D03*
X02457Y00482D03*
Y00409D03*
X00127Y02205D03*
Y02278D03*
X00129Y01282D03*
Y01209D03*
X00347Y00938D03*
Y01011D03*
G54D22*
X01081Y02172D03*
Y02099D03*
X01052Y01777D03*
Y0185D03*
X03224Y02236D03*
Y02309D03*
X03059Y02236D03*
Y02309D03*
X03074Y01819D03*
Y01746D03*
X04115Y02192D03*
Y02265D03*
X0423Y00926D03*
Y00853D03*
G54D23*
X03072Y01649D03*
X03145D03*
X03888Y02039D03*
X03961D03*
G54D24*
X06686Y01734D02*
Y01832D01*
X06673Y01845D02*
X06686Y01832D01*
X06673Y01845D02*
Y01975D01*
X06788Y02014D02*
X06879D01*
X06726Y02075D02*
X06788Y02014D01*
X06673Y02075D02*
X06726D01*
X06788Y02258D02*
X0688D01*
X06787Y02231D02*
Y02258D01*
Y02239D02*
Y02258D01*
X06725Y02176D02*
X06787Y02239D01*
X06673Y02176D02*
X06725D01*
X06689Y02418D02*
Y02516D01*
X06673Y02402D02*
X06689Y02418D01*
X06673Y02277D02*
Y02402D01*
X06002Y02276D02*
Y02401D01*
X06018Y02417*
Y02515*
X06002Y02175D02*
X06054D01*
X06116Y02238*
Y02257*
Y0223D02*
Y02257D01*
X06117D02*
X06209D01*
X06002Y02074D02*
X06055D01*
X06117Y02013*
X06208*
X06002Y01844D02*
Y01974D01*
Y01844D02*
X06015Y01831D01*
Y01733D02*
Y01831D01*
G54D25*
X00127Y01652D02*
Y01837D01*
X00181Y00771D02*
X00197Y00787D01*
X00181Y00668D02*
Y00771D01*
Y00668D02*
X00272Y00577D01*
X00347Y00787D02*
Y00938D01*
X00127Y01467D02*
X00129Y01465D01*
Y01282D02*
Y01465D01*
X00127Y02022D02*
X00274D01*
X00127D02*
Y02205D01*
X03725Y01767D02*
X03888Y0193D01*
X03446Y01767D02*
X03725D01*
X03446Y01717D02*
Y01767D01*
Y01594D02*
Y01717D01*
X03446Y01538D02*
Y01594D01*
X01446Y02D02*
X0152D01*
X03187Y01767D02*
X03261D01*
X03446Y01917D02*
X03519D01*
X04115Y02002D02*
Y02192D01*
Y02002D02*
D01*
X04228*
X04249Y01981*
X01261Y02D02*
X01335D01*
X01188Y0185D02*
X01261D01*
X00984Y02097D02*
X01054Y02027D01*
Y01852D02*
Y02027D01*
X01052Y0185D02*
X01054Y01852D01*
X01052Y0185D02*
X01187D01*
X01188Y0185*
X03001Y00473D02*
X04287D01*
X0289Y00583D02*
X03001Y00473D01*
X0289Y00583D02*
Y00954D01*
X04453Y00307D02*
X05112D01*
X04287Y00473D02*
X04453Y00307D01*
X02518Y00741D02*
Y00827D01*
X0239Y00954D02*
X02518Y00827D01*
X02356Y00679D02*
X02418Y00741D01*
X02356Y00482D02*
Y00679D01*
Y00482D02*
X02419Y0042D01*
X02571D02*
X02733D01*
X02419D02*
X02571D01*
X04754Y02168D02*
Y02307D01*
X02465Y00693D02*
Y0079D01*
X02351Y00904D02*
X02465Y0079D01*
X02241Y00904D02*
X02351D01*
X02465Y00693D02*
X02518Y00641D01*
X0219Y00954D02*
X02241Y00904D01*
X01705Y00702D02*
X01819D01*
X0199Y00873*
Y00954*
Y01206D02*
X02041Y01155D01*
Y00871D02*
Y01155D01*
X01833Y00663D02*
X02041Y00871D01*
X0199Y01206D02*
Y01254D01*
X01705Y00663D02*
X01833D01*
X03042Y00567D02*
X03118D01*
X03125Y00575*
X02457Y00482D02*
X02569D01*
X04235Y00849D02*
X0434D01*
X0423Y00853D02*
X04235Y00849D01*
X0392Y01019D02*
X03946D01*
X03792Y00647D02*
Y00752D01*
X0392Y00911D02*
Y01019D01*
Y00911D02*
X03921Y00911D01*
X02618Y00526D02*
Y00641D01*
X02571Y0048D02*
X02618Y00526D01*
X01836Y00584D02*
X01837Y00585D01*
X03113Y01D02*
X03338D01*
X0304Y01074D02*
X03113Y01D01*
X0304Y01074D02*
Y01299D01*
X03321Y00575D02*
Y00857D01*
X0337Y00907*
Y00968*
X03016Y01323D02*
X0304Y01299D01*
X02941Y01323D02*
X03016D01*
X0289Y01272D02*
X02941Y01323D01*
X0289Y01254D02*
Y01272D01*
X03338Y01D02*
X0337Y00968D01*
X0299Y01068D02*
Y01254D01*
X0304Y00912D02*
Y01018D01*
X0299Y01068D02*
X0304Y01018D01*
X03164Y00575D02*
Y00787D01*
X0304Y00912D02*
X03164Y00787D01*
X03446Y01817D02*
X03519D01*
X03411D02*
X03446D01*
X03145Y01649D02*
X0329D01*
X03349Y01756D02*
X03411Y01817D01*
X03349Y01707D02*
Y01756D01*
X0329Y01649D02*
X03349Y01707D01*
X03585Y02117D02*
X03663Y02194D01*
X03568Y02117D02*
X03585D01*
X01261Y018D02*
X01335D01*
X01346Y01811*
Y0183*
X01415Y019*
X01435*
X01052Y01777D02*
X01239D01*
X01261Y018*
X01081Y02172D02*
X01189D01*
X01261Y021*
X00987Y02172D02*
X01081D01*
X00984Y02169D02*
X00987Y02172D01*
X03807Y02039D02*
X03888D01*
X03736Y01967D02*
X03807Y02039D01*
X03663Y01967D02*
X03736D01*
X03446D02*
X03663D01*
X03446Y01967D02*
X03446Y01967D01*
X03888Y02039D02*
Y02194D01*
X03888Y02039D02*
X03888Y02039D01*
X03962Y01929D02*
X04115D01*
X03961Y0193D02*
X03962Y01929D01*
X03961Y0193D02*
Y02039D01*
X03074Y0165D02*
Y01746D01*
X03072Y01649D02*
X03074Y0165D01*
X03072Y01593D02*
Y01649D01*
Y01593D02*
X03129Y01537D01*
X0313Y01538D02*
X03374D01*
X03224Y02236D02*
X03435D01*
X03463Y02208*
X03187Y01967D02*
X03238D01*
X03187D02*
Y02199D01*
X03224Y02236*
X03424Y02309D02*
X03463Y02347D01*
X03198Y02309D02*
X03424D01*
X03125Y02236D02*
X03198Y02309D01*
X03059Y02236D02*
X03125D01*
X02862D02*
X03059D01*
X03076Y01817D02*
X03261D01*
X03074Y01819D02*
X03076Y01817D01*
X03068Y02113D02*
Y02227D01*
X03059Y02236D02*
X03068Y02227D01*
X03263Y0182D02*
X03345D01*
X03261Y01817D02*
X03263Y0182D01*
X01188Y0205D02*
X01261D01*
X01081Y02099D02*
X01138D01*
X01188Y0205*
X03716Y00752D02*
Y00874D01*
X03617Y00973D02*
X03716Y00874D01*
X03617Y00973D02*
Y01115D01*
X03406Y01326D02*
X03617Y01115D01*
X03261Y01326D02*
X03406D01*
X0319Y01254D02*
X03261Y01326D01*
X03426Y01372D02*
X03654Y01143D01*
Y01D02*
Y01143D01*
Y01D02*
X03818Y00835D01*
Y00752D02*
Y00835D01*
X03229Y01372D02*
X03426D01*
X03112Y01254D02*
X03229Y01372D01*
X0309Y01254D02*
X03112D01*
X04089Y01212D02*
Y0133D01*
X04048Y01172D02*
X04089Y01212D01*
X04048Y01019D02*
Y01172D01*
X04049Y01219D02*
Y0133D01*
X04023Y01192D02*
X04049Y01219D01*
X04023Y01019D02*
Y01192D01*
X03142Y01917D02*
X03261D01*
X03127Y01933D02*
X03142Y01917D01*
X02987Y01933D02*
X03127D01*
X02847Y01793D02*
X02987Y01933D01*
X02109Y01939D02*
X0211Y01939D01*
X02283*
X02847Y01097D02*
X0299Y00954D01*
X02847Y01097D02*
Y01793D01*
X03203Y00575D02*
Y00841D01*
X0309Y00954D02*
X03203Y00841D01*
X03243Y00575D02*
Y00902D01*
X0319Y00954D02*
X03243Y00902D01*
X03282Y00575D02*
Y00946D01*
X0329Y00954*
X04015Y00926D02*
X0423D01*
X03972Y0097D02*
X04015Y00926D01*
X03972Y0097D02*
Y01019D01*
X01485Y0195D02*
X01541Y01894D01*
X01446Y0195D02*
X01485D01*
X04232Y00928D02*
X0434D01*
X02467Y01667D02*
X02569D01*
X02595Y01693*
X02468Y01989D02*
X02565D01*
X03446Y01867D02*
X0365D01*
X03671Y01847*
X03767Y01019D02*
X03792D01*
Y0105*
X0381Y01067*
X03881*
X03895Y01054*
X03912Y01071*
X03954*
X03972Y01019D02*
Y01053D01*
X03954Y01071D02*
X03972Y01053D01*
X03869Y00634D02*
Y00752D01*
X03895Y01132D02*
X03895Y01133D01*
X03895Y01019D02*
Y01054D01*
Y01132*
X01369Y00741D02*
X01705D01*
X0336Y00575D02*
Y00812D01*
X0341Y00862*
X0204Y01212D02*
X02062Y0119D01*
X02203Y01168D02*
X0229Y01254D01*
X02084Y01168D02*
X02203D01*
X02062Y0119D02*
X02084Y01168D01*
X0204Y01212D02*
Y01388D01*
X02219Y01567*
X02281*
X02204Y01254D02*
X02467Y01517D01*
X0219Y01254D02*
X02204D01*
X02435Y01567D02*
X02467D01*
X02123Y01254D02*
X02435Y01567D01*
X0209Y01254D02*
X02123D01*
X02467Y01617D02*
X0254D01*
X02283Y01839D02*
X02356D01*
X02468D02*
X02541D01*
X02453D02*
X02468D01*
X02281Y01667D02*
X02453Y01839D01*
X02186Y02176D02*
X02302D01*
X02181Y02171D02*
X02186Y02176D01*
X01446Y018D02*
X01547D01*
X01708Y01961*
X0182*
X02437Y01939D02*
X02468D01*
X02381Y01995D02*
X02437Y01939D01*
X02381Y01995D02*
Y02176D01*
X0138Y02011D02*
X01417Y02048D01*
X0138Y01945D02*
Y02011D01*
X01335Y019D02*
X0138Y01945D01*
X02155Y02043D02*
X02209Y01989D01*
X01577Y02043D02*
X02155D01*
X0152Y021D02*
X01577Y02043D01*
X01261Y019D02*
X01335D01*
X01446Y021D02*
X0152D01*
X01365Y02254D02*
Y02352D01*
Y02181D02*
Y02254D01*
X02209Y01989D02*
X02283D01*
X02423Y02173D02*
X02553D01*
X0242Y02176D02*
X02423Y02173D01*
X02553D02*
X02689Y02309D01*
X02862*
X03059*
X03151Y02401*
X03612*
X03663Y0235*
Y02267D02*
Y0235D01*
Y02267D02*
X03888D01*
X04113*
X04115Y02265*
X02341Y01967D02*
Y02176D01*
Y01967D02*
X0242Y01889D01*
X02468*
X03535Y02017D02*
Y02018D01*
X03335Y02021D02*
X03523Y02208D01*
X03257Y02021D02*
X03335D01*
X03523Y02208D02*
Y02347D01*
X00318Y01721D02*
X00358Y01761D01*
X00318Y01658D02*
Y01721D01*
X00127Y01467D02*
X00318Y01658D01*
X00358Y01761D02*
X00418D01*
X00274Y02022D02*
X00318Y01978D01*
Y01913D02*
Y01978D01*
Y01913D02*
X0037Y01861D01*
X00418*
G54D26*
X03261Y01717D02*
Y01767D01*
X04928Y00546D02*
X05117D01*
X04823Y00545D02*
X04927D01*
X04692Y02168D02*
Y02307D01*
X01446Y018D02*
Y0185D01*
Y0205D02*
Y021D01*
X01365Y02181D02*
X01446Y021D01*
X03446Y02017D02*
X03535D01*
Y02018D02*
X03557Y0204D01*
X03663*
X04128Y0133D02*
Y0139D01*
X04129Y01391*
X05548Y00702D02*
Y01118D01*
Y00702D02*
X05892Y00357D01*
Y00078D02*
Y00357D01*
X06222Y0094D02*
X06338D01*
X06392Y00886*
Y00078D02*
Y00886D01*
X05847Y00721D02*
Y01117D01*
Y00721D02*
X05992Y00575D01*
Y00078D02*
Y00575D01*
X06742Y00275D02*
X06745Y00272D01*
X06512Y00504D02*
X06742Y00275D01*
Y01118*
G54D27*
X01261Y01999D02*
X01261Y02D01*
Y0205D02*
X01307D01*
X01339Y02081*
Y02128*
X01292Y02174D02*
X01339Y02128D01*
X01292Y02174D02*
Y02254D01*
Y02352*
G54D28*
X01479Y00624D02*
X0163D01*
X04129Y01391D02*
Y01474D01*
G54D29*
X01404Y00624D02*
X01479D01*
G54D30*
X0163Y00624D02*
X01705D01*
Y00585D02*
X01837D01*
X03945Y01395D02*
X0401Y0133D01*
G54D31*
X05117Y00546D02*
Y0082D01*
Y00302D02*
Y00546D01*
X05112Y00307D02*
X05117Y00302D01*
Y0082D02*
X0517Y00873D01*
G54D32*
X03945Y01458D02*
X04204Y01717D01*
X04852*
X03945Y01395D02*
Y01458D01*
X05001Y01033D02*
Y01568D01*
X04852Y01717D02*
X05001Y01568D01*
X05001Y00711D02*
Y01008D01*
X04928Y00638D02*
X05001Y00711D01*
X04852Y01717D02*
X05091Y01956D01*
Y02022*
G54D33*
X06963Y0D02*
Y026D01*
X0D02*
X06963D01*
X0Y0D02*
X06963D01*
X0D02*
Y026D01*
G54D34*
X06787Y02258D03*
X0688D03*
X06689Y02516D03*
Y02418D03*
X0688Y02014D03*
X06787Y02014D03*
X06686Y01734D03*
Y01832D03*
X06015Y01831D03*
Y01733D03*
X06116Y02013D03*
X06209Y02013D03*
X06018Y02417D03*
Y02515D03*
X06209Y02257D03*
X06116D03*
G54D35*
X06673Y01975D03*
X06002Y01974D03*
X00418Y01561D03*
X03291Y01255D03*
G54D36*
X06673Y02075D03*
Y02176D03*
Y02277D03*
X06002Y02276D03*
Y02175D03*
Y02074D03*
X02618Y00641D03*
X02518Y00741D03*
Y00641D03*
X02418Y00741D03*
Y00641D03*
X06492Y00078D03*
X06392D03*
X06292D03*
X06192D03*
X05992D03*
X06092D03*
X00418Y01961D03*
Y01861D03*
Y01761D03*
Y01661D03*
X0618Y00956D03*
X03191Y01255D03*
X03091D03*
X02991D03*
X02891D03*
X02791D03*
X02691D03*
X02591D03*
X02491D03*
X02391D03*
X02291D03*
X02191D03*
X02091D03*
X01991D03*
X03291Y00955D03*
X03191D03*
X03091D03*
X02991D03*
X02891D03*
X02791D03*
X02691D03*
X02591D03*
X02491D03*
X02391D03*
X02291D03*
X02191D03*
X02091D03*
X01991D03*
X06526Y01724D03*
X06476Y01774D03*
X06893Y01773D03*
X06846Y01723D03*
Y02535D03*
X06893Y02488D03*
X06519Y02535D03*
X06469Y02488D03*
X05798Y02487D03*
X05848Y02534D03*
X06222Y02487D03*
X06175Y02534D03*
Y01722D03*
X06222Y01772D03*
X05805Y01773D03*
X05855Y01723D03*
G54D37*
X00347Y00787D03*
X00197D03*
G54D38*
X00272Y00577D03*
Y00307D03*
G54D39*
X06742Y01118D03*
X06642Y01116D03*
X06745Y00272D03*
X06645Y0027D03*
X0575Y00272D03*
X0565Y0027D03*
G54D40*
X00127Y01467D03*
Y01652D03*
Y01837D03*
Y02022D03*
G54D41*
X02618Y00741D03*
X05892Y00078D03*
X0628Y00956D03*
G54D42*
X01506Y01019D03*
G54D43*
X01506Y01211D03*
G54D44*
X05548Y01118D03*
X05847Y01117D03*
G54D45*
X0653Y02034D03*
Y02219D03*
X06465Y02034D03*
Y02219D03*
X05794Y02218D03*
Y02033D03*
X05859Y02218D03*
Y02033D03*
X01401Y00626D03*
X05112Y00307D03*
X0517Y00873D03*
X02733Y0042D03*
X03042Y00391D03*
Y00567D03*
X008Y0124D03*
X02743Y01633D03*
X02708Y02204D03*
Y02427D03*
X01752Y01867D03*
X00938Y01956D03*
X01148D03*
X01521Y01593D03*
X01369Y00741D03*
X0341Y00862D03*
G54D46*
X04785Y00687D03*
X04815Y00668D03*
X04785Y00648D03*
X04844Y00687D03*
Y00648D03*
G54D47*
X00272Y02252D03*
Y01252D03*
G54D48*
X04312Y00231D03*
Y02381D03*
X01587D03*
Y00231D03*
G54D49*
X0152Y02D03*
X03187Y01767D03*
X03519Y01917D03*
X04249Y01981D03*
X01335Y02D03*
X01188Y0185D03*
X04754Y02168D03*
X02952Y01635D03*
X03519Y01817D03*
X03568Y02117D03*
X01335Y018D03*
X04692Y02168D03*
X03187Y01967D03*
X03068Y02113D03*
X03345Y0182D03*
X01188Y0205D03*
X02847Y01793D03*
X02109Y01939D03*
X01541Y01894D03*
X02595Y01693D03*
X0257Y01994D03*
X03671Y01847D03*
X05092Y02037D03*
X04964D03*
Y02127D03*
X05092Y02125D03*
X05001Y01008D03*
X04928Y00638D03*
X05028Y02084D03*
X03869Y00634D03*
X03895Y01132D03*
X0254Y01617D03*
X02356Y01839D03*
X02541D03*
X02181Y02171D03*
X0182Y01961D03*
X01335Y019D03*
X0152Y021D03*
X02209Y01989D03*
X02553Y02173D03*
X03535Y02017D03*
X04129Y01474D03*
G54D50*
X04927Y00545D03*
X04823D03*
G54D51*
X03945Y01395D03*
M02*