%FSTAX23Y23*%
%MOIN*%
%SFA1B1*%

%IPPOS*%
%AMD75*
4,1,8,0.034500,-0.005900,0.034500,0.005900,0.024600,0.015800,-0.024600,0.015800,-0.034500,0.005900,-0.034500,-0.005900,-0.024600,-0.015800,0.024600,-0.015800,0.034500,-0.005900,0.0*
1,1,0.019820,0.024600,-0.005900*
1,1,0.019820,0.024600,0.005900*
1,1,0.019820,-0.024600,0.005900*
1,1,0.019820,-0.024600,-0.005900*
%
%AMD92*
4,1,8,-0.031600,-0.013100,-0.013100,-0.031600,0.013100,-0.031600,0.031600,-0.013100,0.031600,0.013100,0.013100,0.031600,-0.013100,0.031600,-0.031600,0.013100,-0.031600,-0.013100,0.0*
%
%ADD33C,0.001000*%
%ADD74R,0.106420X0.067060*%
G04~CAMADD=75~8~0.0~0.0~316.2~690.2~99.1~0.0~15~0.0~0.0~0.0~0.0~0~0.0~0.0~0.0~0.0~0~0.0~0.0~0.0~270.0~690.0~316.0*
%ADD75D75*%
%ADD77R,0.049340X0.051310*%
%ADD80R,0.055240X0.061150*%
%ADD81R,0.061150X0.055240*%
%ADD82R,0.065090X0.053280*%
%ADD83R,0.053280X0.065090*%
%ADD84C,0.086740*%
%ADD85R,0.067060X0.067060*%
%ADD86C,0.067060*%
%ADD87C,0.118240*%
%ADD88C,0.161540*%
%ADD89C,0.068000*%
%ADD90C,0.122170*%
%ADD91R,0.067060X0.067060*%
G04~CAMADD=92~4~0.0~0.0~631.2~631.2~0.0~184.9~0~0.0~0.0~0.0~0.0~0~0.0~0.0~0.0~0.0~0~0.0~0.0~0.0~135.0~631.2~631.2*
%ADD92D92*%
%ADD93C,0.063120*%
%ADD94C,0.126110*%
%ADD95C,0.058000*%
%ADD96C,0.030840*%
%ADD97C,0.110360*%
%ADD98C,0.165000*%
%ADD99C,0.048000*%
%ADD100C,0.028000*%
%ADD101C,0.070000*%
%ADD102R,0.074930X0.133980*%
%ADD103R,0.100000X0.070470*%
%ADD104O,0.016540X0.038980*%
%ADD105R,0.043430X0.033590*%
%ADD106R,0.069020X0.063120*%
%ADD107R,0.051310X0.049340*%
%ADD108R,0.047370X0.031620*%
%ADD109R,0.035560X0.019020*%
%LNcareboard_smd_ordered_6.29-1*%
%LPD*%
G54D33*
X06963Y0D02*
Y026D01*
X0D02*
X06963D01*
X0Y0D02*
X06963D01*
X0D02*
Y026D01*
G54D74*
X04841Y01061D03*
Y01217D03*
G54D75*
X05003Y01161D03*
Y01119D03*
G54D77*
X01327Y01633D03*
Y01554D03*
X02733Y0115D03*
Y01071D03*
X0498Y00733D03*
Y00654D03*
G54D80*
X04747Y02077D03*
X04674D03*
X05018Y00469D03*
X04945D03*
X04438Y00535D03*
X04511D03*
X04855Y00469D03*
X04782D03*
G54D81*
X01683Y01698D03*
Y01771D03*
X03074Y01892D03*
Y01965D03*
X01664Y01945D03*
Y02018D03*
X00868Y01662D03*
Y0159D03*
X0485Y02095D03*
Y02168D03*
X04681Y00538D03*
Y00465D03*
G54D82*
X01853Y01771D03*
Y01698D03*
X01203Y01627D03*
Y01554D03*
X02621Y01069D03*
Y01142D03*
X0467Y01895D03*
Y01967D03*
X04954Y01885D03*
Y01958D03*
X04597Y00659D03*
Y00732D03*
X04687Y00732D03*
Y00659D03*
G54D83*
X01323Y01013D03*
X01251D03*
X04304Y01625D03*
X04232D03*
X01323Y01199D03*
X01251D03*
X05019Y00307D03*
X04946D03*
G54D84*
X06787Y02258D03*
X0688D03*
X06689Y02516D03*
Y02418D03*
X0688Y02014D03*
X06787Y02014D03*
X06686Y01734D03*
Y01832D03*
X06015Y01831D03*
Y01733D03*
X06116Y02013D03*
X06209Y02013D03*
X06018Y02417D03*
Y02515D03*
X06209Y02257D03*
X06116D03*
G54D85*
X06673Y01975D03*
X06002Y01974D03*
X00418Y01561D03*
X03291Y01255D03*
G54D86*
X06673Y02075D03*
Y02176D03*
Y02277D03*
X06002Y02276D03*
Y02175D03*
Y02074D03*
X02618Y00641D03*
X02518Y00741D03*
Y00641D03*
X02418Y00741D03*
Y00641D03*
X06492Y00078D03*
X06392D03*
X06292D03*
X06192D03*
X05992D03*
X06092D03*
X00418Y01961D03*
Y01861D03*
Y01761D03*
Y01661D03*
X0618Y00956D03*
X03191Y01255D03*
X03091D03*
X02991D03*
X02891D03*
X02791D03*
X02691D03*
X02591D03*
X02491D03*
X02391D03*
X02291D03*
X02191D03*
X02091D03*
X01991D03*
X03291Y00955D03*
X03191D03*
X03091D03*
X02991D03*
X02891D03*
X02791D03*
X02691D03*
X02591D03*
X02491D03*
X02391D03*
X02291D03*
X02191D03*
X02091D03*
X01991D03*
X06526Y01724D03*
X06476Y01774D03*
X06893Y01773D03*
X06846Y01723D03*
Y02535D03*
X06893Y02488D03*
X06519Y02535D03*
X06469Y02488D03*
X05798Y02487D03*
X05848Y02534D03*
X06222Y02487D03*
X06175Y02534D03*
Y01722D03*
X06222Y01772D03*
X05805Y01773D03*
X05855Y01723D03*
G54D87*
X00347Y00787D03*
X00197D03*
G54D88*
X00272Y00577D03*
Y00307D03*
G54D89*
X06742Y01118D03*
X06642Y01116D03*
X06745Y00272D03*
X06645Y0027D03*
X0575Y00272D03*
X0565Y0027D03*
G54D90*
X00127Y01467D03*
Y01652D03*
Y01837D03*
Y02022D03*
G54D91*
X02618Y00741D03*
X05892Y00078D03*
X0628Y00956D03*
G54D92*
X01506Y01019D03*
G54D93*
X01506Y01211D03*
G54D94*
X05548Y01118D03*
X05847Y01117D03*
G54D95*
X0653Y02034D03*
Y02219D03*
X06465Y02034D03*
Y02219D03*
X05794Y02218D03*
Y02033D03*
X05859Y02218D03*
Y02033D03*
X01401Y00626D03*
X05112Y00307D03*
X0517Y00873D03*
X02733Y0042D03*
X03042Y00391D03*
Y00567D03*
X008Y0124D03*
X02743Y01633D03*
X02708Y02204D03*
Y02427D03*
X01752Y01867D03*
X00938Y01956D03*
X01148D03*
X01521Y01593D03*
X01369Y00741D03*
X0341Y00862D03*
G54D96*
X04785Y00687D03*
X04815Y00668D03*
X04785Y00648D03*
X04844Y00687D03*
Y00648D03*
G54D97*
X00272Y02252D03*
Y01252D03*
G54D98*
X04312Y00231D03*
Y02381D03*
X01587D03*
Y00231D03*
G54D99*
X0152Y02D03*
X03187Y01767D03*
X03519Y01917D03*
X04249Y01981D03*
X01335Y02D03*
X01188Y0185D03*
X04754Y02168D03*
X02952Y01635D03*
X03519Y01817D03*
X03568Y02117D03*
X01335Y018D03*
X04692Y02168D03*
X03187Y01967D03*
X03068Y02113D03*
X03345Y0182D03*
X01188Y0205D03*
X02847Y01793D03*
X02109Y01939D03*
X01541Y01894D03*
X02595Y01693D03*
X0257Y01994D03*
X03671Y01847D03*
X05092Y02037D03*
X04964D03*
Y02127D03*
X05092Y02125D03*
X05001Y01008D03*
X04928Y00638D03*
X05028Y02084D03*
X03869Y00634D03*
X03895Y01132D03*
X0254Y01617D03*
X02356Y01839D03*
X02541D03*
X02181Y02171D03*
X0182Y01961D03*
X01335Y019D03*
X0152Y021D03*
X02209Y01989D03*
X02553Y02173D03*
X03535Y02017D03*
X04129Y01474D03*
G54D100*
X04927Y00545D03*
X04823D03*
G54D101*
X03945Y01395D03*
G54D102*
X04469Y01472D03*
X04311D03*
G54D103*
X04815Y00668D03*
G54D104*
X04775Y00726D03*
X04795D03*
X04815D03*
X04834D03*
X04854D03*
Y00609D03*
X04834D03*
X04815D03*
X04795D03*
X04775D03*
G54D105*
X04849Y01969D03*
Y01932D03*
Y01894D03*
X04755D03*
Y01969D03*
G54D106*
X04974Y00851D03*
X04815D03*
G54D107*
X04476Y0133D03*
X04398D03*
G54D108*
X01028Y01587D03*
Y01662D03*
X01106Y01625D03*
X01766Y02018D03*
Y02093D03*
X01845Y02056D03*
G54D109*
X04754Y00677D03*
Y00658D03*
X04876D03*
Y00677D03*
M02*