%FSLAX25Y25*%
%MOIN*%
G70*
G01*
G75*
G04:AMPARAMS|DCode=10|XSize=23.62mil|YSize=61.02mil|CornerRadius=5.91mil|HoleSize=0mil|Usage=FLASHONLY|Rotation=0.000|XOffset=0mil|YOffset=0mil|HoleType=Round|Shape=RoundedRectangle|*
%AMROUNDEDRECTD10*
21,1,0.02362,0.04921,0,0,0.0*
21,1,0.01181,0.06102,0,0,0.0*
1,1,0.01181,0.00591,-0.02461*
1,1,0.01181,-0.00591,-0.02461*
1,1,0.01181,-0.00591,0.02461*
1,1,0.01181,0.00591,0.02461*
%
%ADD10ROUNDEDRECTD10*%
%ADD11R,0.05906X0.09843*%
%ADD12O,0.07480X0.02362*%
%ADD13O,0.01378X0.07087*%
%ADD14R,0.09843X0.05906*%
G04:AMPARAMS|DCode=15|XSize=23.62mil|YSize=61.02mil|CornerRadius=5.91mil|HoleSize=0mil|Usage=FLASHONLY|Rotation=270.000|XOffset=0mil|YOffset=0mil|HoleType=Round|Shape=RoundedRectangle|*
%AMROUNDEDRECTD15*
21,1,0.02362,0.04921,0,0,270.0*
21,1,0.01181,0.06102,0,0,270.0*
1,1,0.01181,-0.02461,-0.00591*
1,1,0.01181,-0.02461,0.00591*
1,1,0.01181,0.02461,0.00591*
1,1,0.01181,0.02461,-0.00591*
%
%ADD15ROUNDEDRECTD15*%
%ADD16R,0.04724X0.05315*%
%ADD17R,0.05315X0.04724*%
%ADD18R,0.05709X0.04528*%
%ADD19R,0.04528X0.05709*%
%ADD20R,0.04134X0.04331*%
%ADD21R,0.05315X0.03937*%
%ADD22R,0.03937X0.05315*%
%ADD23R,0.03150X0.01969*%
%ADD24R,0.01969X0.03150*%
%ADD25C,0.02000*%
%ADD26C,0.01500*%
%ADD27C,0.03000*%
%ADD28C,0.01300*%
%ADD29C,0.05000*%
%ADD30C,0.04000*%
%ADD31C,0.06500*%
%ADD32C,0.06000*%
%ADD33C,0.03937*%
%ADD34C,0.01000*%
%ADD35C,0.00100*%
%ADD36C,0.05906*%
%ADD37R,0.05906X0.05906*%
%ADD38C,0.11024*%
%ADD39C,0.15354*%
%ADD40C,0.06000*%
%ADD41C,0.11417*%
%ADD42R,0.05906X0.05906*%
%ADD43P,0.05966X8X112.5*%
%ADD44C,0.05512*%
%ADD45C,0.11811*%
%ADD46C,0.07874*%
%ADD47C,0.05213*%
G04:AMPARAMS|DCode=48|XSize=42.52mil|YSize=145.67mil|CornerRadius=10.63mil|HoleSize=0mil|Usage=FLASHONLY|Rotation=270.000|XOffset=0mil|YOffset=0mil|HoleType=Round|Shape=RoundedRectangle|*
%AMROUNDEDRECTD48*
21,1,0.04252,0.12441,0,0,270.0*
21,1,0.02126,0.14567,0,0,270.0*
1,1,0.02126,-0.06221,-0.01063*
1,1,0.02126,-0.06221,0.01063*
1,1,0.02126,0.06221,0.01063*
1,1,0.02126,0.06221,-0.01063*
%
%ADD48ROUNDEDRECTD48*%
%ADD49C,0.05000*%
%ADD50C,0.04000*%
%ADD51C,0.02000*%
%ADD52C,0.06200*%
%ADD53C,0.02284*%
%ADD54C,0.10236*%
%ADD55C,0.15700*%
%ADD56R,0.06693X0.12598*%
%ADD57R,0.09449X0.06496*%
%ADD58O,0.01102X0.03347*%
%ADD59R,0.03543X0.02559*%
%ADD60R,0.06102X0.05512*%
%ADD61R,0.03937X0.02362*%
%ADD62R,0.04331X0.04134*%
%ADD63C,0.04500*%
%ADD64C,0.02500*%
%ADD65C,0.07000*%
%ADD66C,0.03500*%
%ADD67C,0.05500*%
%ADD68R,0.02756X0.01102*%
%ADD69R,0.02756X0.01102*%
%ADD70R,0.02756X0.01102*%
D10*
X336050Y57500D02*
D03*
X312550D02*
D03*
X316467D02*
D03*
X320384D02*
D03*
X324300D02*
D03*
X328217D02*
D03*
X332134D02*
D03*
X412861Y133017D02*
D03*
X408928D02*
D03*
X404994D02*
D03*
X401061D02*
D03*
X230250Y217600D02*
D03*
X234184D02*
D03*
X238117D02*
D03*
X242050D02*
D03*
D11*
X341950Y67800D02*
D03*
X306650D02*
D03*
X418661Y121517D02*
D03*
X394961D02*
D03*
X224450Y229100D02*
D03*
X248150D02*
D03*
D12*
X228330Y198900D02*
D03*
Y193900D02*
D03*
Y188900D02*
D03*
Y183900D02*
D03*
X246834Y198900D02*
D03*
Y193900D02*
D03*
Y188900D02*
D03*
Y183900D02*
D03*
X126167Y210000D02*
D03*
Y205000D02*
D03*
Y200000D02*
D03*
Y195000D02*
D03*
Y190000D02*
D03*
Y185000D02*
D03*
Y180000D02*
D03*
X144671Y210000D02*
D03*
Y205000D02*
D03*
Y200000D02*
D03*
Y195000D02*
D03*
Y190000D02*
D03*
Y185000D02*
D03*
Y180000D02*
D03*
X326130Y201790D02*
D03*
Y196790D02*
D03*
Y191790D02*
D03*
Y186790D02*
D03*
Y181790D02*
D03*
Y176790D02*
D03*
Y171790D02*
D03*
X344634Y201790D02*
D03*
Y196790D02*
D03*
Y191790D02*
D03*
Y186790D02*
D03*
Y181790D02*
D03*
Y176790D02*
D03*
Y171790D02*
D03*
X228198Y166700D02*
D03*
Y161700D02*
D03*
Y156700D02*
D03*
Y151700D02*
D03*
X246702Y166700D02*
D03*
Y161700D02*
D03*
Y156700D02*
D03*
Y151700D02*
D03*
D13*
X404884Y101986D02*
D03*
X402325D02*
D03*
X399766D02*
D03*
X397207D02*
D03*
X394648D02*
D03*
X392089D02*
D03*
X389530D02*
D03*
X386971D02*
D03*
X384412D02*
D03*
X381853D02*
D03*
X379294D02*
D03*
X376734D02*
D03*
X374176D02*
D03*
X371617D02*
D03*
X404884Y75214D02*
D03*
X402325D02*
D03*
X399766D02*
D03*
X397207D02*
D03*
X394648D02*
D03*
X392089D02*
D03*
X389530D02*
D03*
X386971D02*
D03*
X384412D02*
D03*
X381853D02*
D03*
X379294D02*
D03*
X376734D02*
D03*
X374176D02*
D03*
X371617D02*
D03*
D14*
X158750Y52400D02*
D03*
Y79700D02*
D03*
D15*
X170550Y74100D02*
D03*
Y58500D02*
D03*
Y62400D02*
D03*
Y66300D02*
D03*
Y70200D02*
D03*
D16*
X584908Y87050D02*
D03*
X592192D02*
D03*
X129277Y225469D02*
D03*
X136560D02*
D03*
X129277Y235271D02*
D03*
X136560D02*
D03*
X337408Y153800D02*
D03*
X344692D02*
D03*
X388840Y193042D02*
D03*
X396124D02*
D03*
X118342Y35300D02*
D03*
X111058D02*
D03*
D17*
X649950Y58492D02*
D03*
Y51208D02*
D03*
X98450Y209705D02*
D03*
Y216988D02*
D03*
X286250Y223648D02*
D03*
Y230931D02*
D03*
X411550Y192958D02*
D03*
Y200242D02*
D03*
X388852Y219458D02*
D03*
Y226742D02*
D03*
X366350Y204042D02*
D03*
Y196758D02*
D03*
Y219458D02*
D03*
Y226742D02*
D03*
X249800Y36558D02*
D03*
Y43842D02*
D03*
X12750Y220558D02*
D03*
Y227842D02*
D03*
X12950Y128242D02*
D03*
Y120958D02*
D03*
X34750Y93858D02*
D03*
Y101142D02*
D03*
D18*
X108119Y217242D02*
D03*
Y209958D02*
D03*
X105250Y177758D02*
D03*
Y185042D02*
D03*
X322450Y223648D02*
D03*
Y230931D02*
D03*
X305950Y223648D02*
D03*
Y230931D02*
D03*
X307450Y181942D02*
D03*
Y174658D02*
D03*
X411550Y219258D02*
D03*
Y226542D02*
D03*
X423082Y92673D02*
D03*
Y85389D02*
D03*
D19*
X307287Y164900D02*
D03*
X314571D02*
D03*
X388840Y203900D02*
D03*
X396124D02*
D03*
D20*
X434082Y92837D02*
D03*
Y84963D02*
D03*
D21*
X95000Y41551D02*
D03*
Y35449D02*
D03*
D22*
X475451Y231200D02*
D03*
X469349D02*
D03*
D23*
X346350Y220890D02*
D03*
X352350D02*
D03*
Y234790D02*
D03*
X346350D02*
D03*
D24*
X261300Y37200D02*
D03*
Y43200D02*
D03*
D35*
X696300Y0D02*
Y260000D01*
X-0D02*
X696300D01*
X-0Y0D02*
X696300D01*
X-0D02*
Y260000D01*
D36*
X95500Y235700D02*
D03*
X230000Y36558D02*
D03*
X220000Y46558D02*
D03*
Y36558D02*
D03*
X210000Y46558D02*
D03*
Y36558D02*
D03*
X649250Y7850D02*
D03*
X639250D02*
D03*
X629250D02*
D03*
X619250D02*
D03*
X599250D02*
D03*
X609250D02*
D03*
X41850Y196100D02*
D03*
Y186100D02*
D03*
Y176100D02*
D03*
Y166100D02*
D03*
X319119Y125576D02*
D03*
X309119D02*
D03*
X299119D02*
D03*
X289119D02*
D03*
X279119D02*
D03*
X269119D02*
D03*
X259119D02*
D03*
X249119D02*
D03*
X239119D02*
D03*
X229119D02*
D03*
X219119D02*
D03*
X209119D02*
D03*
X199119D02*
D03*
X329119Y95576D02*
D03*
X319119D02*
D03*
X309119D02*
D03*
X299119D02*
D03*
X289119D02*
D03*
X279119D02*
D03*
X269119D02*
D03*
X259119D02*
D03*
X249119D02*
D03*
X239119D02*
D03*
X229119D02*
D03*
X219119D02*
D03*
X209119D02*
D03*
X199119D02*
D03*
X289700Y201500D02*
D03*
X200800Y170200D02*
D03*
X179100Y224940D02*
D03*
X75600Y205621D02*
D03*
X474200Y16300D02*
D03*
X618050Y95650D02*
D03*
X285600Y57700D02*
D03*
X199000Y224940D02*
D03*
X103000Y63000D02*
D03*
X118422Y63100D02*
D03*
X666800Y207776D02*
D03*
Y217851D02*
D03*
Y227927D02*
D03*
X630700Y237900D02*
D03*
Y226249D02*
D03*
X630600Y214598D02*
D03*
D37*
X105500Y235700D02*
D03*
X230000Y46558D02*
D03*
X589250Y7850D02*
D03*
X279700Y201500D02*
D03*
X210800Y170200D02*
D03*
X484200Y16300D02*
D03*
X628050Y95650D02*
D03*
D38*
X34750Y78700D02*
D03*
X19750D02*
D03*
D39*
X27250Y57700D02*
D03*
Y30700D02*
D03*
D40*
X674200Y111800D02*
D03*
X664200Y111600D02*
D03*
X674501Y27200D02*
D03*
X664501Y27000D02*
D03*
X575000Y27200D02*
D03*
X565000Y27000D02*
D03*
D41*
X12750Y146700D02*
D03*
Y165200D02*
D03*
Y183700D02*
D03*
Y202200D02*
D03*
D42*
X41850Y156100D02*
D03*
X329119Y125576D02*
D03*
X179100Y234940D02*
D03*
X75600Y195621D02*
D03*
X285600Y67700D02*
D03*
X199000Y234940D02*
D03*
X103000Y73000D02*
D03*
X118422Y73100D02*
D03*
X666800Y197700D02*
D03*
X631100Y249551D02*
D03*
D43*
X150650Y101917D02*
D03*
D44*
Y121129D02*
D03*
D45*
X554801Y111800D02*
D03*
X584700Y111700D02*
D03*
D46*
X678200Y226000D02*
D03*
X687500D02*
D03*
X668400Y251807D02*
D03*
Y242000D02*
D03*
X687500Y201600D02*
D03*
X678200Y201663D02*
D03*
X668100Y173600D02*
D03*
Y183407D02*
D03*
D47*
X606600Y239100D02*
D03*
X600700Y235900D02*
D03*
X606600Y232650D02*
D03*
X600700Y229600D02*
D03*
X606600Y226200D02*
D03*
D48*
X603800Y249100D02*
D03*
Y215800D02*
D03*
M02*
