%FSLAX25Y25*%
%MOIN*%
G70*
G01*
G75*
G04 Layer_Color=2752767*
G04:AMPARAMS|DCode=10|XSize=23.62mil|YSize=61.02mil|CornerRadius=5.91mil|HoleSize=0mil|Usage=FLASHONLY|Rotation=0.000|XOffset=0mil|YOffset=0mil|HoleType=Round|Shape=RoundedRectangle|*
%AMROUNDEDRECTD10*
21,1,0.02362,0.04921,0,0,0.0*
21,1,0.01181,0.06102,0,0,0.0*
1,1,0.01181,0.00591,-0.02461*
1,1,0.01181,-0.00591,-0.02461*
1,1,0.01181,-0.00591,0.02461*
1,1,0.01181,0.00591,0.02461*
%
%ADD10ROUNDEDRECTD10*%
%ADD11O,0.07480X0.02362*%
%ADD12O,0.01378X0.07087*%
G04:AMPARAMS|DCode=13|XSize=23.62mil|YSize=61.02mil|CornerRadius=5.91mil|HoleSize=0mil|Usage=FLASHONLY|Rotation=270.000|XOffset=0mil|YOffset=0mil|HoleType=Round|Shape=RoundedRectangle|*
%AMROUNDEDRECTD13*
21,1,0.02362,0.04921,0,0,270.0*
21,1,0.01181,0.06102,0,0,270.0*
1,1,0.01181,-0.02461,-0.00591*
1,1,0.01181,-0.02461,0.00591*
1,1,0.01181,0.02461,0.00591*
1,1,0.01181,0.02461,-0.00591*
%
%ADD13ROUNDEDRECTD13*%
%ADD14R,0.03937X0.05315*%
%ADD15R,0.04134X0.04331*%
%ADD16R,0.03150X0.01969*%
%ADD17R,0.01969X0.03150*%
%ADD18R,0.04724X0.05315*%
%ADD19R,0.05315X0.04724*%
%ADD20R,0.05709X0.04528*%
%ADD21R,0.04528X0.05709*%
%ADD22C,0.01969*%
%ADD23C,0.01500*%
%ADD24C,0.02000*%
%ADD25C,0.01300*%
%ADD26C,0.04000*%
%ADD27C,0.05000*%
%ADD28C,0.03000*%
%ADD29C,0.06500*%
%ADD30C,0.06000*%
%ADD31R,0.03500X0.07500*%
%ADD32R,0.04724X0.07087*%
%ADD33R,0.07500X0.03500*%
%ADD34R,0.05600X0.07700*%
%ADD35C,0.00100*%
%ADD36C,0.11417*%
%ADD37C,0.15354*%
%ADD38C,0.11024*%
%ADD39C,0.05906*%
%ADD40R,0.05906X0.05906*%
%ADD41C,0.06000*%
%ADD42R,0.05906X0.05906*%
%ADD43P,0.05966X8X112.5*%
%ADD44C,0.05512*%
%ADD45C,0.11811*%
%ADD46C,0.10236*%
%ADD47C,0.05000*%
%ADD48C,0.02284*%
%ADD49C,0.15700*%
%ADD50C,0.04000*%
%ADD51C,0.02000*%
%ADD52C,0.06200*%
%ADD53R,0.06693X0.12598*%
%ADD54R,0.09449X0.06496*%
%ADD55O,0.01102X0.03347*%
%ADD56R,0.03543X0.02559*%
%ADD57R,0.06102X0.05512*%
%ADD58R,0.04331X0.04134*%
%ADD59R,0.03937X0.02362*%
%ADD60C,0.04500*%
%ADD61C,0.01000*%
%ADD62C,0.02500*%
%ADD63C,0.07000*%
%ADD64C,0.03500*%
%ADD65C,0.05500*%
%ADD66R,0.07087X0.04724*%
%ADD67R,0.02756X0.01102*%
%ADD68C,0.01575*%
%ADD69C,0.02362*%
%ADD70C,0.03937*%
%ADD71C,0.00787*%
%ADD72C,0.00800*%
G04:AMPARAMS|DCode=73|XSize=31.62mil|YSize=69.02mil|CornerRadius=9.91mil|HoleSize=0mil|Usage=FLASHONLY|Rotation=0.000|XOffset=0mil|YOffset=0mil|HoleType=Round|Shape=RoundedRectangle|*
%AMROUNDEDRECTD73*
21,1,0.03162,0.04921,0,0,0.0*
21,1,0.01181,0.06902,0,0,0.0*
1,1,0.01981,0.00591,-0.02461*
1,1,0.01981,-0.00591,-0.02461*
1,1,0.01981,-0.00591,0.02461*
1,1,0.01981,0.00591,0.02461*
%
%ADD73ROUNDEDRECTD73*%
%ADD74O,0.08280X0.03162*%
%ADD75O,0.02178X0.07887*%
G04:AMPARAMS|DCode=76|XSize=31.62mil|YSize=69.02mil|CornerRadius=9.91mil|HoleSize=0mil|Usage=FLASHONLY|Rotation=270.000|XOffset=0mil|YOffset=0mil|HoleType=Round|Shape=RoundedRectangle|*
%AMROUNDEDRECTD76*
21,1,0.03162,0.04921,0,0,270.0*
21,1,0.01181,0.06902,0,0,270.0*
1,1,0.01981,-0.02461,-0.00591*
1,1,0.01981,-0.02461,0.00591*
1,1,0.01981,0.02461,0.00591*
1,1,0.01981,0.02461,-0.00591*
%
%ADD76ROUNDEDRECTD76*%
%ADD77R,0.04737X0.06115*%
%ADD78R,0.04934X0.05131*%
%ADD79R,0.03950X0.02769*%
%ADD80R,0.02769X0.03950*%
%ADD81R,0.05524X0.06115*%
%ADD82R,0.06115X0.05524*%
%ADD83R,0.06509X0.05328*%
%ADD84R,0.05328X0.06509*%
%ADD85C,0.12217*%
%ADD86C,0.16154*%
%ADD87C,0.11824*%
%ADD88C,0.06706*%
%ADD89R,0.06706X0.06706*%
%ADD90C,0.06800*%
%ADD91R,0.06706X0.06706*%
%ADD92P,0.06832X8X112.5*%
%ADD93C,0.06312*%
%ADD94C,0.12611*%
%ADD95C,0.11036*%
%ADD96C,0.05800*%
%ADD97C,0.03084*%
%ADD98C,0.16500*%
%ADD99C,0.04800*%
%ADD100C,0.02800*%
%ADD101C,0.07000*%
%ADD102R,0.07493X0.13398*%
%ADD103R,0.10000X0.07047*%
%ADD104O,0.01654X0.03898*%
%ADD105R,0.04343X0.03359*%
%ADD106R,0.06902X0.06312*%
%ADD107R,0.05131X0.04934*%
%ADD108R,0.04737X0.03162*%
%ADD109R,0.03556X0.01902*%
%ADD110R,0.04134X0.02677*%
%ADD111R,0.01969X0.01024*%
%ADD112O,0.00906X0.03150*%
%ADD113C,0.00500*%
%ADD114C,0.00667*%
%ADD115C,0.00400*%
D35*
X260400Y-22500D02*
Y237500D01*
X-426250Y-22500D02*
X260400D01*
X-426250D02*
Y237500D01*
X260400D01*
D113*
X-415500Y177700D02*
Y181700D01*
X-411500D01*
Y177700D01*
X-415500D01*
Y159200D02*
Y163200D01*
X-411500D01*
Y159200D01*
X-415500D01*
Y140700D02*
Y144700D01*
X-411500D01*
Y140700D01*
X-415500D01*
Y122200D02*
Y126200D01*
X-411500D01*
Y122200D01*
X-415500D01*
X-406500Y54200D02*
X-408500Y58200D01*
X-404500D01*
X-406500Y54200D01*
X-391500D02*
X-393500Y58200D01*
X-389500D01*
X-391500Y54200D01*
X150970Y210053D02*
X151970Y211053D01*
X152970D01*
X151970Y212053D01*
X152970Y213053D01*
X151970D01*
X150970Y214053D01*
X149970Y213053D01*
X148970D01*
X149970Y212053D01*
X148970Y211053D01*
X149970D01*
X150970Y210053D01*
Y200233D02*
X151970Y201233D01*
X152970D01*
X151970Y202233D01*
X152970Y203233D01*
X151970D01*
X150970Y204233D01*
X149970Y203233D01*
X148970D01*
X149970Y202233D01*
X148970Y201233D01*
X149970D01*
X150970Y200233D01*
Y190413D02*
X151970Y191413D01*
X152970D01*
X151970Y192413D01*
X152970Y193413D01*
X151970D01*
X150970Y194413D01*
X149970Y193413D01*
X148970D01*
X149970Y192413D01*
X148970Y191413D01*
X149970D01*
X150970Y190413D01*
Y180593D02*
X151970Y181593D01*
X152970D01*
X151970Y182593D01*
X152970Y183593D01*
X151970D01*
X150970Y184593D01*
X149970Y183593D01*
X148970D01*
X149970Y182593D01*
X148970Y181593D01*
X149970D01*
X150970Y180593D01*
X150470Y161000D02*
X151470Y163000D01*
X150470Y165000D01*
X152470Y164000D01*
X154470Y165000D01*
X153470Y163000D01*
X154470Y161000D01*
X152470Y162000D01*
X150470Y161000D01*
Y168500D02*
X151470Y170500D01*
X150470Y172500D01*
X152470Y171500D01*
X154470Y172500D01*
X153470Y170500D01*
X154470Y168500D01*
X152470Y169500D01*
X150470Y168500D01*
X157970Y186667D02*
X158970Y188667D01*
X157970Y190667D01*
X159970Y189667D01*
X161970Y190667D01*
X160970Y188667D01*
X161970Y186667D01*
X159970Y187667D01*
X157970Y186667D01*
X165470Y186603D02*
X166470Y188603D01*
X165470Y190603D01*
X167470Y189603D01*
X169470Y190603D01*
X168470Y188603D01*
X169470Y186603D01*
X167470Y187603D01*
X165470Y186603D01*
X150320Y221500D02*
X151320Y223500D01*
X150320Y225500D01*
X152320Y224500D01*
X154320Y225500D01*
X153320Y223500D01*
X154320Y221500D01*
X152320Y222500D01*
X150320Y221500D01*
Y229740D02*
X151320Y231740D01*
X150320Y233740D01*
X152320Y232740D01*
X154320Y233740D01*
X153320Y231740D01*
X154320Y229740D01*
X152320Y230740D01*
X150320Y229740D01*
X165470Y206437D02*
X166470Y208437D01*
X165470Y210437D01*
X167470Y209437D01*
X169470Y210437D01*
X168470Y208437D01*
X169470Y206437D01*
X167470Y207437D01*
X165470Y206437D01*
X157970D02*
X158970Y208437D01*
X157970Y210437D01*
X159970Y209437D01*
X161970Y210437D01*
X160970Y208437D01*
X161970Y206437D01*
X159970Y207437D01*
X157970Y206437D01*
X195170Y210053D02*
X196170Y211053D01*
X197170D01*
X196170Y212053D01*
X197170Y213053D01*
X196170D01*
X195170Y214053D01*
X194170Y213053D01*
X193170D01*
X194170Y212053D01*
X193170Y211053D01*
X194170D01*
X195170Y210053D01*
Y200233D02*
X196170Y201233D01*
X197170D01*
X196170Y202233D01*
X197170Y203233D01*
X196170D01*
X195170Y204233D01*
X194170Y203233D01*
X193170D01*
X194170Y202233D01*
X193170Y201233D01*
X194170D01*
X195170Y200233D01*
Y190413D02*
X196170Y191413D01*
X197170D01*
X196170Y192413D01*
X197170Y193413D01*
X196170D01*
X195170Y194413D01*
X194170Y193413D01*
X193170D01*
X194170Y192413D01*
X193170Y191413D01*
X194170D01*
X195170Y190413D01*
Y180593D02*
X196170Y181593D01*
X197170D01*
X196170Y182593D01*
X197170Y183593D01*
X196170D01*
X195170Y184593D01*
X194170Y183593D01*
X193170D01*
X194170Y182593D01*
X193170Y181593D01*
X194170D01*
X195170Y180593D01*
X194670Y161000D02*
X195670Y163000D01*
X194670Y165000D01*
X196670Y164000D01*
X198670Y165000D01*
X197670Y163000D01*
X198670Y161000D01*
X196670Y162000D01*
X194670Y161000D01*
Y168500D02*
X195670Y170500D01*
X194670Y172500D01*
X196670Y171500D01*
X198670Y172500D01*
X197670Y170500D01*
X198670Y168500D01*
X196670Y169500D01*
X194670Y168500D01*
X202170Y186667D02*
X203170Y188667D01*
X202170Y190667D01*
X204170Y189667D01*
X206170Y190667D01*
X205170Y188667D01*
X206170Y186667D01*
X204170Y187667D01*
X202170Y186667D01*
X209670Y186603D02*
X210670Y188603D01*
X209670Y190603D01*
X211670Y189603D01*
X213670Y190603D01*
X212670Y188603D01*
X213670Y186603D01*
X211670Y187603D01*
X209670Y186603D01*
X194520Y221500D02*
X195520Y223500D01*
X194520Y225500D01*
X196520Y224500D01*
X198520Y225500D01*
X197520Y223500D01*
X198520Y221500D01*
X196520Y222500D01*
X194520Y221500D01*
Y229740D02*
X195520Y231740D01*
X194520Y233740D01*
X196520Y232740D01*
X198520Y233740D01*
X197520Y231740D01*
X198520Y229740D01*
X196520Y230740D01*
X194520Y229740D01*
X209670Y206437D02*
X210670Y208437D01*
X209670Y210437D01*
X211670Y209437D01*
X213670Y210437D01*
X212670Y208437D01*
X213670Y206437D01*
X211670Y207437D01*
X209670Y206437D01*
X202170D02*
X203170Y208437D01*
X202170Y210437D01*
X204170Y209437D01*
X206170Y210437D01*
X205170Y208437D01*
X206170Y206437D01*
X204170Y207437D01*
X202170Y206437D01*
X238900Y210263D02*
X239900Y211263D01*
X240900D01*
X239900Y212263D01*
X240900Y213263D01*
X239900D01*
X238900Y214263D01*
X237900Y213263D01*
X236900D01*
X237900Y212263D01*
X236900Y211263D01*
X237900D01*
X238900Y210263D01*
Y200443D02*
X239900Y201443D01*
X240900D01*
X239900Y202443D01*
X240900Y203443D01*
X239900D01*
X238900Y204443D01*
X237900Y203443D01*
X236900D01*
X237900Y202443D01*
X236900Y201443D01*
X237900D01*
X238900Y200443D01*
Y190623D02*
X239900Y191623D01*
X240900D01*
X239900Y192623D01*
X240900Y193623D01*
X239900D01*
X238900Y194623D01*
X237900Y193623D01*
X236900D01*
X237900Y192623D01*
X236900Y191623D01*
X237900D01*
X238900Y190623D01*
Y180803D02*
X239900Y181803D01*
X240900D01*
X239900Y182803D01*
X240900Y183803D01*
X239900D01*
X238900Y184803D01*
X237900Y183803D01*
X236900D01*
X237900Y182803D01*
X236900Y181803D01*
X237900D01*
X238900Y180803D01*
X238400Y161210D02*
X239400Y163210D01*
X238400Y165210D01*
X240400Y164210D01*
X242400Y165210D01*
X241400Y163210D01*
X242400Y161210D01*
X240400Y162210D01*
X238400Y161210D01*
Y168710D02*
X239400Y170710D01*
X238400Y172710D01*
X240400Y171710D01*
X242400Y172710D01*
X241400Y170710D01*
X242400Y168710D01*
X240400Y169710D01*
X238400Y168710D01*
X245900Y186877D02*
X246900Y188877D01*
X245900Y190877D01*
X247900Y189877D01*
X249900Y190877D01*
X248900Y188877D01*
X249900Y186877D01*
X247900Y187877D01*
X245900Y186877D01*
X253400Y186814D02*
X254400Y188814D01*
X253400Y190814D01*
X255400Y189814D01*
X257400Y190814D01*
X256400Y188814D01*
X257400Y186814D01*
X255400Y187814D01*
X253400Y186814D01*
X238250Y221710D02*
X239250Y223710D01*
X238250Y225710D01*
X240250Y224710D01*
X242250Y225710D01*
X241250Y223710D01*
X242250Y221710D01*
X240250Y222710D01*
X238250Y221710D01*
Y229950D02*
X239250Y231950D01*
X238250Y233950D01*
X240250Y232950D01*
X242250Y233950D01*
X241250Y231950D01*
X242250Y229950D01*
X240250Y230950D01*
X238250Y229950D01*
X253400Y206647D02*
X254400Y208647D01*
X253400Y210647D01*
X255400Y209647D01*
X257400Y210647D01*
X256400Y208647D01*
X257400Y206647D01*
X255400Y207647D01*
X253400Y206647D01*
X245900D02*
X246900Y208647D01*
X245900Y210647D01*
X247900Y209647D01*
X249900Y210647D01*
X248900Y208647D01*
X249900Y206647D01*
X247900Y207647D01*
X245900Y206647D01*
X225150Y88092D02*
X226150Y90092D01*
X225150Y92092D01*
X227150Y91092D01*
X229150Y92092D01*
X228150Y90092D01*
X229150Y88092D01*
X227150Y89092D01*
X225150Y88092D01*
X235150Y88292D02*
X236150Y90292D01*
X235150Y92292D01*
X237150Y91292D01*
X239150Y92292D01*
X238150Y90292D01*
X239150Y88292D01*
X237150Y89292D01*
X235150Y88292D01*
X225450Y3492D02*
X226450Y5492D01*
X225450Y7492D01*
X227450Y6492D01*
X229450Y7492D01*
X228450Y5492D01*
X229450Y3492D01*
X227450Y4492D01*
X225450Y3492D01*
X235450Y3692D02*
X236450Y5692D01*
X235450Y7692D01*
X237450Y6692D01*
X239450Y7692D01*
X238450Y5692D01*
X239450Y3692D01*
X237450Y4692D01*
X235450Y3692D01*
X125950Y3492D02*
X126950Y5492D01*
X125950Y7492D01*
X127950Y6492D01*
X129950Y7492D01*
X128950Y5492D01*
X129950Y3492D01*
X127950Y4492D01*
X125950Y3492D01*
X135950Y3692D02*
X136950Y5692D01*
X135950Y7692D01*
X137950Y6692D01*
X139950Y7692D01*
X138950Y5692D01*
X139950Y3692D01*
X137950Y4692D01*
X135950Y3692D01*
X-169430Y49000D02*
X-168430Y50000D01*
X-167430D01*
X-168430Y51000D01*
X-167430Y52000D01*
X-168430D01*
X-169430Y53000D01*
X-170430Y52000D01*
X-171430D01*
X-170430Y51000D01*
X-171430Y50000D01*
X-170430D01*
X-169430Y49000D01*
Y39000D02*
X-168430Y40000D01*
X-167430D01*
X-168430Y41000D01*
X-167430Y42000D01*
X-168430D01*
X-169430Y43000D01*
X-170430Y42000D01*
X-171430D01*
X-170430Y41000D01*
X-171430Y40000D01*
X-170430D01*
X-169430Y39000D01*
X-179430Y49000D02*
X-178430Y50000D01*
X-177430D01*
X-178430Y51000D01*
X-177430Y52000D01*
X-178430D01*
X-179430Y53000D01*
X-180430Y52000D01*
X-181430D01*
X-180430Y51000D01*
X-181430Y50000D01*
X-180430D01*
X-179430Y49000D01*
Y39000D02*
X-178430Y40000D01*
X-177430D01*
X-178430Y41000D01*
X-177430Y42000D01*
X-178430D01*
X-179430Y43000D01*
X-180430Y42000D01*
X-181430D01*
X-180430Y41000D01*
X-181430Y40000D01*
X-180430D01*
X-179430Y39000D01*
X-189430Y49000D02*
X-188430Y50000D01*
X-187430D01*
X-188430Y51000D01*
X-187430Y52000D01*
X-188430D01*
X-189430Y53000D01*
X-190430Y52000D01*
X-191430D01*
X-190430Y51000D01*
X-191430Y50000D01*
X-190430D01*
X-189430Y49000D01*
Y39000D02*
X-188430Y40000D01*
X-187430D01*
X-188430Y41000D01*
X-187430Y42000D01*
X-188430D01*
X-189430Y43000D01*
X-190430Y42000D01*
X-191430D01*
X-190430Y41000D01*
X-191430Y40000D01*
X-190430D01*
X-189430Y39000D01*
X212200Y-15658D02*
X213200Y-14658D01*
X214200D01*
X213200Y-13658D01*
X214200Y-12658D01*
X213200D01*
X212200Y-11658D01*
X211200Y-12658D01*
X210200D01*
X211200Y-13658D01*
X210200Y-14658D01*
X211200D01*
X212200Y-15658D01*
X202200D02*
X203200Y-14658D01*
X204200D01*
X203200Y-13658D01*
X204200Y-12658D01*
X203200D01*
X202200Y-11658D01*
X201200Y-12658D01*
X200200D01*
X201200Y-13658D01*
X200200Y-14658D01*
X201200D01*
X202200Y-15658D01*
X192200D02*
X193200Y-14658D01*
X194200D01*
X193200Y-13658D01*
X194200Y-12658D01*
X193200D01*
X192200Y-11658D01*
X191200Y-12658D01*
X190200D01*
X191200Y-13658D01*
X190200Y-14658D01*
X191200D01*
X192200Y-15658D01*
X182200D02*
X183200Y-14658D01*
X184200D01*
X183200Y-13658D01*
X184200Y-12658D01*
X183200D01*
X182200Y-11658D01*
X181200Y-12658D01*
X180200D01*
X181200Y-13658D01*
X180200Y-14658D01*
X181200D01*
X182200Y-15658D01*
X162200D02*
X163200Y-14658D01*
X164200D01*
X163200Y-13658D01*
X164200Y-12658D01*
X163200D01*
X162200Y-11658D01*
X161200Y-12658D01*
X160200D01*
X161200Y-13658D01*
X160200Y-14658D01*
X161200D01*
X162200Y-15658D01*
X152200D02*
X153200Y-14658D01*
X154200D01*
X153200Y-13658D01*
X154200Y-12658D01*
X153200D01*
X152200Y-11658D01*
X151200Y-12658D01*
X150200D01*
X151200Y-13658D01*
X150200Y-14658D01*
X151200D01*
X152200Y-15658D01*
X172200D02*
X173200Y-14658D01*
X174200D01*
X173200Y-13658D01*
X174200Y-12658D01*
X173200D01*
X172200Y-11658D01*
X171200Y-12658D01*
X170200D01*
X171200Y-13658D01*
X170200Y-14658D01*
X171200D01*
X172200Y-15658D01*
X-384400Y171600D02*
X-383400Y172600D01*
X-382400D01*
X-383400Y173600D01*
X-382400Y174600D01*
X-383400D01*
X-384400Y175600D01*
X-385400Y174600D01*
X-386400D01*
X-385400Y173600D01*
X-386400Y172600D01*
X-385400D01*
X-384400Y171600D01*
Y161600D02*
X-383400Y162600D01*
X-382400D01*
X-383400Y163600D01*
X-382400Y164600D01*
X-383400D01*
X-384400Y165600D01*
X-385400Y164600D01*
X-386400D01*
X-385400Y163600D01*
X-386400Y162600D01*
X-385400D01*
X-384400Y161600D01*
Y151600D02*
X-383400Y152600D01*
X-382400D01*
X-383400Y153600D01*
X-382400Y154600D01*
X-383400D01*
X-384400Y155600D01*
X-385400Y154600D01*
X-386400D01*
X-385400Y153600D01*
X-386400Y152600D01*
X-385400D01*
X-384400Y151600D01*
Y141600D02*
X-383400Y142600D01*
X-382400D01*
X-383400Y143600D01*
X-382400Y144600D01*
X-383400D01*
X-384400Y145600D01*
X-385400Y144600D01*
X-386400D01*
X-385400Y143600D01*
X-386400Y142600D01*
X-385400D01*
X-384400Y141600D01*
Y131600D02*
X-383400Y132600D01*
X-382400D01*
X-383400Y133600D01*
X-382400Y134600D01*
X-383400D01*
X-384400Y135600D01*
X-385400Y134600D01*
X-386400D01*
X-385400Y133600D01*
X-386400Y132600D01*
X-385400D01*
X-384400Y131600D01*
X-281600Y77816D02*
Y76816D01*
X-279600D01*
Y77816D01*
X-278600D01*
Y79817D01*
X-279600D01*
Y80817D01*
X-281600D01*
Y79817D01*
X-282600D01*
Y77816D01*
X-281600D01*
Y97029D02*
Y96029D01*
X-279600D01*
Y97029D01*
X-278600D01*
Y99029D01*
X-279600D01*
Y100029D01*
X-281600D01*
Y99029D01*
X-282600D01*
Y97029D01*
X-281600D01*
X115750Y88292D02*
X116750D01*
X117750Y89292D01*
X118750Y88292D01*
X119750D01*
Y89292D01*
X118750Y90292D01*
X119750Y91292D01*
Y92292D01*
X118750D01*
X117750Y91292D01*
X116750Y92292D01*
X115750D01*
Y91292D01*
X116750Y90292D01*
X115750Y89292D01*
Y88292D01*
X145650Y88192D02*
X146650D01*
X147650Y89192D01*
X148650Y88192D01*
X149650D01*
Y89192D01*
X148650Y90192D01*
X149650Y91192D01*
Y92192D01*
X148650D01*
X147650Y91192D01*
X146650Y92192D01*
X145650D01*
Y91192D01*
X146650Y90192D01*
X145650Y89192D01*
Y88192D01*
X-232132Y70476D02*
X-231132Y71476D01*
X-230132D01*
X-231132Y72476D01*
X-230132Y73476D01*
X-231132D01*
X-232132Y74476D01*
X-233132Y73476D01*
X-234132D01*
X-233132Y72476D01*
X-234132Y71476D01*
X-233132D01*
X-232132Y70476D01*
X-222131D02*
X-221131Y71476D01*
X-220131D01*
X-221131Y72476D01*
X-220131Y73476D01*
X-221131D01*
X-222131Y74476D01*
X-223131Y73476D01*
X-224131D01*
X-223131Y72476D01*
X-224131Y71476D01*
X-223131D01*
X-222131Y70476D01*
X-212132D02*
X-211132Y71476D01*
X-210132D01*
X-211132Y72476D01*
X-210132Y73476D01*
X-211132D01*
X-212132Y74476D01*
X-213131Y73476D01*
X-214131D01*
X-213131Y72476D01*
X-214131Y71476D01*
X-213131D01*
X-212132Y70476D01*
X-202132D02*
X-201132Y71476D01*
X-200132D01*
X-201132Y72476D01*
X-200132Y73476D01*
X-201132D01*
X-202132Y74476D01*
X-203132Y73476D01*
X-204132D01*
X-203132Y72476D01*
X-204132Y71476D01*
X-203132D01*
X-202132Y70476D01*
X-192131D02*
X-191131Y71476D01*
X-190131D01*
X-191131Y72476D01*
X-190131Y73476D01*
X-191131D01*
X-192131Y74476D01*
X-193131Y73476D01*
X-194132D01*
X-193131Y72476D01*
X-194132Y71476D01*
X-193131D01*
X-192131Y70476D01*
X-182132D02*
X-181131Y71476D01*
X-180131D01*
X-181131Y72476D01*
X-180131Y73476D01*
X-181131D01*
X-182132Y74476D01*
X-183132Y73476D01*
X-184132D01*
X-183132Y72476D01*
X-184132Y71476D01*
X-183132D01*
X-182132Y70476D01*
X-172132D02*
X-171132Y71476D01*
X-170132D01*
X-171132Y72476D01*
X-170132Y73476D01*
X-171132D01*
X-172132Y74476D01*
X-173132Y73476D01*
X-174132D01*
X-173132Y72476D01*
X-174132Y71476D01*
X-173132D01*
X-172132Y70476D01*
X-162132D02*
X-161132Y71476D01*
X-160132D01*
X-161132Y72476D01*
X-160132Y73476D01*
X-161132D01*
X-162132Y74476D01*
X-163131Y73476D01*
X-164131D01*
X-163131Y72476D01*
X-164131Y71476D01*
X-163131D01*
X-162132Y70476D01*
X-152131D02*
X-151131Y71476D01*
X-150131D01*
X-151131Y72476D01*
X-150131Y73476D01*
X-151131D01*
X-152131Y74476D01*
X-153131Y73476D01*
X-154131D01*
X-153131Y72476D01*
X-154131Y71476D01*
X-153131D01*
X-152131Y70476D01*
X-142131D02*
X-141131Y71476D01*
X-140131D01*
X-141131Y72476D01*
X-140131Y73476D01*
X-141131D01*
X-142131Y74476D01*
X-143131Y73476D01*
X-144132D01*
X-143131Y72476D01*
X-144132Y71476D01*
X-143131D01*
X-142131Y70476D01*
X-132132D02*
X-131131Y71476D01*
X-130131D01*
X-131131Y72476D01*
X-130131Y73476D01*
X-131131D01*
X-132132Y74476D01*
X-133132Y73476D01*
X-134132D01*
X-133132Y72476D01*
X-134132Y71476D01*
X-133132D01*
X-132132Y70476D01*
X-122132D02*
X-121132Y71476D01*
X-120132D01*
X-121132Y72476D01*
X-120132Y73476D01*
X-121132D01*
X-122132Y74476D01*
X-123132Y73476D01*
X-124132D01*
X-123132Y72476D01*
X-124132Y71476D01*
X-123132D01*
X-122132Y70476D01*
X-112132D02*
X-111132Y71476D01*
X-110132D01*
X-111132Y72476D01*
X-110132Y73476D01*
X-111132D01*
X-112132Y74476D01*
X-113131Y73476D01*
X-114131D01*
X-113131Y72476D01*
X-114131Y71476D01*
X-113131D01*
X-112132Y70476D01*
X-102131D02*
X-101131Y71476D01*
X-100131D01*
X-101131Y72476D01*
X-100131Y73476D01*
X-101131D01*
X-102131Y74476D01*
X-103131Y73476D01*
X-104131D01*
X-103131Y72476D01*
X-104131Y71476D01*
X-103131D01*
X-102131Y70476D01*
X-232132Y100476D02*
X-231132Y101476D01*
X-230132D01*
X-231132Y102476D01*
X-230132Y103476D01*
X-231132D01*
X-232132Y104476D01*
X-233132Y103476D01*
X-234132D01*
X-233132Y102476D01*
X-234132Y101476D01*
X-233132D01*
X-232132Y100476D01*
X-222131D02*
X-221131Y101476D01*
X-220131D01*
X-221131Y102476D01*
X-220131Y103476D01*
X-221131D01*
X-222131Y104476D01*
X-223131Y103476D01*
X-224131D01*
X-223131Y102476D01*
X-224131Y101476D01*
X-223131D01*
X-222131Y100476D01*
X-212132D02*
X-211132Y101476D01*
X-210132D01*
X-211132Y102476D01*
X-210132Y103476D01*
X-211132D01*
X-212132Y104476D01*
X-213131Y103476D01*
X-214131D01*
X-213131Y102476D01*
X-214131Y101476D01*
X-213131D01*
X-212132Y100476D01*
X-202132D02*
X-201132Y101476D01*
X-200132D01*
X-201132Y102476D01*
X-200132Y103476D01*
X-201132D01*
X-202132Y104476D01*
X-203132Y103476D01*
X-204132D01*
X-203132Y102476D01*
X-204132Y101476D01*
X-203132D01*
X-202132Y100476D01*
X-192131D02*
X-191131Y101476D01*
X-190131D01*
X-191131Y102476D01*
X-190131Y103476D01*
X-191131D01*
X-192131Y104476D01*
X-193131Y103476D01*
X-194132D01*
X-193131Y102476D01*
X-194132Y101476D01*
X-193131D01*
X-192131Y100476D01*
X-182132D02*
X-181131Y101476D01*
X-180131D01*
X-181131Y102476D01*
X-180131Y103476D01*
X-181131D01*
X-182132Y104476D01*
X-183132Y103476D01*
X-184132D01*
X-183132Y102476D01*
X-184132Y101476D01*
X-183132D01*
X-182132Y100476D01*
X-172132D02*
X-171132Y101476D01*
X-170132D01*
X-171132Y102476D01*
X-170132Y103476D01*
X-171132D01*
X-172132Y104476D01*
X-173132Y103476D01*
X-174132D01*
X-173132Y102476D01*
X-174132Y101476D01*
X-173132D01*
X-172132Y100476D01*
X-162132D02*
X-161132Y101476D01*
X-160132D01*
X-161132Y102476D01*
X-160132Y103476D01*
X-161132D01*
X-162132Y104476D01*
X-163131Y103476D01*
X-164131D01*
X-163131Y102476D01*
X-164131Y101476D01*
X-163131D01*
X-162132Y100476D01*
X-152131D02*
X-151131Y101476D01*
X-150131D01*
X-151131Y102476D01*
X-150131Y103476D01*
X-151131D01*
X-152131Y104476D01*
X-153131Y103476D01*
X-154131D01*
X-153131Y102476D01*
X-154131Y101476D01*
X-153131D01*
X-152131Y100476D01*
X-142131D02*
X-141131Y101476D01*
X-140131D01*
X-141131Y102476D01*
X-140131Y103476D01*
X-141131D01*
X-142131Y104476D01*
X-143131Y103476D01*
X-144132D01*
X-143131Y102476D01*
X-144132Y101476D01*
X-143131D01*
X-142131Y100476D01*
X-132132D02*
X-131131Y101476D01*
X-130131D01*
X-131131Y102476D01*
X-130131Y103476D01*
X-131131D01*
X-132132Y104476D01*
X-133132Y103476D01*
X-134132D01*
X-133132Y102476D01*
X-134132Y101476D01*
X-133132D01*
X-132132Y100476D01*
X-122132D02*
X-121132Y101476D01*
X-120132D01*
X-121132Y102476D01*
X-120132Y103476D01*
X-121132D01*
X-122132Y104476D01*
X-123132Y103476D01*
X-124132D01*
X-123132Y102476D01*
X-124132Y101476D01*
X-123132D01*
X-122132Y100476D01*
X-112132D02*
X-111132Y101476D01*
X-110132D01*
X-111132Y102476D01*
X-110132Y103476D01*
X-111132D01*
X-112132Y104476D01*
X-113131Y103476D01*
X-114131D01*
X-113131Y102476D01*
X-114131Y101476D01*
X-113131D01*
X-112132Y100476D01*
X-102131D02*
X-101131Y101476D01*
X-100131D01*
X-101131Y102476D01*
X-100131Y103476D01*
X-101131D01*
X-102131Y104476D01*
X-103131Y103476D01*
X-104131D01*
X-103131Y102476D01*
X-104131Y101476D01*
X-103131D01*
X-102131Y100476D01*
X-401000Y102700D02*
X-399000Y104700D01*
X-397000Y102700D01*
X-399000Y100700D01*
X-401000Y102700D01*
Y202700D02*
X-399000Y204700D01*
X-397000Y202700D01*
X-399000Y200700D01*
X-401000Y202700D01*
X133970Y206000D02*
Y210000D01*
X137970D01*
Y206000D01*
X133970D01*
X134770Y206800D02*
Y209200D01*
X137170D01*
Y206800D01*
X134770D01*
X133970Y187500D02*
Y191500D01*
X137970D01*
Y187500D01*
X133970D01*
X134770Y188300D02*
Y190700D01*
X137170D01*
Y188300D01*
X134770D01*
X140470Y206000D02*
Y210000D01*
X144470D01*
Y206000D01*
X140470D01*
X141270Y206800D02*
Y209200D01*
X143670D01*
Y206800D01*
X141270D01*
X140470Y187500D02*
Y191500D01*
X144470D01*
Y187500D01*
X140470D01*
X141270Y188300D02*
Y190700D01*
X143670D01*
Y188300D01*
X141270D01*
X178170Y206000D02*
Y210000D01*
X182170D01*
Y206000D01*
X178170D01*
X178970Y206800D02*
Y209200D01*
X181370D01*
Y206800D01*
X178970D01*
X178170Y187500D02*
Y191500D01*
X182170D01*
Y187500D01*
X178170D01*
X178970Y188300D02*
Y190700D01*
X181370D01*
Y188300D01*
X178970D01*
X184670Y206000D02*
Y210000D01*
X188670D01*
Y206000D01*
X184670D01*
X185470Y206800D02*
Y209200D01*
X187870D01*
Y206800D01*
X185470D01*
X184670Y187500D02*
Y191500D01*
X188670D01*
Y187500D01*
X184670D01*
X185470Y188300D02*
Y190700D01*
X187870D01*
Y188300D01*
X185470D01*
X47305Y43668D02*
X45305Y47668D01*
X49305D01*
X47305Y43668D01*
Y44468D02*
X46105Y46868D01*
X48505D01*
X47305Y44468D01*
X50258Y41700D02*
X48258Y45700D01*
X52258D01*
X50258Y41700D01*
Y42500D02*
X49058Y44900D01*
X51458D01*
X50258Y42500D01*
X47305Y39731D02*
X45305Y43731D01*
X49305D01*
X47305Y39731D01*
Y40531D02*
X46105Y42931D01*
X48505D01*
X47305Y40531D01*
X53211Y43668D02*
X51211Y47668D01*
X55211D01*
X53211Y43668D01*
Y44468D02*
X52011Y46868D01*
X54411D01*
X53211Y44468D01*
Y39731D02*
X51211Y43731D01*
X55211D01*
X53211Y39731D01*
Y40531D02*
X52011Y42931D01*
X54411D01*
X53211Y40531D01*
X221900Y206210D02*
Y210210D01*
X225900D01*
Y206210D01*
X221900D01*
X222700Y207010D02*
Y209410D01*
X225100D01*
Y207010D01*
X222700D01*
X221900Y187710D02*
Y191710D01*
X225900D01*
Y187710D01*
X221900D01*
X222700Y188510D02*
Y190910D01*
X225100D01*
Y188510D01*
X222700D01*
X228400Y206210D02*
Y210210D01*
X232400D01*
Y206210D01*
X228400D01*
X229200Y207010D02*
Y209410D01*
X231600D01*
Y207010D01*
X229200D01*
X228400Y187710D02*
Y191710D01*
X232400D01*
Y187710D01*
X228400D01*
X229200Y188510D02*
Y190910D01*
X231600D01*
Y188510D01*
X229200D01*
X0Y-2000D02*
X1000Y-1000D01*
X2000D01*
X1000Y0D01*
X2000Y1000D01*
X1000D01*
X0Y2000D01*
X-1000Y1000D01*
X-2000D01*
X-1000Y0D01*
X-2000Y-1000D01*
X-1000D01*
X0Y-2000D01*
Y-1200D02*
X600Y-600D01*
X1200D01*
X600Y0D01*
X1200Y600D01*
X600D01*
X0Y1200D01*
X-600Y600D01*
X-1200D01*
X-600Y0D01*
X-1200Y-600D01*
X-600D01*
X0Y-1200D01*
Y213000D02*
X1000Y214000D01*
X2000D01*
X1000Y215000D01*
X2000Y216000D01*
X1000D01*
X0Y217000D01*
X-1000Y216000D01*
X-2000D01*
X-1000Y215000D01*
X-2000Y214000D01*
X-1000D01*
X0Y213000D01*
Y213800D02*
X600Y214400D01*
X1200D01*
X600Y215000D01*
X1200Y215600D01*
X600D01*
X0Y216200D01*
X-600Y215600D01*
X-1200D01*
X-600Y215000D01*
X-1200Y214400D01*
X-600D01*
X0Y213800D01*
X-272500Y213000D02*
X-271500Y214000D01*
X-270500D01*
X-271500Y215000D01*
X-270500Y216000D01*
X-271500D01*
X-272500Y217000D01*
X-273500Y216000D01*
X-274500D01*
X-273500Y215000D01*
X-274500Y214000D01*
X-273500D01*
X-272500Y213000D01*
Y213800D02*
X-271900Y214400D01*
X-271300D01*
X-271900Y215000D01*
X-271300Y215600D01*
X-271900D01*
X-272500Y216200D01*
X-273100Y215600D01*
X-273700D01*
X-273100Y215000D01*
X-273700Y214400D01*
X-273100D01*
X-272500Y213800D01*
Y-2000D02*
X-271500Y-1000D01*
X-270500D01*
X-271500Y0D01*
X-270500Y1000D01*
X-271500D01*
X-272500Y2000D01*
X-273500Y1000D01*
X-274500D01*
X-273500Y0D01*
X-274500Y-1000D01*
X-273500D01*
X-272500Y-2000D01*
Y-1200D02*
X-271900Y-600D01*
X-271300D01*
X-271900Y0D01*
X-271300Y600D01*
X-271900D01*
X-272500Y1200D01*
X-273100Y600D01*
X-273700D01*
X-273100Y0D01*
X-273700Y-600D01*
X-273100D01*
X-272500Y-1200D01*
X-281239Y174900D02*
X-280239Y176900D01*
X-281239Y178900D01*
X-279239Y177900D01*
X-277239Y178900D01*
X-278239Y176900D01*
X-277239Y174900D01*
X-279239Y175900D01*
X-281239Y174900D01*
X-280439Y175700D02*
X-279839Y176900D01*
X-280439Y178100D01*
X-279239Y177500D01*
X-278039Y178100D01*
X-278639Y176900D01*
X-278039Y175700D01*
X-279239Y176300D01*
X-280439Y175700D01*
X-114461Y151690D02*
X-113461Y153690D01*
X-114461Y155690D01*
X-112461Y154690D01*
X-110461Y155690D01*
X-111461Y153690D01*
X-110461Y151690D01*
X-112461Y152690D01*
X-114461Y151690D01*
X-113661Y152490D02*
X-113061Y153690D01*
X-113661Y154890D01*
X-112461Y154290D01*
X-111261Y154890D01*
X-111861Y153690D01*
X-111261Y152490D01*
X-112461Y153090D01*
X-113661Y152490D01*
X-81276Y166690D02*
X-80276Y168690D01*
X-81276Y170690D01*
X-79276Y169690D01*
X-77276Y170690D01*
X-78276Y168690D01*
X-77276Y166690D01*
X-79276Y167690D01*
X-81276Y166690D01*
X-80476Y167490D02*
X-79876Y168690D01*
X-80476Y169890D01*
X-79276Y169290D01*
X-78076Y169890D01*
X-78676Y168690D01*
X-78076Y167490D01*
X-79276Y168090D01*
X-80476Y167490D01*
X-8300Y173080D02*
X-7300Y175080D01*
X-8300Y177079D01*
X-6300Y176079D01*
X-4300Y177079D01*
X-5300Y175080D01*
X-4300Y173080D01*
X-6300Y174080D01*
X-8300Y173080D01*
X-7500Y173880D02*
X-6900Y175080D01*
X-7500Y176279D01*
X-6300Y175680D01*
X-5100Y176279D01*
X-5700Y175080D01*
X-5100Y173880D01*
X-6300Y174479D01*
X-7500Y173880D01*
X-299743Y174900D02*
X-298743Y176900D01*
X-299743Y178900D01*
X-297743Y177900D01*
X-295743Y178900D01*
X-296743Y176900D01*
X-295743Y174900D01*
X-297743Y175900D01*
X-299743Y174900D01*
X-298943Y175700D02*
X-298343Y176900D01*
X-298943Y178100D01*
X-297743Y177500D01*
X-296543Y178100D01*
X-297143Y176900D01*
X-296543Y175700D01*
X-297743Y176300D01*
X-298943Y175700D01*
X-314424Y159900D02*
X-313424Y161900D01*
X-314424Y163900D01*
X-312424Y162900D01*
X-310424Y163900D01*
X-311424Y161900D01*
X-310424Y159900D01*
X-312424Y160900D01*
X-314424Y159900D01*
X-313624Y160700D02*
X-313024Y161900D01*
X-313624Y163100D01*
X-312424Y162500D01*
X-311224Y163100D01*
X-311824Y161900D01*
X-311224Y160700D01*
X-312424Y161300D01*
X-313624Y160700D01*
X-293068Y37568D02*
Y41568D01*
X-289068D01*
Y37568D01*
X-293068D01*
X-292268Y38368D02*
Y40768D01*
X-289868D01*
Y38368D01*
X-292268D01*
X60541Y30486D02*
Y29486D01*
X62541D01*
Y30486D01*
X63541D01*
Y32486D01*
X62541D01*
Y33486D01*
X60541D01*
Y32486D01*
X59541D01*
Y30486D01*
X60541D01*
X60941Y30886D02*
Y30286D01*
X62141D01*
Y30886D01*
X62741D01*
Y32086D01*
X62141D01*
Y32686D01*
X60941D01*
Y32086D01*
X60341D01*
Y30886D01*
X60941D01*
X50136Y30486D02*
Y29486D01*
X52136D01*
Y30486D01*
X53136D01*
Y32486D01*
X52136D01*
Y33486D01*
X50136D01*
Y32486D01*
X49136D01*
Y30486D01*
X50136D01*
X50536Y30886D02*
Y30286D01*
X51736D01*
Y30886D01*
X52336D01*
Y32086D01*
X51736D01*
Y32686D01*
X50536D01*
Y32086D01*
X49936D01*
Y30886D01*
X50536D01*
X78000Y5600D02*
Y9600D01*
X82000D01*
Y5600D01*
X78000D01*
X78800Y6400D02*
Y8800D01*
X81200D01*
Y6400D01*
X78800D01*
X83800Y62200D02*
Y66200D01*
X87800D01*
Y62200D01*
X83800D01*
X84600Y63000D02*
Y65400D01*
X87000D01*
Y63000D01*
X84600D01*
X-159900Y16900D02*
Y20900D01*
X-155900D01*
Y16900D01*
X-159900D01*
X-159100Y17700D02*
Y20100D01*
X-156700D01*
Y17700D01*
X-159100D01*
X42151Y191763D02*
X43151Y193763D01*
X42151Y195763D01*
X44151Y194763D01*
X46151Y195763D01*
X45151Y193763D01*
X46151Y191763D01*
X44151Y192763D01*
X42151Y191763D01*
X42951Y192563D02*
X43551Y193763D01*
X42951Y194963D01*
X44151Y194363D01*
X45351Y194963D01*
X44751Y193763D01*
X45351Y192563D01*
X44151Y193163D01*
X42951Y192563D01*
X-129000Y14028D02*
Y18028D01*
X-125000D01*
Y14028D01*
X-129000D01*
X-128200Y14828D02*
Y17228D01*
X-125800D01*
Y14828D01*
X-128200D01*
X-129000Y31663D02*
Y35663D01*
X-125000D01*
Y31663D01*
X-129000D01*
X-128200Y32463D02*
Y34863D01*
X-125800D01*
Y32463D01*
X-128200D01*
X-353200Y98900D02*
Y102900D01*
X-349200D01*
Y98900D01*
X-353200D01*
X-352400Y99700D02*
Y102100D01*
X-350000D01*
Y99700D01*
X-352400D01*
X-138000Y138489D02*
X-137000Y140489D01*
X-138000Y142489D01*
X-136000Y141489D01*
X-134000Y142489D01*
X-135000Y140489D01*
X-134000Y138489D01*
X-136000Y139489D01*
X-138000Y138489D01*
X-137200Y139289D02*
X-136600Y140489D01*
X-137200Y141689D01*
X-136000Y141089D01*
X-134800Y141689D01*
X-135400Y140489D01*
X-134800Y139289D01*
X-136000Y139889D01*
X-137200Y139289D01*
X-158900Y138250D02*
Y142250D01*
X-154900D01*
Y138250D01*
X-158900D01*
X-158100Y139050D02*
Y141450D01*
X-155700D01*
Y139050D01*
X-158100D01*
X-162400Y195394D02*
Y199394D01*
X-158400D01*
Y195394D01*
X-162400D01*
X-161600Y196194D02*
Y198594D01*
X-159200D01*
Y196194D01*
X-161600D01*
X-162400Y217600D02*
Y221600D01*
X-158400D01*
Y217600D01*
X-162400D01*
X-161600Y218400D02*
Y220800D01*
X-159200D01*
Y218400D01*
X-161600D01*
X-258000Y161636D02*
Y165636D01*
X-254000D01*
Y161636D01*
X-258000D01*
X-257200Y162436D02*
Y164836D01*
X-254800D01*
Y162436D01*
X-257200D01*
X-339400Y170521D02*
Y174521D01*
X-335400D01*
Y170521D01*
X-339400D01*
X-338600Y171321D02*
Y173721D01*
X-336200D01*
Y171321D01*
X-338600D01*
X-318400Y170521D02*
Y174521D01*
X-314400D01*
Y170521D01*
X-318400D01*
X-317600Y171321D02*
Y173721D01*
X-315200D01*
Y171321D01*
X-317600D01*
X-281086Y134263D02*
Y138263D01*
X-277086D01*
Y134263D01*
X-281086D01*
X-280286Y135063D02*
Y137463D01*
X-277886D01*
Y135063D01*
X-280286D01*
X-81276Y156690D02*
X-80276Y158690D01*
X-81276Y160690D01*
X-79276Y159690D01*
X-77276Y160690D01*
X-78276Y158690D01*
X-77276Y156690D01*
X-79276Y157690D01*
X-81276Y156690D01*
X-80476Y157490D02*
X-79876Y158690D01*
X-80476Y159890D01*
X-79276Y159290D01*
X-78076Y159890D01*
X-78676Y158690D01*
X-78076Y157490D01*
X-79276Y158090D01*
X-80476Y157490D01*
X-76400Y186600D02*
X-75400Y188600D01*
X-76400Y190600D01*
X-74400Y189600D01*
X-72400Y190600D01*
X-73400Y188600D01*
X-72400Y186600D01*
X-74400Y187600D01*
X-76400Y186600D01*
X-75600Y187400D02*
X-75000Y188600D01*
X-75600Y189800D01*
X-74400Y189200D01*
X-73200Y189800D01*
X-73800Y188600D01*
X-73200Y187400D01*
X-74400Y188000D01*
X-75600Y187400D01*
X-299743Y154900D02*
X-298743Y156900D01*
X-299743Y158900D01*
X-297743Y157900D01*
X-295743Y158900D01*
X-296743Y156900D01*
X-295743Y154900D01*
X-297743Y155900D01*
X-299743Y154900D01*
X-298943Y155700D02*
X-298343Y156900D01*
X-298943Y158100D01*
X-297743Y157500D01*
X-296543Y158100D01*
X-297143Y156900D01*
X-296543Y155700D01*
X-297743Y156300D01*
X-298943Y155700D01*
X36049Y191763D02*
X37049Y193763D01*
X36049Y195763D01*
X38049Y194763D01*
X40049Y195763D01*
X39049Y193763D01*
X40049Y191763D01*
X38049Y192763D01*
X36049Y191763D01*
X36849Y192563D02*
X37449Y193763D01*
X36849Y194963D01*
X38049Y194363D01*
X39249Y194963D01*
X38649Y193763D01*
X39249Y192563D01*
X38049Y193163D01*
X36849Y192563D01*
X-114461Y171690D02*
X-113461Y173690D01*
X-114461Y175690D01*
X-112461Y174690D01*
X-110461Y175690D01*
X-111461Y173690D01*
X-110461Y171690D01*
X-112461Y172690D01*
X-114461Y171690D01*
X-113661Y172490D02*
X-113061Y173690D01*
X-113661Y174890D01*
X-112461Y174290D01*
X-111261Y174890D01*
X-111861Y173690D01*
X-111261Y172490D01*
X-112461Y173090D01*
X-113661Y172490D01*
X-126400Y186278D02*
X-125400Y188278D01*
X-126400Y190278D01*
X-124400Y189278D01*
X-122400Y190278D01*
X-123400Y188278D01*
X-122400Y186278D01*
X-124400Y187278D01*
X-126400Y186278D01*
X-125600Y187078D02*
X-125000Y188278D01*
X-125600Y189478D01*
X-124400Y188878D01*
X-123200Y189478D01*
X-123800Y188278D01*
X-123200Y187078D01*
X-124400Y187678D01*
X-125600Y187078D01*
X-98700Y156900D02*
X-97700Y158900D01*
X-98700Y160900D01*
X-96700Y159900D01*
X-94700Y160900D01*
X-95700Y158900D01*
X-94700Y156900D01*
X-96700Y157900D01*
X-98700Y156900D01*
X-97900Y157700D02*
X-97300Y158900D01*
X-97900Y160100D01*
X-96700Y159500D01*
X-95500Y160100D01*
X-96100Y158900D01*
X-95500Y157700D01*
X-96700Y158300D01*
X-97900Y157700D01*
X-314424Y179900D02*
X-313424Y181900D01*
X-314424Y183900D01*
X-312424Y182900D01*
X-310424Y183900D01*
X-311424Y181900D01*
X-310424Y179900D01*
X-312424Y180900D01*
X-314424Y179900D01*
X-313624Y180700D02*
X-313024Y181900D01*
X-313624Y183100D01*
X-312424Y182500D01*
X-311224Y183100D01*
X-311824Y181900D01*
X-311224Y180700D01*
X-312424Y181300D01*
X-313624Y180700D01*
X-148500Y154200D02*
X-147500Y156200D01*
X-148500Y158200D01*
X-146500Y157200D01*
X-144500Y158200D01*
X-145500Y156200D01*
X-144500Y154200D01*
X-146500Y155200D01*
X-148500Y154200D01*
X-147700Y155000D02*
X-147100Y156200D01*
X-147700Y157400D01*
X-146500Y156800D01*
X-145300Y157400D01*
X-145900Y156200D01*
X-145300Y155000D01*
X-146500Y155600D01*
X-147700Y155000D01*
X-222300Y168868D02*
X-221300Y170868D01*
X-222300Y172868D01*
X-220300Y171868D01*
X-218300Y172868D01*
X-219300Y170868D01*
X-218300Y168868D01*
X-220300Y169868D01*
X-222300Y168868D01*
X-221500Y169668D02*
X-220900Y170868D01*
X-221500Y172068D01*
X-220300Y171468D01*
X-219100Y172068D01*
X-219700Y170868D01*
X-219100Y169668D01*
X-220300Y170268D01*
X-221500Y169668D01*
X-279100Y164345D02*
X-278100Y166345D01*
X-279100Y168345D01*
X-277100Y167345D01*
X-275100Y168345D01*
X-276100Y166345D01*
X-275100Y164345D01*
X-277100Y165345D01*
X-279100Y164345D01*
X-278300Y165145D02*
X-277700Y166345D01*
X-278300Y167545D01*
X-277100Y166945D01*
X-275900Y167545D01*
X-276500Y166345D01*
X-275900Y165145D01*
X-277100Y165745D01*
X-278300Y165145D01*
X-173700Y144200D02*
X-172700Y146200D01*
X-173700Y148200D01*
X-171700Y147200D01*
X-169700Y148200D01*
X-170700Y146200D01*
X-169700Y144200D01*
X-171700Y145200D01*
X-173700Y144200D01*
X-172900Y145000D02*
X-172300Y146200D01*
X-172900Y147400D01*
X-171700Y146800D01*
X-170500Y147400D01*
X-171100Y146200D01*
X-170500Y145000D01*
X-171700Y145600D01*
X-172900Y145000D01*
X-176193Y174300D02*
X-175193Y176300D01*
X-176193Y178300D01*
X-174193Y177300D01*
X-172193Y178300D01*
X-173193Y176300D01*
X-172193Y174300D01*
X-174193Y175300D01*
X-176193Y174300D01*
X-175393Y175100D02*
X-174793Y176300D01*
X-175393Y177500D01*
X-174193Y176900D01*
X-172993Y177500D01*
X-173593Y176300D01*
X-172993Y175100D01*
X-174193Y175700D01*
X-175393Y175100D01*
X-66100Y159600D02*
X-65100Y161600D01*
X-66100Y163600D01*
X-64100Y162600D01*
X-62100Y163600D01*
X-63100Y161600D01*
X-62100Y159600D01*
X-64100Y160600D01*
X-66100Y159600D01*
X-65300Y160400D02*
X-64700Y161600D01*
X-65300Y162800D01*
X-64100Y162200D01*
X-62900Y162800D01*
X-63500Y161600D01*
X-62900Y160400D01*
X-64100Y161000D01*
X-65300Y160400D01*
X-38689Y114417D02*
X-37689D01*
X-36689Y115417D01*
X-35689Y114417D01*
X-34689D01*
Y115417D01*
X-35689Y116417D01*
X-34689Y117417D01*
Y118417D01*
X-35689D01*
X-36689Y117417D01*
X-37689Y118417D01*
X-38689D01*
Y117417D01*
X-37689Y116417D01*
X-38689Y115417D01*
Y114417D01*
X-37889Y115217D02*
X-37289D01*
X-36689Y115817D01*
X-36089Y115217D01*
X-35489D01*
Y115817D01*
X-36089Y116417D01*
X-35489Y117017D01*
Y117617D01*
X-36089D01*
X-36689Y117017D01*
X-37289Y117617D01*
X-37889D01*
Y117017D01*
X-37289Y116417D01*
X-37889Y115817D01*
Y115217D01*
X76019Y178600D02*
X77019Y180600D01*
X76019Y182600D01*
X78019Y181600D01*
X80019Y182600D01*
X79019Y180600D01*
X80019Y178600D01*
X78019Y179600D01*
X76019Y178600D01*
X76819Y179400D02*
X77419Y180600D01*
X76819Y181800D01*
X78019Y181200D01*
X79219Y181800D01*
X78619Y180600D01*
X79219Y179400D01*
X78019Y180000D01*
X76819Y179400D01*
X63200Y178600D02*
X64200Y180600D01*
X63200Y182600D01*
X65200Y181600D01*
X67200Y182600D01*
X66200Y180600D01*
X67200Y178600D01*
X65200Y179600D01*
X63200Y178600D01*
X64000Y179400D02*
X64600Y180600D01*
X64000Y181800D01*
X65200Y181200D01*
X66400Y181800D01*
X65800Y180600D01*
X66400Y179400D01*
X65200Y180000D01*
X64000Y179400D01*
X63200Y187600D02*
X64200Y189600D01*
X63200Y191600D01*
X65200Y190600D01*
X67200Y191600D01*
X66200Y189600D01*
X67200Y187600D01*
X65200Y188600D01*
X63200Y187600D01*
X64000Y188400D02*
X64600Y189600D01*
X64000Y190800D01*
X65200Y190200D01*
X66400Y190800D01*
X65800Y189600D01*
X66400Y188400D01*
X65200Y189000D01*
X64000Y188400D01*
X76019Y187400D02*
X77019Y189400D01*
X76019Y191400D01*
X78019Y190400D01*
X80019Y191400D01*
X79019Y189400D01*
X80019Y187400D01*
X78019Y188400D01*
X76019Y187400D01*
X76819Y188200D02*
X77419Y189400D01*
X76819Y190600D01*
X78019Y190000D01*
X79219Y190600D01*
X78619Y189400D01*
X79219Y188200D01*
X78019Y188800D01*
X76819Y188200D01*
X66927Y75700D02*
Y79700D01*
X70927D01*
Y75700D01*
X66927D01*
X67727Y76500D02*
Y78900D01*
X70127D01*
Y76500D01*
X67727D01*
X59600Y38747D02*
Y42747D01*
X63600D01*
Y38747D01*
X59600D01*
X60400Y39547D02*
Y41947D01*
X62800D01*
Y39547D01*
X60400D01*
X69600Y183300D02*
X70600Y185300D01*
X69600Y187300D01*
X71600Y186300D01*
X73600Y187300D01*
X72600Y185300D01*
X73600Y183300D01*
X71600Y184300D01*
X69600Y183300D01*
X70400Y184100D02*
X71000Y185300D01*
X70400Y186500D01*
X71600Y185900D01*
X72800Y186500D01*
X72200Y185300D01*
X72800Y184100D01*
X71600Y184700D01*
X70400Y184100D01*
X-46279Y38320D02*
X-45279Y40321D01*
X-46279Y42320D01*
X-44280Y41320D01*
X-42279Y42320D01*
X-43279Y40321D01*
X-42279Y38320D01*
X-44280Y39320D01*
X-46279Y38320D01*
X-45480Y39121D02*
X-44879Y40321D01*
X-45480Y41521D01*
X-44280Y40920D01*
X-43080Y41521D01*
X-43679Y40321D01*
X-43080Y39121D01*
X-44280Y39720D01*
X-45480Y39121D01*
X-43710Y88190D02*
X-42710Y90190D01*
X-43710Y92190D01*
X-41710Y91190D01*
X-39710Y92190D01*
X-40710Y90190D01*
X-39710Y88190D01*
X-41710Y89190D01*
X-43710Y88190D01*
X-42910Y88990D02*
X-42310Y90190D01*
X-42910Y91390D01*
X-41710Y90790D01*
X-40510Y91390D01*
X-41110Y90190D01*
X-40510Y88990D01*
X-41710Y89590D01*
X-42910Y88990D01*
X-296300Y49000D02*
Y53000D01*
X-292300D01*
Y49000D01*
X-296300D01*
X-295500Y49800D02*
Y52200D01*
X-293100D01*
Y49800D01*
X-295500D01*
X-92200Y61100D02*
Y65100D01*
X-88200D01*
Y61100D01*
X-92200D01*
X-91400Y61900D02*
Y64300D01*
X-89000D01*
Y61900D01*
X-91400D01*
X-179208Y136600D02*
X-178208Y138600D01*
X-179208Y140600D01*
X-177208Y139600D01*
X-175208Y140600D01*
X-176208Y138600D01*
X-175208Y136600D01*
X-177208Y137600D01*
X-179208Y136600D01*
X-178408Y137400D02*
X-177808Y138600D01*
X-178408Y139800D01*
X-177208Y139200D01*
X-176008Y139800D01*
X-176608Y138600D01*
X-176008Y137400D01*
X-177208Y138000D01*
X-178408Y137400D01*
X-197580Y158800D02*
X-196580Y160800D01*
X-197580Y162800D01*
X-195580Y161800D01*
X-193580Y162800D01*
X-194580Y160800D01*
X-193580Y158800D01*
X-195580Y159800D01*
X-197580Y158800D01*
X-196780Y159600D02*
X-196180Y160800D01*
X-196780Y162000D01*
X-195580Y161400D01*
X-194380Y162000D01*
X-194980Y160800D01*
X-194380Y159600D01*
X-195580Y160200D01*
X-196780Y159600D01*
X-179076Y158800D02*
X-178076Y160800D01*
X-179076Y162800D01*
X-177076Y161800D01*
X-175076Y162800D01*
X-176076Y160800D01*
X-175076Y158800D01*
X-177076Y159800D01*
X-179076Y158800D01*
X-178276Y159600D02*
X-177676Y160800D01*
X-178276Y162000D01*
X-177076Y161400D01*
X-175876Y162000D01*
X-176476Y160800D01*
X-175876Y159600D01*
X-177076Y160200D01*
X-178276Y159600D01*
X-215100Y192016D02*
X-214100Y194016D01*
X-215100Y196016D01*
X-213100Y195016D01*
X-211100Y196016D01*
X-212100Y194016D01*
X-211100Y192016D01*
X-213100Y193016D01*
X-215100Y192016D01*
X-214300Y192816D02*
X-213700Y194016D01*
X-214300Y195216D01*
X-213100Y194616D01*
X-211900Y195216D01*
X-212500Y194016D01*
X-211900Y192816D01*
X-213100Y193416D01*
X-214300Y192816D01*
X-251200Y171000D02*
X-250200Y173000D01*
X-251200Y175000D01*
X-249200Y174000D01*
X-247200Y175000D01*
X-248200Y173000D01*
X-247200Y171000D01*
X-249200Y172000D01*
X-251200Y171000D01*
X-250400Y171800D02*
X-249800Y173000D01*
X-250400Y174200D01*
X-249200Y173600D01*
X-248000Y174200D01*
X-248600Y173000D01*
X-248000Y171800D01*
X-249200Y172400D01*
X-250400Y171800D01*
X-299743Y164900D02*
X-298743Y166900D01*
X-299743Y168900D01*
X-297743Y167900D01*
X-295743Y168900D01*
X-296743Y166900D01*
X-295743Y164900D01*
X-297743Y165900D01*
X-299743Y164900D01*
X-298943Y165700D02*
X-298343Y166900D01*
X-298943Y168100D01*
X-297743Y167500D01*
X-296543Y168100D01*
X-297143Y166900D01*
X-296543Y165700D01*
X-297743Y166300D01*
X-298943Y165700D01*
X-281239Y184900D02*
X-280239Y186900D01*
X-281239Y188900D01*
X-279239Y187900D01*
X-277239Y188900D01*
X-278239Y186900D01*
X-277239Y184900D01*
X-279239Y185900D01*
X-281239Y184900D01*
X-280439Y185700D02*
X-279839Y186900D01*
X-280439Y188100D01*
X-279239Y187500D01*
X-278039Y188100D01*
X-278639Y186900D01*
X-278039Y185700D01*
X-279239Y186300D01*
X-280439Y185700D01*
X-212261Y173800D02*
X-211261Y175800D01*
X-212261Y177800D01*
X-210261Y176800D01*
X-208261Y177800D01*
X-209261Y175800D01*
X-208261Y173800D01*
X-210261Y174800D01*
X-212261Y173800D01*
X-211461Y174600D02*
X-210861Y175800D01*
X-211461Y177000D01*
X-210261Y176400D01*
X-209061Y177000D01*
X-209661Y175800D01*
X-209061Y174600D01*
X-210261Y175200D01*
X-211461Y174600D01*
X-177900Y192200D02*
X-176900Y194200D01*
X-177900Y196200D01*
X-175900Y195200D01*
X-173900Y196200D01*
X-174900Y194200D01*
X-173900Y192200D01*
X-175900Y193200D01*
X-177900Y192200D01*
X-177100Y193000D02*
X-176500Y194200D01*
X-177100Y195400D01*
X-175900Y194800D01*
X-174700Y195400D01*
X-175300Y194200D01*
X-174700Y193000D01*
X-175900Y193600D01*
X-177100Y193000D01*
X-79690Y176690D02*
X-78690Y178690D01*
X-79690Y180690D01*
X-77690Y179690D01*
X-75690Y180690D01*
X-76690Y178690D01*
X-75690Y176690D01*
X-77690Y177690D01*
X-79690Y176690D01*
X-78890Y177490D02*
X-78290Y178690D01*
X-78890Y179890D01*
X-77690Y179290D01*
X-76490Y179890D01*
X-77090Y178690D01*
X-76490Y177490D01*
X-77690Y178090D01*
X-78890Y177490D01*
X-20300Y122351D02*
X-19300Y124351D01*
X-20300Y126351D01*
X-18300Y125351D01*
X-16300Y126351D01*
X-17300Y124351D01*
X-16300Y122351D01*
X-18300Y123351D01*
X-20300Y122351D01*
X-19500Y123151D02*
X-18900Y124351D01*
X-19500Y125551D01*
X-18300Y124951D01*
X-17100Y125551D01*
X-17700Y124351D01*
X-17100Y123151D01*
X-18300Y123751D01*
X-19500Y123151D01*
D114*
X-397000Y8200D02*
G03*
X-397000Y8200I-2000J0D01*
G01*
Y35200D02*
G03*
X-397000Y35200I-2000J0D01*
G01*
X138970Y227370D02*
G03*
X138970Y227370I-2000J0D01*
G01*
X143970Y232000D02*
G03*
X143970Y232000I-2000J0D01*
G01*
X169230Y227370D02*
G03*
X169230Y227370I-2000J0D01*
G01*
X164600Y232370D02*
G03*
X164600Y232370I-2000J0D01*
G01*
Y162870D02*
G03*
X164600Y162870I-2000J0D01*
G01*
X169230Y167870D02*
G03*
X169230Y167870I-2000J0D01*
G01*
X138970D02*
G03*
X138970Y167870I-2000J0D01*
G01*
X143970Y162870D02*
G03*
X143970Y162870I-2000J0D01*
G01*
X183170Y227370D02*
G03*
X183170Y227370I-2000J0D01*
G01*
X188170Y232000D02*
G03*
X188170Y232000I-2000J0D01*
G01*
X213430Y227370D02*
G03*
X213430Y227370I-2000J0D01*
G01*
X208800Y232370D02*
G03*
X208800Y232370I-2000J0D01*
G01*
Y162870D02*
G03*
X208800Y162870I-2000J0D01*
G01*
X213430Y167870D02*
G03*
X213430Y167870I-2000J0D01*
G01*
X183170D02*
G03*
X183170Y167870I-2000J0D01*
G01*
X188170Y162870D02*
G03*
X188170Y162870I-2000J0D01*
G01*
X226900Y227580D02*
G03*
X226900Y227580I-2000J0D01*
G01*
X231900Y232210D02*
G03*
X231900Y232210I-2000J0D01*
G01*
X257160Y227580D02*
G03*
X257160Y227580I-2000J0D01*
G01*
X252530Y232580D02*
G03*
X252530Y232580I-2000J0D01*
G01*
Y163080D02*
G03*
X252530Y163080I-2000J0D01*
G01*
X257160Y168080D02*
G03*
X257160Y168080I-2000J0D01*
G01*
X226900D02*
G03*
X226900Y168080I-2000J0D01*
G01*
X231900Y163080D02*
G03*
X231900Y163080I-2000J0D01*
G01*
D115*
X138170Y227370D02*
G03*
X138170Y227370I-1200J0D01*
G01*
X143170Y232000D02*
G03*
X143170Y232000I-1200J0D01*
G01*
X168430Y227370D02*
G03*
X168430Y227370I-1200J0D01*
G01*
X163800Y232370D02*
G03*
X163800Y232370I-1200J0D01*
G01*
Y162870D02*
G03*
X163800Y162870I-1200J0D01*
G01*
X168430Y167870D02*
G03*
X168430Y167870I-1200J0D01*
G01*
X138170D02*
G03*
X138170Y167870I-1200J0D01*
G01*
X143170Y162870D02*
G03*
X143170Y162870I-1200J0D01*
G01*
X182370Y227370D02*
G03*
X182370Y227370I-1200J0D01*
G01*
X187370Y232000D02*
G03*
X187370Y232000I-1200J0D01*
G01*
X212630Y227370D02*
G03*
X212630Y227370I-1200J0D01*
G01*
X208000Y232370D02*
G03*
X208000Y232370I-1200J0D01*
G01*
Y162870D02*
G03*
X208000Y162870I-1200J0D01*
G01*
X212630Y167870D02*
G03*
X212630Y167870I-1200J0D01*
G01*
X182370D02*
G03*
X182370Y167870I-1200J0D01*
G01*
X187370Y162870D02*
G03*
X187370Y162870I-1200J0D01*
G01*
X226100Y227580D02*
G03*
X226100Y227580I-1200J0D01*
G01*
X231100Y232210D02*
G03*
X231100Y232210I-1200J0D01*
G01*
X256360Y227580D02*
G03*
X256360Y227580I-1200J0D01*
G01*
X251730Y232580D02*
G03*
X251730Y232580I-1200J0D01*
G01*
Y163080D02*
G03*
X251730Y163080I-1200J0D01*
G01*
X256360Y168080D02*
G03*
X256360Y168080I-1200J0D01*
G01*
X226100D02*
G03*
X226100Y168080I-1200J0D01*
G01*
X231100Y163080D02*
G03*
X231100Y163080I-1200J0D01*
G01*
M02*
