%FSLAX25Y25*%
%MOIN*%
G70*
G01*
G75*
G04 Layer_Color=8388736*
G04:AMPARAMS|DCode=10|XSize=23.62mil|YSize=61.02mil|CornerRadius=5.91mil|HoleSize=0mil|Usage=FLASHONLY|Rotation=0.000|XOffset=0mil|YOffset=0mil|HoleType=Round|Shape=RoundedRectangle|*
%AMROUNDEDRECTD10*
21,1,0.02362,0.04921,0,0,0.0*
21,1,0.01181,0.06102,0,0,0.0*
1,1,0.01181,0.00591,-0.02461*
1,1,0.01181,-0.00591,-0.02461*
1,1,0.01181,-0.00591,0.02461*
1,1,0.01181,0.00591,0.02461*
%
%ADD10ROUNDEDRECTD10*%
%ADD11O,0.07480X0.02362*%
%ADD12O,0.01378X0.07087*%
G04:AMPARAMS|DCode=13|XSize=23.62mil|YSize=61.02mil|CornerRadius=5.91mil|HoleSize=0mil|Usage=FLASHONLY|Rotation=270.000|XOffset=0mil|YOffset=0mil|HoleType=Round|Shape=RoundedRectangle|*
%AMROUNDEDRECTD13*
21,1,0.02362,0.04921,0,0,270.0*
21,1,0.01181,0.06102,0,0,270.0*
1,1,0.01181,-0.02461,-0.00591*
1,1,0.01181,-0.02461,0.00591*
1,1,0.01181,0.02461,0.00591*
1,1,0.01181,0.02461,-0.00591*
%
%ADD13ROUNDEDRECTD13*%
%ADD14R,0.03937X0.05315*%
%ADD15R,0.04134X0.04331*%
%ADD16R,0.03150X0.01969*%
%ADD17R,0.01969X0.03150*%
%ADD18R,0.04724X0.05315*%
%ADD19R,0.05315X0.04724*%
%ADD20R,0.05709X0.04528*%
%ADD21R,0.04528X0.05709*%
%ADD22C,0.01969*%
%ADD23C,0.01500*%
%ADD24C,0.02000*%
%ADD25C,0.01300*%
%ADD26C,0.04000*%
%ADD27C,0.05000*%
%ADD28C,0.03000*%
%ADD29C,0.06500*%
%ADD30C,0.06000*%
%ADD31R,0.03500X0.07500*%
%ADD32R,0.04724X0.07087*%
%ADD33R,0.07500X0.03500*%
%ADD34R,0.05600X0.07700*%
%ADD35C,0.00100*%
%ADD36C,0.11417*%
%ADD37C,0.15354*%
%ADD38C,0.11024*%
%ADD39C,0.05906*%
%ADD40R,0.05906X0.05906*%
%ADD41C,0.06000*%
%ADD42R,0.05906X0.05906*%
%ADD43P,0.05966X8X112.5*%
%ADD44C,0.05512*%
%ADD45C,0.11811*%
%ADD46C,0.10236*%
%ADD47C,0.05000*%
%ADD48C,0.02284*%
%ADD49C,0.15700*%
%ADD50C,0.04000*%
%ADD51C,0.02000*%
%ADD52C,0.06200*%
%ADD53R,0.06693X0.12598*%
%ADD54R,0.09449X0.06496*%
%ADD55O,0.01102X0.03347*%
%ADD56R,0.03543X0.02559*%
%ADD57R,0.06102X0.05512*%
%ADD58R,0.04331X0.04134*%
%ADD59R,0.03937X0.02362*%
%ADD60C,0.04500*%
%ADD61C,0.01000*%
%ADD62C,0.02500*%
%ADD63C,0.07000*%
%ADD64C,0.03500*%
%ADD65C,0.05500*%
%ADD66R,0.07087X0.04724*%
%ADD67R,0.02756X0.01102*%
%ADD68C,0.01575*%
%ADD69C,0.02362*%
%ADD70C,0.03937*%
%ADD71C,0.00787*%
%ADD72C,0.00800*%
G04:AMPARAMS|DCode=73|XSize=31.62mil|YSize=69.02mil|CornerRadius=9.91mil|HoleSize=0mil|Usage=FLASHONLY|Rotation=0.000|XOffset=0mil|YOffset=0mil|HoleType=Round|Shape=RoundedRectangle|*
%AMROUNDEDRECTD73*
21,1,0.03162,0.04921,0,0,0.0*
21,1,0.01181,0.06902,0,0,0.0*
1,1,0.01981,0.00591,-0.02461*
1,1,0.01981,-0.00591,-0.02461*
1,1,0.01981,-0.00591,0.02461*
1,1,0.01981,0.00591,0.02461*
%
%ADD73ROUNDEDRECTD73*%
%ADD74O,0.08280X0.03162*%
%ADD75O,0.02178X0.07887*%
G04:AMPARAMS|DCode=76|XSize=31.62mil|YSize=69.02mil|CornerRadius=9.91mil|HoleSize=0mil|Usage=FLASHONLY|Rotation=270.000|XOffset=0mil|YOffset=0mil|HoleType=Round|Shape=RoundedRectangle|*
%AMROUNDEDRECTD76*
21,1,0.03162,0.04921,0,0,270.0*
21,1,0.01181,0.06902,0,0,270.0*
1,1,0.01981,-0.02461,-0.00591*
1,1,0.01981,-0.02461,0.00591*
1,1,0.01981,0.02461,0.00591*
1,1,0.01981,0.02461,-0.00591*
%
%ADD76ROUNDEDRECTD76*%
%ADD77R,0.04737X0.06115*%
%ADD78R,0.04934X0.05131*%
%ADD79R,0.03950X0.02769*%
%ADD80R,0.02769X0.03950*%
%ADD81R,0.05524X0.06115*%
%ADD82R,0.06115X0.05524*%
%ADD83R,0.06509X0.05328*%
%ADD84R,0.05328X0.06509*%
%ADD85C,0.12217*%
%ADD86C,0.16154*%
%ADD87C,0.11824*%
%ADD88C,0.06706*%
%ADD89R,0.06706X0.06706*%
%ADD90C,0.06800*%
%ADD91R,0.06706X0.06706*%
%ADD92P,0.06832X8X112.5*%
%ADD93C,0.06312*%
%ADD94C,0.12611*%
%ADD95C,0.11036*%
%ADD96C,0.05800*%
%ADD97C,0.03084*%
%ADD98C,0.16500*%
%ADD99C,0.04800*%
%ADD100C,0.02800*%
%ADD101C,0.07000*%
D35*
X260400Y-22500D02*
Y237500D01*
X-426250Y-22500D02*
X260400D01*
X-426250D02*
Y237500D01*
X260400D01*
D73*
X-99117Y34400D02*
D03*
X-103033D02*
D03*
X-106950D02*
D03*
X-110867D02*
D03*
X-114783D02*
D03*
X-118700D02*
D03*
X-95200D02*
D03*
X181000Y72542D02*
D03*
X185200D02*
D03*
X-18389Y109917D02*
D03*
X-22323D02*
D03*
X-26256D02*
D03*
X-30189D02*
D03*
X-201000Y194500D02*
D03*
X-197067D02*
D03*
X-193133D02*
D03*
X-189200D02*
D03*
D74*
X-202921Y175800D02*
D03*
Y170800D02*
D03*
Y165800D02*
D03*
Y160800D02*
D03*
X-184416Y175800D02*
D03*
Y170800D02*
D03*
Y165800D02*
D03*
Y160800D02*
D03*
X-286579Y156900D02*
D03*
Y161900D02*
D03*
Y166900D02*
D03*
Y171900D02*
D03*
Y176900D02*
D03*
Y181900D02*
D03*
Y186900D02*
D03*
X-305083Y156900D02*
D03*
Y161900D02*
D03*
Y166900D02*
D03*
Y171900D02*
D03*
Y176900D02*
D03*
Y181900D02*
D03*
Y186900D02*
D03*
X-105121Y178690D02*
D03*
Y173690D02*
D03*
Y168690D02*
D03*
Y163690D02*
D03*
Y158690D02*
D03*
Y153690D02*
D03*
Y148690D02*
D03*
X-86616Y178690D02*
D03*
Y173690D02*
D03*
Y168690D02*
D03*
Y163690D02*
D03*
Y158690D02*
D03*
Y153690D02*
D03*
Y148690D02*
D03*
X-203052Y143600D02*
D03*
Y138600D02*
D03*
Y133600D02*
D03*
Y128600D02*
D03*
X-184548Y143600D02*
D03*
Y138600D02*
D03*
Y133600D02*
D03*
Y128600D02*
D03*
D75*
X-26366Y78886D02*
D03*
X-28925D02*
D03*
X-31484D02*
D03*
X-34043D02*
D03*
X-36602D02*
D03*
X-39161D02*
D03*
X-41721D02*
D03*
X-44280D02*
D03*
X-46839D02*
D03*
X-49398D02*
D03*
X-51957D02*
D03*
X-54516D02*
D03*
X-57075D02*
D03*
X-59634D02*
D03*
X-26366Y52114D02*
D03*
X-28925D02*
D03*
X-31484D02*
D03*
X-34043D02*
D03*
X-36602D02*
D03*
X-39161D02*
D03*
X-41721D02*
D03*
X-44280D02*
D03*
X-46839D02*
D03*
X-49398D02*
D03*
X-51957D02*
D03*
X-54516D02*
D03*
X-57075D02*
D03*
X-59634D02*
D03*
D76*
X-260700Y47100D02*
D03*
Y43200D02*
D03*
Y39300D02*
D03*
Y35400D02*
D03*
Y51000D02*
D03*
D77*
X38049Y207659D02*
D03*
X44151D02*
D03*
D78*
X2832Y69737D02*
D03*
Y61863D02*
D03*
D79*
X-78900Y197790D02*
D03*
X-84900D02*
D03*
X-78900Y211690D02*
D03*
X-84900D02*
D03*
D80*
X-174100Y18900D02*
D03*
Y24900D02*
D03*
D81*
X147858Y65542D02*
D03*
X155142D02*
D03*
X-301973Y202368D02*
D03*
X-294690D02*
D03*
X-301973Y212171D02*
D03*
X-294690D02*
D03*
X-93842Y130700D02*
D03*
X-86558D02*
D03*
X-42410Y169942D02*
D03*
X-35127D02*
D03*
D82*
X212900Y36984D02*
D03*
Y29701D02*
D03*
X-332800Y186605D02*
D03*
Y193888D02*
D03*
X-145000Y200548D02*
D03*
Y207832D02*
D03*
X-19700Y169858D02*
D03*
Y177142D02*
D03*
X-42398Y196358D02*
D03*
Y203642D02*
D03*
X-64900Y180942D02*
D03*
Y173658D02*
D03*
Y196358D02*
D03*
Y203642D02*
D03*
X-185500Y25142D02*
D03*
Y17858D02*
D03*
X-413500Y198058D02*
D03*
Y205342D02*
D03*
X-413300Y105742D02*
D03*
Y98458D02*
D03*
X-391500Y71358D02*
D03*
Y78642D02*
D03*
D83*
X-323131Y194142D02*
D03*
Y186858D02*
D03*
X-326000Y154658D02*
D03*
Y161942D02*
D03*
X-108800Y200548D02*
D03*
Y207832D02*
D03*
X-125300Y200548D02*
D03*
Y207832D02*
D03*
X-123800Y158842D02*
D03*
Y151558D02*
D03*
X-19700Y196158D02*
D03*
Y203442D02*
D03*
X-8168Y69573D02*
D03*
Y62289D02*
D03*
D84*
X-123963Y141800D02*
D03*
X-116680D02*
D03*
X-42410Y180800D02*
D03*
X-35127D02*
D03*
D85*
X-413500Y179700D02*
D03*
Y161200D02*
D03*
Y142700D02*
D03*
Y124200D02*
D03*
D86*
X-399000Y8200D02*
D03*
Y35200D02*
D03*
D87*
X-406500Y56200D02*
D03*
X-391500D02*
D03*
D88*
X150970Y212053D02*
D03*
Y202233D02*
D03*
Y192413D02*
D03*
X195170Y212053D02*
D03*
Y202233D02*
D03*
Y192413D02*
D03*
X238900Y212263D02*
D03*
Y202443D02*
D03*
Y192623D02*
D03*
X-169430Y41000D02*
D03*
X-179430Y51000D02*
D03*
Y41000D02*
D03*
X-189430Y51000D02*
D03*
Y41000D02*
D03*
X212200Y-13658D02*
D03*
X202200D02*
D03*
X192200D02*
D03*
X182200D02*
D03*
X162200D02*
D03*
X172200D02*
D03*
X-384400Y173600D02*
D03*
Y163600D02*
D03*
Y153600D02*
D03*
Y143600D02*
D03*
X-232132Y72476D02*
D03*
X-222131D02*
D03*
X-212132D02*
D03*
X-202132D02*
D03*
X-192131D02*
D03*
X-182132D02*
D03*
X-172132D02*
D03*
X-162132D02*
D03*
X-152131D02*
D03*
X-142131D02*
D03*
X-132132D02*
D03*
X-122132D02*
D03*
X-112132D02*
D03*
X-102131D02*
D03*
X-232132Y102476D02*
D03*
X-222131D02*
D03*
X-212132D02*
D03*
X-202132D02*
D03*
X-192131D02*
D03*
X-182132D02*
D03*
X-172132D02*
D03*
X-162132D02*
D03*
X-152131D02*
D03*
X-142131D02*
D03*
X-132132D02*
D03*
X-122132D02*
D03*
X-112132D02*
D03*
D89*
X150970Y182593D02*
D03*
X195170D02*
D03*
X238900Y182803D02*
D03*
X-384400Y133600D02*
D03*
X-102131Y102476D02*
D03*
D90*
X152470Y163000D02*
D03*
Y170500D02*
D03*
X159970Y188667D02*
D03*
X167470Y188603D02*
D03*
X152320Y223500D02*
D03*
Y231740D02*
D03*
X167470Y208437D02*
D03*
X159970D02*
D03*
X196670Y163000D02*
D03*
Y170500D02*
D03*
X204170Y188667D02*
D03*
X211670Y188603D02*
D03*
X196520Y223500D02*
D03*
Y231740D02*
D03*
X211670Y208437D02*
D03*
X204170D02*
D03*
X240400Y163210D02*
D03*
Y170710D02*
D03*
X247900Y188877D02*
D03*
X255400Y188814D02*
D03*
X240250Y223710D02*
D03*
Y231950D02*
D03*
X255400Y208647D02*
D03*
X247900D02*
D03*
X227150Y90092D02*
D03*
X237150Y90292D02*
D03*
X227450Y5492D02*
D03*
X237450Y5692D02*
D03*
X127950Y5492D02*
D03*
X137950Y5692D02*
D03*
D91*
X-169430Y51000D02*
D03*
X152200Y-13658D02*
D03*
D92*
X-280600Y78816D02*
D03*
D93*
Y98029D02*
D03*
D94*
X117750Y90292D02*
D03*
X147650Y90192D02*
D03*
D95*
X-399000Y102700D02*
D03*
Y202700D02*
D03*
D96*
X135970Y208000D02*
D03*
Y189500D02*
D03*
X142470Y208000D02*
D03*
Y189500D02*
D03*
X136970Y227370D02*
D03*
X141970Y232000D02*
D03*
X167230Y227370D02*
D03*
X162600Y232370D02*
D03*
Y162870D02*
D03*
X167230Y167870D02*
D03*
X136970D02*
D03*
X141970Y162870D02*
D03*
X180170Y208000D02*
D03*
Y189500D02*
D03*
X186670Y208000D02*
D03*
Y189500D02*
D03*
X181170Y227370D02*
D03*
X186170Y232000D02*
D03*
X211430Y227370D02*
D03*
X206800Y232370D02*
D03*
Y162870D02*
D03*
X211430Y167870D02*
D03*
X181170D02*
D03*
X186170Y162870D02*
D03*
X223900Y208210D02*
D03*
Y189710D02*
D03*
X230400Y208210D02*
D03*
Y189710D02*
D03*
X224900Y227580D02*
D03*
X229900Y232210D02*
D03*
X255160Y227580D02*
D03*
X250530Y232580D02*
D03*
Y163080D02*
D03*
X255160Y168080D02*
D03*
X224900D02*
D03*
X229900Y163080D02*
D03*
X-291068Y39568D02*
D03*
X80000Y7600D02*
D03*
X85800Y64200D02*
D03*
X-157900Y18900D02*
D03*
X-127000Y16028D02*
D03*
Y33663D02*
D03*
X-351200Y100900D02*
D03*
X-156900Y140250D02*
D03*
X-160400Y197394D02*
D03*
Y219600D02*
D03*
X-256000Y163636D02*
D03*
X-337400Y172521D02*
D03*
X-316400D02*
D03*
X-279086Y136263D02*
D03*
X-294300Y51000D02*
D03*
X-90200Y63100D02*
D03*
D97*
X47305Y45668D02*
D03*
X50258Y43700D02*
D03*
X47305Y41731D02*
D03*
X53211Y45668D02*
D03*
Y41731D02*
D03*
D98*
X0Y0D02*
D03*
Y215000D02*
D03*
X-272500D02*
D03*
Y0D02*
D03*
D99*
X-279239Y176900D02*
D03*
X-112461Y153690D02*
D03*
X-79276Y168690D02*
D03*
X-6300Y175080D02*
D03*
X-297743Y176900D02*
D03*
X-312424Y161900D02*
D03*
X44151Y193763D02*
D03*
X-136000Y140489D02*
D03*
X-79276Y158690D02*
D03*
X-74400Y188600D02*
D03*
X-297743Y156900D02*
D03*
X38049Y193763D02*
D03*
X-112461Y173690D02*
D03*
X-124400Y188278D02*
D03*
X-96700Y158900D02*
D03*
X-312424Y181900D02*
D03*
X-146500Y156200D02*
D03*
X-220300Y170868D02*
D03*
X-277100Y166345D02*
D03*
X-171700Y146200D02*
D03*
X-174193Y176300D02*
D03*
X-64100Y161600D02*
D03*
X78019Y180600D02*
D03*
X65200D02*
D03*
Y189600D02*
D03*
X78019Y189400D02*
D03*
X68927Y77700D02*
D03*
X61600Y40747D02*
D03*
X71600Y185300D02*
D03*
X-44280Y40321D02*
D03*
X-41710Y90190D02*
D03*
X-177208Y138600D02*
D03*
X-195580Y160800D02*
D03*
X-177076D02*
D03*
X-213100Y194016D02*
D03*
X-249200Y173000D02*
D03*
X-297743Y166900D02*
D03*
X-279239Y186900D02*
D03*
X-210261Y175800D02*
D03*
X-175900Y194200D02*
D03*
X-77690Y178690D02*
D03*
X-18300Y124351D02*
D03*
D100*
X61541Y31486D02*
D03*
X51136D02*
D03*
D101*
X-36689Y116417D02*
D03*
M02*
