%FSLAX25Y25*%
%MOIN*%
G70*
G01*
G75*
G04 Layer_Color=16711935*
G04:AMPARAMS|DCode=10|XSize=23.62mil|YSize=61.02mil|CornerRadius=5.91mil|HoleSize=0mil|Usage=FLASHONLY|Rotation=0.000|XOffset=0mil|YOffset=0mil|HoleType=Round|Shape=RoundedRectangle|*
%AMROUNDEDRECTD10*
21,1,0.02362,0.04921,0,0,0.0*
21,1,0.01181,0.06102,0,0,0.0*
1,1,0.01181,0.00591,-0.02461*
1,1,0.01181,-0.00591,-0.02461*
1,1,0.01181,-0.00591,0.02461*
1,1,0.01181,0.00591,0.02461*
%
%ADD10ROUNDEDRECTD10*%
%ADD11R,0.05906X0.09843*%
%ADD12O,0.07480X0.02362*%
%ADD13O,0.01378X0.07087*%
%ADD14R,0.09843X0.05906*%
G04:AMPARAMS|DCode=15|XSize=23.62mil|YSize=61.02mil|CornerRadius=5.91mil|HoleSize=0mil|Usage=FLASHONLY|Rotation=270.000|XOffset=0mil|YOffset=0mil|HoleType=Round|Shape=RoundedRectangle|*
%AMROUNDEDRECTD15*
21,1,0.02362,0.04921,0,0,270.0*
21,1,0.01181,0.06102,0,0,270.0*
1,1,0.01181,-0.02461,-0.00591*
1,1,0.01181,-0.02461,0.00591*
1,1,0.01181,0.02461,0.00591*
1,1,0.01181,0.02461,-0.00591*
%
%ADD15ROUNDEDRECTD15*%
%ADD16R,0.03937X0.05315*%
%ADD17R,0.04134X0.04331*%
%ADD18R,0.03150X0.01969*%
%ADD19R,0.01969X0.03150*%
%ADD20R,0.04724X0.05315*%
%ADD21R,0.05315X0.04724*%
%ADD22R,0.05709X0.04528*%
%ADD23R,0.04528X0.05709*%
%ADD24C,0.03937*%
%ADD25C,0.01500*%
%ADD26C,0.02000*%
%ADD27C,0.01300*%
%ADD28C,0.04000*%
%ADD29C,0.05000*%
%ADD30C,0.03000*%
%ADD31C,0.06500*%
%ADD32C,0.06000*%
%ADD33C,0.00100*%
%ADD34C,0.07874*%
%ADD35R,0.05906X0.05906*%
%ADD36C,0.05906*%
%ADD37C,0.11024*%
%ADD38C,0.15354*%
%ADD39C,0.06000*%
%ADD40C,0.11417*%
%ADD41R,0.05906X0.05906*%
%ADD42P,0.05966X8X112.5*%
%ADD43C,0.05512*%
%ADD44C,0.11811*%
%ADD45C,0.05000*%
%ADD46C,0.02284*%
%ADD47C,0.10236*%
%ADD48C,0.15700*%
%ADD49C,0.04000*%
%ADD50C,0.02000*%
%ADD51C,0.06200*%
%ADD52R,0.06693X0.12598*%
%ADD53R,0.09449X0.06496*%
%ADD54O,0.01102X0.03347*%
%ADD55R,0.03543X0.02559*%
%ADD56R,0.06102X0.05512*%
%ADD57R,0.04331X0.04134*%
%ADD58R,0.03937X0.02362*%
%ADD59C,0.04500*%
%ADD60C,0.01000*%
%ADD61C,0.02500*%
%ADD62C,0.07000*%
%ADD63C,0.03500*%
%ADD64C,0.05500*%
%ADD65R,0.02756X0.01102*%
%ADD66C,0.01575*%
%ADD67C,0.02362*%
%ADD68C,0.00787*%
%ADD69C,0.00800*%
G04:AMPARAMS|DCode=70|XSize=31.62mil|YSize=69.02mil|CornerRadius=9.91mil|HoleSize=0mil|Usage=FLASHONLY|Rotation=0.000|XOffset=0mil|YOffset=0mil|HoleType=Round|Shape=RoundedRectangle|*
%AMROUNDEDRECTD70*
21,1,0.03162,0.04921,0,0,0.0*
21,1,0.01181,0.06902,0,0,0.0*
1,1,0.01981,0.00591,-0.02461*
1,1,0.01981,-0.00591,-0.02461*
1,1,0.01981,-0.00591,0.02461*
1,1,0.01981,0.00591,0.02461*
%
%ADD70ROUNDEDRECTD70*%
%ADD71R,0.06706X0.10642*%
%ADD72O,0.08280X0.03162*%
%ADD73O,0.02178X0.07887*%
%ADD74R,0.10642X0.06706*%
G04:AMPARAMS|DCode=75|XSize=31.62mil|YSize=69.02mil|CornerRadius=9.91mil|HoleSize=0mil|Usage=FLASHONLY|Rotation=270.000|XOffset=0mil|YOffset=0mil|HoleType=Round|Shape=RoundedRectangle|*
%AMROUNDEDRECTD75*
21,1,0.03162,0.04921,0,0,270.0*
21,1,0.01181,0.06902,0,0,270.0*
1,1,0.01981,-0.02461,-0.00591*
1,1,0.01981,-0.02461,0.00591*
1,1,0.01981,0.02461,0.00591*
1,1,0.01981,0.02461,-0.00591*
%
%ADD75ROUNDEDRECTD75*%
%ADD76R,0.04737X0.06115*%
%ADD77R,0.04934X0.05131*%
%ADD78R,0.03950X0.02769*%
%ADD79R,0.02769X0.03950*%
%ADD80R,0.05524X0.06115*%
%ADD81R,0.06115X0.05524*%
%ADD82R,0.06509X0.05328*%
%ADD83R,0.05328X0.06509*%
%ADD84C,0.08674*%
%ADD85R,0.06706X0.06706*%
%ADD86C,0.06706*%
%ADD87C,0.11824*%
%ADD88C,0.16154*%
%ADD89C,0.06800*%
%ADD90C,0.12217*%
%ADD91R,0.06706X0.06706*%
%ADD92P,0.06832X8X112.5*%
%ADD93C,0.06312*%
%ADD94C,0.12611*%
%ADD95C,0.05800*%
%ADD96C,0.03084*%
%ADD97C,0.11036*%
%ADD98C,0.16500*%
%ADD99C,0.04800*%
%ADD100C,0.02800*%
%ADD101C,0.07000*%
%ADD102R,0.07493X0.13398*%
%ADD103R,0.10000X0.07047*%
%ADD104O,0.01654X0.03898*%
%ADD105R,0.04343X0.03359*%
%ADD106R,0.06902X0.06312*%
%ADD107R,0.05131X0.04934*%
%ADD108R,0.04737X0.03162*%
%ADD109R,0.03556X0.01902*%
D33*
X696300Y0D02*
Y260000D01*
X-0D02*
X696300D01*
X-0Y0D02*
X696300D01*
X-0D02*
Y260000D01*
D74*
X484150Y106100D02*
D03*
Y121700D02*
D03*
D75*
X500350Y116100D02*
D03*
Y111900D02*
D03*
D77*
X132750Y163350D02*
D03*
Y155476D02*
D03*
X273399Y115005D02*
D03*
Y107131D02*
D03*
X498008Y73337D02*
D03*
Y65463D02*
D03*
D80*
X474719Y207732D02*
D03*
X467435D02*
D03*
X501850Y46900D02*
D03*
X494567D02*
D03*
X443867Y53500D02*
D03*
X451150D02*
D03*
X485550Y46900D02*
D03*
X478267D02*
D03*
D81*
X168350Y169858D02*
D03*
Y177142D02*
D03*
X307482Y189248D02*
D03*
Y196531D02*
D03*
X166419Y194558D02*
D03*
Y201842D02*
D03*
X86850Y166292D02*
D03*
Y159009D02*
D03*
X485050Y209580D02*
D03*
Y216863D02*
D03*
X468109Y53842D02*
D03*
Y46558D02*
D03*
D82*
X185350Y177142D02*
D03*
Y169858D02*
D03*
X120390Y162709D02*
D03*
Y155426D02*
D03*
X262150Y106934D02*
D03*
Y114217D02*
D03*
X467035Y189500D02*
D03*
Y196783D02*
D03*
X495450Y188558D02*
D03*
Y195842D02*
D03*
X459709Y65916D02*
D03*
Y73200D02*
D03*
X468709Y73242D02*
D03*
Y65958D02*
D03*
D83*
X132392Y101323D02*
D03*
X125109D02*
D03*
X430492Y162513D02*
D03*
X423209D02*
D03*
X132392Y119960D02*
D03*
X125109D02*
D03*
X501950Y30700D02*
D03*
X494667D02*
D03*
D84*
X678750Y225800D02*
D03*
X688050D02*
D03*
X668950Y251607D02*
D03*
Y241800D02*
D03*
X688050Y201400D02*
D03*
X678750Y201463D02*
D03*
X668650Y173400D02*
D03*
Y183207D02*
D03*
X601550Y183107D02*
D03*
Y173300D02*
D03*
X611650Y201363D02*
D03*
X620950Y201300D02*
D03*
X601850Y241700D02*
D03*
Y251507D02*
D03*
X620950Y225700D02*
D03*
X611650D02*
D03*
D85*
X667350Y197500D02*
D03*
X600250Y197400D02*
D03*
X41850Y156100D02*
D03*
X329119Y125576D02*
D03*
D86*
X667350Y207576D02*
D03*
Y217652D02*
D03*
Y227727D02*
D03*
X600250Y227627D02*
D03*
Y217551D02*
D03*
Y207476D02*
D03*
X261821Y64100D02*
D03*
X251820Y74100D02*
D03*
Y64100D02*
D03*
X241821Y74100D02*
D03*
Y64100D02*
D03*
X649250Y7850D02*
D03*
X639250D02*
D03*
X629250D02*
D03*
X619250D02*
D03*
X599250D02*
D03*
X609250D02*
D03*
X41850Y196100D02*
D03*
Y186100D02*
D03*
Y176100D02*
D03*
Y166100D02*
D03*
X618050Y95650D02*
D03*
X319119Y125576D02*
D03*
X309119D02*
D03*
X299119D02*
D03*
X289119D02*
D03*
X279119D02*
D03*
X269119D02*
D03*
X259119D02*
D03*
X249119D02*
D03*
X239119D02*
D03*
X229119D02*
D03*
X219119D02*
D03*
X209119D02*
D03*
X199119D02*
D03*
X329119Y95576D02*
D03*
X319119D02*
D03*
X309119D02*
D03*
X299119D02*
D03*
X289119D02*
D03*
X279119D02*
D03*
X269119D02*
D03*
X259119D02*
D03*
X249119D02*
D03*
X239119D02*
D03*
X229119D02*
D03*
X219119D02*
D03*
X209119D02*
D03*
X199119D02*
D03*
X652650Y172400D02*
D03*
X647650Y177400D02*
D03*
X689310Y177370D02*
D03*
X684680Y172370D02*
D03*
Y253500D02*
D03*
X689310Y248870D02*
D03*
X651950Y253500D02*
D03*
X646950Y248870D02*
D03*
X579850Y248770D02*
D03*
X584850Y253400D02*
D03*
X622210Y248770D02*
D03*
X617580Y253400D02*
D03*
Y172270D02*
D03*
X622210Y177270D02*
D03*
X580550Y177300D02*
D03*
X585550Y172300D02*
D03*
D87*
X34750Y78700D02*
D03*
X19750D02*
D03*
D88*
X27250Y57700D02*
D03*
Y30700D02*
D03*
D89*
X674200Y111800D02*
D03*
X664200Y111600D02*
D03*
X674501Y27200D02*
D03*
X664501Y27000D02*
D03*
X575000Y27200D02*
D03*
X565000Y27000D02*
D03*
D90*
X12750Y146700D02*
D03*
Y165200D02*
D03*
Y183700D02*
D03*
Y202200D02*
D03*
D91*
X261821Y74100D02*
D03*
X589250Y7850D02*
D03*
X628050Y95650D02*
D03*
D92*
X150650Y101917D02*
D03*
D93*
Y121129D02*
D03*
D94*
X554801Y111800D02*
D03*
X584700Y111700D02*
D03*
D95*
X653050Y203400D02*
D03*
Y221900D02*
D03*
X646550Y203400D02*
D03*
Y221900D02*
D03*
X579450Y221800D02*
D03*
Y203300D02*
D03*
X585950Y221800D02*
D03*
Y203300D02*
D03*
X140182Y62668D02*
D03*
X511250Y30700D02*
D03*
X517050Y87300D02*
D03*
X273350Y42000D02*
D03*
X304250Y39128D02*
D03*
Y56763D02*
D03*
X80050Y124000D02*
D03*
X274350Y163350D02*
D03*
X270850Y220494D02*
D03*
Y242700D02*
D03*
X175250Y186736D02*
D03*
X93850Y195621D02*
D03*
X114850D02*
D03*
X152164Y159363D02*
D03*
X136950Y74100D02*
D03*
X341050Y86200D02*
D03*
D96*
X478556Y68768D02*
D03*
X481508Y66800D02*
D03*
X478556Y64831D02*
D03*
X484461Y68768D02*
D03*
Y64831D02*
D03*
D97*
X27250Y225200D02*
D03*
Y125200D02*
D03*
D98*
X431250Y23100D02*
D03*
Y238100D02*
D03*
X158750D02*
D03*
Y23100D02*
D03*
D99*
X152011Y200000D02*
D03*
X318790Y176790D02*
D03*
X351974Y191790D02*
D03*
X424950Y198179D02*
D03*
X133507Y200000D02*
D03*
X118827Y185000D02*
D03*
X475401Y216863D02*
D03*
X295250Y163589D02*
D03*
X351974Y181790D02*
D03*
X356850Y211700D02*
D03*
X133507Y180000D02*
D03*
X469299Y216863D02*
D03*
X318790Y196790D02*
D03*
X306850Y211378D02*
D03*
X334550Y182000D02*
D03*
X118827Y205000D02*
D03*
X284750Y179300D02*
D03*
X210950Y193968D02*
D03*
X154150Y189445D02*
D03*
X259550Y169300D02*
D03*
X257057Y199400D02*
D03*
X367150Y184700D02*
D03*
X509270Y203700D02*
D03*
X496450D02*
D03*
Y212700D02*
D03*
X509270Y212500D02*
D03*
X500177Y100800D02*
D03*
X492850Y63847D02*
D03*
X502850Y208400D02*
D03*
X386971Y63420D02*
D03*
X389540Y113290D02*
D03*
X254042Y161700D02*
D03*
X235670Y183900D02*
D03*
X254174D02*
D03*
X218150Y217116D02*
D03*
X182050Y196100D02*
D03*
X133507Y190000D02*
D03*
X152011Y210000D02*
D03*
X220990Y198900D02*
D03*
X255350Y217300D02*
D03*
X353561Y201790D02*
D03*
X412950Y147451D02*
D03*
D100*
X492791Y54586D02*
D03*
X482386D02*
D03*
D101*
X394561Y139517D02*
D03*
D102*
X446924Y147200D02*
D03*
X431176D02*
D03*
D103*
X481508Y66800D02*
D03*
D104*
X477571Y72607D02*
D03*
X479540D02*
D03*
X481508D02*
D03*
X483477D02*
D03*
X485445D02*
D03*
Y60993D02*
D03*
X483477D02*
D03*
X481508D02*
D03*
X479540D02*
D03*
X477571D02*
D03*
D105*
X484974Y196972D02*
D03*
Y193232D02*
D03*
Y189492D02*
D03*
X475526D02*
D03*
Y196972D02*
D03*
D106*
X497481Y85100D02*
D03*
X481536D02*
D03*
D107*
X447687Y133000D02*
D03*
X439813D02*
D03*
D108*
X102813Y158772D02*
D03*
Y166253D02*
D03*
X110687Y162513D02*
D03*
X176682Y201860D02*
D03*
Y209340D02*
D03*
X184556Y205600D02*
D03*
D109*
X475407Y67784D02*
D03*
X475407Y65816D02*
D03*
X487610Y65816D02*
D03*
X487610Y67784D02*
D03*
M02*
