%FSLAX25Y25*%
%MOIN*%
G70*
G01*
G75*
G04 Layer_Color=128*
G04:AMPARAMS|DCode=10|XSize=23.62mil|YSize=61.02mil|CornerRadius=5.91mil|HoleSize=0mil|Usage=FLASHONLY|Rotation=0.000|XOffset=0mil|YOffset=0mil|HoleType=Round|Shape=RoundedRectangle|*
%AMROUNDEDRECTD10*
21,1,0.02362,0.04921,0,0,0.0*
21,1,0.01181,0.06102,0,0,0.0*
1,1,0.01181,0.00591,-0.02461*
1,1,0.01181,-0.00591,-0.02461*
1,1,0.01181,-0.00591,0.02461*
1,1,0.01181,0.00591,0.02461*
%
%ADD10ROUNDEDRECTD10*%
%ADD11O,0.07480X0.02362*%
%ADD12O,0.01378X0.07087*%
G04:AMPARAMS|DCode=13|XSize=23.62mil|YSize=61.02mil|CornerRadius=5.91mil|HoleSize=0mil|Usage=FLASHONLY|Rotation=270.000|XOffset=0mil|YOffset=0mil|HoleType=Round|Shape=RoundedRectangle|*
%AMROUNDEDRECTD13*
21,1,0.02362,0.04921,0,0,270.0*
21,1,0.01181,0.06102,0,0,270.0*
1,1,0.01181,-0.02461,-0.00591*
1,1,0.01181,-0.02461,0.00591*
1,1,0.01181,0.02461,0.00591*
1,1,0.01181,0.02461,-0.00591*
%
%ADD13ROUNDEDRECTD13*%
%ADD14R,0.03937X0.05315*%
%ADD15R,0.04134X0.04331*%
%ADD16R,0.03150X0.01969*%
%ADD17R,0.01969X0.03150*%
%ADD18R,0.04724X0.05315*%
%ADD19R,0.05315X0.04724*%
%ADD20R,0.05709X0.04528*%
%ADD21R,0.04528X0.05709*%
%ADD22C,0.01969*%
%ADD23C,0.01500*%
%ADD24C,0.02000*%
%ADD25C,0.01300*%
%ADD26C,0.04000*%
%ADD27C,0.05000*%
%ADD28C,0.03000*%
%ADD29C,0.06500*%
%ADD30C,0.06000*%
%ADD31R,0.03500X0.07500*%
%ADD32R,0.04724X0.07087*%
%ADD33R,0.07500X0.03500*%
%ADD34R,0.05600X0.07700*%
%ADD35C,0.00100*%
%ADD36C,0.11417*%
%ADD37C,0.15354*%
%ADD38C,0.11024*%
%ADD39C,0.05906*%
%ADD40R,0.05906X0.05906*%
%ADD41C,0.06000*%
%ADD42R,0.05906X0.05906*%
%ADD43P,0.05966X8X112.5*%
%ADD44C,0.05512*%
%ADD45C,0.11811*%
%ADD46C,0.10236*%
%ADD47C,0.05000*%
%ADD48C,0.02284*%
%ADD49C,0.15700*%
%ADD50C,0.04000*%
%ADD51C,0.02000*%
%ADD52C,0.06200*%
%ADD53R,0.06693X0.12598*%
%ADD54R,0.09449X0.06496*%
%ADD55O,0.01102X0.03347*%
%ADD56R,0.03543X0.02559*%
%ADD57R,0.06102X0.05512*%
%ADD58R,0.04331X0.04134*%
%ADD59R,0.03937X0.02362*%
%ADD60C,0.04500*%
%ADD61C,0.01000*%
%ADD62C,0.02500*%
%ADD63C,0.07000*%
%ADD64C,0.03500*%
%ADD65C,0.05500*%
%ADD66R,0.07087X0.04724*%
%ADD67R,0.02756X0.01102*%
%ADD68C,0.01575*%
%ADD69C,0.02362*%
%ADD70C,0.03937*%
%ADD71C,0.00787*%
%ADD72C,0.00800*%
G04:AMPARAMS|DCode=73|XSize=31.62mil|YSize=69.02mil|CornerRadius=9.91mil|HoleSize=0mil|Usage=FLASHONLY|Rotation=0.000|XOffset=0mil|YOffset=0mil|HoleType=Round|Shape=RoundedRectangle|*
%AMROUNDEDRECTD73*
21,1,0.03162,0.04921,0,0,0.0*
21,1,0.01181,0.06902,0,0,0.0*
1,1,0.01981,0.00591,-0.02461*
1,1,0.01981,-0.00591,-0.02461*
1,1,0.01981,-0.00591,0.02461*
1,1,0.01981,0.00591,0.02461*
%
%ADD73ROUNDEDRECTD73*%
%ADD74O,0.08280X0.03162*%
%ADD75O,0.02178X0.07887*%
G04:AMPARAMS|DCode=76|XSize=31.62mil|YSize=69.02mil|CornerRadius=9.91mil|HoleSize=0mil|Usage=FLASHONLY|Rotation=270.000|XOffset=0mil|YOffset=0mil|HoleType=Round|Shape=RoundedRectangle|*
%AMROUNDEDRECTD76*
21,1,0.03162,0.04921,0,0,270.0*
21,1,0.01181,0.06902,0,0,270.0*
1,1,0.01981,-0.02461,-0.00591*
1,1,0.01981,-0.02461,0.00591*
1,1,0.01981,0.02461,0.00591*
1,1,0.01981,0.02461,-0.00591*
%
%ADD76ROUNDEDRECTD76*%
%ADD77R,0.04737X0.06115*%
%ADD78R,0.04934X0.05131*%
%ADD79R,0.03950X0.02769*%
%ADD80R,0.02769X0.03950*%
%ADD81R,0.05524X0.06115*%
%ADD82R,0.06115X0.05524*%
%ADD83R,0.06509X0.05328*%
%ADD84R,0.05328X0.06509*%
%ADD85C,0.12217*%
%ADD86C,0.16154*%
%ADD87C,0.11824*%
%ADD88C,0.06706*%
%ADD89R,0.06706X0.06706*%
%ADD90C,0.06800*%
%ADD91R,0.06706X0.06706*%
%ADD92P,0.06832X8X112.5*%
%ADD93C,0.06312*%
%ADD94C,0.12611*%
%ADD95C,0.11036*%
%ADD96C,0.05800*%
%ADD97C,0.03084*%
%ADD98C,0.16500*%
%ADD99C,0.04800*%
%ADD100C,0.02800*%
%ADD101C,0.07000*%
%ADD102R,0.07493X0.13398*%
%ADD103R,0.10000X0.07047*%
%ADD104O,0.01654X0.03898*%
%ADD105R,0.04343X0.03359*%
%ADD106R,0.06902X0.06312*%
%ADD107R,0.05131X0.04934*%
%ADD108R,0.04737X0.03162*%
%ADD109R,0.03556X0.01902*%
%ADD110R,0.04134X0.02677*%
%ADD111R,0.01969X0.01024*%
%ADD112O,0.00906X0.03150*%
D13*
X69100Y88800D02*
D03*
Y93000D02*
D03*
D15*
X-298500Y132376D02*
D03*
Y140250D02*
D03*
X-157851Y84031D02*
D03*
Y91905D02*
D03*
X66758Y42363D02*
D03*
Y50237D02*
D03*
D18*
X43468Y184632D02*
D03*
X36185D02*
D03*
X70600Y23800D02*
D03*
X63317D02*
D03*
X12617Y30400D02*
D03*
X19900D02*
D03*
X54300Y23800D02*
D03*
X47017D02*
D03*
D19*
X-262900Y146758D02*
D03*
Y154042D02*
D03*
X-123768Y166148D02*
D03*
Y173432D02*
D03*
X-264831Y171458D02*
D03*
Y178742D02*
D03*
X-344400Y143192D02*
D03*
Y135909D02*
D03*
X53800Y186480D02*
D03*
Y193763D02*
D03*
X36858Y30742D02*
D03*
Y23458D02*
D03*
D20*
X-245900Y154042D02*
D03*
Y146758D02*
D03*
X-310860Y139609D02*
D03*
Y132326D02*
D03*
X-169100Y83834D02*
D03*
Y91117D02*
D03*
X35785Y166400D02*
D03*
Y173684D02*
D03*
X64200Y165458D02*
D03*
Y172742D02*
D03*
X28458Y42816D02*
D03*
Y50100D02*
D03*
X37458Y50142D02*
D03*
Y42858D02*
D03*
D21*
X-298858Y78223D02*
D03*
X-306142D02*
D03*
X-758Y139413D02*
D03*
X-8042D02*
D03*
X-298858Y96860D02*
D03*
X-306142D02*
D03*
X70700Y7600D02*
D03*
X63416D02*
D03*
D35*
X260400Y-22500D02*
Y237500D01*
X-426250Y-22500D02*
X260400D01*
X-426250D02*
Y237500D01*
X260400D01*
D53*
X15674Y124100D02*
D03*
X-74D02*
D03*
D56*
X44275Y173872D02*
D03*
Y166392D02*
D03*
X53724D02*
D03*
Y170132D02*
D03*
Y173872D02*
D03*
D57*
X50286Y62000D02*
D03*
X66231D02*
D03*
D58*
X8563Y109900D02*
D03*
X16437D02*
D03*
D59*
X-328437Y135672D02*
D03*
Y143153D02*
D03*
X-320563Y139413D02*
D03*
X-254569Y178760D02*
D03*
Y186240D02*
D03*
X-246694Y182500D02*
D03*
D110*
X47759Y45471D02*
D03*
X47759Y41928D02*
D03*
X52758Y41928D02*
D03*
X52758Y45471D02*
D03*
D111*
X43841Y44684D02*
D03*
Y42716D02*
D03*
X56675Y42716D02*
D03*
Y44684D02*
D03*
D112*
X46321Y49507D02*
D03*
X48290D02*
D03*
X50258D02*
D03*
X52227D02*
D03*
X54195D02*
D03*
Y37893D02*
D03*
X52227D02*
D03*
X50258D02*
D03*
X48290D02*
D03*
X46321D02*
D03*
M02*
