M48
;Layer_Color=9474304
;FILE_FORMAT=2:5
INCH,LZ
;TYPE=PLATED
T1F00S00C0.01496
T2F00S00C0.01500
T3F00S00C0.02000
T4F00S00C0.02800
T5F00S00C0.03000
T6F00S00C0.03150
T7F00S00C0.03200
T8F00S00C0.03543
T9F00S00C0.05118
T10F00S00C0.05906
T11F00S00C0.08661
T12F00S00C0.09449
T13F00S00C0.09843
T14F00S00C0.12598
T15F00S00C0.15700
;TYPE=NON_PLATED
T16F00S00C0.09055
%
T01
X0478556Y0064831
Y0068768
X0481508Y00668
X0484461Y0068768
Y0064831
T02
X0482386Y0054586
X0492791
T03
X0254042Y01617
X029525Y0163589
X041295Y0147451
X038954Y011329
X0386971Y006342
X0475401Y0216863
X049645Y02127
Y02037
X050285Y02084
X050927Y02125
Y02037
X0469299Y0216863
X042495Y0198179
X036715Y01847
X0351974Y018179
Y019179
X0353561Y020179
X035685Y02117
X033455Y0182
X031879Y017679
Y019679
X030685Y0211378
X028475Y01793
X0254174Y01839
X0257057Y01994
X025535Y02173
X021815Y0217116
X022099Y01989
X021095Y0193968
X018205Y01961
X023567Y01839
X025955Y01693
X015415Y0189445
X0152011Y02
Y021
X0133507Y02
Y019
Y018
X0118827Y0185
Y0205
T04
X0140182Y0062668
X013695Y00741
X0152164Y0159363
X008005Y0124
X027435Y016335
X027335Y0042
X030425Y0039128
Y0056763
X034105Y00862
X0500177Y01008
X051705Y00873
X049285Y0063847
X051125Y00307
X064655Y02034
X065305
Y02219
X064655
X058595Y02218
X057945
Y02033
X058595
X027085Y0220494
Y02427
X017525Y0186736
X011485Y0195621
X009385
T05
X0565Y0027
X0575Y00272
X0664501Y0027
X0674501Y00272
X06742Y01118
X06642Y01116
T06
X015065Y0101917
Y0121129
T07
X0394561Y0139517
T08
X063925Y000785
X064925
X062925
X061925
X060925
X059925
X058925
X004185Y01561
Y01661
X0199119Y0125576
X0209119
X0219119
X0229119
X0239119
X0249119
X0259119
X0269119
X0279119
X0289119
X0299119
X0309119
Y0095576
X0299119
X0289119
X0279119
X0269119
X0259119
X0249119
X0239119
X0229119
X0219119
X0209119
X0199119
X0241821Y00741
X025182
X0261821
Y00641
X025182
X0241821
X0319119Y0095576
X0329119
Y0125576
X0319119
X061805Y009565
X062805
X066735Y01975
Y0207576
Y0217652
Y0227727
X060025Y0227627
Y0217551
Y0207476
Y01974
X004185Y01961
Y01861
Y01761
T09
X065265Y01724
X064765Y01774
X068931Y017737
X068468Y017237
X068931Y024887
X068468Y02535
X065195
X064695Y024887
X062221Y024877
X061758Y02534
X058485
X057985Y024877
X058055Y01773
X058555Y01723
X061758Y017227
X062221Y017727
T10
X066865Y01734
Y0183207
X067875Y0201463
X068805Y02014
Y02258
X067875
X066895Y02418
Y0251607
X060185Y0251507
Y02417
X061165Y02257
X062095
Y02013
X061165Y0201363
X060155Y0183107
Y01733
T11
X001975Y00787
X003475
T12
X002725Y01252
Y02252
T13
X0554801Y01118
X05847Y01117
T14
X002725Y00307
Y00577
T15
X015875Y00231
X043125
Y02381
X015875
T16
X001275Y01467
Y01652
Y01837
Y02022
M30
