M48
;Layer_Color=9474304
;FILE_FORMAT=2:5
INCH,LZ
;TYPE=PLATED
T1F00S00C0.01496
T2F00S00C0.01500
T3F00S00C0.02000
T4F00S00C0.02800
T5F00S00C0.03000
T6F00S00C0.03150
T7F00S00C0.03200
T8F00S00C0.03543
T9F00S00C0.03937
T10F00S00C0.08661
T11F00S00C0.09449
T12F00S00C0.09843
T13F00S00C0.12598
T14F00S00C0.15700
;TYPE=NON_PLATED
T15F00S00C0.09055
%
T01
X0047305Y0041731
Y0045668
X0050258Y00437
X0053211Y0045668
Y0041731
T02
X0051136Y0031486
X0061541
T03
X-0177208Y01386
X-01717Y01462
X-0136Y0140489
X-00183Y0124351
X-004171Y009019
X-004428Y0040321
X00652Y01806
Y01896
X00716Y01853
X0078019Y01894
Y01806
X0044151Y0193763
X0038049
X-00063Y017508
X-00641Y01616
X-0079276Y015869
Y016869
X-007769Y017869
X-00744Y01886
X-00967Y01589
X-0112461Y015369
Y017369
X-01244Y0188278
X-01465Y01562
X-0177076Y01608
X-0174193Y01763
X-01759Y01942
X-02131Y0194016
X-0210261Y01758
X-02203Y0170868
X-02492Y0173
X-019558Y01608
X-02771Y0166345
X-0279239Y01769
Y01869
X-0297743Y01769
Y01669
Y01569
X-0312424Y01619
Y01819
T04
X-0291068Y0039568
X-02943Y0051
X-0279086Y0136263
X-03512Y01009
X-01569Y014025
X-01579Y00189
X-0127Y0016028
Y0033663
X-00902Y00631
X0068927Y00777
X00858Y00642
X00616Y0040747
X008Y00076
X02239Y018971
X02304
Y020821
X02239
X018667Y0208
X018017
Y01895
X018667
X014247
X013597
Y0208
X014247
X-01604Y0197394
Y02196
X-0256Y0163636
X-03164Y0172521
X-03374
T05
X012795Y0005492
X013795Y0005692
X022745Y0005492
X023745Y0005692
X023715Y0090292
X022715Y0090092
X02404Y016321
Y017071
X02479Y0188877
X02554Y0188814
Y0208647
X02479
X024025Y022371
Y023195
X021167Y0208437
Y0188603
X020417Y0188667
Y0208437
X019652Y02235
Y023174
X015232
Y02235
X015997Y0208437
X016747
Y0188603
X015997Y0188667
X015247Y01705
Y0163
X019667
Y01705
T06
X-02806Y0078816
Y0098029
T07
X-0036689Y0116417
T08
X02122Y-0013658
X02022
X01922
X01822
X01722
X01622
X01522
X-03844Y01336
Y01436
X-0232132Y0102476
X-0222131
X-0212132
X-0202132
X-0192131
X-0182132
X-0172132
X-0162132
X-0152131
X-0142131
X-0132132
X-0122132
X-0112132
Y0072476
X-0122132
X-0132132
X-0142131
X-0152131
X-0162132
X-0172132
X-0182132
X-0192131
X-0202132
X-0212132
X-0222131
X-0232132
X-018943Y0051
X-017943
X-016943
Y0041
X-017943
X-018943
X-0102131Y0072476
Y0102476
X02389Y0182803
Y0192623
Y0202443
Y0212263
X019517Y0212053
Y0202233
Y0192413
Y0182593
X015097
Y0192413
Y0202233
Y0212053
X-03844Y01736
Y01636
Y01536
T09
X02068Y016287
X021143Y016787
X02249Y016808
X02299Y016308
X025053
X025516Y016808
Y022758
X025053Y023258
X02299Y023221
X02249Y022758
X021143Y022737
X02068Y023237
X018617Y0232
X018117Y022737
X016723Y022737
X01626Y023237
X014197Y0232
X013697Y022737
Y016787
X014197Y016287
X01626
X016723Y016787
X018117
X018617Y016287
T10
X-04065Y00562
X-03915
T11
X-0399Y01027
Y02027
T12
X011775Y0090292
X014765Y0090192
T13
X-0399Y00082
Y00352
T14
X-02725Y0
X0
Y0215
X-02725
T15
X-04135Y01242
Y01427
Y01612
Y01797
M30
