%FSLAX25Y25*%
%MOIN*%
G70*
G01*
G75*
G04 Layer_Color=32896*
G04:AMPARAMS|DCode=10|XSize=23.62mil|YSize=61.02mil|CornerRadius=5.91mil|HoleSize=0mil|Usage=FLASHONLY|Rotation=0.000|XOffset=0mil|YOffset=0mil|HoleType=Round|Shape=RoundedRectangle|*
%AMROUNDEDRECTD10*
21,1,0.02362,0.04921,0,0,0.0*
21,1,0.01181,0.06102,0,0,0.0*
1,1,0.01181,0.00591,-0.02461*
1,1,0.01181,-0.00591,-0.02461*
1,1,0.01181,-0.00591,0.02461*
1,1,0.01181,0.00591,0.02461*
%
%ADD10ROUNDEDRECTD10*%
%ADD11O,0.07480X0.02362*%
%ADD12O,0.01378X0.07087*%
G04:AMPARAMS|DCode=13|XSize=23.62mil|YSize=61.02mil|CornerRadius=5.91mil|HoleSize=0mil|Usage=FLASHONLY|Rotation=270.000|XOffset=0mil|YOffset=0mil|HoleType=Round|Shape=RoundedRectangle|*
%AMROUNDEDRECTD13*
21,1,0.02362,0.04921,0,0,270.0*
21,1,0.01181,0.06102,0,0,270.0*
1,1,0.01181,-0.02461,-0.00591*
1,1,0.01181,-0.02461,0.00591*
1,1,0.01181,0.02461,0.00591*
1,1,0.01181,0.02461,-0.00591*
%
%ADD13ROUNDEDRECTD13*%
%ADD14R,0.03937X0.05315*%
%ADD15R,0.04134X0.04331*%
%ADD16R,0.03150X0.01969*%
%ADD17R,0.01969X0.03150*%
%ADD18R,0.04724X0.05315*%
%ADD19R,0.05315X0.04724*%
%ADD20R,0.05709X0.04528*%
%ADD21R,0.04528X0.05709*%
%ADD22C,0.01969*%
%ADD23C,0.01500*%
%ADD24C,0.02000*%
%ADD25C,0.01300*%
%ADD26C,0.04000*%
%ADD27C,0.05000*%
%ADD28C,0.03000*%
%ADD29C,0.06500*%
%ADD30C,0.06000*%
%ADD31R,0.03500X0.07500*%
%ADD32R,0.04724X0.07087*%
%ADD33R,0.07500X0.03500*%
%ADD34R,0.05600X0.07700*%
%ADD35C,0.00100*%
%ADD36C,0.11417*%
%ADD37C,0.15354*%
%ADD38C,0.11024*%
%ADD39C,0.05906*%
%ADD40R,0.05906X0.05906*%
%ADD41C,0.06000*%
%ADD42R,0.05906X0.05906*%
%ADD43P,0.05966X8X112.5*%
%ADD44C,0.05512*%
%ADD45C,0.11811*%
%ADD46C,0.10236*%
%ADD47C,0.05000*%
%ADD48C,0.02284*%
%ADD49C,0.15700*%
%ADD50C,0.04000*%
%ADD51C,0.02000*%
%ADD52C,0.06200*%
%ADD53R,0.06693X0.12598*%
%ADD54R,0.09449X0.06496*%
%ADD55O,0.01102X0.03347*%
%ADD56R,0.03543X0.02559*%
%ADD57R,0.06102X0.05512*%
%ADD58R,0.04331X0.04134*%
%ADD59R,0.03937X0.02362*%
%ADD60C,0.04500*%
%ADD61C,0.01000*%
%ADD62C,0.02500*%
%ADD63C,0.07000*%
%ADD64C,0.03500*%
%ADD65C,0.05500*%
%ADD66R,0.07087X0.04724*%
%ADD67R,0.02756X0.01102*%
%ADD68C,0.01575*%
%ADD69C,0.02362*%
%ADD70C,0.03937*%
%ADD71C,0.00787*%
%ADD72C,0.00800*%
G04:AMPARAMS|DCode=73|XSize=31.62mil|YSize=69.02mil|CornerRadius=9.91mil|HoleSize=0mil|Usage=FLASHONLY|Rotation=0.000|XOffset=0mil|YOffset=0mil|HoleType=Round|Shape=RoundedRectangle|*
%AMROUNDEDRECTD73*
21,1,0.03162,0.04921,0,0,0.0*
21,1,0.01181,0.06902,0,0,0.0*
1,1,0.01981,0.00591,-0.02461*
1,1,0.01981,-0.00591,-0.02461*
1,1,0.01981,-0.00591,0.02461*
1,1,0.01981,0.00591,0.02461*
%
%ADD73ROUNDEDRECTD73*%
%ADD74O,0.08280X0.03162*%
%ADD75O,0.02178X0.07887*%
G04:AMPARAMS|DCode=76|XSize=31.62mil|YSize=69.02mil|CornerRadius=9.91mil|HoleSize=0mil|Usage=FLASHONLY|Rotation=270.000|XOffset=0mil|YOffset=0mil|HoleType=Round|Shape=RoundedRectangle|*
%AMROUNDEDRECTD76*
21,1,0.03162,0.04921,0,0,270.0*
21,1,0.01181,0.06902,0,0,270.0*
1,1,0.01981,-0.02461,-0.00591*
1,1,0.01981,-0.02461,0.00591*
1,1,0.01981,0.02461,0.00591*
1,1,0.01981,0.02461,-0.00591*
%
%ADD76ROUNDEDRECTD76*%
%ADD77R,0.04737X0.06115*%
%ADD78R,0.04934X0.05131*%
%ADD79R,0.03950X0.02769*%
%ADD80R,0.02769X0.03950*%
%ADD81R,0.05524X0.06115*%
%ADD82R,0.06115X0.05524*%
%ADD83R,0.06509X0.05328*%
%ADD84R,0.05328X0.06509*%
%ADD85C,0.12217*%
%ADD86C,0.16154*%
%ADD87C,0.11824*%
%ADD88C,0.06706*%
%ADD89R,0.06706X0.06706*%
%ADD90C,0.06800*%
%ADD91R,0.06706X0.06706*%
%ADD92P,0.06832X8X112.5*%
%ADD93C,0.06312*%
%ADD94C,0.12611*%
%ADD95C,0.11036*%
%ADD96C,0.05800*%
%ADD97C,0.03084*%
%ADD98C,0.16500*%
%ADD99C,0.04800*%
%ADD100C,0.02800*%
%ADD101C,0.07000*%
%ADD102R,0.07493X0.13398*%
%ADD103R,0.10000X0.07047*%
%ADD104O,0.01654X0.03898*%
%ADD105R,0.04343X0.03359*%
%ADD106R,0.06902X0.06312*%
%ADD107R,0.05131X0.04934*%
%ADD108R,0.04737X0.03162*%
%ADD109R,0.03556X0.01902*%
%ADD110R,0.04134X0.02677*%
%ADD111R,0.01969X0.01024*%
%ADD112O,0.00906X0.03150*%
G36*
X191969Y3094D02*
X192016D01*
X192121Y3088D01*
X192238Y3077D01*
X192373Y3053D01*
X192507Y3030D01*
X192636Y2995D01*
X192642D01*
X192653Y2989D01*
X192671Y2983D01*
X192694Y2977D01*
X192753Y2954D01*
X192835Y2925D01*
X192922Y2890D01*
X193016Y2843D01*
X193110Y2790D01*
X193198Y2732D01*
X193209Y2726D01*
X193233Y2702D01*
X193273Y2673D01*
X193326Y2626D01*
X193379Y2580D01*
X193437Y2515D01*
X193496Y2451D01*
X193549Y2381D01*
X193554Y2375D01*
X193566Y2346D01*
X193589Y2305D01*
X193619Y2252D01*
X193648Y2188D01*
X193677Y2112D01*
X193706Y2024D01*
X193736Y1924D01*
Y1913D01*
X193747Y1878D01*
X193753Y1825D01*
X193765Y1749D01*
X193777Y1661D01*
X193788Y1556D01*
X193794Y1439D01*
X193800Y1310D01*
Y-71D01*
X189956D01*
Y1246D01*
Y1252D01*
Y1263D01*
Y1287D01*
Y1322D01*
Y1357D01*
Y1404D01*
X189962Y1503D01*
X189968Y1609D01*
X189980Y1726D01*
X189997Y1837D01*
X190015Y1930D01*
Y1936D01*
X190021Y1948D01*
Y1960D01*
X190033Y1983D01*
X190050Y2047D01*
X190079Y2123D01*
X190114Y2211D01*
X190161Y2305D01*
X190220Y2398D01*
X190290Y2492D01*
Y2498D01*
X190302Y2503D01*
X190337Y2544D01*
X190395Y2597D01*
X190471Y2661D01*
X190565Y2737D01*
X190676Y2814D01*
X190805Y2884D01*
X190951Y2948D01*
X190957D01*
X190969Y2954D01*
X190992Y2960D01*
X191021Y2971D01*
X191056Y2983D01*
X191103Y2995D01*
X191156Y3012D01*
X191214Y3024D01*
X191279Y3036D01*
X191349Y3053D01*
X191501Y3077D01*
X191671Y3094D01*
X191858Y3100D01*
X191934D01*
X191969Y3094D01*
D02*
G37*
G36*
X192747Y6119D02*
X192794Y6113D01*
X192841Y6107D01*
X192899Y6095D01*
X192958Y6078D01*
X193092Y6037D01*
X193168Y6008D01*
X193238Y5967D01*
X193309Y5926D01*
X193379Y5879D01*
X193449Y5821D01*
X193519Y5756D01*
X193525Y5750D01*
X193537Y5739D01*
X193549Y5721D01*
X193572Y5692D01*
X193601Y5657D01*
X193630Y5610D01*
X193660Y5557D01*
X193689Y5505D01*
X193724Y5440D01*
X193753Y5370D01*
X193782Y5294D01*
X193812Y5212D01*
X193835Y5124D01*
X193847Y5031D01*
X193859Y4931D01*
X193864Y4832D01*
Y4826D01*
Y4808D01*
Y4785D01*
X193859Y4750D01*
X193853Y4703D01*
X193847Y4656D01*
X193841Y4598D01*
X193829Y4539D01*
X193794Y4405D01*
X193736Y4264D01*
X193706Y4194D01*
X193666Y4130D01*
X193619Y4060D01*
X193566Y3995D01*
X193560Y3989D01*
X193554Y3984D01*
X193537Y3966D01*
X193513Y3943D01*
X193478Y3919D01*
X193443Y3890D01*
X193402Y3855D01*
X193355Y3826D01*
X193238Y3755D01*
X193104Y3697D01*
X192952Y3644D01*
X192870Y3627D01*
X192782Y3615D01*
X192718Y4089D01*
X192724D01*
X192735Y4095D01*
X192759D01*
X192782Y4106D01*
X192852Y4124D01*
X192940Y4153D01*
X193034Y4188D01*
X193133Y4235D01*
X193221Y4294D01*
X193297Y4358D01*
X193303Y4370D01*
X193326Y4393D01*
X193350Y4434D01*
X193385Y4493D01*
X193414Y4557D01*
X193443Y4639D01*
X193467Y4732D01*
X193472Y4832D01*
Y4838D01*
Y4849D01*
Y4867D01*
X193467Y4890D01*
X193461Y4949D01*
X193443Y5025D01*
X193414Y5119D01*
X193379Y5212D01*
X193320Y5306D01*
X193244Y5393D01*
X193233Y5405D01*
X193203Y5429D01*
X193157Y5464D01*
X193086Y5510D01*
X193004Y5551D01*
X192905Y5587D01*
X192794Y5610D01*
X192671Y5622D01*
X192642D01*
X192618Y5616D01*
X192560Y5610D01*
X192484Y5592D01*
X192402Y5569D01*
X192308Y5528D01*
X192220Y5475D01*
X192139Y5405D01*
X192127Y5393D01*
X192104Y5370D01*
X192074Y5323D01*
X192033Y5259D01*
X191992Y5183D01*
X191963Y5089D01*
X191940Y4990D01*
X191928Y4873D01*
Y4867D01*
Y4849D01*
Y4820D01*
X191934Y4779D01*
X191940Y4732D01*
X191946Y4674D01*
X191957Y4609D01*
X191975Y4539D01*
X191559Y4592D01*
Y4598D01*
Y4621D01*
X191565Y4645D01*
Y4668D01*
Y4674D01*
Y4680D01*
Y4697D01*
Y4721D01*
X191559Y4773D01*
X191548Y4849D01*
X191530Y4931D01*
X191501Y5019D01*
X191466Y5113D01*
X191413Y5206D01*
X191407Y5218D01*
X191384Y5247D01*
X191343Y5282D01*
X191290Y5329D01*
X191226Y5376D01*
X191144Y5411D01*
X191045Y5440D01*
X190928Y5452D01*
X190887D01*
X190840Y5440D01*
X190776Y5429D01*
X190711Y5411D01*
X190641Y5376D01*
X190565Y5335D01*
X190501Y5276D01*
X190495Y5271D01*
X190471Y5247D01*
X190442Y5206D01*
X190413Y5154D01*
X190378Y5089D01*
X190354Y5013D01*
X190331Y4925D01*
X190325Y4826D01*
Y4820D01*
Y4814D01*
Y4779D01*
X190337Y4727D01*
X190348Y4668D01*
X190366Y4592D01*
X190401Y4516D01*
X190442Y4440D01*
X190501Y4364D01*
X190506Y4358D01*
X190530Y4335D01*
X190571Y4305D01*
X190629Y4270D01*
X190700Y4229D01*
X190787Y4194D01*
X190893Y4159D01*
X191015Y4136D01*
X190934Y3662D01*
X190928D01*
X190910Y3668D01*
X190887Y3673D01*
X190857Y3679D01*
X190816Y3691D01*
X190770Y3703D01*
X190664Y3744D01*
X190547Y3791D01*
X190425Y3861D01*
X190307Y3943D01*
X190202Y4048D01*
X190196Y4054D01*
X190191Y4060D01*
X190179Y4077D01*
X190161Y4106D01*
X190144Y4136D01*
X190120Y4171D01*
X190068Y4259D01*
X190021Y4370D01*
X189980Y4504D01*
X189951Y4651D01*
X189939Y4732D01*
Y4814D01*
Y4820D01*
Y4826D01*
Y4843D01*
Y4867D01*
X189945Y4925D01*
X189956Y5001D01*
X189974Y5089D01*
X189997Y5189D01*
X190033Y5288D01*
X190079Y5388D01*
Y5393D01*
X190085Y5399D01*
X190103Y5434D01*
X190132Y5481D01*
X190173Y5540D01*
X190226Y5604D01*
X190290Y5674D01*
X190366Y5739D01*
X190448Y5797D01*
X190460Y5803D01*
X190489Y5821D01*
X190536Y5844D01*
X190594Y5867D01*
X190670Y5891D01*
X190752Y5914D01*
X190840Y5932D01*
X190939Y5937D01*
X190980D01*
X191027Y5932D01*
X191086Y5920D01*
X191156Y5902D01*
X191232Y5879D01*
X191314Y5850D01*
X191390Y5803D01*
X191402Y5797D01*
X191425Y5779D01*
X191460Y5744D01*
X191507Y5703D01*
X191559Y5645D01*
X191612Y5581D01*
X191671Y5499D01*
X191717Y5405D01*
Y5411D01*
X191723Y5423D01*
Y5440D01*
X191735Y5464D01*
X191753Y5522D01*
X191788Y5598D01*
X191829Y5680D01*
X191887Y5768D01*
X191957Y5856D01*
X192045Y5932D01*
X192057Y5937D01*
X192092Y5961D01*
X192145Y5990D01*
X192215Y6031D01*
X192302Y6066D01*
X192408Y6095D01*
X192531Y6119D01*
X192665Y6125D01*
X192712D01*
X192747Y6119D01*
D02*
G37*
G36*
X193800Y-6658D02*
X189956D01*
Y-6149D01*
X193350D01*
Y-4259D01*
X193800D01*
Y-6658D01*
D02*
G37*
G36*
Y-3639D02*
X189956D01*
Y-860D01*
X190407D01*
Y-3130D01*
X191589D01*
Y-1006D01*
X192039D01*
Y-3130D01*
X193350D01*
Y-772D01*
X193800D01*
Y-3639D01*
D02*
G37*
G36*
X184000Y-6658D02*
X180157D01*
Y-6149D01*
X183549D01*
Y-4259D01*
X184000D01*
Y-6658D01*
D02*
G37*
G36*
Y3545D02*
X183936D01*
X183895Y3551D01*
X183848Y3557D01*
X183795Y3562D01*
X183737Y3580D01*
X183678Y3598D01*
X183672D01*
X183667Y3603D01*
X183631Y3615D01*
X183585Y3638D01*
X183514Y3673D01*
X183438Y3714D01*
X183351Y3773D01*
X183263Y3831D01*
X183169Y3907D01*
X183163D01*
X183158Y3919D01*
X183123Y3949D01*
X183070Y3995D01*
X183000Y4065D01*
X182918Y4153D01*
X182818Y4259D01*
X182707Y4387D01*
X182584Y4528D01*
X182578Y4533D01*
X182561Y4557D01*
X182537Y4586D01*
X182497Y4627D01*
X182456Y4680D01*
X182403Y4738D01*
X182292Y4867D01*
X182157Y5007D01*
X182023Y5148D01*
X181958Y5218D01*
X181894Y5276D01*
X181830Y5329D01*
X181771Y5376D01*
X181765D01*
X181759Y5388D01*
X181742Y5399D01*
X181719Y5411D01*
X181660Y5446D01*
X181584Y5487D01*
X181496Y5528D01*
X181403Y5563D01*
X181297Y5587D01*
X181198Y5598D01*
X181186D01*
X181151Y5592D01*
X181098Y5587D01*
X181034Y5575D01*
X180958Y5545D01*
X180882Y5510D01*
X180800Y5464D01*
X180724Y5393D01*
X180718Y5382D01*
X180695Y5358D01*
X180666Y5311D01*
X180624Y5253D01*
X180589Y5177D01*
X180560Y5089D01*
X180537Y4984D01*
X180531Y4867D01*
Y4861D01*
Y4849D01*
Y4832D01*
X180537Y4808D01*
X180543Y4750D01*
X180554Y4674D01*
X180584Y4586D01*
X180619Y4493D01*
X180671Y4405D01*
X180742Y4323D01*
X180753Y4317D01*
X180777Y4294D01*
X180824Y4259D01*
X180888Y4223D01*
X180970Y4183D01*
X181063Y4153D01*
X181175Y4130D01*
X181303Y4118D01*
X181251Y3633D01*
X181227D01*
X181198Y3638D01*
X181163Y3644D01*
X181116Y3656D01*
X181063Y3662D01*
X180946Y3697D01*
X180812Y3744D01*
X180677Y3808D01*
X180543Y3896D01*
X180484Y3943D01*
X180426Y4001D01*
X180420Y4007D01*
X180414Y4019D01*
X180396Y4036D01*
X180379Y4060D01*
X180361Y4095D01*
X180332Y4136D01*
X180309Y4183D01*
X180279Y4235D01*
X180256Y4294D01*
X180227Y4358D01*
X180203Y4434D01*
X180186Y4510D01*
X180151Y4686D01*
X180145Y4779D01*
X180139Y4879D01*
Y4885D01*
Y4902D01*
Y4931D01*
X180145Y4972D01*
X180151Y5019D01*
X180157Y5072D01*
X180162Y5130D01*
X180180Y5195D01*
X180215Y5335D01*
X180268Y5481D01*
X180303Y5557D01*
X180344Y5627D01*
X180396Y5692D01*
X180449Y5756D01*
X180455Y5762D01*
X180461Y5768D01*
X180478Y5785D01*
X180502Y5809D01*
X180537Y5832D01*
X180572Y5861D01*
X180660Y5920D01*
X180771Y5978D01*
X180900Y6031D01*
X181046Y6072D01*
X181128Y6078D01*
X181210Y6084D01*
X181251D01*
X181297Y6078D01*
X181356Y6072D01*
X181426Y6060D01*
X181502Y6043D01*
X181584Y6019D01*
X181666Y5984D01*
X181677Y5978D01*
X181707Y5967D01*
X181748Y5943D01*
X181806Y5908D01*
X181876Y5867D01*
X181958Y5815D01*
X182040Y5744D01*
X182134Y5668D01*
X182146Y5657D01*
X182181Y5627D01*
X182233Y5575D01*
X182268Y5540D01*
X182309Y5499D01*
X182356Y5452D01*
X182409Y5393D01*
X182461Y5335D01*
X182526Y5271D01*
X182590Y5200D01*
X182660Y5119D01*
X182730Y5037D01*
X182812Y4943D01*
X182818Y4937D01*
X182830Y4925D01*
X182848Y4902D01*
X182871Y4873D01*
X182929Y4803D01*
X183005Y4715D01*
X183087Y4627D01*
X183169Y4533D01*
X183239Y4457D01*
X183269Y4428D01*
X183298Y4399D01*
X183304Y4393D01*
X183321Y4381D01*
X183345Y4358D01*
X183380Y4329D01*
X183456Y4264D01*
X183549Y4200D01*
Y6090D01*
X184000D01*
Y3545D01*
D02*
G37*
G36*
X174200Y-6658D02*
X170357D01*
Y-6149D01*
X173749D01*
Y-4259D01*
X174200D01*
Y-6658D01*
D02*
G37*
G36*
X184000Y-3639D02*
X180157D01*
Y-860D01*
X180607D01*
Y-3130D01*
X181789D01*
Y-1006D01*
X182239D01*
Y-3130D01*
X183549D01*
Y-772D01*
X184000D01*
Y-3639D01*
D02*
G37*
G36*
X182169Y3094D02*
X182216D01*
X182321Y3088D01*
X182438Y3077D01*
X182573Y3053D01*
X182707Y3030D01*
X182836Y2995D01*
X182842D01*
X182853Y2989D01*
X182871Y2983D01*
X182894Y2977D01*
X182953Y2954D01*
X183035Y2925D01*
X183123Y2890D01*
X183216Y2843D01*
X183310Y2790D01*
X183397Y2732D01*
X183409Y2726D01*
X183432Y2702D01*
X183474Y2673D01*
X183526Y2626D01*
X183579Y2580D01*
X183637Y2515D01*
X183696Y2451D01*
X183748Y2381D01*
X183754Y2375D01*
X183766Y2346D01*
X183789Y2305D01*
X183819Y2252D01*
X183848Y2188D01*
X183877Y2112D01*
X183906Y2024D01*
X183936Y1924D01*
Y1913D01*
X183947Y1878D01*
X183953Y1825D01*
X183965Y1749D01*
X183977Y1661D01*
X183988Y1556D01*
X183994Y1439D01*
X184000Y1310D01*
Y-71D01*
X180157D01*
Y1246D01*
Y1252D01*
Y1263D01*
Y1287D01*
Y1322D01*
Y1357D01*
Y1404D01*
X180162Y1503D01*
X180168Y1609D01*
X180180Y1726D01*
X180198Y1837D01*
X180215Y1930D01*
Y1936D01*
X180221Y1948D01*
Y1960D01*
X180233Y1983D01*
X180250Y2047D01*
X180279Y2123D01*
X180315Y2211D01*
X180361Y2305D01*
X180420Y2398D01*
X180490Y2492D01*
Y2498D01*
X180502Y2503D01*
X180537Y2544D01*
X180595Y2597D01*
X180671Y2661D01*
X180765Y2737D01*
X180876Y2814D01*
X181005Y2884D01*
X181151Y2948D01*
X181157D01*
X181169Y2954D01*
X181192Y2960D01*
X181221Y2971D01*
X181256Y2983D01*
X181303Y2995D01*
X181356Y3012D01*
X181414Y3024D01*
X181479Y3036D01*
X181549Y3053D01*
X181701Y3077D01*
X181871Y3094D01*
X182058Y3100D01*
X182134D01*
X182169Y3094D01*
D02*
G37*
G36*
X212469Y4680D02*
X212516D01*
X212621Y4674D01*
X212738Y4662D01*
X212873Y4639D01*
X213007Y4615D01*
X213136Y4580D01*
X213142D01*
X213153Y4574D01*
X213171Y4569D01*
X213194Y4563D01*
X213253Y4539D01*
X213335Y4510D01*
X213422Y4475D01*
X213516Y4428D01*
X213610Y4375D01*
X213697Y4317D01*
X213709Y4311D01*
X213733Y4288D01*
X213773Y4259D01*
X213826Y4212D01*
X213879Y4165D01*
X213937Y4101D01*
X213996Y4036D01*
X214049Y3966D01*
X214054Y3960D01*
X214066Y3931D01*
X214089Y3890D01*
X214119Y3837D01*
X214148Y3773D01*
X214177Y3697D01*
X214206Y3609D01*
X214236Y3510D01*
Y3498D01*
X214247Y3463D01*
X214253Y3410D01*
X214265Y3334D01*
X214277Y3246D01*
X214288Y3141D01*
X214294Y3024D01*
X214300Y2895D01*
Y1515D01*
X210457D01*
Y2831D01*
Y2837D01*
Y2849D01*
Y2872D01*
Y2907D01*
Y2942D01*
Y2989D01*
X210462Y3088D01*
X210468Y3194D01*
X210480Y3311D01*
X210497Y3422D01*
X210515Y3516D01*
Y3521D01*
X210521Y3533D01*
Y3545D01*
X210533Y3568D01*
X210550Y3633D01*
X210579Y3709D01*
X210614Y3796D01*
X210661Y3890D01*
X210720Y3984D01*
X210790Y4077D01*
Y4083D01*
X210802Y4089D01*
X210837Y4130D01*
X210895Y4183D01*
X210971Y4247D01*
X211065Y4323D01*
X211176Y4399D01*
X211305Y4469D01*
X211451Y4533D01*
X211457D01*
X211469Y4539D01*
X211492Y4545D01*
X211521Y4557D01*
X211556Y4569D01*
X211603Y4580D01*
X211656Y4598D01*
X211714Y4609D01*
X211779Y4621D01*
X211849Y4639D01*
X212001Y4662D01*
X212171Y4680D01*
X212358Y4686D01*
X212434D01*
X212469Y4680D01*
D02*
G37*
G36*
X204300Y-3645D02*
X203136Y-4089D01*
Y-5704D01*
X204300Y-6119D01*
Y-6658D01*
X200457Y-5189D01*
Y-4634D01*
X204300Y-3071D01*
Y-3645D01*
D02*
G37*
G36*
X213773Y-3112D02*
X213779Y-3124D01*
X213797Y-3142D01*
X213814Y-3171D01*
X213844Y-3206D01*
X213867Y-3247D01*
X213937Y-3347D01*
X214007Y-3463D01*
X214084Y-3592D01*
X214154Y-3738D01*
X214218Y-3885D01*
Y-3890D01*
X214224Y-3902D01*
X214230Y-3926D01*
X214242Y-3955D01*
X214253Y-3990D01*
X214265Y-4031D01*
X214277Y-4084D01*
X214288Y-4136D01*
X214317Y-4259D01*
X214341Y-4394D01*
X214358Y-4546D01*
X214364Y-4698D01*
Y-4704D01*
Y-4721D01*
Y-4750D01*
X214358Y-4791D01*
Y-4844D01*
X214353Y-4903D01*
X214347Y-4967D01*
X214335Y-5037D01*
X214306Y-5201D01*
X214265Y-5371D01*
X214206Y-5552D01*
X214124Y-5727D01*
X214119Y-5733D01*
X214113Y-5745D01*
X214101Y-5774D01*
X214078Y-5804D01*
X214054Y-5844D01*
X214025Y-5885D01*
X213949Y-5985D01*
X213849Y-6102D01*
X213727Y-6213D01*
X213586Y-6324D01*
X213428Y-6424D01*
X213422D01*
X213405Y-6435D01*
X213382Y-6447D01*
X213347Y-6459D01*
X213305Y-6476D01*
X213253Y-6500D01*
X213194Y-6517D01*
X213124Y-6541D01*
X213054Y-6564D01*
X212972Y-6582D01*
X212796Y-6622D01*
X212603Y-6646D01*
X212399Y-6658D01*
X212346D01*
X212305Y-6652D01*
X212252D01*
X212194Y-6646D01*
X212130Y-6640D01*
X212059Y-6628D01*
X211896Y-6599D01*
X211720Y-6558D01*
X211533Y-6500D01*
X211352Y-6424D01*
X211346D01*
X211328Y-6412D01*
X211305Y-6400D01*
X211270Y-6383D01*
X211229Y-6353D01*
X211188Y-6324D01*
X211077Y-6254D01*
X210960Y-6154D01*
X210843Y-6043D01*
X210732Y-5903D01*
X210679Y-5833D01*
X210632Y-5751D01*
Y-5745D01*
X210620Y-5733D01*
X210609Y-5704D01*
X210597Y-5675D01*
X210574Y-5634D01*
X210556Y-5581D01*
X210533Y-5523D01*
X210509Y-5458D01*
X210492Y-5388D01*
X210468Y-5312D01*
X210427Y-5137D01*
X210404Y-4949D01*
X210392Y-4739D01*
Y-4733D01*
Y-4721D01*
Y-4698D01*
Y-4669D01*
X210398Y-4634D01*
Y-4587D01*
X210410Y-4487D01*
X210427Y-4376D01*
X210451Y-4247D01*
X210486Y-4119D01*
X210533Y-3990D01*
Y-3984D01*
X210539Y-3972D01*
X210544Y-3955D01*
X210556Y-3932D01*
X210585Y-3873D01*
X210632Y-3797D01*
X210685Y-3709D01*
X210749Y-3621D01*
X210819Y-3534D01*
X210907Y-3458D01*
X210919Y-3452D01*
X210948Y-3428D01*
X211001Y-3393D01*
X211077Y-3347D01*
X211164Y-3300D01*
X211270Y-3253D01*
X211392Y-3206D01*
X211533Y-3165D01*
X211662Y-3627D01*
X211656D01*
X211650Y-3633D01*
X211615Y-3639D01*
X211562Y-3662D01*
X211492Y-3686D01*
X211422Y-3715D01*
X211346Y-3750D01*
X211270Y-3791D01*
X211199Y-3838D01*
X211194Y-3844D01*
X211170Y-3861D01*
X211141Y-3890D01*
X211100Y-3932D01*
X211059Y-3984D01*
X211012Y-4048D01*
X210971Y-4119D01*
X210930Y-4206D01*
X210925Y-4218D01*
X210913Y-4247D01*
X210895Y-4300D01*
X210878Y-4364D01*
X210860Y-4440D01*
X210843Y-4528D01*
X210831Y-4628D01*
X210825Y-4733D01*
Y-4739D01*
Y-4750D01*
Y-4768D01*
Y-4791D01*
X210831Y-4856D01*
X210837Y-4938D01*
X210854Y-5031D01*
X210872Y-5137D01*
X210901Y-5236D01*
X210936Y-5336D01*
X210942Y-5347D01*
X210954Y-5376D01*
X210977Y-5423D01*
X211012Y-5482D01*
X211053Y-5546D01*
X211100Y-5616D01*
X211153Y-5681D01*
X211217Y-5745D01*
X211223Y-5751D01*
X211246Y-5768D01*
X211281Y-5798D01*
X211328Y-5833D01*
X211387Y-5874D01*
X211451Y-5915D01*
X211521Y-5950D01*
X211597Y-5985D01*
X211603D01*
X211615Y-5991D01*
X211632Y-5996D01*
X211662Y-6008D01*
X211691Y-6020D01*
X211732Y-6032D01*
X211825Y-6055D01*
X211943Y-6084D01*
X212071Y-6108D01*
X212217Y-6125D01*
X212369Y-6131D01*
X212416D01*
X212457Y-6125D01*
X212498D01*
X212551Y-6119D01*
X212609Y-6114D01*
X212668Y-6108D01*
X212808Y-6090D01*
X212954Y-6055D01*
X213095Y-6014D01*
X213235Y-5956D01*
X213241D01*
X213253Y-5950D01*
X213270Y-5938D01*
X213294Y-5920D01*
X213352Y-5880D01*
X213428Y-5827D01*
X213510Y-5757D01*
X213598Y-5669D01*
X213680Y-5564D01*
X213750Y-5447D01*
Y-5441D01*
X213756Y-5429D01*
X213768Y-5412D01*
X213773Y-5388D01*
X213785Y-5359D01*
X213803Y-5318D01*
X213832Y-5230D01*
X213861Y-5119D01*
X213891Y-5002D01*
X213908Y-4868D01*
X213914Y-4727D01*
Y-4721D01*
Y-4710D01*
Y-4692D01*
Y-4669D01*
X213908Y-4604D01*
X213896Y-4522D01*
X213885Y-4429D01*
X213861Y-4318D01*
X213832Y-4201D01*
X213791Y-4084D01*
Y-4078D01*
X213785Y-4072D01*
X213779Y-4054D01*
X213768Y-4031D01*
X213744Y-3972D01*
X213709Y-3902D01*
X213668Y-3826D01*
X213621Y-3750D01*
X213569Y-3674D01*
X213516Y-3604D01*
X212791D01*
Y-4733D01*
X212340D01*
Y-3107D01*
X213768D01*
X213773Y-3112D01*
D02*
G37*
G36*
X214300Y140D02*
X211281Y-1878D01*
X214300D01*
Y-2364D01*
X210457D01*
Y-1849D01*
X213475Y175D01*
X210457D01*
Y661D01*
X214300D01*
Y140D01*
D02*
G37*
G36*
X204300Y-2680D02*
X200457D01*
Y-2171D01*
X203850D01*
Y-281D01*
X204300D01*
Y-2680D01*
D02*
G37*
G36*
X202826Y11986D02*
X202878D01*
X202943Y11981D01*
X203013Y11975D01*
X203159Y11957D01*
X203311Y11934D01*
X203463Y11904D01*
X203598Y11858D01*
X203604D01*
X203616Y11852D01*
X203633Y11846D01*
X203657Y11834D01*
X203715Y11799D01*
X203797Y11752D01*
X203885Y11688D01*
X203978Y11606D01*
X204066Y11501D01*
X204154Y11384D01*
Y11378D01*
X204166Y11366D01*
X204171Y11349D01*
X204189Y11320D01*
X204201Y11290D01*
X204218Y11249D01*
X204241Y11197D01*
X204259Y11144D01*
X204277Y11085D01*
X204300Y11015D01*
X204318Y10945D01*
X204329Y10863D01*
X204353Y10688D01*
X204364Y10489D01*
Y10483D01*
Y10465D01*
Y10436D01*
X204359Y10401D01*
Y10354D01*
X204353Y10302D01*
X204347Y10243D01*
X204341Y10179D01*
X204318Y10038D01*
X204288Y9892D01*
X204241Y9740D01*
X204183Y9605D01*
Y9600D01*
X204171Y9588D01*
X204166Y9576D01*
X204148Y9553D01*
X204107Y9488D01*
X204043Y9418D01*
X203967Y9336D01*
X203879Y9260D01*
X203768Y9184D01*
X203645Y9120D01*
X203639D01*
X203627Y9114D01*
X203610Y9108D01*
X203580Y9097D01*
X203545Y9085D01*
X203499Y9073D01*
X203446Y9061D01*
X203387Y9050D01*
X203323Y9032D01*
X203253Y9020D01*
X203171Y9009D01*
X203089Y8997D01*
X202995Y8985D01*
X202896Y8980D01*
X202791Y8974D01*
X200457D01*
Y9483D01*
X202802D01*
X202849Y9488D01*
X202960Y9494D01*
X203077Y9506D01*
X203200Y9518D01*
X203317Y9541D01*
X203370Y9553D01*
X203417Y9570D01*
X203428Y9576D01*
X203458Y9588D01*
X203499Y9611D01*
X203551Y9646D01*
X203610Y9687D01*
X203674Y9746D01*
X203732Y9810D01*
X203785Y9892D01*
X203791Y9904D01*
X203803Y9933D01*
X203826Y9980D01*
X203844Y10044D01*
X203867Y10126D01*
X203890Y10220D01*
X203902Y10325D01*
X203908Y10442D01*
Y10448D01*
Y10465D01*
Y10495D01*
X203902Y10536D01*
Y10582D01*
X203896Y10635D01*
X203879Y10752D01*
X203844Y10887D01*
X203803Y11015D01*
X203738Y11138D01*
X203703Y11197D01*
X203657Y11243D01*
X203651D01*
X203645Y11255D01*
X203627Y11267D01*
X203604Y11278D01*
X203575Y11302D01*
X203539Y11320D01*
X203493Y11343D01*
X203440Y11366D01*
X203376Y11384D01*
X203306Y11407D01*
X203229Y11431D01*
X203136Y11448D01*
X203036Y11460D01*
X202931Y11472D01*
X202808Y11483D01*
X200457D01*
Y11992D01*
X202773D01*
X202826Y11986D01*
D02*
G37*
G36*
X200907Y14326D02*
X204300D01*
Y13817D01*
X200907D01*
Y12554D01*
X200457D01*
Y15590D01*
X200907D01*
Y14326D01*
D02*
G37*
G36*
X204300Y3486D02*
X201082D01*
X204300Y2363D01*
Y1907D01*
X201030Y801D01*
X204300D01*
Y310D01*
X200457D01*
Y1070D01*
X203177Y1983D01*
X203183D01*
X203194Y1989D01*
X203212Y1995D01*
X203241Y2000D01*
X203306Y2024D01*
X203387Y2053D01*
X203481Y2082D01*
X203575Y2112D01*
X203668Y2141D01*
X203744Y2164D01*
X203732Y2170D01*
X203703Y2176D01*
X203657Y2193D01*
X203592Y2217D01*
X203504Y2240D01*
X203399Y2275D01*
X203276Y2322D01*
X203130Y2369D01*
X200457Y3287D01*
Y3978D01*
X204300D01*
Y3486D01*
D02*
G37*
G36*
X202486Y8307D02*
X202539D01*
X202598Y8301D01*
X202662Y8295D01*
X202738Y8283D01*
X202902Y8254D01*
X203077Y8213D01*
X203259Y8155D01*
X203434Y8073D01*
X203440D01*
X203452Y8061D01*
X203475Y8049D01*
X203510Y8032D01*
X203545Y8003D01*
X203592Y7973D01*
X203692Y7903D01*
X203803Y7809D01*
X203920Y7693D01*
X204031Y7558D01*
X204130Y7406D01*
Y7400D01*
X204142Y7388D01*
X204154Y7365D01*
X204166Y7330D01*
X204183Y7289D01*
X204206Y7242D01*
X204224Y7189D01*
X204247Y7125D01*
X204288Y6990D01*
X204329Y6832D01*
X204353Y6657D01*
X204364Y6476D01*
Y6470D01*
Y6452D01*
Y6423D01*
X204359Y6382D01*
Y6335D01*
X204353Y6283D01*
X204341Y6218D01*
X204329Y6148D01*
X204300Y6002D01*
X204253Y5838D01*
X204189Y5668D01*
X204154Y5587D01*
X204107Y5505D01*
X204101Y5499D01*
X204095Y5487D01*
X204078Y5464D01*
X204060Y5434D01*
X204031Y5399D01*
X204002Y5358D01*
X203920Y5265D01*
X203815Y5159D01*
X203697Y5048D01*
X203551Y4949D01*
X203393Y4855D01*
X203387D01*
X203370Y4843D01*
X203346Y4838D01*
X203311Y4820D01*
X203270Y4803D01*
X203224Y4785D01*
X203165Y4767D01*
X203101Y4750D01*
X203030Y4727D01*
X202960Y4709D01*
X202797Y4674D01*
X202621Y4651D01*
X202434Y4639D01*
X202393D01*
X202340Y4645D01*
X202276D01*
X202194Y4656D01*
X202100Y4668D01*
X202001Y4680D01*
X201884Y4703D01*
X201767Y4732D01*
X201644Y4762D01*
X201521Y4803D01*
X201398Y4855D01*
X201275Y4914D01*
X201153Y4978D01*
X201042Y5060D01*
X200936Y5148D01*
X200930Y5154D01*
X200913Y5171D01*
X200884Y5200D01*
X200849Y5241D01*
X200807Y5294D01*
X200767Y5353D01*
X200714Y5423D01*
X200661Y5505D01*
X200615Y5598D01*
X200562Y5698D01*
X200521Y5809D01*
X200474Y5926D01*
X200445Y6049D01*
X200416Y6183D01*
X200398Y6329D01*
X200392Y6476D01*
Y6481D01*
Y6499D01*
Y6528D01*
X200398Y6563D01*
Y6610D01*
X200404Y6669D01*
X200416Y6727D01*
X200422Y6797D01*
X200457Y6944D01*
X200503Y7107D01*
X200562Y7271D01*
X200603Y7353D01*
X200650Y7435D01*
Y7441D01*
X200661Y7453D01*
X200673Y7476D01*
X200696Y7505D01*
X200720Y7540D01*
X200755Y7581D01*
X200831Y7675D01*
X200930Y7780D01*
X201053Y7891D01*
X201194Y7991D01*
X201357Y8084D01*
X201363D01*
X201381Y8096D01*
X201404Y8108D01*
X201439Y8119D01*
X201480Y8137D01*
X201533Y8155D01*
X201591Y8178D01*
X201656Y8201D01*
X201732Y8219D01*
X201808Y8242D01*
X201983Y8277D01*
X202176Y8301D01*
X202387Y8313D01*
X202446D01*
X202486Y8307D01*
D02*
G37*
G36*
X174200Y-3639D02*
X170357D01*
Y-860D01*
X170807D01*
Y-3130D01*
X171989D01*
Y-1006D01*
X172439D01*
Y-3130D01*
X173749D01*
Y-772D01*
X174200D01*
Y-3639D01*
D02*
G37*
G36*
X162586Y14151D02*
X162639D01*
X162698Y14145D01*
X162762Y14139D01*
X162838Y14128D01*
X163002Y14098D01*
X163177Y14057D01*
X163359Y13999D01*
X163534Y13917D01*
X163540D01*
X163552Y13905D01*
X163575Y13893D01*
X163610Y13876D01*
X163645Y13847D01*
X163692Y13817D01*
X163792Y13747D01*
X163903Y13654D01*
X164020Y13537D01*
X164131Y13402D01*
X164230Y13250D01*
Y13244D01*
X164242Y13232D01*
X164254Y13209D01*
X164266Y13174D01*
X164283Y13133D01*
X164306Y13086D01*
X164324Y13034D01*
X164347Y12969D01*
X164388Y12835D01*
X164429Y12677D01*
X164453Y12501D01*
X164464Y12320D01*
Y12314D01*
Y12296D01*
Y12267D01*
X164459Y12226D01*
Y12179D01*
X164453Y12127D01*
X164441Y12062D01*
X164429Y11992D01*
X164400Y11846D01*
X164353Y11682D01*
X164289Y11513D01*
X164254Y11431D01*
X164207Y11349D01*
X164201Y11343D01*
X164195Y11331D01*
X164178Y11308D01*
X164160Y11278D01*
X164131Y11243D01*
X164102Y11203D01*
X164020Y11109D01*
X163915Y11004D01*
X163797Y10892D01*
X163651Y10793D01*
X163493Y10699D01*
X163487D01*
X163470Y10688D01*
X163446Y10682D01*
X163411Y10664D01*
X163370Y10647D01*
X163324Y10629D01*
X163265Y10612D01*
X163201Y10594D01*
X163130Y10571D01*
X163060Y10553D01*
X162897Y10518D01*
X162721Y10495D01*
X162534Y10483D01*
X162493D01*
X162440Y10489D01*
X162376D01*
X162294Y10501D01*
X162200Y10512D01*
X162101Y10524D01*
X161984Y10547D01*
X161867Y10576D01*
X161744Y10606D01*
X161621Y10647D01*
X161498Y10699D01*
X161375Y10758D01*
X161253Y10822D01*
X161142Y10904D01*
X161036Y10992D01*
X161030Y10998D01*
X161013Y11015D01*
X160984Y11045D01*
X160949Y11085D01*
X160907Y11138D01*
X160867Y11197D01*
X160814Y11267D01*
X160761Y11349D01*
X160714Y11442D01*
X160662Y11542D01*
X160621Y11653D01*
X160574Y11770D01*
X160545Y11893D01*
X160516Y12027D01*
X160498Y12174D01*
X160492Y12320D01*
Y12326D01*
Y12343D01*
Y12372D01*
X160498Y12408D01*
Y12454D01*
X160504Y12513D01*
X160516Y12571D01*
X160521Y12642D01*
X160556Y12788D01*
X160603Y12952D01*
X160662Y13115D01*
X160703Y13197D01*
X160750Y13279D01*
Y13285D01*
X160761Y13297D01*
X160773Y13320D01*
X160796Y13349D01*
X160820Y13385D01*
X160855Y13426D01*
X160931Y13519D01*
X161030Y13624D01*
X161153Y13735D01*
X161294Y13835D01*
X161457Y13929D01*
X161463D01*
X161481Y13940D01*
X161504Y13952D01*
X161539Y13964D01*
X161580Y13981D01*
X161633Y13999D01*
X161691Y14022D01*
X161756Y14046D01*
X161832Y14063D01*
X161908Y14086D01*
X162083Y14122D01*
X162276Y14145D01*
X162487Y14157D01*
X162546D01*
X162586Y14151D01*
D02*
G37*
G36*
X164400Y17561D02*
X163604Y17052D01*
X163599D01*
X163587Y17041D01*
X163569Y17029D01*
X163546Y17017D01*
X163487Y16976D01*
X163411Y16924D01*
X163324Y16865D01*
X163236Y16801D01*
X163154Y16742D01*
X163078Y16684D01*
X163072Y16678D01*
X163049Y16660D01*
X163014Y16631D01*
X162973Y16602D01*
X162891Y16514D01*
X162850Y16473D01*
X162820Y16427D01*
X162815Y16421D01*
X162809Y16409D01*
X162797Y16386D01*
X162779Y16356D01*
X162744Y16286D01*
X162715Y16198D01*
Y16193D01*
X162709Y16181D01*
Y16157D01*
X162704Y16128D01*
X162698Y16087D01*
Y16040D01*
X162692Y15982D01*
Y15912D01*
Y15327D01*
X164400D01*
Y14818D01*
X160556D01*
Y16520D01*
Y16526D01*
Y16544D01*
Y16567D01*
Y16602D01*
X160562Y16649D01*
Y16696D01*
X160568Y16813D01*
X160580Y16936D01*
X160603Y17064D01*
X160627Y17187D01*
X160644Y17245D01*
X160662Y17298D01*
Y17304D01*
X160668Y17310D01*
X160679Y17345D01*
X160709Y17392D01*
X160750Y17450D01*
X160796Y17521D01*
X160861Y17591D01*
X160937Y17661D01*
X161030Y17725D01*
X161042Y17731D01*
X161077Y17749D01*
X161130Y17778D01*
X161200Y17807D01*
X161288Y17836D01*
X161387Y17866D01*
X161493Y17883D01*
X161609Y17889D01*
X161651D01*
X161680Y17883D01*
X161715D01*
X161756Y17877D01*
X161849Y17854D01*
X161960Y17825D01*
X162072Y17778D01*
X162189Y17708D01*
X162247Y17667D01*
X162300Y17620D01*
X162312Y17608D01*
X162323Y17591D01*
X162347Y17573D01*
X162364Y17544D01*
X162393Y17509D01*
X162417Y17468D01*
X162446Y17421D01*
X162475Y17368D01*
X162505Y17304D01*
X162534Y17240D01*
X162563Y17164D01*
X162592Y17088D01*
X162616Y17000D01*
X162633Y16906D01*
X162651Y16807D01*
X162657Y16818D01*
X162668Y16842D01*
X162686Y16877D01*
X162709Y16918D01*
X162774Y17017D01*
X162809Y17070D01*
X162844Y17111D01*
X162856Y17123D01*
X162879Y17152D01*
X162926Y17193D01*
X162984Y17245D01*
X163060Y17310D01*
X163148Y17380D01*
X163248Y17456D01*
X163359Y17532D01*
X164400Y18199D01*
Y17561D01*
D02*
G37*
G36*
Y5961D02*
X160556D01*
Y6470D01*
X164400D01*
Y5961D01*
D02*
G37*
G36*
X161007Y8851D02*
X164400D01*
Y8342D01*
X161007D01*
Y7078D01*
X160556D01*
Y10114D01*
X161007D01*
Y8851D01*
D02*
G37*
G36*
X164400Y18696D02*
X160556D01*
Y21475D01*
X161007D01*
Y19205D01*
X162189D01*
Y21329D01*
X162639D01*
Y19205D01*
X163950D01*
Y21563D01*
X164400D01*
Y18696D01*
D02*
G37*
G36*
X152089Y-1053D02*
X152136Y-1059D01*
X152189Y-1065D01*
X152247Y-1071D01*
X152311Y-1082D01*
X152452Y-1123D01*
X152598Y-1176D01*
X152680Y-1211D01*
X152756Y-1252D01*
X152832Y-1299D01*
X152902Y-1352D01*
X152908Y-1357D01*
X152920Y-1369D01*
X152943Y-1393D01*
X152972Y-1422D01*
X153007Y-1457D01*
X153049Y-1504D01*
X153089Y-1556D01*
X153130Y-1621D01*
X153177Y-1685D01*
X153218Y-1761D01*
X153259Y-1849D01*
X153294Y-1937D01*
X153323Y-2036D01*
X153347Y-2135D01*
X153358Y-2247D01*
X153364Y-2364D01*
Y-2369D01*
Y-2387D01*
Y-2416D01*
X153358Y-2451D01*
X153353Y-2492D01*
X153347Y-2545D01*
X153341Y-2603D01*
X153329Y-2668D01*
X153294Y-2802D01*
X153242Y-2943D01*
X153206Y-3013D01*
X153165Y-3083D01*
X153124Y-3153D01*
X153072Y-3218D01*
X153066Y-3224D01*
X153060Y-3229D01*
X153043Y-3247D01*
X153019Y-3270D01*
X152990Y-3294D01*
X152955Y-3323D01*
X152914Y-3352D01*
X152867Y-3387D01*
X152756Y-3452D01*
X152621Y-3516D01*
X152469Y-3563D01*
X152382Y-3581D01*
X152294Y-3592D01*
X152259Y-3095D01*
X152276D01*
X152294Y-3089D01*
X152317Y-3083D01*
X152382Y-3066D01*
X152463Y-3042D01*
X152551Y-3013D01*
X152639Y-2966D01*
X152727Y-2914D01*
X152803Y-2843D01*
X152809Y-2832D01*
X152832Y-2808D01*
X152855Y-2767D01*
X152891Y-2709D01*
X152920Y-2639D01*
X152949Y-2557D01*
X152972Y-2463D01*
X152978Y-2364D01*
Y-2358D01*
Y-2346D01*
Y-2329D01*
X152972Y-2305D01*
X152967Y-2241D01*
X152949Y-2159D01*
X152914Y-2071D01*
X152873Y-1972D01*
X152809Y-1878D01*
X152773Y-1831D01*
X152727Y-1784D01*
X152721D01*
X152715Y-1773D01*
X152680Y-1749D01*
X152621Y-1709D01*
X152545Y-1667D01*
X152446Y-1627D01*
X152329Y-1586D01*
X152194Y-1562D01*
X152042Y-1551D01*
X152001D01*
X151978Y-1556D01*
X151943D01*
X151902Y-1562D01*
X151808Y-1580D01*
X151709Y-1603D01*
X151603Y-1644D01*
X151498Y-1703D01*
X151405Y-1779D01*
X151393Y-1790D01*
X151370Y-1820D01*
X151329Y-1866D01*
X151288Y-1937D01*
X151247Y-2018D01*
X151206Y-2124D01*
X151182Y-2241D01*
X151171Y-2369D01*
Y-2381D01*
Y-2410D01*
X151176Y-2451D01*
X151182Y-2510D01*
X151200Y-2574D01*
X151217Y-2644D01*
X151247Y-2715D01*
X151282Y-2785D01*
X151288Y-2791D01*
X151299Y-2814D01*
X151323Y-2849D01*
X151352Y-2890D01*
X151393Y-2931D01*
X151440Y-2978D01*
X151492Y-3025D01*
X151551Y-3066D01*
X151487Y-3510D01*
X149515Y-3136D01*
Y-1229D01*
X149966D01*
Y-2761D01*
X151001Y-2972D01*
X150995Y-2966D01*
X150989Y-2954D01*
X150978Y-2937D01*
X150960Y-2914D01*
X150943Y-2878D01*
X150925Y-2843D01*
X150878Y-2750D01*
X150831Y-2644D01*
X150796Y-2522D01*
X150767Y-2387D01*
X150755Y-2247D01*
Y-2241D01*
Y-2223D01*
Y-2200D01*
X150761Y-2165D01*
X150767Y-2118D01*
X150773Y-2071D01*
X150785Y-2013D01*
X150796Y-1954D01*
X150843Y-1820D01*
X150866Y-1749D01*
X150901Y-1679D01*
X150943Y-1603D01*
X150989Y-1533D01*
X151042Y-1463D01*
X151106Y-1398D01*
X151112Y-1393D01*
X151124Y-1381D01*
X151141Y-1363D01*
X151171Y-1346D01*
X151206Y-1316D01*
X151247Y-1287D01*
X151294Y-1258D01*
X151346Y-1223D01*
X151410Y-1188D01*
X151475Y-1159D01*
X151551Y-1129D01*
X151627Y-1100D01*
X151715Y-1082D01*
X151802Y-1065D01*
X151902Y-1053D01*
X152001Y-1047D01*
X152054D01*
X152089Y-1053D01*
D02*
G37*
G36*
X153300Y1199D02*
Y678D01*
X149457Y-813D01*
Y-258D01*
X152247Y737D01*
X152253D01*
X152265Y743D01*
X152282Y748D01*
X152305Y760D01*
X152370Y778D01*
X152452Y807D01*
X152551Y842D01*
X152656Y877D01*
X152879Y942D01*
X152873D01*
X152867Y947D01*
X152849Y953D01*
X152826Y959D01*
X152762Y977D01*
X152680Y1000D01*
X152586Y1029D01*
X152481Y1064D01*
X152364Y1105D01*
X152247Y1146D01*
X149457Y2188D01*
Y2702D01*
X153300Y1199D01*
D02*
G37*
G36*
X164400Y24763D02*
X161381Y22745D01*
X164400D01*
Y22259D01*
X160556D01*
Y22774D01*
X163575Y24798D01*
X160556D01*
Y25283D01*
X164400D01*
Y24763D01*
D02*
G37*
G36*
X151627Y-5166D02*
X152680D01*
Y-5610D01*
X151627D01*
Y-6658D01*
X151188D01*
Y-5610D01*
X150141D01*
Y-5166D01*
X151188D01*
Y-4119D01*
X151627D01*
Y-5166D01*
D02*
G37*
G36*
X164400Y-3481D02*
X161182D01*
X164400Y-4604D01*
Y-5060D01*
X161130Y-6166D01*
X164400D01*
Y-6658D01*
X160556D01*
Y-5897D01*
X163277Y-4984D01*
X163283D01*
X163294Y-4979D01*
X163312Y-4973D01*
X163341Y-4967D01*
X163406Y-4944D01*
X163487Y-4914D01*
X163581Y-4885D01*
X163675Y-4856D01*
X163768Y-4826D01*
X163844Y-4803D01*
X163832Y-4797D01*
X163803Y-4791D01*
X163757Y-4774D01*
X163692Y-4750D01*
X163604Y-4727D01*
X163499Y-4692D01*
X163376Y-4645D01*
X163230Y-4598D01*
X160556Y-3680D01*
Y-2990D01*
X164400D01*
Y-3481D01*
D02*
G37*
G36*
X162586Y1339D02*
X162639D01*
X162698Y1333D01*
X162762Y1328D01*
X162838Y1316D01*
X163002Y1287D01*
X163177Y1246D01*
X163359Y1187D01*
X163534Y1105D01*
X163540D01*
X163552Y1094D01*
X163575Y1082D01*
X163610Y1064D01*
X163645Y1035D01*
X163692Y1006D01*
X163792Y936D01*
X163903Y842D01*
X164020Y725D01*
X164131Y591D01*
X164230Y439D01*
Y433D01*
X164242Y421D01*
X164254Y398D01*
X164266Y362D01*
X164283Y322D01*
X164306Y275D01*
X164324Y222D01*
X164347Y158D01*
X164388Y23D01*
X164429Y-135D01*
X164453Y-310D01*
X164464Y-492D01*
Y-497D01*
Y-515D01*
Y-544D01*
X164459Y-585D01*
Y-632D01*
X164453Y-685D01*
X164441Y-749D01*
X164429Y-819D01*
X164400Y-965D01*
X164353Y-1129D01*
X164289Y-1299D01*
X164254Y-1381D01*
X164207Y-1463D01*
X164201Y-1469D01*
X164195Y-1480D01*
X164178Y-1504D01*
X164160Y-1533D01*
X164131Y-1568D01*
X164102Y-1609D01*
X164020Y-1703D01*
X163915Y-1808D01*
X163797Y-1919D01*
X163651Y-2018D01*
X163493Y-2112D01*
X163487D01*
X163470Y-2124D01*
X163446Y-2130D01*
X163411Y-2147D01*
X163370Y-2165D01*
X163324Y-2182D01*
X163265Y-2200D01*
X163201Y-2217D01*
X163130Y-2241D01*
X163060Y-2258D01*
X162897Y-2293D01*
X162721Y-2317D01*
X162534Y-2329D01*
X162493D01*
X162440Y-2323D01*
X162376D01*
X162294Y-2311D01*
X162200Y-2299D01*
X162101Y-2288D01*
X161984Y-2264D01*
X161867Y-2235D01*
X161744Y-2206D01*
X161621Y-2165D01*
X161498Y-2112D01*
X161375Y-2054D01*
X161253Y-1989D01*
X161142Y-1907D01*
X161036Y-1820D01*
X161030Y-1814D01*
X161013Y-1796D01*
X160984Y-1767D01*
X160949Y-1726D01*
X160907Y-1673D01*
X160867Y-1615D01*
X160814Y-1545D01*
X160761Y-1463D01*
X160714Y-1369D01*
X160662Y-1270D01*
X160621Y-1159D01*
X160574Y-1042D01*
X160545Y-919D01*
X160516Y-784D01*
X160498Y-638D01*
X160492Y-492D01*
Y-486D01*
Y-468D01*
Y-439D01*
X160498Y-404D01*
Y-357D01*
X160504Y-299D01*
X160516Y-240D01*
X160521Y-170D01*
X160556Y-24D01*
X160603Y140D01*
X160662Y304D01*
X160703Y386D01*
X160750Y468D01*
Y474D01*
X160761Y485D01*
X160773Y509D01*
X160796Y538D01*
X160820Y573D01*
X160855Y614D01*
X160931Y708D01*
X161030Y813D01*
X161153Y924D01*
X161294Y1024D01*
X161457Y1117D01*
X161463D01*
X161481Y1129D01*
X161504Y1141D01*
X161539Y1152D01*
X161580Y1170D01*
X161633Y1187D01*
X161691Y1211D01*
X161756Y1234D01*
X161832Y1252D01*
X161908Y1275D01*
X162083Y1310D01*
X162276Y1333D01*
X162487Y1345D01*
X162546D01*
X162586Y1339D01*
D02*
G37*
G36*
X172369Y3094D02*
X172416D01*
X172521Y3088D01*
X172638Y3077D01*
X172773Y3053D01*
X172907Y3030D01*
X173036Y2995D01*
X173042D01*
X173053Y2989D01*
X173071Y2983D01*
X173094Y2977D01*
X173153Y2954D01*
X173235Y2925D01*
X173322Y2890D01*
X173416Y2843D01*
X173510Y2790D01*
X173598Y2732D01*
X173609Y2726D01*
X173633Y2702D01*
X173673Y2673D01*
X173726Y2626D01*
X173779Y2580D01*
X173837Y2515D01*
X173896Y2451D01*
X173949Y2381D01*
X173954Y2375D01*
X173966Y2346D01*
X173989Y2305D01*
X174019Y2252D01*
X174048Y2188D01*
X174077Y2112D01*
X174106Y2024D01*
X174136Y1924D01*
Y1913D01*
X174147Y1878D01*
X174153Y1825D01*
X174165Y1749D01*
X174177Y1661D01*
X174188Y1556D01*
X174194Y1439D01*
X174200Y1310D01*
Y-71D01*
X170357D01*
Y1246D01*
Y1252D01*
Y1263D01*
Y1287D01*
Y1322D01*
Y1357D01*
Y1404D01*
X170362Y1503D01*
X170368Y1609D01*
X170380Y1726D01*
X170397Y1837D01*
X170415Y1930D01*
Y1936D01*
X170421Y1948D01*
Y1960D01*
X170433Y1983D01*
X170450Y2047D01*
X170479Y2123D01*
X170515Y2211D01*
X170561Y2305D01*
X170620Y2398D01*
X170690Y2492D01*
Y2498D01*
X170702Y2503D01*
X170737Y2544D01*
X170795Y2597D01*
X170871Y2661D01*
X170965Y2737D01*
X171076Y2814D01*
X171205Y2884D01*
X171351Y2948D01*
X171357D01*
X171369Y2954D01*
X171392Y2960D01*
X171421Y2971D01*
X171456Y2983D01*
X171503Y2995D01*
X171556Y3012D01*
X171614Y3024D01*
X171679Y3036D01*
X171749Y3053D01*
X171901Y3077D01*
X172071Y3094D01*
X172258Y3100D01*
X172334D01*
X172369Y3094D01*
D02*
G37*
G36*
X174200Y4914D02*
X171193D01*
X171199Y4908D01*
X171222Y4885D01*
X171252Y4843D01*
X171293Y4791D01*
X171345Y4727D01*
X171398Y4651D01*
X171462Y4563D01*
X171521Y4463D01*
Y4457D01*
X171527Y4452D01*
X171550Y4417D01*
X171579Y4364D01*
X171614Y4299D01*
X171655Y4223D01*
X171690Y4141D01*
X171731Y4054D01*
X171766Y3972D01*
X171304D01*
Y3978D01*
X171298Y3989D01*
X171287Y4013D01*
X171269Y4036D01*
X171252Y4071D01*
X171234Y4112D01*
X171181Y4206D01*
X171117Y4311D01*
X171041Y4428D01*
X170953Y4545D01*
X170860Y4656D01*
X170854Y4662D01*
X170848Y4668D01*
X170813Y4703D01*
X170760Y4756D01*
X170696Y4820D01*
X170614Y4890D01*
X170526Y4961D01*
X170433Y5025D01*
X170339Y5077D01*
Y5388D01*
X174200D01*
Y4914D01*
D02*
G37*
G36*
X164400Y4498D02*
X161381Y2480D01*
X164400D01*
Y1995D01*
X160556D01*
Y2509D01*
X163575Y4533D01*
X160556D01*
Y5019D01*
X164400D01*
Y4498D01*
D02*
G37*
%LPC*%
G36*
X212352Y4159D02*
X212252D01*
X212200Y4153D01*
X212141Y4147D01*
X212077Y4141D01*
X212013Y4136D01*
X211861Y4112D01*
X211708Y4077D01*
X211562Y4025D01*
X211492Y3995D01*
X211428Y3960D01*
X211422D01*
X211416Y3949D01*
X211398Y3943D01*
X211375Y3925D01*
X211316Y3884D01*
X211252Y3826D01*
X211176Y3755D01*
X211106Y3673D01*
X211042Y3580D01*
X210989Y3480D01*
X210983Y3469D01*
X210977Y3440D01*
X210965Y3393D01*
X210948Y3322D01*
X210930Y3229D01*
X210919Y3118D01*
X210913Y2983D01*
X210907Y2825D01*
Y2024D01*
X213849D01*
Y2837D01*
Y2843D01*
Y2854D01*
Y2872D01*
Y2901D01*
X213844Y2966D01*
X213838Y3053D01*
X213832Y3147D01*
X213820Y3246D01*
X213803Y3340D01*
X213779Y3428D01*
X213773Y3440D01*
X213768Y3463D01*
X213750Y3504D01*
X213727Y3551D01*
X213697Y3609D01*
X213668Y3668D01*
X213627Y3720D01*
X213580Y3773D01*
X213575Y3779D01*
X213545Y3802D01*
X213504Y3837D01*
X213452Y3878D01*
X213382Y3919D01*
X213300Y3966D01*
X213200Y4013D01*
X213095Y4054D01*
X213089D01*
X213083Y4060D01*
X213066Y4065D01*
X213042Y4071D01*
X213013Y4077D01*
X212978Y4089D01*
X212890Y4106D01*
X212779Y4124D01*
X212650Y4141D01*
X212510Y4153D01*
X212352Y4159D01*
D02*
G37*
G36*
X191852Y2574D02*
X191753D01*
X191700Y2568D01*
X191641Y2562D01*
X191577Y2556D01*
X191513Y2550D01*
X191360Y2527D01*
X191208Y2492D01*
X191062Y2439D01*
X190992Y2410D01*
X190928Y2375D01*
X190922D01*
X190916Y2363D01*
X190898Y2357D01*
X190875Y2340D01*
X190816Y2299D01*
X190752Y2240D01*
X190676Y2170D01*
X190606Y2088D01*
X190542Y1995D01*
X190489Y1895D01*
X190483Y1883D01*
X190477Y1854D01*
X190465Y1807D01*
X190448Y1737D01*
X190430Y1644D01*
X190419Y1532D01*
X190413Y1398D01*
X190407Y1240D01*
Y439D01*
X193350D01*
Y1252D01*
Y1257D01*
Y1269D01*
Y1287D01*
Y1316D01*
X193344Y1380D01*
X193338Y1468D01*
X193332Y1562D01*
X193320Y1661D01*
X193303Y1755D01*
X193279Y1843D01*
X193273Y1854D01*
X193268Y1878D01*
X193250Y1918D01*
X193227Y1965D01*
X193198Y2024D01*
X193168Y2082D01*
X193127Y2135D01*
X193080Y2188D01*
X193075Y2193D01*
X193045Y2217D01*
X193004Y2252D01*
X192952Y2293D01*
X192882Y2334D01*
X192800Y2381D01*
X192700Y2427D01*
X192595Y2468D01*
X192589D01*
X192583Y2474D01*
X192566Y2480D01*
X192542Y2486D01*
X192513Y2492D01*
X192478Y2503D01*
X192390Y2521D01*
X192279Y2539D01*
X192150Y2556D01*
X192010Y2568D01*
X191852Y2574D01*
D02*
G37*
G36*
X172252D02*
X172152D01*
X172100Y2568D01*
X172041Y2562D01*
X171977Y2556D01*
X171913Y2550D01*
X171760Y2527D01*
X171608Y2492D01*
X171462Y2439D01*
X171392Y2410D01*
X171328Y2375D01*
X171322D01*
X171316Y2363D01*
X171298Y2357D01*
X171275Y2340D01*
X171216Y2299D01*
X171152Y2240D01*
X171076Y2170D01*
X171006Y2088D01*
X170942Y1995D01*
X170889Y1895D01*
X170883Y1883D01*
X170877Y1854D01*
X170865Y1807D01*
X170848Y1737D01*
X170830Y1644D01*
X170819Y1532D01*
X170813Y1398D01*
X170807Y1240D01*
Y439D01*
X173749D01*
Y1252D01*
Y1257D01*
Y1269D01*
Y1287D01*
Y1316D01*
X173744Y1380D01*
X173738Y1468D01*
X173732Y1562D01*
X173720Y1661D01*
X173703Y1755D01*
X173679Y1843D01*
X173673Y1854D01*
X173668Y1878D01*
X173650Y1918D01*
X173627Y1965D01*
X173598Y2024D01*
X173568Y2082D01*
X173527Y2135D01*
X173480Y2188D01*
X173475Y2193D01*
X173445Y2217D01*
X173404Y2252D01*
X173352Y2293D01*
X173282Y2334D01*
X173200Y2381D01*
X173100Y2427D01*
X172995Y2468D01*
X172989D01*
X172983Y2474D01*
X172966Y2480D01*
X172942Y2486D01*
X172913Y2492D01*
X172878Y2503D01*
X172790Y2521D01*
X172679Y2539D01*
X172550Y2556D01*
X172410Y2568D01*
X172252Y2574D01*
D02*
G37*
G36*
X182052D02*
X181953D01*
X181900Y2568D01*
X181841Y2562D01*
X181777Y2556D01*
X181713Y2550D01*
X181561Y2527D01*
X181408Y2492D01*
X181262Y2439D01*
X181192Y2410D01*
X181128Y2375D01*
X181122D01*
X181116Y2363D01*
X181098Y2357D01*
X181075Y2340D01*
X181017Y2299D01*
X180952Y2240D01*
X180876Y2170D01*
X180806Y2088D01*
X180742Y1995D01*
X180689Y1895D01*
X180683Y1883D01*
X180677Y1854D01*
X180666Y1807D01*
X180648Y1737D01*
X180630Y1644D01*
X180619Y1532D01*
X180613Y1398D01*
X180607Y1240D01*
Y439D01*
X183549D01*
Y1252D01*
Y1257D01*
Y1269D01*
Y1287D01*
Y1316D01*
X183544Y1380D01*
X183538Y1468D01*
X183532Y1562D01*
X183520Y1661D01*
X183503Y1755D01*
X183479Y1843D01*
X183474Y1854D01*
X183468Y1878D01*
X183450Y1918D01*
X183427Y1965D01*
X183397Y2024D01*
X183368Y2082D01*
X183327Y2135D01*
X183280Y2188D01*
X183275Y2193D01*
X183245Y2217D01*
X183204Y2252D01*
X183152Y2293D01*
X183081Y2334D01*
X183000Y2381D01*
X182900Y2427D01*
X182795Y2468D01*
X182789D01*
X182783Y2474D01*
X182766Y2480D01*
X182742Y2486D01*
X182713Y2492D01*
X182678Y2503D01*
X182590Y2521D01*
X182479Y2539D01*
X182350Y2556D01*
X182210Y2568D01*
X182052Y2574D01*
D02*
G37*
G36*
X161609Y17363D02*
X161563D01*
X161516Y17351D01*
X161452Y17339D01*
X161381Y17316D01*
X161305Y17281D01*
X161229Y17228D01*
X161159Y17164D01*
X161153Y17152D01*
X161130Y17129D01*
X161101Y17076D01*
X161071Y17011D01*
X161036Y16924D01*
X161013Y16818D01*
X160989Y16690D01*
X160984Y16538D01*
Y15327D01*
X162253D01*
Y16415D01*
Y16421D01*
Y16432D01*
Y16450D01*
Y16473D01*
X162247Y16538D01*
X162241Y16614D01*
X162235Y16702D01*
X162224Y16795D01*
X162206Y16883D01*
X162183Y16959D01*
X162177Y16971D01*
X162171Y16994D01*
X162154Y17029D01*
X162130Y17070D01*
X162095Y17117D01*
X162054Y17169D01*
X162007Y17216D01*
X161955Y17257D01*
X161949Y17263D01*
X161925Y17275D01*
X161896Y17292D01*
X161849Y17310D01*
X161803Y17327D01*
X161744Y17345D01*
X161680Y17357D01*
X161609Y17363D01*
D02*
G37*
G36*
X202387Y7786D02*
X202311D01*
X202270Y7780D01*
X202217D01*
X202106Y7768D01*
X201983Y7745D01*
X201843Y7716D01*
X201703Y7675D01*
X201568Y7622D01*
X201562D01*
X201551Y7616D01*
X201533Y7605D01*
X201509Y7593D01*
X201445Y7558D01*
X201369Y7505D01*
X201281Y7441D01*
X201188Y7359D01*
X201100Y7265D01*
X201024Y7160D01*
Y7154D01*
X201018Y7148D01*
X201006Y7131D01*
X200995Y7107D01*
X200965Y7043D01*
X200924Y6961D01*
X200889Y6862D01*
X200860Y6745D01*
X200837Y6616D01*
X200831Y6476D01*
Y6470D01*
Y6452D01*
Y6423D01*
X200837Y6388D01*
X200843Y6341D01*
X200849Y6283D01*
X200860Y6224D01*
X200878Y6160D01*
X200924Y6013D01*
X200954Y5937D01*
X200989Y5861D01*
X201030Y5779D01*
X201082Y5703D01*
X201141Y5627D01*
X201205Y5551D01*
X201211Y5545D01*
X201223Y5534D01*
X201246Y5516D01*
X201275Y5493D01*
X201316Y5464D01*
X201369Y5429D01*
X201428Y5393D01*
X201498Y5358D01*
X201580Y5323D01*
X201667Y5288D01*
X201767Y5253D01*
X201884Y5224D01*
X202007Y5200D01*
X202135Y5183D01*
X202282Y5171D01*
X202440Y5165D01*
X202504D01*
X202557Y5171D01*
X202615Y5177D01*
X202679Y5183D01*
X202756Y5195D01*
X202837Y5212D01*
X203013Y5253D01*
X203101Y5288D01*
X203194Y5323D01*
X203282Y5364D01*
X203370Y5411D01*
X203458Y5469D01*
X203534Y5534D01*
X203539Y5540D01*
X203551Y5551D01*
X203569Y5575D01*
X203598Y5604D01*
X203627Y5639D01*
X203657Y5680D01*
X203697Y5733D01*
X203732Y5791D01*
X203768Y5856D01*
X203803Y5926D01*
X203838Y6002D01*
X203867Y6090D01*
X203896Y6177D01*
X203914Y6271D01*
X203926Y6364D01*
X203931Y6470D01*
Y6476D01*
Y6493D01*
Y6522D01*
X203926Y6563D01*
X203920Y6616D01*
X203908Y6669D01*
X203896Y6733D01*
X203879Y6803D01*
X203832Y6949D01*
X203803Y7031D01*
X203762Y7107D01*
X203715Y7189D01*
X203662Y7265D01*
X203604Y7342D01*
X203534Y7412D01*
X203528Y7418D01*
X203516Y7429D01*
X203493Y7447D01*
X203458Y7470D01*
X203417Y7499D01*
X203364Y7529D01*
X203306Y7564D01*
X203241Y7599D01*
X203159Y7634D01*
X203077Y7669D01*
X202984Y7698D01*
X202878Y7728D01*
X202767Y7751D01*
X202650Y7768D01*
X202522Y7780D01*
X202387Y7786D01*
D02*
G37*
G36*
X162487Y13630D02*
X162411D01*
X162370Y13624D01*
X162317D01*
X162206Y13613D01*
X162083Y13589D01*
X161943Y13560D01*
X161803Y13519D01*
X161668Y13466D01*
X161662D01*
X161651Y13461D01*
X161633Y13449D01*
X161609Y13437D01*
X161545Y13402D01*
X161469Y13349D01*
X161381Y13285D01*
X161288Y13203D01*
X161200Y13110D01*
X161124Y13004D01*
Y12998D01*
X161118Y12993D01*
X161106Y12975D01*
X161095Y12952D01*
X161065Y12887D01*
X161024Y12805D01*
X160989Y12706D01*
X160960Y12589D01*
X160937Y12460D01*
X160931Y12320D01*
Y12314D01*
Y12296D01*
Y12267D01*
X160937Y12232D01*
X160943Y12185D01*
X160949Y12127D01*
X160960Y12068D01*
X160978Y12004D01*
X161024Y11858D01*
X161054Y11782D01*
X161089Y11706D01*
X161130Y11624D01*
X161182Y11548D01*
X161241Y11472D01*
X161305Y11395D01*
X161311Y11390D01*
X161323Y11378D01*
X161346Y11360D01*
X161375Y11337D01*
X161416Y11308D01*
X161469Y11273D01*
X161528Y11238D01*
X161598Y11203D01*
X161680Y11167D01*
X161767Y11132D01*
X161867Y11097D01*
X161984Y11068D01*
X162107Y11045D01*
X162235Y11027D01*
X162382Y11015D01*
X162540Y11009D01*
X162604D01*
X162657Y11015D01*
X162715Y11021D01*
X162779Y11027D01*
X162856Y11039D01*
X162937Y11056D01*
X163113Y11097D01*
X163201Y11132D01*
X163294Y11167D01*
X163382Y11208D01*
X163470Y11255D01*
X163558Y11314D01*
X163634Y11378D01*
X163639Y11384D01*
X163651Y11395D01*
X163669Y11419D01*
X163698Y11448D01*
X163727Y11483D01*
X163757Y11524D01*
X163797Y11577D01*
X163832Y11635D01*
X163868Y11700D01*
X163903Y11770D01*
X163938Y11846D01*
X163967Y11934D01*
X163996Y12021D01*
X164014Y12115D01*
X164026Y12209D01*
X164031Y12314D01*
Y12320D01*
Y12337D01*
Y12367D01*
X164026Y12408D01*
X164020Y12460D01*
X164008Y12513D01*
X163996Y12577D01*
X163979Y12647D01*
X163932Y12794D01*
X163903Y12876D01*
X163862Y12952D01*
X163815Y13034D01*
X163762Y13110D01*
X163704Y13186D01*
X163634Y13256D01*
X163628Y13262D01*
X163616Y13273D01*
X163593Y13291D01*
X163558Y13314D01*
X163517Y13344D01*
X163464Y13373D01*
X163406Y13408D01*
X163341Y13443D01*
X163259Y13478D01*
X163177Y13513D01*
X163084Y13543D01*
X162978Y13572D01*
X162867Y13595D01*
X162750Y13613D01*
X162622Y13624D01*
X162487Y13630D01*
D02*
G37*
G36*
X202720Y-4253D02*
X201662Y-4651D01*
X201656D01*
X201638Y-4657D01*
X201615Y-4669D01*
X201580Y-4680D01*
X201539Y-4698D01*
X201492Y-4715D01*
X201381Y-4750D01*
X201252Y-4797D01*
X201118Y-4844D01*
X200983Y-4885D01*
X200854Y-4926D01*
X200860D01*
X200872Y-4932D01*
X200889D01*
X200919Y-4938D01*
X200954Y-4949D01*
X200995Y-4961D01*
X201088Y-4984D01*
X201205Y-5014D01*
X201328Y-5049D01*
X201463Y-5090D01*
X201597Y-5137D01*
X202720Y-5558D01*
Y-4253D01*
D02*
G37*
G36*
X162487Y819D02*
X162411D01*
X162370Y813D01*
X162317D01*
X162206Y801D01*
X162083Y778D01*
X161943Y748D01*
X161803Y708D01*
X161668Y655D01*
X161662D01*
X161651Y649D01*
X161633Y637D01*
X161609Y626D01*
X161545Y591D01*
X161469Y538D01*
X161381Y474D01*
X161288Y392D01*
X161200Y298D01*
X161124Y193D01*
Y187D01*
X161118Y181D01*
X161106Y163D01*
X161095Y140D01*
X161065Y76D01*
X161024Y-6D01*
X160989Y-106D01*
X160960Y-223D01*
X160937Y-351D01*
X160931Y-492D01*
Y-497D01*
Y-515D01*
Y-544D01*
X160937Y-579D01*
X160943Y-626D01*
X160949Y-685D01*
X160960Y-743D01*
X160978Y-808D01*
X161024Y-954D01*
X161054Y-1030D01*
X161089Y-1106D01*
X161130Y-1188D01*
X161182Y-1264D01*
X161241Y-1340D01*
X161305Y-1416D01*
X161311Y-1422D01*
X161323Y-1433D01*
X161346Y-1451D01*
X161375Y-1474D01*
X161416Y-1504D01*
X161469Y-1539D01*
X161528Y-1574D01*
X161598Y-1609D01*
X161680Y-1644D01*
X161767Y-1679D01*
X161867Y-1714D01*
X161984Y-1744D01*
X162107Y-1767D01*
X162235Y-1784D01*
X162382Y-1796D01*
X162540Y-1802D01*
X162604D01*
X162657Y-1796D01*
X162715Y-1790D01*
X162779Y-1784D01*
X162856Y-1773D01*
X162937Y-1755D01*
X163113Y-1714D01*
X163201Y-1679D01*
X163294Y-1644D01*
X163382Y-1603D01*
X163470Y-1556D01*
X163558Y-1498D01*
X163634Y-1433D01*
X163639Y-1428D01*
X163651Y-1416D01*
X163669Y-1393D01*
X163698Y-1363D01*
X163727Y-1328D01*
X163757Y-1287D01*
X163797Y-1235D01*
X163832Y-1176D01*
X163868Y-1112D01*
X163903Y-1042D01*
X163938Y-965D01*
X163967Y-878D01*
X163996Y-790D01*
X164014Y-696D01*
X164026Y-603D01*
X164031Y-497D01*
Y-492D01*
Y-474D01*
Y-445D01*
X164026Y-404D01*
X164020Y-351D01*
X164008Y-299D01*
X163996Y-234D01*
X163979Y-164D01*
X163932Y-18D01*
X163903Y64D01*
X163862Y140D01*
X163815Y222D01*
X163762Y298D01*
X163704Y374D01*
X163634Y444D01*
X163628Y450D01*
X163616Y462D01*
X163593Y479D01*
X163558Y503D01*
X163517Y532D01*
X163464Y561D01*
X163406Y596D01*
X163341Y631D01*
X163259Y667D01*
X163177Y702D01*
X163084Y731D01*
X162978Y760D01*
X162867Y784D01*
X162750Y801D01*
X162622Y813D01*
X162487Y819D01*
D02*
G37*
%LPD*%
D35*
X260400Y-22500D02*
Y237500D01*
X-426250Y-22500D02*
X260400D01*
X-426250D02*
Y237500D01*
X260400D01*
D61*
X59400Y110598D02*
Y104600D01*
X56401D01*
X55401Y105600D01*
Y106599D01*
X56401Y107599D01*
X59400D01*
X56401D01*
X55401Y108599D01*
Y109598D01*
X56401Y110598D01*
X59400D01*
X53402Y104600D02*
Y108599D01*
X51403Y110598D01*
X49403Y108599D01*
Y104600D01*
Y107599D01*
X53402D01*
X47404Y110598D02*
X43405D01*
X45404D01*
Y104600D01*
X75800Y104200D02*
Y110198D01*
X72801D01*
X71801Y109198D01*
Y107199D01*
X72801Y106199D01*
X75800D01*
X66803Y104200D02*
Y110198D01*
X69802Y107199D01*
X65803D01*
X66558Y34798D02*
Y29800D01*
X65558Y28800D01*
X63559D01*
X62559Y29800D01*
Y34798D01*
X60560Y33798D02*
X59561Y34798D01*
X57561D01*
X56561Y33798D01*
Y32799D01*
X57561Y31799D01*
X56561Y30799D01*
Y29800D01*
X57561Y28800D01*
X59561D01*
X60560Y29800D01*
Y30799D01*
X59561Y31799D01*
X60560Y32799D01*
Y33798D01*
X59561Y31799D02*
X57561D01*
X53100Y161598D02*
Y156600D01*
X52100Y155600D01*
X50101D01*
X49101Y156600D01*
Y161598D01*
X47102D02*
X43103D01*
Y160598D01*
X47102Y156600D01*
Y155600D01*
X26059Y20600D02*
X32057D01*
Y23599D01*
X31057Y24599D01*
X29058D01*
X28058Y23599D01*
Y20600D01*
Y22599D02*
X26059Y24599D01*
Y30597D02*
Y26598D01*
X30058Y30597D01*
X31057D01*
X32057Y29597D01*
Y27598D01*
X31057Y26598D01*
X26059Y32596D02*
Y34595D01*
Y33596D01*
X32057D01*
X31057Y32596D01*
X57658Y13100D02*
Y19098D01*
X54659D01*
X53659Y18098D01*
Y16099D01*
X54659Y15099D01*
X57658D01*
X55659D02*
X53659Y13100D01*
X47661D02*
X51660D01*
X47661Y17099D01*
Y18098D01*
X48661Y19098D01*
X50661D01*
X51660Y18098D01*
X45662D02*
X44662Y19098D01*
X42663D01*
X41663Y18098D01*
Y14100D01*
X42663Y13100D01*
X44662D01*
X45662Y14100D01*
Y18098D01*
X22758Y19001D02*
Y24999D01*
X19759D01*
X18759Y23999D01*
Y22000D01*
X19759Y21000D01*
X22758D01*
X20759D02*
X18759Y19001D01*
X16760D02*
X14761D01*
X15761D01*
Y24999D01*
X16760Y23999D01*
X11762Y20000D02*
X10762Y19001D01*
X8763D01*
X7763Y20000D01*
Y23999D01*
X8763Y24999D01*
X10762D01*
X11762Y23999D01*
Y22999D01*
X10762Y22000D01*
X7763D01*
X74258Y13200D02*
Y19198D01*
X71259D01*
X70259Y18198D01*
Y16199D01*
X71259Y15199D01*
X74258D01*
X72259D02*
X70259Y13200D01*
X68260D02*
X66261D01*
X67260D01*
Y19198D01*
X68260Y18198D01*
X63262D02*
X62262Y19198D01*
X60263D01*
X59263Y18198D01*
Y17199D01*
X60263Y16199D01*
X59263Y15199D01*
Y14200D01*
X60263Y13200D01*
X62262D01*
X63262Y14200D01*
Y15199D01*
X62262Y16199D01*
X63262Y17199D01*
Y18198D01*
X62262Y16199D02*
X60263D01*
X30300Y181500D02*
Y187498D01*
X27301D01*
X26301Y186498D01*
Y184499D01*
X27301Y183499D01*
X30300D01*
X28301D02*
X26301Y181500D01*
X24302D02*
X22303D01*
X23302D01*
Y187498D01*
X24302Y186498D01*
X19304Y187498D02*
X15305D01*
Y186498D01*
X19304Y182500D01*
Y181500D01*
X66000Y198500D02*
Y204498D01*
X63001D01*
X62001Y203498D01*
Y201499D01*
X63001Y200499D01*
X66000D01*
X64001D02*
X62001Y198500D01*
X60002D02*
X58003D01*
X59002D01*
Y204498D01*
X60002Y203498D01*
X51005Y204498D02*
X53004Y203498D01*
X55004Y201499D01*
Y199500D01*
X54004Y198500D01*
X52004D01*
X51005Y199500D01*
Y200499D01*
X52004Y201499D01*
X55004D01*
X54200Y76898D02*
Y70900D01*
X50201D01*
X48202D02*
X46203D01*
X47202D01*
Y76898D01*
X48202Y75898D01*
X15809Y137972D02*
X19808D01*
Y134973D01*
X17808D01*
X19808D01*
Y131974D01*
X13810D02*
X11811D01*
X12810D01*
Y137972D01*
X13810Y136972D01*
X40057Y58999D02*
X41056Y57999D01*
Y56000D01*
X40057Y55000D01*
X36058D01*
X35058Y56000D01*
Y57999D01*
X36058Y58999D01*
X35058Y64997D02*
Y60998D01*
X39057Y64997D01*
X40057D01*
X41056Y63997D01*
Y61998D01*
X40057Y60998D01*
X41056Y70995D02*
Y66996D01*
X38057D01*
X39057Y68995D01*
Y69995D01*
X38057Y70995D01*
X36058D01*
X35058Y69995D01*
Y67996D01*
X36058Y66996D01*
X16410Y48409D02*
X15410Y49409D01*
Y51408D01*
X16410Y52408D01*
X20409D01*
X21408Y51408D01*
Y49409D01*
X20409Y48409D01*
X21408Y42411D02*
Y46410D01*
X17410Y42411D01*
X16410D01*
X15410Y43411D01*
Y45410D01*
X16410Y46410D01*
X21408Y37413D02*
X15410D01*
X18409Y40412D01*
Y36413D01*
X72766Y50883D02*
X71766Y51883D01*
Y53882D01*
X72766Y54882D01*
X76765D01*
X77764Y53882D01*
Y51883D01*
X76765Y50883D01*
X77764Y44885D02*
Y48884D01*
X73766Y44885D01*
X72766D01*
X71766Y45885D01*
Y47884D01*
X72766Y48884D01*
Y42886D02*
X71766Y41886D01*
Y39887D01*
X72766Y38887D01*
X73766D01*
X74765Y39887D01*
Y40886D01*
Y39887D01*
X75765Y38887D01*
X76765D01*
X77764Y39887D01*
Y41886D01*
X76765Y42886D01*
X69849Y398D02*
X70849Y1398D01*
X72848D01*
X73848Y398D01*
Y-3600D01*
X72848Y-4600D01*
X70849D01*
X69849Y-3600D01*
X63851Y-4600D02*
X67850D01*
X63851Y-601D01*
Y398D01*
X64851Y1398D01*
X66850D01*
X67850Y398D01*
X61852Y-4600D02*
X59852D01*
X60852D01*
Y1398D01*
X61852Y398D01*
X-299609Y105795D02*
X-298609Y106795D01*
X-296610D01*
X-295610Y105795D01*
Y101796D01*
X-296610Y100797D01*
X-298609D01*
X-299609Y101796D01*
X-301608Y100797D02*
X-303608D01*
X-302608D01*
Y106795D01*
X-301608Y105795D01*
X-306607Y101796D02*
X-307606Y100797D01*
X-309606D01*
X-310605Y101796D01*
Y105795D01*
X-309606Y106795D01*
X-307606D01*
X-306607Y105795D01*
Y104796D01*
X-307606Y103796D01*
X-310605D01*
X-1509Y148348D02*
X-509Y149348D01*
X1490D01*
X2490Y148348D01*
Y144349D01*
X1490Y143350D01*
X-509D01*
X-1509Y144349D01*
X-3508Y143350D02*
X-5508D01*
X-4508D01*
Y149348D01*
X-3508Y148348D01*
X-8507D02*
X-9506Y149348D01*
X-11506D01*
X-12505Y148348D01*
Y147348D01*
X-11506Y146349D01*
X-12505Y145349D01*
Y144349D01*
X-11506Y143350D01*
X-9506D01*
X-8507Y144349D01*
Y145349D01*
X-9506Y146349D01*
X-8507Y147348D01*
Y148348D01*
X-9506Y146349D02*
X-11506D01*
X80301Y171298D02*
X81301Y172298D01*
X83300D01*
X84300Y171298D01*
Y167300D01*
X83300Y166300D01*
X81301D01*
X80301Y167300D01*
X78302Y166300D02*
X76303D01*
X77302D01*
Y172298D01*
X78302Y171298D01*
X73304Y172298D02*
X69305D01*
Y171298D01*
X73304Y167300D01*
Y166300D01*
X31601Y112098D02*
X32601Y113098D01*
X34600D01*
X35600Y112098D01*
Y108100D01*
X34600Y107100D01*
X32601D01*
X31601Y108100D01*
X29602Y107100D02*
X27603D01*
X28602D01*
Y113098D01*
X29602Y112098D01*
X20605Y113098D02*
X22604Y112098D01*
X24604Y110099D01*
Y108100D01*
X23604Y107100D01*
X21605D01*
X20605Y108100D01*
Y109099D01*
X21605Y110099D01*
X24604D01*
X-299609Y87158D02*
X-298609Y88158D01*
X-296610D01*
X-295610Y87158D01*
Y83160D01*
X-296610Y82160D01*
X-298609D01*
X-299609Y83160D01*
X-301608Y82160D02*
X-303608D01*
X-302608D01*
Y88158D01*
X-301608Y87158D01*
X-310605Y88158D02*
X-306607D01*
Y85159D01*
X-308606Y86159D01*
X-309606D01*
X-310605Y85159D01*
Y83160D01*
X-309606Y82160D01*
X-307606D01*
X-306607Y83160D01*
X25945Y175288D02*
X26944Y176287D01*
X28944D01*
X29943Y175288D01*
Y171289D01*
X28944Y170289D01*
X26944D01*
X25945Y171289D01*
X23945Y170289D02*
X21946D01*
X22946D01*
Y176287D01*
X23945Y175288D01*
X15948Y170289D02*
Y176287D01*
X18947Y173288D01*
X14948D01*
X-151481Y90469D02*
X-152481Y91469D01*
Y93468D01*
X-151481Y94468D01*
X-147482D01*
X-146483Y93468D01*
Y91469D01*
X-147482Y90469D01*
X-146483Y88470D02*
Y86470D01*
Y87470D01*
X-152481D01*
X-151481Y88470D01*
Y83471D02*
X-152481Y82472D01*
Y80472D01*
X-151481Y79473D01*
X-150481D01*
X-149482Y80472D01*
Y81472D01*
Y80472D01*
X-148482Y79473D01*
X-147482D01*
X-146483Y80472D01*
Y82472D01*
X-147482Y83471D01*
X-181148Y89427D02*
X-182148Y90427D01*
Y92426D01*
X-181148Y93426D01*
X-177150D01*
X-176150Y92426D01*
Y90427D01*
X-177150Y89427D01*
X-176150Y87428D02*
Y85428D01*
Y86428D01*
X-182148D01*
X-181148Y87428D01*
X-176150Y78430D02*
Y82429D01*
X-180149Y78430D01*
X-181148D01*
X-182148Y79430D01*
Y81429D01*
X-181148Y82429D01*
X-245181Y197998D02*
Y193000D01*
X-246181Y192000D01*
X-248181D01*
X-249180Y193000D01*
Y197998D01*
X-254179Y192000D02*
Y197998D01*
X-251180Y194999D01*
X-255178D01*
X-311809Y150966D02*
X-310809Y151966D01*
X-308809D01*
X-307810Y150966D01*
Y146967D01*
X-308809Y145968D01*
X-310809D01*
X-311809Y146967D01*
X-313808Y150966D02*
X-314808Y151966D01*
X-316807D01*
X-317807Y150966D01*
Y149966D01*
X-316807Y148967D01*
X-317807Y147967D01*
Y146967D01*
X-316807Y145968D01*
X-314808D01*
X-313808Y146967D01*
Y147967D01*
X-314808Y148967D01*
X-313808Y149966D01*
Y150966D01*
X-314808Y148967D02*
X-316807D01*
X-350000Y137850D02*
Y143848D01*
X-352999D01*
X-353999Y142849D01*
Y140849D01*
X-352999Y139850D01*
X-350000D01*
X-351999D02*
X-353999Y137850D01*
X-359997D02*
X-355998D01*
X-359997Y141849D01*
Y142849D01*
X-358997Y143848D01*
X-356998D01*
X-355998Y142849D01*
X-333915Y139014D02*
X-337914D01*
X-338914Y140014D01*
Y142013D01*
X-337914Y143013D01*
X-333915D01*
X-332916Y142013D01*
Y140014D01*
X-334915Y141013D02*
X-332916Y139014D01*
Y140014D02*
X-333915Y139014D01*
X-332916Y137014D02*
Y135015D01*
Y136015D01*
X-338914D01*
X-337914Y137014D01*
X-296899Y151011D02*
X-295899Y152011D01*
X-293900D01*
X-292900Y151011D01*
Y147012D01*
X-293900Y146013D01*
X-295899D01*
X-296899Y147012D01*
X-298898D02*
X-299898Y146013D01*
X-301897D01*
X-302897Y147012D01*
Y151011D01*
X-301897Y152011D01*
X-299898D01*
X-298898Y151011D01*
Y150011D01*
X-299898Y149012D01*
X-302897D01*
X-262075Y194968D02*
X-268074D01*
Y191969D01*
X-267074Y190970D01*
X-265074D01*
X-264075Y191969D01*
Y194968D01*
Y192969D02*
X-262075Y190970D01*
X-267074Y188970D02*
X-268074Y187971D01*
Y185971D01*
X-267074Y184972D01*
X-266074D01*
X-265074Y185971D01*
Y186971D01*
Y185971D01*
X-264075Y184972D01*
X-263075D01*
X-262075Y185971D01*
Y187971D01*
X-263075Y188970D01*
X-120028Y176680D02*
Y182678D01*
X-123027D01*
X-124027Y181678D01*
Y179678D01*
X-123027Y178679D01*
X-120028D01*
X-122028D02*
X-124027Y176680D01*
X-126026D02*
X-128026D01*
X-127026D01*
Y182678D01*
X-126026Y181678D01*
X-252100Y157800D02*
X-258098D01*
Y154801D01*
X-257098Y153801D01*
X-255099D01*
X-254099Y154801D01*
Y157800D01*
Y155801D02*
X-252100Y153801D01*
Y151802D02*
Y149803D01*
Y150802D01*
X-258098D01*
X-257098Y151802D01*
X-252100Y142805D02*
Y146804D01*
X-256099Y142805D01*
X-257098D01*
X-258098Y143805D01*
Y145804D01*
X-257098Y146804D01*
X-235302Y149899D02*
X-234302Y148899D01*
Y146900D01*
X-235302Y145900D01*
X-239300D01*
X-240300Y146900D01*
Y148899D01*
X-239300Y149899D01*
X-234302Y155897D02*
Y151898D01*
X-237301D01*
X-236301Y153897D01*
Y154897D01*
X-237301Y155897D01*
X-239300D01*
X-240300Y154897D01*
Y152898D01*
X-239300Y151898D01*
X220200Y-16358D02*
X226198D01*
Y-13359D01*
X225198Y-12359D01*
X223199D01*
X222199Y-13359D01*
Y-16358D01*
X225198Y-10360D02*
X226198Y-9360D01*
Y-7361D01*
X225198Y-6361D01*
X224199D01*
X223199Y-7361D01*
Y-8360D01*
Y-7361D01*
X222199Y-6361D01*
X221200D01*
X220200Y-7361D01*
Y-9360D01*
X221200Y-10360D01*
D68*
X43755Y52697D02*
G03*
X43755Y52697I-197J0D01*
G01*
X52384Y178432D02*
G03*
X52384Y178432I-492J0D01*
G01*
X-301506Y145206D02*
G03*
X-301506Y145206I-394J0D01*
G01*
X-160857Y96861D02*
G03*
X-160857Y96861I-394J0D01*
G01*
X21787Y113300D02*
G03*
X21787Y113300I-394J0D01*
G01*
X63752Y55194D02*
G03*
X63752Y55194I-394J0D01*
G01*
X-326500Y130813D02*
G03*
X-326500Y130813I-492J0D01*
G01*
X-252631Y173900D02*
G03*
X-252631Y173900I-492J0D01*
G01*
D71*
X4650Y130006D02*
X10950D01*
X4650Y118194D02*
X10950D01*
X56951Y48228D02*
Y50393D01*
Y37007D02*
Y39172D01*
X43565Y37007D02*
Y39172D01*
Y48228D02*
Y50393D01*
X44195D01*
X56321D02*
X56951D01*
X56321Y37007D02*
X56951D01*
X43565D02*
X44195D01*
X47622Y164030D02*
Y176234D01*
X50378Y164030D02*
Y176234D01*
X47622Y164030D02*
X50378D01*
X47622Y176234D02*
X50378D01*
X49794Y56094D02*
Y57669D01*
X66723Y56094D02*
Y57669D01*
X49794Y66331D02*
Y68000D01*
X66723Y66331D02*
Y68000D01*
X49794Y56094D02*
X66723D01*
X49794Y68000D02*
X66723D01*
X-324894Y133507D02*
X-321744D01*
Y136657D01*
X-324894Y145318D02*
X-321744D01*
Y142168D02*
Y145318D01*
X-251025Y176594D02*
X-247876D01*
Y179744D01*
X-251025Y188406D02*
X-247876D01*
Y185256D02*
Y188406D01*
X147200Y-18658D02*
X217200D01*
X147200D02*
Y-8658D01*
X217200D01*
Y-18658D02*
Y-8658D01*
M02*
