%FSLAX25Y25*%
%MOIN*%
G70*
G01*
G75*
G04 Layer_Color=32896*
G04:AMPARAMS|DCode=10|XSize=23.62mil|YSize=61.02mil|CornerRadius=5.91mil|HoleSize=0mil|Usage=FLASHONLY|Rotation=0.000|XOffset=0mil|YOffset=0mil|HoleType=Round|Shape=RoundedRectangle|*
%AMROUNDEDRECTD10*
21,1,0.02362,0.04921,0,0,0.0*
21,1,0.01181,0.06102,0,0,0.0*
1,1,0.01181,0.00591,-0.02461*
1,1,0.01181,-0.00591,-0.02461*
1,1,0.01181,-0.00591,0.02461*
1,1,0.01181,0.00591,0.02461*
%
%ADD10ROUNDEDRECTD10*%
%ADD11R,0.05906X0.09843*%
%ADD12O,0.07480X0.02362*%
%ADD13O,0.01378X0.07087*%
%ADD14R,0.09843X0.05906*%
G04:AMPARAMS|DCode=15|XSize=23.62mil|YSize=61.02mil|CornerRadius=5.91mil|HoleSize=0mil|Usage=FLASHONLY|Rotation=270.000|XOffset=0mil|YOffset=0mil|HoleType=Round|Shape=RoundedRectangle|*
%AMROUNDEDRECTD15*
21,1,0.02362,0.04921,0,0,270.0*
21,1,0.01181,0.06102,0,0,270.0*
1,1,0.01181,-0.02461,-0.00591*
1,1,0.01181,-0.02461,0.00591*
1,1,0.01181,0.02461,0.00591*
1,1,0.01181,0.02461,-0.00591*
%
%ADD15ROUNDEDRECTD15*%
%ADD16R,0.04724X0.05315*%
%ADD17R,0.05315X0.04724*%
%ADD18R,0.05709X0.04528*%
%ADD19R,0.04528X0.05709*%
%ADD20R,0.04134X0.04331*%
%ADD21R,0.05315X0.03937*%
%ADD22R,0.03937X0.05315*%
%ADD23R,0.03150X0.01969*%
%ADD24R,0.01969X0.03150*%
%ADD25C,0.02000*%
%ADD26C,0.01500*%
%ADD27C,0.03000*%
%ADD28C,0.01300*%
%ADD29C,0.05000*%
%ADD30C,0.04000*%
%ADD31C,0.06500*%
%ADD32C,0.06000*%
%ADD33C,0.03937*%
%ADD34C,0.01000*%
%ADD35C,0.00100*%
%ADD36C,0.05906*%
%ADD37R,0.05906X0.05906*%
%ADD38C,0.11024*%
%ADD39C,0.15354*%
%ADD40C,0.06000*%
%ADD41C,0.11417*%
%ADD42R,0.05906X0.05906*%
%ADD43P,0.05966X8X112.5*%
%ADD44C,0.05512*%
%ADD45C,0.11811*%
%ADD46C,0.07874*%
%ADD47C,0.05213*%
G04:AMPARAMS|DCode=48|XSize=42.52mil|YSize=145.67mil|CornerRadius=10.63mil|HoleSize=0mil|Usage=FLASHONLY|Rotation=270.000|XOffset=0mil|YOffset=0mil|HoleType=Round|Shape=RoundedRectangle|*
%AMROUNDEDRECTD48*
21,1,0.04252,0.12441,0,0,270.0*
21,1,0.02126,0.14567,0,0,270.0*
1,1,0.02126,-0.06221,-0.01063*
1,1,0.02126,-0.06221,0.01063*
1,1,0.02126,0.06221,0.01063*
1,1,0.02126,0.06221,-0.01063*
%
%ADD48ROUNDEDRECTD48*%
%ADD49C,0.05000*%
%ADD50C,0.04000*%
%ADD51C,0.02000*%
%ADD52C,0.06200*%
%ADD53C,0.02284*%
%ADD54C,0.10236*%
%ADD55C,0.15700*%
%ADD56R,0.06693X0.12598*%
%ADD57R,0.09449X0.06496*%
%ADD58O,0.01102X0.03347*%
%ADD59R,0.03543X0.02559*%
%ADD60R,0.06102X0.05512*%
%ADD61R,0.03937X0.02362*%
%ADD62R,0.04331X0.04134*%
%ADD63C,0.04500*%
%ADD64C,0.02500*%
%ADD65C,0.07000*%
%ADD66C,0.03500*%
%ADD67C,0.05500*%
%ADD68R,0.02756X0.01102*%
%ADD69R,0.02756X0.01102*%
%ADD70R,0.02756X0.01102*%
%ADD71C,0.01575*%
%ADD72C,0.02362*%
%ADD73C,0.00787*%
%ADD74C,0.00800*%
G04:AMPARAMS|DCode=75|XSize=31.62mil|YSize=69.02mil|CornerRadius=9.91mil|HoleSize=0mil|Usage=FLASHONLY|Rotation=0.000|XOffset=0mil|YOffset=0mil|HoleType=Round|Shape=RoundedRectangle|*
%AMROUNDEDRECTD75*
21,1,0.03162,0.04921,0,0,0.0*
21,1,0.01181,0.06902,0,0,0.0*
1,1,0.01981,0.00591,-0.02461*
1,1,0.01981,-0.00591,-0.02461*
1,1,0.01981,-0.00591,0.02461*
1,1,0.01981,0.00591,0.02461*
%
%ADD75ROUNDEDRECTD75*%
%ADD76R,0.06706X0.10642*%
%ADD77O,0.08280X0.03162*%
%ADD78O,0.02178X0.07887*%
%ADD79R,0.10642X0.06706*%
G04:AMPARAMS|DCode=80|XSize=31.62mil|YSize=69.02mil|CornerRadius=9.91mil|HoleSize=0mil|Usage=FLASHONLY|Rotation=270.000|XOffset=0mil|YOffset=0mil|HoleType=Round|Shape=RoundedRectangle|*
%AMROUNDEDRECTD80*
21,1,0.03162,0.04921,0,0,270.0*
21,1,0.01181,0.06902,0,0,270.0*
1,1,0.01981,-0.02461,-0.00591*
1,1,0.01981,-0.02461,0.00591*
1,1,0.01981,0.02461,0.00591*
1,1,0.01981,0.02461,-0.00591*
%
%ADD80ROUNDEDRECTD80*%
%ADD81R,0.05524X0.06115*%
%ADD82R,0.06115X0.05524*%
%ADD83R,0.06509X0.05328*%
%ADD84R,0.05328X0.06509*%
%ADD85R,0.04934X0.05131*%
%ADD86R,0.06115X0.04737*%
%ADD87R,0.04737X0.06115*%
%ADD88R,0.03950X0.02769*%
%ADD89R,0.02769X0.03950*%
%ADD90C,0.06706*%
%ADD91R,0.06706X0.06706*%
%ADD92C,0.11824*%
%ADD93C,0.16154*%
%ADD94C,0.06800*%
%ADD95C,0.12217*%
%ADD96R,0.06706X0.06706*%
%ADD97P,0.06832X8X112.5*%
%ADD98C,0.06312*%
%ADD99C,0.12611*%
%ADD100C,0.08674*%
%ADD101C,0.06013*%
G04:AMPARAMS|DCode=102|XSize=50.52mil|YSize=153.67mil|CornerRadius=14.63mil|HoleSize=0mil|Usage=FLASHONLY|Rotation=270.000|XOffset=0mil|YOffset=0mil|HoleType=Round|Shape=RoundedRectangle|*
%AMROUNDEDRECTD102*
21,1,0.05052,0.12441,0,0,270.0*
21,1,0.02126,0.15367,0,0,270.0*
1,1,0.02926,-0.06221,-0.01063*
1,1,0.02926,-0.06221,0.01063*
1,1,0.02926,0.06221,0.01063*
1,1,0.02926,0.06221,-0.01063*
%
%ADD102ROUNDEDRECTD102*%
%ADD103C,0.05800*%
%ADD104C,0.04800*%
%ADD105C,0.02800*%
%ADD106C,0.07000*%
%ADD107C,0.03084*%
%ADD108C,0.11036*%
%ADD109C,0.16500*%
%ADD110R,0.07493X0.13398*%
%ADD111R,0.10000X0.07047*%
%ADD112O,0.01654X0.03898*%
%ADD113R,0.04343X0.03359*%
%ADD114R,0.06902X0.06312*%
%ADD115R,0.04737X0.03162*%
%ADD116R,0.05131X0.04934*%
%ADD117R,0.03556X0.01902*%
%ADD118R,0.03556X0.01902*%
%ADD119R,0.03556X0.01902*%
%ADD120R,0.04134X0.02677*%
%ADD121R,0.01968X0.01024*%
%ADD122R,0.01969X0.01024*%
%ADD123R,0.04134X0.02677*%
%ADD124O,0.00906X0.03150*%
G36*
X629019Y24602D02*
X629066D01*
X629171Y24596D01*
X629288Y24584D01*
X629423Y24561D01*
X629558Y24538D01*
X629686Y24502D01*
X629692D01*
X629704Y24497D01*
X629721Y24491D01*
X629745Y24485D01*
X629803Y24462D01*
X629885Y24432D01*
X629973Y24397D01*
X630066Y24350D01*
X630160Y24298D01*
X630248Y24239D01*
X630260Y24233D01*
X630283Y24210D01*
X630324Y24181D01*
X630376Y24134D01*
X630429Y24087D01*
X630488Y24023D01*
X630546Y23958D01*
X630599Y23888D01*
X630605Y23882D01*
X630616Y23853D01*
X630640Y23812D01*
X630669Y23760D01*
X630698Y23695D01*
X630727Y23619D01*
X630757Y23531D01*
X630786Y23432D01*
Y23420D01*
X630798Y23385D01*
X630803Y23333D01*
X630815Y23257D01*
X630827Y23169D01*
X630839Y23063D01*
X630844Y22946D01*
X630850Y22818D01*
Y21437D01*
X627007D01*
Y22753D01*
Y22759D01*
Y22771D01*
Y22794D01*
Y22829D01*
Y22864D01*
Y22911D01*
X627013Y23011D01*
X627019Y23116D01*
X627030Y23233D01*
X627048Y23344D01*
X627065Y23438D01*
Y23444D01*
X627071Y23455D01*
Y23467D01*
X627083Y23491D01*
X627101Y23555D01*
X627130Y23631D01*
X627165Y23719D01*
X627212Y23812D01*
X627270Y23906D01*
X627340Y23999D01*
Y24005D01*
X627352Y24011D01*
X627387Y24052D01*
X627446Y24105D01*
X627522Y24169D01*
X627615Y24245D01*
X627726Y24321D01*
X627855Y24391D01*
X628001Y24456D01*
X628007D01*
X628019Y24462D01*
X628042Y24467D01*
X628072Y24479D01*
X628107Y24491D01*
X628154Y24502D01*
X628206Y24520D01*
X628265Y24532D01*
X628329Y24543D01*
X628399Y24561D01*
X628551Y24584D01*
X628721Y24602D01*
X628908Y24608D01*
X628984D01*
X629019Y24602D01*
D02*
G37*
G36*
X629797Y27626D02*
X629844Y27621D01*
X629891Y27615D01*
X629949Y27603D01*
X630008Y27585D01*
X630142Y27545D01*
X630219Y27515D01*
X630289Y27474D01*
X630359Y27433D01*
X630429Y27387D01*
X630499Y27328D01*
X630570Y27264D01*
X630575Y27258D01*
X630587Y27246D01*
X630599Y27229D01*
X630622Y27199D01*
X630651Y27164D01*
X630681Y27117D01*
X630710Y27065D01*
X630739Y27012D01*
X630774Y26948D01*
X630803Y26878D01*
X630833Y26801D01*
X630862Y26720D01*
X630885Y26632D01*
X630897Y26538D01*
X630909Y26439D01*
X630915Y26339D01*
Y26334D01*
Y26316D01*
Y26293D01*
X630909Y26258D01*
X630903Y26211D01*
X630897Y26164D01*
X630891Y26105D01*
X630880Y26047D01*
X630844Y25912D01*
X630786Y25772D01*
X630757Y25702D01*
X630716Y25637D01*
X630669Y25567D01*
X630616Y25503D01*
X630611Y25497D01*
X630605Y25491D01*
X630587Y25474D01*
X630564Y25450D01*
X630529Y25427D01*
X630493Y25398D01*
X630452Y25363D01*
X630406Y25333D01*
X630289Y25263D01*
X630154Y25205D01*
X630002Y25152D01*
X629920Y25134D01*
X629832Y25123D01*
X629768Y25596D01*
X629774D01*
X629786Y25602D01*
X629809D01*
X629832Y25614D01*
X629903Y25631D01*
X629990Y25661D01*
X630084Y25696D01*
X630183Y25743D01*
X630271Y25801D01*
X630347Y25866D01*
X630353Y25877D01*
X630376Y25901D01*
X630400Y25942D01*
X630435Y26000D01*
X630464Y26064D01*
X630493Y26146D01*
X630517Y26240D01*
X630523Y26339D01*
Y26345D01*
Y26357D01*
Y26375D01*
X630517Y26398D01*
X630511Y26456D01*
X630493Y26533D01*
X630464Y26626D01*
X630429Y26720D01*
X630371Y26813D01*
X630295Y26901D01*
X630283Y26913D01*
X630254Y26936D01*
X630207Y26971D01*
X630137Y27018D01*
X630055Y27059D01*
X629955Y27094D01*
X629844Y27117D01*
X629721Y27129D01*
X629692D01*
X629669Y27123D01*
X629610Y27117D01*
X629534Y27100D01*
X629452Y27077D01*
X629359Y27036D01*
X629271Y26983D01*
X629189Y26913D01*
X629177Y26901D01*
X629154Y26878D01*
X629125Y26831D01*
X629084Y26766D01*
X629043Y26690D01*
X629013Y26597D01*
X628990Y26497D01*
X628978Y26380D01*
Y26375D01*
Y26357D01*
Y26328D01*
X628984Y26287D01*
X628990Y26240D01*
X628996Y26182D01*
X629008Y26117D01*
X629025Y26047D01*
X628610Y26100D01*
Y26105D01*
Y26129D01*
X628616Y26152D01*
Y26176D01*
Y26182D01*
Y26187D01*
Y26205D01*
Y26228D01*
X628610Y26281D01*
X628598Y26357D01*
X628581Y26439D01*
X628551Y26527D01*
X628516Y26620D01*
X628464Y26714D01*
X628458Y26726D01*
X628434Y26755D01*
X628393Y26790D01*
X628341Y26837D01*
X628276Y26883D01*
X628194Y26919D01*
X628095Y26948D01*
X627978Y26959D01*
X627937D01*
X627890Y26948D01*
X627826Y26936D01*
X627762Y26919D01*
X627691Y26883D01*
X627615Y26842D01*
X627551Y26784D01*
X627545Y26778D01*
X627522Y26755D01*
X627492Y26714D01*
X627463Y26661D01*
X627428Y26597D01*
X627405Y26521D01*
X627381Y26433D01*
X627375Y26334D01*
Y26328D01*
Y26322D01*
Y26287D01*
X627387Y26234D01*
X627399Y26176D01*
X627416Y26100D01*
X627452Y26024D01*
X627492Y25947D01*
X627551Y25871D01*
X627557Y25866D01*
X627580Y25842D01*
X627621Y25813D01*
X627680Y25778D01*
X627750Y25737D01*
X627838Y25702D01*
X627943Y25667D01*
X628066Y25643D01*
X627984Y25169D01*
X627978D01*
X627960Y25175D01*
X627937Y25181D01*
X627908Y25187D01*
X627867Y25199D01*
X627820Y25210D01*
X627715Y25251D01*
X627598Y25298D01*
X627475Y25368D01*
X627358Y25450D01*
X627253Y25556D01*
X627247Y25561D01*
X627241Y25567D01*
X627229Y25585D01*
X627212Y25614D01*
X627194Y25643D01*
X627171Y25678D01*
X627118Y25766D01*
X627071Y25877D01*
X627030Y26012D01*
X627001Y26158D01*
X626989Y26240D01*
Y26322D01*
Y26328D01*
Y26334D01*
Y26351D01*
Y26375D01*
X626995Y26433D01*
X627007Y26509D01*
X627024Y26597D01*
X627048Y26696D01*
X627083Y26796D01*
X627130Y26895D01*
Y26901D01*
X627136Y26907D01*
X627153Y26942D01*
X627182Y26989D01*
X627223Y27047D01*
X627276Y27112D01*
X627340Y27182D01*
X627416Y27246D01*
X627498Y27305D01*
X627510Y27310D01*
X627539Y27328D01*
X627586Y27351D01*
X627644Y27375D01*
X627721Y27398D01*
X627803Y27422D01*
X627890Y27439D01*
X627990Y27445D01*
X628031D01*
X628077Y27439D01*
X628136Y27428D01*
X628206Y27410D01*
X628282Y27387D01*
X628364Y27357D01*
X628440Y27310D01*
X628452Y27305D01*
X628475Y27287D01*
X628510Y27252D01*
X628557Y27211D01*
X628610Y27153D01*
X628662Y27088D01*
X628721Y27006D01*
X628768Y26913D01*
Y26919D01*
X628774Y26930D01*
Y26948D01*
X628785Y26971D01*
X628803Y27030D01*
X628838Y27106D01*
X628879Y27188D01*
X628937Y27275D01*
X629008Y27363D01*
X629095Y27439D01*
X629107Y27445D01*
X629142Y27468D01*
X629195Y27498D01*
X629265Y27539D01*
X629353Y27574D01*
X629458Y27603D01*
X629581Y27626D01*
X629715Y27632D01*
X629762D01*
X629797Y27626D01*
D02*
G37*
G36*
X630850Y14850D02*
X627007D01*
Y15359D01*
X630400D01*
Y17248D01*
X630850D01*
Y14850D01*
D02*
G37*
G36*
Y17869D02*
X627007D01*
Y20647D01*
X627457D01*
Y18377D01*
X628639D01*
Y20501D01*
X629089D01*
Y18377D01*
X630400D01*
Y20735D01*
X630850D01*
Y17869D01*
D02*
G37*
G36*
X621050Y14850D02*
X617207D01*
Y15359D01*
X620600D01*
Y17248D01*
X621050D01*
Y14850D01*
D02*
G37*
G36*
Y25052D02*
X620986D01*
X620945Y25058D01*
X620898Y25064D01*
X620846Y25070D01*
X620787Y25087D01*
X620729Y25105D01*
X620723D01*
X620717Y25111D01*
X620682Y25123D01*
X620635Y25146D01*
X620565Y25181D01*
X620489Y25222D01*
X620401Y25280D01*
X620313Y25339D01*
X620220Y25415D01*
X620214D01*
X620208Y25427D01*
X620173Y25456D01*
X620120Y25503D01*
X620050Y25573D01*
X619968Y25661D01*
X619869Y25766D01*
X619758Y25895D01*
X619635Y26035D01*
X619629Y26041D01*
X619611Y26064D01*
X619588Y26094D01*
X619547Y26135D01*
X619506Y26187D01*
X619453Y26246D01*
X619342Y26375D01*
X619208Y26515D01*
X619073Y26655D01*
X619009Y26726D01*
X618944Y26784D01*
X618880Y26837D01*
X618821Y26883D01*
X618816D01*
X618810Y26895D01*
X618792Y26907D01*
X618769Y26919D01*
X618710Y26954D01*
X618634Y26995D01*
X618546Y27036D01*
X618453Y27071D01*
X618348Y27094D01*
X618248Y27106D01*
X618236D01*
X618201Y27100D01*
X618149Y27094D01*
X618084Y27082D01*
X618008Y27053D01*
X617932Y27018D01*
X617850Y26971D01*
X617774Y26901D01*
X617768Y26889D01*
X617745Y26866D01*
X617716Y26819D01*
X617675Y26761D01*
X617640Y26685D01*
X617611Y26597D01*
X617587Y26491D01*
X617581Y26375D01*
Y26369D01*
Y26357D01*
Y26339D01*
X617587Y26316D01*
X617593Y26258D01*
X617605Y26182D01*
X617634Y26094D01*
X617669Y26000D01*
X617722Y25912D01*
X617792Y25831D01*
X617804Y25825D01*
X617827Y25801D01*
X617874Y25766D01*
X617938Y25731D01*
X618020Y25690D01*
X618114Y25661D01*
X618225Y25637D01*
X618354Y25626D01*
X618301Y25140D01*
X618277D01*
X618248Y25146D01*
X618213Y25152D01*
X618166Y25164D01*
X618114Y25169D01*
X617997Y25205D01*
X617862Y25251D01*
X617728Y25316D01*
X617593Y25403D01*
X617534Y25450D01*
X617476Y25509D01*
X617470Y25515D01*
X617464Y25526D01*
X617447Y25544D01*
X617429Y25567D01*
X617412Y25602D01*
X617382Y25643D01*
X617359Y25690D01*
X617330Y25743D01*
X617306Y25801D01*
X617277Y25866D01*
X617254Y25942D01*
X617236Y26018D01*
X617201Y26193D01*
X617195Y26287D01*
X617189Y26386D01*
Y26392D01*
Y26410D01*
Y26439D01*
X617195Y26480D01*
X617201Y26527D01*
X617207Y26579D01*
X617213Y26638D01*
X617230Y26702D01*
X617265Y26842D01*
X617318Y26989D01*
X617353Y27065D01*
X617394Y27135D01*
X617447Y27199D01*
X617499Y27264D01*
X617505Y27270D01*
X617511Y27275D01*
X617529Y27293D01*
X617552Y27316D01*
X617587Y27340D01*
X617622Y27369D01*
X617710Y27428D01*
X617821Y27486D01*
X617950Y27539D01*
X618096Y27580D01*
X618178Y27585D01*
X618260Y27591D01*
X618301D01*
X618348Y27585D01*
X618406Y27580D01*
X618476Y27568D01*
X618552Y27550D01*
X618634Y27527D01*
X618716Y27492D01*
X618728Y27486D01*
X618757Y27474D01*
X618798Y27451D01*
X618857Y27416D01*
X618927Y27375D01*
X619009Y27322D01*
X619091Y27252D01*
X619184Y27176D01*
X619196Y27164D01*
X619231Y27135D01*
X619284Y27082D01*
X619319Y27047D01*
X619360Y27006D01*
X619407Y26959D01*
X619459Y26901D01*
X619512Y26842D01*
X619576Y26778D01*
X619640Y26708D01*
X619711Y26626D01*
X619781Y26544D01*
X619863Y26450D01*
X619869Y26445D01*
X619880Y26433D01*
X619898Y26410D01*
X619921Y26380D01*
X619980Y26310D01*
X620056Y26222D01*
X620138Y26135D01*
X620220Y26041D01*
X620290Y25965D01*
X620319Y25936D01*
X620348Y25907D01*
X620354Y25901D01*
X620372Y25889D01*
X620395Y25866D01*
X620430Y25836D01*
X620506Y25772D01*
X620600Y25708D01*
Y27597D01*
X621050D01*
Y25052D01*
D02*
G37*
G36*
X611250Y14850D02*
X607407D01*
Y15359D01*
X610800D01*
Y17248D01*
X611250D01*
Y14850D01*
D02*
G37*
G36*
X621050Y17869D02*
X617207D01*
Y20647D01*
X617657D01*
Y18377D01*
X618839D01*
Y20501D01*
X619289D01*
Y18377D01*
X620600D01*
Y20735D01*
X621050D01*
Y17869D01*
D02*
G37*
G36*
X619219Y24602D02*
X619266D01*
X619371Y24596D01*
X619488Y24584D01*
X619623Y24561D01*
X619758Y24538D01*
X619886Y24502D01*
X619892D01*
X619904Y24497D01*
X619921Y24491D01*
X619945Y24485D01*
X620003Y24462D01*
X620085Y24432D01*
X620173Y24397D01*
X620266Y24350D01*
X620360Y24298D01*
X620448Y24239D01*
X620460Y24233D01*
X620483Y24210D01*
X620524Y24181D01*
X620576Y24134D01*
X620629Y24087D01*
X620688Y24023D01*
X620746Y23958D01*
X620799Y23888D01*
X620805Y23882D01*
X620816Y23853D01*
X620840Y23812D01*
X620869Y23760D01*
X620898Y23695D01*
X620927Y23619D01*
X620957Y23531D01*
X620986Y23432D01*
Y23420D01*
X620998Y23385D01*
X621003Y23333D01*
X621015Y23257D01*
X621027Y23169D01*
X621039Y23063D01*
X621044Y22946D01*
X621050Y22818D01*
Y21437D01*
X617207D01*
Y22753D01*
Y22759D01*
Y22771D01*
Y22794D01*
Y22829D01*
Y22864D01*
Y22911D01*
X617213Y23011D01*
X617219Y23116D01*
X617230Y23233D01*
X617248Y23344D01*
X617265Y23438D01*
Y23444D01*
X617271Y23455D01*
Y23467D01*
X617283Y23491D01*
X617301Y23555D01*
X617330Y23631D01*
X617365Y23719D01*
X617412Y23812D01*
X617470Y23906D01*
X617540Y23999D01*
Y24005D01*
X617552Y24011D01*
X617587Y24052D01*
X617646Y24105D01*
X617722Y24169D01*
X617815Y24245D01*
X617926Y24321D01*
X618055Y24391D01*
X618201Y24456D01*
X618207D01*
X618219Y24462D01*
X618242Y24467D01*
X618272Y24479D01*
X618307Y24491D01*
X618354Y24502D01*
X618406Y24520D01*
X618465Y24532D01*
X618529Y24543D01*
X618599Y24561D01*
X618751Y24584D01*
X618921Y24602D01*
X619108Y24608D01*
X619184D01*
X619219Y24602D01*
D02*
G37*
G36*
X649519Y26187D02*
X649566D01*
X649671Y26182D01*
X649788Y26170D01*
X649923Y26146D01*
X650058Y26123D01*
X650186Y26088D01*
X650192D01*
X650204Y26082D01*
X650221Y26076D01*
X650245Y26070D01*
X650303Y26047D01*
X650385Y26018D01*
X650473Y25982D01*
X650566Y25936D01*
X650660Y25883D01*
X650748Y25825D01*
X650760Y25819D01*
X650783Y25795D01*
X650824Y25766D01*
X650877Y25719D01*
X650929Y25673D01*
X650988Y25608D01*
X651046Y25544D01*
X651099Y25474D01*
X651105Y25468D01*
X651116Y25438D01*
X651140Y25398D01*
X651169Y25345D01*
X651198Y25280D01*
X651228Y25205D01*
X651257Y25117D01*
X651286Y25017D01*
Y25006D01*
X651298Y24971D01*
X651303Y24918D01*
X651315Y24842D01*
X651327Y24754D01*
X651339Y24649D01*
X651344Y24532D01*
X651350Y24403D01*
Y23022D01*
X647507D01*
Y24339D01*
Y24345D01*
Y24356D01*
Y24380D01*
Y24415D01*
Y24450D01*
Y24497D01*
X647513Y24596D01*
X647519Y24701D01*
X647530Y24818D01*
X647548Y24930D01*
X647565Y25023D01*
Y25029D01*
X647571Y25041D01*
Y25052D01*
X647583Y25076D01*
X647601Y25140D01*
X647630Y25216D01*
X647665Y25304D01*
X647712Y25398D01*
X647770Y25491D01*
X647840Y25585D01*
Y25591D01*
X647852Y25596D01*
X647887Y25637D01*
X647946Y25690D01*
X648022Y25754D01*
X648115Y25831D01*
X648226Y25907D01*
X648355Y25977D01*
X648501Y26041D01*
X648507D01*
X648519Y26047D01*
X648542Y26053D01*
X648572Y26064D01*
X648607Y26076D01*
X648654Y26088D01*
X648706Y26105D01*
X648765Y26117D01*
X648829Y26129D01*
X648899Y26146D01*
X649051Y26170D01*
X649221Y26187D01*
X649408Y26193D01*
X649484D01*
X649519Y26187D01*
D02*
G37*
G36*
X641350Y17863D02*
X640186Y17418D01*
Y15804D01*
X641350Y15388D01*
Y14850D01*
X637507Y16318D01*
Y16874D01*
X641350Y18436D01*
Y17863D01*
D02*
G37*
G36*
X650824Y18395D02*
X650830Y18383D01*
X650847Y18366D01*
X650865Y18337D01*
X650894Y18302D01*
X650917Y18261D01*
X650988Y18161D01*
X651058Y18044D01*
X651134Y17915D01*
X651204Y17769D01*
X651268Y17623D01*
Y17617D01*
X651274Y17605D01*
X651280Y17582D01*
X651292Y17553D01*
X651303Y17518D01*
X651315Y17477D01*
X651327Y17424D01*
X651339Y17371D01*
X651368Y17248D01*
X651391Y17114D01*
X651409Y16962D01*
X651415Y16810D01*
Y16804D01*
Y16786D01*
Y16757D01*
X651409Y16716D01*
Y16664D01*
X651403Y16605D01*
X651397Y16541D01*
X651385Y16470D01*
X651356Y16307D01*
X651315Y16137D01*
X651257Y15956D01*
X651175Y15780D01*
X651169Y15774D01*
X651163Y15763D01*
X651151Y15733D01*
X651128Y15704D01*
X651105Y15663D01*
X651075Y15622D01*
X650999Y15523D01*
X650900Y15406D01*
X650777Y15295D01*
X650637Y15183D01*
X650479Y15084D01*
X650473D01*
X650455Y15072D01*
X650432Y15061D01*
X650397Y15049D01*
X650356Y15031D01*
X650303Y15008D01*
X650245Y14990D01*
X650175Y14967D01*
X650104Y14944D01*
X650022Y14926D01*
X649847Y14885D01*
X649654Y14862D01*
X649449Y14850D01*
X649396D01*
X649356Y14856D01*
X649303D01*
X649244Y14862D01*
X649180Y14867D01*
X649110Y14879D01*
X648946Y14909D01*
X648771Y14949D01*
X648583Y15008D01*
X648402Y15084D01*
X648396D01*
X648379Y15096D01*
X648355Y15107D01*
X648320Y15125D01*
X648279Y15154D01*
X648238Y15183D01*
X648127Y15254D01*
X648010Y15353D01*
X647893Y15464D01*
X647782Y15605D01*
X647729Y15675D01*
X647682Y15757D01*
Y15763D01*
X647671Y15774D01*
X647659Y15804D01*
X647647Y15833D01*
X647624Y15874D01*
X647606Y15926D01*
X647583Y15985D01*
X647559Y16049D01*
X647542Y16119D01*
X647519Y16195D01*
X647478Y16371D01*
X647454Y16558D01*
X647442Y16769D01*
Y16775D01*
Y16786D01*
Y16810D01*
Y16839D01*
X647448Y16874D01*
Y16921D01*
X647460Y17020D01*
X647478Y17131D01*
X647501Y17260D01*
X647536Y17389D01*
X647583Y17518D01*
Y17523D01*
X647589Y17535D01*
X647595Y17553D01*
X647606Y17576D01*
X647636Y17635D01*
X647682Y17711D01*
X647735Y17798D01*
X647799Y17886D01*
X647870Y17974D01*
X647957Y18050D01*
X647969Y18056D01*
X647998Y18079D01*
X648051Y18114D01*
X648127Y18161D01*
X648215Y18208D01*
X648320Y18255D01*
X648443Y18302D01*
X648583Y18342D01*
X648712Y17880D01*
X648706D01*
X648700Y17874D01*
X648665Y17869D01*
X648612Y17845D01*
X648542Y17822D01*
X648472Y17793D01*
X648396Y17758D01*
X648320Y17717D01*
X648250Y17670D01*
X648244Y17664D01*
X648221Y17646D01*
X648191Y17617D01*
X648150Y17576D01*
X648109Y17523D01*
X648063Y17459D01*
X648022Y17389D01*
X647981Y17301D01*
X647975Y17289D01*
X647963Y17260D01*
X647946Y17208D01*
X647928Y17143D01*
X647910Y17067D01*
X647893Y16979D01*
X647881Y16880D01*
X647875Y16775D01*
Y16769D01*
Y16757D01*
Y16739D01*
Y16716D01*
X647881Y16652D01*
X647887Y16570D01*
X647905Y16476D01*
X647922Y16371D01*
X647952Y16272D01*
X647987Y16172D01*
X647992Y16160D01*
X648004Y16131D01*
X648028Y16084D01*
X648063Y16026D01*
X648104Y15961D01*
X648150Y15891D01*
X648203Y15827D01*
X648267Y15763D01*
X648273Y15757D01*
X648297Y15739D01*
X648332Y15710D01*
X648379Y15675D01*
X648437Y15634D01*
X648501Y15593D01*
X648572Y15558D01*
X648648Y15523D01*
X648654D01*
X648665Y15517D01*
X648683Y15511D01*
X648712Y15499D01*
X648741Y15488D01*
X648782Y15476D01*
X648876Y15452D01*
X648993Y15423D01*
X649122Y15400D01*
X649268Y15382D01*
X649420Y15376D01*
X649467D01*
X649508Y15382D01*
X649548D01*
X649601Y15388D01*
X649660Y15394D01*
X649718Y15400D01*
X649859Y15417D01*
X650005Y15452D01*
X650145Y15494D01*
X650286Y15552D01*
X650291D01*
X650303Y15558D01*
X650321Y15570D01*
X650344Y15587D01*
X650403Y15628D01*
X650479Y15681D01*
X650561Y15751D01*
X650648Y15839D01*
X650730Y15944D01*
X650800Y16061D01*
Y16067D01*
X650806Y16079D01*
X650818Y16096D01*
X650824Y16119D01*
X650836Y16149D01*
X650853Y16190D01*
X650882Y16277D01*
X650912Y16389D01*
X650941Y16506D01*
X650958Y16640D01*
X650964Y16781D01*
Y16786D01*
Y16798D01*
Y16816D01*
Y16839D01*
X650958Y16903D01*
X650947Y16985D01*
X650935Y17079D01*
X650912Y17190D01*
X650882Y17307D01*
X650841Y17424D01*
Y17430D01*
X650836Y17436D01*
X650830Y17453D01*
X650818Y17477D01*
X650795Y17535D01*
X650760Y17605D01*
X650718Y17681D01*
X650672Y17758D01*
X650619Y17833D01*
X650566Y17904D01*
X649841D01*
Y16775D01*
X649391D01*
Y18401D01*
X650818D01*
X650824Y18395D01*
D02*
G37*
G36*
X651350Y21648D02*
X648332Y19629D01*
X651350D01*
Y19144D01*
X647507D01*
Y19659D01*
X650526Y21683D01*
X647507D01*
Y22168D01*
X651350D01*
Y21648D01*
D02*
G37*
G36*
X641350Y18828D02*
X637507D01*
Y19337D01*
X640900D01*
Y21226D01*
X641350D01*
Y18828D01*
D02*
G37*
G36*
X639876Y33494D02*
X639929D01*
X639993Y33488D01*
X640063Y33482D01*
X640210Y33465D01*
X640362Y33441D01*
X640514Y33412D01*
X640648Y33365D01*
X640654D01*
X640666Y33359D01*
X640683Y33354D01*
X640707Y33342D01*
X640765Y33307D01*
X640847Y33260D01*
X640935Y33196D01*
X641029Y33114D01*
X641116Y33008D01*
X641204Y32891D01*
Y32886D01*
X641216Y32874D01*
X641222Y32856D01*
X641239Y32827D01*
X641251Y32798D01*
X641268Y32757D01*
X641292Y32704D01*
X641309Y32651D01*
X641327Y32593D01*
X641350Y32523D01*
X641368Y32453D01*
X641380Y32371D01*
X641403Y32195D01*
X641415Y31996D01*
Y31991D01*
Y31973D01*
Y31944D01*
X641409Y31909D01*
Y31862D01*
X641403Y31809D01*
X641397Y31751D01*
X641391Y31686D01*
X641368Y31546D01*
X641339Y31400D01*
X641292Y31248D01*
X641233Y31113D01*
Y31107D01*
X641222Y31095D01*
X641216Y31084D01*
X641198Y31060D01*
X641157Y30996D01*
X641093Y30926D01*
X641017Y30844D01*
X640929Y30768D01*
X640818Y30692D01*
X640695Y30627D01*
X640689D01*
X640678Y30622D01*
X640660Y30616D01*
X640631Y30604D01*
X640596Y30592D01*
X640549Y30581D01*
X640496Y30569D01*
X640438Y30557D01*
X640373Y30540D01*
X640303Y30528D01*
X640221Y30516D01*
X640139Y30505D01*
X640046Y30493D01*
X639946Y30487D01*
X639841Y30481D01*
X637507D01*
Y30990D01*
X639853D01*
X639899Y30996D01*
X640011Y31002D01*
X640128Y31014D01*
X640250Y31025D01*
X640368Y31049D01*
X640420Y31060D01*
X640467Y31078D01*
X640479Y31084D01*
X640508Y31095D01*
X640549Y31119D01*
X640601Y31154D01*
X640660Y31195D01*
X640724Y31253D01*
X640783Y31318D01*
X640836Y31400D01*
X640841Y31411D01*
X640853Y31441D01*
X640876Y31487D01*
X640894Y31552D01*
X640917Y31634D01*
X640941Y31727D01*
X640952Y31833D01*
X640958Y31949D01*
Y31955D01*
Y31973D01*
Y32002D01*
X640952Y32043D01*
Y32090D01*
X640947Y32143D01*
X640929Y32260D01*
X640894Y32394D01*
X640853Y32523D01*
X640789Y32646D01*
X640754Y32704D01*
X640707Y32751D01*
X640701D01*
X640695Y32763D01*
X640678Y32774D01*
X640654Y32786D01*
X640625Y32809D01*
X640590Y32827D01*
X640543Y32851D01*
X640490Y32874D01*
X640426Y32891D01*
X640356Y32915D01*
X640280Y32938D01*
X640186Y32956D01*
X640087Y32967D01*
X639981Y32979D01*
X639859Y32991D01*
X637507D01*
Y33500D01*
X639823D01*
X639876Y33494D01*
D02*
G37*
G36*
X637957Y35834D02*
X641350D01*
Y35325D01*
X637957D01*
Y34061D01*
X637507D01*
Y37098D01*
X637957D01*
Y35834D01*
D02*
G37*
G36*
X641350Y24994D02*
X638133D01*
X641350Y23871D01*
Y23414D01*
X638080Y22309D01*
X641350D01*
Y21817D01*
X637507D01*
Y22578D01*
X640227Y23491D01*
X640233D01*
X640245Y23496D01*
X640262Y23502D01*
X640292Y23508D01*
X640356Y23531D01*
X640438Y23561D01*
X640531Y23590D01*
X640625Y23619D01*
X640719Y23648D01*
X640795Y23672D01*
X640783Y23678D01*
X640754Y23684D01*
X640707Y23701D01*
X640642Y23724D01*
X640555Y23748D01*
X640449Y23783D01*
X640327Y23830D01*
X640180Y23877D01*
X637507Y24795D01*
Y25485D01*
X641350D01*
Y24994D01*
D02*
G37*
G36*
X639537Y29814D02*
X639590D01*
X639648Y29808D01*
X639712Y29803D01*
X639788Y29791D01*
X639952Y29762D01*
X640128Y29721D01*
X640309Y29662D01*
X640485Y29580D01*
X640490D01*
X640502Y29569D01*
X640525Y29557D01*
X640561Y29539D01*
X640596Y29510D01*
X640642Y29481D01*
X640742Y29411D01*
X640853Y29317D01*
X640970Y29200D01*
X641081Y29065D01*
X641181Y28913D01*
Y28907D01*
X641192Y28896D01*
X641204Y28872D01*
X641216Y28837D01*
X641233Y28796D01*
X641257Y28750D01*
X641274Y28697D01*
X641298Y28633D01*
X641339Y28498D01*
X641380Y28340D01*
X641403Y28165D01*
X641415Y27983D01*
Y27977D01*
Y27960D01*
Y27931D01*
X641409Y27890D01*
Y27843D01*
X641403Y27790D01*
X641391Y27726D01*
X641380Y27656D01*
X641350Y27509D01*
X641303Y27346D01*
X641239Y27176D01*
X641204Y27094D01*
X641157Y27012D01*
X641151Y27006D01*
X641146Y26995D01*
X641128Y26971D01*
X641111Y26942D01*
X641081Y26907D01*
X641052Y26866D01*
X640970Y26772D01*
X640865Y26667D01*
X640748Y26556D01*
X640601Y26456D01*
X640444Y26363D01*
X640438D01*
X640420Y26351D01*
X640397Y26345D01*
X640362Y26328D01*
X640321Y26310D01*
X640274Y26293D01*
X640215Y26275D01*
X640151Y26258D01*
X640081Y26234D01*
X640011Y26217D01*
X639847Y26182D01*
X639671Y26158D01*
X639484Y26146D01*
X639443D01*
X639391Y26152D01*
X639326D01*
X639244Y26164D01*
X639151Y26176D01*
X639051Y26187D01*
X638934Y26211D01*
X638817Y26240D01*
X638694Y26269D01*
X638572Y26310D01*
X638449Y26363D01*
X638326Y26421D01*
X638203Y26486D01*
X638092Y26568D01*
X637987Y26655D01*
X637981Y26661D01*
X637963Y26679D01*
X637934Y26708D01*
X637899Y26749D01*
X637858Y26801D01*
X637817Y26860D01*
X637764Y26930D01*
X637712Y27012D01*
X637665Y27106D01*
X637612Y27205D01*
X637571Y27316D01*
X637524Y27433D01*
X637495Y27556D01*
X637466Y27691D01*
X637448Y27837D01*
X637442Y27983D01*
Y27989D01*
Y28007D01*
Y28036D01*
X637448Y28071D01*
Y28118D01*
X637454Y28176D01*
X637466Y28235D01*
X637472Y28305D01*
X637507Y28451D01*
X637554Y28615D01*
X637612Y28779D01*
X637653Y28861D01*
X637700Y28943D01*
Y28949D01*
X637712Y28960D01*
X637723Y28984D01*
X637747Y29013D01*
X637770Y29048D01*
X637805Y29089D01*
X637881Y29182D01*
X637981Y29288D01*
X638104Y29399D01*
X638244Y29498D01*
X638408Y29592D01*
X638414D01*
X638431Y29604D01*
X638455Y29615D01*
X638490Y29627D01*
X638531Y29645D01*
X638583Y29662D01*
X638642Y29686D01*
X638706Y29709D01*
X638782Y29726D01*
X638858Y29750D01*
X639034Y29785D01*
X639227Y29808D01*
X639437Y29820D01*
X639496D01*
X639537Y29814D01*
D02*
G37*
G36*
X611250Y17869D02*
X607407D01*
Y20647D01*
X607857D01*
Y18377D01*
X609039D01*
Y20501D01*
X609489D01*
Y18377D01*
X610800D01*
Y20735D01*
X611250D01*
Y17869D01*
D02*
G37*
G36*
X599637Y35658D02*
X599689D01*
X599748Y35653D01*
X599812Y35647D01*
X599888Y35635D01*
X600052Y35606D01*
X600228Y35565D01*
X600409Y35506D01*
X600585Y35425D01*
X600590D01*
X600602Y35413D01*
X600626Y35401D01*
X600661Y35383D01*
X600696Y35354D01*
X600742Y35325D01*
X600842Y35255D01*
X600953Y35161D01*
X601070Y35044D01*
X601181Y34910D01*
X601281Y34758D01*
Y34752D01*
X601292Y34740D01*
X601304Y34717D01*
X601316Y34681D01*
X601333Y34641D01*
X601357Y34594D01*
X601374Y34541D01*
X601398Y34477D01*
X601439Y34342D01*
X601480Y34184D01*
X601503Y34009D01*
X601515Y33827D01*
Y33822D01*
Y33804D01*
Y33775D01*
X601509Y33734D01*
Y33687D01*
X601503Y33634D01*
X601491Y33570D01*
X601480Y33500D01*
X601450Y33354D01*
X601404Y33190D01*
X601339Y33020D01*
X601304Y32938D01*
X601257Y32856D01*
X601251Y32851D01*
X601246Y32839D01*
X601228Y32815D01*
X601210Y32786D01*
X601181Y32751D01*
X601152Y32710D01*
X601070Y32616D01*
X600965Y32511D01*
X600848Y32400D01*
X600702Y32300D01*
X600544Y32207D01*
X600538D01*
X600520Y32195D01*
X600497Y32189D01*
X600462Y32172D01*
X600421Y32154D01*
X600374Y32137D01*
X600315Y32119D01*
X600251Y32102D01*
X600181Y32078D01*
X600111Y32061D01*
X599947Y32026D01*
X599771Y32002D01*
X599584Y31991D01*
X599543D01*
X599491Y31996D01*
X599426D01*
X599344Y32008D01*
X599251Y32020D01*
X599151Y32032D01*
X599034Y32055D01*
X598917Y32084D01*
X598794Y32113D01*
X598672Y32154D01*
X598549Y32207D01*
X598426Y32265D01*
X598303Y32330D01*
X598192Y32412D01*
X598087Y32500D01*
X598081Y32505D01*
X598063Y32523D01*
X598034Y32552D01*
X597999Y32593D01*
X597958Y32646D01*
X597917Y32704D01*
X597864Y32774D01*
X597812Y32856D01*
X597765Y32950D01*
X597712Y33049D01*
X597671Y33160D01*
X597624Y33277D01*
X597595Y33400D01*
X597566Y33535D01*
X597548Y33681D01*
X597542Y33827D01*
Y33833D01*
Y33851D01*
Y33880D01*
X597548Y33915D01*
Y33962D01*
X597554Y34020D01*
X597566Y34079D01*
X597572Y34149D01*
X597607Y34295D01*
X597654Y34459D01*
X597712Y34623D01*
X597753Y34705D01*
X597800Y34787D01*
Y34793D01*
X597812Y34804D01*
X597823Y34828D01*
X597847Y34857D01*
X597870Y34892D01*
X597905Y34933D01*
X597981Y35027D01*
X598081Y35132D01*
X598204Y35243D01*
X598344Y35342D01*
X598508Y35436D01*
X598514D01*
X598531Y35448D01*
X598555Y35460D01*
X598590Y35471D01*
X598631Y35489D01*
X598683Y35506D01*
X598742Y35530D01*
X598806Y35553D01*
X598882Y35571D01*
X598958Y35594D01*
X599134Y35629D01*
X599327Y35653D01*
X599537Y35664D01*
X599596D01*
X599637Y35658D01*
D02*
G37*
G36*
X601450Y39069D02*
X600655Y38560D01*
X600649D01*
X600637Y38548D01*
X600620Y38537D01*
X600596Y38525D01*
X600538Y38484D01*
X600462Y38431D01*
X600374Y38373D01*
X600286Y38309D01*
X600204Y38250D01*
X600128Y38192D01*
X600122Y38186D01*
X600099Y38168D01*
X600064Y38139D01*
X600023Y38110D01*
X599941Y38022D01*
X599900Y37981D01*
X599871Y37934D01*
X599865Y37928D01*
X599859Y37917D01*
X599847Y37893D01*
X599830Y37864D01*
X599795Y37794D01*
X599765Y37706D01*
Y37700D01*
X599760Y37688D01*
Y37665D01*
X599754Y37636D01*
X599748Y37595D01*
Y37548D01*
X599742Y37490D01*
Y37419D01*
Y36834D01*
X601450D01*
Y36325D01*
X597607D01*
Y38028D01*
Y38034D01*
Y38051D01*
Y38074D01*
Y38110D01*
X597613Y38156D01*
Y38203D01*
X597619Y38320D01*
X597630Y38443D01*
X597654Y38572D01*
X597677Y38695D01*
X597695Y38753D01*
X597712Y38806D01*
Y38812D01*
X597718Y38818D01*
X597730Y38853D01*
X597759Y38899D01*
X597800Y38958D01*
X597847Y39028D01*
X597911Y39098D01*
X597987Y39169D01*
X598081Y39233D01*
X598092Y39239D01*
X598128Y39256D01*
X598180Y39285D01*
X598250Y39315D01*
X598338Y39344D01*
X598438Y39373D01*
X598543Y39391D01*
X598660Y39397D01*
X598701D01*
X598730Y39391D01*
X598765D01*
X598806Y39385D01*
X598900Y39362D01*
X599011Y39332D01*
X599122Y39285D01*
X599239Y39215D01*
X599298Y39174D01*
X599350Y39127D01*
X599362Y39116D01*
X599374Y39098D01*
X599397Y39081D01*
X599414Y39051D01*
X599444Y39016D01*
X599467Y38975D01*
X599496Y38929D01*
X599526Y38876D01*
X599555Y38812D01*
X599584Y38747D01*
X599613Y38671D01*
X599643Y38595D01*
X599666Y38507D01*
X599684Y38414D01*
X599701Y38314D01*
X599707Y38326D01*
X599719Y38350D01*
X599736Y38385D01*
X599760Y38425D01*
X599824Y38525D01*
X599859Y38578D01*
X599894Y38618D01*
X599906Y38630D01*
X599929Y38660D01*
X599976Y38701D01*
X600035Y38753D01*
X600111Y38818D01*
X600198Y38888D01*
X600298Y38964D01*
X600409Y39040D01*
X601450Y39707D01*
Y39069D01*
D02*
G37*
G36*
Y27468D02*
X597607D01*
Y27977D01*
X601450D01*
Y27468D01*
D02*
G37*
G36*
X598057Y30358D02*
X601450D01*
Y29849D01*
X598057D01*
Y28586D01*
X597607D01*
Y31622D01*
X598057D01*
Y30358D01*
D02*
G37*
G36*
X601450Y40204D02*
X597607D01*
Y42983D01*
X598057D01*
Y40713D01*
X599239D01*
Y42836D01*
X599689D01*
Y40713D01*
X601000D01*
Y43070D01*
X601450D01*
Y40204D01*
D02*
G37*
G36*
X589139Y20454D02*
X589186Y20448D01*
X589239Y20443D01*
X589297Y20437D01*
X589362Y20425D01*
X589502Y20384D01*
X589648Y20331D01*
X589730Y20296D01*
X589806Y20255D01*
X589882Y20209D01*
X589953Y20156D01*
X589958Y20150D01*
X589970Y20138D01*
X589993Y20115D01*
X590023Y20086D01*
X590058Y20051D01*
X590099Y20004D01*
X590140Y19951D01*
X590181Y19887D01*
X590228Y19823D01*
X590268Y19746D01*
X590309Y19659D01*
X590344Y19571D01*
X590374Y19471D01*
X590397Y19372D01*
X590409Y19261D01*
X590415Y19144D01*
Y19138D01*
Y19120D01*
Y19091D01*
X590409Y19056D01*
X590403Y19015D01*
X590397Y18962D01*
X590391Y18904D01*
X590380Y18840D01*
X590344Y18705D01*
X590292Y18565D01*
X590257Y18495D01*
X590216Y18424D01*
X590175Y18354D01*
X590122Y18290D01*
X590116Y18284D01*
X590110Y18278D01*
X590093Y18260D01*
X590069Y18237D01*
X590040Y18214D01*
X590005Y18184D01*
X589964Y18155D01*
X589917Y18120D01*
X589806Y18056D01*
X589672Y17991D01*
X589520Y17945D01*
X589432Y17927D01*
X589344Y17915D01*
X589309Y18413D01*
X589327D01*
X589344Y18418D01*
X589367Y18424D01*
X589432Y18442D01*
X589514Y18465D01*
X589602Y18495D01*
X589689Y18541D01*
X589777Y18594D01*
X589853Y18664D01*
X589859Y18676D01*
X589882Y18699D01*
X589906Y18740D01*
X589941Y18799D01*
X589970Y18869D01*
X589999Y18951D01*
X590023Y19044D01*
X590029Y19144D01*
Y19150D01*
Y19161D01*
Y19179D01*
X590023Y19202D01*
X590017Y19267D01*
X589999Y19349D01*
X589964Y19436D01*
X589923Y19536D01*
X589859Y19629D01*
X589824Y19676D01*
X589777Y19723D01*
X589771D01*
X589765Y19735D01*
X589730Y19758D01*
X589672Y19799D01*
X589596Y19840D01*
X589496Y19881D01*
X589379Y19922D01*
X589245Y19945D01*
X589093Y19957D01*
X589052D01*
X589028Y19951D01*
X588993D01*
X588952Y19945D01*
X588859Y19928D01*
X588759Y19904D01*
X588654Y19863D01*
X588549Y19805D01*
X588455Y19729D01*
X588443Y19717D01*
X588420Y19688D01*
X588379Y19641D01*
X588338Y19571D01*
X588297Y19489D01*
X588256Y19384D01*
X588233Y19267D01*
X588221Y19138D01*
Y19126D01*
Y19097D01*
X588227Y19056D01*
X588233Y18998D01*
X588250Y18933D01*
X588268Y18863D01*
X588297Y18793D01*
X588332Y18723D01*
X588338Y18717D01*
X588350Y18693D01*
X588373Y18658D01*
X588402Y18617D01*
X588443Y18576D01*
X588490Y18530D01*
X588543Y18483D01*
X588601Y18442D01*
X588537Y17997D01*
X586565Y18372D01*
Y20279D01*
X587016D01*
Y18746D01*
X588051Y18535D01*
X588045Y18541D01*
X588040Y18553D01*
X588028Y18571D01*
X588010Y18594D01*
X587993Y18629D01*
X587975Y18664D01*
X587928Y18758D01*
X587882Y18863D01*
X587847Y18986D01*
X587817Y19120D01*
X587806Y19261D01*
Y19267D01*
Y19284D01*
Y19308D01*
X587811Y19343D01*
X587817Y19390D01*
X587823Y19436D01*
X587835Y19495D01*
X587847Y19553D01*
X587893Y19688D01*
X587917Y19758D01*
X587952Y19828D01*
X587993Y19904D01*
X588040Y19975D01*
X588092Y20045D01*
X588157Y20109D01*
X588162Y20115D01*
X588174Y20127D01*
X588192Y20144D01*
X588221Y20162D01*
X588256Y20191D01*
X588297Y20220D01*
X588344Y20249D01*
X588396Y20285D01*
X588461Y20320D01*
X588525Y20349D01*
X588601Y20378D01*
X588677Y20407D01*
X588765Y20425D01*
X588853Y20443D01*
X588952Y20454D01*
X589052Y20460D01*
X589104D01*
X589139Y20454D01*
D02*
G37*
G36*
X590350Y22706D02*
Y22186D01*
X586507Y20694D01*
Y21250D01*
X589297Y22244D01*
X589303D01*
X589315Y22250D01*
X589332Y22256D01*
X589356Y22268D01*
X589420Y22285D01*
X589502Y22315D01*
X589602Y22350D01*
X589707Y22385D01*
X589929Y22449D01*
X589923D01*
X589917Y22455D01*
X589900Y22461D01*
X589877Y22467D01*
X589812Y22484D01*
X589730Y22508D01*
X589637Y22537D01*
X589531Y22572D01*
X589414Y22613D01*
X589297Y22654D01*
X586507Y23695D01*
Y24210D01*
X590350Y22706D01*
D02*
G37*
G36*
X601450Y46270D02*
X598432Y44252D01*
X601450D01*
Y43767D01*
X597607D01*
Y44281D01*
X600626Y46306D01*
X597607D01*
Y46791D01*
X601450D01*
Y46270D01*
D02*
G37*
G36*
X588677Y16342D02*
X589730D01*
Y15897D01*
X588677D01*
Y14850D01*
X588238D01*
Y15897D01*
X587191D01*
Y16342D01*
X588238D01*
Y17389D01*
X588677D01*
Y16342D01*
D02*
G37*
G36*
X601450Y18027D02*
X598233D01*
X601450Y16903D01*
Y16447D01*
X598180Y15341D01*
X601450D01*
Y14850D01*
X597607D01*
Y15610D01*
X600327Y16523D01*
X600333D01*
X600345Y16529D01*
X600362Y16535D01*
X600391Y16541D01*
X600456Y16564D01*
X600538Y16593D01*
X600631Y16623D01*
X600725Y16652D01*
X600818Y16681D01*
X600895Y16704D01*
X600883Y16710D01*
X600854Y16716D01*
X600807Y16734D01*
X600742Y16757D01*
X600655Y16781D01*
X600549Y16816D01*
X600427Y16862D01*
X600280Y16909D01*
X597607Y17828D01*
Y18518D01*
X601450D01*
Y18027D01*
D02*
G37*
G36*
X599637Y22847D02*
X599689D01*
X599748Y22841D01*
X599812Y22835D01*
X599888Y22824D01*
X600052Y22794D01*
X600228Y22753D01*
X600409Y22695D01*
X600585Y22613D01*
X600590D01*
X600602Y22601D01*
X600626Y22590D01*
X600661Y22572D01*
X600696Y22543D01*
X600742Y22513D01*
X600842Y22443D01*
X600953Y22350D01*
X601070Y22233D01*
X601181Y22098D01*
X601281Y21946D01*
Y21940D01*
X601292Y21928D01*
X601304Y21905D01*
X601316Y21870D01*
X601333Y21829D01*
X601357Y21782D01*
X601374Y21730D01*
X601398Y21665D01*
X601439Y21531D01*
X601480Y21373D01*
X601503Y21197D01*
X601515Y21016D01*
Y21010D01*
Y20992D01*
Y20963D01*
X601509Y20922D01*
Y20876D01*
X601503Y20823D01*
X601491Y20759D01*
X601480Y20688D01*
X601450Y20542D01*
X601404Y20378D01*
X601339Y20209D01*
X601304Y20127D01*
X601257Y20045D01*
X601251Y20039D01*
X601246Y20027D01*
X601228Y20004D01*
X601210Y19975D01*
X601181Y19940D01*
X601152Y19899D01*
X601070Y19805D01*
X600965Y19700D01*
X600848Y19589D01*
X600702Y19489D01*
X600544Y19395D01*
X600538D01*
X600520Y19384D01*
X600497Y19378D01*
X600462Y19360D01*
X600421Y19343D01*
X600374Y19325D01*
X600315Y19308D01*
X600251Y19290D01*
X600181Y19267D01*
X600111Y19249D01*
X599947Y19214D01*
X599771Y19191D01*
X599584Y19179D01*
X599543D01*
X599491Y19185D01*
X599426D01*
X599344Y19196D01*
X599251Y19208D01*
X599151Y19220D01*
X599034Y19243D01*
X598917Y19273D01*
X598794Y19302D01*
X598672Y19343D01*
X598549Y19395D01*
X598426Y19454D01*
X598303Y19518D01*
X598192Y19600D01*
X598087Y19688D01*
X598081Y19694D01*
X598063Y19711D01*
X598034Y19741D01*
X597999Y19782D01*
X597958Y19834D01*
X597917Y19893D01*
X597864Y19963D01*
X597812Y20045D01*
X597765Y20138D01*
X597712Y20238D01*
X597671Y20349D01*
X597624Y20466D01*
X597595Y20589D01*
X597566Y20723D01*
X597548Y20870D01*
X597542Y21016D01*
Y21022D01*
Y21039D01*
Y21068D01*
X597548Y21104D01*
Y21150D01*
X597554Y21209D01*
X597566Y21267D01*
X597572Y21338D01*
X597607Y21484D01*
X597654Y21648D01*
X597712Y21812D01*
X597753Y21893D01*
X597800Y21975D01*
Y21981D01*
X597812Y21993D01*
X597823Y22016D01*
X597847Y22046D01*
X597870Y22081D01*
X597905Y22121D01*
X597981Y22215D01*
X598081Y22320D01*
X598204Y22432D01*
X598344Y22531D01*
X598508Y22625D01*
X598514D01*
X598531Y22636D01*
X598555Y22648D01*
X598590Y22660D01*
X598631Y22677D01*
X598683Y22695D01*
X598742Y22718D01*
X598806Y22742D01*
X598882Y22759D01*
X598958Y22783D01*
X599134Y22818D01*
X599327Y22841D01*
X599537Y22853D01*
X599596D01*
X599637Y22847D01*
D02*
G37*
G36*
X609419Y24602D02*
X609466D01*
X609571Y24596D01*
X609688Y24584D01*
X609823Y24561D01*
X609958Y24538D01*
X610086Y24502D01*
X610092D01*
X610104Y24497D01*
X610121Y24491D01*
X610145Y24485D01*
X610203Y24462D01*
X610285Y24432D01*
X610373Y24397D01*
X610466Y24350D01*
X610560Y24298D01*
X610648Y24239D01*
X610660Y24233D01*
X610683Y24210D01*
X610724Y24181D01*
X610777Y24134D01*
X610829Y24087D01*
X610888Y24023D01*
X610946Y23958D01*
X610999Y23888D01*
X611005Y23882D01*
X611016Y23853D01*
X611040Y23812D01*
X611069Y23760D01*
X611098Y23695D01*
X611128Y23619D01*
X611157Y23531D01*
X611186Y23432D01*
Y23420D01*
X611198Y23385D01*
X611203Y23333D01*
X611215Y23257D01*
X611227Y23169D01*
X611239Y23063D01*
X611244Y22946D01*
X611250Y22818D01*
Y21437D01*
X607407D01*
Y22753D01*
Y22759D01*
Y22771D01*
Y22794D01*
Y22829D01*
Y22864D01*
Y22911D01*
X607413Y23011D01*
X607419Y23116D01*
X607430Y23233D01*
X607448Y23344D01*
X607465Y23438D01*
Y23444D01*
X607471Y23455D01*
Y23467D01*
X607483Y23491D01*
X607501Y23555D01*
X607530Y23631D01*
X607565Y23719D01*
X607612Y23812D01*
X607670Y23906D01*
X607740Y23999D01*
Y24005D01*
X607752Y24011D01*
X607787Y24052D01*
X607846Y24105D01*
X607922Y24169D01*
X608015Y24245D01*
X608126Y24321D01*
X608255Y24391D01*
X608401Y24456D01*
X608407D01*
X608419Y24462D01*
X608442Y24467D01*
X608472Y24479D01*
X608507Y24491D01*
X608554Y24502D01*
X608606Y24520D01*
X608665Y24532D01*
X608729Y24543D01*
X608799Y24561D01*
X608951Y24584D01*
X609121Y24602D01*
X609308Y24608D01*
X609384D01*
X609419Y24602D01*
D02*
G37*
G36*
X611250Y26421D02*
X608243D01*
X608249Y26415D01*
X608273Y26392D01*
X608302Y26351D01*
X608343Y26298D01*
X608395Y26234D01*
X608448Y26158D01*
X608512Y26070D01*
X608571Y25971D01*
Y25965D01*
X608577Y25959D01*
X608600Y25924D01*
X608630Y25871D01*
X608665Y25807D01*
X608706Y25731D01*
X608741Y25649D01*
X608782Y25561D01*
X608817Y25479D01*
X608355D01*
Y25485D01*
X608349Y25497D01*
X608337Y25520D01*
X608320Y25544D01*
X608302Y25579D01*
X608284Y25620D01*
X608232Y25714D01*
X608167Y25819D01*
X608091Y25936D01*
X608004Y26053D01*
X607910Y26164D01*
X607904Y26170D01*
X607898Y26176D01*
X607863Y26211D01*
X607810Y26263D01*
X607746Y26328D01*
X607664Y26398D01*
X607577Y26468D01*
X607483Y26533D01*
X607389Y26585D01*
Y26895D01*
X611250D01*
Y26421D01*
D02*
G37*
G36*
X601450Y26006D02*
X598432Y23988D01*
X601450D01*
Y23502D01*
X597607D01*
Y24017D01*
X600626Y26041D01*
X597607D01*
Y26527D01*
X601450D01*
Y26006D01*
D02*
G37*
%LPC*%
G36*
X649402Y25667D02*
X649303D01*
X649250Y25661D01*
X649192Y25655D01*
X649127Y25649D01*
X649063Y25643D01*
X648911Y25620D01*
X648759Y25585D01*
X648612Y25532D01*
X648542Y25503D01*
X648478Y25468D01*
X648472D01*
X648466Y25456D01*
X648449Y25450D01*
X648425Y25433D01*
X648367Y25392D01*
X648303Y25333D01*
X648226Y25263D01*
X648156Y25181D01*
X648092Y25087D01*
X648039Y24988D01*
X648033Y24976D01*
X648028Y24947D01*
X648016Y24900D01*
X647998Y24830D01*
X647981Y24736D01*
X647969Y24625D01*
X647963Y24491D01*
X647957Y24333D01*
Y23531D01*
X650900D01*
Y24345D01*
Y24350D01*
Y24362D01*
Y24380D01*
Y24409D01*
X650894Y24473D01*
X650888Y24561D01*
X650882Y24655D01*
X650871Y24754D01*
X650853Y24848D01*
X650830Y24935D01*
X650824Y24947D01*
X650818Y24971D01*
X650800Y25011D01*
X650777Y25058D01*
X650748Y25117D01*
X650718Y25175D01*
X650678Y25228D01*
X650631Y25280D01*
X650625Y25286D01*
X650596Y25310D01*
X650555Y25345D01*
X650502Y25386D01*
X650432Y25427D01*
X650350Y25474D01*
X650250Y25520D01*
X650145Y25561D01*
X650139D01*
X650134Y25567D01*
X650116Y25573D01*
X650093Y25579D01*
X650063Y25585D01*
X650028Y25596D01*
X649940Y25614D01*
X649829Y25631D01*
X649701Y25649D01*
X649560Y25661D01*
X649402Y25667D01*
D02*
G37*
G36*
X628902Y24081D02*
X628803D01*
X628750Y24076D01*
X628692Y24070D01*
X628627Y24064D01*
X628563Y24058D01*
X628411Y24035D01*
X628259Y23999D01*
X628113Y23947D01*
X628042Y23918D01*
X627978Y23882D01*
X627972D01*
X627966Y23871D01*
X627949Y23865D01*
X627925Y23847D01*
X627867Y23806D01*
X627803Y23748D01*
X627726Y23678D01*
X627656Y23596D01*
X627592Y23502D01*
X627539Y23403D01*
X627533Y23391D01*
X627528Y23362D01*
X627516Y23315D01*
X627498Y23245D01*
X627481Y23151D01*
X627469Y23040D01*
X627463Y22905D01*
X627457Y22748D01*
Y21946D01*
X630400D01*
Y22759D01*
Y22765D01*
Y22777D01*
Y22794D01*
Y22824D01*
X630394Y22888D01*
X630388Y22976D01*
X630382Y23069D01*
X630371Y23169D01*
X630353Y23262D01*
X630330Y23350D01*
X630324Y23362D01*
X630318Y23385D01*
X630300Y23426D01*
X630277Y23473D01*
X630248Y23531D01*
X630219Y23590D01*
X630178Y23642D01*
X630131Y23695D01*
X630125Y23701D01*
X630096Y23724D01*
X630055Y23760D01*
X630002Y23800D01*
X629932Y23842D01*
X629850Y23888D01*
X629750Y23935D01*
X629645Y23976D01*
X629639D01*
X629634Y23982D01*
X629616Y23988D01*
X629593Y23993D01*
X629563Y23999D01*
X629528Y24011D01*
X629440Y24029D01*
X629329Y24046D01*
X629201Y24064D01*
X629060Y24076D01*
X628902Y24081D01*
D02*
G37*
G36*
X609302D02*
X609203D01*
X609150Y24076D01*
X609092Y24070D01*
X609027Y24064D01*
X608963Y24058D01*
X608811Y24035D01*
X608659Y23999D01*
X608512Y23947D01*
X608442Y23918D01*
X608378Y23882D01*
X608372D01*
X608366Y23871D01*
X608349Y23865D01*
X608325Y23847D01*
X608267Y23806D01*
X608203Y23748D01*
X608126Y23678D01*
X608056Y23596D01*
X607992Y23502D01*
X607939Y23403D01*
X607933Y23391D01*
X607928Y23362D01*
X607916Y23315D01*
X607898Y23245D01*
X607881Y23151D01*
X607869Y23040D01*
X607863Y22905D01*
X607857Y22748D01*
Y21946D01*
X610800D01*
Y22759D01*
Y22765D01*
Y22777D01*
Y22794D01*
Y22824D01*
X610794Y22888D01*
X610788Y22976D01*
X610782Y23069D01*
X610771Y23169D01*
X610753Y23262D01*
X610730Y23350D01*
X610724Y23362D01*
X610718Y23385D01*
X610700Y23426D01*
X610677Y23473D01*
X610648Y23531D01*
X610618Y23590D01*
X610578Y23642D01*
X610531Y23695D01*
X610525Y23701D01*
X610496Y23724D01*
X610455Y23760D01*
X610402Y23800D01*
X610332Y23842D01*
X610250Y23888D01*
X610150Y23935D01*
X610045Y23976D01*
X610039D01*
X610034Y23982D01*
X610016Y23988D01*
X609993Y23993D01*
X609963Y23999D01*
X609928Y24011D01*
X609840Y24029D01*
X609729Y24046D01*
X609601Y24064D01*
X609460Y24076D01*
X609302Y24081D01*
D02*
G37*
G36*
X619102D02*
X619003D01*
X618950Y24076D01*
X618892Y24070D01*
X618827Y24064D01*
X618763Y24058D01*
X618611Y24035D01*
X618459Y23999D01*
X618313Y23947D01*
X618242Y23918D01*
X618178Y23882D01*
X618172D01*
X618166Y23871D01*
X618149Y23865D01*
X618125Y23847D01*
X618067Y23806D01*
X618003Y23748D01*
X617926Y23678D01*
X617856Y23596D01*
X617792Y23502D01*
X617739Y23403D01*
X617733Y23391D01*
X617728Y23362D01*
X617716Y23315D01*
X617698Y23245D01*
X617681Y23151D01*
X617669Y23040D01*
X617663Y22905D01*
X617657Y22748D01*
Y21946D01*
X620600D01*
Y22759D01*
Y22765D01*
Y22777D01*
Y22794D01*
Y22824D01*
X620594Y22888D01*
X620588Y22976D01*
X620582Y23069D01*
X620571Y23169D01*
X620553Y23262D01*
X620530Y23350D01*
X620524Y23362D01*
X620518Y23385D01*
X620500Y23426D01*
X620477Y23473D01*
X620448Y23531D01*
X620419Y23590D01*
X620378Y23642D01*
X620331Y23695D01*
X620325Y23701D01*
X620296Y23724D01*
X620255Y23760D01*
X620202Y23800D01*
X620132Y23842D01*
X620050Y23888D01*
X619950Y23935D01*
X619845Y23976D01*
X619839D01*
X619834Y23982D01*
X619816Y23988D01*
X619793Y23993D01*
X619763Y23999D01*
X619728Y24011D01*
X619640Y24029D01*
X619529Y24046D01*
X619401Y24064D01*
X619260Y24076D01*
X619102Y24081D01*
D02*
G37*
G36*
X598660Y38870D02*
X598613D01*
X598566Y38858D01*
X598502Y38847D01*
X598432Y38823D01*
X598356Y38788D01*
X598280Y38736D01*
X598209Y38671D01*
X598204Y38660D01*
X598180Y38636D01*
X598151Y38583D01*
X598122Y38519D01*
X598087Y38431D01*
X598063Y38326D01*
X598040Y38197D01*
X598034Y38045D01*
Y36834D01*
X599303D01*
Y37922D01*
Y37928D01*
Y37940D01*
Y37958D01*
Y37981D01*
X599298Y38045D01*
X599292Y38121D01*
X599286Y38209D01*
X599274Y38303D01*
X599257Y38390D01*
X599233Y38466D01*
X599227Y38478D01*
X599222Y38502D01*
X599204Y38537D01*
X599181Y38578D01*
X599145Y38624D01*
X599104Y38677D01*
X599058Y38724D01*
X599005Y38765D01*
X598999Y38771D01*
X598976Y38782D01*
X598947Y38800D01*
X598900Y38818D01*
X598853Y38835D01*
X598794Y38853D01*
X598730Y38864D01*
X598660Y38870D01*
D02*
G37*
G36*
X639437Y29294D02*
X639361D01*
X639320Y29288D01*
X639268D01*
X639157Y29276D01*
X639034Y29253D01*
X638893Y29223D01*
X638753Y29182D01*
X638618Y29130D01*
X638613D01*
X638601Y29124D01*
X638583Y29112D01*
X638560Y29101D01*
X638495Y29065D01*
X638419Y29013D01*
X638332Y28949D01*
X638238Y28867D01*
X638150Y28773D01*
X638074Y28668D01*
Y28662D01*
X638068Y28656D01*
X638057Y28638D01*
X638045Y28615D01*
X638016Y28551D01*
X637975Y28469D01*
X637940Y28369D01*
X637911Y28252D01*
X637887Y28124D01*
X637881Y27983D01*
Y27977D01*
Y27960D01*
Y27931D01*
X637887Y27896D01*
X637893Y27849D01*
X637899Y27790D01*
X637911Y27732D01*
X637928Y27667D01*
X637975Y27521D01*
X638004Y27445D01*
X638039Y27369D01*
X638080Y27287D01*
X638133Y27211D01*
X638191Y27135D01*
X638256Y27059D01*
X638262Y27053D01*
X638273Y27041D01*
X638297Y27024D01*
X638326Y27000D01*
X638367Y26971D01*
X638419Y26936D01*
X638478Y26901D01*
X638548Y26866D01*
X638630Y26831D01*
X638718Y26796D01*
X638817Y26761D01*
X638934Y26731D01*
X639057Y26708D01*
X639186Y26690D01*
X639332Y26679D01*
X639490Y26673D01*
X639554D01*
X639607Y26679D01*
X639666Y26685D01*
X639730Y26690D01*
X639806Y26702D01*
X639888Y26720D01*
X640063Y26761D01*
X640151Y26796D01*
X640245Y26831D01*
X640332Y26872D01*
X640420Y26919D01*
X640508Y26977D01*
X640584Y27041D01*
X640590Y27047D01*
X640601Y27059D01*
X640619Y27082D01*
X640648Y27112D01*
X640678Y27147D01*
X640707Y27188D01*
X640748Y27240D01*
X640783Y27299D01*
X640818Y27363D01*
X640853Y27433D01*
X640888Y27509D01*
X640917Y27597D01*
X640947Y27685D01*
X640964Y27779D01*
X640976Y27872D01*
X640982Y27977D01*
Y27983D01*
Y28001D01*
Y28030D01*
X640976Y28071D01*
X640970Y28124D01*
X640958Y28176D01*
X640947Y28241D01*
X640929Y28311D01*
X640882Y28457D01*
X640853Y28539D01*
X640812Y28615D01*
X640765Y28697D01*
X640713Y28773D01*
X640654Y28849D01*
X640584Y28919D01*
X640578Y28925D01*
X640566Y28937D01*
X640543Y28954D01*
X640508Y28978D01*
X640467Y29007D01*
X640414Y29036D01*
X640356Y29071D01*
X640292Y29107D01*
X640210Y29142D01*
X640128Y29177D01*
X640034Y29206D01*
X639929Y29235D01*
X639818Y29259D01*
X639701Y29276D01*
X639572Y29288D01*
X639437Y29294D01*
D02*
G37*
G36*
X599537Y35138D02*
X599461D01*
X599420Y35132D01*
X599368D01*
X599257Y35120D01*
X599134Y35097D01*
X598993Y35068D01*
X598853Y35027D01*
X598718Y34974D01*
X598712D01*
X598701Y34968D01*
X598683Y34956D01*
X598660Y34945D01*
X598596Y34910D01*
X598520Y34857D01*
X598432Y34793D01*
X598338Y34711D01*
X598250Y34617D01*
X598174Y34512D01*
Y34506D01*
X598169Y34500D01*
X598157Y34483D01*
X598145Y34459D01*
X598116Y34395D01*
X598075Y34313D01*
X598040Y34214D01*
X598010Y34097D01*
X597987Y33968D01*
X597981Y33827D01*
Y33822D01*
Y33804D01*
Y33775D01*
X597987Y33740D01*
X597993Y33693D01*
X597999Y33634D01*
X598010Y33576D01*
X598028Y33511D01*
X598075Y33365D01*
X598104Y33289D01*
X598139Y33213D01*
X598180Y33131D01*
X598233Y33055D01*
X598291Y32979D01*
X598356Y32903D01*
X598361Y32897D01*
X598373Y32886D01*
X598397Y32868D01*
X598426Y32845D01*
X598467Y32815D01*
X598520Y32780D01*
X598578Y32745D01*
X598648Y32710D01*
X598730Y32675D01*
X598818Y32640D01*
X598917Y32605D01*
X599034Y32576D01*
X599157Y32552D01*
X599286Y32535D01*
X599432Y32523D01*
X599590Y32517D01*
X599654D01*
X599707Y32523D01*
X599765Y32529D01*
X599830Y32535D01*
X599906Y32546D01*
X599988Y32564D01*
X600163Y32605D01*
X600251Y32640D01*
X600345Y32675D01*
X600432Y32716D01*
X600520Y32763D01*
X600608Y32821D01*
X600684Y32886D01*
X600690Y32891D01*
X600702Y32903D01*
X600719Y32926D01*
X600748Y32956D01*
X600778Y32991D01*
X600807Y33032D01*
X600848Y33084D01*
X600883Y33143D01*
X600918Y33207D01*
X600953Y33277D01*
X600988Y33354D01*
X601017Y33441D01*
X601047Y33529D01*
X601064Y33623D01*
X601076Y33716D01*
X601082Y33822D01*
Y33827D01*
Y33845D01*
Y33874D01*
X601076Y33915D01*
X601070Y33968D01*
X601058Y34020D01*
X601047Y34085D01*
X601029Y34155D01*
X600982Y34301D01*
X600953Y34383D01*
X600912Y34459D01*
X600865Y34541D01*
X600813Y34617D01*
X600754Y34693D01*
X600684Y34763D01*
X600678Y34769D01*
X600666Y34781D01*
X600643Y34798D01*
X600608Y34822D01*
X600567Y34851D01*
X600514Y34880D01*
X600456Y34916D01*
X600391Y34951D01*
X600310Y34986D01*
X600228Y35021D01*
X600134Y35050D01*
X600029Y35079D01*
X599918Y35103D01*
X599801Y35120D01*
X599672Y35132D01*
X599537Y35138D01*
D02*
G37*
G36*
X639771Y17254D02*
X638712Y16857D01*
X638706D01*
X638689Y16851D01*
X638665Y16839D01*
X638630Y16827D01*
X638589Y16810D01*
X638542Y16792D01*
X638431Y16757D01*
X638303Y16710D01*
X638168Y16664D01*
X638033Y16623D01*
X637905Y16582D01*
X637911D01*
X637922Y16576D01*
X637940D01*
X637969Y16570D01*
X638004Y16558D01*
X638045Y16546D01*
X638139Y16523D01*
X638256Y16494D01*
X638378Y16459D01*
X638513Y16418D01*
X638648Y16371D01*
X639771Y15950D01*
Y17254D01*
D02*
G37*
G36*
X599537Y22326D02*
X599461D01*
X599420Y22320D01*
X599368D01*
X599257Y22309D01*
X599134Y22285D01*
X598993Y22256D01*
X598853Y22215D01*
X598718Y22163D01*
X598712D01*
X598701Y22157D01*
X598683Y22145D01*
X598660Y22133D01*
X598596Y22098D01*
X598520Y22046D01*
X598432Y21981D01*
X598338Y21899D01*
X598250Y21806D01*
X598174Y21700D01*
Y21695D01*
X598169Y21689D01*
X598157Y21671D01*
X598145Y21648D01*
X598116Y21583D01*
X598075Y21501D01*
X598040Y21402D01*
X598010Y21285D01*
X597987Y21156D01*
X597981Y21016D01*
Y21010D01*
Y20992D01*
Y20963D01*
X597987Y20928D01*
X597993Y20881D01*
X597999Y20823D01*
X598010Y20764D01*
X598028Y20700D01*
X598075Y20554D01*
X598104Y20478D01*
X598139Y20402D01*
X598180Y20320D01*
X598233Y20244D01*
X598291Y20168D01*
X598356Y20092D01*
X598361Y20086D01*
X598373Y20074D01*
X598397Y20056D01*
X598426Y20033D01*
X598467Y20004D01*
X598520Y19969D01*
X598578Y19934D01*
X598648Y19899D01*
X598730Y19863D01*
X598818Y19828D01*
X598917Y19793D01*
X599034Y19764D01*
X599157Y19741D01*
X599286Y19723D01*
X599432Y19711D01*
X599590Y19705D01*
X599654D01*
X599707Y19711D01*
X599765Y19717D01*
X599830Y19723D01*
X599906Y19735D01*
X599988Y19752D01*
X600163Y19793D01*
X600251Y19828D01*
X600345Y19863D01*
X600432Y19904D01*
X600520Y19951D01*
X600608Y20010D01*
X600684Y20074D01*
X600690Y20080D01*
X600702Y20092D01*
X600719Y20115D01*
X600748Y20144D01*
X600778Y20179D01*
X600807Y20220D01*
X600848Y20273D01*
X600883Y20332D01*
X600918Y20396D01*
X600953Y20466D01*
X600988Y20542D01*
X601017Y20630D01*
X601047Y20718D01*
X601064Y20811D01*
X601076Y20905D01*
X601082Y21010D01*
Y21016D01*
Y21033D01*
Y21063D01*
X601076Y21104D01*
X601070Y21156D01*
X601058Y21209D01*
X601047Y21273D01*
X601029Y21343D01*
X600982Y21490D01*
X600953Y21572D01*
X600912Y21648D01*
X600865Y21730D01*
X600813Y21806D01*
X600754Y21882D01*
X600684Y21952D01*
X600678Y21958D01*
X600666Y21970D01*
X600643Y21987D01*
X600608Y22010D01*
X600567Y22040D01*
X600514Y22069D01*
X600456Y22104D01*
X600391Y22139D01*
X600310Y22174D01*
X600228Y22209D01*
X600134Y22239D01*
X600029Y22268D01*
X599918Y22291D01*
X599801Y22309D01*
X599672Y22320D01*
X599537Y22326D01*
D02*
G37*
%LPD*%
D34*
X129350Y168113D02*
X136350D01*
X269999Y119768D02*
X276999D01*
X452450Y129400D02*
Y136400D01*
X494608Y78100D02*
X501609D01*
X490650Y133698D02*
Y127700D01*
X487651D01*
X486652Y128700D01*
Y129699D01*
X487651Y130699D01*
X490650D01*
X487651D01*
X486652Y131699D01*
Y132698D01*
X487651Y133698D01*
X490650D01*
X484652Y127700D02*
Y131699D01*
X482653Y133698D01*
X480653Y131699D01*
Y127700D01*
Y130699D01*
X484652D01*
X478654Y133698D02*
X474655D01*
X476655D01*
Y127700D01*
X507050Y127300D02*
Y133298D01*
X504051D01*
X503052Y132298D01*
Y130299D01*
X504051Y129299D01*
X507050D01*
X498053Y127300D02*
Y133298D01*
X501052Y130299D01*
X497053D01*
X497809Y57898D02*
Y52900D01*
X496809Y51900D01*
X494809D01*
X493810Y52900D01*
Y57898D01*
X491811Y56898D02*
X490811Y57898D01*
X488811D01*
X487812Y56898D01*
Y55899D01*
X488811Y54899D01*
X487812Y53899D01*
Y52900D01*
X488811Y51900D01*
X490811D01*
X491811Y52900D01*
Y53899D01*
X490811Y54899D01*
X491811Y55899D01*
Y56898D01*
X490811Y54899D02*
X488811D01*
X484350Y184698D02*
Y179700D01*
X483351Y178700D01*
X481351D01*
X480352Y179700D01*
Y184698D01*
X478352D02*
X474354D01*
Y183698D01*
X478352Y179700D01*
Y178700D01*
X457309Y43700D02*
X463307D01*
Y46699D01*
X462308Y47699D01*
X460308D01*
X459309Y46699D01*
Y43700D01*
Y45699D02*
X457309Y47699D01*
Y53697D02*
Y49698D01*
X461308Y53697D01*
X462308D01*
X463307Y52697D01*
Y50698D01*
X462308Y49698D01*
X457309Y55696D02*
Y57695D01*
Y56696D01*
X463307D01*
X462308Y55696D01*
X488908Y36200D02*
Y42198D01*
X485910D01*
X484910Y41198D01*
Y39199D01*
X485910Y38199D01*
X488908D01*
X486909D02*
X484910Y36200D01*
X478912D02*
X482910D01*
X478912Y40199D01*
Y41198D01*
X479911Y42198D01*
X481911D01*
X482910Y41198D01*
X476912D02*
X475913Y42198D01*
X473913D01*
X472914Y41198D01*
Y37200D01*
X473913Y36200D01*
X475913D01*
X476912Y37200D01*
Y41198D01*
X454008Y42101D02*
Y48099D01*
X451010D01*
X450010Y47099D01*
Y45100D01*
X451010Y44100D01*
X454008D01*
X452009D02*
X450010Y42101D01*
X448010D02*
X446011D01*
X447011D01*
Y48099D01*
X448010Y47099D01*
X443012Y43100D02*
X442012Y42101D01*
X440013D01*
X439013Y43100D01*
Y47099D01*
X440013Y48099D01*
X442012D01*
X443012Y47099D01*
Y46099D01*
X442012Y45100D01*
X439013D01*
X505509Y36300D02*
Y42298D01*
X502509D01*
X501510Y41298D01*
Y39299D01*
X502509Y38299D01*
X505509D01*
X503509D02*
X501510Y36300D01*
X499510D02*
X497511D01*
X498511D01*
Y42298D01*
X499510Y41298D01*
X494512D02*
X493512Y42298D01*
X491513D01*
X490513Y41298D01*
Y40299D01*
X491513Y39299D01*
X490513Y38299D01*
Y37300D01*
X491513Y36300D01*
X493512D01*
X494512Y37300D01*
Y38299D01*
X493512Y39299D01*
X494512Y40299D01*
Y41298D01*
X493512Y39299D02*
X491513D01*
X461550Y204600D02*
Y210598D01*
X458551D01*
X457552Y209598D01*
Y207599D01*
X458551Y206599D01*
X461550D01*
X459551D02*
X457552Y204600D01*
X455552D02*
X453553D01*
X454553D01*
Y210598D01*
X455552Y209598D01*
X450554Y210598D02*
X446555D01*
Y209598D01*
X450554Y205600D01*
Y204600D01*
X497250Y221600D02*
Y227598D01*
X494251D01*
X493252Y226598D01*
Y224599D01*
X494251Y223599D01*
X497250D01*
X495251D02*
X493252Y221600D01*
X491252D02*
X489253D01*
X490253D01*
Y227598D01*
X491252Y226598D01*
X482255Y227598D02*
X484255Y226598D01*
X486254Y224599D01*
Y222600D01*
X485254Y221600D01*
X483255D01*
X482255Y222600D01*
Y223599D01*
X483255Y224599D01*
X486254D01*
X485450Y99998D02*
Y94000D01*
X481452D01*
X479452D02*
X477453D01*
X478453D01*
Y99998D01*
X479452Y98998D01*
X447059Y161072D02*
X451058D01*
Y158073D01*
X449059D01*
X451058D01*
Y155074D01*
X445060D02*
X443061D01*
X444061D01*
Y161072D01*
X445060Y160072D01*
X471307Y82099D02*
X472307Y81099D01*
Y79100D01*
X471307Y78100D01*
X467308D01*
X466308Y79100D01*
Y81099D01*
X467308Y82099D01*
X466308Y88097D02*
Y84098D01*
X470307Y88097D01*
X471307D01*
X472307Y87097D01*
Y85098D01*
X471307Y84098D01*
X472307Y94095D02*
Y90096D01*
X469308D01*
X470307Y92095D01*
Y93095D01*
X469308Y94095D01*
X467308D01*
X466308Y93095D01*
Y91096D01*
X467308Y90096D01*
X447660Y71509D02*
X446661Y72509D01*
Y74508D01*
X447660Y75508D01*
X451659D01*
X452659Y74508D01*
Y72509D01*
X451659Y71509D01*
X452659Y65511D02*
Y69510D01*
X448660Y65511D01*
X447660D01*
X446661Y66511D01*
Y68510D01*
X447660Y69510D01*
X452659Y60513D02*
X446661D01*
X449659Y63512D01*
Y59513D01*
X504016Y73983D02*
X503017Y74983D01*
Y76982D01*
X504016Y77982D01*
X508015D01*
X509015Y76982D01*
Y74983D01*
X508015Y73983D01*
X509015Y67985D02*
Y71984D01*
X505016Y67985D01*
X504016D01*
X503017Y68985D01*
Y70984D01*
X504016Y71984D01*
Y65986D02*
X503017Y64986D01*
Y62986D01*
X504016Y61987D01*
X505016D01*
X506016Y62986D01*
Y63986D01*
Y62986D01*
X507016Y61987D01*
X508015D01*
X509015Y62986D01*
Y64986D01*
X508015Y65986D01*
X501100Y23498D02*
X502099Y24498D01*
X504099D01*
X505098Y23498D01*
Y19500D01*
X504099Y18500D01*
X502099D01*
X501100Y19500D01*
X495102Y18500D02*
X499100D01*
X495102Y22499D01*
Y23498D01*
X496101Y24498D01*
X498101D01*
X499100Y23498D01*
X493102Y18500D02*
X491103D01*
X492102D01*
Y24498D01*
X493102Y23498D01*
X131641Y128895D02*
X132641Y129895D01*
X134640D01*
X135640Y128895D01*
Y124897D01*
X134640Y123897D01*
X132641D01*
X131641Y124897D01*
X129642Y123897D02*
X127643D01*
X128642D01*
Y129895D01*
X129642Y128895D01*
X124644Y124897D02*
X123644Y123897D01*
X121645D01*
X120645Y124897D01*
Y128895D01*
X121645Y129895D01*
X123644D01*
X124644Y128895D01*
Y127895D01*
X123644Y126896D01*
X120645D01*
X429741Y171448D02*
X430741Y172448D01*
X432740D01*
X433740Y171448D01*
Y167449D01*
X432740Y166450D01*
X430741D01*
X429741Y167449D01*
X427742Y166450D02*
X425743D01*
X426742D01*
Y172448D01*
X427742Y171448D01*
X422744D02*
X421744Y172448D01*
X419745D01*
X418745Y171448D01*
Y170448D01*
X419745Y169449D01*
X418745Y168449D01*
Y167449D01*
X419745Y166450D01*
X421744D01*
X422744Y167449D01*
Y168449D01*
X421744Y169449D01*
X422744Y170448D01*
Y171448D01*
X421744Y169449D02*
X419745D01*
X511552Y194398D02*
X512551Y195398D01*
X514551D01*
X515550Y194398D01*
Y190400D01*
X514551Y189400D01*
X512551D01*
X511552Y190400D01*
X509552Y189400D02*
X507553D01*
X508553D01*
Y195398D01*
X509552Y194398D01*
X504554Y195398D02*
X500555D01*
Y194398D01*
X504554Y190400D01*
Y189400D01*
X462852Y135198D02*
X463851Y136198D01*
X465851D01*
X466850Y135198D01*
Y131200D01*
X465851Y130200D01*
X463851D01*
X462852Y131200D01*
X460852Y130200D02*
X458853D01*
X459853D01*
Y136198D01*
X460852Y135198D01*
X451855Y136198D02*
X453855Y135198D01*
X455854Y133199D01*
Y131200D01*
X454854Y130200D01*
X452855D01*
X451855Y131200D01*
Y132199D01*
X452855Y133199D01*
X455854D01*
X131641Y110258D02*
X132641Y111258D01*
X134640D01*
X135640Y110258D01*
Y106260D01*
X134640Y105260D01*
X132641D01*
X131641Y106260D01*
X129642Y105260D02*
X127643D01*
X128642D01*
Y111258D01*
X129642Y110258D01*
X120645Y111258D02*
X124644D01*
Y108259D01*
X122644Y109259D01*
X121645D01*
X120645Y108259D01*
Y106260D01*
X121645Y105260D01*
X123644D01*
X124644Y106260D01*
X457195Y198388D02*
X458195Y199387D01*
X460194D01*
X461194Y198388D01*
Y194389D01*
X460194Y193389D01*
X458195D01*
X457195Y194389D01*
X455196Y193389D02*
X453196D01*
X454196D01*
Y199387D01*
X455196Y198388D01*
X447198Y193389D02*
Y199387D01*
X450197Y196388D01*
X446199D01*
X279769Y113569D02*
X278770Y114569D01*
Y116568D01*
X279769Y117568D01*
X283768D01*
X284768Y116568D01*
Y114569D01*
X283768Y113569D01*
X284768Y111570D02*
Y109570D01*
Y110570D01*
X278770D01*
X279769Y111570D01*
Y106571D02*
X278770Y105572D01*
Y103572D01*
X279769Y102573D01*
X280769D01*
X281769Y103572D01*
Y104572D01*
Y103572D01*
X282768Y102573D01*
X283768D01*
X284768Y103572D01*
Y105572D01*
X283768Y106571D01*
X250102Y112527D02*
X249102Y113527D01*
Y115526D01*
X250102Y116526D01*
X254101D01*
X255100Y115526D01*
Y113527D01*
X254101Y112527D01*
X255100Y110528D02*
Y108528D01*
Y109528D01*
X249102D01*
X250102Y110528D01*
X255100Y101530D02*
Y105529D01*
X251102Y101530D01*
X250102D01*
X249102Y102530D01*
Y104530D01*
X250102Y105529D01*
X186069Y221098D02*
Y216100D01*
X185069Y215100D01*
X183070D01*
X182070Y216100D01*
Y221098D01*
X177072Y215100D02*
Y221098D01*
X180071Y218099D01*
X176072D01*
X119442Y174066D02*
X120441Y175066D01*
X122441D01*
X123441Y174066D01*
Y170067D01*
X122441Y169068D01*
X120441D01*
X119442Y170067D01*
X117442Y174066D02*
X116443Y175066D01*
X114443D01*
X113444Y174066D01*
Y173066D01*
X114443Y172067D01*
X113444Y171067D01*
Y170067D01*
X114443Y169068D01*
X116443D01*
X117442Y170067D01*
Y171067D01*
X116443Y172067D01*
X117442Y173066D01*
Y174066D01*
X116443Y172067D02*
X114443D01*
X81250Y160950D02*
Y166948D01*
X78251D01*
X77252Y165949D01*
Y163949D01*
X78251Y162950D01*
X81250D01*
X79251D02*
X77252Y160950D01*
X71254D02*
X75252D01*
X71254Y164949D01*
Y165949D01*
X72253Y166948D01*
X74253D01*
X75252Y165949D01*
X97335Y162114D02*
X93336D01*
X92336Y163114D01*
Y165113D01*
X93336Y166113D01*
X97335D01*
X98335Y165113D01*
Y163114D01*
X96335Y164113D02*
X98335Y162114D01*
Y163114D02*
X97335Y162114D01*
X98335Y160115D02*
Y158115D01*
Y159115D01*
X92336D01*
X93336Y160115D01*
X134352Y174111D02*
X135351Y175111D01*
X137351D01*
X138350Y174111D01*
Y170112D01*
X137351Y169113D01*
X135351D01*
X134352Y170112D01*
X132352D02*
X131353Y169113D01*
X129353D01*
X128354Y170112D01*
Y174111D01*
X129353Y175111D01*
X131353D01*
X132352Y174111D01*
Y173111D01*
X131353Y172112D01*
X128354D01*
X169175Y218068D02*
X163177D01*
Y215069D01*
X164176Y214070D01*
X166176D01*
X167176Y215069D01*
Y218068D01*
Y216069D02*
X169175Y214070D01*
X164176Y212070D02*
X163177Y211071D01*
Y209071D01*
X164176Y208072D01*
X165176D01*
X166176Y209071D01*
Y210071D01*
Y209071D01*
X167176Y208072D01*
X168175D01*
X169175Y209071D01*
Y211071D01*
X168175Y212070D01*
X311222Y199779D02*
Y205778D01*
X308223D01*
X307223Y204778D01*
Y202779D01*
X308223Y201779D01*
X311222D01*
X309223D02*
X307223Y199779D01*
X305224D02*
X303225D01*
X304224D01*
Y205778D01*
X305224Y204778D01*
X179150Y180900D02*
X173152D01*
Y177901D01*
X174152Y176901D01*
X176151D01*
X177151Y177901D01*
Y180900D01*
Y178901D02*
X179150Y176901D01*
Y174902D02*
Y172903D01*
Y173902D01*
X173152D01*
X174152Y174902D01*
X179150Y165905D02*
Y169904D01*
X175152Y165905D01*
X174152D01*
X173152Y166904D01*
Y168904D01*
X174152Y169904D01*
X195949Y172999D02*
X196948Y171999D01*
Y170000D01*
X195949Y169000D01*
X191950D01*
X190950Y170000D01*
Y171999D01*
X191950Y172999D01*
X196948Y178997D02*
Y174998D01*
X193949D01*
X194949Y176997D01*
Y177997D01*
X193949Y178997D01*
X191950D01*
X190950Y177997D01*
Y175998D01*
X191950Y174998D01*
X657250Y5150D02*
X663248D01*
Y8149D01*
X662249Y9149D01*
X660249D01*
X659250Y8149D01*
Y5150D01*
X662249Y11148D02*
X663248Y12148D01*
Y14147D01*
X662249Y15147D01*
X661249D01*
X660249Y14147D01*
Y13147D01*
Y14147D01*
X659250Y15147D01*
X658250D01*
X657250Y14147D01*
Y12148D01*
X658250Y11148D01*
D35*
X696300Y0D02*
Y260000D01*
X-0D02*
X696300D01*
X-0Y0D02*
X696300D01*
X-0D02*
Y260000D01*
D71*
X475005Y75797D02*
G03*
X475005Y75797I-197J0D01*
G01*
X483634Y201532D02*
G03*
X483634Y201532I-492J0D01*
G01*
X104750Y153913D02*
G03*
X104750Y153913I-492J0D01*
G01*
X178619Y197000D02*
G03*
X178619Y197000I-492J0D01*
G01*
D73*
X435901Y153106D02*
X442200D01*
X435901Y141294D02*
X442200D01*
X488202Y71327D02*
Y73493D01*
Y60107D02*
Y62272D01*
X474816Y60107D02*
Y62272D01*
Y71327D02*
Y73493D01*
X475446D01*
X487571D02*
X488202D01*
X487571Y60107D02*
X488202D01*
X474816D02*
X475446D01*
X478872Y199334D02*
X481628D01*
X478872Y187130D02*
X481628D01*
Y199334D01*
X478872Y187130D02*
Y199334D01*
X481044Y91100D02*
X497973D01*
X481044Y79194D02*
X497973D01*
Y89431D02*
Y91100D01*
X481044Y89431D02*
Y91100D01*
X497973Y79194D02*
Y80769D01*
X481044Y79194D02*
Y80769D01*
X106357Y156607D02*
X109506D01*
Y159757D01*
X106357Y168418D02*
X109506D01*
Y165268D02*
Y168418D01*
X180225Y199694D02*
X183375D01*
Y202844D01*
X180225Y211506D02*
X183375D01*
Y208356D02*
Y211506D01*
X584250Y2850D02*
X654250D01*
X584250D02*
Y12850D01*
X654250D01*
Y2850D02*
Y12850D01*
M02*
