%FSLAX25Y25*%
%MOIN*%
G70*
G01*
G75*
G04 Layer_Physical_Order=2*
G04 Layer_Color=16711680*
G04:AMPARAMS|DCode=10|XSize=23.62mil|YSize=61.02mil|CornerRadius=5.91mil|HoleSize=0mil|Usage=FLASHONLY|Rotation=0.000|XOffset=0mil|YOffset=0mil|HoleType=Round|Shape=RoundedRectangle|*
%AMROUNDEDRECTD10*
21,1,0.02362,0.04921,0,0,0.0*
21,1,0.01181,0.06102,0,0,0.0*
1,1,0.01181,0.00591,-0.02461*
1,1,0.01181,-0.00591,-0.02461*
1,1,0.01181,-0.00591,0.02461*
1,1,0.01181,0.00591,0.02461*
%
%ADD10ROUNDEDRECTD10*%
%ADD11O,0.07480X0.02362*%
%ADD12O,0.01378X0.07087*%
G04:AMPARAMS|DCode=13|XSize=23.62mil|YSize=61.02mil|CornerRadius=5.91mil|HoleSize=0mil|Usage=FLASHONLY|Rotation=270.000|XOffset=0mil|YOffset=0mil|HoleType=Round|Shape=RoundedRectangle|*
%AMROUNDEDRECTD13*
21,1,0.02362,0.04921,0,0,270.0*
21,1,0.01181,0.06102,0,0,270.0*
1,1,0.01181,-0.02461,-0.00591*
1,1,0.01181,-0.02461,0.00591*
1,1,0.01181,0.02461,0.00591*
1,1,0.01181,0.02461,-0.00591*
%
%ADD13ROUNDEDRECTD13*%
%ADD14R,0.03937X0.05315*%
%ADD15R,0.04134X0.04331*%
%ADD16R,0.03150X0.01969*%
%ADD17R,0.01969X0.03150*%
%ADD18R,0.04724X0.05315*%
%ADD19R,0.05315X0.04724*%
%ADD20R,0.05709X0.04528*%
%ADD21R,0.04528X0.05709*%
%ADD22C,0.01969*%
%ADD23C,0.01500*%
%ADD24C,0.02000*%
%ADD25C,0.01300*%
%ADD26C,0.04000*%
%ADD27C,0.05000*%
%ADD28C,0.03000*%
%ADD29C,0.06500*%
%ADD30C,0.06000*%
%ADD31R,0.03500X0.07500*%
%ADD32R,0.04724X0.07087*%
%ADD33R,0.07500X0.03500*%
%ADD34R,0.05600X0.07700*%
%ADD35C,0.00100*%
%ADD36C,0.11417*%
%ADD37C,0.15354*%
%ADD38C,0.11024*%
%ADD39C,0.05906*%
%ADD40R,0.05906X0.05906*%
%ADD41C,0.06000*%
%ADD42R,0.05906X0.05906*%
%ADD43P,0.05966X8X112.5*%
%ADD44C,0.05512*%
%ADD45C,0.11811*%
%ADD46C,0.10236*%
%ADD47C,0.05000*%
%ADD48C,0.02284*%
%ADD49C,0.15700*%
%ADD50C,0.04000*%
%ADD51C,0.02000*%
%ADD52C,0.06200*%
%ADD53R,0.06693X0.12598*%
%ADD54R,0.09449X0.06496*%
%ADD55O,0.01102X0.03347*%
%ADD56R,0.03543X0.02559*%
%ADD57R,0.06102X0.05512*%
%ADD58R,0.04331X0.04134*%
%ADD59R,0.03937X0.02362*%
%ADD60C,0.04500*%
%ADD61C,0.01000*%
%ADD62C,0.02500*%
%ADD63C,0.07000*%
%ADD64C,0.03500*%
%ADD65C,0.05500*%
%ADD66R,0.07087X0.04724*%
%ADD67R,0.02756X0.01102*%
G36*
X32143Y168615D02*
X37893D01*
X38504Y168004D01*
X39235Y167443D01*
X40086Y167090D01*
X41000Y166970D01*
X46800D01*
Y155200D01*
X46800Y155200D01*
X46800Y155200D01*
X46759Y155100D01*
X23500D01*
Y168400D01*
X31678Y168707D01*
X29513Y168680D01*
X31678Y168707D01*
X32143Y168615D01*
D02*
G37*
G36*
X-375900Y214298D02*
Y-900D01*
X-393406D01*
X-393527Y-415D01*
X-393319Y-303D01*
X-391769Y968D01*
X-390497Y2518D01*
X-389552Y4286D01*
X-388970Y6205D01*
X-388774Y8200D01*
X-388970Y10195D01*
X-389552Y12113D01*
X-390497Y13881D01*
X-391769Y15431D01*
X-393319Y16702D01*
X-395087Y17648D01*
X-397005Y18229D01*
X-399000Y18426D01*
X-400995Y18229D01*
X-401961Y17936D01*
X-411709Y27684D01*
Y101015D01*
X-406102Y106622D01*
X-405700Y106325D01*
X-406072Y105629D01*
X-406508Y104193D01*
X-406655Y102700D01*
X-406508Y101206D01*
X-406072Y99770D01*
X-405365Y98447D01*
X-404413Y97287D01*
X-403253Y96335D01*
X-401929Y95627D01*
X-400493Y95192D01*
X-399000Y95045D01*
X-397507Y95192D01*
X-396071Y95627D01*
X-394747Y96335D01*
X-393587Y97287D01*
X-392635Y98447D01*
X-391928Y99770D01*
X-391492Y101206D01*
X-391345Y102700D01*
X-391492Y104193D01*
X-391928Y105629D01*
X-392635Y106953D01*
X-393587Y108113D01*
X-394747Y109064D01*
X-396071Y109772D01*
X-397507Y110207D01*
X-399000Y110355D01*
X-400493Y110207D01*
X-401929Y109772D01*
X-402625Y109400D01*
X-402923Y109802D01*
X-396012Y116712D01*
X-395251Y117704D01*
X-394772Y118860D01*
X-394609Y120100D01*
Y131415D01*
X-387215Y138809D01*
X-387082D01*
X-385823Y138288D01*
X-384400Y138100D01*
X-382977Y138288D01*
X-381650Y138837D01*
X-380511Y139711D01*
X-379637Y140850D01*
X-379088Y142176D01*
X-378900Y143600D01*
X-379088Y145024D01*
X-379637Y146350D01*
X-380511Y147489D01*
X-381633Y148350D01*
Y148850D01*
X-380511Y149711D01*
X-379637Y150850D01*
X-379088Y152176D01*
X-378900Y153600D01*
X-379088Y155024D01*
X-379637Y156350D01*
X-380511Y157489D01*
X-381633Y158350D01*
Y158850D01*
X-380511Y159711D01*
X-379637Y160850D01*
X-379088Y162177D01*
X-378900Y163600D01*
X-379088Y165024D01*
X-379637Y166350D01*
X-380511Y167489D01*
X-381633Y168350D01*
Y168850D01*
X-380511Y169711D01*
X-379637Y170850D01*
X-379088Y172177D01*
X-378900Y173600D01*
X-379088Y175023D01*
X-379637Y176350D01*
X-380511Y177489D01*
X-381650Y178363D01*
X-382977Y178912D01*
X-384400Y179100D01*
X-385823Y178912D01*
X-387150Y178363D01*
X-388289Y177489D01*
X-389163Y176350D01*
X-389712Y175023D01*
X-389900Y173600D01*
X-389712Y172177D01*
X-389163Y170850D01*
X-388289Y169711D01*
X-387167Y168850D01*
Y168350D01*
X-388289Y167489D01*
X-389163Y166350D01*
X-389712Y165024D01*
X-389900Y163600D01*
X-389712Y162177D01*
X-389163Y160850D01*
X-388289Y159711D01*
X-387167Y158850D01*
Y158350D01*
X-388289Y157489D01*
X-389163Y156350D01*
X-389712Y155024D01*
X-389900Y153600D01*
X-389712Y152176D01*
X-389163Y150850D01*
X-388289Y149711D01*
X-387186Y148864D01*
X-387346Y148391D01*
X-389200D01*
X-390440Y148228D01*
X-391257Y147889D01*
X-391596Y147749D01*
X-392588Y146988D01*
X-402788Y136788D01*
X-403549Y135795D01*
X-403689Y135457D01*
X-404028Y134640D01*
X-404191Y133400D01*
X-404191Y133400D01*
X-404191D01*
X-404191Y133400D01*
X-404191D01*
Y122084D01*
X-405434Y120842D01*
X-405863Y121099D01*
X-405410Y122590D01*
X-405252Y124200D01*
X-405410Y125809D01*
X-405879Y127356D01*
X-406642Y128782D01*
X-407667Y130032D01*
X-408918Y131058D01*
X-410344Y131820D01*
X-411891Y132290D01*
X-413500Y132448D01*
X-415109Y132290D01*
X-416656Y131820D01*
X-418083Y131058D01*
X-419333Y130032D01*
X-420358Y128782D01*
X-421121Y127356D01*
X-421590Y125809D01*
X-421748Y124200D01*
X-421590Y122590D01*
X-421121Y121043D01*
X-420358Y119617D01*
X-419333Y118367D01*
X-418083Y117341D01*
X-416656Y116579D01*
X-415109Y116110D01*
X-413500Y115951D01*
X-411891Y116110D01*
X-410399Y116562D01*
X-410142Y116133D01*
X-419888Y106388D01*
X-420649Y105395D01*
X-420789Y105057D01*
X-421128Y104240D01*
X-421291Y103000D01*
Y25700D01*
X-421291Y25700D01*
X-421291D01*
X-421128Y24460D01*
X-420789Y23642D01*
X-420649Y23304D01*
X-419888Y22312D01*
X-419888Y22312D01*
X-419888Y22312D01*
Y22312D01*
X-419888Y22312D01*
X-408737Y11161D01*
X-409030Y10195D01*
X-409226Y8200D01*
X-409030Y6205D01*
X-408448Y4286D01*
X-407503Y2518D01*
X-406231Y968D01*
X-404681Y-303D01*
X-404473Y-415D01*
X-404594Y-900D01*
X-422194D01*
X-422300Y214046D01*
X-421946Y214400D01*
X-376006D01*
X-375900Y214298D01*
D02*
G37*
G36*
X36874Y189379D02*
X38049Y189225D01*
X38456Y189278D01*
X38606Y189146D01*
Y188606D01*
Y179474D01*
X40997D01*
Y179329D01*
Y177652D01*
X40004D01*
Y171164D01*
X32143D01*
Y171239D01*
Y189524D01*
X32348Y189729D01*
X36030D01*
X36874Y189379D01*
D02*
G37*
G36*
X82158Y167895D02*
X82158Y167895D01*
X82600Y167712D01*
Y155300D01*
X51000D01*
X50900Y155400D01*
Y166352D01*
X57996D01*
Y166602D01*
X61590D01*
X62504Y166722D01*
X63355Y167075D01*
X64087Y167636D01*
X64286Y167895D01*
X82158D01*
X82158Y167895D01*
D02*
G37*
G36*
X43358Y57000D02*
X46065Y54738D01*
X46087Y54238D01*
X45398Y53549D01*
X45013Y53390D01*
X42812D01*
Y54905D01*
X32104D01*
Y47885D01*
X24918D01*
X24906Y47902D01*
X24079Y48455D01*
X23104Y48649D01*
X21884D01*
X20909Y48455D01*
X20082Y47902D01*
X19613Y47200D01*
X15484D01*
X15458Y47226D01*
Y65800D01*
X34558D01*
X43358Y57000D01*
D02*
G37*
G36*
X90724Y68795D02*
Y47915D01*
X76415Y47885D01*
X75143Y47800D01*
X66002D01*
X58272Y48243D01*
X57483Y48305D01*
Y49448D01*
X55304D01*
Y50629D01*
X55199Y51426D01*
X54892Y52168D01*
X54527Y52643D01*
X59828Y57800D01*
Y68446D01*
X60182Y68800D01*
X90724Y68795D01*
D02*
G37*
G36*
Y95739D02*
X90535Y95675D01*
X89901Y96501D01*
X87101Y99301D01*
X85900Y100223D01*
X84501Y100802D01*
X83000Y101000D01*
X80549D01*
Y101500D01*
X80453Y101985D01*
X80355Y102475D01*
X80355Y102475D01*
X80355Y102475D01*
X80077Y102891D01*
X79803Y103302D01*
X79703Y103402D01*
X79702Y103402D01*
X79702Y103402D01*
X79291Y103677D01*
X78876Y103955D01*
X78875Y103955D01*
X78875Y103955D01*
X78385Y104052D01*
X77900Y104149D01*
X77900Y104149D01*
X77900Y104149D01*
X75129D01*
Y152751D01*
X82600D01*
X83575Y152945D01*
X84402Y153498D01*
X84955Y154324D01*
X85149Y155300D01*
Y167712D01*
X85044Y168240D01*
X84955Y168688D01*
X84955Y168688D01*
X84955Y168688D01*
X84677Y169103D01*
X84403Y169515D01*
X84403Y169515D01*
X84402Y169515D01*
X83991Y169790D01*
X83576Y170067D01*
X83575Y170067D01*
D01*
D01*
X83134Y170250D01*
X83134Y170250D01*
X83134Y170250D01*
X82662Y170344D01*
X82159Y170444D01*
X82158Y170444D01*
X82158Y170444D01*
X82158D01*
X82158D01*
X64286D01*
X64121Y170412D01*
X63953Y170423D01*
X63637Y170315D01*
X63599Y170308D01*
D01*
X63310Y170250D01*
X63268Y170222D01*
X58846D01*
Y169670D01*
X57996D01*
Y170093D01*
Y177652D01*
X57078D01*
Y178971D01*
Y181618D01*
X58957D01*
Y188901D01*
Y198626D01*
X48642D01*
Y197041D01*
X47271D01*
X46421Y197694D01*
X45326Y198148D01*
X44151Y198302D01*
X42976Y198148D01*
X41882Y197694D01*
X41100Y197094D01*
X40318Y197694D01*
X39224Y198148D01*
X38049Y198302D01*
X36874Y198148D01*
X36030Y197798D01*
X31982D01*
X31138Y198148D01*
X29963Y198302D01*
X28789Y198148D01*
X27694Y197694D01*
X26754Y196973D01*
X25381Y195600D01*
X24578Y195267D01*
X23534Y194466D01*
X22733Y193422D01*
X22229Y192205D01*
X22057Y190900D01*
Y170442D01*
X21698Y170202D01*
X21671Y170162D01*
X21631Y170133D01*
X21395Y169750D01*
X21145Y169375D01*
X21136Y169328D01*
X21110Y169286D01*
X21039Y168842D01*
X20951Y168400D01*
Y163453D01*
X12373Y154875D01*
X11451Y153674D01*
X10872Y152275D01*
X10674Y150774D01*
Y132899D01*
X9828D01*
Y115301D01*
X12187D01*
Y114467D01*
X11772D01*
Y105333D01*
X21102D01*
Y114467D01*
X20761D01*
Y115301D01*
X21520D01*
Y120558D01*
X22076Y121899D01*
X22274Y123400D01*
Y148372D01*
X26453Y152551D01*
X46759D01*
X47257Y152650D01*
X47734Y152745D01*
X47734Y152745D01*
X47734Y152745D01*
X48149Y153023D01*
X48561Y153297D01*
X48561Y153298D01*
X48561Y153298D01*
X48829Y153700D01*
X49029D01*
X49098Y153598D01*
X49098Y153597D01*
X49098Y153597D01*
X49198Y153497D01*
X49602Y153227D01*
X50024Y152945D01*
X50025Y152945D01*
X50025Y152945D01*
X50495Y152851D01*
X51000Y152751D01*
X63071D01*
Y104149D01*
X60328D01*
X60081Y104100D01*
X59830D01*
X59598Y104004D01*
X59352Y103955D01*
X59143Y103815D01*
X58911Y103719D01*
X58565Y103488D01*
X58301Y103224D01*
X58011Y102986D01*
X57884Y102831D01*
X57854Y102776D01*
X57487Y102849D01*
X50400D01*
X49425Y102655D01*
X48598Y102102D01*
X48045Y101276D01*
X47851Y100300D01*
Y95576D01*
X48045Y94600D01*
X48598Y93773D01*
X49425Y93221D01*
X50400Y93027D01*
X57279D01*
Y91882D01*
X57408Y91234D01*
X57473Y90906D01*
X57473Y90906D01*
Y90906D01*
X57806Y90408D01*
X58026Y90079D01*
X58026Y90079D01*
X58026Y90079D01*
X58355Y89859D01*
X58853Y89526D01*
X59315Y89335D01*
X59315Y89335D01*
D01*
X59514Y89296D01*
X60290Y89141D01*
X60290D01*
X60290D01*
X60340Y89151D01*
X64572D01*
X64899Y89216D01*
X65232Y89238D01*
X65383Y89312D01*
X65548Y89345D01*
X65706Y89451D01*
X65833Y89398D01*
X66639Y89292D01*
X71561D01*
X72367Y89398D01*
X72372Y89400D01*
X72569D01*
X72652Y89345D01*
X72817Y89312D01*
X72968Y89238D01*
X73301Y89216D01*
X73628Y89151D01*
X78000D01*
X78975Y89345D01*
X79058Y89400D01*
X80000D01*
Y71487D01*
X79859Y71346D01*
X60182Y71349D01*
X60182Y71349D01*
X60182Y71349D01*
X59674Y71248D01*
X59207Y71155D01*
X59207Y71155D01*
X59206Y71155D01*
X58778Y70868D01*
X58380Y70603D01*
X58380Y70603D01*
X58380Y70602D01*
X58026Y70249D01*
X58026Y70249D01*
X58026Y70249D01*
X57751Y69838D01*
X57473Y69422D01*
X57473Y69422D01*
X57473Y69422D01*
X57376Y68932D01*
X57279Y68446D01*
X57279Y68446D01*
X57279Y68446D01*
Y58876D01*
X56021Y57652D01*
X55837Y57730D01*
Y67256D01*
X44735D01*
Y59490D01*
X44550Y59413D01*
X36361Y67602D01*
X35534Y68155D01*
X34558Y68349D01*
X15458D01*
X14483Y68155D01*
X13656Y67602D01*
X13103Y66775D01*
X12909Y65800D01*
Y51757D01*
X9050Y47898D01*
X8249Y46854D01*
X7745Y45638D01*
X7573Y44332D01*
Y35443D01*
X-7960D01*
X-9265Y35271D01*
X-10481Y34767D01*
X-11526Y33966D01*
X-36249Y9243D01*
X-240011D01*
X-273902Y43134D01*
X-274947Y43936D01*
X-276163Y44440D01*
X-277468Y44611D01*
X-291068D01*
X-292374Y44440D01*
X-293590Y43936D01*
X-294634Y43134D01*
X-295436Y42090D01*
X-295940Y40874D01*
X-296111Y39568D01*
X-295940Y38263D01*
X-295436Y37047D01*
X-294634Y36002D01*
X-293590Y35201D01*
X-292374Y34697D01*
X-291068Y34525D01*
X-279557D01*
X-245666Y634D01*
X-244622Y-167D01*
X-243405Y-671D01*
X-242100Y-843D01*
X-34160D01*
X-32855Y-671D01*
X-31638Y-167D01*
X-30594Y634D01*
X-30594Y634D01*
X-30594Y634D01*
X-5871Y25357D01*
X7754D01*
Y25242D01*
X24762D01*
Y25861D01*
X36517D01*
X36656Y25879D01*
X42016D01*
Y30907D01*
X45088Y33979D01*
X45525Y33798D01*
X46321Y33693D01*
X47082Y33793D01*
X47232Y33661D01*
Y32363D01*
X47335Y31580D01*
X47549Y31064D01*
X47638Y30850D01*
X47700Y30769D01*
X47726Y30572D01*
X48079Y29721D01*
X48640Y28989D01*
X49371Y28429D01*
X49438Y28401D01*
Y18642D01*
X60038D01*
Y12954D01*
X58653D01*
Y2246D01*
X75464D01*
Y3061D01*
X77892D01*
X78695Y2729D01*
X80000Y2557D01*
X81305Y2729D01*
X82522Y3232D01*
X83566Y4034D01*
X84368Y5078D01*
X84871Y6295D01*
X85043Y7600D01*
X84871Y8905D01*
X84368Y10121D01*
X83566Y11166D01*
X82522Y11967D01*
X81305Y12471D01*
X80000Y12643D01*
X78695Y12471D01*
X77892Y12139D01*
X75464D01*
Y12954D01*
X73878D01*
Y18642D01*
X75462D01*
Y28957D01*
X64238D01*
X64150Y29137D01*
X64598Y29721D01*
X64951Y30572D01*
X65071Y31486D01*
X64951Y32399D01*
X64598Y33251D01*
X64037Y33982D01*
X63306Y34543D01*
X62454Y34896D01*
X61541Y35016D01*
X61373Y34994D01*
X57261Y39107D01*
X57168Y39811D01*
X56860Y40554D01*
X56371Y41191D01*
X55734Y41680D01*
X54992Y41987D01*
X54195Y42092D01*
X53399Y41987D01*
X53211Y41910D01*
X53023Y41987D01*
X52227Y42092D01*
X51430Y41987D01*
X51242Y41910D01*
X51055Y41987D01*
X50258Y42092D01*
X49462Y41987D01*
X48719Y41680D01*
X48290Y41350D01*
X47860Y41680D01*
X47118Y41987D01*
X46321Y42092D01*
X45525Y41987D01*
X44782Y41680D01*
X44383Y41374D01*
X44010Y41423D01*
X43096Y41303D01*
X42244Y40950D01*
X41513Y40389D01*
X36728Y35604D01*
X31701D01*
Y34939D01*
X24762D01*
Y35557D01*
X17660D01*
Y42243D01*
X20121Y44704D01*
X20342Y44796D01*
X20588Y44845D01*
X20797Y44984D01*
X21029Y45081D01*
X21206Y45258D01*
X21415Y45397D01*
X21554Y45606D01*
X21732Y45784D01*
X21884Y46012D01*
Y46100D01*
X23104D01*
Y45336D01*
X33813D01*
Y45378D01*
X42812D01*
Y46100D01*
Y46481D01*
X43936D01*
X44145Y46209D01*
X44482Y45950D01*
X44782Y45720D01*
X45525Y45412D01*
X46321Y45307D01*
X47118Y45412D01*
X47305Y45490D01*
X47493Y45412D01*
X48290Y45307D01*
X49086Y45412D01*
X49274Y45490D01*
X49462Y45412D01*
X50258Y45307D01*
X51055Y45412D01*
X51797Y45720D01*
X52227Y46049D01*
X52656Y45720D01*
X53399Y45412D01*
X54195Y45307D01*
X54992Y45412D01*
X55734Y45720D01*
X55981Y45910D01*
X56310Y46046D01*
X56327Y46033D01*
X56424Y46006D01*
X56507Y45950D01*
X56899Y45872D01*
X57284Y45764D01*
X57391Y45755D01*
X58074Y45702D01*
X58100Y45705D01*
X58126Y45698D01*
X65541Y45273D01*
X65856Y45255D01*
X65930Y45265D01*
X66002Y45251D01*
X75143D01*
X75228Y45268D01*
X75314Y45257D01*
X76503Y45336D01*
X90583Y45366D01*
X90724Y45225D01*
Y-13774D01*
X-363224D01*
Y227774D01*
X90724D01*
Y95739D01*
D02*
G37*
G36*
X78000Y101500D02*
Y91700D01*
X73628D01*
X73119Y92090D01*
X72367Y92401D01*
X71561Y92508D01*
X66639D01*
X65833Y92401D01*
X65081Y92090D01*
X64572Y91700D01*
X60300D01*
X60290Y91690D01*
X59828Y91882D01*
Y94580D01*
X59842Y94600D01*
X60036Y95576D01*
Y100300D01*
X59854Y101214D01*
X59982Y101369D01*
X60328Y101600D01*
X77900D01*
X78000Y101500D01*
D02*
G37*
%LPC*%
G36*
X-399000Y210355D02*
X-400493Y210208D01*
X-401929Y209772D01*
X-403253Y209065D01*
X-404413Y208113D01*
X-405365Y206953D01*
X-406072Y205629D01*
X-406508Y204193D01*
X-406655Y202700D01*
X-406508Y201206D01*
X-406072Y199770D01*
X-405365Y198447D01*
X-404413Y197287D01*
X-403253Y196335D01*
X-401929Y195627D01*
X-400493Y195192D01*
X-399000Y195045D01*
X-397507Y195192D01*
X-396071Y195627D01*
X-394747Y196335D01*
X-393587Y197287D01*
X-392635Y198447D01*
X-391928Y199770D01*
X-391492Y201206D01*
X-391345Y202700D01*
X-391492Y204193D01*
X-391928Y205629D01*
X-392635Y206953D01*
X-393587Y208113D01*
X-394747Y209065D01*
X-396071Y209772D01*
X-397507Y210208D01*
X-399000Y210355D01*
D02*
G37*
G36*
X57487Y88574D02*
X50400D01*
X49425Y88380D01*
X48598Y87827D01*
X48045Y87000D01*
X47851Y86025D01*
Y81300D01*
X48045Y80325D01*
X48598Y79498D01*
X49425Y78945D01*
X50400Y78751D01*
X57487D01*
X58462Y78945D01*
X59289Y79498D01*
X59842Y80325D01*
X60036Y81300D01*
Y86024D01*
X59842Y87000D01*
X59828Y87020D01*
Y87020D01*
X59289Y87827D01*
X58462Y88380D01*
X57487Y88574D01*
D02*
G37*
G36*
X-160400Y224643D02*
X-161705Y224471D01*
X-162922Y223968D01*
X-163966Y223166D01*
X-164768Y222122D01*
X-165271Y220905D01*
X-165443Y219600D01*
X-165271Y218295D01*
X-164768Y217078D01*
X-163966Y216034D01*
X-163678Y215813D01*
Y201181D01*
X-163966Y200960D01*
X-164768Y199916D01*
X-165271Y198699D01*
X-165443Y197394D01*
X-165271Y196089D01*
X-164768Y194873D01*
X-163966Y193828D01*
X-162922Y193027D01*
X-161705Y192523D01*
X-160400Y192351D01*
X-159095Y192523D01*
X-157878Y193027D01*
X-156834Y193828D01*
X-156033Y194873D01*
X-155529Y196089D01*
X-155357Y197394D01*
X-155529Y198699D01*
X-156033Y199916D01*
X-156834Y200960D01*
X-157122Y201181D01*
Y215813D01*
X-156834Y216034D01*
X-156033Y217078D01*
X-155529Y218295D01*
X-155357Y219600D01*
X-155529Y220905D01*
X-156033Y222122D01*
X-156834Y223166D01*
X-157878Y223968D01*
X-159095Y224471D01*
X-160400Y224643D01*
D02*
G37*
G36*
X4005Y144767D02*
X-5522D01*
Y139727D01*
X-5621Y138979D01*
Y132899D01*
X-5920D01*
Y129647D01*
X-18300D01*
X-19670Y129466D01*
X-20948Y128937D01*
X-22044Y128095D01*
X-22886Y126999D01*
X-23415Y125722D01*
X-23595Y124351D01*
X-23415Y122981D01*
X-22886Y121704D01*
X-22044Y120607D01*
X-20948Y119765D01*
X-19670Y119236D01*
X-18300Y119056D01*
X-5920D01*
Y115301D01*
X5772D01*
Y132899D01*
X4970D01*
Y138979D01*
X4790Y140350D01*
X4261Y141627D01*
X4005Y141960D01*
Y144767D01*
D02*
G37*
G36*
X-182132Y107975D02*
X-183555Y107788D01*
X-184881Y107239D01*
X-186021Y106365D01*
X-186895Y105226D01*
X-187031Y104895D01*
X-187232D01*
X-187369Y105226D01*
X-188243Y106365D01*
X-189382Y107239D01*
X-190708Y107788D01*
X-192131Y107975D01*
X-193555Y107788D01*
X-194881Y107239D01*
X-196020Y106365D01*
X-196895Y105226D01*
X-197031Y104895D01*
X-197231D01*
X-197369Y105226D01*
X-198243Y106365D01*
X-199382Y107239D01*
X-200708Y107788D01*
X-202132Y107975D01*
X-203555Y107788D01*
X-204881Y107239D01*
X-206020Y106365D01*
X-206894Y105226D01*
X-207031Y104895D01*
X-207231D01*
X-207368Y105226D01*
X-208243Y106365D01*
X-209382Y107239D01*
X-210708Y107788D01*
X-212132Y107975D01*
X-213555Y107788D01*
X-214881Y107239D01*
X-216020Y106365D01*
X-216895Y105226D01*
X-217032Y104895D01*
X-217231D01*
X-217369Y105226D01*
X-218243Y106365D01*
X-219382Y107239D01*
X-220708Y107788D01*
X-222131Y107975D01*
X-223555Y107788D01*
X-224881Y107239D01*
X-226020Y106365D01*
X-226894Y105226D01*
X-227031Y104895D01*
X-227232D01*
X-227368Y105226D01*
X-228242Y106365D01*
X-229382Y107239D01*
X-230708Y107788D01*
X-232132Y107975D01*
X-233555Y107788D01*
X-234881Y107239D01*
X-236020Y106365D01*
X-236894Y105226D01*
X-237444Y103899D01*
X-237631Y102476D01*
X-237444Y101052D01*
X-236894Y99726D01*
X-236842Y99657D01*
X-236930Y99478D01*
X-263342D01*
X-264211Y100347D01*
X-264890Y100868D01*
X-265285Y101032D01*
X-265681Y101196D01*
X-266105Y101251D01*
X-266529Y101307D01*
X-276490D01*
X-276852Y101778D01*
X-277949Y102620D01*
X-279228Y103150D01*
X-280600Y103330D01*
X-281972Y103150D01*
X-283251Y102620D01*
X-284349Y101778D01*
X-285191Y100680D01*
X-285416Y100138D01*
X-294094D01*
Y102214D01*
X-303622D01*
Y91505D01*
X-294094D01*
Y93582D01*
X-283438D01*
X-283251Y93438D01*
X-281972Y92909D01*
X-280600Y92728D01*
X-279228Y92909D01*
X-277949Y93438D01*
X-276852Y94281D01*
X-276490Y94751D01*
X-269073D01*
X-269034Y94555D01*
X-269160Y94503D01*
X-269556Y94339D01*
X-269940Y94044D01*
X-270234Y93818D01*
X-279980Y84072D01*
X-283228D01*
X-285800Y81501D01*
X-294094D01*
Y83577D01*
X-303622D01*
Y72869D01*
X-294094D01*
Y74945D01*
X-284612D01*
X-283228Y73561D01*
X-277972D01*
X-275344Y76189D01*
Y79437D01*
X-266559Y88222D01*
X-193091D01*
X-192667Y88278D01*
X-192243Y88334D01*
X-191848Y88497D01*
X-191452Y88661D01*
X-190773Y89182D01*
X-190773Y89182D01*
X-190773Y89182D01*
X-182881Y97075D01*
X-182132Y96976D01*
X-180708Y97163D01*
X-179382Y97713D01*
X-178243Y98587D01*
X-177368Y99726D01*
X-176819Y101052D01*
X-176632Y102476D01*
X-176819Y103899D01*
X-177368Y105226D01*
X-178243Y106365D01*
X-179382Y107239D01*
X-180708Y107788D01*
X-182132Y107975D01*
D02*
G37*
G36*
X-272500Y225382D02*
X-274124Y225254D01*
X-275708Y224874D01*
X-277213Y224250D01*
X-278602Y223399D01*
X-279841Y222341D01*
X-280899Y221102D01*
X-281750Y219713D01*
X-282374Y218208D01*
X-282754Y216624D01*
X-282882Y215000D01*
X-282754Y213376D01*
X-282374Y211792D01*
X-281750Y210287D01*
X-280899Y208898D01*
X-279841Y207659D01*
X-278602Y206601D01*
X-277213Y205750D01*
X-275708Y205126D01*
X-274124Y204746D01*
X-272500Y204618D01*
X-270876Y204746D01*
X-269292Y205126D01*
X-267787Y205750D01*
X-266398Y206601D01*
X-265159Y207659D01*
X-264101Y208898D01*
X-263250Y210287D01*
X-262626Y211792D01*
X-262246Y213376D01*
X-262118Y215000D01*
X-262246Y216624D01*
X-262626Y218208D01*
X-263250Y219713D01*
X-264101Y221102D01*
X-265159Y222341D01*
X-266398Y223399D01*
X-267787Y224250D01*
X-269292Y224874D01*
X-270876Y225254D01*
X-272500Y225382D01*
D02*
G37*
G36*
X0Y10382D02*
X-1624Y10254D01*
X-3208Y9874D01*
X-4713Y9250D01*
X-6102Y8399D01*
X-7341Y7341D01*
X-8399Y6102D01*
X-9250Y4713D01*
X-9874Y3208D01*
X-10254Y1624D01*
X-10382Y0D01*
X-10254Y-1624D01*
X-9874Y-3208D01*
X-9250Y-4713D01*
X-8399Y-6102D01*
X-7341Y-7341D01*
X-6102Y-8399D01*
X-4713Y-9250D01*
X-3208Y-9874D01*
X-1624Y-10254D01*
X0Y-10382D01*
X1624Y-10254D01*
X3208Y-9874D01*
X4713Y-9250D01*
X6102Y-8399D01*
X7341Y-7341D01*
X8399Y-6102D01*
X9250Y-4713D01*
X9874Y-3208D01*
X10254Y-1624D01*
X10382Y0D01*
X10254Y1624D01*
X9874Y3208D01*
X9250Y4713D01*
X8399Y6102D01*
X7341Y7341D01*
X6102Y8399D01*
X4713Y9250D01*
X3208Y9874D01*
X1624Y10254D01*
X0Y10382D01*
D02*
G37*
G36*
X-272500D02*
X-274124Y10254D01*
X-275708Y9874D01*
X-277213Y9250D01*
X-278602Y8399D01*
X-279841Y7341D01*
X-280899Y6102D01*
X-281750Y4713D01*
X-282374Y3208D01*
X-282754Y1624D01*
X-282882Y0D01*
X-282754Y-1624D01*
X-282374Y-3208D01*
X-281750Y-4713D01*
X-280899Y-6102D01*
X-279841Y-7341D01*
X-278602Y-8399D01*
X-277213Y-9250D01*
X-275708Y-9874D01*
X-274124Y-10254D01*
X-272500Y-10382D01*
X-270876Y-10254D01*
X-269292Y-9874D01*
X-267787Y-9250D01*
X-266398Y-8399D01*
X-265159Y-7341D01*
X-264101Y-6102D01*
X-263250Y-4713D01*
X-262626Y-3208D01*
X-262246Y-1624D01*
X-262118Y0D01*
X-262246Y1624D01*
X-262626Y3208D01*
X-263250Y4713D01*
X-264101Y6102D01*
X-265159Y7341D01*
X-266398Y8399D01*
X-267787Y9250D01*
X-269292Y9874D01*
X-270876Y10254D01*
X-272500Y10382D01*
D02*
G37*
G36*
X-127000Y38706D02*
X-128305Y38534D01*
X-129522Y38030D01*
X-130566Y37229D01*
X-131368Y36184D01*
X-131871Y34968D01*
X-132043Y33663D01*
X-131871Y32357D01*
X-131368Y31141D01*
X-130566Y30097D01*
X-130278Y29876D01*
Y19815D01*
X-130566Y19594D01*
X-131368Y18550D01*
X-131871Y17333D01*
X-132043Y16028D01*
X-131871Y14723D01*
X-131368Y13507D01*
X-130566Y12462D01*
X-129522Y11661D01*
X-128305Y11157D01*
X-127000Y10985D01*
X-125695Y11157D01*
X-124478Y11661D01*
X-123434Y12462D01*
X-122633Y13507D01*
X-122129Y14723D01*
X-121957Y16028D01*
X-122129Y17333D01*
X-122633Y18550D01*
X-123434Y19594D01*
X-123722Y19815D01*
Y29876D01*
X-123434Y30097D01*
X-122633Y31141D01*
X-122129Y32357D01*
X-121957Y33663D01*
X-122129Y34968D01*
X-122633Y36184D01*
X-123434Y37229D01*
X-124478Y38030D01*
X-125695Y38534D01*
X-127000Y38706D01*
D02*
G37*
G36*
X-391500Y64250D02*
X-393071Y64095D01*
X-394581Y63637D01*
X-395973Y62893D01*
X-397193Y61892D01*
X-398194Y60672D01*
X-398938Y59280D01*
X-399396Y57770D01*
X-399551Y56200D01*
X-399396Y54629D01*
X-398938Y53119D01*
X-398194Y51727D01*
X-397193Y50507D01*
X-395973Y49506D01*
X-394581Y48762D01*
X-393071Y48304D01*
X-391500Y48149D01*
X-389929Y48304D01*
X-388419Y48762D01*
X-387027Y49506D01*
X-385807Y50507D01*
X-384806Y51727D01*
X-384062Y53119D01*
X-383604Y54629D01*
X-383449Y56200D01*
X-383604Y57770D01*
X-384062Y59280D01*
X-384806Y60672D01*
X-385807Y61892D01*
X-387027Y62893D01*
X-388419Y63637D01*
X-389929Y64095D01*
X-391500Y64250D01*
D02*
G37*
G36*
X0Y225382D02*
X-1624Y225254D01*
X-3208Y224874D01*
X-4713Y224250D01*
X-6102Y223399D01*
X-7341Y222341D01*
X-8399Y221102D01*
X-9250Y219713D01*
X-9874Y218208D01*
X-10254Y216624D01*
X-10382Y215000D01*
X-10254Y213376D01*
X-9874Y211792D01*
X-9250Y210287D01*
X-8399Y208898D01*
X-7341Y207659D01*
X-6102Y206601D01*
X-4713Y205750D01*
X-3208Y205126D01*
X-1624Y204746D01*
X0Y204618D01*
X1624Y204746D01*
X3208Y205126D01*
X4713Y205750D01*
X6102Y206601D01*
X7341Y207659D01*
X8399Y208898D01*
X9250Y210287D01*
X9874Y211792D01*
X10254Y213376D01*
X10382Y215000D01*
X10254Y216624D01*
X9874Y218208D01*
X9250Y219713D01*
X8399Y221102D01*
X7341Y222341D01*
X6102Y223399D01*
X4713Y224250D01*
X3208Y224874D01*
X1624Y225254D01*
X0Y225382D01*
D02*
G37*
G36*
X-118611Y178294D02*
X-128926D01*
Y168569D01*
Y161286D01*
X-127047D01*
Y157137D01*
X-126991Y156713D01*
X-126935Y156289D01*
X-126771Y155893D01*
X-126607Y155498D01*
X-126086Y154819D01*
X-126086Y154819D01*
X-126086Y154819D01*
X-122639Y151372D01*
X-122344Y151146D01*
X-121960Y150851D01*
X-121170Y150523D01*
X-120321Y150412D01*
X-115581D01*
X-114730Y149759D01*
X-113635Y149306D01*
X-112461Y149151D01*
X-111286Y149306D01*
X-110191Y149759D01*
X-109251Y150480D01*
X-108530Y151420D01*
X-108076Y152515D01*
X-107922Y153690D01*
X-108076Y154865D01*
X-108530Y155959D01*
X-109251Y156899D01*
X-110191Y157621D01*
X-111286Y158074D01*
X-112461Y158229D01*
X-113635Y158074D01*
X-114730Y157621D01*
X-115581Y156968D01*
X-118963D01*
X-120491Y158495D01*
Y161286D01*
X-118611D01*
Y168569D01*
Y170412D01*
X-115581D01*
X-114730Y169759D01*
X-113635Y169306D01*
X-112461Y169151D01*
X-111286Y169306D01*
X-110191Y169759D01*
X-109251Y170480D01*
X-108530Y171420D01*
X-108076Y172515D01*
X-107922Y173690D01*
X-108076Y174864D01*
X-108530Y175959D01*
X-109251Y176899D01*
X-110191Y177620D01*
X-111286Y178074D01*
X-112461Y178229D01*
X-113635Y178074D01*
X-114730Y177620D01*
X-115581Y176968D01*
X-118611D01*
Y178294D01*
D02*
G37*
G36*
X-312424Y166439D02*
X-313598Y166284D01*
X-314693Y165831D01*
X-315633Y165109D01*
X-316354Y164169D01*
X-316808Y163075D01*
X-316962Y161900D01*
X-316808Y160725D01*
X-316354Y159631D01*
X-315633Y158691D01*
X-314693Y157969D01*
X-313598Y157516D01*
X-312424Y157361D01*
X-311249Y157516D01*
X-310154Y157969D01*
X-309214Y158691D01*
X-308493Y159631D01*
X-308039Y160725D01*
X-307885Y161900D01*
X-308039Y163075D01*
X-308493Y164169D01*
X-309214Y165109D01*
X-310154Y165831D01*
X-311249Y166284D01*
X-312424Y166439D01*
D02*
G37*
G36*
Y186439D02*
X-313598Y186284D01*
X-314693Y185831D01*
X-315633Y185109D01*
X-316354Y184169D01*
X-316808Y183075D01*
X-316962Y181900D01*
X-316808Y180725D01*
X-316354Y179631D01*
X-315633Y178691D01*
X-314693Y177969D01*
X-313598Y177516D01*
X-312424Y177361D01*
X-311249Y177516D01*
X-310154Y177969D01*
X-309214Y178691D01*
X-308493Y179631D01*
X-308039Y180725D01*
X-307885Y181900D01*
X-308039Y183075D01*
X-308493Y184169D01*
X-309214Y185109D01*
X-310154Y185831D01*
X-311249Y186284D01*
X-312424Y186439D01*
D02*
G37*
G36*
X-316400Y177564D02*
X-317705Y177392D01*
X-318508Y177060D01*
X-335292D01*
X-336095Y177392D01*
X-337400Y177564D01*
X-338705Y177392D01*
X-339922Y176889D01*
X-340966Y176087D01*
X-341768Y175043D01*
X-342271Y173826D01*
X-342443Y172521D01*
X-342271Y171216D01*
X-341768Y170000D01*
X-340966Y168955D01*
X-339922Y168154D01*
X-338705Y167650D01*
X-337400Y167478D01*
X-336095Y167650D01*
X-335292Y167982D01*
X-318508D01*
X-317705Y167650D01*
X-316400Y167478D01*
X-315095Y167650D01*
X-313878Y168154D01*
X-312834Y168955D01*
X-312033Y170000D01*
X-311529Y171216D01*
X-311357Y172521D01*
X-311529Y173826D01*
X-312033Y175043D01*
X-312834Y176087D01*
X-313878Y176889D01*
X-315095Y177392D01*
X-316400Y177564D01*
D02*
G37*
G36*
X-413500Y187948D02*
X-415109Y187789D01*
X-416656Y187320D01*
X-418083Y186558D01*
X-419333Y185532D01*
X-420358Y184282D01*
X-421121Y182856D01*
X-421590Y181309D01*
X-421748Y179700D01*
X-421590Y178090D01*
X-421121Y176543D01*
X-420358Y175117D01*
X-419333Y173867D01*
X-418083Y172841D01*
X-416656Y172079D01*
X-415109Y171610D01*
X-413500Y171451D01*
X-411891Y171610D01*
X-410344Y172079D01*
X-408918Y172841D01*
X-407667Y173867D01*
X-406642Y175117D01*
X-405879Y176543D01*
X-405410Y178090D01*
X-405252Y179700D01*
X-405410Y181309D01*
X-405879Y182856D01*
X-406642Y184282D01*
X-407667Y185532D01*
X-408918Y186558D01*
X-410344Y187320D01*
X-411891Y187789D01*
X-413500Y187948D01*
D02*
G37*
G36*
X-177076Y165339D02*
X-178251Y165184D01*
X-179346Y164731D01*
X-180286Y164009D01*
X-181007Y163069D01*
X-181461Y161975D01*
X-181615Y160800D01*
X-181461Y159625D01*
X-181007Y158531D01*
X-180286Y157591D01*
X-179346Y156869D01*
X-178251Y156416D01*
X-177076Y156261D01*
X-175902Y156416D01*
X-174807Y156869D01*
X-173867Y157591D01*
X-173146Y158531D01*
X-172692Y159625D01*
X-172538Y160800D01*
X-172692Y161975D01*
X-173146Y163069D01*
X-173867Y164009D01*
X-174807Y164731D01*
X-175902Y165184D01*
X-177076Y165339D01*
D02*
G37*
G36*
X-156900Y145293D02*
X-158205Y145121D01*
X-159422Y144617D01*
X-160466Y143816D01*
X-161267Y142771D01*
X-161771Y141555D01*
X-161943Y140250D01*
X-161771Y138944D01*
X-161267Y137728D01*
X-160466Y136684D01*
X-159422Y135882D01*
X-158205Y135378D01*
X-156900Y135206D01*
X-155595Y135378D01*
X-154378Y135882D01*
X-153334Y136684D01*
X-153113Y136972D01*
X-138809D01*
X-138269Y136558D01*
X-137175Y136104D01*
X-136000Y135950D01*
X-134825Y136104D01*
X-133731Y136558D01*
X-132791Y137279D01*
X-132069Y138219D01*
X-131616Y139314D01*
X-131461Y140489D01*
X-131616Y141663D01*
X-132069Y142758D01*
X-132791Y143698D01*
X-133731Y144419D01*
X-134825Y144873D01*
X-136000Y145027D01*
X-137175Y144873D01*
X-138269Y144419D01*
X-139209Y143698D01*
X-139340Y143528D01*
X-153113D01*
X-153334Y143816D01*
X-154378Y144617D01*
X-155595Y145121D01*
X-156900Y145293D01*
D02*
G37*
G36*
X-195580Y165339D02*
X-196755Y165184D01*
X-197850Y164731D01*
X-198790Y164009D01*
X-199511Y163069D01*
X-199964Y161975D01*
X-200119Y160800D01*
X-199964Y159625D01*
X-199511Y158531D01*
X-198858Y157680D01*
Y156973D01*
X-198802Y156548D01*
X-198747Y156124D01*
X-198583Y155729D01*
X-198419Y155333D01*
X-197898Y154655D01*
X-181732Y138488D01*
X-181592Y137425D01*
X-181139Y136331D01*
X-180417Y135391D01*
X-179477Y134669D01*
X-178383Y134216D01*
X-177208Y134061D01*
X-176033Y134216D01*
X-174938Y134669D01*
X-173998Y135391D01*
X-173277Y136331D01*
X-172824Y137425D01*
X-172669Y138600D01*
X-172824Y139775D01*
X-173277Y140869D01*
X-173998Y141809D01*
X-174938Y142531D01*
X-176033Y142984D01*
X-177096Y143124D01*
X-192020Y158048D01*
X-191650Y158531D01*
X-191196Y159625D01*
X-191042Y160800D01*
X-191196Y161975D01*
X-191650Y163069D01*
X-192371Y164009D01*
X-193311Y164731D01*
X-194406Y165184D01*
X-195580Y165339D01*
D02*
G37*
G36*
X-175900Y198739D02*
X-177075Y198584D01*
X-178169Y198131D01*
X-179020Y197478D01*
X-182700D01*
X-183124Y197422D01*
X-183548Y197366D01*
X-183944Y197203D01*
X-184339Y197039D01*
X-185018Y196518D01*
X-202458Y179078D01*
X-207141D01*
X-207991Y179731D01*
X-209086Y180184D01*
X-210261Y180339D01*
X-211435Y180184D01*
X-212530Y179731D01*
X-213470Y179009D01*
X-214191Y178069D01*
X-214645Y176975D01*
X-214799Y175800D01*
X-214645Y174625D01*
X-214515Y174312D01*
X-214626Y174146D01*
X-217180D01*
X-218031Y174799D01*
X-219125Y175252D01*
X-220300Y175407D01*
X-221475Y175252D01*
X-222569Y174799D01*
X-223509Y174077D01*
X-224231Y173137D01*
X-224684Y172043D01*
X-224839Y170868D01*
X-224684Y169693D01*
X-224231Y168598D01*
X-223509Y167658D01*
X-222569Y166937D01*
X-221475Y166483D01*
X-220300Y166329D01*
X-219125Y166483D01*
X-218031Y166937D01*
X-217180Y167590D01*
X-162525D01*
X-151024Y156088D01*
X-150884Y155025D01*
X-150431Y153931D01*
X-149709Y152991D01*
X-148769Y152269D01*
X-147675Y151816D01*
X-146500Y151661D01*
X-145325Y151816D01*
X-144231Y152269D01*
X-143291Y152991D01*
X-142569Y153931D01*
X-142116Y155025D01*
X-141961Y156200D01*
X-142116Y157375D01*
X-142569Y158469D01*
X-143291Y159409D01*
X-144231Y160131D01*
X-145325Y160584D01*
X-146388Y160724D01*
X-158850Y173186D01*
X-159529Y173707D01*
X-159924Y173870D01*
X-160319Y174034D01*
X-160743Y174090D01*
X-161168Y174146D01*
X-197857D01*
X-197934Y174330D01*
X-181342Y190922D01*
X-179020D01*
X-178169Y190269D01*
X-177075Y189816D01*
X-175900Y189661D01*
X-174725Y189816D01*
X-173631Y190269D01*
X-172691Y190991D01*
X-171969Y191931D01*
X-171516Y193025D01*
X-171361Y194200D01*
X-171516Y195375D01*
X-171969Y196469D01*
X-172691Y197409D01*
X-173631Y198131D01*
X-174725Y198584D01*
X-175900Y198739D01*
D02*
G37*
G36*
X-213100Y198555D02*
X-214275Y198400D01*
X-215369Y197947D01*
X-216220Y197294D01*
X-224784D01*
X-225632Y197183D01*
X-226191Y196951D01*
X-226423Y196855D01*
X-226718Y196629D01*
X-227102Y196334D01*
X-242041Y181395D01*
X-242226Y181471D01*
Y186181D01*
X-251163D01*
Y182441D01*
X-259037D01*
Y182020D01*
X-259674D01*
Y183604D01*
X-269989D01*
Y182020D01*
X-276166D01*
X-276484Y182152D01*
X-277398Y182272D01*
X-278311Y182152D01*
X-279163Y181799D01*
X-279713Y181376D01*
X-280414Y181284D01*
X-281509Y180831D01*
X-282449Y180109D01*
X-283170Y179169D01*
X-283624Y178075D01*
X-283778Y176900D01*
X-283624Y175725D01*
X-283170Y174631D01*
X-282449Y173691D01*
X-281509Y172969D01*
X-280414Y172516D01*
X-279239Y172361D01*
X-278065Y172516D01*
X-276970Y172969D01*
X-276030Y173691D01*
X-275309Y174631D01*
X-274963Y175464D01*
X-269989D01*
Y173880D01*
Y166596D01*
X-268901D01*
X-268762Y166262D01*
X-268041Y165322D01*
X-263145Y160426D01*
X-262205Y159705D01*
X-261752Y159517D01*
X-261111Y159252D01*
X-259985Y159104D01*
X-259998Y158904D01*
X-268057D01*
Y157320D01*
X-273527D01*
X-293219Y177012D01*
X-293359Y178075D01*
X-293813Y179169D01*
X-294534Y180109D01*
X-295474Y180831D01*
X-296569Y181284D01*
X-297743Y181439D01*
X-298918Y181284D01*
X-300013Y180831D01*
X-300953Y180109D01*
X-301674Y179169D01*
X-302128Y178075D01*
X-302282Y176900D01*
X-302128Y175725D01*
X-301674Y174631D01*
X-300953Y173691D01*
X-300013Y172969D01*
X-298918Y172516D01*
X-297855Y172376D01*
X-297013Y171534D01*
X-297101Y171354D01*
X-297743Y171439D01*
X-298918Y171284D01*
X-300013Y170831D01*
X-300953Y170109D01*
X-301674Y169169D01*
X-302128Y168075D01*
X-302282Y166900D01*
X-302128Y165725D01*
X-301674Y164631D01*
X-300953Y163691D01*
X-300013Y162969D01*
X-298918Y162516D01*
X-297743Y162361D01*
X-296569Y162516D01*
X-295474Y162969D01*
X-294534Y163691D01*
X-293813Y164631D01*
X-293359Y165725D01*
X-293204Y166900D01*
X-293289Y167542D01*
X-293110Y167631D01*
X-277203Y151724D01*
X-276819Y151429D01*
X-276524Y151203D01*
X-276292Y151107D01*
X-275733Y150875D01*
X-274885Y150764D01*
X-268057D01*
Y150036D01*
X-286244D01*
X-293219Y157012D01*
X-293359Y158075D01*
X-293813Y159169D01*
X-294534Y160109D01*
X-295474Y160831D01*
X-296569Y161284D01*
X-297743Y161439D01*
X-298918Y161284D01*
X-300013Y160831D01*
X-300953Y160109D01*
X-301674Y159169D01*
X-302128Y158075D01*
X-302282Y156900D01*
X-302128Y155725D01*
X-301674Y154631D01*
X-300953Y153691D01*
X-300013Y152969D01*
X-298918Y152516D01*
X-297855Y152376D01*
X-290452Y144973D01*
X-290529Y144788D01*
X-293933D01*
Y144915D01*
X-303067D01*
Y144788D01*
X-310220D01*
X-311394Y144634D01*
X-312023Y144373D01*
X-316214D01*
Y143951D01*
X-320563D01*
X-321738Y143797D01*
X-322832Y143343D01*
X-323158Y143094D01*
X-323851D01*
X-323938Y143192D01*
X-323969Y143428D01*
Y146834D01*
X-325830D01*
X-326207Y147123D01*
X-327302Y147576D01*
X-328476Y147731D01*
X-339243D01*
Y148054D01*
X-349557D01*
Y147685D01*
X-350383Y147576D01*
X-351477Y147123D01*
X-352417Y146402D01*
X-354409Y144409D01*
X-355131Y143469D01*
X-355319Y143016D01*
X-355584Y142375D01*
X-355739Y141200D01*
Y103008D01*
X-356071Y102205D01*
X-356243Y100900D01*
X-356071Y99595D01*
X-355568Y98378D01*
X-354766Y97334D01*
X-353722Y96532D01*
X-352505Y96029D01*
X-351200Y95857D01*
X-349895Y96029D01*
X-348678Y96532D01*
X-347634Y97334D01*
X-346832Y98378D01*
X-346329Y99595D01*
X-346157Y100900D01*
X-346329Y102205D01*
X-346661Y103008D01*
Y131046D01*
X-339243D01*
Y132394D01*
X-332906D01*
Y131991D01*
X-331715D01*
Y89037D01*
X-331659Y88613D01*
X-331603Y88189D01*
X-331440Y87793D01*
X-331276Y87398D01*
X-330755Y86719D01*
X-330755Y86719D01*
X-330755Y86719D01*
X-303518Y59482D01*
X-303179Y59222D01*
X-302839Y58961D01*
X-302444Y58797D01*
X-302048Y58634D01*
X-301624Y58578D01*
X-301200Y58522D01*
X-232791D01*
X-232367Y58578D01*
X-231943Y58634D01*
X-231548Y58797D01*
X-231152Y58961D01*
X-230473Y59482D01*
X-222881Y67075D01*
X-222131Y66976D01*
X-220708Y67163D01*
X-219382Y67713D01*
X-218243Y68587D01*
X-217369Y69726D01*
X-217231Y70056D01*
X-217032D01*
X-216895Y69726D01*
X-216020Y68587D01*
X-214881Y67713D01*
X-213555Y67163D01*
X-212132Y66976D01*
X-210708Y67163D01*
X-209382Y67713D01*
X-208243Y68587D01*
X-207368Y69726D01*
X-207231Y70056D01*
X-207031D01*
X-206894Y69726D01*
X-206020Y68587D01*
X-204881Y67713D01*
X-203555Y67163D01*
X-202132Y66976D01*
X-201503Y67058D01*
X-193627Y59182D01*
X-193627D01*
X-193627Y59182D01*
X-193627Y59182D01*
Y59182D01*
X-192948Y58661D01*
X-192552Y58497D01*
X-192157Y58334D01*
X-191733Y58278D01*
X-191309Y58222D01*
X-181288D01*
X-179709Y56644D01*
X-179774Y56454D01*
X-180853Y56312D01*
X-182180Y55763D01*
X-183319Y54889D01*
X-184193Y53750D01*
X-184330Y53419D01*
X-184530D01*
X-184667Y53750D01*
X-185541Y54889D01*
X-186680Y55763D01*
X-188006Y56312D01*
X-189430Y56500D01*
X-190853Y56312D01*
X-192180Y55763D01*
X-193319Y54889D01*
X-194193Y53750D01*
X-194742Y52424D01*
X-194930Y51000D01*
X-194742Y49577D01*
X-194193Y48250D01*
X-193319Y47111D01*
X-192180Y46237D01*
X-190853Y45688D01*
X-189430Y45500D01*
X-188006Y45688D01*
X-186680Y46237D01*
X-185541Y47111D01*
X-184667Y48250D01*
X-184530Y48581D01*
X-184330D01*
X-184193Y48250D01*
X-183319Y47111D01*
X-182180Y46237D01*
X-181849Y46100D01*
Y45900D01*
X-182180Y45763D01*
X-183319Y44889D01*
X-184193Y43750D01*
X-184742Y42423D01*
X-184930Y41000D01*
X-184742Y39577D01*
X-184193Y38250D01*
X-183319Y37111D01*
X-182180Y36237D01*
X-180853Y35688D01*
X-179430Y35500D01*
X-178006Y35688D01*
X-176680Y36237D01*
X-175541Y37111D01*
X-174667Y38250D01*
X-174530Y38581D01*
X-174330D01*
X-174193Y38250D01*
X-173319Y37111D01*
X-172180Y36237D01*
X-170853Y35688D01*
X-169430Y35500D01*
X-168006Y35688D01*
X-166680Y36237D01*
X-165541Y37111D01*
X-164667Y38250D01*
X-164117Y39577D01*
X-163930Y41000D01*
X-164117Y42423D01*
X-164667Y43750D01*
X-165541Y44889D01*
X-166152Y45358D01*
X-166088Y45547D01*
X-163977D01*
Y56453D01*
X-170247D01*
X-177612Y63818D01*
X-178291Y64339D01*
X-178686Y64503D01*
X-179081Y64666D01*
X-179506Y64722D01*
X-179930Y64778D01*
X-189951D01*
X-191987Y66814D01*
X-191922Y67003D01*
X-190708Y67163D01*
X-189382Y67713D01*
X-188243Y68587D01*
X-187369Y69726D01*
X-187232Y70056D01*
X-187031D01*
X-186895Y69726D01*
X-186021Y68587D01*
X-184881Y67713D01*
X-183555Y67163D01*
X-182132Y66976D01*
X-180708Y67163D01*
X-179382Y67713D01*
X-178243Y68587D01*
X-177368Y69726D01*
X-177232Y70056D01*
X-177032D01*
X-176894Y69726D01*
X-176021Y68587D01*
X-174881Y67713D01*
X-173555Y67163D01*
X-172132Y66976D01*
X-170708Y67163D01*
X-169382Y67713D01*
X-168243Y68587D01*
X-167368Y69726D01*
X-166819Y71052D01*
X-166632Y72476D01*
X-166819Y73899D01*
X-167368Y75226D01*
X-168243Y76364D01*
X-169382Y77239D01*
X-170708Y77788D01*
X-172132Y77975D01*
X-173030Y77857D01*
X-173798Y78626D01*
Y86353D01*
X-163746D01*
Y87839D01*
X-162418D01*
Y87239D01*
X-153284D01*
Y96570D01*
X-154573D01*
Y97405D01*
X-154407Y97516D01*
X-153555Y97163D01*
X-152131Y96976D01*
X-150708Y97163D01*
X-149382Y97713D01*
X-148243Y98587D01*
X-147369Y99726D01*
X-147231Y100057D01*
X-147031D01*
X-146895Y99726D01*
X-146020Y98587D01*
X-144881Y97713D01*
X-143555Y97163D01*
X-142131Y96976D01*
X-140981Y97127D01*
X-140830Y96995D01*
Y94771D01*
X-154696Y80905D01*
X-155257Y80174D01*
X-155610Y79322D01*
X-155730Y78409D01*
Y76587D01*
X-156020Y76364D01*
X-156895Y75226D01*
X-157444Y73899D01*
X-157631Y72476D01*
X-157444Y71052D01*
X-156895Y69726D01*
X-156020Y68587D01*
X-154881Y67713D01*
X-154238Y67446D01*
X-154199Y67250D01*
X-160218Y61231D01*
X-160739Y60552D01*
X-160903Y60157D01*
X-161067Y59762D01*
X-161122Y59337D01*
X-161178Y58913D01*
Y22687D01*
X-161466Y22466D01*
X-162268Y21421D01*
X-162771Y20205D01*
X-162943Y18900D01*
X-162771Y17594D01*
X-162268Y16378D01*
X-161466Y15334D01*
X-160422Y14532D01*
X-159205Y14029D01*
X-157900Y13857D01*
X-156595Y14029D01*
X-155379Y14532D01*
X-154334Y15334D01*
X-153533Y16378D01*
X-153029Y17594D01*
X-152857Y18900D01*
X-153029Y20205D01*
X-153533Y21421D01*
X-154334Y22466D01*
X-154622Y22687D01*
Y57555D01*
X-144632Y67545D01*
X-144595Y67594D01*
X-143555Y67163D01*
X-142131Y66976D01*
X-140708Y67163D01*
X-139382Y67713D01*
X-138243Y68587D01*
X-137369Y69726D01*
X-137232Y70056D01*
X-137031D01*
X-136895Y69726D01*
X-136021Y68587D01*
X-134881Y67713D01*
X-133555Y67163D01*
X-132132Y66976D01*
X-130708Y67163D01*
X-129382Y67713D01*
X-128243Y68587D01*
X-127368Y69726D01*
X-127232Y70056D01*
X-127032D01*
X-126894Y69726D01*
X-126021Y68587D01*
X-124881Y67713D01*
X-123555Y67163D01*
X-122132Y66976D01*
X-120708Y67163D01*
X-119382Y67713D01*
X-118243Y68587D01*
X-117368Y69726D01*
X-117232Y70056D01*
X-117032D01*
X-116894Y69726D01*
X-116021Y68587D01*
X-114881Y67713D01*
X-113555Y67163D01*
X-112132Y66976D01*
X-110708Y67163D01*
X-109382Y67713D01*
X-108243Y68587D01*
X-107369Y69726D01*
X-107231Y70056D01*
X-107032D01*
X-106895Y69726D01*
X-106020Y68587D01*
X-104881Y67713D01*
X-103555Y67163D01*
X-102131Y66976D01*
X-100708Y67163D01*
X-99382Y67713D01*
X-98243Y68587D01*
X-97369Y69726D01*
X-96819Y71052D01*
X-96632Y72476D01*
X-96819Y73899D01*
X-97369Y75226D01*
X-98243Y76364D01*
X-99382Y77239D01*
X-100708Y77788D01*
X-102131Y77975D01*
X-103555Y77788D01*
X-104881Y77239D01*
X-106020Y76364D01*
X-106895Y75226D01*
X-107032Y74895D01*
X-107231D01*
X-107369Y75226D01*
X-108243Y76364D01*
X-109382Y77239D01*
X-110708Y77788D01*
X-112132Y77975D01*
X-113555Y77788D01*
X-114881Y77239D01*
X-116021Y76364D01*
X-116894Y75226D01*
X-117032Y74895D01*
X-117232D01*
X-117368Y75226D01*
X-118243Y76364D01*
X-119382Y77239D01*
X-120708Y77788D01*
X-122132Y77975D01*
X-123555Y77788D01*
X-124881Y77239D01*
X-126021Y76364D01*
X-126894Y75226D01*
X-127032Y74895D01*
X-127232D01*
X-127368Y75226D01*
X-128243Y76364D01*
X-129382Y77239D01*
X-130708Y77788D01*
X-132132Y77975D01*
X-133555Y77788D01*
X-134881Y77239D01*
X-136021Y76364D01*
X-136895Y75226D01*
X-137031Y74895D01*
X-137232D01*
X-137369Y75226D01*
X-138243Y76364D01*
X-139382Y77239D01*
X-140708Y77788D01*
X-140898Y77813D01*
X-140962Y78002D01*
X-127442Y91522D01*
X-109791D01*
X-109367Y91578D01*
X-108943Y91634D01*
X-108548Y91797D01*
X-108152Y91961D01*
X-107473Y92482D01*
X-107473Y92482D01*
X-107473Y92482D01*
X-102933Y97023D01*
X-96679D01*
Y107928D01*
X-107584D01*
Y105818D01*
X-107774Y105753D01*
X-108243Y106365D01*
X-109382Y107239D01*
X-110708Y107788D01*
X-112132Y107975D01*
X-113555Y107788D01*
X-114881Y107239D01*
X-116021Y106365D01*
X-116894Y105226D01*
X-117032Y104895D01*
X-117232D01*
X-117368Y105226D01*
X-118243Y106365D01*
X-119382Y107239D01*
X-120708Y107788D01*
X-122132Y107975D01*
X-123555Y107788D01*
X-124881Y107239D01*
X-126021Y106365D01*
X-126894Y105226D01*
X-127032Y104895D01*
X-127232D01*
X-127368Y105226D01*
X-128243Y106365D01*
X-129382Y107239D01*
X-129701Y107371D01*
X-129740Y107567D01*
X-86404Y150904D01*
X-85843Y151635D01*
X-85490Y152486D01*
X-85370Y153400D01*
X-85370Y153400D01*
X-85370Y153400D01*
Y153400D01*
Y159886D01*
X-85185Y159963D01*
X-83801Y158578D01*
X-83661Y157515D01*
X-83207Y156420D01*
X-82486Y155480D01*
X-81546Y154759D01*
X-80451Y154306D01*
X-79276Y154151D01*
X-78102Y154306D01*
X-77007Y154759D01*
X-76067Y155480D01*
X-75346Y156420D01*
X-74892Y157515D01*
X-74738Y158690D01*
X-74892Y159864D01*
X-75346Y160959D01*
X-76067Y161899D01*
X-77007Y162620D01*
X-78102Y163074D01*
X-79165Y163214D01*
X-80007Y164056D01*
X-79918Y164235D01*
X-79276Y164151D01*
X-78102Y164306D01*
X-77007Y164759D01*
X-76156Y165412D01*
X-12690D01*
X-12266Y165468D01*
X-11841Y165523D01*
X-11446Y165687D01*
X-11051Y165851D01*
X-10372Y166372D01*
X-10372Y166372D01*
X-10372Y166372D01*
X-6188Y170555D01*
X-5125Y170695D01*
X-4031Y171149D01*
X-3091Y171870D01*
X-2369Y172810D01*
X-1916Y173905D01*
X-1761Y175080D01*
X-1916Y176254D01*
X-2369Y177349D01*
X-3091Y178289D01*
X-4031Y179010D01*
X-5125Y179464D01*
X-6300Y179618D01*
X-7475Y179464D01*
X-8569Y179010D01*
X-9509Y178289D01*
X-10231Y177349D01*
X-10684Y176254D01*
X-10824Y175191D01*
X-14048Y171968D01*
X-71935D01*
X-72012Y172153D01*
X-68982Y175182D01*
X-68461Y175861D01*
X-68134Y176652D01*
X-68022Y177500D01*
Y185500D01*
X-68134Y186348D01*
X-68461Y187139D01*
X-68756Y187523D01*
X-68982Y187818D01*
X-69876Y188712D01*
X-70016Y189775D01*
X-70469Y190869D01*
X-71191Y191809D01*
X-72131Y192531D01*
X-73225Y192984D01*
X-74400Y193139D01*
X-75575Y192984D01*
X-76669Y192531D01*
X-77609Y191809D01*
X-78331Y190869D01*
X-78784Y189775D01*
X-78939Y188600D01*
X-78784Y187425D01*
X-78331Y186331D01*
X-77609Y185391D01*
X-76669Y184669D01*
X-75575Y184216D01*
X-74578Y184085D01*
Y182200D01*
X-74757Y182112D01*
X-75420Y182621D01*
X-76515Y183074D01*
X-77690Y183229D01*
X-78865Y183074D01*
X-79959Y182621D01*
X-80481Y182220D01*
X-85210D01*
X-86124Y182100D01*
X-86975Y181747D01*
X-87707Y181186D01*
X-91396Y177496D01*
X-91957Y176765D01*
X-92310Y175914D01*
X-92430Y175000D01*
Y160863D01*
X-92626Y160824D01*
X-92769Y161169D01*
X-93422Y162020D01*
Y173586D01*
X-93478Y174010D01*
X-93534Y174435D01*
X-93697Y174830D01*
X-93861Y175225D01*
X-94156Y175609D01*
X-94382Y175904D01*
X-106996Y188518D01*
X-107675Y189039D01*
X-108070Y189203D01*
X-108465Y189366D01*
X-108890Y189422D01*
X-109314Y189478D01*
X-120026D01*
X-120469Y190547D01*
X-121191Y191487D01*
X-122131Y192209D01*
X-123225Y192662D01*
X-124400Y192817D01*
X-125575Y192662D01*
X-126669Y192209D01*
X-127609Y191487D01*
X-128331Y190547D01*
X-128784Y189453D01*
X-128939Y188278D01*
X-128784Y187103D01*
X-128331Y186009D01*
X-127609Y185069D01*
X-126669Y184347D01*
X-125575Y183894D01*
X-124465Y183748D01*
X-124256Y183587D01*
X-123961Y183361D01*
X-123730Y183265D01*
X-123170Y183034D01*
X-122322Y182922D01*
X-110672D01*
X-99978Y172228D01*
Y162020D01*
X-100631Y161169D01*
X-101084Y160075D01*
X-101239Y158900D01*
X-101084Y157725D01*
X-100631Y156631D01*
X-99909Y155691D01*
X-98969Y154969D01*
X-97875Y154516D01*
X-96700Y154361D01*
X-95525Y154516D01*
X-94431Y154969D01*
X-93491Y155691D01*
X-92769Y156631D01*
X-92626Y156976D01*
X-92430Y156937D01*
Y154862D01*
X-139796Y107496D01*
X-139846Y107431D01*
X-140708Y107788D01*
X-142131Y107975D01*
X-143555Y107788D01*
X-144881Y107239D01*
X-146020Y106365D01*
X-146895Y105226D01*
X-147031Y104895D01*
X-147231D01*
X-147369Y105226D01*
X-148243Y106365D01*
X-149382Y107239D01*
X-150708Y107788D01*
X-152131Y107975D01*
X-153555Y107788D01*
X-154881Y107239D01*
X-156020Y106365D01*
X-156895Y105226D01*
X-157032Y104895D01*
X-157231D01*
X-157369Y105226D01*
X-158243Y106365D01*
X-159382Y107239D01*
X-160708Y107788D01*
X-162132Y107975D01*
X-163555Y107788D01*
X-164881Y107239D01*
X-166021Y106365D01*
X-166894Y105226D01*
X-167444Y103899D01*
X-167631Y102476D01*
X-167444Y101052D01*
X-166894Y99726D01*
X-166021Y98587D01*
X-164881Y97713D01*
X-163555Y97163D01*
X-162132Y96976D01*
X-161503Y97058D01*
X-161199Y96755D01*
X-161276Y96570D01*
X-162418D01*
Y94395D01*
X-163746D01*
Y95881D01*
X-174454D01*
Y94395D01*
X-174783D01*
X-175631Y94284D01*
X-176190Y94052D01*
X-176422Y93956D01*
X-176716Y93730D01*
X-177101Y93435D01*
X-179394Y91141D01*
X-179915Y90463D01*
X-180079Y90067D01*
X-180243Y89672D01*
X-180299Y89248D01*
X-180354Y88824D01*
Y77821D01*
X-180521Y77710D01*
X-180708Y77788D01*
X-182132Y77975D01*
X-183555Y77788D01*
X-184881Y77239D01*
X-186021Y76364D01*
X-186895Y75226D01*
X-187031Y74895D01*
X-187232D01*
X-187369Y75226D01*
X-188243Y76364D01*
X-189382Y77239D01*
X-190708Y77788D01*
X-192131Y77975D01*
X-193555Y77788D01*
X-194881Y77239D01*
X-196020Y76364D01*
X-196895Y75226D01*
X-197031Y74895D01*
X-197231D01*
X-197369Y75226D01*
X-198243Y76364D01*
X-199382Y77239D01*
X-200708Y77788D01*
X-202132Y77975D01*
X-203555Y77788D01*
X-204881Y77239D01*
X-206020Y76364D01*
X-206894Y75226D01*
X-207031Y74895D01*
X-207231D01*
X-207368Y75226D01*
X-208243Y76364D01*
X-209382Y77239D01*
X-210708Y77788D01*
X-212132Y77975D01*
X-213555Y77788D01*
X-214881Y77239D01*
X-216020Y76364D01*
X-216895Y75226D01*
X-217032Y74895D01*
X-217231D01*
X-217369Y75226D01*
X-218243Y76364D01*
X-219382Y77239D01*
X-220708Y77788D01*
X-222131Y77975D01*
X-223555Y77788D01*
X-224881Y77239D01*
X-226020Y76364D01*
X-226894Y75226D01*
X-227031Y74895D01*
X-227232D01*
X-227368Y75226D01*
X-228242Y76364D01*
X-229382Y77239D01*
X-230708Y77788D01*
X-232132Y77975D01*
X-233555Y77788D01*
X-234881Y77239D01*
X-236020Y76364D01*
X-236894Y75226D01*
X-237444Y73899D01*
X-237631Y72476D01*
X-237444Y71052D01*
X-236894Y69726D01*
X-236020Y68587D01*
X-234881Y67713D01*
X-233555Y67163D01*
X-232462Y67019D01*
X-232397Y66830D01*
X-234149Y65078D01*
X-299842D01*
X-325159Y90395D01*
Y131991D01*
X-323969D01*
Y135731D01*
X-323158D01*
X-322832Y135482D01*
X-321738Y135028D01*
X-320563Y134874D01*
X-316214D01*
Y134846D01*
X-305505D01*
Y135711D01*
X-303067D01*
Y135584D01*
X-293933D01*
Y135711D01*
X-284952D01*
X-283786Y134544D01*
X-283453Y133741D01*
X-282652Y132697D01*
X-281607Y131895D01*
X-280391Y131392D01*
X-279086Y131220D01*
X-277781Y131392D01*
X-276564Y131895D01*
X-275520Y132697D01*
X-274718Y133741D01*
X-274215Y134958D01*
X-274043Y136263D01*
X-274215Y137568D01*
X-274718Y138785D01*
X-275520Y139829D01*
X-276564Y140630D01*
X-277367Y140963D01*
X-279699Y143296D01*
X-279623Y143480D01*
X-268057D01*
Y141896D01*
X-257743D01*
Y149179D01*
Y150764D01*
X-251254D01*
Y149278D01*
X-240546D01*
Y158806D01*
X-251254D01*
Y157320D01*
X-257743D01*
Y158766D01*
X-257576Y158877D01*
X-257305Y158765D01*
X-256000Y158593D01*
X-254695Y158765D01*
X-253478Y159268D01*
X-252434Y160070D01*
X-251632Y161114D01*
X-251129Y162331D01*
X-250957Y163636D01*
X-251129Y164941D01*
X-251632Y166157D01*
X-252434Y167202D01*
X-253478Y168003D01*
X-254695Y168507D01*
X-256000Y168679D01*
X-257305Y168507D01*
X-258071Y168190D01*
X-259674Y169793D01*
Y173880D01*
Y175464D01*
X-259037D01*
Y175079D01*
X-253390D01*
X-253278Y174912D01*
X-253584Y174174D01*
X-253739Y173000D01*
X-253584Y171825D01*
X-253131Y170730D01*
X-252409Y169790D01*
X-251469Y169069D01*
X-250375Y168615D01*
X-249200Y168461D01*
X-248025Y168615D01*
X-246931Y169069D01*
X-246080Y169722D01*
X-245800D01*
X-245376Y169778D01*
X-244952Y169833D01*
X-244557Y169997D01*
X-244161Y170161D01*
X-243482Y170682D01*
X-223426Y190738D01*
X-216220D01*
X-215369Y190085D01*
X-214275Y189632D01*
X-213100Y189477D01*
X-211925Y189632D01*
X-210831Y190085D01*
X-209891Y190807D01*
X-209169Y191747D01*
X-208716Y192841D01*
X-208561Y194016D01*
X-208716Y195191D01*
X-209169Y196286D01*
X-209891Y197226D01*
X-210831Y197947D01*
X-211925Y198400D01*
X-213100Y198555D01*
D02*
G37*
G36*
X-279239Y191439D02*
X-280414Y191284D01*
X-281509Y190831D01*
X-282449Y190109D01*
X-283170Y189169D01*
X-283624Y188075D01*
X-283778Y186900D01*
X-283624Y185725D01*
X-283170Y184631D01*
X-282449Y183691D01*
X-281509Y182969D01*
X-280414Y182516D01*
X-279239Y182361D01*
X-278065Y182516D01*
X-276970Y182969D01*
X-276030Y183691D01*
X-275309Y184631D01*
X-274855Y185725D01*
X-274700Y186900D01*
X-274855Y188075D01*
X-275309Y189169D01*
X-276030Y190109D01*
X-276970Y190831D01*
X-278065Y191284D01*
X-279239Y191439D01*
D02*
G37*
%LPD*%
D13*
X69100Y88800D02*
D03*
Y93000D02*
D03*
D15*
X-298500Y132376D02*
D03*
Y140250D02*
D03*
X-157851Y84031D02*
D03*
Y91905D02*
D03*
X66758Y42363D02*
D03*
Y50237D02*
D03*
D18*
X43468Y184632D02*
D03*
X36185D02*
D03*
X70600Y23800D02*
D03*
X63317D02*
D03*
X12617Y30400D02*
D03*
X19900D02*
D03*
X54300Y23800D02*
D03*
X47017D02*
D03*
D19*
X-262900Y146758D02*
D03*
Y154042D02*
D03*
X-123768Y166148D02*
D03*
Y173432D02*
D03*
X-264831Y171458D02*
D03*
Y178742D02*
D03*
X-344400Y143192D02*
D03*
Y135909D02*
D03*
X53800Y186480D02*
D03*
Y193763D02*
D03*
X36858Y30742D02*
D03*
Y23458D02*
D03*
D20*
X-245900Y154042D02*
D03*
Y146758D02*
D03*
X-310860Y139609D02*
D03*
Y132326D02*
D03*
X-169100Y83834D02*
D03*
Y91117D02*
D03*
X35785Y166400D02*
D03*
Y173684D02*
D03*
X64200Y165458D02*
D03*
Y172742D02*
D03*
X28458Y42816D02*
D03*
Y50100D02*
D03*
X37458Y50142D02*
D03*
Y42858D02*
D03*
D21*
X-298858Y78223D02*
D03*
X-306142D02*
D03*
X-758Y139413D02*
D03*
X-8042D02*
D03*
X-298858Y96860D02*
D03*
X-306142D02*
D03*
X70700Y7600D02*
D03*
X63416D02*
D03*
D23*
X53800Y173948D02*
Y186480D01*
X53724Y173872D02*
X53800Y173948D01*
X43468Y184632D02*
X44275Y183825D01*
Y173872D02*
Y183825D01*
X-277398Y178742D02*
X-264831D01*
X-254587D01*
X-254569Y178760D01*
X-123768Y157137D02*
Y166148D01*
Y157137D02*
X-120321Y153690D01*
X-112461D01*
X-79276Y168690D02*
X-12690D01*
X-6300Y175080D01*
X-274885Y154042D02*
X-262900D01*
X-297743Y176900D02*
X-274885Y154042D01*
X-245900D02*
X-245900Y154042D01*
X-262900Y154042D02*
X-245900D01*
X80000Y7600D02*
X80500Y7100D01*
X70600Y7700D02*
Y23800D01*
X53724Y166392D02*
X63266D01*
X64200Y165458D01*
X69100Y160558D01*
X63316Y7700D02*
Y23800D01*
X54300Y23800D02*
X63316D01*
X-109791Y94800D02*
X-102200Y102391D01*
X-128800Y94800D02*
X-109791D01*
X-146950Y76650D02*
X-128800Y94800D01*
X-146950Y69863D02*
Y76650D01*
X-157900Y58913D02*
X-146950Y69863D01*
X-157900Y18900D02*
Y58913D01*
X50286Y52500D02*
Y62000D01*
X44151Y193763D02*
X53800D01*
X-179930Y61500D02*
X-169430Y51000D01*
X-191309Y61500D02*
X-179930D01*
X-202200Y72391D02*
X-191309Y61500D01*
X-127000Y16028D02*
Y33663D01*
X-328476Y143192D02*
X-328437Y143153D01*
X-169100Y91117D02*
X-158639D01*
X-157851Y91905D02*
Y98043D01*
X-162200Y102391D02*
X-157851Y98043D01*
X-174783Y91117D02*
X-169100D01*
X-177076Y88824D02*
X-174783Y91117D01*
X-177076Y77268D02*
Y88824D01*
Y77268D02*
X-172200Y72391D01*
X-136239Y140250D02*
X-136000Y140489D01*
X-156900Y140250D02*
X-136239D01*
X-160400Y197394D02*
Y219600D01*
X-84200Y171600D02*
X-81800Y174000D01*
X-84200Y163613D02*
Y171600D01*
Y163613D02*
X-79276Y158690D01*
X-81800Y174000D02*
X-74800D01*
X-71300Y177500D01*
X-74400Y188600D02*
X-71300Y185500D01*
Y177500D02*
Y185500D01*
X-287602Y146758D02*
X-262900D01*
X-297743Y156900D02*
X-287602Y146758D01*
X35785Y166400D02*
X44267D01*
X44275Y166392D01*
X27100Y166400D02*
X35785D01*
X27100Y165700D02*
X29600D01*
X-344400Y135909D02*
X-344164Y135672D01*
X-328437D01*
X-232791Y61800D02*
X-222200Y72391D01*
X-328437Y89037D02*
Y135672D01*
Y89037D02*
X-301200Y61800D01*
X-232791D01*
X-123510Y173690D02*
X-112461D01*
X-123768Y173432D02*
X-123510Y173690D01*
X-109314Y186200D02*
X-96700Y173586D01*
Y158900D02*
Y173586D01*
X-122322Y186200D02*
X-109314D01*
X-124400Y188278D02*
X-122322Y186200D01*
X-161168Y170868D02*
X-146500Y156200D01*
X-220300Y170868D02*
X-161168D01*
X48290Y42715D02*
X52227Y46653D01*
X46178Y42858D02*
X47305Y41731D01*
X-310860Y132326D02*
X-298550D01*
X36185Y174083D02*
Y184632D01*
X35785Y173684D02*
X36185Y174083D01*
X53356Y170500D02*
X53724Y170132D01*
X61590D02*
X64200Y172742D01*
X-169100Y83834D02*
X-158048D01*
X-157851Y84031D01*
Y76740D02*
Y84031D01*
X-162200Y72391D02*
X-157851Y76740D01*
X-306142Y78223D02*
Y96860D01*
X-195580Y156973D02*
Y160800D01*
Y156973D02*
X-177208Y138600D01*
X-249200Y173000D02*
X-245800D01*
X-224784Y194016D01*
X-213100D01*
X-210261Y175800D02*
X-201100D01*
X-182700Y194200D01*
X-175900D01*
X-758Y139413D02*
X-325Y138979D01*
X-281194Y78223D02*
X-280600Y78816D01*
X-298858Y78223D02*
X-281194D01*
X-280600Y78816D02*
X-267916Y91500D01*
X-193091D01*
X-182200Y102391D01*
X-298858Y96860D02*
X-281769D01*
X-264700Y96200D02*
X-198391D01*
X-192200Y102391D01*
X-281769Y96860D02*
X-280600Y98029D01*
X-266529D02*
X-264700Y96200D01*
X-280600Y98029D02*
X-266529D01*
D24*
X36858Y30742D02*
X44010Y37893D01*
X-279239Y176900D02*
X-277398Y178742D01*
X27100Y165700D02*
Y166400D01*
X37458Y42858D02*
X46178D01*
X35785Y173684D02*
X37817D01*
X41000Y170500D01*
X53356D01*
X53724Y170132D02*
X61590D01*
X-137300Y93309D02*
Y105000D01*
X-152200Y78409D02*
X-137300Y93309D01*
X-152200Y72391D02*
Y78409D01*
X-88900Y175000D02*
X-85210Y178690D01*
X-77690D01*
X-137300Y105000D02*
X-88900Y153400D01*
Y175000D01*
X164976Y-6955D02*
X171679Y-13658D01*
X140397Y-6955D02*
X164976D01*
X127950Y5492D02*
X140397Y-6955D01*
X182200Y-13658D02*
X201350Y5492D01*
X227450D01*
X248800Y-558D02*
Y15842D01*
X243000Y-6358D02*
X248800Y-558D01*
X199500Y-6358D02*
X243000D01*
X227150Y37492D02*
X248800Y15842D01*
X227150Y37492D02*
Y90092D01*
X192200Y-13658D02*
X199500Y-6358D01*
X229800Y13442D02*
X235582Y7660D01*
X145700Y13442D02*
X229800D01*
X137950Y5692D02*
X145700Y13442D01*
D25*
X36517Y30400D02*
X36858Y30742D01*
X32058Y57300D02*
X42056D01*
X18384Y50100D02*
X28458D01*
Y53700D01*
X32058Y57300D01*
D26*
X19900Y30400D02*
X36517D01*
X70700Y7600D02*
X80000D01*
X-351200Y100900D02*
Y141200D01*
X-349208Y143192D02*
X-344400D01*
X-328476D01*
X-351200Y141200D02*
X-349208Y143192D01*
X-259936Y163636D02*
X-256000D01*
X-264831Y168532D02*
X-259936Y163636D01*
X-337400Y172521D02*
X-316400D01*
X-283072Y140250D02*
X-279086Y136263D01*
X-298500Y140250D02*
X-283072D01*
X-310860Y139609D02*
X-310220Y140250D01*
X-311057Y139413D02*
X-310860Y139609D01*
X-310220Y140250D02*
X-298500D01*
X-320563Y139413D02*
X-311057D01*
X27100Y190900D02*
X29963Y193763D01*
X36858Y23458D02*
X46675D01*
X-30172Y109900D02*
X8563D01*
X-36689Y116417D02*
X-30172Y109900D01*
D27*
X-242100Y4200D02*
X-34160D01*
X-277468Y39568D02*
X-242100Y4200D01*
X-291068Y39568D02*
X-277468D01*
X12617Y44332D02*
X18384Y50100D01*
X12617Y30400D02*
Y44332D01*
X-7960Y30400D02*
X12617D01*
X-34160Y4200D02*
X-7960Y30400D01*
X69100Y97700D02*
X71600Y95200D01*
X27100Y166400D02*
Y190900D01*
X-13694Y139413D02*
X-8042D01*
X-36689Y116417D02*
X-13694Y139413D01*
D28*
X29963Y193763D02*
X38049D01*
D29*
X66231Y62000D02*
X83600D01*
X71600Y95200D02*
X83000D01*
X83600Y62000D02*
X85800Y64200D01*
Y92400D01*
X83000Y95200D02*
X85800Y92400D01*
X16474Y150774D02*
X29600Y163900D01*
X16474Y123400D02*
Y150774D01*
D35*
X260400Y-22500D02*
Y237500D01*
X-426250Y-22500D02*
X260400D01*
X-426250D02*
Y237500D01*
X260400D01*
D36*
X-413500Y179700D02*
D03*
Y161200D02*
D03*
Y142700D02*
D03*
Y124200D02*
D03*
D37*
X-399000Y8200D02*
D03*
Y35200D02*
D03*
D38*
X-406500Y56200D02*
D03*
X-391500D02*
D03*
D39*
X150970Y212053D02*
D03*
Y202233D02*
D03*
Y192413D02*
D03*
X195170Y212053D02*
D03*
Y202233D02*
D03*
Y192413D02*
D03*
X238900Y212263D02*
D03*
Y202443D02*
D03*
Y192623D02*
D03*
X-169430Y41000D02*
D03*
X-179430Y51000D02*
D03*
Y41000D02*
D03*
X-189430Y51000D02*
D03*
Y41000D02*
D03*
X212200Y-13658D02*
D03*
X202200D02*
D03*
X192200D02*
D03*
X182200D02*
D03*
X162200D02*
D03*
X172200D02*
D03*
X-384400Y173600D02*
D03*
Y163600D02*
D03*
Y153600D02*
D03*
Y143600D02*
D03*
X-232132Y72476D02*
D03*
X-222131D02*
D03*
X-212132D02*
D03*
X-202132D02*
D03*
X-192131D02*
D03*
X-182132D02*
D03*
X-172132D02*
D03*
X-162132D02*
D03*
X-152131D02*
D03*
X-142131D02*
D03*
X-132132D02*
D03*
X-122132D02*
D03*
X-112132D02*
D03*
X-102131D02*
D03*
X-232132Y102476D02*
D03*
X-222131D02*
D03*
X-212132D02*
D03*
X-202132D02*
D03*
X-192131D02*
D03*
X-182132D02*
D03*
X-172132D02*
D03*
X-162132D02*
D03*
X-152131D02*
D03*
X-142131D02*
D03*
X-132132D02*
D03*
X-122132D02*
D03*
X-112132D02*
D03*
D40*
X150970Y182593D02*
D03*
X195170D02*
D03*
X238900Y182803D02*
D03*
X-384400Y133600D02*
D03*
X-102131Y102476D02*
D03*
D41*
X152470Y163000D02*
D03*
Y170500D02*
D03*
X159970Y188667D02*
D03*
X167470Y188603D02*
D03*
X152320Y223500D02*
D03*
Y231740D02*
D03*
X167470Y208437D02*
D03*
X159970D02*
D03*
X196670Y163000D02*
D03*
Y170500D02*
D03*
X204170Y188667D02*
D03*
X211670Y188603D02*
D03*
X196520Y223500D02*
D03*
Y231740D02*
D03*
X211670Y208437D02*
D03*
X204170D02*
D03*
X240400Y163210D02*
D03*
Y170710D02*
D03*
X247900Y188877D02*
D03*
X255400Y188814D02*
D03*
X240250Y223710D02*
D03*
Y231950D02*
D03*
X255400Y208647D02*
D03*
X247900D02*
D03*
X227150Y90092D02*
D03*
X237150Y90292D02*
D03*
X227450Y5492D02*
D03*
X237450Y5692D02*
D03*
X127950Y5492D02*
D03*
X137950Y5692D02*
D03*
D42*
X-169430Y51000D02*
D03*
X152200Y-13658D02*
D03*
D43*
X-280600Y78816D02*
D03*
D44*
Y98029D02*
D03*
D45*
X117750Y90292D02*
D03*
X147650Y90192D02*
D03*
D46*
X-399000Y102700D02*
D03*
Y202700D02*
D03*
D47*
X135970Y208000D02*
D03*
Y189500D02*
D03*
X142470Y208000D02*
D03*
Y189500D02*
D03*
X136970Y227370D02*
D03*
X141970Y232000D02*
D03*
X167230Y227370D02*
D03*
X162600Y232370D02*
D03*
Y162870D02*
D03*
X167230Y167870D02*
D03*
X136970D02*
D03*
X141970Y162870D02*
D03*
X180170Y208000D02*
D03*
Y189500D02*
D03*
X186670Y208000D02*
D03*
Y189500D02*
D03*
X181170Y227370D02*
D03*
X186170Y232000D02*
D03*
X211430Y227370D02*
D03*
X206800Y232370D02*
D03*
Y162870D02*
D03*
X211430Y167870D02*
D03*
X181170D02*
D03*
X186170Y162870D02*
D03*
X223900Y208210D02*
D03*
Y189710D02*
D03*
X230400Y208210D02*
D03*
Y189710D02*
D03*
X224900Y227580D02*
D03*
X229900Y232210D02*
D03*
X255160Y227580D02*
D03*
X250530Y232580D02*
D03*
Y163080D02*
D03*
X255160Y168080D02*
D03*
X224900D02*
D03*
X229900Y163080D02*
D03*
X-291068Y39568D02*
D03*
X80000Y7600D02*
D03*
X85800Y64200D02*
D03*
X-157900Y18900D02*
D03*
X-127000Y16028D02*
D03*
Y33663D02*
D03*
X-351200Y100900D02*
D03*
X-156900Y140250D02*
D03*
X-160400Y197394D02*
D03*
Y219600D02*
D03*
X-256000Y163636D02*
D03*
X-337400Y172521D02*
D03*
X-316400D02*
D03*
X-279086Y136263D02*
D03*
X-294300Y51000D02*
D03*
X-90200Y63100D02*
D03*
D48*
X47305Y45668D02*
D03*
X50258Y43700D02*
D03*
X47305Y41731D02*
D03*
X53211Y45668D02*
D03*
Y41731D02*
D03*
D49*
X0Y0D02*
D03*
Y215000D02*
D03*
X-272500D02*
D03*
Y0D02*
D03*
D50*
X-279239Y176900D02*
D03*
X-112461Y153690D02*
D03*
X-79276Y168690D02*
D03*
X-6300Y175080D02*
D03*
X-297743Y176900D02*
D03*
X-312424Y161900D02*
D03*
X44151Y193763D02*
D03*
X-136000Y140489D02*
D03*
X-79276Y158690D02*
D03*
X-74400Y188600D02*
D03*
X-297743Y156900D02*
D03*
X38049Y193763D02*
D03*
X-112461Y173690D02*
D03*
X-124400Y188278D02*
D03*
X-96700Y158900D02*
D03*
X-312424Y181900D02*
D03*
X-146500Y156200D02*
D03*
X-220300Y170868D02*
D03*
X-277100Y166345D02*
D03*
X-171700Y146200D02*
D03*
X-174193Y176300D02*
D03*
X-64100Y161600D02*
D03*
X78019Y180600D02*
D03*
X65200D02*
D03*
Y189600D02*
D03*
X78019Y189400D02*
D03*
X68927Y77700D02*
D03*
X61600Y40747D02*
D03*
X71600Y185300D02*
D03*
X-44280Y40321D02*
D03*
X-41710Y90190D02*
D03*
X-177208Y138600D02*
D03*
X-195580Y160800D02*
D03*
X-177076D02*
D03*
X-213100Y194016D02*
D03*
X-249200Y173000D02*
D03*
X-297743Y166900D02*
D03*
X-279239Y186900D02*
D03*
X-210261Y175800D02*
D03*
X-175900Y194200D02*
D03*
X-77690Y178690D02*
D03*
X-18300Y124351D02*
D03*
D51*
X61541Y31486D02*
D03*
X51136D02*
D03*
D52*
X-36689Y116417D02*
D03*
D53*
X15674Y124100D02*
D03*
X-74D02*
D03*
D54*
X50258Y43700D02*
D03*
D55*
X46321Y49507D02*
D03*
X48290D02*
D03*
X50258D02*
D03*
X52227D02*
D03*
X54195D02*
D03*
Y37893D02*
D03*
X52227D02*
D03*
X50258D02*
D03*
X48290D02*
D03*
X46321D02*
D03*
D56*
X44275Y173872D02*
D03*
Y166392D02*
D03*
X53724D02*
D03*
Y170132D02*
D03*
Y173872D02*
D03*
D57*
X50286Y62000D02*
D03*
X66231D02*
D03*
D58*
X8563Y109900D02*
D03*
X16437D02*
D03*
D59*
X-328437Y135672D02*
D03*
Y143153D02*
D03*
X-320563Y139413D02*
D03*
X-254569Y178760D02*
D03*
Y186240D02*
D03*
X-246694Y182500D02*
D03*
D60*
X-416500Y25700D02*
X-399000Y8200D01*
X-399400Y133400D02*
X-389200Y143600D01*
X-384400D01*
X-399000Y35200D02*
X-385512D01*
X-384400Y113600D02*
Y133600D01*
X-385512Y35200D02*
X-379600Y41111D01*
Y108800D01*
X-384400Y113600D02*
X-379600Y108800D01*
X-416500Y25700D02*
Y103000D01*
X-399400Y120100D01*
Y133400D01*
D61*
X44010Y37893D02*
X46321D01*
X38093Y49507D02*
X46321D01*
X42056Y57300D02*
X48290Y51066D01*
X54195Y37893D02*
X60602Y31486D01*
X50258Y32363D02*
X51136Y31486D01*
X50258Y32363D02*
Y37893D01*
X52227Y34888D02*
X54300Y32815D01*
Y23800D02*
Y32815D01*
X52227Y34888D02*
Y37893D01*
X50258Y49507D02*
Y52472D01*
X47305Y41731D02*
X48290Y40747D01*
Y34688D02*
Y40747D01*
Y25073D02*
Y34688D01*
X52227Y46653D02*
Y49507D01*
X-298550Y132326D02*
X-298500Y132376D01*
D62*
X54850Y49500D02*
X55587Y50237D01*
X66758D01*
X28458Y42816D02*
X37416D01*
D63*
X69100Y97700D02*
Y160558D01*
D64*
X16474Y109963D02*
Y123400D01*
D65*
X-18300Y124351D02*
X-325D01*
Y138979D01*
D66*
X53944Y83662D02*
D03*
X53944Y97938D02*
D03*
D67*
X44156Y44684D02*
D03*
X44156Y42716D02*
D03*
X56360Y42716D02*
D03*
X56360Y44684D02*
D03*
M02*
