%FSLAX25Y25*%
%MOIN*%
G70*
G01*
G75*
G04 Layer_Color=255*
G04:AMPARAMS|DCode=10|XSize=23.62mil|YSize=61.02mil|CornerRadius=5.91mil|HoleSize=0mil|Usage=FLASHONLY|Rotation=0.000|XOffset=0mil|YOffset=0mil|HoleType=Round|Shape=RoundedRectangle|*
%AMROUNDEDRECTD10*
21,1,0.02362,0.04921,0,0,0.0*
21,1,0.01181,0.06102,0,0,0.0*
1,1,0.01181,0.00591,-0.02461*
1,1,0.01181,-0.00591,-0.02461*
1,1,0.01181,-0.00591,0.02461*
1,1,0.01181,0.00591,0.02461*
%
%ADD10ROUNDEDRECTD10*%
%ADD11R,0.05906X0.09843*%
%ADD12O,0.07480X0.02362*%
%ADD13O,0.01378X0.07087*%
%ADD14R,0.09843X0.05906*%
G04:AMPARAMS|DCode=15|XSize=23.62mil|YSize=61.02mil|CornerRadius=5.91mil|HoleSize=0mil|Usage=FLASHONLY|Rotation=270.000|XOffset=0mil|YOffset=0mil|HoleType=Round|Shape=RoundedRectangle|*
%AMROUNDEDRECTD15*
21,1,0.02362,0.04921,0,0,270.0*
21,1,0.01181,0.06102,0,0,270.0*
1,1,0.01181,-0.02461,-0.00591*
1,1,0.01181,-0.02461,0.00591*
1,1,0.01181,0.02461,0.00591*
1,1,0.01181,0.02461,-0.00591*
%
%ADD15ROUNDEDRECTD15*%
%ADD16R,0.03937X0.05315*%
%ADD17R,0.04134X0.04331*%
%ADD18R,0.03150X0.01969*%
%ADD19R,0.01969X0.03150*%
%ADD20R,0.04724X0.05315*%
%ADD21R,0.05315X0.04724*%
%ADD22R,0.05709X0.04528*%
%ADD23R,0.04528X0.05709*%
%ADD24C,0.03937*%
%ADD25C,0.01500*%
%ADD26C,0.02000*%
%ADD27C,0.01300*%
%ADD28C,0.04000*%
%ADD29C,0.05000*%
%ADD30C,0.03000*%
%ADD31C,0.06500*%
%ADD32C,0.06000*%
%ADD33C,0.00100*%
%ADD34C,0.07874*%
%ADD35R,0.05906X0.05906*%
%ADD36C,0.05906*%
%ADD37C,0.11024*%
%ADD38C,0.15354*%
%ADD39C,0.06000*%
%ADD40C,0.11417*%
%ADD41R,0.05906X0.05906*%
%ADD42P,0.05966X8X112.5*%
%ADD43C,0.05512*%
%ADD44C,0.11811*%
%ADD45C,0.05000*%
%ADD46C,0.02284*%
%ADD47C,0.10236*%
%ADD48C,0.15700*%
%ADD49C,0.04000*%
%ADD50C,0.02000*%
%ADD51C,0.06200*%
%ADD52R,0.06693X0.12598*%
%ADD53R,0.09449X0.06496*%
%ADD54O,0.01102X0.03347*%
%ADD55R,0.03543X0.02559*%
%ADD56R,0.06102X0.05512*%
%ADD57R,0.04331X0.04134*%
%ADD58R,0.03937X0.02362*%
%ADD59C,0.04500*%
%ADD60C,0.01000*%
%ADD61C,0.02500*%
%ADD62C,0.07000*%
%ADD63C,0.03500*%
%ADD64C,0.05500*%
%ADD65R,0.02756X0.01102*%
D14*
X484150Y106100D02*
D03*
Y121700D02*
D03*
D15*
X500350Y116100D02*
D03*
Y111900D02*
D03*
D17*
X132750Y163350D02*
D03*
Y155476D02*
D03*
X273399Y115005D02*
D03*
Y107131D02*
D03*
X498008Y73337D02*
D03*
Y65463D02*
D03*
D20*
X474719Y207732D02*
D03*
X467435D02*
D03*
X501850Y46900D02*
D03*
X494567D02*
D03*
X443867Y53500D02*
D03*
X451150D02*
D03*
X485550Y46900D02*
D03*
X478267D02*
D03*
D21*
X168350Y169858D02*
D03*
Y177142D02*
D03*
X307482Y189248D02*
D03*
Y196531D02*
D03*
X166419Y194558D02*
D03*
Y201842D02*
D03*
X86850Y166292D02*
D03*
Y159009D02*
D03*
X485050Y209580D02*
D03*
Y216863D02*
D03*
X468109Y53842D02*
D03*
Y46558D02*
D03*
D22*
X185350Y177142D02*
D03*
Y169858D02*
D03*
X120390Y162709D02*
D03*
Y155426D02*
D03*
X262150Y106934D02*
D03*
Y114217D02*
D03*
X467035Y189500D02*
D03*
Y196783D02*
D03*
X495450Y188558D02*
D03*
Y195842D02*
D03*
X459709Y65916D02*
D03*
Y73200D02*
D03*
X468709Y73242D02*
D03*
Y65958D02*
D03*
D23*
X132392Y101323D02*
D03*
X125109D02*
D03*
X430492Y162513D02*
D03*
X423209D02*
D03*
X132392Y119960D02*
D03*
X125109D02*
D03*
X501950Y30700D02*
D03*
X494667D02*
D03*
D33*
X696300Y0D02*
Y260000D01*
X-0D02*
X696300D01*
X-0Y0D02*
X696300D01*
X-0D02*
Y260000D01*
D34*
X678750Y225800D02*
D03*
X688050D02*
D03*
X668950Y251607D02*
D03*
Y241800D02*
D03*
X688050Y201400D02*
D03*
X678750Y201463D02*
D03*
X668650Y173400D02*
D03*
Y183207D02*
D03*
X601550Y183107D02*
D03*
Y173300D02*
D03*
X611650Y201363D02*
D03*
X620950Y201300D02*
D03*
X601850Y241700D02*
D03*
Y251507D02*
D03*
X620950Y225700D02*
D03*
X611650D02*
D03*
D35*
X667350Y197500D02*
D03*
X600250Y197400D02*
D03*
X41850Y156100D02*
D03*
X329119Y125576D02*
D03*
D36*
X667350Y207576D02*
D03*
Y217652D02*
D03*
Y227727D02*
D03*
X600250Y227627D02*
D03*
Y217551D02*
D03*
Y207476D02*
D03*
X261821Y64100D02*
D03*
X251820Y74100D02*
D03*
Y64100D02*
D03*
X241821Y74100D02*
D03*
Y64100D02*
D03*
X649250Y7850D02*
D03*
X639250D02*
D03*
X629250D02*
D03*
X619250D02*
D03*
X599250D02*
D03*
X609250D02*
D03*
X41850Y196100D02*
D03*
Y186100D02*
D03*
Y176100D02*
D03*
Y166100D02*
D03*
X618050Y95650D02*
D03*
X319119Y125576D02*
D03*
X309119D02*
D03*
X299119D02*
D03*
X289119D02*
D03*
X279119D02*
D03*
X269119D02*
D03*
X259119D02*
D03*
X249119D02*
D03*
X239119D02*
D03*
X229119D02*
D03*
X219119D02*
D03*
X209119D02*
D03*
X199119D02*
D03*
X329119Y95576D02*
D03*
X319119D02*
D03*
X309119D02*
D03*
X299119D02*
D03*
X289119D02*
D03*
X279119D02*
D03*
X269119D02*
D03*
X259119D02*
D03*
X249119D02*
D03*
X239119D02*
D03*
X229119D02*
D03*
X219119D02*
D03*
X209119D02*
D03*
X199119D02*
D03*
D37*
X34750Y78700D02*
D03*
X19750D02*
D03*
D38*
X27250Y57700D02*
D03*
Y30700D02*
D03*
D39*
X674200Y111800D02*
D03*
X664200Y111600D02*
D03*
X674501Y27200D02*
D03*
X664501Y27000D02*
D03*
X575000Y27200D02*
D03*
X565000Y27000D02*
D03*
D40*
X12750Y146700D02*
D03*
Y165200D02*
D03*
Y183700D02*
D03*
Y202200D02*
D03*
D41*
X261821Y74100D02*
D03*
X589250Y7850D02*
D03*
X628050Y95650D02*
D03*
D42*
X150650Y101917D02*
D03*
D43*
Y121129D02*
D03*
D44*
X554801Y111800D02*
D03*
X584700Y111700D02*
D03*
D52*
X446924Y147200D02*
D03*
X431176D02*
D03*
D53*
X481508Y66800D02*
D03*
D54*
X477571Y72607D02*
D03*
X479540D02*
D03*
X481508D02*
D03*
X483477D02*
D03*
X485445D02*
D03*
Y60993D02*
D03*
X483477D02*
D03*
X481508D02*
D03*
X479540D02*
D03*
X477571D02*
D03*
D55*
X484974Y196972D02*
D03*
Y193232D02*
D03*
Y189492D02*
D03*
X475526D02*
D03*
Y196972D02*
D03*
D56*
X497481Y85100D02*
D03*
X481536D02*
D03*
D57*
X447687Y133000D02*
D03*
X439813D02*
D03*
D58*
X102813Y158772D02*
D03*
Y166253D02*
D03*
X110687Y162513D02*
D03*
X176682Y201860D02*
D03*
Y209340D02*
D03*
X184556Y205600D02*
D03*
M02*
