%FSLAX25Y25*%
%MOIN*%
G70*
G01*
G75*
G04 Layer_Physical_Order=1*
G04 Layer_Color=255*
G04:AMPARAMS|DCode=10|XSize=23.62mil|YSize=61.02mil|CornerRadius=5.91mil|HoleSize=0mil|Usage=FLASHONLY|Rotation=0.000|XOffset=0mil|YOffset=0mil|HoleType=Round|Shape=RoundedRectangle|*
%AMROUNDEDRECTD10*
21,1,0.02362,0.04921,0,0,0.0*
21,1,0.01181,0.06102,0,0,0.0*
1,1,0.01181,0.00591,-0.02461*
1,1,0.01181,-0.00591,-0.02461*
1,1,0.01181,-0.00591,0.02461*
1,1,0.01181,0.00591,0.02461*
%
%ADD10ROUNDEDRECTD10*%
%ADD11O,0.07480X0.02362*%
%ADD12O,0.01378X0.07087*%
G04:AMPARAMS|DCode=13|XSize=23.62mil|YSize=61.02mil|CornerRadius=5.91mil|HoleSize=0mil|Usage=FLASHONLY|Rotation=270.000|XOffset=0mil|YOffset=0mil|HoleType=Round|Shape=RoundedRectangle|*
%AMROUNDEDRECTD13*
21,1,0.02362,0.04921,0,0,270.0*
21,1,0.01181,0.06102,0,0,270.0*
1,1,0.01181,-0.02461,-0.00591*
1,1,0.01181,-0.02461,0.00591*
1,1,0.01181,0.02461,0.00591*
1,1,0.01181,0.02461,-0.00591*
%
%ADD13ROUNDEDRECTD13*%
%ADD14R,0.03937X0.05315*%
%ADD15R,0.04134X0.04331*%
%ADD16R,0.03150X0.01969*%
%ADD17R,0.01969X0.03150*%
%ADD18R,0.04724X0.05315*%
%ADD19R,0.05315X0.04724*%
%ADD20R,0.05709X0.04528*%
%ADD21R,0.04528X0.05709*%
%ADD22C,0.01969*%
%ADD23C,0.01500*%
%ADD24C,0.02000*%
%ADD25C,0.01300*%
%ADD26C,0.04000*%
%ADD27C,0.05000*%
%ADD28C,0.03000*%
%ADD29C,0.06500*%
%ADD30C,0.06000*%
%ADD31R,0.03500X0.07500*%
%ADD32R,0.04724X0.07087*%
%ADD33R,0.07500X0.03500*%
%ADD34R,0.05600X0.07700*%
%ADD35C,0.00100*%
%ADD36C,0.11417*%
%ADD37C,0.15354*%
%ADD38C,0.11024*%
%ADD39C,0.05906*%
%ADD40R,0.05906X0.05906*%
%ADD41C,0.06000*%
%ADD42R,0.05906X0.05906*%
%ADD43P,0.05966X8X112.5*%
%ADD44C,0.05512*%
%ADD45C,0.11811*%
%ADD46C,0.10236*%
%ADD47C,0.05000*%
%ADD48C,0.02284*%
%ADD49C,0.15700*%
%ADD50C,0.04000*%
%ADD51C,0.02000*%
%ADD52C,0.06200*%
G36*
X-375800Y-900D02*
X-393406D01*
X-393527Y-415D01*
X-393319Y-303D01*
X-391769Y968D01*
X-390497Y2518D01*
X-389552Y4286D01*
X-388970Y6205D01*
X-388774Y8200D01*
X-388970Y10195D01*
X-389552Y12113D01*
X-390497Y13881D01*
X-391769Y15431D01*
X-393319Y16702D01*
X-395087Y17648D01*
X-397005Y18229D01*
X-399000Y18426D01*
X-400995Y18229D01*
X-402914Y17648D01*
X-404681Y16702D01*
X-406231Y15431D01*
X-407503Y13881D01*
X-408448Y12113D01*
X-409030Y10195D01*
X-409226Y8200D01*
X-409030Y6205D01*
X-408448Y4286D01*
X-407503Y2518D01*
X-406231Y968D01*
X-404681Y-303D01*
X-404473Y-415D01*
X-404594Y-900D01*
X-422200D01*
Y123690D01*
X-421701Y123714D01*
X-421590Y122590D01*
X-421121Y121043D01*
X-420358Y119617D01*
X-419333Y118367D01*
X-418083Y117341D01*
X-416656Y116579D01*
X-416578Y116555D01*
Y110604D01*
X-418458D01*
Y100880D01*
X-408143D01*
Y110604D01*
X-410022D01*
Y116751D01*
X-408918Y117341D01*
X-407667Y118367D01*
X-406642Y119617D01*
X-405879Y121043D01*
X-405410Y122590D01*
X-405252Y124200D01*
X-405410Y125809D01*
X-405839Y127224D01*
X-392082Y140982D01*
X-392082Y140982D01*
X-392082Y140982D01*
X-391561Y141661D01*
X-391397Y142056D01*
X-391234Y142451D01*
X-391178Y142875D01*
X-391122Y143300D01*
Y148242D01*
X-389149Y150215D01*
X-388650Y150182D01*
X-388289Y149711D01*
X-387167Y148850D01*
Y148350D01*
X-388289Y147489D01*
X-389163Y146350D01*
X-389712Y145024D01*
X-389900Y143600D01*
X-389712Y142176D01*
X-389163Y140850D01*
X-388289Y139711D01*
X-388048Y139526D01*
X-388209Y139053D01*
X-389853D01*
Y128147D01*
X-378947D01*
Y139053D01*
X-380591D01*
X-380752Y139526D01*
X-380511Y139711D01*
X-379637Y140850D01*
X-379088Y142176D01*
X-378900Y143600D01*
X-379088Y145024D01*
X-379637Y146350D01*
X-380511Y147489D01*
X-381633Y148350D01*
Y148850D01*
X-380511Y149711D01*
X-379637Y150850D01*
X-379088Y152176D01*
X-378900Y153600D01*
X-379088Y155024D01*
X-379637Y156350D01*
X-380511Y157489D01*
X-381633Y158350D01*
Y158850D01*
X-380511Y159711D01*
X-379637Y160850D01*
X-379088Y162177D01*
X-378900Y163600D01*
X-379088Y165024D01*
X-379637Y166350D01*
X-380511Y167489D01*
X-381650Y168363D01*
X-382977Y168912D01*
X-384400Y169100D01*
X-385823Y168912D01*
X-387150Y168363D01*
X-388289Y167489D01*
X-388443Y167479D01*
X-391122Y170158D01*
Y175300D01*
X-391234Y176148D01*
X-391561Y176939D01*
X-391856Y177323D01*
X-392082Y177618D01*
X-396482Y182018D01*
X-397161Y182538D01*
X-397556Y182702D01*
X-397951Y182866D01*
X-398375Y182922D01*
X-398800Y182978D01*
X-405944D01*
X-406642Y184282D01*
X-407667Y185532D01*
X-408918Y186558D01*
X-410222Y187255D01*
Y193196D01*
X-408343D01*
Y202921D01*
X-418657D01*
Y193196D01*
X-416778D01*
Y187255D01*
X-418083Y186558D01*
X-419333Y185532D01*
X-420358Y184282D01*
X-421121Y182856D01*
X-421590Y181309D01*
X-421701Y180185D01*
X-422200Y180209D01*
Y214300D01*
X-375800D01*
Y-900D01*
D02*
G37*
G36*
X-96737Y175501D02*
X-96768Y163430D01*
X-97875Y163284D01*
X-98969Y162831D01*
X-99820Y162178D01*
X-101364D01*
X-101601Y162276D01*
X-102561Y162403D01*
X-107679D01*
X-108641Y162276D01*
X-109385Y161968D01*
X-118446D01*
Y163605D01*
X-129154D01*
Y154078D01*
Y146794D01*
X-128727D01*
Y136446D01*
X-127241D01*
Y136263D01*
X-127185Y135839D01*
X-127129Y135415D01*
X-126966Y135019D01*
X-126802Y134624D01*
X-126281Y133945D01*
X-126281Y133945D01*
X-126281Y133945D01*
X-120618Y128282D01*
X-119939Y127761D01*
X-119148Y127434D01*
X-118300Y127322D01*
X-117540Y127422D01*
X-98704D01*
Y125542D01*
X-97221D01*
X-96868Y125189D01*
X-96881Y120400D01*
X-142868Y120382D01*
X-143222Y120735D01*
Y153080D01*
X-142569Y153931D01*
X-142116Y155025D01*
X-141976Y156088D01*
X-131142Y166922D01*
X-119858D01*
X-119308Y166372D01*
X-119013Y166146D01*
X-118629Y165851D01*
X-118234Y165687D01*
X-117838Y165523D01*
X-117414Y165468D01*
X-116990Y165412D01*
X-109385D01*
X-108641Y165103D01*
X-107679Y164977D01*
X-102561D01*
X-101601Y165103D01*
X-100705Y165474D01*
X-99936Y166064D01*
X-99346Y166833D01*
X-98975Y167729D01*
X-98849Y168690D01*
X-98975Y169651D01*
X-99346Y170546D01*
X-99840Y171190D01*
X-99346Y171833D01*
X-98975Y172729D01*
X-98849Y173690D01*
X-98975Y174651D01*
X-99262Y175344D01*
X-98984Y175760D01*
X-97652D01*
X-97228Y175816D01*
X-97112Y175831D01*
X-96737Y175501D01*
D02*
G37*
G36*
X-230478Y114802D02*
Y108137D01*
X-230854Y107807D01*
X-232132Y107975D01*
X-233555Y107788D01*
X-234881Y107239D01*
X-236020Y106365D01*
X-236894Y105226D01*
X-237444Y103899D01*
X-237631Y102476D01*
X-237444Y101052D01*
X-236894Y99726D01*
X-236020Y98587D01*
X-235478Y98170D01*
Y97500D01*
X-235422Y97076D01*
X-235366Y96652D01*
X-235203Y96256D01*
X-235039Y95861D01*
X-234518Y95182D01*
X-234518Y95182D01*
X-234518Y95182D01*
X-230378Y91042D01*
Y78124D01*
X-230754Y77794D01*
X-232132Y77975D01*
X-233555Y77788D01*
X-234881Y77239D01*
X-236020Y76364D01*
X-236894Y75226D01*
X-237444Y73899D01*
X-237631Y72476D01*
X-237444Y71052D01*
X-236894Y69726D01*
X-236020Y68587D01*
X-235478Y68170D01*
Y65558D01*
X-250658Y50378D01*
X-255095D01*
X-255122Y50410D01*
Y51591D01*
X-255228Y52397D01*
X-255540Y53149D01*
X-256035Y53795D01*
X-256681Y54290D01*
X-257433Y54602D01*
X-258239Y54708D01*
X-263161D01*
X-263967Y54602D01*
X-264235Y54491D01*
X-264651Y54768D01*
Y58100D01*
X-264845Y59075D01*
X-265398Y59902D01*
X-266225Y60455D01*
X-267200Y60649D01*
X-274700D01*
X-275676Y60455D01*
X-276502Y59902D01*
X-277055Y59075D01*
X-277249Y58100D01*
Y54600D01*
X-277513Y54278D01*
X-290513D01*
X-290734Y54566D01*
X-291778Y55367D01*
X-292995Y55871D01*
X-294300Y56043D01*
X-295605Y55871D01*
X-296822Y55367D01*
X-297866Y54566D01*
X-298668Y53522D01*
X-299171Y52305D01*
X-299343Y51000D01*
X-299171Y49695D01*
X-298668Y48478D01*
X-297866Y47434D01*
X-296822Y46633D01*
X-295605Y46129D01*
X-294300Y45957D01*
X-292995Y46129D01*
X-291778Y46633D01*
X-290734Y47434D01*
X-290513Y47722D01*
X-266305D01*
X-266278Y47690D01*
Y46509D01*
X-266172Y45703D01*
X-265943Y45150D01*
X-266172Y44597D01*
X-266278Y43793D01*
X-266710Y43543D01*
X-267050Y43684D01*
X-268225Y43839D01*
X-281167D01*
X-281970Y44171D01*
X-283275Y44343D01*
X-289530D01*
X-289763Y44440D01*
X-291068Y44611D01*
X-292374Y44440D01*
X-293590Y43936D01*
X-294634Y43134D01*
X-295436Y42090D01*
X-295940Y40874D01*
X-296111Y39568D01*
X-295940Y38263D01*
X-295436Y37047D01*
X-294634Y36002D01*
X-294482Y35886D01*
X-294366Y35734D01*
X-293322Y34933D01*
X-292105Y34429D01*
X-290800Y34257D01*
X-283275D01*
X-281970Y34429D01*
X-281167Y34761D01*
X-268225D01*
X-267050Y34916D01*
X-266206Y35265D01*
X-264782D01*
Y34809D01*
X-264659Y34189D01*
X-264307Y33663D01*
X-263781Y33311D01*
X-263161Y33188D01*
X-258239D01*
X-257619Y33311D01*
X-257093Y33663D01*
X-256741Y34189D01*
X-256618Y34809D01*
Y35991D01*
X-256629Y36049D01*
X-256035Y36505D01*
X-255540Y37151D01*
X-255228Y37903D01*
X-255122Y38709D01*
Y39891D01*
X-255095Y39922D01*
X-247900D01*
X-247476Y39978D01*
X-247052Y40034D01*
X-246656Y40197D01*
X-246261Y40361D01*
X-245582Y40882D01*
X-224782Y61682D01*
X-224556Y61977D01*
X-224261Y62361D01*
X-223934Y63152D01*
X-223822Y64000D01*
Y66819D01*
X-223446Y67149D01*
X-222131Y66976D01*
X-220708Y67163D01*
X-219382Y67713D01*
X-218243Y68587D01*
X-217382Y69709D01*
X-216881D01*
X-216020Y68587D01*
X-214881Y67713D01*
X-213555Y67163D01*
X-212132Y66976D01*
X-211503Y67058D01*
X-209427Y64982D01*
X-209132Y64756D01*
X-208748Y64461D01*
X-207957Y64134D01*
X-207109Y64022D01*
X-197458D01*
X-190277Y56841D01*
X-190437Y56367D01*
X-190853Y56312D01*
X-192180Y55763D01*
X-193319Y54889D01*
X-194193Y53750D01*
X-194742Y52424D01*
X-194930Y51000D01*
X-194829Y50236D01*
X-197898Y47167D01*
X-198419Y46488D01*
X-198583Y46093D01*
X-198747Y45698D01*
X-198802Y45274D01*
X-198858Y44850D01*
Y25142D01*
X-198802Y24717D01*
X-198747Y24293D01*
X-198583Y23898D01*
X-198419Y23503D01*
X-197898Y22824D01*
X-197898Y22824D01*
X-197898Y22824D01*
X-191656Y16582D01*
X-191361Y16356D01*
X-190977Y16061D01*
X-190657Y15928D01*
Y12996D01*
X-180342D01*
Y15622D01*
X-177584D01*
Y14825D01*
X-170615D01*
Y15622D01*
X-161687D01*
X-161466Y15334D01*
X-160422Y14532D01*
X-159205Y14029D01*
X-157900Y13857D01*
X-156595Y14029D01*
X-155379Y14532D01*
X-154334Y15334D01*
X-153533Y16378D01*
X-153029Y17594D01*
X-152857Y18900D01*
X-153029Y20205D01*
X-153533Y21421D01*
X-154334Y22466D01*
X-155379Y23267D01*
X-156595Y23771D01*
X-157900Y23943D01*
X-159205Y23771D01*
X-160422Y23267D01*
X-161466Y22466D01*
X-161687Y22178D01*
X-170615D01*
Y22975D01*
X-172115D01*
Y24400D01*
X-176084D01*
Y22975D01*
X-177584D01*
Y22178D01*
X-180342D01*
Y22720D01*
X-181842D01*
Y24642D01*
X-189157D01*
Y24008D01*
X-189619Y23816D01*
X-192302Y26500D01*
Y35838D01*
X-191887Y36116D01*
X-190853Y35688D01*
X-189430Y35500D01*
X-188006Y35688D01*
X-186680Y36237D01*
X-185541Y37111D01*
X-184680Y38233D01*
X-184180D01*
X-183319Y37111D01*
X-182180Y36237D01*
X-180853Y35688D01*
X-179430Y35500D01*
X-178006Y35688D01*
X-176680Y36237D01*
X-175541Y37111D01*
X-174667Y38250D01*
X-174117Y39577D01*
X-173930Y41000D01*
X-174117Y42423D01*
X-174667Y43750D01*
X-175541Y44889D01*
X-176663Y45750D01*
Y46250D01*
X-175541Y47111D01*
X-175356Y47352D01*
X-174882Y47191D01*
Y45547D01*
X-163977D01*
Y56453D01*
X-174882D01*
Y54809D01*
X-175356Y54648D01*
X-175541Y54889D01*
X-176152Y55358D01*
Y59621D01*
X-176263Y60470D01*
X-176591Y61260D01*
X-177112Y61939D01*
X-183344Y68171D01*
X-183122Y68619D01*
X-182632Y68555D01*
Y71976D01*
X-186053D01*
X-185988Y71485D01*
X-186340Y71311D01*
X-186747Y71602D01*
X-186632Y72476D01*
X-186819Y73899D01*
X-187369Y75226D01*
X-188243Y76364D01*
X-189382Y77239D01*
X-190708Y77788D01*
X-192131Y77975D01*
X-193555Y77788D01*
X-194881Y77239D01*
X-196020Y76364D01*
X-196881Y75242D01*
X-197381D01*
X-198243Y76364D01*
X-199382Y77239D01*
X-200708Y77788D01*
X-202132Y77975D01*
X-203555Y77788D01*
X-204881Y77239D01*
X-206020Y76364D01*
X-206881Y75242D01*
X-207382D01*
X-208243Y76364D01*
X-209382Y77239D01*
X-210708Y77788D01*
X-212132Y77975D01*
X-213555Y77788D01*
X-214881Y77239D01*
X-216020Y76364D01*
X-216881Y75242D01*
X-217382D01*
X-218243Y76364D01*
X-219382Y77239D01*
X-220708Y77788D01*
X-222131Y77975D01*
X-223446Y77802D01*
X-223822Y78132D01*
Y90177D01*
X-223446Y90507D01*
X-223224Y90478D01*
X-222800Y90422D01*
X-210891D01*
X-210467Y90478D01*
X-210043Y90534D01*
X-209648Y90697D01*
X-209252Y90861D01*
X-208573Y91382D01*
X-208573Y91382D01*
X-208573Y91382D01*
X-202881Y97075D01*
X-202132Y96976D01*
X-200708Y97163D01*
X-199382Y97713D01*
X-198243Y98587D01*
X-197381Y99709D01*
X-196881D01*
X-196020Y98587D01*
X-194881Y97713D01*
X-193555Y97163D01*
X-192131Y96976D01*
X-190708Y97163D01*
X-189382Y97713D01*
X-188243Y98587D01*
X-187381Y99709D01*
X-186881D01*
X-186021Y98587D01*
X-184881Y97713D01*
X-183555Y97163D01*
X-182132Y96976D01*
X-180708Y97163D01*
X-179382Y97713D01*
X-178243Y98587D01*
X-177382Y99709D01*
X-176882D01*
X-176021Y98587D01*
X-174881Y97713D01*
X-173555Y97163D01*
X-172132Y96976D01*
X-170708Y97163D01*
X-169382Y97713D01*
X-168243Y98587D01*
X-167368Y99726D01*
X-166819Y101052D01*
X-166632Y102476D01*
X-166819Y103899D01*
X-167368Y105226D01*
X-168243Y106365D01*
X-169382Y107239D01*
X-170708Y107788D01*
X-172132Y107975D01*
X-173555Y107788D01*
X-174881Y107239D01*
X-176021Y106365D01*
X-176882Y105242D01*
X-177382D01*
X-178243Y106365D01*
X-179382Y107239D01*
X-180708Y107788D01*
X-182132Y107975D01*
X-183555Y107788D01*
X-184881Y107239D01*
X-186021Y106365D01*
X-186881Y105242D01*
X-187381D01*
X-188243Y106365D01*
X-189382Y107239D01*
X-190708Y107788D01*
X-192131Y107975D01*
X-193555Y107788D01*
X-194881Y107239D01*
X-196020Y106365D01*
X-196881Y105242D01*
X-197381D01*
X-198243Y106365D01*
X-199382Y107239D01*
X-200304Y107621D01*
X-200401Y108111D01*
X-193790Y114722D01*
X-149778Y114625D01*
Y107853D01*
X-150194Y107575D01*
X-150708Y107788D01*
X-152131Y107975D01*
X-153555Y107788D01*
X-154881Y107239D01*
X-156020Y106365D01*
X-156895Y105226D01*
X-157444Y103899D01*
X-157631Y102476D01*
X-157444Y101052D01*
X-156895Y99726D01*
X-156020Y98587D01*
X-154881Y97713D01*
X-153555Y97163D01*
X-152131Y96976D01*
X-150708Y97163D01*
X-150194Y97376D01*
X-149778Y97098D01*
Y86691D01*
X-149722Y86267D01*
X-149666Y85843D01*
X-149503Y85448D01*
X-149339Y85052D01*
X-148818Y84373D01*
X-148818Y84373D01*
X-148818Y84373D01*
X-142786Y78342D01*
X-142947Y77868D01*
X-143555Y77788D01*
X-144881Y77239D01*
X-146020Y76364D01*
X-146881Y75242D01*
X-147381D01*
X-148243Y76364D01*
X-149382Y77239D01*
X-150708Y77788D01*
X-152131Y77975D01*
X-153555Y77788D01*
X-154881Y77239D01*
X-156020Y76364D01*
X-156881Y75242D01*
X-157381D01*
X-158243Y76364D01*
X-159382Y77239D01*
X-160708Y77788D01*
X-162132Y77975D01*
X-163555Y77788D01*
X-164881Y77239D01*
X-166021Y76364D01*
X-166894Y75226D01*
X-167444Y73899D01*
X-167631Y72476D01*
X-167444Y71052D01*
X-166894Y69726D01*
X-166021Y68587D01*
X-164881Y67713D01*
X-163555Y67163D01*
X-162132Y66976D01*
X-160708Y67163D01*
X-159382Y67713D01*
X-158243Y68587D01*
X-157381Y69709D01*
X-156881D01*
X-156020Y68587D01*
X-154881Y67713D01*
X-153555Y67163D01*
X-152131Y66976D01*
X-150708Y67163D01*
X-149382Y67713D01*
X-148243Y68587D01*
X-147381Y69709D01*
X-146881D01*
X-146020Y68587D01*
X-145478Y68170D01*
Y35250D01*
X-145422Y34826D01*
X-145366Y34401D01*
X-145203Y34006D01*
X-145039Y33611D01*
X-144518Y32932D01*
X-144518Y32932D01*
X-144518Y32932D01*
X-133468Y21882D01*
X-133173Y21656D01*
X-132789Y21361D01*
X-132394Y21197D01*
X-131999Y21034D01*
X-131574Y20978D01*
X-131150Y20922D01*
X-50091D01*
X-49995Y20431D01*
X-86000Y5800D01*
X-264039Y6001D01*
X-264101Y6102D01*
X-265159Y7341D01*
X-266398Y8399D01*
X-267787Y9250D01*
X-269292Y9874D01*
X-270876Y10254D01*
X-272500Y10382D01*
X-274124Y10254D01*
X-275708Y9874D01*
X-277213Y9250D01*
X-277295Y9200D01*
X-363224Y83331D01*
Y114739D01*
X-362870Y115093D01*
X-230478Y114802D01*
D02*
G37*
G36*
X-72778Y87042D02*
Y74200D01*
X-72722Y73776D01*
X-72666Y73352D01*
X-72503Y72956D01*
X-72339Y72561D01*
X-71818Y71882D01*
X-71818Y71882D01*
X-71818Y71882D01*
X-62912Y62976D01*
Y52114D01*
X-62850Y51647D01*
Y49260D01*
X-62741Y48427D01*
X-62419Y47652D01*
X-61908Y46985D01*
X-61242Y46474D01*
X-60466Y46153D01*
X-59634Y46043D01*
X-58801Y46153D01*
X-58354Y46338D01*
X-57907Y46153D01*
X-57075Y46043D01*
X-56242Y46153D01*
X-55795Y46338D01*
X-55348Y46153D01*
X-54516Y46043D01*
X-53683Y46153D01*
X-52908Y46474D01*
X-52241Y46985D01*
X-52207Y47031D01*
X-51707D01*
X-51672Y46985D01*
X-51006Y46474D01*
X-50230Y46153D01*
X-49398Y46043D01*
X-48565Y46153D01*
X-48118Y46338D01*
X-47671Y46153D01*
X-47558Y46138D01*
Y43440D01*
X-48210Y42590D01*
X-48664Y41495D01*
X-48818Y40321D01*
X-48664Y39146D01*
X-48210Y38051D01*
X-47489Y37111D01*
X-46549Y36390D01*
X-45454Y35936D01*
X-44280Y35782D01*
X-43105Y35936D01*
X-42010Y36390D01*
X-41070Y37111D01*
X-40349Y38051D01*
X-39895Y39146D01*
X-39741Y40321D01*
X-39895Y41495D01*
X-40349Y42590D01*
X-41001Y43440D01*
Y46138D01*
X-40888Y46153D01*
X-40441Y46338D01*
X-39994Y46153D01*
X-39161Y46043D01*
X-38329Y46153D01*
X-37882Y46338D01*
X-37435Y46153D01*
X-36602Y46043D01*
X-35770Y46153D01*
X-35323Y46338D01*
X-34876Y46153D01*
X-34043Y46043D01*
X-33211Y46153D01*
X-32764Y46338D01*
X-32317Y46153D01*
X-31484Y46043D01*
X-30652Y46153D01*
X-30205Y46338D01*
X-29758Y46153D01*
X-28925Y46043D01*
X-28093Y46153D01*
X-27646Y46338D01*
X-27199Y46153D01*
X-26366Y46043D01*
X-25534Y46153D01*
X-24758Y46474D01*
X-24092Y46985D01*
X-23581Y47652D01*
X-23259Y48427D01*
X-23150Y49260D01*
Y54969D01*
X-23259Y55801D01*
X-23581Y56577D01*
X-24092Y57243D01*
X-24758Y57754D01*
X-25534Y58075D01*
X-26366Y58185D01*
X-27199Y58075D01*
X-27646Y57890D01*
X-28093Y58075D01*
X-28925Y58185D01*
X-29758Y58075D01*
X-30205Y57890D01*
X-30652Y58075D01*
X-31484Y58185D01*
X-32317Y58075D01*
X-32764Y57890D01*
X-33211Y58075D01*
X-34043Y58185D01*
X-34876Y58075D01*
X-35323Y57890D01*
X-35770Y58075D01*
X-36602Y58185D01*
X-37435Y58075D01*
X-37882Y57890D01*
X-38329Y58075D01*
X-39161Y58185D01*
X-39994Y58075D01*
X-40441Y57890D01*
X-40888Y58075D01*
X-41721Y58185D01*
X-42553Y58075D01*
X-43000Y57890D01*
X-43447Y58075D01*
X-44280Y58185D01*
X-45112Y58075D01*
X-45559Y57890D01*
X-46006Y58075D01*
X-46120Y58090D01*
Y60498D01*
X-46176Y60922D01*
X-46231Y61346D01*
X-46395Y61741D01*
X-46559Y62137D01*
X-47080Y62816D01*
X-56679Y72415D01*
X-56518Y72888D01*
X-56242Y72925D01*
X-55795Y73110D01*
X-55348Y72925D01*
X-54516Y72815D01*
X-53683Y72925D01*
X-53236Y73110D01*
X-52789Y72925D01*
X-51957Y72815D01*
X-51124Y72925D01*
X-50677Y73110D01*
X-50230Y72925D01*
X-49398Y72815D01*
X-48565Y72925D01*
X-48118Y73110D01*
X-47671Y72925D01*
X-46839Y72815D01*
X-46006Y72925D01*
X-45559Y73110D01*
X-45112Y72925D01*
X-44280Y72815D01*
X-43447Y72925D01*
X-43000Y73110D01*
X-42553Y72925D01*
X-41721Y72815D01*
X-40888Y72925D01*
X-40112Y73246D01*
X-39446Y73757D01*
X-38997Y74342D01*
X-38502Y74440D01*
X-37944Y74814D01*
X-37820D01*
X-37321Y74481D01*
Y73943D01*
X-37266Y73519D01*
X-37210Y73095D01*
X-37046Y72700D01*
X-36882Y72304D01*
X-36361Y71625D01*
X-36361Y71625D01*
X-36361Y71625D01*
X-31990Y67255D01*
X-31696Y67028D01*
X-31312Y66734D01*
X-30753Y66502D01*
X-30521Y66406D01*
X-30422Y66393D01*
X-29673Y66294D01*
X-13523D01*
Y64809D01*
X-12023D01*
Y62789D01*
X-4314D01*
Y64809D01*
X-2814D01*
Y66459D01*
X-1735D01*
Y65072D01*
X-235D01*
Y65072D01*
Y65028D01*
X-235Y64718D01*
X-235Y64718D01*
X-235D01*
Y62363D01*
X5898D01*
Y64718D01*
X5898Y64718D01*
D01*
D01*
X5898Y65028D01*
D01*
X5942Y65072D01*
X7398D01*
Y70485D01*
X7804Y70777D01*
X9800Y70107D01*
X9900Y50899D01*
X-21500Y32011D01*
X-32654Y27478D01*
X-129792D01*
X-138922Y36608D01*
Y68065D01*
X-138243Y68587D01*
X-137381Y69709D01*
X-136881D01*
X-136021Y68587D01*
X-134881Y67713D01*
X-133555Y67163D01*
X-132132Y66976D01*
X-130708Y67163D01*
X-130708Y67163D01*
X-130708Y67163D01*
X-130377Y67263D01*
X-130377Y67263D01*
X-130377D01*
X-130214Y66867D01*
X-130050Y66472D01*
X-129529Y65793D01*
X-129529Y65793D01*
X-129529Y65793D01*
X-118061Y54325D01*
Y38522D01*
X-118110Y38482D01*
X-118200D01*
Y38114D01*
X-118385Y37668D01*
X-118491Y36861D01*
Y34400D01*
Y31939D01*
X-118385Y31133D01*
X-118200Y30686D01*
Y30318D01*
X-118109D01*
X-118036Y30332D01*
X-117578Y29735D01*
X-116932Y29240D01*
X-116181Y28928D01*
X-115374Y28822D01*
X-114193D01*
X-113386Y28928D01*
X-112825Y29161D01*
X-112264Y28928D01*
X-111457Y28822D01*
X-110276D01*
X-109469Y28928D01*
X-108908Y29161D01*
X-108347Y28928D01*
X-107541Y28822D01*
X-106360D01*
X-105553Y28928D01*
X-104992Y29161D01*
X-104431Y28928D01*
X-103624Y28822D01*
X-102443D01*
X-101636Y28928D01*
X-101075Y29161D01*
X-100514Y28928D01*
X-99707Y28822D01*
X-98526D01*
X-97719Y28928D01*
X-97158Y29161D01*
X-96597Y28928D01*
X-95791Y28822D01*
X-94609D01*
X-93803Y28928D01*
X-93051Y29240D01*
X-92405Y29735D01*
X-91910Y30381D01*
X-91598Y31133D01*
X-91492Y31939D01*
Y36851D01*
X-88200D01*
X-87225Y37045D01*
X-86398Y37598D01*
X-85845Y38425D01*
X-85651Y39400D01*
Y46900D01*
X-85845Y47875D01*
X-86398Y48702D01*
X-87225Y49255D01*
X-88200Y49449D01*
X-91700D01*
X-91922Y49631D01*
Y56742D01*
X-90560Y58104D01*
X-90200Y58057D01*
X-88895Y58229D01*
X-87678Y58732D01*
X-86634Y59534D01*
X-85833Y60578D01*
X-85329Y61795D01*
X-85157Y63100D01*
X-85329Y64405D01*
X-85833Y65622D01*
X-86634Y66666D01*
X-87678Y67467D01*
X-88895Y67971D01*
X-90200Y68143D01*
X-90504Y68103D01*
X-90880Y68433D01*
Y73758D01*
X-90880Y73758D01*
X-90880Y73758D01*
Y73758D01*
X-90880D01*
X-90880Y73758D01*
X-90991Y74606D01*
X-91319Y75397D01*
X-91840Y76076D01*
X-95040Y79276D01*
X-95719Y79797D01*
X-96114Y79961D01*
X-96510Y80125D01*
X-96934Y80181D01*
X-97358Y80236D01*
X-118500D01*
X-123922Y85658D01*
Y96832D01*
X-123546Y97162D01*
X-122132Y96976D01*
X-120708Y97163D01*
X-119382Y97713D01*
X-118243Y98587D01*
X-117382Y99709D01*
X-116882D01*
X-116021Y98587D01*
X-114881Y97713D01*
X-113555Y97163D01*
X-112132Y96976D01*
X-110708Y97163D01*
X-109382Y97713D01*
X-108243Y98587D01*
X-108058Y98827D01*
X-107584Y98667D01*
Y97023D01*
X-96679D01*
Y106222D01*
X-91958D01*
X-72778Y87042D01*
D02*
G37*
G36*
X72856Y53326D02*
X72800Y36900D01*
X72702Y35030D01*
X61555D01*
X61447Y35016D01*
X51136D01*
X50222Y34896D01*
X49371Y34543D01*
X48649Y33990D01*
X33118D01*
Y52987D01*
X33521Y53390D01*
X72502Y53679D01*
X72856Y53326D01*
D02*
G37*
G36*
X82600Y193483D02*
Y172244D01*
X58649D01*
X58458Y172706D01*
X59200Y173448D01*
Y193288D01*
X59555Y193641D01*
X82600Y193483D01*
D02*
G37*
G36*
X254400Y112942D02*
Y-15816D01*
X254300Y-15858D01*
Y-15858D01*
X254300Y-15858D01*
X207641D01*
X207363Y-15442D01*
X207512Y-15081D01*
X207700Y-13658D01*
X207512Y-12234D01*
X206963Y-10908D01*
X206089Y-9769D01*
X205730Y-9493D01*
Y67142D01*
X205610Y68056D01*
X205257Y68907D01*
X204696Y69639D01*
X199296Y75039D01*
X198565Y75600D01*
X197714Y75952D01*
X196800Y76073D01*
X188693D01*
X188490Y76562D01*
X187995Y77207D01*
X187349Y77703D01*
X186597Y78014D01*
X185791Y78120D01*
X184609D01*
X183803Y78014D01*
X183051Y77703D01*
X182405Y77207D01*
X181910Y76562D01*
X181598Y75810D01*
X181492Y75003D01*
Y70082D01*
X181598Y69275D01*
X181910Y68523D01*
X182405Y67878D01*
X183051Y67382D01*
X183803Y67071D01*
X184609Y66965D01*
X185791D01*
X186597Y67071D01*
X187349Y67382D01*
X187995Y67878D01*
X188490Y68523D01*
X188693Y69012D01*
X195338D01*
X198670Y65680D01*
Y-9493D01*
X198311Y-9769D01*
X197450Y-10891D01*
X196950D01*
X196089Y-9769D01*
X194950Y-8895D01*
X193623Y-8345D01*
X192200Y-8158D01*
X190777Y-8345D01*
X189450Y-8895D01*
X188311Y-9769D01*
X187450Y-10891D01*
X186950D01*
X186089Y-9769D01*
X184950Y-8895D01*
X183624Y-8345D01*
X182200Y-8158D01*
X180777Y-8345D01*
X179450Y-8895D01*
X178311Y-9769D01*
X177450Y-10891D01*
X176950D01*
X176089Y-9769D01*
X174950Y-8895D01*
X173624Y-8345D01*
X172200Y-8158D01*
X170776Y-8345D01*
X169450Y-8895D01*
X168311Y-9769D01*
X167450Y-10891D01*
X166950D01*
X166089Y-9769D01*
X165730Y-9493D01*
Y36042D01*
X165610Y36956D01*
X165257Y37808D01*
X164696Y38539D01*
X151180Y52055D01*
Y60385D01*
X152720D01*
Y70700D01*
X151180D01*
Y82548D01*
X152343Y83170D01*
X153623Y84220D01*
X154673Y85500D01*
X155453Y86960D01*
X155934Y88545D01*
X156096Y90192D01*
X155934Y91840D01*
X155453Y93425D01*
X154673Y94885D01*
X153623Y96165D01*
X152343Y97215D01*
X150882Y97996D01*
X149298Y98476D01*
X147650Y98639D01*
X146002Y98476D01*
X144418Y97996D01*
X142958Y97215D01*
X141678Y96165D01*
X140628Y94885D01*
X139847Y93425D01*
X139366Y91840D01*
X139204Y90192D01*
X139366Y88545D01*
X139847Y86960D01*
X140628Y85500D01*
X141678Y84220D01*
X142958Y83170D01*
X144120Y82548D01*
Y70700D01*
X142996D01*
Y60385D01*
X144120D01*
Y50592D01*
X144240Y49679D01*
X144593Y48827D01*
X145154Y48096D01*
X158670Y34580D01*
Y-9493D01*
X158311Y-9769D01*
X158126Y-10009D01*
X157653Y-9849D01*
Y-8205D01*
X155730D01*
Y14242D01*
X155610Y15156D01*
X155257Y16007D01*
X154696Y16739D01*
X121280Y50155D01*
Y82648D01*
X122443Y83270D01*
X123723Y84320D01*
X124773Y85600D01*
X125553Y87060D01*
X126034Y88645D01*
X126196Y90292D01*
X126034Y91940D01*
X125553Y93525D01*
X124773Y94985D01*
X123723Y96265D01*
X122443Y97315D01*
X120982Y98096D01*
X119398Y98576D01*
X117750Y98739D01*
X116102Y98576D01*
X114518Y98096D01*
X113058Y97315D01*
X111778Y96265D01*
X110728Y94985D01*
X110035Y93690D01*
X109550Y93811D01*
Y112689D01*
X109904Y113042D01*
X254400Y112942D01*
D02*
G37*
G36*
X-96954Y227700D02*
X-96601Y227346D01*
X-96619Y220278D01*
X-116131D01*
X-116980Y220166D01*
X-117539Y219935D01*
X-117771Y219839D01*
X-118065Y219613D01*
X-118449Y219318D01*
X-125172Y212595D01*
X-130654D01*
Y211109D01*
X-139842D01*
Y212694D01*
X-150157D01*
Y211109D01*
X-162268D01*
X-163117Y210998D01*
X-163908Y210670D01*
X-164292Y210376D01*
X-164586Y210149D01*
X-176012Y198724D01*
X-177075Y198584D01*
X-178169Y198131D01*
X-179020Y197478D01*
X-185560D01*
X-185599Y197767D01*
X-185910Y198519D01*
X-186281Y199003D01*
X-186060Y199451D01*
X-181600D01*
X-180624Y199645D01*
X-179798Y200198D01*
X-179245Y201025D01*
X-179051Y202000D01*
Y209700D01*
X-179245Y210676D01*
X-179798Y211502D01*
X-180624Y212055D01*
X-181600Y212249D01*
X-187200D01*
X-188175Y212055D01*
X-189002Y211502D01*
X-189555Y210676D01*
X-189749Y209700D01*
Y202000D01*
X-189555Y201025D01*
X-189217Y200519D01*
X-189453Y200078D01*
X-189791D01*
X-190597Y199972D01*
X-191167Y199736D01*
X-191736Y199972D01*
X-192543Y200078D01*
X-193724D01*
X-194531Y199972D01*
X-195100Y199736D01*
X-195669Y199972D01*
X-196476Y200078D01*
X-197657D01*
X-198464Y199972D01*
X-199033Y199736D01*
X-199603Y199972D01*
X-200409Y200078D01*
X-200647D01*
X-200883Y200519D01*
X-200545Y201025D01*
X-200351Y202000D01*
Y209700D01*
X-200545Y210676D01*
X-201098Y211502D01*
X-201924Y212055D01*
X-202900Y212249D01*
X-208500D01*
X-209475Y212055D01*
X-210302Y211502D01*
X-210855Y210676D01*
X-211049Y209700D01*
Y202000D01*
X-210855Y201025D01*
X-210302Y200198D01*
X-209475Y199645D01*
X-208500Y199451D01*
X-204140D01*
X-203919Y199003D01*
X-204290Y198519D01*
X-204597Y197778D01*
X-210610D01*
X-210831Y197947D01*
X-211925Y198400D01*
X-213100Y198555D01*
X-214275Y198400D01*
X-215369Y197947D01*
X-216309Y197226D01*
X-217031Y196286D01*
X-217484Y195191D01*
X-217639Y194016D01*
X-217484Y192841D01*
X-217031Y191747D01*
X-216309Y190807D01*
X-215369Y190085D01*
X-214275Y189632D01*
X-213100Y189477D01*
X-211925Y189632D01*
X-210831Y190085D01*
X-209891Y190807D01*
X-209572Y191222D01*
X-204597D01*
X-204290Y190481D01*
X-203795Y189835D01*
X-203149Y189340D01*
X-202397Y189028D01*
X-201591Y188922D01*
X-200410D01*
X-200345Y188865D01*
Y179527D01*
X-200361Y179513D01*
X-205480D01*
X-206440Y179386D01*
X-207156Y179090D01*
X-207991Y179731D01*
X-209086Y180184D01*
X-210149Y180324D01*
X-213343Y183518D01*
X-214022Y184039D01*
X-214417Y184203D01*
X-214812Y184366D01*
X-215236Y184422D01*
X-215661Y184478D01*
X-272182D01*
X-274715Y187012D01*
X-274855Y188075D01*
X-275309Y189169D01*
X-276030Y190109D01*
X-276970Y190831D01*
X-278065Y191284D01*
X-279239Y191439D01*
X-280414Y191284D01*
X-281509Y190831D01*
X-282344Y190190D01*
X-283060Y190486D01*
X-284020Y190613D01*
X-285300D01*
X-291412Y196725D01*
Y197211D01*
X-289828D01*
Y207014D01*
Y217329D01*
X-306835D01*
Y207014D01*
Y197211D01*
X-305150D01*
Y194373D01*
X-305150Y194373D01*
X-305042Y193551D01*
X-304725Y192785D01*
X-304220Y192127D01*
X-303168Y191075D01*
X-303359Y190613D01*
X-304160D01*
X-310007Y196460D01*
X-310686Y196981D01*
X-311082Y197144D01*
X-311477Y197308D01*
X-311901Y197364D01*
X-312325Y197420D01*
X-317777D01*
Y198906D01*
X-328486D01*
Y198750D01*
X-337958D01*
Y189026D01*
Y181743D01*
X-332574D01*
X-329078Y178247D01*
Y166706D01*
X-331354D01*
Y157178D01*
Y149894D01*
X-320646D01*
Y151380D01*
X-307325D01*
X-306901Y151436D01*
X-306477Y151492D01*
X-306082Y151656D01*
X-305686Y151819D01*
X-305007Y152340D01*
X-304160Y153187D01*
X-302524D01*
X-301564Y153314D01*
X-300848Y153610D01*
X-300013Y152969D01*
X-298918Y152516D01*
X-297743Y152361D01*
X-296569Y152516D01*
X-295474Y152969D01*
X-294534Y153691D01*
X-293813Y154631D01*
X-293359Y155725D01*
X-293278Y156342D01*
X-292778D01*
X-292725Y155939D01*
X-292354Y155044D01*
X-291764Y154275D01*
X-290995Y153685D01*
X-290100Y153314D01*
X-289139Y153187D01*
X-284020D01*
X-283060Y153314D01*
X-282315Y153622D01*
X-276500D01*
X-276076Y153678D01*
X-275652Y153734D01*
X-275256Y153897D01*
X-274861Y154061D01*
X-274182Y154582D01*
X-259043Y169722D01*
X-252320D01*
X-251469Y169069D01*
X-250375Y168615D01*
X-249200Y168461D01*
X-248025Y168615D01*
X-246931Y169069D01*
X-245991Y169790D01*
X-245269Y170730D01*
X-244816Y171825D01*
X-244661Y173000D01*
X-244816Y174174D01*
X-245269Y175269D01*
X-245991Y176209D01*
X-246931Y176930D01*
X-248025Y177384D01*
X-248323Y177423D01*
X-248290Y177922D01*
X-217018D01*
X-214785Y175688D01*
X-214645Y174625D01*
X-214590Y174494D01*
X-214868Y174078D01*
X-217092D01*
X-218031Y174799D01*
X-219125Y175252D01*
X-220300Y175407D01*
X-221475Y175252D01*
X-222569Y174799D01*
X-223509Y174077D01*
X-224231Y173137D01*
X-224684Y172043D01*
X-224839Y170868D01*
X-224684Y169693D01*
X-224231Y168598D01*
X-223509Y167658D01*
X-222569Y166937D01*
X-221475Y166483D01*
X-220300Y166329D01*
X-219125Y166483D01*
X-218031Y166937D01*
X-217268Y167522D01*
X-207185D01*
X-206440Y167214D01*
X-205480Y167087D01*
X-200361D01*
X-199400Y167214D01*
X-198505Y167585D01*
X-197736Y168175D01*
X-197304Y168737D01*
D01*
X-197023Y168755D01*
X-196806Y168770D01*
X-196806Y168770D01*
X-196806Y168770D01*
X-193288Y165252D01*
X-193566Y164836D01*
X-194406Y165184D01*
X-195580Y165339D01*
X-196755Y165184D01*
X-197850Y164731D01*
X-198685Y164090D01*
X-199400Y164386D01*
X-200361Y164513D01*
X-205480D01*
X-206440Y164386D01*
X-207336Y164015D01*
X-208105Y163425D01*
X-208695Y162656D01*
X-209066Y161761D01*
X-209192Y160800D01*
X-209066Y159839D01*
X-208695Y158944D01*
X-208105Y158175D01*
X-207336Y157585D01*
X-206440Y157214D01*
X-205480Y157087D01*
X-200361D01*
X-199400Y157214D01*
X-198685Y157510D01*
X-197850Y156869D01*
X-196755Y156416D01*
X-195651Y156271D01*
X-195491Y155797D01*
X-203975Y147313D01*
X-205611D01*
X-206572Y147186D01*
X-207468Y146815D01*
X-208236Y146225D01*
X-208826Y145456D01*
X-209197Y144561D01*
X-209324Y143600D01*
X-209197Y142639D01*
X-208826Y141744D01*
X-208333Y141100D01*
X-208826Y140456D01*
X-209197Y139561D01*
X-209324Y138600D01*
X-209197Y137639D01*
X-209061Y137310D01*
X-209311Y136877D01*
X-210148Y136766D01*
X-210939Y136439D01*
X-211323Y136144D01*
X-211618Y135918D01*
X-227188Y120348D01*
X-348500Y120300D01*
X-349249Y121212D01*
X-348875Y121668D01*
Y227774D01*
X-158920D01*
X-96954Y227700D01*
D02*
G37*
G36*
X-316948Y181788D02*
X-316808Y180725D01*
X-316354Y179631D01*
X-315633Y178691D01*
X-314693Y177969D01*
X-313598Y177516D01*
X-312424Y177361D01*
X-311682Y177459D01*
X-311328Y177105D01*
X-311355Y176900D01*
X-311229Y175939D01*
X-310858Y175044D01*
X-310268Y174275D01*
X-309499Y173685D01*
X-308604Y173314D01*
X-307643Y173187D01*
X-302524D01*
X-301564Y173314D01*
X-300848Y173610D01*
X-300013Y172969D01*
X-298918Y172516D01*
X-297743Y172361D01*
X-297564Y172385D01*
X-297343Y171936D01*
X-297855Y171424D01*
X-298918Y171284D01*
X-300013Y170831D01*
X-300848Y170190D01*
X-301564Y170486D01*
X-302524Y170613D01*
X-307643D01*
X-308604Y170486D01*
X-309499Y170115D01*
X-310268Y169525D01*
X-310858Y168756D01*
X-311229Y167861D01*
X-311355Y166900D01*
X-311328Y166695D01*
X-311682Y166341D01*
X-312424Y166439D01*
X-313598Y166284D01*
X-314693Y165831D01*
X-315489Y165220D01*
X-320646D01*
Y166706D01*
X-322522D01*
Y179605D01*
X-322621Y180354D01*
X-322634Y180453D01*
X-322730Y180685D01*
X-322961Y181244D01*
X-323256Y181628D01*
X-323270Y181646D01*
X-323049Y182095D01*
X-317777D01*
X-317777Y182095D01*
Y182095D01*
X-317407Y182248D01*
X-316948Y181788D01*
D02*
G37*
G36*
X-150157Y202969D02*
Y195686D01*
X-139842D01*
Y197270D01*
X-130654D01*
Y195784D01*
X-127678D01*
Y191398D01*
X-128331Y190547D01*
X-128784Y189453D01*
X-128939Y188278D01*
X-128784Y187103D01*
X-128331Y186009D01*
X-127609Y185069D01*
X-126669Y184347D01*
X-125575Y183894D01*
X-124400Y183739D01*
X-123225Y183894D01*
X-122131Y184347D01*
X-121191Y185069D01*
X-120469Y186009D01*
X-120016Y187103D01*
X-119861Y188278D01*
X-120016Y189453D01*
X-120469Y190547D01*
X-121122Y191398D01*
Y195784D01*
X-119946D01*
Y197270D01*
X-118652D01*
X-118228Y197326D01*
X-117804Y197382D01*
X-117408Y197545D01*
X-117013Y197709D01*
X-116334Y198230D01*
X-115568Y198996D01*
X-115192Y198667D01*
X-115299Y198526D01*
X-115463Y198131D01*
X-115627Y197736D01*
X-115683Y197312D01*
X-115739Y196887D01*
Y176810D01*
X-116391Y175959D01*
X-116845Y174864D01*
X-116999Y173690D01*
X-116982Y173558D01*
X-117379Y173253D01*
X-117652Y173366D01*
X-118076Y173422D01*
X-118500Y173478D01*
X-132500D01*
X-132924Y173422D01*
X-133348Y173366D01*
X-133744Y173203D01*
X-134139Y173039D01*
X-134818Y172518D01*
X-146612Y160724D01*
X-147675Y160584D01*
X-148769Y160131D01*
X-149709Y159409D01*
X-150431Y158469D01*
X-150884Y157375D01*
X-151039Y156200D01*
X-150884Y155025D01*
X-150431Y153931D01*
X-149778Y153080D01*
Y120379D01*
X-187495Y120364D01*
X-187686Y120826D01*
X-183625Y124887D01*
X-181989D01*
X-181028Y125014D01*
X-180132Y125385D01*
X-179364Y125975D01*
X-178774Y126744D01*
X-178403Y127639D01*
X-178276Y128600D01*
X-178403Y129561D01*
X-178774Y130456D01*
X-179267Y131100D01*
X-178774Y131744D01*
X-178403Y132639D01*
X-178276Y133600D01*
X-178303Y133805D01*
X-177950Y134159D01*
X-177208Y134061D01*
X-176033Y134216D01*
X-174938Y134669D01*
X-173998Y135391D01*
X-173277Y136331D01*
X-172824Y137425D01*
X-172669Y138600D01*
X-172824Y139775D01*
X-173149Y140559D01*
X-173056Y140597D01*
X-172661Y140761D01*
X-171982Y141282D01*
X-171588Y141676D01*
X-170525Y141816D01*
X-169431Y142269D01*
X-168491Y142991D01*
X-167769Y143931D01*
X-167316Y145025D01*
X-167161Y146200D01*
X-167316Y147375D01*
X-167769Y148469D01*
X-168491Y149409D01*
X-169431Y150131D01*
X-170525Y150584D01*
X-171700Y150739D01*
X-172875Y150584D01*
X-173969Y150131D01*
X-174909Y149409D01*
X-175631Y148469D01*
X-176084Y147375D01*
X-176150Y146878D01*
X-180284D01*
X-181028Y147186D01*
X-181989Y147313D01*
X-187107D01*
X-188068Y147186D01*
X-188963Y146815D01*
X-189733Y146225D01*
X-190322Y145456D01*
X-190693Y144561D01*
X-190820Y143600D01*
X-190693Y142639D01*
X-190322Y141744D01*
X-189829Y141100D01*
X-190322Y140456D01*
X-190693Y139561D01*
X-190820Y138600D01*
X-190693Y137639D01*
X-190322Y136744D01*
X-189829Y136100D01*
X-189859Y136060D01*
X-190045Y135918D01*
X-205606Y120357D01*
X-217259Y120352D01*
X-217450Y120814D01*
X-207942Y130322D01*
X-207316D01*
X-206572Y130014D01*
X-205611Y129887D01*
X-200493D01*
X-199532Y130014D01*
X-198636Y130385D01*
X-197868Y130975D01*
X-197277Y131744D01*
X-196907Y132639D01*
X-196780Y133600D01*
X-196907Y134561D01*
X-197277Y135456D01*
X-197771Y136100D01*
X-197277Y136744D01*
X-196907Y137639D01*
X-196780Y138600D01*
X-196907Y139561D01*
X-197277Y140456D01*
X-197771Y141100D01*
X-197277Y141744D01*
X-196907Y142639D01*
X-196780Y143600D01*
X-196907Y144561D01*
X-197067Y144949D01*
X-184929Y157087D01*
X-181858D01*
X-180896Y157214D01*
X-180181Y157510D01*
X-179346Y156869D01*
X-178251Y156416D01*
X-177076Y156261D01*
X-175902Y156416D01*
X-174807Y156869D01*
X-173867Y157591D01*
X-173146Y158531D01*
X-172692Y159625D01*
X-172538Y160800D01*
X-172692Y161975D01*
X-173146Y163069D01*
X-173867Y164009D01*
X-174807Y164731D01*
X-175902Y165184D01*
X-177076Y165339D01*
X-177818Y165241D01*
X-178172Y165595D01*
X-178145Y165800D01*
X-178271Y166761D01*
X-178642Y167656D01*
X-179136Y168300D01*
X-178642Y168944D01*
X-178271Y169839D01*
X-178145Y170800D01*
X-178271Y171761D01*
X-178414Y172106D01*
X-178136Y172522D01*
X-176662D01*
X-176463Y172369D01*
X-175368Y171916D01*
X-174193Y171761D01*
X-173019Y171916D01*
X-171924Y172369D01*
X-170984Y173091D01*
X-170263Y174031D01*
X-169809Y175125D01*
X-169654Y176300D01*
X-169809Y177475D01*
X-170263Y178569D01*
X-170984Y179509D01*
X-171924Y180231D01*
X-173019Y180684D01*
X-174193Y180839D01*
X-175368Y180684D01*
X-176463Y180231D01*
X-177403Y179509D01*
X-177734Y179078D01*
X-180152D01*
X-180896Y179386D01*
X-181858Y179513D01*
X-186976D01*
X-187937Y179386D01*
X-188832Y179015D01*
X-189407Y178574D01*
X-189855Y178796D01*
Y188865D01*
X-189791Y188922D01*
X-188610D01*
X-187803Y189028D01*
X-187051Y189340D01*
X-186405Y189835D01*
X-185910Y190481D01*
X-185727Y190922D01*
X-179020D01*
X-178169Y190269D01*
X-177075Y189816D01*
X-175900Y189661D01*
X-174725Y189816D01*
X-173631Y190269D01*
X-172691Y190991D01*
X-171969Y191931D01*
X-171516Y193025D01*
X-171376Y194088D01*
X-160911Y204553D01*
X-150157D01*
Y202969D01*
D02*
G37*
%LPC*%
G36*
X-169930Y40500D02*
X-173351D01*
X-173281Y39968D01*
X-172882Y39007D01*
X-172249Y38181D01*
X-171423Y37547D01*
X-170462Y37149D01*
X-169930Y37079D01*
Y40500D01*
D02*
G37*
G36*
X-165509D02*
X-168930D01*
Y37079D01*
X-168398Y37149D01*
X-167436Y37547D01*
X-166611Y38181D01*
X-165977Y39007D01*
X-165579Y39968D01*
X-165509Y40500D01*
D02*
G37*
G36*
X-119200Y33900D02*
X-120912D01*
Y31939D01*
X-120789Y31319D01*
X-120437Y30793D01*
X-119911Y30441D01*
X-119291Y30318D01*
X-119200D01*
Y33900D01*
D02*
G37*
G36*
X-122200Y49449D02*
X-125700D01*
X-126675Y49255D01*
X-127502Y48702D01*
X-128055Y47875D01*
X-128249Y46900D01*
Y39400D01*
X-128055Y38425D01*
X-127502Y37598D01*
X-127847Y37081D01*
X-127914Y37073D01*
X-128765Y36720D01*
X-129496Y36159D01*
X-130057Y35428D01*
X-130410Y34576D01*
X-130464Y34163D01*
X-123536D01*
X-123590Y34576D01*
X-123943Y35428D01*
X-124504Y36159D01*
X-124789Y36378D01*
X-124628Y36851D01*
X-122200D01*
X-121299Y37030D01*
X-120912Y36713D01*
Y34900D01*
X-119200D01*
Y38482D01*
X-119291D01*
X-119415Y38458D01*
X-119768Y38811D01*
X-119651Y39400D01*
Y46900D01*
X-119845Y47875D01*
X-120398Y48702D01*
X-121224Y49255D01*
X-122200Y49449D01*
D02*
G37*
G36*
X192500Y63478D02*
X187776D01*
X186800Y63284D01*
X185973Y62731D01*
X185421Y61905D01*
X185227Y60929D01*
Y53843D01*
X185421Y52867D01*
X185973Y52040D01*
X186800Y51488D01*
X187776Y51293D01*
X192500D01*
X193475Y51488D01*
X194302Y52040D01*
X194855Y52867D01*
X195049Y53843D01*
Y60929D01*
X194855Y61905D01*
X194302Y62731D01*
X193475Y63284D01*
X192500Y63478D01*
D02*
G37*
G36*
X2331Y61363D02*
X-235D01*
Y58698D01*
X2331D01*
Y61363D01*
D02*
G37*
G36*
X5898D02*
X3331D01*
Y58698D01*
X5898D01*
Y61363D01*
D02*
G37*
G36*
X-169930Y44921D02*
X-170462Y44851D01*
X-171423Y44453D01*
X-172249Y43819D01*
X-172882Y42993D01*
X-173281Y42032D01*
X-173351Y41500D01*
X-169930D01*
Y44921D01*
D02*
G37*
G36*
X-168930D02*
Y41500D01*
X-165509D01*
X-165579Y42032D01*
X-165977Y42993D01*
X-166611Y43819D01*
X-167436Y44453D01*
X-168398Y44851D01*
X-168930Y44921D01*
D02*
G37*
G36*
X178225Y63478D02*
X173500D01*
X172525Y63284D01*
X171698Y62731D01*
X171145Y61905D01*
X170951Y60929D01*
Y53843D01*
X171145Y52867D01*
X171698Y52040D01*
X172525Y51488D01*
X173500Y51293D01*
X178225D01*
X179200Y51488D01*
X180027Y52040D01*
X180579Y52867D01*
X180773Y53843D01*
Y60929D01*
X180579Y61905D01*
X180027Y62731D01*
X179200Y63284D01*
X178225Y63478D01*
D02*
G37*
G36*
X-126500Y19492D02*
Y16528D01*
X-123536D01*
X-123590Y16942D01*
X-123943Y17793D01*
X-124504Y18524D01*
X-125235Y19085D01*
X-126086Y19438D01*
X-126500Y19492D01*
D02*
G37*
G36*
X-174600Y27475D02*
X-176084D01*
Y25400D01*
X-174600D01*
Y27475D01*
D02*
G37*
G36*
X-127500Y19492D02*
X-127914Y19438D01*
X-128765Y19085D01*
X-129496Y18524D01*
X-130057Y17793D01*
X-130410Y16942D01*
X-130464Y16528D01*
X-127500D01*
Y19492D01*
D02*
G37*
G36*
Y15528D02*
X-130464D01*
X-130410Y15114D01*
X-130057Y14263D01*
X-129496Y13532D01*
X-128765Y12971D01*
X-127914Y12618D01*
X-127500Y12564D01*
Y15528D01*
D02*
G37*
G36*
X-123536D02*
X-126500D01*
Y12564D01*
X-126086Y12618D01*
X-125235Y12971D01*
X-124504Y13532D01*
X-123943Y14263D01*
X-123590Y15114D01*
X-123536Y15528D01*
D02*
G37*
G36*
X-172115Y27475D02*
X-173600D01*
Y25400D01*
X-172115D01*
Y27475D01*
D02*
G37*
G36*
X-127500Y33163D02*
X-130464D01*
X-130410Y32749D01*
X-130057Y31898D01*
X-129496Y31166D01*
X-128765Y30606D01*
X-127914Y30253D01*
X-127500Y30198D01*
Y33163D01*
D02*
G37*
G36*
X-123536D02*
X-126500D01*
Y30198D01*
X-126086Y30253D01*
X-125235Y30606D01*
X-124504Y31166D01*
X-123943Y31898D01*
X-123590Y32749D01*
X-123536Y33163D01*
D02*
G37*
G36*
X-267200Y34249D02*
X-274700D01*
X-275676Y34055D01*
X-276502Y33502D01*
X-277055Y32675D01*
X-277249Y31700D01*
Y28200D01*
X-277055Y27224D01*
X-276502Y26398D01*
X-275676Y25845D01*
X-274700Y25651D01*
X-267200D01*
X-266225Y25845D01*
X-265398Y26398D01*
X-264845Y27224D01*
X-264651Y28200D01*
Y31700D01*
X-264845Y32675D01*
X-265398Y33502D01*
X-266225Y34055D01*
X-267200Y34249D01*
D02*
G37*
G36*
X-186000Y28504D02*
X-189157D01*
Y25642D01*
X-186000D01*
Y28504D01*
D02*
G37*
G36*
X-181842D02*
X-185000D01*
Y25642D01*
X-181842D01*
Y28504D01*
D02*
G37*
G36*
X-8669Y61789D02*
X-12023D01*
Y59025D01*
X-8669D01*
Y61789D01*
D02*
G37*
G36*
X-162631Y101976D02*
X-166052D01*
X-165982Y101444D01*
X-165584Y100482D01*
X-164951Y99656D01*
X-164125Y99023D01*
X-163163Y98625D01*
X-162631Y98555D01*
Y101976D01*
D02*
G37*
G36*
X-158211D02*
X-161632D01*
Y98555D01*
X-161100Y98625D01*
X-160138Y99023D01*
X-159312Y99656D01*
X-158679Y100482D01*
X-158281Y101444D01*
X-158211Y101976D01*
D02*
G37*
G36*
X-347736Y100400D02*
X-350700D01*
Y97436D01*
X-350286Y97490D01*
X-349435Y97843D01*
X-348704Y98404D01*
X-348143Y99135D01*
X-347790Y99986D01*
X-347736Y100400D01*
D02*
G37*
G36*
X-399000Y110355D02*
X-400493Y110207D01*
X-401929Y109772D01*
X-403253Y109064D01*
X-404413Y108113D01*
X-405365Y106953D01*
X-406072Y105629D01*
X-406508Y104193D01*
X-406655Y102700D01*
X-406508Y101206D01*
X-406072Y99770D01*
X-405365Y98447D01*
X-404413Y97287D01*
X-403253Y96335D01*
X-401929Y95627D01*
X-400493Y95192D01*
X-399000Y95045D01*
X-397507Y95192D01*
X-396071Y95627D01*
X-394747Y96335D01*
X-393587Y97287D01*
X-392635Y98447D01*
X-391928Y99770D01*
X-391492Y101206D01*
X-391345Y102700D01*
X-391492Y104193D01*
X-391928Y105629D01*
X-392635Y106953D01*
X-393587Y108113D01*
X-394747Y109064D01*
X-396071Y109772D01*
X-397507Y110207D01*
X-399000Y110355D01*
D02*
G37*
G36*
X-351700Y100400D02*
X-354664D01*
X-354610Y99986D01*
X-354257Y99135D01*
X-353696Y98404D01*
X-352965Y97843D01*
X-352114Y97490D01*
X-351700Y97436D01*
Y100400D01*
D02*
G37*
G36*
Y104364D02*
X-352114Y104310D01*
X-352965Y103957D01*
X-353696Y103396D01*
X-354257Y102665D01*
X-354610Y101814D01*
X-354664Y101400D01*
X-351700D01*
Y104364D01*
D02*
G37*
G36*
X-399000Y210355D02*
X-400493Y210208D01*
X-401929Y209772D01*
X-403253Y209065D01*
X-404413Y208113D01*
X-405365Y206953D01*
X-406072Y205629D01*
X-406508Y204193D01*
X-406655Y202700D01*
X-406508Y201206D01*
X-406072Y199770D01*
X-405365Y198447D01*
X-404413Y197287D01*
X-403253Y196335D01*
X-401929Y195627D01*
X-400493Y195192D01*
X-399000Y195045D01*
X-397507Y195192D01*
X-396071Y195627D01*
X-394747Y196335D01*
X-393587Y197287D01*
X-392635Y198447D01*
X-391928Y199770D01*
X-391492Y201206D01*
X-391345Y202700D01*
X-391492Y204193D01*
X-391928Y205629D01*
X-392635Y206953D01*
X-393587Y208113D01*
X-394747Y209065D01*
X-396071Y209772D01*
X-397507Y210208D01*
X-399000Y210355D01*
D02*
G37*
G36*
X-272500Y225382D02*
X-274124Y225254D01*
X-275708Y224874D01*
X-277213Y224250D01*
X-278602Y223399D01*
X-279841Y222341D01*
X-280899Y221102D01*
X-281750Y219713D01*
X-282374Y218208D01*
X-282754Y216624D01*
X-282882Y215000D01*
X-282754Y213376D01*
X-282374Y211792D01*
X-281750Y210287D01*
X-280899Y208898D01*
X-279841Y207659D01*
X-278602Y206601D01*
X-277213Y205750D01*
X-275708Y205126D01*
X-274124Y204746D01*
X-272500Y204618D01*
X-270876Y204746D01*
X-269292Y205126D01*
X-267787Y205750D01*
X-266398Y206601D01*
X-265159Y207659D01*
X-264101Y208898D01*
X-263250Y210287D01*
X-262626Y211792D01*
X-262246Y213376D01*
X-262118Y215000D01*
X-262246Y216624D01*
X-262626Y218208D01*
X-263250Y219713D01*
X-264101Y221102D01*
X-265159Y222341D01*
X-266398Y223399D01*
X-267787Y224250D01*
X-269292Y224874D01*
X-270876Y225254D01*
X-272500Y225382D01*
D02*
G37*
G36*
X-161632Y106397D02*
Y102976D01*
X-158211D01*
X-158281Y103507D01*
X-158679Y104469D01*
X-159312Y105295D01*
X-160138Y105928D01*
X-161100Y106327D01*
X-161632Y106397D01*
D02*
G37*
G36*
X-350700Y104364D02*
Y101400D01*
X-347736D01*
X-347790Y101814D01*
X-348143Y102665D01*
X-348704Y103396D01*
X-349435Y103957D01*
X-350286Y104310D01*
X-350700Y104364D01*
D02*
G37*
G36*
X-162631Y106397D02*
X-163163Y106327D01*
X-164125Y105928D01*
X-164951Y105295D01*
X-165584Y104469D01*
X-165982Y103507D01*
X-166052Y102976D01*
X-162631D01*
Y106397D01*
D02*
G37*
G36*
X237150Y95840D02*
X235714Y95651D01*
X234377Y95097D01*
X233228Y94215D01*
X232346Y93066D01*
X231547Y93397D01*
X231073Y94015D01*
X229924Y94897D01*
X228586Y95451D01*
X227150Y95640D01*
X225714Y95451D01*
X224377Y94897D01*
X223228Y94015D01*
X222346Y92866D01*
X221792Y91528D01*
X221603Y90092D01*
X221792Y88657D01*
X222346Y87319D01*
X223228Y86170D01*
X224377Y85288D01*
X225714Y84734D01*
X227150Y84545D01*
X228586Y84734D01*
X229924Y85288D01*
X231073Y86170D01*
X231954Y87319D01*
X232753Y86988D01*
X233228Y86370D01*
X233620Y86069D01*
Y15168D01*
X233158Y14977D01*
X218057Y30078D01*
Y34563D01*
X207743D01*
Y24838D01*
X213312D01*
X226750Y11400D01*
X226589Y10927D01*
X226014Y10851D01*
X224676Y10297D01*
X223528Y9415D01*
X222646Y8266D01*
X222092Y6928D01*
X221903Y5492D01*
X222092Y4057D01*
X222646Y2719D01*
X223528Y1570D01*
X224676Y688D01*
X226014Y134D01*
X227450Y-55D01*
X228886Y134D01*
X230224Y688D01*
X231373Y1570D01*
X232254Y2719D01*
X233053Y2388D01*
X233528Y1770D01*
X234677Y888D01*
X236014Y334D01*
X237450Y145D01*
X238886Y334D01*
X240224Y888D01*
X241373Y1770D01*
X242254Y2919D01*
X242809Y4257D01*
X242998Y5692D01*
X242809Y7128D01*
X242254Y8466D01*
X241373Y9615D01*
X240680Y10146D01*
Y86069D01*
X241073Y86370D01*
X241954Y87519D01*
X242509Y88857D01*
X242698Y90292D01*
X242509Y91728D01*
X241954Y93066D01*
X241073Y94215D01*
X239924Y95097D01*
X238586Y95651D01*
X237150Y95840D01*
D02*
G37*
G36*
X-172632Y71976D02*
X-176052D01*
X-175982Y71444D01*
X-175584Y70482D01*
X-174951Y69656D01*
X-174125Y69023D01*
X-173163Y68625D01*
X-172632Y68555D01*
Y71976D01*
D02*
G37*
G36*
X-168210D02*
X-171632D01*
Y68555D01*
X-171100Y68625D01*
X-170138Y69023D01*
X-169312Y69656D01*
X-168679Y70482D01*
X-168280Y71444D01*
X-168210Y71976D01*
D02*
G37*
G36*
X-178210D02*
X-181632D01*
Y68555D01*
X-181100Y68625D01*
X-180138Y69023D01*
X-179312Y69656D01*
X-178679Y70482D01*
X-178280Y71444D01*
X-178210Y71976D01*
D02*
G37*
G36*
X-4314Y61789D02*
X-7668D01*
Y59025D01*
X-4314D01*
Y61789D01*
D02*
G37*
G36*
X-386343Y76221D02*
X-396657D01*
Y66496D01*
X-394778D01*
Y63532D01*
X-395973Y62893D01*
X-397193Y61892D01*
X-398194Y60672D01*
X-398750Y59632D01*
X-399250D01*
X-399806Y60672D01*
X-400807Y61892D01*
X-402027Y62893D01*
X-403419Y63637D01*
X-404929Y64095D01*
X-406500Y64250D01*
X-408071Y64095D01*
X-409581Y63637D01*
X-410973Y62893D01*
X-412193Y61892D01*
X-413194Y60672D01*
X-413938Y59280D01*
X-414396Y57770D01*
X-414551Y56200D01*
X-414396Y54629D01*
X-413938Y53119D01*
X-413194Y51727D01*
X-412193Y50507D01*
X-411378Y49839D01*
Y44300D01*
X-411322Y43875D01*
X-411266Y43451D01*
X-411103Y43056D01*
X-410939Y42661D01*
X-410418Y41982D01*
X-408135Y39699D01*
X-408448Y39113D01*
X-409030Y37195D01*
X-409226Y35200D01*
X-409030Y33204D01*
X-408448Y31286D01*
X-407503Y29518D01*
X-406231Y27968D01*
X-404681Y26697D01*
X-402914Y25752D01*
X-400995Y25170D01*
X-399000Y24973D01*
X-397005Y25170D01*
X-395087Y25752D01*
X-393319Y26697D01*
X-391769Y27968D01*
X-390497Y29518D01*
X-389552Y31286D01*
X-388970Y33204D01*
X-388774Y35200D01*
X-388970Y37195D01*
X-389552Y39113D01*
X-390497Y40881D01*
X-391769Y42431D01*
X-393319Y43703D01*
X-395087Y44648D01*
X-397005Y45230D01*
X-399000Y45426D01*
X-400995Y45230D01*
X-402914Y44648D01*
X-403499Y44335D01*
X-404822Y45657D01*
Y48336D01*
X-403419Y48762D01*
X-402027Y49506D01*
X-400807Y50507D01*
X-399806Y51727D01*
X-399250Y52767D01*
X-398750D01*
X-398194Y51727D01*
X-397193Y50507D01*
X-395973Y49506D01*
X-394581Y48762D01*
X-393071Y48304D01*
X-391500Y48149D01*
X-389929Y48304D01*
X-388419Y48762D01*
X-387027Y49506D01*
X-385807Y50507D01*
X-384806Y51727D01*
X-384062Y53119D01*
X-383604Y54629D01*
X-383449Y56200D01*
X-383604Y57770D01*
X-384062Y59280D01*
X-384806Y60672D01*
X-385807Y61892D01*
X-387027Y62893D01*
X-388222Y63532D01*
Y66496D01*
X-386343D01*
Y76221D01*
D02*
G37*
G36*
X-182632Y76397D02*
X-183163Y76327D01*
X-184125Y75928D01*
X-184951Y75295D01*
X-185584Y74469D01*
X-185983Y73507D01*
X-186053Y72976D01*
X-182632D01*
Y76397D01*
D02*
G37*
G36*
X-277972Y84072D02*
X-283228D01*
X-285856Y81445D01*
Y76189D01*
X-283228Y73561D01*
X-277972D01*
X-275344Y76189D01*
Y81445D01*
X-277972Y84072D01*
D02*
G37*
G36*
X-280600Y103330D02*
X-281972Y103150D01*
X-283251Y102620D01*
X-284349Y101778D01*
X-285191Y100680D01*
X-285721Y99401D01*
X-285901Y98029D01*
X-285721Y96657D01*
X-285191Y95379D01*
X-284349Y94281D01*
X-283251Y93438D01*
X-281972Y92909D01*
X-280600Y92728D01*
X-279228Y92909D01*
X-277949Y93438D01*
X-276852Y94281D01*
X-276009Y95379D01*
X-275479Y96657D01*
X-275299Y98029D01*
X-275479Y99401D01*
X-276009Y100680D01*
X-276852Y101778D01*
X-277949Y102620D01*
X-279228Y103150D01*
X-280600Y103330D01*
D02*
G37*
G36*
X-171632Y76397D02*
Y72976D01*
X-168210D01*
X-168280Y73507D01*
X-168679Y74469D01*
X-169312Y75295D01*
X-170138Y75928D01*
X-171100Y76327D01*
X-171632Y76397D01*
D02*
G37*
G36*
X-181632D02*
Y72976D01*
X-178210D01*
X-178280Y73507D01*
X-178679Y74469D01*
X-179312Y75295D01*
X-180138Y75928D01*
X-181100Y76327D01*
X-181632Y76397D01*
D02*
G37*
G36*
X-172632D02*
X-173163Y76327D01*
X-174125Y75928D01*
X-174951Y75295D01*
X-175584Y74469D01*
X-175982Y73507D01*
X-176052Y72976D01*
X-172632D01*
Y76397D01*
D02*
G37*
%LPD*%
D10*
X-99117Y34400D02*
D03*
X-103033D02*
D03*
X-106950D02*
D03*
X-110867D02*
D03*
X-114783D02*
D03*
X-118700D02*
D03*
X-95200D02*
D03*
X181000Y72542D02*
D03*
X185200D02*
D03*
X-18389Y109917D02*
D03*
X-22323D02*
D03*
X-26256D02*
D03*
X-30189D02*
D03*
X-201000Y194500D02*
D03*
X-197067D02*
D03*
X-193133D02*
D03*
X-189200D02*
D03*
D11*
X-202921Y175800D02*
D03*
Y170800D02*
D03*
Y165800D02*
D03*
Y160800D02*
D03*
X-184416Y175800D02*
D03*
Y170800D02*
D03*
Y165800D02*
D03*
Y160800D02*
D03*
X-286579Y156900D02*
D03*
Y161900D02*
D03*
Y166900D02*
D03*
Y171900D02*
D03*
Y176900D02*
D03*
Y181900D02*
D03*
Y186900D02*
D03*
X-305083Y156900D02*
D03*
Y161900D02*
D03*
Y166900D02*
D03*
Y171900D02*
D03*
Y176900D02*
D03*
Y181900D02*
D03*
Y186900D02*
D03*
X-105121Y178690D02*
D03*
Y173690D02*
D03*
Y168690D02*
D03*
Y163690D02*
D03*
Y158690D02*
D03*
Y153690D02*
D03*
Y148690D02*
D03*
X-86616Y178690D02*
D03*
Y173690D02*
D03*
Y168690D02*
D03*
Y163690D02*
D03*
Y158690D02*
D03*
Y153690D02*
D03*
Y148690D02*
D03*
X-203052Y143600D02*
D03*
Y138600D02*
D03*
Y133600D02*
D03*
Y128600D02*
D03*
X-184548Y143600D02*
D03*
Y138600D02*
D03*
Y133600D02*
D03*
Y128600D02*
D03*
D12*
X-26366Y78886D02*
D03*
X-28925D02*
D03*
X-31484D02*
D03*
X-34043D02*
D03*
X-36602D02*
D03*
X-39161D02*
D03*
X-41721D02*
D03*
X-44280D02*
D03*
X-46839D02*
D03*
X-49398D02*
D03*
X-51957D02*
D03*
X-54516D02*
D03*
X-57075D02*
D03*
X-59634D02*
D03*
X-26366Y52114D02*
D03*
X-28925D02*
D03*
X-31484D02*
D03*
X-34043D02*
D03*
X-36602D02*
D03*
X-39161D02*
D03*
X-41721D02*
D03*
X-44280D02*
D03*
X-46839D02*
D03*
X-49398D02*
D03*
X-51957D02*
D03*
X-54516D02*
D03*
X-57075D02*
D03*
X-59634D02*
D03*
D13*
X-260700Y47100D02*
D03*
Y43200D02*
D03*
Y39300D02*
D03*
Y35400D02*
D03*
Y51000D02*
D03*
D14*
X38049Y207659D02*
D03*
X44151D02*
D03*
D15*
X2832Y69737D02*
D03*
Y61863D02*
D03*
D16*
X-78900Y197790D02*
D03*
X-84900D02*
D03*
X-78900Y211690D02*
D03*
X-84900D02*
D03*
D17*
X-174100Y18900D02*
D03*
Y24900D02*
D03*
D18*
X147858Y65542D02*
D03*
X155142D02*
D03*
X-301973Y202368D02*
D03*
X-294690D02*
D03*
X-301973Y212171D02*
D03*
X-294690D02*
D03*
X-93842Y130700D02*
D03*
X-86558D02*
D03*
X-42410Y169942D02*
D03*
X-35127D02*
D03*
D19*
X212900Y36984D02*
D03*
Y29701D02*
D03*
X-332800Y186605D02*
D03*
Y193888D02*
D03*
X-145000Y200548D02*
D03*
Y207832D02*
D03*
X-19700Y169858D02*
D03*
Y177142D02*
D03*
X-42398Y196358D02*
D03*
Y203642D02*
D03*
X-64900Y180942D02*
D03*
Y173658D02*
D03*
Y196358D02*
D03*
Y203642D02*
D03*
X-185500Y25142D02*
D03*
Y17858D02*
D03*
X-413500Y198058D02*
D03*
Y205342D02*
D03*
X-413300Y105742D02*
D03*
Y98458D02*
D03*
X-391500Y71358D02*
D03*
Y78642D02*
D03*
D20*
X-323131Y194142D02*
D03*
Y186858D02*
D03*
X-326000Y154658D02*
D03*
Y161942D02*
D03*
X-108800Y200548D02*
D03*
Y207832D02*
D03*
X-125300Y200548D02*
D03*
Y207832D02*
D03*
X-123800Y158842D02*
D03*
Y151558D02*
D03*
X-19700Y196158D02*
D03*
Y203442D02*
D03*
X-8168Y69573D02*
D03*
Y62289D02*
D03*
D21*
X-123963Y141800D02*
D03*
X-116680D02*
D03*
X-42410Y180800D02*
D03*
X-35127D02*
D03*
D22*
X152320Y223500D02*
Y231740D01*
X150970Y222150D02*
X152320Y223500D01*
X150970Y212053D02*
Y222150D01*
Y202233D02*
X153766D01*
X159970Y208437D01*
X167470D01*
X150970Y192413D02*
X156224D01*
X160033Y188603D01*
X167470D01*
X152470Y170500D02*
Y181093D01*
X150970Y172000D02*
X152470Y170500D01*
Y163000D02*
Y170500D01*
X196520Y223500D02*
Y231740D01*
X195170Y222150D02*
X196520Y223500D01*
X195170Y212053D02*
Y222150D01*
Y202233D02*
X197966D01*
X204170Y208437D01*
X211670D01*
X195170Y192413D02*
X200424D01*
X204233Y188603D01*
X211670D01*
X196670Y170500D02*
Y181093D01*
X195170Y172000D02*
X196670Y170500D01*
Y163000D02*
Y170500D01*
X240250Y223710D02*
Y231950D01*
X238900Y222360D02*
X240250Y223710D01*
X238900Y212263D02*
Y222360D01*
Y202443D02*
X241696D01*
X247900Y208647D01*
X255400D01*
X238900Y192623D02*
X244154D01*
X247963Y188814D01*
X255400D01*
X240400Y170710D02*
Y181303D01*
X238900Y172210D02*
X240400Y170710D01*
Y163210D02*
Y170710D01*
D23*
X-413500Y142700D02*
Y161200D01*
X-408100Y54600D02*
X-406500Y56200D01*
X-408100Y44300D02*
Y54600D01*
Y44300D02*
X-399000Y35200D01*
X-391500Y56200D02*
Y71358D01*
X-413500Y124200D02*
X-413300Y124000D01*
Y105742D02*
Y124000D01*
X-413500Y179700D02*
X-398800D01*
X-413500D02*
Y198058D01*
X-58662Y153690D02*
X-42410Y169942D01*
X-86616Y153690D02*
X-58662D01*
X-86616Y148690D02*
Y153690D01*
Y136358D02*
Y148690D01*
X-86558Y130700D02*
Y136300D01*
X-286579Y176900D02*
X-279239D01*
X-112461Y153690D02*
X-105121D01*
X-86616Y168690D02*
X-79276D01*
X-19700Y177142D02*
Y196158D01*
Y177142D02*
X-19700Y177142D01*
X-8362D01*
X-6300Y175080D01*
X-305083Y176900D02*
X-297743D01*
X-312424Y161900D02*
X-305083D01*
X-332800Y186605D02*
X-325800Y179605D01*
Y162142D02*
Y179605D01*
X-326000Y161942D02*
X-325800Y162142D01*
X-326000Y161942D02*
X-312465D01*
X-312424Y161900D01*
X-131150Y24200D02*
X-2543D01*
X-142200Y35250D02*
X-131150Y24200D01*
X-142200Y35250D02*
Y72391D01*
X14057Y7600D02*
X80000D01*
X-2543Y24200D02*
X14057Y7600D01*
X-179430Y51000D02*
Y59621D01*
X-192200Y72391D02*
X-179430Y59621D01*
X-195580Y44850D02*
X-189430Y51000D01*
X-195580Y25142D02*
Y44850D01*
Y25142D02*
X-189338Y18900D01*
X-174100D02*
X-157900D01*
X-189338D02*
X-174100D01*
X44151Y193763D02*
Y207659D01*
X-184700Y46270D02*
Y55900D01*
X-196100Y67300D02*
X-184700Y55900D01*
X-207109Y67300D02*
X-196100D01*
X-184700Y46270D02*
X-179430Y41000D01*
X-212200Y72391D02*
X-207109Y67300D01*
X-260700Y47100D02*
X-249300D01*
X-232200Y64200D01*
Y72391D01*
Y97500D02*
X-227100Y92400D01*
Y64000D02*
Y92400D01*
X-247900Y43200D02*
X-227100Y64000D01*
X-232200Y97500D02*
Y102391D01*
X-260700Y43200D02*
X-247900D01*
X-127000Y33663D02*
X-119437D01*
X-118700Y34400D01*
X-185500Y25142D02*
X-174341D01*
X-7742Y61863D02*
X2832D01*
X-8168Y62289D02*
X-7742Y61863D01*
X-39161Y78886D02*
X-36602D01*
X-51957Y41600D02*
Y52114D01*
X-39161Y68061D02*
Y78886D01*
Y68061D02*
X-39100Y68000D01*
X-169430Y29570D02*
Y41000D01*
X-174100Y24900D02*
X-169430Y29570D01*
X-247600Y35300D02*
X-247500Y35400D01*
X-119858Y76958D02*
X-97358D01*
X-127200Y84300D02*
X-119858Y76958D01*
X-127200Y84300D02*
Y106800D01*
X-99117Y34400D02*
Y62681D01*
X-94158Y67640D01*
Y73758D01*
X-129600Y109200D02*
X-127200Y106800D01*
X-137100Y109200D02*
X-129600D01*
X-142200Y104100D02*
X-137100Y109200D01*
X-142200Y102391D02*
Y104100D01*
X-97358Y76958D02*
X-94158Y73758D01*
X-132200Y83750D02*
Y102391D01*
X-127211Y68111D02*
Y78761D01*
X-132200Y83750D02*
X-127211Y78761D01*
X-114783Y34400D02*
Y55683D01*
X-127211Y68111D02*
X-114783Y55683D01*
X-86616Y158690D02*
X-79276D01*
X-90110D02*
X-86616D01*
X-116680Y141800D02*
X-102183D01*
X-96300Y152500D02*
X-90110Y158690D01*
X-96300Y147683D02*
Y152500D01*
X-102183Y141800D02*
X-96300Y147683D01*
X-72658Y188600D02*
X-64900Y196358D01*
X-74400Y188600D02*
X-72658D01*
X-305083Y156900D02*
X-297743D01*
X-296600Y158043D01*
Y159976D01*
X-289676Y166900D01*
X-287743D01*
X-326000Y154658D02*
X-307325D01*
X-305083Y156900D01*
X-323131Y194142D02*
X-312325D01*
X-305083Y186900D01*
X-332546Y194142D02*
X-323131D01*
X-332800Y193888D02*
X-332546Y194142D01*
X-50503Y180800D02*
X-42410D01*
X-57645Y173658D02*
X-50503Y180800D01*
X-64900Y173658D02*
X-57645D01*
X-86585D02*
X-64900D01*
X-86616Y173690D02*
X-86585Y173658D01*
X-42398Y180812D02*
Y196358D01*
X-42410Y180800D02*
X-42398Y180812D01*
X-35043Y169858D02*
X-19700D01*
X-35127Y169942D02*
X-35043Y169858D01*
X-35127Y169942D02*
Y180800D01*
X-123800Y141963D02*
Y151558D01*
X-123963Y141800D02*
X-123800Y141963D01*
X-123963Y136263D02*
Y141800D01*
Y136263D02*
X-118300Y130600D01*
X-118200Y130700D02*
X-93842D01*
X-108800Y200548D02*
X-87658D01*
X-84900Y197790D01*
X-112461Y173690D02*
X-107369D01*
X-112461D02*
Y196887D01*
X-108800Y200548D01*
X-88758Y207832D02*
X-84900Y211690D01*
X-111369Y207832D02*
X-88758D01*
X-118652Y200548D02*
X-111369Y207832D01*
X-125300Y200548D02*
X-118652D01*
X-145000D02*
X-125300D01*
X-123648Y158690D02*
X-105121D01*
X-123800Y158842D02*
X-123648Y158690D01*
X-124400Y188278D02*
Y199648D01*
X-125300Y200548D02*
X-124400Y199648D01*
X-104910Y158900D02*
X-96700D01*
X-105121Y158690D02*
X-104910Y158900D01*
X-312424Y181900D02*
X-305083D01*
X-323131Y186858D02*
X-317382D01*
X-312424Y181900D01*
X-59634Y52114D02*
Y64334D01*
X-69500Y74200D02*
X-59634Y64334D01*
X-69500Y74200D02*
Y88400D01*
X-90600Y109500D02*
X-69500Y88400D01*
X-105091Y109500D02*
X-90600D01*
X-112200Y102391D02*
X-105091Y109500D01*
X-88642Y114100D02*
X-65800Y91258D01*
Y76900D02*
Y91258D01*
Y76900D02*
X-49398Y60498D01*
Y52114D02*
Y60498D01*
X-108300Y114100D02*
X-88642D01*
X-120009Y102391D02*
X-108300Y114100D01*
X-122200Y102391D02*
X-120009D01*
X-22323Y98177D02*
Y109917D01*
X-26366Y94134D02*
X-22323Y98177D01*
X-26366Y78886D02*
Y94134D01*
X-26256Y98844D02*
Y109917D01*
X-28925Y96175D02*
X-26256Y98844D01*
X-28925Y78886D02*
Y96175D01*
X-116990Y168690D02*
X-105121D01*
X-118500Y170200D02*
X-116990Y168690D01*
X-132500Y170200D02*
X-118500D01*
X-146500Y156200D02*
X-132500Y170200D01*
X-220300Y170868D02*
X-220232Y170800D01*
X-202921D01*
X-146500Y86691D02*
X-132200Y72391D01*
X-146500Y86691D02*
Y156200D01*
X-110867Y34400D02*
Y61058D01*
X-122200Y72391D02*
X-110867Y61058D01*
X-106950Y34400D02*
Y67141D01*
X-112200Y72391D02*
X-106950Y67141D01*
X-103033Y34400D02*
Y71558D01*
X-102200Y72391D01*
X-29673Y69573D02*
X-8168D01*
X-34043Y73943D02*
X-29673Y69573D01*
X-34043Y73943D02*
Y78886D01*
X-282655Y171900D02*
X-277100Y166345D01*
X-286579Y171900D02*
X-282655D01*
X-8004Y69737D02*
X2832D01*
X-184548Y143600D02*
X-174300D01*
X-171700Y146200D01*
X-184416Y175800D02*
X-174693D01*
X-86616Y163690D02*
X-66190D01*
X-64100Y161600D01*
X-54516Y78886D02*
X-51957D01*
Y81923D01*
X-50201Y83679D01*
X-43080D01*
X-41721Y82320D01*
X-40041Y84000D01*
X-35800D01*
X-34043Y78886D02*
Y82243D01*
X-35800Y84000D02*
X-34043Y82243D01*
X-44280Y40321D02*
Y52114D01*
X-41721Y90180D02*
X-41700Y90200D01*
X-41721Y78886D02*
Y82320D01*
Y90180D01*
X-294300Y51000D02*
X-260700D01*
X-95200Y34400D02*
Y58100D01*
X-90200Y63100D01*
X-227200Y98100D02*
X-225000Y95900D01*
X-210891Y93700D02*
X-202200Y102391D01*
X-222800Y93700D02*
X-210891D01*
X-225000Y95900D02*
X-222800Y93700D01*
X-227200Y98100D02*
Y115700D01*
X-209300Y133600D01*
X-203052D01*
X-210757Y102391D02*
X-184548Y128600D01*
X-212200Y102391D02*
X-210757D01*
X-187727Y133600D02*
X-184548D01*
X-218935Y102391D02*
X-187727Y133600D01*
X-222200Y102391D02*
X-218935D01*
X-184548Y138600D02*
X-177208D01*
X-202921Y160800D02*
X-195580D01*
X-184416D02*
X-177076D01*
X-185852D02*
X-184416D01*
X-203052Y143600D02*
X-185852Y160800D01*
X-212616Y194500D02*
X-201000D01*
X-213100Y194016D02*
X-212616Y194500D01*
X-286579Y156900D02*
X-276500D01*
X-260400Y173000D01*
X-249200D01*
X-187500Y170800D02*
X-184416D01*
X-193133Y176433D02*
X-187500Y170800D01*
X-193133Y176433D02*
Y194500D01*
X-293200Y178042D02*
X-289500Y181743D01*
X-293200Y171443D02*
Y178042D01*
X-297743Y166900D02*
X-293200Y171443D01*
X-215661Y181200D02*
X-210261Y175800D01*
X-273539Y181200D02*
X-215661D01*
X-279239Y186900D02*
X-273539Y181200D01*
X-305083Y166900D02*
X-297743D01*
X-286579Y186900D02*
X-279239D01*
X-294690Y202368D02*
Y212171D01*
Y195010D02*
Y202368D01*
X-210261Y175800D02*
X-202921D01*
X-188900Y194200D02*
X-175900D01*
X-189200Y194500D02*
X-188900Y194200D01*
X-175900D02*
X-162268Y207832D01*
X-145000D01*
X-125300D01*
X-116131Y217000D01*
X-70000D01*
X-64900Y211900D01*
Y203642D02*
Y211900D01*
Y203642D02*
X-42398D01*
X-19900D01*
X-19700Y203442D01*
X-197067Y173667D02*
Y194500D01*
Y173667D02*
X-189200Y165800D01*
X-184416D01*
X-77690Y178690D02*
Y178710D01*
X-97652Y179038D02*
X-78900Y197790D01*
X-105468Y179038D02*
X-97652D01*
X-78900Y197790D02*
Y211690D01*
X-394400Y149600D02*
X-390400Y153600D01*
X-394400Y143300D02*
Y149600D01*
X-413500Y124200D02*
X-394400Y143300D01*
X-390400Y153600D02*
X-384400D01*
X-398800Y179700D02*
X-394400Y175300D01*
Y168800D02*
Y175300D01*
Y168800D02*
X-389200Y163600D01*
X-384400D01*
D24*
X-105121Y148690D02*
Y153690D01*
X61555Y31500D02*
X80500D01*
X51136Y31486D02*
X61541D01*
X38049Y193763D02*
Y207659D01*
X-286579Y156900D02*
Y161900D01*
Y181900D02*
Y186900D01*
X-294690Y195010D02*
X-286579Y186900D01*
X-86616Y178690D02*
X-77690D01*
Y178710D02*
X-75458Y180942D01*
X-64900D01*
X-18389Y109917D02*
Y115911D01*
X-18300Y116000D01*
X117750Y48692D02*
Y90292D01*
Y48692D02*
X152200Y14242D01*
Y-13658D02*
Y14242D01*
X185200Y72542D02*
X196800D01*
X202200Y67142D01*
Y-13658D02*
Y67142D01*
X147650Y50592D02*
Y90192D01*
Y50592D02*
X162200Y36042D01*
Y-13658D02*
Y36042D01*
X237150Y5992D02*
X237450Y5692D01*
X214242Y28901D02*
X237150Y5992D01*
Y90292D01*
D25*
X-305142Y176842D02*
X-305083Y176900D01*
Y181900D02*
X-300459D01*
X-297325Y185034D01*
Y189725D01*
X-301973Y194373D02*
X-297325Y189725D01*
X-301973Y194373D02*
Y202368D01*
Y212171D01*
D26*
X-283275Y39300D02*
X-268225D01*
X-18300Y116000D02*
Y124351D01*
D27*
X-290800Y39300D02*
X-283275D01*
D28*
X-268225D02*
X-260700D01*
Y35400D02*
X-247500D01*
X-36689Y116417D02*
X-30189Y109917D01*
D29*
X80500Y31500D02*
Y58900D01*
Y7100D02*
Y31500D01*
X80000Y7600D02*
X80500Y7100D01*
Y58900D02*
X85800Y64200D01*
D30*
X-36689Y122711D02*
X-10800Y148600D01*
X54000D01*
X-36689Y116417D02*
Y122711D01*
X68900Y80200D02*
Y133700D01*
X54000Y148600D02*
X68900Y133700D01*
X68927Y48074D02*
Y77700D01*
X61600Y40747D02*
X68927Y48074D01*
X54000Y148600D02*
X77900Y172500D01*
Y179100D01*
D31*
X-89950Y43150D02*
D03*
X-123950D02*
D03*
D32*
X175862Y57386D02*
D03*
X190138D02*
D03*
D33*
X-270950Y29950D02*
D03*
Y56350D02*
D03*
D34*
X-34989Y98567D02*
D03*
X-13689D02*
D03*
X-184400Y205850D02*
D03*
X-205700D02*
D03*
D35*
X260400Y-22500D02*
Y237500D01*
X-426250Y-22500D02*
X260400D01*
X-426250D02*
Y237500D01*
X260400D01*
D36*
X-413500Y179700D02*
D03*
Y161200D02*
D03*
Y142700D02*
D03*
Y124200D02*
D03*
D37*
X-399000Y8200D02*
D03*
Y35200D02*
D03*
D38*
X-406500Y56200D02*
D03*
X-391500D02*
D03*
D39*
X150970Y212053D02*
D03*
Y202233D02*
D03*
Y192413D02*
D03*
X195170Y212053D02*
D03*
Y202233D02*
D03*
Y192413D02*
D03*
X238900Y212263D02*
D03*
Y202443D02*
D03*
Y192623D02*
D03*
X-169430Y41000D02*
D03*
X-179430Y51000D02*
D03*
Y41000D02*
D03*
X-189430Y51000D02*
D03*
Y41000D02*
D03*
X212200Y-13658D02*
D03*
X202200D02*
D03*
X192200D02*
D03*
X182200D02*
D03*
X162200D02*
D03*
X172200D02*
D03*
X-384400Y173600D02*
D03*
Y163600D02*
D03*
Y153600D02*
D03*
Y143600D02*
D03*
X-232132Y72476D02*
D03*
X-222131D02*
D03*
X-212132D02*
D03*
X-202132D02*
D03*
X-192131D02*
D03*
X-182132D02*
D03*
X-172132D02*
D03*
X-162132D02*
D03*
X-152131D02*
D03*
X-142131D02*
D03*
X-132132D02*
D03*
X-122132D02*
D03*
X-112132D02*
D03*
X-102131D02*
D03*
X-232132Y102476D02*
D03*
X-222131D02*
D03*
X-212132D02*
D03*
X-202132D02*
D03*
X-192131D02*
D03*
X-182132D02*
D03*
X-172132D02*
D03*
X-162132D02*
D03*
X-152131D02*
D03*
X-142131D02*
D03*
X-132132D02*
D03*
X-122132D02*
D03*
X-112132D02*
D03*
D40*
X150970Y182593D02*
D03*
X195170D02*
D03*
X238900Y182803D02*
D03*
X-384400Y133600D02*
D03*
X-102131Y102476D02*
D03*
D41*
X152470Y163000D02*
D03*
Y170500D02*
D03*
X159970Y188667D02*
D03*
X167470Y188603D02*
D03*
X152320Y223500D02*
D03*
Y231740D02*
D03*
X167470Y208437D02*
D03*
X159970D02*
D03*
X196670Y163000D02*
D03*
Y170500D02*
D03*
X204170Y188667D02*
D03*
X211670Y188603D02*
D03*
X196520Y223500D02*
D03*
Y231740D02*
D03*
X211670Y208437D02*
D03*
X204170D02*
D03*
X240400Y163210D02*
D03*
Y170710D02*
D03*
X247900Y188877D02*
D03*
X255400Y188814D02*
D03*
X240250Y223710D02*
D03*
Y231950D02*
D03*
X255400Y208647D02*
D03*
X247900D02*
D03*
X227150Y90092D02*
D03*
X237150Y90292D02*
D03*
X227450Y5492D02*
D03*
X237450Y5692D02*
D03*
X127950Y5492D02*
D03*
X137950Y5692D02*
D03*
D42*
X-169430Y51000D02*
D03*
X152200Y-13658D02*
D03*
D43*
X-280600Y78816D02*
D03*
D44*
Y98029D02*
D03*
D45*
X117750Y90292D02*
D03*
X147650Y90192D02*
D03*
D46*
X-399000Y102700D02*
D03*
Y202700D02*
D03*
D47*
X135970Y208000D02*
D03*
Y189500D02*
D03*
X142470Y208000D02*
D03*
Y189500D02*
D03*
X136970Y227370D02*
D03*
X141970Y232000D02*
D03*
X167230Y227370D02*
D03*
X162600Y232370D02*
D03*
Y162870D02*
D03*
X167230Y167870D02*
D03*
X136970D02*
D03*
X141970Y162870D02*
D03*
X180170Y208000D02*
D03*
Y189500D02*
D03*
X186670Y208000D02*
D03*
Y189500D02*
D03*
X181170Y227370D02*
D03*
X186170Y232000D02*
D03*
X211430Y227370D02*
D03*
X206800Y232370D02*
D03*
Y162870D02*
D03*
X211430Y167870D02*
D03*
X181170D02*
D03*
X186170Y162870D02*
D03*
X223900Y208210D02*
D03*
Y189710D02*
D03*
X230400Y208210D02*
D03*
Y189710D02*
D03*
X224900Y227580D02*
D03*
X229900Y232210D02*
D03*
X255160Y227580D02*
D03*
X250530Y232580D02*
D03*
Y163080D02*
D03*
X255160Y168080D02*
D03*
X224900D02*
D03*
X229900Y163080D02*
D03*
X-291068Y39568D02*
D03*
X80000Y7600D02*
D03*
X85800Y64200D02*
D03*
X-157900Y18900D02*
D03*
X-127000Y16028D02*
D03*
Y33663D02*
D03*
X-351200Y100900D02*
D03*
X-156900Y140250D02*
D03*
X-160400Y197394D02*
D03*
Y219600D02*
D03*
X-256000Y163636D02*
D03*
X-337400Y172521D02*
D03*
X-316400D02*
D03*
X-279086Y136263D02*
D03*
X-294300Y51000D02*
D03*
X-90200Y63100D02*
D03*
D48*
X47305Y45668D02*
D03*
X50258Y43700D02*
D03*
X47305Y41731D02*
D03*
X53211Y45668D02*
D03*
Y41731D02*
D03*
D49*
X0Y0D02*
D03*
Y215000D02*
D03*
X-272500D02*
D03*
Y0D02*
D03*
D50*
X-279239Y176900D02*
D03*
X-112461Y153690D02*
D03*
X-79276Y168690D02*
D03*
X-6300Y175080D02*
D03*
X-297743Y176900D02*
D03*
X-312424Y161900D02*
D03*
X44151Y193763D02*
D03*
X-136000Y140489D02*
D03*
X-79276Y158690D02*
D03*
X-74400Y188600D02*
D03*
X-297743Y156900D02*
D03*
X38049Y193763D02*
D03*
X-112461Y173690D02*
D03*
X-124400Y188278D02*
D03*
X-96700Y158900D02*
D03*
X-312424Y181900D02*
D03*
X-146500Y156200D02*
D03*
X-220300Y170868D02*
D03*
X-277100Y166345D02*
D03*
X-171700Y146200D02*
D03*
X-174193Y176300D02*
D03*
X-64100Y161600D02*
D03*
X78019Y180600D02*
D03*
X65200D02*
D03*
Y189600D02*
D03*
X78019Y189400D02*
D03*
X68927Y77700D02*
D03*
X61600Y40747D02*
D03*
X71600Y185300D02*
D03*
X-44280Y40321D02*
D03*
X-41710Y90190D02*
D03*
X-177208Y138600D02*
D03*
X-195580Y160800D02*
D03*
X-177076D02*
D03*
X-213100Y194016D02*
D03*
X-249200Y173000D02*
D03*
X-297743Y166900D02*
D03*
X-279239Y186900D02*
D03*
X-210261Y175800D02*
D03*
X-175900Y194200D02*
D03*
X-77690Y178690D02*
D03*
X-18300Y124351D02*
D03*
D51*
X61541Y31486D02*
D03*
X51136D02*
D03*
D52*
X-36689Y116417D02*
D03*
M02*
