%FSLAX25Y25*%
%MOIN*%
G70*
G01*
G75*
G04 Layer_Physical_Order=2*
G04 Layer_Color=16711680*
G04:AMPARAMS|DCode=10|XSize=23.62mil|YSize=61.02mil|CornerRadius=5.91mil|HoleSize=0mil|Usage=FLASHONLY|Rotation=0.000|XOffset=0mil|YOffset=0mil|HoleType=Round|Shape=RoundedRectangle|*
%AMROUNDEDRECTD10*
21,1,0.02362,0.04921,0,0,0.0*
21,1,0.01181,0.06102,0,0,0.0*
1,1,0.01181,0.00591,-0.02461*
1,1,0.01181,-0.00591,-0.02461*
1,1,0.01181,-0.00591,0.02461*
1,1,0.01181,0.00591,0.02461*
%
%ADD10ROUNDEDRECTD10*%
%ADD11R,0.05906X0.09843*%
%ADD12O,0.07480X0.02362*%
%ADD13O,0.01378X0.07087*%
%ADD14R,0.09843X0.05906*%
G04:AMPARAMS|DCode=15|XSize=23.62mil|YSize=61.02mil|CornerRadius=5.91mil|HoleSize=0mil|Usage=FLASHONLY|Rotation=270.000|XOffset=0mil|YOffset=0mil|HoleType=Round|Shape=RoundedRectangle|*
%AMROUNDEDRECTD15*
21,1,0.02362,0.04921,0,0,270.0*
21,1,0.01181,0.06102,0,0,270.0*
1,1,0.01181,-0.02461,-0.00591*
1,1,0.01181,-0.02461,0.00591*
1,1,0.01181,0.02461,0.00591*
1,1,0.01181,0.02461,-0.00591*
%
%ADD15ROUNDEDRECTD15*%
%ADD16R,0.03937X0.05315*%
%ADD17R,0.04134X0.04331*%
%ADD18R,0.03150X0.01969*%
%ADD19R,0.01969X0.03150*%
%ADD20R,0.04724X0.05315*%
%ADD21R,0.05315X0.04724*%
%ADD22R,0.05709X0.04528*%
%ADD23R,0.04528X0.05709*%
%ADD24C,0.03937*%
%ADD25C,0.01500*%
%ADD26C,0.02000*%
%ADD27C,0.01300*%
%ADD28C,0.04000*%
%ADD29C,0.05000*%
%ADD30C,0.03000*%
%ADD31C,0.06500*%
%ADD32C,0.06000*%
%ADD33C,0.00100*%
%ADD34C,0.07874*%
%ADD35R,0.05906X0.05906*%
%ADD36C,0.05906*%
%ADD37C,0.11024*%
%ADD38C,0.15354*%
%ADD39C,0.06000*%
%ADD40C,0.11417*%
%ADD41R,0.05906X0.05906*%
%ADD42P,0.05966X8X112.5*%
%ADD43C,0.05512*%
%ADD44C,0.11811*%
%ADD45C,0.05000*%
%ADD46C,0.02284*%
%ADD47C,0.10236*%
%ADD48C,0.15700*%
%ADD49C,0.04000*%
%ADD50C,0.02000*%
%ADD51C,0.06200*%
%ADD52R,0.06693X0.12598*%
%ADD53R,0.09449X0.06496*%
%ADD54O,0.01102X0.03347*%
%ADD55R,0.03543X0.02559*%
%ADD56R,0.06102X0.05512*%
%ADD57R,0.04331X0.04134*%
%ADD58R,0.03937X0.02362*%
%ADD59C,0.04500*%
%ADD60C,0.01000*%
%ADD61C,0.02500*%
%ADD62C,0.07000*%
%ADD63C,0.03500*%
%ADD64C,0.05500*%
%ADD65R,0.02756X0.01102*%
G36*
X463393Y191715D02*
X469143D01*
X469754Y191104D01*
X470485Y190543D01*
X471337Y190190D01*
X472250Y190070D01*
X478050D01*
Y178300D01*
X478050Y178300D01*
X478050Y178300D01*
X478009Y178200D01*
X454750D01*
Y191500D01*
X462928Y191807D01*
X460764Y191780D01*
X462928Y191807D01*
X463393Y191715D01*
D02*
G37*
G36*
X50350Y236798D02*
Y21600D01*
X32844D01*
X32723Y22085D01*
X32932Y22197D01*
X34481Y23468D01*
X35753Y25018D01*
X36698Y26786D01*
X37280Y28705D01*
X37477Y30700D01*
X37280Y32695D01*
X36698Y34613D01*
X35753Y36381D01*
X34481Y37931D01*
X32932Y39202D01*
X31164Y40148D01*
X29245Y40729D01*
X27250Y40926D01*
X25255Y40729D01*
X24289Y40436D01*
X14541Y50184D01*
Y123515D01*
X20148Y129122D01*
X20550Y128825D01*
X20178Y128129D01*
X19742Y126693D01*
X19595Y125200D01*
X19742Y123706D01*
X20178Y122270D01*
X20886Y120947D01*
X21837Y119787D01*
X22998Y118835D01*
X24321Y118127D01*
X25757Y117692D01*
X27250Y117545D01*
X28744Y117692D01*
X30180Y118127D01*
X31503Y118835D01*
X32663Y119787D01*
X33615Y120947D01*
X34323Y122270D01*
X34758Y123706D01*
X34905Y125200D01*
X34758Y126693D01*
X34323Y128129D01*
X33615Y129453D01*
X32663Y130613D01*
X31503Y131564D01*
X30180Y132272D01*
X28744Y132708D01*
X27250Y132855D01*
X25757Y132708D01*
X24321Y132272D01*
X23625Y131900D01*
X23327Y132302D01*
X30238Y139212D01*
X30999Y140205D01*
X31478Y141360D01*
X31641Y142600D01*
Y153916D01*
X39035Y161309D01*
X39168D01*
X40427Y160788D01*
X41850Y160600D01*
X43274Y160788D01*
X44600Y161337D01*
X45739Y162211D01*
X46613Y163350D01*
X47163Y164676D01*
X47350Y166100D01*
X47163Y167524D01*
X46613Y168850D01*
X45739Y169989D01*
X44617Y170850D01*
Y171350D01*
X45739Y172211D01*
X46613Y173350D01*
X47163Y174677D01*
X47350Y176100D01*
X47163Y177524D01*
X46613Y178850D01*
X45739Y179989D01*
X44617Y180850D01*
Y181350D01*
X45739Y182211D01*
X46613Y183350D01*
X47163Y184677D01*
X47350Y186100D01*
X47163Y187523D01*
X46613Y188850D01*
X45739Y189989D01*
X44617Y190850D01*
Y191350D01*
X45739Y192211D01*
X46613Y193350D01*
X47163Y194676D01*
X47350Y196100D01*
X47163Y197523D01*
X46613Y198850D01*
X45739Y199989D01*
X44600Y200863D01*
X43274Y201412D01*
X41850Y201600D01*
X40427Y201412D01*
X39100Y200863D01*
X37961Y199989D01*
X37087Y198850D01*
X36538Y197523D01*
X36351Y196100D01*
X36538Y194676D01*
X37087Y193350D01*
X37961Y192211D01*
X39083Y191350D01*
Y190850D01*
X37961Y189989D01*
X37087Y188850D01*
X36538Y187523D01*
X36351Y186100D01*
X36538Y184677D01*
X37087Y183350D01*
X37961Y182211D01*
X39083Y181350D01*
Y180850D01*
X37961Y179989D01*
X37087Y178850D01*
X36538Y177524D01*
X36351Y176100D01*
X36538Y174677D01*
X37087Y173350D01*
X37961Y172211D01*
X39065Y171364D01*
X38904Y170891D01*
X37050D01*
X35810Y170728D01*
X34993Y170389D01*
X34655Y170249D01*
X33663Y169488D01*
X23463Y159288D01*
X22701Y158296D01*
X22561Y157957D01*
X22223Y157140D01*
X22059Y155900D01*
X22059Y155900D01*
X22059D01*
X22059Y155900D01*
X22059D01*
Y144585D01*
X20817Y143342D01*
X20388Y143599D01*
X20840Y145090D01*
X20999Y146700D01*
X20840Y148309D01*
X20371Y149856D01*
X19609Y151282D01*
X18583Y152532D01*
X17333Y153558D01*
X15907Y154320D01*
X14359Y154789D01*
X12750Y154948D01*
X11141Y154789D01*
X9594Y154320D01*
X8168Y153558D01*
X6918Y152532D01*
X5892Y151282D01*
X5130Y149856D01*
X4660Y148309D01*
X4502Y146700D01*
X4660Y145090D01*
X5130Y143543D01*
X5892Y142117D01*
X6918Y140867D01*
X8168Y139841D01*
X9594Y139079D01*
X11141Y138610D01*
X12750Y138451D01*
X14359Y138610D01*
X15851Y139062D01*
X16108Y138633D01*
X6363Y128888D01*
X5601Y127895D01*
X5461Y127557D01*
X5123Y126740D01*
X4959Y125500D01*
Y48200D01*
X4959Y48200D01*
X4959D01*
X5123Y46960D01*
X5461Y46143D01*
X5601Y45804D01*
X6363Y44812D01*
X6363Y44812D01*
X6363Y44812D01*
Y44812D01*
X6363Y44812D01*
X17514Y33661D01*
X17220Y32695D01*
X17024Y30700D01*
X17220Y28705D01*
X17802Y26786D01*
X18747Y25018D01*
X20019Y23468D01*
X21569Y22197D01*
X21778Y22085D01*
X21656Y21600D01*
X4057D01*
X3951Y236546D01*
X4304Y236900D01*
X50244D01*
X50350Y236798D01*
D02*
G37*
G36*
X468124Y212479D02*
X469299Y212325D01*
X469481Y212349D01*
X469706Y212378D01*
X469856Y212246D01*
Y212019D01*
Y202574D01*
X472248D01*
Y202429D01*
Y200752D01*
X471254D01*
Y194264D01*
X463393D01*
Y194339D01*
Y212624D01*
X463598Y212829D01*
X467280D01*
X468124Y212479D01*
D02*
G37*
G36*
X513409Y190995D02*
X513409Y190995D01*
X513850Y190812D01*
Y178400D01*
X482250D01*
X482150Y178500D01*
Y189452D01*
X489246D01*
Y189702D01*
X492840D01*
X493754Y189822D01*
X494606Y190175D01*
X495337Y190736D01*
X495536Y190995D01*
X513409D01*
X513409Y190995D01*
D02*
G37*
G36*
X474609Y80100D02*
X477315Y77838D01*
X477337Y77338D01*
X476649Y76649D01*
X476263Y76490D01*
X474063D01*
Y78005D01*
X463354D01*
Y70985D01*
X456168D01*
X456157Y71002D01*
X455330Y71555D01*
X454354Y71749D01*
X453134D01*
X452159Y71555D01*
X451332Y71002D01*
X450863Y70300D01*
X446735D01*
X446708Y70326D01*
Y88900D01*
X465808D01*
X474609Y80100D01*
D02*
G37*
G36*
X521975Y91895D02*
Y71015D01*
X507665Y70985D01*
X506394Y70900D01*
X497252D01*
X489523Y71343D01*
X488733Y71405D01*
Y72548D01*
X486554D01*
Y73729D01*
X486450Y74526D01*
X486142Y75268D01*
X485778Y75743D01*
X491079Y80900D01*
Y91546D01*
X491432Y91900D01*
X521975Y91895D01*
D02*
G37*
G36*
Y118839D02*
X521785Y118775D01*
X521151Y119601D01*
X518351Y122401D01*
X517150Y123323D01*
X515751Y123902D01*
X514250Y124100D01*
X511799D01*
Y124600D01*
X511703Y125085D01*
X511605Y125575D01*
X511605Y125575D01*
X511605Y125575D01*
X511328Y125991D01*
X511053Y126402D01*
X510953Y126502D01*
X510953Y126502D01*
X510953Y126502D01*
X510541Y126777D01*
X510126Y127055D01*
X510126Y127055D01*
X510126Y127055D01*
X509636Y127152D01*
X509151Y127249D01*
X509150Y127249D01*
X509150Y127249D01*
X506379D01*
Y175851D01*
X513850D01*
X514826Y176045D01*
X515653Y176598D01*
X516205Y177425D01*
X516399Y178400D01*
Y190812D01*
X516294Y191340D01*
X516205Y191788D01*
X516205Y191788D01*
X516205Y191788D01*
X515928Y192203D01*
X515653Y192615D01*
X515653Y192615D01*
X515653Y192615D01*
X515242Y192889D01*
X514826Y193167D01*
X514826Y193167D01*
D01*
D01*
X514384Y193350D01*
X514384Y193350D01*
X514384Y193350D01*
X513913Y193444D01*
X513409Y193544D01*
X513409Y193544D01*
X513409Y193544D01*
X513409D01*
X513409D01*
X495536D01*
X495371Y193512D01*
X495203Y193523D01*
X494888Y193415D01*
X494849Y193408D01*
D01*
X494561Y193350D01*
X494518Y193322D01*
X490096D01*
Y192770D01*
X489246D01*
Y193193D01*
Y200752D01*
X488328D01*
Y202071D01*
Y204718D01*
X490208D01*
Y212001D01*
Y221726D01*
X479893D01*
Y220142D01*
X478521D01*
X477671Y220794D01*
X476576Y221248D01*
X475401Y221402D01*
X474227Y221248D01*
X473132Y220794D01*
X472350Y220194D01*
X471569Y220794D01*
X470474Y221248D01*
X469299Y221402D01*
X468124Y221248D01*
X467280Y220898D01*
X463233D01*
X462389Y221248D01*
X461214Y221402D01*
X460039Y221248D01*
X458944Y220794D01*
X458004Y220073D01*
X456631Y218700D01*
X455829Y218368D01*
X454784Y217566D01*
X453983Y216522D01*
X453479Y215305D01*
X453307Y214000D01*
Y193542D01*
X452948Y193302D01*
X452921Y193262D01*
X452881Y193233D01*
X452646Y192850D01*
X452395Y192475D01*
X452386Y192428D01*
X452360Y192386D01*
X452289Y191942D01*
X452201Y191500D01*
Y186553D01*
X443623Y177975D01*
X442702Y176774D01*
X442122Y175375D01*
X441925Y173874D01*
Y155999D01*
X441078D01*
Y138401D01*
X443438D01*
Y137567D01*
X443022D01*
Y128433D01*
X452353D01*
Y137567D01*
X452011D01*
Y138401D01*
X452771D01*
Y143658D01*
X453326Y144999D01*
X453524Y146500D01*
Y171472D01*
X457703Y175651D01*
X478009D01*
X478507Y175750D01*
X478984Y175845D01*
X478984Y175845D01*
X478984Y175845D01*
X479400Y176123D01*
X479811Y176398D01*
X479811Y176398D01*
X479811Y176398D01*
X480080Y176799D01*
X480280D01*
X480348Y176698D01*
X480348Y176698D01*
X480348Y176697D01*
X480448Y176597D01*
X480852Y176328D01*
X481275Y176045D01*
X481275Y176045D01*
X481275Y176045D01*
X481746Y175951D01*
X482250Y175851D01*
X494321D01*
Y127249D01*
X491572D01*
X491088Y127153D01*
X476729D01*
Y116247D01*
X488529D01*
Y114981D01*
X488658Y114334D01*
X488724Y114006D01*
X488724Y114006D01*
Y114006D01*
X489056Y113508D01*
X489276Y113179D01*
X489276Y113179D01*
X489276Y113179D01*
X489605Y112959D01*
X490103Y112627D01*
X490565Y112435D01*
X490565Y112435D01*
D01*
X490764Y112396D01*
X491540Y112241D01*
X491540D01*
X491540D01*
X491590Y112251D01*
X495823D01*
X496150Y112316D01*
X496482Y112338D01*
X496633Y112412D01*
X496798Y112445D01*
X496956Y112551D01*
X497083Y112498D01*
X497890Y112392D01*
X502811D01*
X503618Y112498D01*
X503622Y112500D01*
X503820D01*
X503903Y112445D01*
X504068Y112412D01*
X504198Y112348D01*
X504218Y112338D01*
X504551Y112316D01*
X504878Y112251D01*
X509250D01*
X510226Y112445D01*
X510309Y112500D01*
X511251D01*
Y94587D01*
X511109Y94446D01*
X491433Y94449D01*
X491432Y94449D01*
X491432Y94449D01*
X490924Y94348D01*
X490457Y94255D01*
X490457Y94255D01*
X490457Y94255D01*
X490028Y93968D01*
X489630Y93703D01*
X489630Y93703D01*
X489630Y93702D01*
X489276Y93349D01*
X489276Y93349D01*
X489276Y93349D01*
X489001Y92938D01*
X488724Y92522D01*
X488724Y92522D01*
X488724Y92522D01*
X488626Y92032D01*
X488529Y91546D01*
X488529Y91546D01*
X488529Y91546D01*
Y81976D01*
X487271Y80752D01*
X487087Y80830D01*
Y90356D01*
X475985D01*
Y82590D01*
X475800Y82513D01*
X467611Y90702D01*
X466784Y91255D01*
X465808Y91449D01*
X446708D01*
X445733Y91255D01*
X444906Y90702D01*
X444354Y89875D01*
X444160Y88900D01*
Y74857D01*
X440301Y70998D01*
X439499Y69954D01*
X438996Y68738D01*
X438824Y67432D01*
Y58543D01*
X423290D01*
X421985Y58371D01*
X420769Y57867D01*
X419724Y57066D01*
X395002Y32343D01*
X191239D01*
X157348Y66234D01*
X156304Y67036D01*
X155087Y67540D01*
X153782Y67712D01*
X140182D01*
X138877Y67540D01*
X137660Y67036D01*
X136616Y66234D01*
X135814Y65190D01*
X135311Y63974D01*
X135139Y62668D01*
X135311Y61363D01*
X135814Y60147D01*
X136616Y59102D01*
X137660Y58301D01*
X138877Y57797D01*
X140182Y57625D01*
X151693D01*
X185584Y23734D01*
X186629Y22932D01*
X187845Y22429D01*
X189150Y22257D01*
X397091D01*
X398396Y22429D01*
X399612Y22932D01*
X400657Y23734D01*
X400657Y23734D01*
X400657Y23734D01*
X425379Y48457D01*
X439005D01*
Y48342D01*
X456012D01*
Y48961D01*
X467767D01*
X467906Y48979D01*
X473266D01*
Y54007D01*
X476338Y57079D01*
X476775Y56898D01*
X477571Y56793D01*
X478332Y56893D01*
X478483Y56761D01*
Y55463D01*
X478586Y54680D01*
X478799Y54164D01*
X478888Y53950D01*
X478950Y53869D01*
X478976Y53672D01*
X479329Y52821D01*
X479890Y52090D01*
X480621Y51529D01*
X480688Y51501D01*
Y41742D01*
X491289D01*
Y36054D01*
X489903D01*
Y25346D01*
X506714D01*
Y26161D01*
X509142D01*
X509945Y25829D01*
X511250Y25657D01*
X512556Y25829D01*
X513772Y26332D01*
X514816Y27134D01*
X515618Y28178D01*
X516122Y29395D01*
X516293Y30700D01*
X516122Y32005D01*
X515618Y33222D01*
X514816Y34266D01*
X513772Y35067D01*
X512556Y35571D01*
X511250Y35743D01*
X509945Y35571D01*
X509142Y35239D01*
X506714D01*
Y36054D01*
X505128D01*
Y41742D01*
X506712D01*
Y52057D01*
X495489D01*
X495400Y52237D01*
X495848Y52821D01*
X496201Y53672D01*
X496321Y54586D01*
X496201Y55500D01*
X495848Y56351D01*
X495287Y57082D01*
X494556Y57643D01*
X493705Y57996D01*
X492791Y58116D01*
X492624Y58094D01*
X488511Y62207D01*
X488418Y62911D01*
X488111Y63654D01*
X487622Y64291D01*
X486984Y64780D01*
X486242Y65087D01*
X485445Y65192D01*
X484649Y65087D01*
X484461Y65010D01*
X484273Y65087D01*
X483477Y65192D01*
X482681Y65087D01*
X482493Y65010D01*
X482305Y65087D01*
X481508Y65192D01*
X480712Y65087D01*
X479970Y64780D01*
X479540Y64450D01*
X479110Y64780D01*
X478368Y65087D01*
X477571Y65192D01*
X476775Y65087D01*
X476033Y64780D01*
X475634Y64474D01*
X475260Y64523D01*
X474346Y64403D01*
X473495Y64050D01*
X472764Y63489D01*
X467978Y58704D01*
X462951D01*
Y58039D01*
X456012D01*
Y58657D01*
X448910D01*
Y65343D01*
X451371Y67804D01*
X451592Y67896D01*
X451838Y67945D01*
X452047Y68084D01*
X452279Y68181D01*
X452457Y68358D01*
X452665Y68498D01*
X452805Y68706D01*
X452982Y68884D01*
X453134Y69112D01*
Y69200D01*
X454354D01*
Y68436D01*
X465063D01*
Y68478D01*
X474063D01*
Y69200D01*
Y69581D01*
X475186D01*
X475395Y69309D01*
X475733Y69050D01*
X476033Y68820D01*
X476775Y68512D01*
X477571Y68407D01*
X478368Y68512D01*
X478556Y68590D01*
X478744Y68512D01*
X479540Y68407D01*
X480337Y68512D01*
X480524Y68590D01*
X480712Y68512D01*
X481508Y68407D01*
X482305Y68512D01*
X483047Y68820D01*
X483477Y69150D01*
X483907Y68820D01*
X484649Y68512D01*
X485445Y68407D01*
X486242Y68512D01*
X486984Y68820D01*
X487232Y69010D01*
X487561Y69146D01*
X487577Y69133D01*
X487674Y69106D01*
X487757Y69050D01*
X488150Y68972D01*
X488535Y68864D01*
X488641Y68855D01*
X489324Y68802D01*
X489351Y68805D01*
X489376Y68799D01*
X496792Y68373D01*
X497107Y68355D01*
X497180Y68365D01*
X497252Y68351D01*
X506394D01*
X506478Y68368D01*
X506564Y68357D01*
X507753Y68436D01*
X521833Y68466D01*
X521975Y68325D01*
Y9326D01*
X68026D01*
Y250874D01*
X521975D01*
Y118839D01*
D02*
G37*
G36*
X509250Y124600D02*
Y114800D01*
X504878D01*
X504370Y115190D01*
X503618Y115501D01*
X502811Y115608D01*
X497890D01*
X497083Y115501D01*
X496331Y115190D01*
X495823Y114800D01*
X491550D01*
X491540Y114790D01*
X491079Y114981D01*
Y116247D01*
X491572D01*
Y124700D01*
X509150D01*
X509250Y124600D01*
D02*
G37*
%LPC*%
G36*
X27250Y232855D02*
X25757Y232708D01*
X24321Y232272D01*
X22998Y231564D01*
X21837Y230612D01*
X20886Y229452D01*
X20178Y228129D01*
X19742Y226693D01*
X19595Y225200D01*
X19742Y223706D01*
X20178Y222270D01*
X20886Y220947D01*
X21837Y219787D01*
X22998Y218835D01*
X24321Y218127D01*
X25757Y217692D01*
X27250Y217545D01*
X28744Y217692D01*
X30180Y218127D01*
X31503Y218835D01*
X32663Y219787D01*
X33615Y220947D01*
X34323Y222270D01*
X34758Y223706D01*
X34905Y225200D01*
X34758Y226693D01*
X34323Y228129D01*
X33615Y229452D01*
X32663Y230612D01*
X31503Y231564D01*
X30180Y232272D01*
X28744Y232708D01*
X27250Y232855D01*
D02*
G37*
G36*
X491572Y111553D02*
X476729D01*
Y100647D01*
X491572D01*
Y111553D01*
D02*
G37*
G36*
X270850Y247743D02*
X269545Y247571D01*
X268329Y247067D01*
X267284Y246266D01*
X266483Y245222D01*
X265979Y244005D01*
X265807Y242700D01*
X265979Y241395D01*
X266483Y240178D01*
X267284Y239134D01*
X267572Y238913D01*
Y224281D01*
X267284Y224060D01*
X266483Y223016D01*
X265979Y221799D01*
X265807Y220494D01*
X265979Y219189D01*
X266483Y217973D01*
X267284Y216928D01*
X268329Y216127D01*
X269545Y215623D01*
X270850Y215451D01*
X272156Y215623D01*
X273372Y216127D01*
X274416Y216928D01*
X275218Y217973D01*
X275722Y219189D01*
X275893Y220494D01*
X275722Y221799D01*
X275218Y223016D01*
X274416Y224060D01*
X274128Y224281D01*
Y238913D01*
X274416Y239134D01*
X275218Y240178D01*
X275722Y241395D01*
X275893Y242700D01*
X275722Y244005D01*
X275218Y245222D01*
X274416Y246266D01*
X273372Y247067D01*
X272156Y247571D01*
X270850Y247743D01*
D02*
G37*
G36*
X435256Y167867D02*
X425728D01*
Y162827D01*
X425630Y162080D01*
Y155999D01*
X425330D01*
Y152746D01*
X412950D01*
X411580Y152566D01*
X410303Y152037D01*
X409206Y151196D01*
X408364Y150099D01*
X407835Y148822D01*
X407655Y147451D01*
X407835Y146081D01*
X408364Y144804D01*
X409206Y143707D01*
X410303Y142865D01*
X411580Y142336D01*
X412950Y142156D01*
X425330D01*
Y138401D01*
X437023D01*
Y155999D01*
X436220D01*
Y162080D01*
X436040Y163450D01*
X435511Y164727D01*
X435256Y165060D01*
Y167867D01*
D02*
G37*
G36*
X249119Y131075D02*
X247695Y130888D01*
X246369Y130339D01*
X245230Y129464D01*
X244356Y128325D01*
X244219Y127995D01*
X244019D01*
X243882Y128325D01*
X243008Y129464D01*
X241869Y130339D01*
X240542Y130888D01*
X239119Y131075D01*
X237695Y130888D01*
X236369Y130339D01*
X235230Y129464D01*
X234356Y128325D01*
X234219Y127995D01*
X234019D01*
X233882Y128325D01*
X233008Y129464D01*
X231869Y130339D01*
X230542Y130888D01*
X229119Y131075D01*
X227695Y130888D01*
X226369Y130339D01*
X225230Y129464D01*
X224356Y128325D01*
X224219Y127995D01*
X224019D01*
X223882Y128325D01*
X223008Y129464D01*
X221869Y130339D01*
X220542Y130888D01*
X219119Y131075D01*
X217695Y130888D01*
X216369Y130339D01*
X215230Y129464D01*
X214356Y128325D01*
X214219Y127995D01*
X214019D01*
X213882Y128325D01*
X213008Y129464D01*
X211869Y130339D01*
X210542Y130888D01*
X209119Y131075D01*
X207695Y130888D01*
X206369Y130339D01*
X205230Y129464D01*
X204356Y128325D01*
X204219Y127995D01*
X204019D01*
X203882Y128325D01*
X203008Y129464D01*
X201869Y130339D01*
X200542Y130888D01*
X199119Y131075D01*
X197695Y130888D01*
X196369Y130339D01*
X195230Y129464D01*
X194356Y128325D01*
X193806Y126999D01*
X193619Y125576D01*
X193806Y124152D01*
X194356Y122826D01*
X194408Y122757D01*
X194320Y122578D01*
X167908D01*
X167039Y123447D01*
X166360Y123968D01*
X165965Y124132D01*
X165570Y124295D01*
X165145Y124351D01*
X164721Y124407D01*
X154760D01*
X154399Y124878D01*
X153301Y125720D01*
X152022Y126250D01*
X150650Y126430D01*
X149278Y126250D01*
X148000Y125720D01*
X146902Y124878D01*
X146059Y123780D01*
X145835Y123238D01*
X137156D01*
Y125314D01*
X127628D01*
Y114605D01*
X137156D01*
Y116682D01*
X147812D01*
X148000Y116538D01*
X149278Y116008D01*
X150650Y115828D01*
X152022Y116008D01*
X153301Y116538D01*
X154399Y117381D01*
X154760Y117851D01*
X162177D01*
X162216Y117655D01*
X162090Y117603D01*
X161695Y117439D01*
X161311Y117144D01*
X161016Y116918D01*
X151270Y107172D01*
X148022D01*
X145451Y104601D01*
X137156D01*
Y106677D01*
X127628D01*
Y95969D01*
X137156D01*
Y98045D01*
X146638D01*
X148022Y96661D01*
X153278D01*
X155906Y99289D01*
Y102537D01*
X164692Y111322D01*
X238159D01*
X238583Y111378D01*
X239007Y111434D01*
X239403Y111597D01*
X239798Y111761D01*
X240477Y112282D01*
X240477Y112282D01*
X240477Y112282D01*
X248369Y120175D01*
X249119Y120076D01*
X250542Y120263D01*
X251869Y120813D01*
X253008Y121687D01*
X253882Y122826D01*
X254431Y124152D01*
X254619Y125576D01*
X254431Y126999D01*
X253882Y128325D01*
X253008Y129464D01*
X251869Y130339D01*
X250542Y130888D01*
X249119Y131075D01*
D02*
G37*
G36*
X158750Y248482D02*
X157126Y248354D01*
X155542Y247974D01*
X154037Y247350D01*
X152648Y246499D01*
X151409Y245441D01*
X150351Y244202D01*
X149500Y242813D01*
X148876Y241308D01*
X148496Y239724D01*
X148368Y238100D01*
X148496Y236476D01*
X148876Y234892D01*
X149500Y233387D01*
X150351Y231998D01*
X151409Y230759D01*
X152648Y229701D01*
X154037Y228850D01*
X155542Y228226D01*
X157126Y227846D01*
X158750Y227718D01*
X160374Y227846D01*
X161959Y228226D01*
X163464Y228850D01*
X164853Y229701D01*
X166092Y230759D01*
X167149Y231998D01*
X168001Y233387D01*
X168624Y234892D01*
X169004Y236476D01*
X169132Y238100D01*
X169004Y239724D01*
X168624Y241308D01*
X168001Y242813D01*
X167149Y244202D01*
X166092Y245441D01*
X164853Y246499D01*
X163464Y247350D01*
X161959Y247974D01*
X160374Y248354D01*
X158750Y248482D01*
D02*
G37*
G36*
X431250Y33482D02*
X429626Y33354D01*
X428042Y32974D01*
X426537Y32350D01*
X425148Y31499D01*
X423909Y30441D01*
X422851Y29202D01*
X422000Y27813D01*
X421377Y26308D01*
X420996Y24724D01*
X420868Y23100D01*
X420996Y21476D01*
X421377Y19892D01*
X422000Y18387D01*
X422851Y16998D01*
X423909Y15759D01*
X425148Y14701D01*
X426537Y13850D01*
X428042Y13226D01*
X429626Y12846D01*
X431250Y12718D01*
X432874Y12846D01*
X434458Y13226D01*
X435964Y13850D01*
X437353Y14701D01*
X438591Y15759D01*
X439649Y16998D01*
X440501Y18387D01*
X441124Y19892D01*
X441504Y21476D01*
X441632Y23100D01*
X441504Y24724D01*
X441124Y26308D01*
X440501Y27813D01*
X439649Y29202D01*
X438591Y30441D01*
X437353Y31499D01*
X435964Y32350D01*
X434458Y32974D01*
X432874Y33354D01*
X431250Y33482D01*
D02*
G37*
G36*
X158750D02*
X157126Y33354D01*
X155542Y32974D01*
X154037Y32350D01*
X152648Y31499D01*
X151409Y30441D01*
X150351Y29202D01*
X149500Y27813D01*
X148876Y26308D01*
X148496Y24724D01*
X148368Y23100D01*
X148496Y21476D01*
X148876Y19892D01*
X149500Y18387D01*
X150351Y16998D01*
X151409Y15759D01*
X152648Y14701D01*
X154037Y13850D01*
X155542Y13226D01*
X157126Y12846D01*
X158750Y12718D01*
X160374Y12846D01*
X161959Y13226D01*
X163464Y13850D01*
X164853Y14701D01*
X166092Y15759D01*
X167149Y16998D01*
X168001Y18387D01*
X168624Y19892D01*
X169004Y21476D01*
X169132Y23100D01*
X169004Y24724D01*
X168624Y26308D01*
X168001Y27813D01*
X167149Y29202D01*
X166092Y30441D01*
X164853Y31499D01*
X163464Y32350D01*
X161959Y32974D01*
X160374Y33354D01*
X158750Y33482D01*
D02*
G37*
G36*
X304250Y61806D02*
X302945Y61634D01*
X301729Y61130D01*
X300684Y60329D01*
X299883Y59284D01*
X299379Y58068D01*
X299207Y56763D01*
X299379Y55458D01*
X299883Y54241D01*
X300684Y53197D01*
X300972Y52976D01*
Y42915D01*
X300684Y42694D01*
X299883Y41650D01*
X299379Y40433D01*
X299207Y39128D01*
X299379Y37823D01*
X299883Y36607D01*
X300684Y35562D01*
X301729Y34761D01*
X302945Y34257D01*
X304250Y34085D01*
X305556Y34257D01*
X306772Y34761D01*
X307816Y35562D01*
X308618Y36607D01*
X309122Y37823D01*
X309294Y39128D01*
X309122Y40433D01*
X308618Y41650D01*
X307816Y42694D01*
X307528Y42915D01*
Y52976D01*
X307816Y53197D01*
X308618Y54241D01*
X309122Y55458D01*
X309294Y56763D01*
X309122Y58068D01*
X308618Y59284D01*
X307816Y60329D01*
X306772Y61130D01*
X305556Y61634D01*
X304250Y61806D01*
D02*
G37*
G36*
X431250Y248482D02*
X429626Y248354D01*
X428042Y247974D01*
X426537Y247350D01*
X425148Y246499D01*
X423909Y245441D01*
X422851Y244202D01*
X422000Y242813D01*
X421377Y241308D01*
X420996Y239724D01*
X420868Y238100D01*
X420996Y236476D01*
X421377Y234892D01*
X422000Y233387D01*
X422851Y231998D01*
X423909Y230759D01*
X425148Y229701D01*
X426537Y228850D01*
X428042Y228226D01*
X429626Y227846D01*
X431250Y227718D01*
X432874Y227846D01*
X434458Y228226D01*
X435964Y228850D01*
X437353Y229701D01*
X438591Y230759D01*
X439649Y231998D01*
X440501Y233387D01*
X441124Y234892D01*
X441504Y236476D01*
X441632Y238100D01*
X441504Y239724D01*
X441124Y241308D01*
X440501Y242813D01*
X439649Y244202D01*
X438591Y245441D01*
X437353Y246499D01*
X435964Y247350D01*
X434458Y247974D01*
X432874Y248354D01*
X431250Y248482D01*
D02*
G37*
G36*
X34750Y86750D02*
X33180Y86595D01*
X31670Y86137D01*
X30278Y85393D01*
X29058Y84392D01*
X28056Y83172D01*
X27312Y81780D01*
X26854Y80270D01*
X26700Y78700D01*
X26854Y77129D01*
X27312Y75619D01*
X28056Y74227D01*
X29058Y73007D01*
X30278Y72006D01*
X31670Y71262D01*
X33180Y70804D01*
X34750Y70649D01*
X36321Y70804D01*
X37831Y71262D01*
X39223Y72006D01*
X40443Y73007D01*
X41444Y74227D01*
X42188Y75619D01*
X42646Y77129D01*
X42801Y78700D01*
X42646Y80270D01*
X42188Y81780D01*
X41444Y83172D01*
X40443Y84392D01*
X39223Y85393D01*
X37831Y86137D01*
X36321Y86595D01*
X34750Y86750D01*
D02*
G37*
G36*
X312639Y201394D02*
X302324D01*
Y191669D01*
Y184386D01*
X304204D01*
Y180237D01*
X304260Y179813D01*
X304315Y179389D01*
X304479Y178993D01*
X304643Y178598D01*
X305164Y177919D01*
X305164Y177919D01*
X305164Y177919D01*
X308611Y174472D01*
X308906Y174246D01*
X309290Y173951D01*
X310081Y173623D01*
X310929Y173512D01*
X315670D01*
X316520Y172859D01*
X317615Y172406D01*
X318790Y172251D01*
X319964Y172406D01*
X321059Y172859D01*
X321999Y173580D01*
X322720Y174520D01*
X323174Y175615D01*
X323328Y176790D01*
X323174Y177964D01*
X322720Y179059D01*
X321999Y179999D01*
X321059Y180720D01*
X319964Y181174D01*
X318790Y181329D01*
X317615Y181174D01*
X316520Y180720D01*
X315670Y180068D01*
X312287D01*
X310760Y181595D01*
Y184386D01*
X312639D01*
Y191669D01*
Y193512D01*
X315670D01*
X316520Y192859D01*
X317615Y192406D01*
X318790Y192251D01*
X319964Y192406D01*
X321059Y192859D01*
X321999Y193580D01*
X322720Y194520D01*
X323174Y195615D01*
X323328Y196790D01*
X323174Y197965D01*
X322720Y199059D01*
X321999Y199999D01*
X321059Y200721D01*
X319964Y201174D01*
X318790Y201329D01*
X317615Y201174D01*
X316520Y200721D01*
X315670Y200068D01*
X312639D01*
Y201394D01*
D02*
G37*
G36*
X118827Y189539D02*
X117652Y189384D01*
X116557Y188931D01*
X115617Y188209D01*
X114896Y187269D01*
X114443Y186175D01*
X114288Y185000D01*
X114443Y183825D01*
X114896Y182731D01*
X115617Y181791D01*
X116557Y181069D01*
X117652Y180616D01*
X118827Y180461D01*
X120001Y180616D01*
X121096Y181069D01*
X122036Y181791D01*
X122757Y182731D01*
X123211Y183825D01*
X123365Y185000D01*
X123211Y186175D01*
X122757Y187269D01*
X122036Y188209D01*
X121096Y188931D01*
X120001Y189384D01*
X118827Y189539D01*
D02*
G37*
G36*
X12750Y210448D02*
X11141Y210290D01*
X9594Y209820D01*
X8168Y209058D01*
X6918Y208032D01*
X5892Y206782D01*
X5130Y205356D01*
X4660Y203809D01*
X4502Y202200D01*
X4660Y200590D01*
X5130Y199043D01*
X5892Y197617D01*
X6918Y196367D01*
X8168Y195341D01*
X9594Y194579D01*
X11141Y194110D01*
X12750Y193951D01*
X14359Y194110D01*
X15907Y194579D01*
X17333Y195341D01*
X18583Y196367D01*
X19609Y197617D01*
X20371Y199043D01*
X20840Y200590D01*
X20999Y202200D01*
X20840Y203809D01*
X20371Y205356D01*
X19609Y206782D01*
X18583Y208032D01*
X17333Y209058D01*
X15907Y209820D01*
X14359Y210290D01*
X12750Y210448D01*
D02*
G37*
G36*
X114850Y200664D02*
X113545Y200492D01*
X112742Y200160D01*
X95958D01*
X95156Y200492D01*
X93850Y200664D01*
X92545Y200492D01*
X91329Y199988D01*
X90284Y199187D01*
X89483Y198143D01*
X88979Y196926D01*
X88807Y195621D01*
X88979Y194316D01*
X89483Y193099D01*
X90284Y192055D01*
X91329Y191253D01*
X92545Y190750D01*
X93850Y190578D01*
X95156Y190750D01*
X95958Y191082D01*
X112742D01*
X113545Y190750D01*
X114850Y190578D01*
X116156Y190750D01*
X117372Y191253D01*
X118416Y192055D01*
X119218Y193099D01*
X119722Y194316D01*
X119894Y195621D01*
X119722Y196926D01*
X119218Y198143D01*
X118416Y199187D01*
X117372Y199988D01*
X116156Y200492D01*
X114850Y200664D01*
D02*
G37*
G36*
X118827Y209539D02*
X117652Y209384D01*
X116557Y208931D01*
X115617Y208209D01*
X114896Y207269D01*
X114443Y206175D01*
X114288Y205000D01*
X114443Y203825D01*
X114896Y202731D01*
X115617Y201791D01*
X116557Y201069D01*
X117652Y200616D01*
X118827Y200461D01*
X120001Y200616D01*
X121096Y201069D01*
X122036Y201791D01*
X122757Y202731D01*
X123211Y203825D01*
X123365Y205000D01*
X123211Y206175D01*
X122757Y207269D01*
X122036Y208209D01*
X121096Y208931D01*
X120001Y209384D01*
X118827Y209539D01*
D02*
G37*
G36*
X254174Y188439D02*
X252999Y188284D01*
X251905Y187831D01*
X250964Y187109D01*
X250243Y186169D01*
X249790Y185075D01*
X249635Y183900D01*
X249790Y182725D01*
X250243Y181631D01*
X250964Y180691D01*
X251905Y179969D01*
X252999Y179516D01*
X254174Y179361D01*
X255349Y179516D01*
X256443Y179969D01*
X257383Y180691D01*
X258105Y181631D01*
X258558Y182725D01*
X258713Y183900D01*
X258558Y185075D01*
X258105Y186169D01*
X257383Y187109D01*
X256443Y187831D01*
X255349Y188284D01*
X254174Y188439D01*
D02*
G37*
G36*
X274350Y168393D02*
X273045Y168221D01*
X271829Y167717D01*
X270784Y166916D01*
X269983Y165871D01*
X269479Y164655D01*
X269307Y163350D01*
X269479Y162044D01*
X269983Y160828D01*
X270784Y159784D01*
X271829Y158982D01*
X273045Y158478D01*
X274350Y158307D01*
X275656Y158478D01*
X276872Y158982D01*
X277916Y159784D01*
X278137Y160072D01*
X292442D01*
X292981Y159658D01*
X294076Y159204D01*
X295250Y159050D01*
X296425Y159204D01*
X297520Y159658D01*
X298460Y160379D01*
X299181Y161319D01*
X299635Y162414D01*
X299789Y163589D01*
X299635Y164763D01*
X299181Y165858D01*
X298460Y166798D01*
X297520Y167519D01*
X296425Y167973D01*
X295250Y168127D01*
X294076Y167973D01*
X292981Y167519D01*
X292041Y166798D01*
X291910Y166628D01*
X278137D01*
X277916Y166916D01*
X276872Y167717D01*
X275656Y168221D01*
X274350Y168393D01*
D02*
G37*
G36*
X235670Y188439D02*
X234495Y188284D01*
X233401Y187831D01*
X232461Y187109D01*
X231739Y186169D01*
X231286Y185075D01*
X231131Y183900D01*
X231286Y182725D01*
X231739Y181631D01*
X232392Y180780D01*
Y180072D01*
X232448Y179648D01*
X232504Y179224D01*
X232667Y178829D01*
X232831Y178433D01*
X233352Y177754D01*
X249518Y161588D01*
X249658Y160525D01*
X250112Y159431D01*
X250833Y158491D01*
X251773Y157769D01*
X252868Y157316D01*
X254042Y157161D01*
X255217Y157316D01*
X256312Y157769D01*
X257252Y158491D01*
X257973Y159431D01*
X258427Y160525D01*
X258581Y161700D01*
X258427Y162875D01*
X257973Y163969D01*
X257252Y164909D01*
X256312Y165631D01*
X255217Y166084D01*
X254154Y166224D01*
X239230Y181148D01*
X239601Y181631D01*
X240054Y182725D01*
X240209Y183900D01*
X240054Y185075D01*
X239601Y186169D01*
X238879Y187109D01*
X237939Y187831D01*
X236845Y188284D01*
X235670Y188439D01*
D02*
G37*
G36*
X255350Y221839D02*
X254176Y221684D01*
X253081Y221231D01*
X252230Y220578D01*
X248550D01*
X248126Y220522D01*
X247702Y220466D01*
X247307Y220303D01*
X246911Y220139D01*
X246232Y219618D01*
X228793Y202178D01*
X224110D01*
X223259Y202831D01*
X222164Y203284D01*
X220990Y203439D01*
X219815Y203284D01*
X218720Y202831D01*
X217780Y202109D01*
X217059Y201169D01*
X216605Y200075D01*
X216451Y198900D01*
X216605Y197725D01*
X216735Y197412D01*
X216624Y197246D01*
X214070D01*
X213220Y197898D01*
X212125Y198352D01*
X210950Y198506D01*
X209776Y198352D01*
X208681Y197898D01*
X207741Y197177D01*
X207020Y196237D01*
X206566Y195142D01*
X206412Y193968D01*
X206566Y192793D01*
X207020Y191698D01*
X207741Y190758D01*
X208681Y190037D01*
X209776Y189584D01*
X210950Y189429D01*
X212125Y189584D01*
X213220Y190037D01*
X214070Y190690D01*
X268725D01*
X280226Y179188D01*
X280366Y178125D01*
X280820Y177031D01*
X281541Y176091D01*
X282481Y175369D01*
X283576Y174916D01*
X284750Y174761D01*
X285925Y174916D01*
X287020Y175369D01*
X287960Y176091D01*
X288681Y177031D01*
X289135Y178125D01*
X289289Y179300D01*
X289135Y180475D01*
X288681Y181569D01*
X287960Y182509D01*
X287020Y183231D01*
X285925Y183684D01*
X284862Y183824D01*
X272400Y196286D01*
X271722Y196807D01*
X271326Y196970D01*
X270931Y197134D01*
X270507Y197190D01*
X270083Y197246D01*
X233393D01*
X233317Y197431D01*
X249908Y214022D01*
X252230D01*
X253081Y213369D01*
X254176Y212916D01*
X255350Y212761D01*
X256525Y212916D01*
X257620Y213369D01*
X258560Y214091D01*
X259281Y215031D01*
X259735Y216125D01*
X259889Y217300D01*
X259735Y218475D01*
X259281Y219569D01*
X258560Y220509D01*
X257620Y221231D01*
X256525Y221684D01*
X255350Y221839D01*
D02*
G37*
G36*
X218150Y221655D02*
X216976Y221500D01*
X215881Y221047D01*
X215030Y220394D01*
X206467D01*
X205618Y220283D01*
X205059Y220051D01*
X204827Y219955D01*
X204533Y219729D01*
X204149Y219434D01*
X189209Y204495D01*
X189024Y204571D01*
Y209281D01*
X180087D01*
Y205541D01*
X172213D01*
Y205120D01*
X171576D01*
Y206704D01*
X161261D01*
Y205120D01*
X155085D01*
X154766Y205252D01*
X153853Y205372D01*
X152939Y205252D01*
X152088Y204899D01*
X151537Y204476D01*
X150836Y204384D01*
X149741Y203931D01*
X148802Y203209D01*
X148080Y202269D01*
X147627Y201175D01*
X147472Y200000D01*
X147627Y198825D01*
X148080Y197731D01*
X148802Y196791D01*
X149741Y196069D01*
X150836Y195616D01*
X152011Y195461D01*
X153186Y195616D01*
X154280Y196069D01*
X155220Y196791D01*
X155942Y197731D01*
X156287Y198564D01*
X161261D01*
Y196979D01*
Y189696D01*
X162350D01*
X162488Y189362D01*
X163209Y188422D01*
X168105Y183527D01*
X169045Y182805D01*
X169498Y182617D01*
X170140Y182352D01*
X171266Y182203D01*
X171253Y182004D01*
X163193D01*
Y180420D01*
X157723D01*
X138031Y200112D01*
X137891Y201175D01*
X137438Y202269D01*
X136716Y203209D01*
X135776Y203931D01*
X134682Y204384D01*
X133507Y204539D01*
X132332Y204384D01*
X131238Y203931D01*
X130298Y203209D01*
X129576Y202269D01*
X129123Y201175D01*
X128968Y200000D01*
X129123Y198825D01*
X129576Y197731D01*
X130298Y196791D01*
X131238Y196069D01*
X132332Y195616D01*
X133395Y195476D01*
X134238Y194634D01*
X134149Y194454D01*
X133507Y194539D01*
X132332Y194384D01*
X131238Y193931D01*
X130298Y193209D01*
X129576Y192269D01*
X129123Y191175D01*
X128968Y190000D01*
X129123Y188825D01*
X129576Y187731D01*
X130298Y186791D01*
X131238Y186069D01*
X132332Y185616D01*
X133507Y185461D01*
X134682Y185616D01*
X135776Y186069D01*
X136716Y186791D01*
X137438Y187731D01*
X137891Y188825D01*
X138046Y190000D01*
X137961Y190642D01*
X138141Y190731D01*
X154047Y174824D01*
X154431Y174529D01*
X154726Y174303D01*
X154958Y174207D01*
X155517Y173975D01*
X156365Y173864D01*
X163193D01*
Y173136D01*
X145007D01*
X138031Y180112D01*
X137891Y181175D01*
X137438Y182269D01*
X136716Y183209D01*
X135776Y183931D01*
X134682Y184384D01*
X133507Y184539D01*
X132332Y184384D01*
X131238Y183931D01*
X130298Y183209D01*
X129576Y182269D01*
X129123Y181175D01*
X128968Y180000D01*
X129123Y178825D01*
X129576Y177731D01*
X130298Y176791D01*
X131238Y176069D01*
X132332Y175616D01*
X133395Y175476D01*
X140798Y168073D01*
X140721Y167888D01*
X137317D01*
Y168015D01*
X128183D01*
Y167888D01*
X121031D01*
X119856Y167734D01*
X119227Y167473D01*
X115036D01*
Y167051D01*
X110687D01*
X109513Y166897D01*
X108418Y166443D01*
X108093Y166194D01*
X107399D01*
X107313Y166292D01*
X107282Y166528D01*
Y169934D01*
X105420D01*
X105043Y170223D01*
X103949Y170676D01*
X102774Y170831D01*
X92008D01*
Y171154D01*
X81693D01*
Y170785D01*
X80868Y170676D01*
X79773Y170223D01*
X78833Y169501D01*
X76841Y167509D01*
X76120Y166569D01*
X75932Y166116D01*
X75666Y165475D01*
X75511Y164300D01*
Y126108D01*
X75179Y125305D01*
X75007Y124000D01*
X75179Y122695D01*
X75683Y121478D01*
X76484Y120434D01*
X77529Y119632D01*
X78745Y119129D01*
X80050Y118957D01*
X81356Y119129D01*
X82572Y119632D01*
X83616Y120434D01*
X84418Y121478D01*
X84922Y122695D01*
X85093Y124000D01*
X84922Y125305D01*
X84589Y126108D01*
Y154146D01*
X92008D01*
Y155494D01*
X98345D01*
Y155091D01*
X99535D01*
Y112137D01*
X99591Y111713D01*
X99647Y111289D01*
X99811Y110893D01*
X99974Y110498D01*
X100495Y109819D01*
X100495Y109819D01*
X100495Y109819D01*
X127732Y82582D01*
X128072Y82322D01*
X128411Y82061D01*
X128807Y81897D01*
X129202Y81734D01*
X129626Y81678D01*
X130050Y81622D01*
X198459D01*
X198883Y81678D01*
X199307Y81734D01*
X199703Y81897D01*
X200098Y82061D01*
X200777Y82582D01*
X208369Y90175D01*
X209119Y90076D01*
X210542Y90263D01*
X211869Y90813D01*
X213008Y91687D01*
X213882Y92826D01*
X214019Y93156D01*
X214219D01*
X214356Y92826D01*
X215230Y91687D01*
X216369Y90813D01*
X217695Y90263D01*
X219119Y90076D01*
X220542Y90263D01*
X221869Y90813D01*
X223008Y91687D01*
X223882Y92826D01*
X224019Y93156D01*
X224219D01*
X224356Y92826D01*
X225230Y91687D01*
X226369Y90813D01*
X227695Y90263D01*
X229119Y90076D01*
X229747Y90158D01*
X237624Y82282D01*
X237624D01*
X237624Y82282D01*
X237624Y82282D01*
Y82282D01*
X238303Y81761D01*
X238698Y81597D01*
X239093Y81434D01*
X239517Y81378D01*
X239942Y81322D01*
X249963D01*
X251541Y79744D01*
X251477Y79554D01*
X250397Y79412D01*
X249071Y78863D01*
X247932Y77989D01*
X247058Y76850D01*
X246920Y76519D01*
X246721D01*
X246584Y76850D01*
X245709Y77989D01*
X244570Y78863D01*
X243244Y79412D01*
X241821Y79600D01*
X240397Y79412D01*
X239071Y78863D01*
X237932Y77989D01*
X237058Y76850D01*
X236508Y75524D01*
X236321Y74100D01*
X236508Y72676D01*
X237058Y71350D01*
X237932Y70211D01*
X239071Y69337D01*
X240397Y68788D01*
X241821Y68600D01*
X243244Y68788D01*
X244570Y69337D01*
X245709Y70211D01*
X246584Y71350D01*
X246721Y71681D01*
X246920D01*
X247058Y71350D01*
X247932Y70211D01*
X249071Y69337D01*
X249401Y69200D01*
Y69000D01*
X249071Y68863D01*
X247932Y67989D01*
X247058Y66850D01*
X246508Y65523D01*
X246321Y64100D01*
X246508Y62677D01*
X247058Y61350D01*
X247932Y60211D01*
X249071Y59337D01*
X250397Y58788D01*
X251820Y58600D01*
X253244Y58788D01*
X254570Y59337D01*
X255710Y60211D01*
X256583Y61350D01*
X256720Y61681D01*
X256921D01*
X257058Y61350D01*
X257932Y60211D01*
X259071Y59337D01*
X260397Y58788D01*
X261821Y58600D01*
X263244Y58788D01*
X264570Y59337D01*
X265709Y60211D01*
X266583Y61350D01*
X267133Y62677D01*
X267320Y64100D01*
X267133Y65523D01*
X266583Y66850D01*
X265709Y67989D01*
X265098Y68458D01*
X265163Y68647D01*
X267273D01*
Y79553D01*
X261004D01*
X253639Y86918D01*
X252960Y87439D01*
X252564Y87603D01*
X252169Y87766D01*
X251745Y87822D01*
X251321Y87878D01*
X241300D01*
X239264Y89914D01*
X239328Y90103D01*
X240542Y90263D01*
X241869Y90813D01*
X243008Y91687D01*
X243882Y92826D01*
X244019Y93156D01*
X244219D01*
X244356Y92826D01*
X245230Y91687D01*
X246369Y90813D01*
X247695Y90263D01*
X249119Y90076D01*
X250542Y90263D01*
X251869Y90813D01*
X253008Y91687D01*
X253882Y92826D01*
X254019Y93156D01*
X254219D01*
X254356Y92826D01*
X255230Y91687D01*
X256369Y90813D01*
X257695Y90263D01*
X259119Y90076D01*
X260542Y90263D01*
X261869Y90813D01*
X263008Y91687D01*
X263882Y92826D01*
X264431Y94152D01*
X264619Y95576D01*
X264431Y96999D01*
X263882Y98326D01*
X263008Y99464D01*
X261869Y100339D01*
X260542Y100888D01*
X259119Y101075D01*
X258220Y100957D01*
X257452Y101725D01*
Y109453D01*
X267505D01*
Y110939D01*
X268832D01*
Y110339D01*
X277966D01*
Y119670D01*
X276677D01*
Y120505D01*
X276844Y120616D01*
X277695Y120263D01*
X279119Y120076D01*
X280542Y120263D01*
X281869Y120813D01*
X283008Y121687D01*
X283882Y122826D01*
X284019Y123156D01*
X284219D01*
X284356Y122826D01*
X285230Y121687D01*
X286369Y120813D01*
X287695Y120263D01*
X289119Y120076D01*
X290270Y120227D01*
X290420Y120095D01*
Y117871D01*
X276554Y104005D01*
X275993Y103274D01*
X275640Y102422D01*
X275520Y101509D01*
Y99687D01*
X275230Y99464D01*
X274356Y98326D01*
X273806Y96999D01*
X273619Y95576D01*
X273806Y94152D01*
X274356Y92826D01*
X275230Y91687D01*
X276369Y90813D01*
X277012Y90546D01*
X277051Y90350D01*
X271032Y84331D01*
X270511Y83652D01*
X270347Y83257D01*
X270184Y82862D01*
X270128Y82437D01*
X270072Y82013D01*
Y45787D01*
X269784Y45566D01*
X268983Y44521D01*
X268479Y43305D01*
X268307Y42000D01*
X268479Y40694D01*
X268983Y39478D01*
X269784Y38434D01*
X270829Y37632D01*
X272045Y37128D01*
X273350Y36957D01*
X274655Y37128D01*
X275872Y37632D01*
X276916Y38434D01*
X277718Y39478D01*
X278221Y40694D01*
X278393Y42000D01*
X278221Y43305D01*
X277718Y44521D01*
X276916Y45566D01*
X276628Y45787D01*
Y80655D01*
X286618Y90645D01*
X286655Y90694D01*
X287695Y90263D01*
X289119Y90076D01*
X290542Y90263D01*
X291869Y90813D01*
X293008Y91687D01*
X293882Y92826D01*
X294019Y93156D01*
X294219D01*
X294356Y92826D01*
X295230Y91687D01*
X296369Y90813D01*
X297695Y90263D01*
X299119Y90076D01*
X300542Y90263D01*
X301869Y90813D01*
X303008Y91687D01*
X303882Y92826D01*
X304019Y93156D01*
X304219D01*
X304356Y92826D01*
X305230Y91687D01*
X306369Y90813D01*
X307695Y90263D01*
X309119Y90076D01*
X310542Y90263D01*
X311869Y90813D01*
X313008Y91687D01*
X313882Y92826D01*
X314019Y93156D01*
X314219D01*
X314356Y92826D01*
X315230Y91687D01*
X316369Y90813D01*
X317695Y90263D01*
X319119Y90076D01*
X320542Y90263D01*
X321869Y90813D01*
X323008Y91687D01*
X323882Y92826D01*
X324019Y93156D01*
X324219D01*
X324356Y92826D01*
X325230Y91687D01*
X326369Y90813D01*
X327695Y90263D01*
X329119Y90076D01*
X330542Y90263D01*
X331869Y90813D01*
X333008Y91687D01*
X333882Y92826D01*
X334431Y94152D01*
X334619Y95576D01*
X334431Y96999D01*
X333882Y98326D01*
X333008Y99464D01*
X331869Y100339D01*
X330542Y100888D01*
X329119Y101075D01*
X327695Y100888D01*
X326369Y100339D01*
X325230Y99464D01*
X324356Y98326D01*
X324219Y97995D01*
X324019D01*
X323882Y98326D01*
X323008Y99464D01*
X321869Y100339D01*
X320542Y100888D01*
X319119Y101075D01*
X317695Y100888D01*
X316369Y100339D01*
X315230Y99464D01*
X314356Y98326D01*
X314219Y97995D01*
X314019D01*
X313882Y98326D01*
X313008Y99464D01*
X311869Y100339D01*
X310542Y100888D01*
X309119Y101075D01*
X307695Y100888D01*
X306369Y100339D01*
X305230Y99464D01*
X304356Y98326D01*
X304219Y97995D01*
X304019D01*
X303882Y98326D01*
X303008Y99464D01*
X301869Y100339D01*
X300542Y100888D01*
X299119Y101075D01*
X297695Y100888D01*
X296369Y100339D01*
X295230Y99464D01*
X294356Y98326D01*
X294219Y97995D01*
X294019D01*
X293882Y98326D01*
X293008Y99464D01*
X291869Y100339D01*
X290542Y100888D01*
X290353Y100913D01*
X290288Y101102D01*
X303808Y114622D01*
X321459D01*
X321883Y114678D01*
X322307Y114734D01*
X322703Y114897D01*
X323098Y115061D01*
X323777Y115582D01*
X323777Y115582D01*
X323777Y115582D01*
X328318Y120123D01*
X334572D01*
Y131028D01*
X323666D01*
Y128918D01*
X323477Y128853D01*
X323008Y129464D01*
X321869Y130339D01*
X320542Y130888D01*
X319119Y131075D01*
X317695Y130888D01*
X316369Y130339D01*
X315230Y129464D01*
X314356Y128325D01*
X314219Y127995D01*
X314019D01*
X313882Y128325D01*
X313008Y129464D01*
X311869Y130339D01*
X310542Y130888D01*
X309119Y131075D01*
X307695Y130888D01*
X306369Y130339D01*
X305230Y129464D01*
X304356Y128325D01*
X304219Y127995D01*
X304019D01*
X303882Y128325D01*
X303008Y129464D01*
X301869Y130339D01*
X301549Y130471D01*
X301510Y130667D01*
X344847Y174004D01*
X345408Y174735D01*
X345760Y175586D01*
X345881Y176500D01*
X345881Y176500D01*
X345881Y176500D01*
Y176500D01*
Y182986D01*
X346065Y183063D01*
X347450Y181678D01*
X347590Y180615D01*
X348043Y179520D01*
X348764Y178580D01*
X349705Y177859D01*
X350799Y177406D01*
X351974Y177251D01*
X353149Y177406D01*
X354243Y177859D01*
X355183Y178580D01*
X355905Y179520D01*
X356358Y180615D01*
X356513Y181790D01*
X356358Y182965D01*
X355905Y184059D01*
X355183Y184999D01*
X354243Y185721D01*
X353149Y186174D01*
X352086Y186314D01*
X351243Y187156D01*
X351332Y187335D01*
X351974Y187251D01*
X353149Y187406D01*
X354243Y187859D01*
X355094Y188512D01*
X418561D01*
X418985Y188568D01*
X419409Y188623D01*
X419804Y188787D01*
X420200Y188951D01*
X420879Y189472D01*
X420879Y189472D01*
X420879Y189472D01*
X425062Y193655D01*
X426125Y193795D01*
X427220Y194249D01*
X428160Y194970D01*
X428881Y195910D01*
X429334Y197005D01*
X429489Y198179D01*
X429334Y199354D01*
X428881Y200449D01*
X428160Y201389D01*
X427220Y202110D01*
X426125Y202564D01*
X424950Y202718D01*
X423776Y202564D01*
X422681Y202110D01*
X421741Y201389D01*
X421020Y200449D01*
X420566Y199354D01*
X420426Y198291D01*
X417203Y195068D01*
X359315D01*
X359239Y195253D01*
X362268Y198282D01*
X362789Y198961D01*
X363117Y199752D01*
X363228Y200600D01*
Y208600D01*
X363117Y209448D01*
X362789Y210239D01*
X362494Y210623D01*
X362268Y210918D01*
X361374Y211812D01*
X361234Y212875D01*
X360781Y213969D01*
X360060Y214909D01*
X359120Y215631D01*
X358025Y216084D01*
X356850Y216239D01*
X355676Y216084D01*
X354581Y215631D01*
X353641Y214909D01*
X352920Y213969D01*
X352466Y212875D01*
X352311Y211700D01*
X352466Y210525D01*
X352920Y209431D01*
X353641Y208491D01*
X354581Y207769D01*
X355676Y207316D01*
X356672Y207185D01*
Y205300D01*
X356493Y205212D01*
X355830Y205720D01*
X354735Y206174D01*
X353561Y206329D01*
X352386Y206174D01*
X351291Y205720D01*
X350769Y205320D01*
X346040D01*
X345126Y205200D01*
X344275Y204847D01*
X343544Y204286D01*
X339854Y200596D01*
X339293Y199865D01*
X338940Y199014D01*
X338820Y198100D01*
Y183963D01*
X338624Y183924D01*
X338481Y184269D01*
X337828Y185120D01*
Y196686D01*
X337772Y197110D01*
X337717Y197535D01*
X337553Y197930D01*
X337389Y198325D01*
X337094Y198709D01*
X336868Y199004D01*
X324254Y211618D01*
X323575Y212139D01*
X323180Y212303D01*
X322785Y212466D01*
X322361Y212522D01*
X321936Y212578D01*
X311224D01*
X310781Y213647D01*
X310060Y214587D01*
X309120Y215309D01*
X308025Y215762D01*
X306850Y215917D01*
X305676Y215762D01*
X304581Y215309D01*
X303641Y214587D01*
X302920Y213647D01*
X302466Y212553D01*
X302311Y211378D01*
X302466Y210203D01*
X302920Y209108D01*
X303641Y208169D01*
X304581Y207447D01*
X305676Y206994D01*
X306785Y206848D01*
X306995Y206687D01*
X307289Y206461D01*
X307521Y206365D01*
X308080Y206134D01*
X308928Y206022D01*
X320579D01*
X331272Y195328D01*
Y185120D01*
X330620Y184269D01*
X330166Y183175D01*
X330012Y182000D01*
X330166Y180825D01*
X330620Y179731D01*
X331341Y178791D01*
X332281Y178069D01*
X333376Y177616D01*
X334550Y177461D01*
X335725Y177616D01*
X336820Y178069D01*
X337760Y178791D01*
X338481Y179731D01*
X338624Y180076D01*
X338820Y180037D01*
Y177962D01*
X291454Y130596D01*
X291404Y130531D01*
X290542Y130888D01*
X289119Y131075D01*
X287695Y130888D01*
X286369Y130339D01*
X285230Y129464D01*
X284356Y128325D01*
X284219Y127995D01*
X284019D01*
X283882Y128325D01*
X283008Y129464D01*
X281869Y130339D01*
X280542Y130888D01*
X279119Y131075D01*
X277695Y130888D01*
X276369Y130339D01*
X275230Y129464D01*
X274356Y128325D01*
X274219Y127995D01*
X274019D01*
X273882Y128325D01*
X273008Y129464D01*
X271869Y130339D01*
X270542Y130888D01*
X269119Y131075D01*
X267695Y130888D01*
X266369Y130339D01*
X265230Y129464D01*
X264356Y128325D01*
X263806Y126999D01*
X263619Y125576D01*
X263806Y124152D01*
X264356Y122826D01*
X265230Y121687D01*
X266369Y120813D01*
X267695Y120263D01*
X269119Y120076D01*
X269747Y120159D01*
X270051Y119855D01*
X269974Y119670D01*
X268832D01*
Y117495D01*
X267505D01*
Y118981D01*
X256796D01*
Y117495D01*
X256468D01*
X255619Y117384D01*
X255060Y117152D01*
X254829Y117056D01*
X254534Y116830D01*
X254150Y116535D01*
X251856Y114242D01*
X251335Y113563D01*
X251171Y113167D01*
X251008Y112772D01*
X250952Y112348D01*
X250896Y111924D01*
Y100921D01*
X250730Y100810D01*
X250542Y100888D01*
X249119Y101075D01*
X247695Y100888D01*
X246369Y100339D01*
X245230Y99464D01*
X244356Y98326D01*
X244219Y97995D01*
X244019D01*
X243882Y98326D01*
X243008Y99464D01*
X241869Y100339D01*
X240542Y100888D01*
X239119Y101075D01*
X237695Y100888D01*
X236369Y100339D01*
X235230Y99464D01*
X234356Y98326D01*
X234219Y97995D01*
X234019D01*
X233882Y98326D01*
X233008Y99464D01*
X231869Y100339D01*
X230542Y100888D01*
X229119Y101075D01*
X227695Y100888D01*
X226369Y100339D01*
X225230Y99464D01*
X224356Y98326D01*
X224219Y97995D01*
X224019D01*
X223882Y98326D01*
X223008Y99464D01*
X221869Y100339D01*
X220542Y100888D01*
X219119Y101075D01*
X217695Y100888D01*
X216369Y100339D01*
X215230Y99464D01*
X214356Y98326D01*
X214219Y97995D01*
X214019D01*
X213882Y98326D01*
X213008Y99464D01*
X211869Y100339D01*
X210542Y100888D01*
X209119Y101075D01*
X207695Y100888D01*
X206369Y100339D01*
X205230Y99464D01*
X204356Y98326D01*
X204219Y97995D01*
X204019D01*
X203882Y98326D01*
X203008Y99464D01*
X201869Y100339D01*
X200542Y100888D01*
X199119Y101075D01*
X197695Y100888D01*
X196369Y100339D01*
X195230Y99464D01*
X194356Y98326D01*
X193806Y96999D01*
X193619Y95576D01*
X193806Y94152D01*
X194356Y92826D01*
X195230Y91687D01*
X196369Y90813D01*
X197695Y90263D01*
X198789Y90119D01*
X198853Y89930D01*
X197101Y88178D01*
X131408D01*
X106091Y113495D01*
Y155091D01*
X107282D01*
Y158832D01*
X108093D01*
X108418Y158582D01*
X109513Y158128D01*
X110687Y157974D01*
X115036D01*
Y157946D01*
X125745D01*
Y158811D01*
X128183D01*
Y158684D01*
X137317D01*
Y158811D01*
X146298D01*
X147465Y157644D01*
X147797Y156841D01*
X148599Y155797D01*
X149643Y154996D01*
X150859Y154492D01*
X152164Y154320D01*
X153470Y154492D01*
X154686Y154996D01*
X155730Y155797D01*
X156532Y156841D01*
X157036Y158058D01*
X157208Y159363D01*
X157036Y160668D01*
X156532Y161885D01*
X155730Y162929D01*
X154686Y163731D01*
X153883Y164063D01*
X151551Y166395D01*
X151627Y166580D01*
X163193D01*
Y164996D01*
X173508D01*
Y172280D01*
Y173864D01*
X179996D01*
Y172378D01*
X190705D01*
Y181905D01*
X179996D01*
Y180420D01*
X173508D01*
Y181866D01*
X173674Y181977D01*
X173945Y181865D01*
X175250Y181693D01*
X176556Y181865D01*
X177772Y182368D01*
X178816Y183170D01*
X179618Y184214D01*
X180122Y185431D01*
X180294Y186736D01*
X180122Y188041D01*
X179618Y189258D01*
X178816Y190302D01*
X177772Y191103D01*
X176556Y191607D01*
X175250Y191779D01*
X173945Y191607D01*
X173179Y191290D01*
X171576Y192893D01*
Y196979D01*
Y198564D01*
X172213D01*
Y198179D01*
X177861D01*
X177972Y198012D01*
X177666Y197274D01*
X177512Y196100D01*
X177666Y194925D01*
X178120Y193830D01*
X178841Y192890D01*
X179781Y192169D01*
X180876Y191716D01*
X182050Y191561D01*
X183225Y191716D01*
X184320Y192169D01*
X185170Y192822D01*
X185450D01*
X185874Y192877D01*
X186298Y192933D01*
X186694Y193097D01*
X187089Y193261D01*
X187768Y193782D01*
X207824Y213838D01*
X215030D01*
X215881Y213186D01*
X216976Y212732D01*
X218150Y212577D01*
X219325Y212732D01*
X220420Y213186D01*
X221360Y213907D01*
X222081Y214847D01*
X222534Y215942D01*
X222689Y217116D01*
X222534Y218291D01*
X222081Y219386D01*
X221360Y220326D01*
X220420Y221047D01*
X219325Y221500D01*
X218150Y221655D01*
D02*
G37*
G36*
X152011Y214539D02*
X150836Y214384D01*
X149741Y213931D01*
X148802Y213209D01*
X148080Y212269D01*
X147627Y211175D01*
X147472Y210000D01*
X147627Y208825D01*
X148080Y207731D01*
X148802Y206791D01*
X149741Y206069D01*
X150836Y205616D01*
X152011Y205461D01*
X153186Y205616D01*
X154280Y206069D01*
X155220Y206791D01*
X155942Y207731D01*
X156395Y208825D01*
X156550Y210000D01*
X156395Y211175D01*
X155942Y212269D01*
X155220Y213209D01*
X154280Y213931D01*
X153186Y214384D01*
X152011Y214539D01*
D02*
G37*
%LPD*%
D14*
X484150Y106100D02*
D03*
Y121700D02*
D03*
D15*
X500350Y116100D02*
D03*
Y111900D02*
D03*
D17*
X132750Y163350D02*
D03*
Y155476D02*
D03*
X273399Y115005D02*
D03*
Y107131D02*
D03*
X498008Y73337D02*
D03*
Y65463D02*
D03*
D20*
X474719Y207732D02*
D03*
X467435D02*
D03*
X501850Y46900D02*
D03*
X494567D02*
D03*
X443867Y53500D02*
D03*
X451150D02*
D03*
X485550Y46900D02*
D03*
X478267D02*
D03*
D21*
X168350Y169858D02*
D03*
Y177142D02*
D03*
X307482Y189248D02*
D03*
Y196531D02*
D03*
X166419Y194558D02*
D03*
Y201842D02*
D03*
X86850Y166292D02*
D03*
Y159009D02*
D03*
X485050Y209580D02*
D03*
Y216863D02*
D03*
X468109Y53842D02*
D03*
Y46558D02*
D03*
D22*
X185350Y177142D02*
D03*
Y169858D02*
D03*
X120390Y162709D02*
D03*
Y155426D02*
D03*
X262150Y106934D02*
D03*
Y114217D02*
D03*
X467035Y189500D02*
D03*
Y196783D02*
D03*
X495450Y188558D02*
D03*
Y195842D02*
D03*
X459709Y65916D02*
D03*
Y73200D02*
D03*
X468709Y73242D02*
D03*
Y65958D02*
D03*
D23*
X132392Y101323D02*
D03*
X125109D02*
D03*
X430492Y162513D02*
D03*
X423209D02*
D03*
X132392Y119960D02*
D03*
X125109D02*
D03*
X501950Y30700D02*
D03*
X494667D02*
D03*
D25*
X485050Y197048D02*
Y209580D01*
X484974Y196972D02*
X485050Y197048D01*
X474719Y207732D02*
X475526Y206925D01*
Y196972D02*
Y206925D01*
X153853Y201842D02*
X166419D01*
X176664D01*
X176682Y201860D01*
X307482Y180237D02*
Y189248D01*
Y180237D02*
X310929Y176790D01*
X318790D01*
X351974Y191790D02*
X418561D01*
X424950Y198179D01*
X156365Y177142D02*
X168350D01*
X133507Y200000D02*
X156365Y177142D01*
X185350D02*
X185350Y177142D01*
X168350Y177142D02*
X185350D01*
X511250Y30700D02*
X511750Y30200D01*
X501850Y30800D02*
Y46900D01*
X484974Y189492D02*
X494517D01*
X495450Y188558D01*
X500350Y183658D01*
X494567Y30800D02*
Y46900D01*
X485550Y46900D02*
X494566D01*
X321459Y117900D02*
X329050Y125491D01*
X302450Y117900D02*
X321459D01*
X284300Y99750D02*
X302450Y117900D01*
X284300Y92963D02*
Y99750D01*
X273350Y82013D02*
X284300Y92963D01*
X273350Y42000D02*
Y82013D01*
X481536Y75600D02*
Y85100D01*
X475401Y216863D02*
X485050D01*
X251321Y84600D02*
X261821Y74100D01*
X239942Y84600D02*
X251321D01*
X229050Y95491D02*
X239942Y84600D01*
X304250Y39128D02*
Y56763D01*
X102774Y166292D02*
X102813Y166253D01*
X262150Y114217D02*
X272612D01*
X273399Y115005D02*
Y121142D01*
X269050Y125491D02*
X273399Y121142D01*
X256468Y114217D02*
X262150D01*
X254174Y111924D02*
X256468Y114217D01*
X254174Y100368D02*
Y111924D01*
Y100368D02*
X259050Y95491D01*
X295011Y163350D02*
X295250Y163589D01*
X274350Y163350D02*
X295011D01*
X270850Y220494D02*
Y242700D01*
X347050Y194700D02*
X349450Y197100D01*
X347050Y186713D02*
Y194700D01*
Y186713D02*
X351974Y181790D01*
X349450Y197100D02*
X356450D01*
X359950Y200600D01*
X356850Y211700D02*
X359950Y208600D01*
Y200600D02*
Y208600D01*
X143649Y169858D02*
X168350D01*
X133507Y180000D02*
X143649Y169858D01*
X467035Y189500D02*
X475518D01*
X475526Y189492D01*
X458350Y189500D02*
X467035D01*
X458350Y188800D02*
X460850D01*
X86850Y159009D02*
X87086Y158772D01*
X102813D01*
X198459Y84900D02*
X209050Y95491D01*
X102813Y112137D02*
Y158772D01*
Y112137D02*
X130050Y84900D01*
X198459D01*
X307740Y196790D02*
X318790D01*
X307482Y196531D02*
X307740Y196790D01*
X321936Y209300D02*
X334550Y196686D01*
Y182000D02*
Y196686D01*
X308928Y209300D02*
X321936D01*
X306850Y211378D02*
X308928Y209300D01*
X270083Y193968D02*
X284750Y179300D01*
X210950Y193968D02*
X270083D01*
X479540Y65816D02*
X483477Y69753D01*
X477429Y65958D02*
X478556Y64831D01*
X120390Y155426D02*
X132701D01*
X467435Y197183D02*
Y207732D01*
X467035Y196783D02*
X467435Y197183D01*
X484607Y193600D02*
X484974Y193232D01*
X492840D02*
X495450Y195842D01*
X262150Y106934D02*
X273202D01*
X273399Y107131D01*
Y99840D02*
Y107131D01*
X269050Y95491D02*
X273399Y99840D01*
X125109Y101323D02*
Y119960D01*
X235670Y180072D02*
Y183900D01*
Y180072D02*
X254042Y161700D01*
X182050Y196100D02*
X185450D01*
X206467Y217116D01*
X218150D01*
X220990Y198900D02*
X230150D01*
X248550Y217300D01*
X255350D01*
X430492Y162513D02*
X430925Y162080D01*
X150057Y101323D02*
X150650Y101917D01*
X132392Y101323D02*
X150057D01*
X150650Y101917D02*
X163334Y114600D01*
X238159D01*
X249050Y125491D01*
X132392Y119960D02*
X149481D01*
X166550Y119300D02*
X232859D01*
X239050Y125491D01*
X149481Y119960D02*
X150650Y121129D01*
X164721D02*
X166550Y119300D01*
X150650Y121129D02*
X164721D01*
D26*
X468109Y53842D02*
X475260Y60993D01*
X152011Y200000D02*
X153853Y201842D01*
X458350Y188800D02*
Y189500D01*
X468709Y65958D02*
X477429D01*
X467035Y196783D02*
X469067D01*
X472250Y193600D01*
X484607D01*
X484974Y193232D02*
X492840D01*
X293950Y116409D02*
Y128100D01*
X279050Y101509D02*
X293950Y116409D01*
X279050Y95491D02*
Y101509D01*
X342350Y198100D02*
X346040Y201790D01*
X353561D01*
X293950Y128100D02*
X342350Y176500D01*
Y198100D01*
X602027Y14553D02*
X608729Y7850D01*
X577448Y14553D02*
X602027D01*
X565000Y27000D02*
X577448Y14553D01*
X619250Y7850D02*
X638400Y27000D01*
X664501D01*
X685850Y20950D02*
Y37350D01*
X680050Y15150D02*
X685850Y20950D01*
X636550Y15150D02*
X680050D01*
X664200Y59000D02*
X685850Y37350D01*
X664200Y59000D02*
Y111600D01*
X629250Y7850D02*
X636550Y15150D01*
X666850Y34950D02*
X672632Y29168D01*
X582751Y34950D02*
X666850D01*
X575000Y27200D02*
X582751Y34950D01*
D27*
X467767Y53500D02*
X468109Y53842D01*
X463308Y80400D02*
X473306D01*
X449635Y73200D02*
X459709D01*
Y76800D01*
X463308Y80400D01*
D28*
X451150Y53500D02*
X467767D01*
X501950Y30700D02*
X511250D01*
X80050Y124000D02*
Y164300D01*
X82042Y166292D02*
X86850D01*
X102774D01*
X80050Y164300D02*
X82042Y166292D01*
X171314Y186736D02*
X175250D01*
X166419Y191631D02*
X171314Y186736D01*
X93850Y195621D02*
X114850D01*
X148178Y163350D02*
X152164Y159363D01*
X132750Y163350D02*
X148178D01*
X120390Y162709D02*
X121031Y163350D01*
X120194Y162513D02*
X120390Y162709D01*
X121031Y163350D02*
X132750D01*
X110687Y162513D02*
X120194D01*
X458350Y214000D02*
X461214Y216863D01*
X468109Y46558D02*
X477925D01*
X401078Y133000D02*
X439813D01*
X394561Y139517D02*
X401078Y133000D01*
D29*
X189150Y27300D02*
X397091D01*
X153782Y62668D02*
X189150Y27300D01*
X140182Y62668D02*
X153782D01*
X443867Y67432D02*
X449635Y73200D01*
X443867Y53500D02*
Y67432D01*
X423290Y53500D02*
X443867D01*
X397091Y27300D02*
X423290Y53500D01*
X500350Y120800D02*
X502850Y118300D01*
X458350Y189500D02*
Y214000D01*
X417557Y162513D02*
X423209D01*
X394561Y139517D02*
X417557Y162513D01*
D30*
X461214Y216863D02*
X469299D01*
D31*
X497481Y85100D02*
X514850D01*
X502850Y118300D02*
X514250D01*
X514850Y85100D02*
X517050Y87300D01*
Y115500D01*
X514250Y118300D02*
X517050Y115500D01*
X447724Y173874D02*
X460850Y187000D01*
X447724Y146500D02*
Y173874D01*
D33*
X696300Y0D02*
Y260000D01*
X-0D02*
X696300D01*
X-0Y0D02*
X696300D01*
X-0D02*
Y260000D01*
D34*
X678750Y225800D02*
D03*
X688050D02*
D03*
X668950Y251607D02*
D03*
Y241800D02*
D03*
X688050Y201400D02*
D03*
X678750Y201463D02*
D03*
X668650Y173400D02*
D03*
Y183207D02*
D03*
X601550Y183107D02*
D03*
Y173300D02*
D03*
X611650Y201363D02*
D03*
X620950Y201300D02*
D03*
X601850Y241700D02*
D03*
Y251507D02*
D03*
X620950Y225700D02*
D03*
X611650D02*
D03*
D35*
X667350Y197500D02*
D03*
X600250Y197400D02*
D03*
X41850Y156100D02*
D03*
X329119Y125576D02*
D03*
D36*
X667350Y207576D02*
D03*
Y217652D02*
D03*
Y227727D02*
D03*
X600250Y227627D02*
D03*
Y217551D02*
D03*
Y207476D02*
D03*
X261821Y64100D02*
D03*
X251820Y74100D02*
D03*
Y64100D02*
D03*
X241821Y74100D02*
D03*
Y64100D02*
D03*
X649250Y7850D02*
D03*
X639250D02*
D03*
X629250D02*
D03*
X619250D02*
D03*
X599250D02*
D03*
X609250D02*
D03*
X41850Y196100D02*
D03*
Y186100D02*
D03*
Y176100D02*
D03*
Y166100D02*
D03*
X618050Y95650D02*
D03*
X319119Y125576D02*
D03*
X309119D02*
D03*
X299119D02*
D03*
X289119D02*
D03*
X279119D02*
D03*
X269119D02*
D03*
X259119D02*
D03*
X249119D02*
D03*
X239119D02*
D03*
X229119D02*
D03*
X219119D02*
D03*
X209119D02*
D03*
X199119D02*
D03*
X329119Y95576D02*
D03*
X319119D02*
D03*
X309119D02*
D03*
X299119D02*
D03*
X289119D02*
D03*
X279119D02*
D03*
X269119D02*
D03*
X259119D02*
D03*
X249119D02*
D03*
X239119D02*
D03*
X229119D02*
D03*
X219119D02*
D03*
X209119D02*
D03*
X199119D02*
D03*
X652650Y172400D02*
D03*
X647650Y177400D02*
D03*
X689310Y177370D02*
D03*
X684680Y172370D02*
D03*
Y253500D02*
D03*
X689310Y248870D02*
D03*
X651950Y253500D02*
D03*
X646950Y248870D02*
D03*
X579850Y248770D02*
D03*
X584850Y253400D02*
D03*
X622210Y248770D02*
D03*
X617580Y253400D02*
D03*
Y172270D02*
D03*
X622210Y177270D02*
D03*
X580550Y177300D02*
D03*
X585550Y172300D02*
D03*
D37*
X34750Y78700D02*
D03*
X19750D02*
D03*
D38*
X27250Y57700D02*
D03*
Y30700D02*
D03*
D39*
X674200Y111800D02*
D03*
X664200Y111600D02*
D03*
X674501Y27200D02*
D03*
X664501Y27000D02*
D03*
X575000Y27200D02*
D03*
X565000Y27000D02*
D03*
D40*
X12750Y146700D02*
D03*
Y165200D02*
D03*
Y183700D02*
D03*
Y202200D02*
D03*
D41*
X261821Y74100D02*
D03*
X589250Y7850D02*
D03*
X628050Y95650D02*
D03*
D42*
X150650Y101917D02*
D03*
D43*
Y121129D02*
D03*
D44*
X554801Y111800D02*
D03*
X584700Y111700D02*
D03*
D45*
X653050Y203400D02*
D03*
Y221900D02*
D03*
X646550Y203400D02*
D03*
Y221900D02*
D03*
X579450Y221800D02*
D03*
Y203300D02*
D03*
X585950Y221800D02*
D03*
Y203300D02*
D03*
X140182Y62668D02*
D03*
X511250Y30700D02*
D03*
X517050Y87300D02*
D03*
X273350Y42000D02*
D03*
X304250Y39128D02*
D03*
Y56763D02*
D03*
X80050Y124000D02*
D03*
X274350Y163350D02*
D03*
X270850Y220494D02*
D03*
Y242700D02*
D03*
X175250Y186736D02*
D03*
X93850Y195621D02*
D03*
X114850D02*
D03*
X152164Y159363D02*
D03*
X136950Y74100D02*
D03*
X341050Y86200D02*
D03*
D46*
X478556Y68768D02*
D03*
X481508Y66800D02*
D03*
X478556Y64831D02*
D03*
X484461Y68768D02*
D03*
Y64831D02*
D03*
D47*
X27250Y225200D02*
D03*
Y125200D02*
D03*
D48*
X431250Y23100D02*
D03*
Y238100D02*
D03*
X158750D02*
D03*
Y23100D02*
D03*
D49*
X152011Y200000D02*
D03*
X318790Y176790D02*
D03*
X351974Y191790D02*
D03*
X424950Y198179D02*
D03*
X133507Y200000D02*
D03*
X118827Y185000D02*
D03*
X475401Y216863D02*
D03*
X295250Y163589D02*
D03*
X351974Y181790D02*
D03*
X356850Y211700D02*
D03*
X133507Y180000D02*
D03*
X469299Y216863D02*
D03*
X318790Y196790D02*
D03*
X306850Y211378D02*
D03*
X334550Y182000D02*
D03*
X118827Y205000D02*
D03*
X284750Y179300D02*
D03*
X210950Y193968D02*
D03*
X154150Y189445D02*
D03*
X259550Y169300D02*
D03*
X257057Y199400D02*
D03*
X367150Y184700D02*
D03*
X509270Y203700D02*
D03*
X496450D02*
D03*
Y212700D02*
D03*
X509270Y212500D02*
D03*
X500177Y100800D02*
D03*
X492850Y63847D02*
D03*
X502850Y208400D02*
D03*
X386971Y63420D02*
D03*
X389540Y113290D02*
D03*
X254042Y161700D02*
D03*
X235670Y183900D02*
D03*
X254174D02*
D03*
X218150Y217116D02*
D03*
X182050Y196100D02*
D03*
X133507Y190000D02*
D03*
X152011Y210000D02*
D03*
X220990Y198900D02*
D03*
X255350Y217300D02*
D03*
X353561Y201790D02*
D03*
X412950Y147451D02*
D03*
D50*
X492791Y54586D02*
D03*
X482386D02*
D03*
D51*
X394561Y139517D02*
D03*
D52*
X446924Y147200D02*
D03*
X431176D02*
D03*
D53*
X481508Y66800D02*
D03*
D54*
X477571Y72607D02*
D03*
X479540D02*
D03*
X481508D02*
D03*
X483477D02*
D03*
X485445D02*
D03*
Y60993D02*
D03*
X483477D02*
D03*
X481508D02*
D03*
X479540D02*
D03*
X477571D02*
D03*
D55*
X484974Y196972D02*
D03*
Y193232D02*
D03*
Y189492D02*
D03*
X475526D02*
D03*
Y196972D02*
D03*
D56*
X497481Y85100D02*
D03*
X481536D02*
D03*
D57*
X447687Y133000D02*
D03*
X439813D02*
D03*
D58*
X102813Y158772D02*
D03*
Y166253D02*
D03*
X110687Y162513D02*
D03*
X176682Y201860D02*
D03*
Y209340D02*
D03*
X184556Y205600D02*
D03*
D59*
X9750Y48200D02*
X27250Y30700D01*
X26850Y155900D02*
X37050Y166100D01*
X41850D01*
X27250Y57700D02*
X40739D01*
X41850Y136100D02*
Y156100D01*
X40739Y57700D02*
X46650Y63611D01*
Y131300D01*
X41850Y136100D02*
X46650Y131300D01*
X9750Y48200D02*
Y125500D01*
X26850Y142600D01*
Y155900D01*
D60*
X475260Y60993D02*
X477571D01*
X469343Y72607D02*
X477571D01*
X473306Y80400D02*
X479540Y74166D01*
X485445Y60993D02*
X491853Y54586D01*
X481508Y55463D02*
X482386Y54586D01*
X481508Y55463D02*
Y60993D01*
X483477Y57988D02*
X485550Y55915D01*
Y46900D02*
Y55915D01*
X483477Y57988D02*
Y60993D01*
X481508Y72607D02*
Y75572D01*
X478556Y64831D02*
X479540Y63847D01*
Y57788D02*
Y63847D01*
Y48173D02*
Y57788D01*
X483477Y69753D02*
Y72607D01*
X132701Y155426D02*
X132750Y155476D01*
D61*
X486100Y72600D02*
X486837Y73337D01*
X498008D01*
X459709Y65916D02*
X468667D01*
D62*
X500350Y120800D02*
Y183658D01*
D63*
X447724Y133063D02*
Y146500D01*
D64*
X412950Y147451D02*
X430925D01*
Y162080D01*
D65*
X475407Y67784D02*
D03*
X475407Y65816D02*
D03*
X487610Y65816D02*
D03*
X487610Y67784D02*
D03*
M02*
